<?xml version="1.0" standalone="no"?>
<!DOCTYPE svg PUBLIC "-//W3C//DTD SVG 1.1//EN" "http://www.w3.org/Graphics/SVG/1.1/DTD/svg11.dtd" >
<svg xmlns="http://www.w3.org/2000/svg" xmlns:xlink="http://www.w3.org/1999/xlink" version="1.1">
<metadata>
Created by FontForge 20170731 at Tue Jun 16 09:16:07 2020
 By Aleksey,,,
Copyright (c) 2018 by Christoph York. All rights reserved. Modification of this file requires prior written permission from Brink Type.
</metadata>
<defs>
<font id="BROmny-Regular" horiz-adv-x="600" >
  <font-face 
    font-family="BROmny-Regular"
    font-weight="400"
    font-stretch="normal"
    units-per-em="1000"
    panose-1="0 0 5 0 0 0 0 0 0 0"
    ascent="800"
    descent="-200"
    x-height="466"
    cap-height="700"
    bbox="-467 -252 1223 993"
    underline-thickness="50"
    underline-position="-200"
    unicode-range="U+000D-2B51"
  />
<missing-glyph horiz-adv-x="762" 
d="M113 700h536q20 0 20 -20v-660q0 -20 -20 -20h-536q-20 0 -20 20v660q0 20 20 20zM264 449h31q18 0 22 19q12 56 74 56q60 0 60 -52q0 -27 -32 -54l-31 -26q-32 -27 -42 -45.5t-10 -52.5v-13q0 -20 20 -20h30q20 0 20 20v11q0 20 5 30.5t23 25.5l30 25q58 48 58 101
t-36 84.5t-97 31.5q-62 0 -99 -31.5t-45 -88.5v-5q0 -16 19 -16zM321 155q0 -22 14 -36t35 -14q23 0 37 14t14 36t-14 36t-37 14q-21 0 -35 -14t-14 -36z" />
    <glyph glyph-name=".notdef" horiz-adv-x="762" 
d="M113 700h536q20 0 20 -20v-660q0 -20 -20 -20h-536q-20 0 -20 20v660q0 20 20 20zM264 449h31q18 0 22 19q12 56 74 56q60 0 60 -52q0 -27 -32 -54l-31 -26q-32 -27 -42 -45.5t-10 -52.5v-13q0 -20 20 -20h30q20 0 20 20v11q0 20 5 30.5t23 25.5l30 25q58 48 58 101
t-36 84.5t-97 31.5q-62 0 -99 -31.5t-45 -88.5v-5q0 -16 19 -16zM321 155q0 -22 14 -36t35 -14q23 0 37 14t14 36t-14 36t-37 14q-21 0 -35 -14t-14 -36z" />
    <glyph glyph-name=".null" horiz-adv-x="0" 
 />
    <glyph glyph-name="uni000D" horiz-adv-x="333" 
 />
    <glyph glyph-name="uni000D.1" unicode="&#xd;" horiz-adv-x="249" 
 />
    <glyph glyph-name="space" unicode=" " horiz-adv-x="249" 
 />
    <glyph glyph-name="exclam" unicode="!" horiz-adv-x="283" 
d="M93 680q0 20 19 20h59q19 0 19 -20l-12 -442q0 -20 -19 -20h-35q-20 0 -20 20zM78 55q0 28 17.5 45.5t45.5 17.5t45.5 -17.5t17.5 -45.5q0 -29 -17 -46t-46 -17q-28 0 -45.5 17.5t-17.5 45.5z" />
    <glyph glyph-name="quotedbl" unicode="&#x22;" horiz-adv-x="420" 
d="M274 710h57q20 0 20 -17v-3l-13 -235q-2 -19 -20 -19h-31q-18 0 -20 19l-13 235v3q0 17 20 17zM89 710h57q20 0 20 -17v-3l-13 -235q-2 -19 -19 -19h-32q-18 0 -20 19l-12 235v3q0 17 19 17z" />
    <glyph glyph-name="numbersign" unicode="#" horiz-adv-x="781" 
d="M109 267h110v166h-110q-20 0 -20 20v32q0 20 20 20h110v141q0 19 20 19h39q20 0 20 -19v-141h185v141q0 19 20 19h39q19 0 19 -19v-141h111q20 0 20 -20v-32q0 -20 -20 -20h-111v-166h111q20 0 20 -20v-32q0 -20 -20 -20h-111v-141q0 -19 -19 -19h-39q-20 0 -20 19v141
h-185v-141q0 -19 -20 -19h-39q-20 0 -20 19v141h-110q-20 0 -20 20v32q0 20 20 20zM483 267v166h-185v-166h185z" />
    <glyph glyph-name="dollar" unicode="$" horiz-adv-x="559" 
d="M60 216q5 5 15 5h49q16 0 21 -18q18 -69 104 -81v198l-16 3q-173 34 -173 166q0 71 48 115.5t138 51.5v46q0 19 20 19h29q20 0 20 -19v-47q159 -17 179 -159v-3q0 -18 -19 -18h-47q-18 0 -21 19q-12 73 -95 85v-188l35 -7q158 -31 158 -163q0 -77 -50.5 -123t-139.5 -53
v-47q0 -19 -20 -19h-29q-20 0 -20 19v48q-80 8 -129 48t-60 106q-1 3 -1 5q0 7 4 11zM312 121q51 6 79 31t28 64q0 71 -107 92v-187zM170 437q23 -20 79 -33v176q-103 -9 -103 -89q0 -35 24 -54z" />
    <glyph glyph-name="percent" unicode="%" horiz-adv-x="854" 
d="M458 168q0 76 51.5 127.5t126.5 51.5q76 0 127 -51.5t51 -127.5t-51 -127t-127 -51q-75 0 -126.5 51t-51.5 127zM91 659q51 51 126 51q76 0 127 -51t51 -127t-51 -127.5t-127 -51.5q-75 0 -126.5 51.5t-51.5 127.5t52 127zM165 24l445 663q9 13 23 13h43q12 0 14.5 -5
t2.5 -7q0 -6 -4 -12l-445 -663q-9 -13 -24 -13h-43q-11 0 -13.5 5t-2.5 7q0 6 4 12zM561 89q28 -30 75 -30t75 29.5t28 79.5t-28 80t-75 30q-46 0 -74.5 -30t-28.5 -80q0 -49 28 -79zM114 532q0 -50 29 -80q28 -30 74 -30t74.5 30t28.5 80q0 49 -28 79t-75 30t-75 -30
t-28 -79z" />
    <glyph glyph-name="ampersand" unicode="&#x26;" horiz-adv-x="671" 
d="M204 372l11 6l-2 2q-47 54 -67 92.5t-20 77.5q0 68 50.5 114t131.5 46q79 0 129.5 -44t50.5 -113q0 -103 -118 -172l-35 -20l141 -161q23 51 32 119q3 19 20 19h42q18 0 18 -21q0 -4 -1 -10q-13 -100 -54 -171l97 -111q6 -7 6 -13q0 -2 -2 -7t-15 -5h-55q-14 0 -24 11
l-54 62q-80 -83 -202 -83q-98 0 -161.5 52.5t-63.5 134.5q0 111 145 195zM185 99q36 -30 97 -30q89 0 149 63l-169 192l-8 -5q-57 -34 -81.5 -67t-24.5 -72q0 -52 37 -81zM267 438l20 -23l45 26q72 42 72 103q0 41 -27.5 65t-69.5 24t-69.5 -23.5t-27.5 -58.5q0 -48 57 -113
z" />
    <glyph glyph-name="quotesingle" unicode="'" horiz-adv-x="235" 
d="M89 710h57q20 0 20 -17v-3l-13 -235q-2 -19 -19 -19h-32q-18 0 -20 19l-12 235v3q0 17 19 17z" />
    <glyph glyph-name="parenleft" unicode="(" horiz-adv-x="326" 
d="M69 326q0 117 37.5 231t106.5 202q6 9 13 9t15 -7l31 -24q8 -7 8 -14q0 -6 -5 -12q-54 -73 -87.5 -174t-33.5 -211t33.5 -211t87.5 -173q5 -7 5 -13q0 -7 -8 -14l-31 -24q-8 -6 -14 -6q-8 0 -14 8q-69 88 -106.5 202t-37.5 231z" />
    <glyph glyph-name="parenright" unicode=")" horiz-adv-x="326" 
d="M51 -58q54 72 87.5 173t33.5 211t-33.5 211t-87.5 174q-5 6 -5 12q0 7 8 14l31 24q8 6 15 6q8 0 14 -8q68 -88 105.5 -202t37.5 -231t-37.5 -231t-105.5 -202q-6 -8 -14 -8q-7 0 -15 6l-31 24q-8 7 -8 14q0 6 5 13z" />
    <glyph glyph-name="asterisk" unicode="*" horiz-adv-x="523" 
d="M75 563l11 32q4 13 15 13q4 0 9 -2l120 -42l-4 127q0 19 19 19h33q19 0 19 -19l-5 -127l121 42q5 2 9 2q10 0 15 -13l11 -32q1 -4 1 -8q0 -12 -15 -17l-120 -34l77 -101q5 -7 5 -13q0 -9 -9 -15l-27 -19q-7 -4 -12 -4q-8 0 -14 9l-73 105l-72 -105q-6 -10 -15 -10
q-5 0 -12 5l-26 19q-9 6 -9 15q0 6 5 13l77 101l-121 34q-14 5 -14 17q0 3 1 8z" />
    <glyph glyph-name="plus" unicode="+" 
d="M99 356h159v171q0 20 20 20h44q20 0 20 -20v-171h159q20 0 20 -19v-40q0 -19 -20 -19h-159v-171q0 -20 -20 -20h-44q-20 0 -20 20v171h-159q-20 0 -20 19v40q0 19 20 19z" />
    <glyph glyph-name="comma" unicode="," horiz-adv-x="248" 
d="M47 -128l44 235q3 18 21 18h50q18 0 18 -15q0 -3 -1 -7l-62 -236q-5 -17 -22 -17h-30q-18 0 -18 17v5z" />
    <glyph glyph-name="hyphen" unicode="-" horiz-adv-x="398" 
d="M73 313h252q19 0 19 -20v-41q0 -19 -19 -19h-252q-19 0 -19 19v41q0 20 19 20z" />
    <glyph glyph-name="period" unicode="." horiz-adv-x="247" 
d="M78 101q17 17 45 17t45.5 -17.5t17.5 -45.5q0 -29 -17 -46t-46 -17q-28 0 -45.5 17.5t-17.5 45.5t18 46z" />
    <glyph glyph-name="slash" unicode="/" horiz-adv-x="458" 
d="M20 -55l333 750q6 15 24 15h45q11 0 14.5 -4.5t3.5 -8.5t-2 -9l-333 -751q-6 -15 -24 -15h-45q-11 0 -14.5 5t-3.5 9t2 9z" />
    <glyph glyph-name="zero" unicode="0" horiz-adv-x="673" 
d="M59 350q0 167 76 263.5t201 96.5t201.5 -96.5t76.5 -263.5t-76 -263q-77 -97 -202 -97t-201 96.5t-76 263.5zM151 350q0 -136 48 -207t137 -71t137.5 71t48.5 207t-48.5 207t-137.5 71t-137 -71t-48 -207z" />
    <glyph glyph-name="one" unicode="1" horiz-adv-x="387" 
d="M44 541v46q0 16 14 24l142 82q11 7 25 7h39q20 0 20 -20v-660q0 -20 -20 -20h-49q-19 0 -19 20v581l-128 -73q-6 -4 -11 -4q-3 0 -8 3t-5 14z" />
    <glyph glyph-name="two" unicode="2" horiz-adv-x="576" 
d="M95 190q41 61 137 115l70 40q69 39 100 79t31 86q0 53 -36 85.5t-98 32.5q-63 0 -102.5 -35.5t-46.5 -96.5q-2 -20 -20 -20h-53q-19 0 -19 17v3q8 99 72.5 156.5t166.5 57.5q101 0 164 -55.5t63 -146.5q0 -66 -38 -119t-124 -102l-70 -40q-79 -45 -110.5 -81.5
t-33.5 -82.5h359q19 0 19 -19v-44q0 -20 -19 -20h-434q-19 0 -19 20v29q0 79 41 141z" />
    <glyph glyph-name="three" unicode="3" horiz-adv-x="593" 
d="M71 217h52q18 0 21 -19q8 -60 48.5 -93t106.5 -33q69 0 111 34.5t42 88.5q0 55 -43.5 87.5t-119.5 32.5h-24q-20 0 -20 20v42q0 20 20 20h20q71 0 112 33t41 86q0 51 -38 81.5t-101 30.5t-101 -33.5t-45 -93.5q-2 -19 -20 -19h-52q-20 0 -20 19v2q8 97 72 152t167 55
t166.5 -54t63.5 -138q0 -59 -32 -101t-93 -58v-2q65 -12 102.5 -56t37.5 -108q0 -87 -67.5 -145t-179.5 -58q-106 0 -172 55t-74 151v3q0 18 19 18z" />
    <glyph glyph-name="four" unicode="4" horiz-adv-x="612" 
d="M30 176v39q0 14 8 25l335 448q8 12 23 12h65q20 0 20 -20v-444h82q19 0 19 -20v-40q0 -19 -19 -19h-82v-137q0 -20 -20 -20h-47q-19 0 -19 20v137h-346q-19 0 -19 19zM395 236v354h-2l-264 -354h266z" />
    <glyph glyph-name="five" unicode="5" horiz-adv-x="603" 
d="M76 202h52q17 0 20 -19q11 -49 54 -80t102 -31q71 0 117 46.5t46 119.5q0 67 -40.5 108t-107.5 41q-91 0 -147 -64q-9 -12 -23 -12h-61q-18 0 -18 16v5l45 349q3 19 21 19h363q20 0 20 -20v-43q0 -19 -20 -19h-308l-28 -212q65 59 163 59q102 0 167 -63.5t65 -165.5
q0 -108 -71 -177t-183 -69q-99 0 -167.5 53t-79.5 138v5q0 16 19 16z" />
    <glyph glyph-name="six" unicode="6" horiz-adv-x="624" 
d="M133 611q74 99 206 99q86 0 144.5 -41t75.5 -111q1 -3 1 -5q0 -7 -4.5 -11.5t-14.5 -4.5h-52q-16 0 -22 16q-24 75 -127 75q-177 0 -190 -260h2q29 46 78.5 71t110.5 25q103 0 171 -67t68 -169q0 -104 -71 -171t-184 -67q-114 0 -184 70q-82 84 -82 269q0 182 74 282z
M162 228q0 -71 45 -113q44 -43 118 -43t118.5 42.5t44.5 113.5t-44.5 113t-118.5 42t-118.5 -42t-44.5 -113z" />
    <glyph glyph-name="seven" unicode="7" horiz-adv-x="542" 
d="M34 680q0 20 20 20h434q20 0 20 -20v-44q0 -14 -6 -24l-282 -597q-7 -15 -22 -15h-52q-11 0 -13.5 5t-2.5 9q0 5 2 10l280 592h-358q-20 0 -20 20v44z" />
    <glyph glyph-name="eight" unicode="8" horiz-adv-x="631" 
d="M87 298q34 46 100 67v2q-55 20 -84 61.5t-29 95.5q0 81 64 133.5t178 52.5q113 0 177 -53t64 -133q0 -54 -29 -95.5t-84 -61.5v-2q66 -21 100.5 -67t34.5 -105q0 -88 -71 -145q-72 -58 -192 -58t-191.5 57.5t-71.5 145.5q0 59 34 105zM191 107q45 -35 125 -35
q79 0 124.5 35t45.5 92t-45 91.5t-125 34.5t-125.5 -34.5t-45.5 -91.5t46 -92zM204 431q40 -33 112 -33t111.5 32.5t39.5 84.5t-39.5 84t-111.5 32t-112 -32t-40 -84t40 -84z" />
    <glyph glyph-name="nine" unicode="9" horiz-adv-x="623" 
d="M49 473q0 103 70.5 170t182.5 67q116 0 183 -73q80 -86 80 -268q0 -179 -73.5 -279t-206.5 -100q-87 0 -146 41t-76 111v5q0 16 18 16h53q14 0 22 -16q22 -75 128 -75q180 0 191 263h-3q-27 -44 -78 -69.5t-112 -25.5q-101 0 -167 66t-66 167zM184 362q43 -42 114 -42
q74 0 119 42.5t45 112.5q0 68 -44.5 110.5t-116.5 42.5t-116.5 -43t-44.5 -113q0 -68 44 -110z" />
    <glyph glyph-name="colon" unicode=":" horiz-adv-x="267" 
d="M88 440q17 17 45 17q29 0 46 -17.5t17 -45.5t-17 -45.5t-46 -17.5q-28 0 -45.5 17.5t-17.5 45.5t18 46zM88 101q17 17 45 17t45.5 -17.5t17.5 -45.5q0 -29 -17 -46t-46 -17q-28 0 -45.5 17.5t-17.5 45.5t18 46z" />
    <glyph glyph-name="semicolon" unicode=";" horiz-adv-x="273" 
d="M51 -128l44 235q3 18 21 18h50q18 0 18 -15q0 -3 -1 -7l-62 -236q-5 -17 -22 -17h-30q-18 0 -18 17v5zM94 440q17 17 45 17q29 0 46 -17.5t17 -45.5t-17 -45.5t-46 -17.5q-28 0 -45.5 17.5t-17.5 45.5t18 46z" />
    <glyph glyph-name="less" unicode="&#x3c;" 
d="M95 365l403 160q6 2 10 2q13 0 13 -18v-46q0 -17 -16 -23l-323 -122v-2l323 -122q16 -6 16 -23v-46q0 -18 -13 -18q-4 0 -10 2l-403 160q-16 6 -16 23v50q0 17 16 23z" />
    <glyph glyph-name="equal" unicode="=" 
d="M99 255h402q20 0 20 -20v-38q0 -20 -20 -20h-402q-20 0 -20 20v38q0 20 20 20zM79 437q0 19 20 19h402q20 0 20 -19v-38q0 -20 -20 -20h-402q-20 0 -20 20v38z" />
    <glyph glyph-name="greater" unicode="&#x3e;" 
d="M79 171q0 17 16 23l323 122v2l-323 122q-16 6 -16 23v46q0 18 13 18q4 0 10 -2l403 -160q16 -6 16 -23v-50q0 -17 -16 -23l-403 -160q-6 -2 -10 -2q-13 0 -13 18v46z" />
    <glyph glyph-name="question" unicode="?" horiz-adv-x="488" 
d="M37 531q9 82 66 130.5t148 48.5q89 0 141 -46.5t52 -122.5q0 -40 -19.5 -74.5t-68.5 -75.5l-48 -40q-27 -22 -35 -39.5t-8 -50.5v-27q0 -20 -19 -20h-48q-20 0 -20 20v27q0 50 15 79.5t61 67.5l48 41q54 45 54 91q0 43 -26.5 65.5t-75.5 22.5q-53 0 -87 -26t-42 -73
q-4 -19 -22 -19h-48q-18 0 -18 16v5zM177 101q17 17 45 17t45.5 -17.5t17.5 -45.5q0 -29 -17 -46q-18 -17 -46 -17t-45.5 17t-17.5 46q0 28 18 46z" />
    <glyph glyph-name="at" unicode="@" horiz-adv-x="959" 
d="M59 221q0 187 126 309.5t308 122.5q112 0 206 -48.5t150.5 -138t56.5 -201.5q0 -109 -51.5 -177t-128.5 -68q-45 0 -77.5 23.5t-44.5 66.5q-14 -43 -52.5 -65.5t-87.5 -22.5q-78 0 -130.5 56t-52.5 144t52.5 144t130.5 56q44 0 77.5 -19.5t47.5 -54.5h3v43q0 19 19 19h34
q20 0 20 -19v-219q0 -86 62 -86q45 0 73 46t28 124q0 147 -95 234t-238 87q-154 0 -254.5 -99.5t-100.5 -254.5t101.5 -249t266.5 -94q102 0 199 42q6 2 11 2q13 0 13 -17v-33q0 -16 -12 -22q-94 -47 -216 -47q-194 0 -319 115.5t-125 300.5zM364 222q0 -59 32 -93
q31 -35 81 -35t81 34.5t31 93.5q0 60 -31 94t-81 34t-81.5 -34.5t-31.5 -93.5z" />
    <glyph glyph-name="A" unicode="A" horiz-adv-x="705" 
d="M27 23l277 662q5 15 23 15h51q18 0 23 -15l277 -662q2 -6 2 -10t-2.5 -8.5t-13.5 -4.5h-54q-18 0 -23 15l-59 144h-351l-59 -144q-5 -15 -23 -15h-53q-18 0 -18 12q0 4 3 11zM495 241l-141 347h-2l-142 -347h285z" />
    <glyph glyph-name="B" unicode="B" horiz-adv-x="684" 
d="M113 700h232q111 0 172.5 -48t61.5 -136q0 -56 -24.5 -95.5t-69.5 -55.5v-2q71 -9 109 -54t38 -117q0 -93 -64.5 -142.5t-183.5 -49.5h-271q-20 0 -20 20v660q0 20 20 20zM376 80q86 0 123.5 28.5t37.5 89.5q0 63 -37.5 91.5t-123.5 28.5h-193v-238h193zM183 620v-224
h154q77 0 112.5 28t35.5 84q0 57 -35.5 84.5t-112.5 27.5h-154z" />
    <glyph glyph-name="C" unicode="C" horiz-adv-x="806" 
d="M161 606q101 104 256 104q121 0 209.5 -65t115.5 -180q1 -4 1 -8q0 -13 -18 -13h-56q-16 0 -21 17q-20 76 -81.5 119.5t-149.5 43.5q-117 0 -190.5 -76.5t-73.5 -197.5t73.5 -197.5t190.5 -76.5q88 0 149.5 43.5t81.5 119.5q5 17 21 17h56q18 0 18 -14q0 -3 -1 -8
q-27 -114 -115.5 -179t-209.5 -65q-155 0 -256.5 104t-101.5 256t102 256z" />
    <glyph glyph-name="D" unicode="D" horiz-adv-x="729" 
d="M93 20v660q0 20 20 20h193q161 0 262.5 -98.5t101.5 -251.5t-101.5 -251.5t-262.5 -98.5h-193q-20 0 -20 20zM304 85q127 0 199 72t72 193t-72 193t-199 72h-120v-530h120z" />
    <glyph glyph-name="E" unicode="E" horiz-adv-x="632" 
d="M113 700h436q20 0 20 -20v-44q0 -20 -20 -20h-365v-224h290q20 0 20 -20v-44q0 -20 -20 -20h-290v-224h369q20 0 20 -20v-44q0 -20 -20 -20h-440q-20 0 -20 20v660q0 20 20 20z" />
    <glyph glyph-name="F" unicode="F" horiz-adv-x="612" 
d="M93 20v660q0 20 20 20h432q20 0 20 -20v-44q0 -20 -20 -20h-361v-235h312q20 0 20 -20v-44q0 -20 -20 -20h-312v-277q0 -20 -20 -20h-51q-20 0 -20 20z" />
    <glyph glyph-name="G" unicode="G" horiz-adv-x="819" 
d="M160 607q101 103 257 103q116 0 204.5 -59t116.5 -156q1 -4 1 -7q0 -15 -18 -15h-56q-17 0 -23 17q-22 61 -82.5 97.5t-141.5 36.5q-119 0 -192 -77t-73 -197q0 -123 74.5 -198.5t191.5 -75.5q106 0 175.5 62.5t74.5 167.5h-216q-20 0 -20 20v39q0 19 20 19h287
q20 0 20 -19v-29q0 -156 -95.5 -251t-246.5 -95q-156 0 -257.5 102.5t-101.5 257.5q0 154 101 257z" />
    <glyph glyph-name="H" unicode="H" horiz-adv-x="744" 
d="M113 700h51q20 0 20 -20v-298h377v298q0 20 19 20h51q20 0 20 -20v-660q0 -20 -20 -20h-51q-19 0 -19 20v277h-377v-277q0 -20 -20 -20h-51q-20 0 -20 20v660q0 20 20 20z" />
    <glyph glyph-name="I" unicode="I" horiz-adv-x="277" 
d="M113 700h51q20 0 20 -20v-660q0 -20 -20 -20h-51q-20 0 -20 20v660q0 20 20 20z" />
    <glyph glyph-name="J" unicode="J" horiz-adv-x="632" 
d="M57 232v66q0 20 20 20h52q19 0 19 -20v-54q0 -168 154 -168q155 0 155 168v372h-280q-19 0 -19 20v44q0 20 19 20h351q20 0 20 -20v-444q0 -117 -64 -181.5t-182 -64.5q-115 0 -180 62.5t-65 179.5z" />
    <glyph glyph-name="K" unicode="K" horiz-adv-x="679" 
d="M93 20v660q0 20 20 20h51q20 0 20 -20v-333h74q20 0 30 -1l223 341q9 13 25 13h65q11 0 13.5 -5t2.5 -7q0 -6 -4 -12l-228 -347q98 -29 160 -106.5t83 -200.5v-5q0 -17 -19 -17h-57q-18 0 -21 18q-25 130 -93.5 186.5t-187.5 56.5h-66v-241q0 -20 -20 -20h-51
q-20 0 -20 20z" />
    <glyph glyph-name="L" unicode="L" horiz-adv-x="576" 
d="M113 700h51q20 0 20 -20v-595h338q20 0 20 -20v-45q0 -20 -20 -20h-409q-20 0 -20 20v660q0 20 20 20z" />
    <glyph glyph-name="M" unicode="M" horiz-adv-x="914" 
d="M113 700h57q16 0 24 -13l262 -415h2l262 415q8 13 24 13h57q20 0 20 -20v-660q0 -20 -20 -20h-51q-19 0 -19 20v524h-2l-228 -359q-8 -13 -24 -13h-40q-16 0 -24 13l-228 359h-1v-524q0 -20 -20 -20h-51q-20 0 -20 20v660q0 20 20 20z" />
    <glyph glyph-name="N" unicode="N" horiz-adv-x="772" 
d="M113 700h51q16 0 24 -12l399 -539h1v531q0 20 20 20h51q20 0 20 -20v-660q0 -20 -20 -20h-53q-16 0 -23 12l-398 538h-1v-530q0 -20 -20 -20h-51q-20 0 -20 20v660q0 20 20 20z" />
    <glyph glyph-name="O" unicode="O" horiz-adv-x="833" 
d="M163 605q103 105 253 105t254 -105t104 -255t-104 -255t-254 -105t-253.5 105t-103.5 255t104 255zM227 154q74 -78 189 -78q116 0 189.5 78t73.5 196t-73.5 196t-189.5 78q-115 0 -189 -78t-74 -196t74 -196z" />
    <glyph glyph-name="P" unicode="P" horiz-adv-x="665" 
d="M93 20v660q0 20 20 20h256q119 0 185 -61t66 -169t-66 -168.5t-185 -60.5h-185v-221q0 -20 -20 -20h-51q-20 0 -20 20zM360 325q166 0 166 145q0 146 -166 146h-176v-291h176z" />
    <glyph glyph-name="Q" unicode="Q" horiz-adv-x="833" 
d="M163 605q103 105 253 105t254 -105t104 -255q0 -82 -33.5 -153.5t-92.5 -122.5l94 -121q5 -7 5 -13q0 -8 -8 -15l-35 -25q-6 -6 -12 -6q-8 0 -15 10l-98 125q-75 -39 -163 -39q-150 0 -253.5 105t-103.5 255t104 255zM153 350q0 -118 74 -196t189 -78q56 0 108 21
l-102 131q-5 7 -5 13q0 8 8 14l34 26q7 6 13 6q8 0 15 -10l106 -135q86 78 86 208q0 118 -73.5 196t-189.5 78q-115 0 -189 -78t-74 -196z" />
    <glyph glyph-name="R" unicode="R" horiz-adv-x="689" 
d="M93 680q0 20 20 20h253q118 0 184.5 -60.5t66.5 -163.5q0 -76 -38.5 -131t-108.5 -77q114 -58 147 -246q1 -3 1 -5q0 -7 -4.5 -12t-13.5 -5h-58q-18 0 -21 18q-24 122 -85 178t-169 56h-83v-232q0 -20 -20 -20h-51q-20 0 -20 20v660zM184 337h172q166 0 166 139
q0 140 -166 140h-172v-279z" />
    <glyph glyph-name="S" unicode="S" horiz-adv-x="624" 
d="M57 193q5 5 15 5h54q16 0 21 -18q25 -107 170 -107q78 0 121.5 32t43.5 86q0 89 -120 110l-106 20q-197 36 -197 193q0 89 64.5 142.5t184.5 53.5q231 0 255 -196v-5q0 -16 -18 -16h-52q-18 0 -21 19q-8 61 -48.5 88t-116.5 27q-155 0 -155 -111q0 -47 30.5 -73.5
t108.5 -41.5l106 -19q178 -34 178 -186q0 -95 -69 -150.5t-188 -55.5q-112 0 -181 49t-83 138q-1 3 -1 5q0 7 4 11z" />
    <glyph glyph-name="T" unicode="T" horiz-adv-x="596" 
d="M29 635v45q0 20 20 20h498q20 0 20 -20v-45q0 -20 -20 -20h-204v-595q0 -20 -20 -20h-51q-19 0 -19 20v595h-204q-20 0 -20 20z" />
    <glyph glyph-name="U" unicode="U" horiz-adv-x="727" 
d="M84 281v399q0 20 20 20h51q20 0 20 -20v-388q0 -106 49 -160.5t140 -54.5t139.5 54t48.5 161v388q0 20 20 20h51q20 0 20 -20v-399q0 -138 -75.5 -214.5t-203.5 -76.5q-129 0 -204.5 76.5t-75.5 214.5z" />
    <glyph glyph-name="V" unicode="V" horiz-adv-x="681" 
d="M42 700h53q16 0 22 -16l223 -569h2l222 569q6 16 23 16h53q18 0 18 -13q0 -4 -2 -10l-266 -661q-6 -16 -23 -16h-53q-17 0 -23 16l-265 661q-2 6 -2 10q0 13 18 13z" />
    <glyph glyph-name="W" unicode="W" horiz-adv-x="1049" 
d="M48 700h53q18 0 22 -16l177 -549h2l176 549q4 16 21 16h50q18 0 22 -16l176 -549h2l177 549q4 16 22 16h53q18 0 18 -13q0 -4 -2 -10l-219 -661q-6 -16 -22 -16h-52q-17 0 -22 16l-177 541h-2l-177 -541q-5 -16 -21 -16h-53q-15 0 -21 16l-219 661q-2 6 -2 10q0 13 18 13
z" />
    <glyph glyph-name="X" unicode="X" horiz-adv-x="649" 
d="M39 24l231 342l-219 310q-4 6 -4 12q0 2 2.5 7t13.5 5h58q15 0 24 -13l178 -258h2l179 258q7 13 23 13h58q12 0 14.5 -5t2.5 -7q0 -6 -4 -12l-219 -310l231 -342q5 -7 5 -12q0 -3 -2.5 -7.5t-14.5 -4.5h-61q-15 0 -24 13l-188 280h-2l-188 -280q-9 -13 -23 -13h-61
q-12 0 -14.5 4.5t-2.5 7.5q0 5 5 12z" />
    <glyph glyph-name="Y" unicode="Y" horiz-adv-x="657" 
d="M25 693q4 7 16 7h58q14 0 23 -13l206 -321h1l206 321q9 13 24 13h58q11 0 14 -5t3 -8q0 -5 -4 -11l-256 -391v-265q0 -20 -19 -20h-52q-20 0 -20 20v265l-255 391q-4 6 -4 12q0 2 1 5z" />
    <glyph glyph-name="Z" unicode="Z" horiz-adv-x="627" 
d="M62 79l389 537h-370q-19 0 -19 20v44q0 20 19 20h465q20 0 20 -20v-35q0 -13 -8 -24l-389 -537h384q20 0 20 -20v-44q0 -20 -20 -20h-479q-20 0 -20 20v35q0 15 8 24z" />
    <glyph glyph-name="bracketleft" unicode="[" horiz-adv-x="369" 
d="M93 748q0 20 20 20h192q20 0 20 -20v-34q0 -19 -20 -19h-128v-736h128q20 0 20 -19v-34q0 -20 -20 -20h-192q-20 0 -20 20v842z" />
    <glyph glyph-name="backslash" unicode="\" horiz-adv-x="458" 
d="M21 704q4 6 15 6h45q18 0 24 -15l333 -750q2 -5 2 -9t-3.5 -9t-14.5 -5h-45q-18 0 -24 15l-333 751q-2 4 -2 8q0 5 3 8z" />
    <glyph glyph-name="bracketright" unicode="]" horiz-adv-x="370" 
d="M44 748q0 20 20 20h193q19 0 19 -20v-842q0 -20 -19 -20h-193q-20 0 -20 20v34q0 19 20 19h129v736h-129q-20 0 -20 19v34z" />
    <glyph glyph-name="asciicircum" unicode="^" horiz-adv-x="583" 
d="M52 364l188 322q8 14 23 14h57q17 0 23 -14l188 -322q4 -6 4 -11q0 -3 -3 -8t-15 -5h-47q-16 0 -24 14l-153 264h-2l-154 -264q-8 -14 -23 -14h-48q-12 0 -14.5 5t-2.5 8q0 5 3 11z" />
    <glyph glyph-name="underscore" unicode="_" horiz-adv-x="455" 
d="M30 -54h396q19 0 19 -20v-34q0 -20 -19 -20h-396q-20 0 -20 20v34q0 20 20 20z" />
    <glyph glyph-name="grave" unicode="`" 
d="M144 680q3 7 16 7h62q15 0 23 -13l78 -112q4 -6 4 -12q0 -2 -2.5 -7t-14.5 -5h-47q-14 0 -23 12l-91 113q-6 7 -6 13q0 2 1 4z" />
    <glyph glyph-name="a" unicode="a" horiz-adv-x="612" 
d="M117 406q67 70 165 70q54 0 99 -23t66 -62h2v55q0 20 20 20h45q20 0 20 -20v-426q0 -20 -20 -20h-45q-20 0 -20 20v55h-2q-20 -40 -65 -62.5t-100 -22.5q-98 0 -165.5 70t-67.5 173t68 173zM181 114q43 -47 113 -47t113 47t43 119q0 71 -43.5 118t-112.5 47
q-70 0 -113.5 -47t-43.5 -118q0 -72 44 -119z" />
    <glyph glyph-name="b" unicode="b" horiz-adv-x="612" 
d="M78 20v660q0 20 20 20h46q20 0 20 -20v-289h4q19 39 64 62t99 23q97 0 165 -70.5t68 -172.5t-68 -172.5t-166 -70.5q-55 0 -100 22.5t-65 62.5h-2v-55q0 -20 -20 -20h-45q-20 0 -20 20zM206 114q43 -47 113 -47t113.5 47.5t43.5 118.5t-43.5 118t-113.5 47t-113.5 -47
t-43.5 -118q0 -72 44 -119z" />
    <glyph glyph-name="c" unicode="c" horiz-adv-x="566" 
d="M117 407q67 69 174 69q86 0 147 -44.5t77 -117.5v-5q0 -16 -19 -16h-49q-17 0 -22 17q-28 88 -133 88q-70 0 -112.5 -46.5t-42.5 -118.5q0 -73 42.5 -119.5t112.5 -46.5q49 0 84 23t49 65q5 17 21 17h49q10 0 15 -4.5t5 -9.5q0 -3 -1 -5q-15 -73 -76 -118t-147 -45
q-107 0 -174.5 69.5t-67.5 173.5t68 174z" />
    <glyph glyph-name="d" unicode="d" horiz-adv-x="613" 
d="M117 406q67 70 164 70q53 0 98.5 -23t65.5 -62h3v289q0 20 20 20h47q19 0 19 -20v-660q0 -20 -19 -20h-46q-20 0 -20 20v55h-2q-20 -40 -65 -62.5t-100 -22.5q-98 0 -165.5 70t-67.5 173q0 102 68 173zM137 233q0 -72 44 -119q43 -47 113 -47t113 47t43 119
q0 71 -43.5 118t-112.5 47q-70 0 -113.5 -47t-43.5 -118z" />
    <glyph glyph-name="e" unicode="e" horiz-adv-x="571" 
d="M49 233q0 107 66.5 175t173.5 68q105 0 169.5 -66t64.5 -174v-9q0 -23 -23 -23h-365q7 -69 48.5 -105t109.5 -36q48 0 82.5 17t49.5 45q7 16 23 16h43q11 0 15.5 -4t4.5 -10v-2q-20 -60 -78 -97.5t-141 -37.5q-110 0 -176.5 67t-66.5 176zM137 271h298q-9 65 -47 99
t-100 34q-64 0 -103 -34t-48 -99z" />
    <glyph glyph-name="f" unicode="f" horiz-adv-x="393" 
d="M40 466h88v41q0 204 176 204q36 0 64 -9q16 -4 16 -21v-35q0 -18 -15 -18q-3 0 -7 1q-20 4 -43 4q-56 0 -80.5 -28t-24.5 -96v-43h144q19 0 19 -20v-34q0 -20 -19 -20h-144v-372q0 -20 -20 -20h-47q-19 0 -19 20v372h-88q-19 0 -19 20v34q0 20 19 20z" />
    <glyph glyph-name="g" unicode="g" horiz-adv-x="612" 
d="M117 406q68 70 165 70q54 0 99 -23t66 -62h3v55q0 20 20 20h44q20 0 20 -20v-438q0 -110 -65.5 -172t-180.5 -62q-93 0 -152.5 40.5t-73.5 111.5q-1 2 -1 5q0 6 5 11t15 5h48q16 0 22 -18q23 -81 138 -81q79 0 120 41.5t41 118.5v73h-3q-21 -39 -66 -62t-99 -23
q-97 0 -165 70.5t-68 169.5t68 170zM137 236q0 -71 43.5 -117t113.5 -46q69 0 112.5 46.5t43.5 116.5t-43.5 116t-112.5 46q-70 0 -113.5 -46t-43.5 -116z" />
    <glyph glyph-name="h" unicode="h" horiz-adv-x="585" 
d="M98 700h46q20 0 20 -20v-289h4q20 40 62 62.5t99 22.5q86 0 135.5 -52t49.5 -144v-260q0 -20 -19 -20h-47q-20 0 -20 20v241q0 136 -121 136q-65 0 -104 -38t-39 -102v-237q0 -20 -20 -20h-46q-20 0 -20 20v660q0 20 20 20z" />
    <glyph glyph-name="i" unicode="i" horiz-adv-x="242" 
d="M78 446q0 20 20 20h46q20 0 20 -20v-426q0 -20 -20 -20h-46q-20 0 -20 20v426zM59 615q0 27 17.5 44.5t44.5 17.5t44.5 -17.5t17.5 -44.5q0 -26 -17 -44q-18 -18 -45 -18t-44.5 18t-17.5 44z" />
    <glyph glyph-name="j" unicode="j" horiz-adv-x="242" 
d="M-58 -199v37q0 17 16 17h5q18 -2 27 -2q47 0 67.5 23t20.5 80v490q0 20 20 20h46q20 0 20 -20v-492q0 -180 -156 -180q-26 0 -49 5q-17 4 -17 22zM59 615q0 27 17.5 44.5t44.5 17.5t44.5 -17.5t17.5 -44.5q0 -26 -17 -44q-18 -18 -45 -18t-44.5 18t-17.5 44z" />
    <glyph glyph-name="k" unicode="k" horiz-adv-x="551" 
d="M78 20v660q0 20 20 20h46q20 0 20 -20v-405h58q13 0 39 -2l140 181q9 12 24 12h60q13 0 15.5 -4.5t2.5 -7.5q0 -5 -6 -12l-147 -190q135 -54 165 -230v-4q0 -18 -19 -18h-49q-18 0 -21 19q-18 96 -68.5 137t-143.5 41h-50v-177q0 -20 -20 -20h-46q-20 0 -20 20z" />
    <glyph glyph-name="l" unicode="l" horiz-adv-x="242" 
d="M98 700h46q20 0 20 -20v-660q0 -20 -20 -20h-46q-20 0 -20 20v660q0 20 20 20z" />
    <glyph glyph-name="m" unicode="m" horiz-adv-x="880" 
d="M78 446q0 20 20 20h44q20 0 20 -20v-58h3q18 41 57.5 64.5t91.5 23.5q53 0 92.5 -25.5t59.5 -71.5h3q22 46 65.5 71.5t99.5 25.5q81 0 128.5 -52t47.5 -142v-262q0 -20 -20 -20h-47q-19 0 -19 20v241q0 67 -28.5 101.5t-80.5 34.5q-56 0 -92 -38t-36 -102v-237
q0 -20 -20 -20h-46q-20 0 -20 20v241q0 67 -29 101.5t-80 34.5q-56 0 -92 -38.5t-36 -101.5v-237q0 -20 -20 -20h-46q-20 0 -20 20v426z" />
    <glyph glyph-name="n" unicode="n" horiz-adv-x="585" 
d="M78 20v426q0 20 20 20h45q20 0 20 -20v-55h2q20 40 63 62.5t100 22.5q87 0 136.5 -52t49.5 -144v-260q0 -20 -19 -20h-47q-20 0 -20 20v241q0 136 -121 136q-65 0 -104 -38t-39 -102v-237q0 -20 -20 -20h-46q-20 0 -20 20z" />
    <glyph glyph-name="o" unicode="o" horiz-adv-x="587" 
d="M120 406q70 70 174 70q103 0 173.5 -70t70.5 -173t-70.5 -173t-173.5 -70q-104 0 -174.5 70t-70.5 173t71 173zM137 233q0 -72 44 -119q43 -47 113 -47t113 47t43 119q0 71 -43.5 118t-112.5 47q-70 0 -113.5 -47t-43.5 -118z" />
    <glyph glyph-name="p" unicode="p" horiz-adv-x="612" 
d="M98 466h44q20 0 20 -20v-55h3q21 39 66 62t99 23q98 0 166 -70.5t68 -172.5t-68 -172.5t-165 -70.5q-54 0 -99 22.5t-64 62.5h-4v-271q0 -20 -20 -20h-46q-20 0 -20 20v642q0 20 20 20zM206 114q43 -47 113 -47t113.5 47.5t43.5 118.5t-43.5 118t-113.5 47t-113.5 -47
t-43.5 -118q0 -72 44 -119z" />
    <glyph glyph-name="q" unicode="q" horiz-adv-x="613" 
d="M49 233q0 103 67.5 173t165.5 70q54 0 99 -23t66 -62h3v55q0 20 20 20h45q19 0 19 -20v-642q0 -20 -19 -20h-47q-20 0 -20 20v271h-3q-20 -40 -65 -62.5t-99 -22.5q-97 0 -164.5 70.5t-67.5 172.5zM137 233q0 -72 44 -119q43 -47 113 -47t113 47t43 119q0 71 -43.5 118
t-112.5 47q-70 0 -113.5 -47t-43.5 -118z" />
    <glyph glyph-name="r" unicode="r" horiz-adv-x="385" 
d="M98 466h45q20 0 20 -20v-73h1q41 101 151 101q10 0 28 -2q17 -4 17 -23v-39q0 -17 -16 -17h-5q-7 1 -25 1q-71 0 -110.5 -47t-39.5 -144v-183q0 -20 -20 -20h-46q-20 0 -20 20v426q0 20 20 20z" />
    <glyph glyph-name="s" unicode="s" horiz-adv-x="494" 
d="M52 127q5 5 15 5h48q16 0 22 -17q9 -26 39.5 -41t75.5 -15q53 0 81.5 18.5t28.5 51.5q0 27 -19.5 42t-68.5 22l-87 14q-138 21 -138 130q0 63 49.5 101t143.5 38q86 0 136 -33.5t61 -98.5v-5q0 -15 -19 -15h-46q-16 0 -21 18q-15 63 -112 63q-108 0 -108 -68
q0 -24 18.5 -37.5t67.5 -21.5l88 -13q139 -22 139 -133q0 -67 -51.5 -104.5t-145.5 -37.5q-176 0 -200 121q-1 3 -1 5q0 7 4 11z" />
    <glyph glyph-name="t" unicode="t" horiz-adv-x="434" 
d="M18 412v34q0 20 19 20h89v110q0 20 20 20h47q19 0 19 -20v-110h163q20 0 20 -20v-34q0 -20 -20 -20h-163v-226q0 -54 23 -76.5t73 -22.5q39 0 70 12q7 3 12 3q11 0 11 -17v-36q0 -15 -15 -22q-41 -17 -93 -17q-167 0 -167 172v230h-89q-19 0 -19 20z" />
    <glyph glyph-name="u" unicode="u" horiz-adv-x="581" 
d="M90 466h47q19 0 19 -20v-241q0 -137 118 -137q65 0 104 38.5t39 102.5v237q0 20 19 20h47q20 0 20 -20v-426q0 -20 -20 -20h-45q-20 0 -20 20v55h-3q-20 -40 -62.5 -62.5t-99.5 -22.5q-86 0 -134.5 51.5t-48.5 143.5v261q0 20 20 20z" />
    <glyph glyph-name="v" unicode="v" horiz-adv-x="526" 
d="M29 460q4 6 15 6h49q17 0 23 -15l147 -345h2l146 345q6 15 23 15h49q18 0 18 -12q0 -4 -3 -11l-190 -428q-6 -15 -24 -15h-41q-18 0 -24 15l-190 428q-2 5 -2 9t2 8z" />
    <glyph glyph-name="w" unicode="w" horiz-adv-x="824" 
d="M53 466h47q17 0 23 -16l120 -339h2l123 339q6 16 23 16h42q17 0 23 -16l123 -339h2l120 339q6 16 23 16h47q18 0 18 -13q0 -4 -2 -10l-159 -427q-6 -16 -23 -16h-46q-17 0 -23 16l-123 335h-2l-123 -335q-6 -16 -23 -16h-46q-17 0 -23 16l-159 427q-2 6 -2 10q0 13 18 13
z" />
    <glyph glyph-name="x" unicode="x" horiz-adv-x="521" 
d="M42 24l167 214l-160 204q-6 7 -6 12q0 3 2.5 7.5t15.5 4.5h53q15 0 24 -12l122 -157h2l121 157q9 12 24 12h53q13 0 15.5 -4.5t2.5 -7.5q0 -5 -6 -12l-159 -204l166 -214q6 -7 6 -12q0 -3 -2.5 -7.5t-15.5 -4.5h-52q-15 0 -24 12l-129 167h-2l-130 -167q-9 -12 -23 -12
h-53q-12 0 -14.5 4.5t-2.5 7.5q0 5 5 12z" />
    <glyph glyph-name="y" unicode="y" horiz-adv-x="584" 
d="M88 -67h47q16 0 22 -17q21 -68 125 -68q140 0 140 143v94h-3q-19 -39 -61.5 -62.5t-101.5 -23.5q-86 0 -134.5 51.5t-48.5 141.5v254q0 20 19 20h47q20 0 20 -20v-232q0 -137 118 -137q64 0 103.5 38t39.5 102v229q0 20 20 20h46q20 0 20 -20v-455q0 -104 -59 -160.5
t-165 -56.5q-89 0 -144 37.5t-69 101.5v5q0 15 19 15z" />
    <glyph glyph-name="z" unicode="z" horiz-adv-x="482" 
d="M52 70l271 321h-252q-20 0 -20 20v35q0 20 20 20h344q20 0 20 -20v-26q0 -14 -9 -24l-272 -322h265q19 0 19 -19v-35q0 -20 -19 -20h-356q-20 0 -20 20v25q0 13 9 25z" />
    <glyph glyph-name="braceleft" unicode="{" horiz-adv-x="388" 
d="M54 345q0 19 20 21q30 2 43 15t13 42v216q0 68 32.5 98.5t103.5 30.5h58q20 0 20 -20v-34q0 -19 -20 -19h-52q-58 0 -58 -57v-205q0 -84 -75 -105v-2q75 -21 75 -105v-205q0 -57 58 -57h52q20 0 20 -19v-34q0 -20 -20 -20h-58q-71 0 -103.5 30.5t-32.5 98.5v216
q0 29 -13.5 42t-42.5 15q-20 2 -20 21v36z" />
    <glyph glyph-name="bar" unicode="|" horiz-adv-x="272" 
d="M113 774h47q19 0 19 -20v-820q0 -20 -19 -20h-47q-20 0 -20 20v820q0 20 20 20z" />
    <glyph glyph-name="braceright" unicode="}" horiz-adv-x="389" 
d="M45 -60q0 19 20 19h52q58 0 58 57v205q0 85 74 105v2q-74 20 -74 105v205q0 57 -58 57h-52q-20 0 -20 19v34q0 20 20 20h58q70 0 102.5 -30.5t32.5 -98.5v-216q0 -29 13 -42t43 -15q20 -2 20 -21v-36q0 -19 -20 -21q-29 -2 -42.5 -15t-13.5 -42v-216q0 -68 -32.5 -98.5
t-102.5 -30.5h-58q-20 0 -20 20v34z" />
    <glyph glyph-name="asciitilde" unicode="~" 
d="M92 346q49 32 105 32q35 0 104.5 -21.5t102.5 -21.5q50 0 94 26q8 4 13 4q10 0 10 -16v-37q0 -14 -14 -24q-51 -31 -102 -31q-37 0 -105.5 21.5t-104.5 21.5q-47 0 -92 -27q-7 -4 -12 -4q-3 0 -7.5 2.5t-4.5 14.5v37q0 14 13 23z" />
    <glyph glyph-name="uni00A0" unicode="&#xa0;" horiz-adv-x="249" 
 />
    <glyph glyph-name="exclamdown" unicode="&#xa1;" horiz-adv-x="283" 
d="M93 -213l11 443q0 19 20 19h35q19 0 19 -19l12 -443q0 -19 -19 -19h-59q-19 0 -19 19zM96 459q17 17 45 17q29 0 46 -17t17 -46t-17 -46t-46 -17q-28 0 -45.5 17.5t-17.5 45.5t18 46z" />
    <glyph glyph-name="cent" unicode="&#xa2;" horiz-adv-x="585" 
d="M116 511q56 67 148 80v100q0 19 20 19h29q20 0 20 -19v-100q74 -8 126 -51t66 -109v-5q0 -16 -19 -16h-49q-17 0 -22 17q-23 74 -105 87v-327q81 13 104 85q5 17 22 17h49q10 0 15 -4.5t5 -9.5q0 -3 -1 -5q-13 -66 -65 -109.5t-126 -51.5v-100q0 -19 -20 -19h-29
q-20 0 -20 19v100q-92 13 -148.5 80t-56.5 161t57 161zM180 243q32 -44 87 -55v325q-55 -12 -87 -56q-33 -44 -33 -107t33 -107z" />
    <glyph glyph-name="sterling" unicode="&#xa3;" horiz-adv-x="588" 
d="M74 370h53v126q0 102 53 158t152 56q86 0 139.5 -44.5t63.5 -136.5v-3q0 -18 -19 -18h-49q-17 0 -19 20q-12 100 -114 100q-60 0 -89.5 -33.5t-29.5 -105.5v-119h223q20 0 20 -20v-34q0 -20 -20 -20h-223v-213h303q20 0 20 -20v-43q0 -20 -20 -20h-444q-19 0 -19 20v43
q0 20 19 20h53v213h-53q-19 0 -19 20v34q0 20 19 20z" />
    <glyph glyph-name="currency" unicode="&#xa4;" horiz-adv-x="622" 
d="M78 567l16 16q7 7 14 7t14 -7l74 -74q53 37 120 37q64 0 114 -33l70 70q7 7 14 7t14 -7l16 -16q7 -7 7 -14t-7 -14l-68 -68q41 -52 41 -121q0 -70 -41 -122l68 -67q7 -7 7 -14t-7 -14l-16 -16q-7 -7 -14 -7t-14 7l-69 70q-50 -33 -115 -33q-68 0 -120 38l-74 -75
q-7 -7 -14 -7t-14 7l-16 16q-7 7 -7 14t7 14l74 74q-35 51 -35 115t35 115l-74 74q-7 7 -7 14t7 14zM232 262q32 -35 84 -35q53 0 86 35t33 88t-33 88t-86 35q-52 0 -84.5 -35t-32.5 -88t33 -88z" />
    <glyph glyph-name="yen" unicode="&#xa5;" horiz-adv-x="598" 
d="M27 693q4 7 16 7h57q16 0 23 -14l176 -318h1l175 318q7 14 24 14h57q11 0 14 -5t3 -8q0 -5 -4 -11l-193 -329h128q20 0 20 -20v-25q0 -19 -20 -19h-161v-87h161q20 0 20 -20v-24q0 -20 -20 -20h-161v-112q0 -20 -19 -20h-49q-20 0 -20 20v112h-160q-20 0 -20 20v24
q0 20 20 20h160v87h-160q-20 0 -20 19v25q0 20 20 20h127l-193 329q-4 6 -4 11q0 3 2 6z" />
    <glyph glyph-name="brokenbar" unicode="&#xa6;" horiz-adv-x="272" 
d="M113 253h47q19 0 19 -19v-300q0 -20 -19 -20h-47q-20 0 -20 20v300q0 19 20 19zM93 754q0 20 20 20h47q19 0 19 -20v-300q0 -19 -19 -19h-47q-20 0 -20 19v300z" />
    <glyph glyph-name="section" unicode="&#xa7;" horiz-adv-x="541" 
d="M82 392q22 35 61 52q-80 41 -80 127q0 74 55.5 118.5t152.5 44.5q87 0 141 -39.5t64 -116.5v-5q0 -16 -19 -16h-46q-17 0 -20 19q-13 78 -124 78q-114 0 -114 -84q0 -31 19.5 -48.5t70.5 -28.5l89 -21q150 -33 150 -152q0 -49 -22 -85t-61 -53q81 -40 81 -125
q0 -76 -55.5 -121.5t-153.5 -45.5q-91 0 -145.5 41t-64.5 119v5q0 15 19 15h46q17 0 20 -18q17 -82 126 -82q55 0 86.5 22t31.5 61q0 29 -20.5 48t-69.5 31l-81 18q-160 36 -160 159q0 48 23 83zM168 258q21 -20 75 -32l38 -9q12 -3 23 -3q30 0 60.5 24.5t30.5 74.5
q0 34 -21.5 54t-73.5 32l-39 9q-12 3 -23 3q-31 0 -61.5 -23t-30.5 -75q0 -35 22 -55z" />
    <glyph glyph-name="dieresis" unicode="&#xa8;" 
d="M151 659q17 17 43 17q27 0 44 -17.5t17 -43.5q0 -27 -17 -44.5t-44 -17.5q-26 0 -43.5 17.5t-17.5 44.5q0 26 18 44zM362 659q17 17 44 17q26 0 43.5 -17.5t17.5 -43.5q0 -27 -17.5 -44.5t-43.5 -17.5q-27 0 -44 17.5t-17 44.5q0 26 17 44z" />
    <glyph glyph-name="copyright" unicode="&#xa9;" horiz-adv-x="884" 
d="M185 605q105 105 257 105t257.5 -105.5t105.5 -254.5t-105 -254q-106 -106 -258 -106t-257.5 105.5t-105.5 254.5t106 255zM154 350q0 -121 82 -206q82 -86 206 -86t206 85.5t82 206.5t-82 206.5t-206 85.5t-206 -85.5t-82 -206.5zM258 350q0 80 53.5 134t137.5 54
q64 0 110.5 -33t60.5 -86q1 -4 1 -8q0 -13 -18 -13h-39q-16 0 -22 16q-10 25 -35.5 40t-57.5 15q-51 0 -82 -33.5t-31 -85.5q0 -53 31 -86t82 -33q32 0 57.5 15t35.5 40q6 16 22 16h39q19 0 19 -12q0 -3 -1 -6q-13 -54 -59.5 -88t-112.5 -34q-84 0 -137.5 54t-53.5 134z" />
    <glyph glyph-name="ordfeminine" unicode="&#xaa;" horiz-adv-x="493" 
d="M93 654q54 56 132 56q44 0 78.5 -18t51.5 -50h3v40q0 20 19 20h38q20 0 20 -20v-336q0 -19 -20 -19h-38q-19 0 -19 19v40h-3q-18 -32 -53 -50t-77 -18q-78 0 -132 56.5t-54 139.5q0 84 54 140zM154 426q32 -35 85 -35q52 0 85 35t33 88t-33 88.5t-85 35.5t-85 -35
q-33 -36 -33 -89t33 -88z" />
    <glyph glyph-name="guillemotleft" unicode="&#xab;" horiz-adv-x="526" 
d="M57 246l103 158q7 13 23 13h51q12 0 14.5 -5t2.5 -7q0 -6 -4 -12l-104 -160l104 -161q4 -6 4 -11q0 -3 -2.5 -7.5t-14.5 -4.5h-51q-15 0 -23 12l-103 158q-4 7 -4 13q0 7 4 14zM268 246l102 158q9 13 23 13h51q12 0 14.5 -5t2.5 -7q0 -6 -4 -12l-104 -160l104 -161
q4 -6 4 -11q0 -3 -2.5 -7.5t-14.5 -4.5h-51q-14 0 -23 12l-102 158q-4 7 -4 13q0 7 4 14z" />
    <glyph glyph-name="logicalnot" unicode="&#xac;" 
d="M79 337q0 20 20 20h402q20 0 20 -20v-144q0 -20 -20 -20h-44q-20 0 -20 20v85h-338q-20 0 -20 19v40z" />
    <glyph glyph-name="registered" unicode="&#xae;" horiz-adv-x="555" 
d="M123 647q64 63 155 63t155 -63.5t64 -154.5t-64 -155t-155 -64t-155 64t-64 155t64 155zM106 492q0 -73 50 -124q49 -52 122 -52t122 51.5t49 124.5t-49 124t-122 51t-122.5 -51t-49.5 -124zM189 589q0 20 20 20h79q88 0 88 -79q0 -59 -48 -74l38 -53q4 -6 4 -11
q0 -2 -2.5 -7t-14.5 -5h-17q-15 0 -24 13l-39 58h-31v-52q0 -19 -19 -19h-14q-20 0 -20 19v190zM285 498q18 0 26 7t8 24t-8 24t-26 7h-43v-62h43z" />
    <glyph glyph-name="macron" unicode="&#xaf;" 
d="M172 637h256q20 0 20 -20v-32q0 -20 -20 -20h-256q-20 0 -20 20v32q0 20 20 20z" />
    <glyph glyph-name="degree" unicode="&#xb0;" horiz-adv-x="387" 
d="M44 567q0 62 42.5 104.5t107.5 42.5t107 -42.5t42 -104.5q0 -63 -42 -105q-42 -43 -107 -43t-107.5 42.5t-42.5 105.5zM117 567q0 -35 21 -57t56 -22t55.5 22t20.5 57q0 34 -20.5 56t-55.5 22t-56 -22t-21 -56z" />
    <glyph glyph-name="plusminus" unicode="&#xb1;" 
d="M99 416h159v159q0 20 20 20h44q20 0 20 -20v-159h159q20 0 20 -20v-39q0 -20 -20 -20h-159v-159q0 -20 -20 -20h-44q-20 0 -20 20v159h-159q-20 0 -20 20v39q0 20 20 20zM79 59q0 20 20 20h402q20 0 20 -20v-39q0 -20 -20 -20h-402q-20 0 -20 20v39z" />
    <glyph glyph-name="twosuperior" unicode="&#xb2;" horiz-adv-x="319" 
d="M49 455q18 33 76 61l45 22q30 15 41 28.5t11 31.5q0 22 -15 35t-41 13q-51 0 -61 -47q-3 -19 -21 -19h-32q-20 0 -20 18v3q6 51 40 80t93 29t92.5 -29.5t33.5 -81.5q0 -39 -21 -64.5t-67 -48.5l-44 -22q-31 -15 -43 -28.5t-14 -39.5h167q19 0 19 -20v-23q0 -20 -19 -20
h-218q-20 0 -20 20v9q0 60 18 93z" />
    <glyph glyph-name="threesuperior" unicode="&#xb3;" horiz-adv-x="326" 
d="M50 447h32q15 0 21 -18q11 -38 61 -38q29 0 45.5 14t16.5 38q0 47 -63 47h-12q-20 0 -20 20v23q0 20 20 20h9q29 0 45 13t16 35q0 21 -15 33t-41 12q-49 0 -59 -39q-4 -18 -21 -18h-32q-19 0 -19 16v5q7 40 37 69q34 31 93 31t93 -27t34 -72q0 -65 -62 -88q68 -21 68 -90
q0 -48 -35 -77t-99 -29q-58 0 -92 27q-33 27 -40 72v5q0 16 19 16z" />
    <glyph glyph-name="acute" unicode="&#xb4;" 
d="M261 562l78 112q10 13 23 13h62q13 0 15 -4.5t2 -6.5q0 -6 -6 -13l-90 -113q-9 -12 -24 -12h-47q-12 0 -14.5 5t-2.5 7q0 6 4 12z" />
    <glyph glyph-name="uni00B5" unicode="&#xb5;" horiz-adv-x="623" 
d="M93 446q0 20 20 20h46q20 0 20 -20v-239q0 -134 114 -134q67 0 109 40.5t42 117.5v215q0 20 20 20h46q20 0 20 -20v-426q0 -20 -20 -20h-43q-20 0 -20 20v73q-20 -48 -63.5 -75.5t-96.5 -27.5q-71 0 -108 51v-237q0 -20 -20 -20h-46q-20 0 -20 20v642z" />
    <glyph glyph-name="paragraph" unicode="&#xb6;" horiz-adv-x="628" 
d="M59 583q0 67 50 109t140 42h69q20 0 20 -20v-824q0 -20 -20 -20h-45q-20 0 -20 20v542h-14q-83 0 -131.5 42t-48.5 109zM470 734h46q19 0 19 -20v-824q0 -20 -19 -20h-46q-20 0 -20 20v824q0 20 20 20z" />
    <glyph glyph-name="periodcentered" unicode="&#xb7;" horiz-adv-x="287" 
d="M80 292q0 28 17.5 45.5t45.5 17.5q29 0 46 -17.5t17 -45.5t-17 -45q-18 -18 -46 -18t-45.5 17.5t-17.5 45.5z" />
    <glyph glyph-name="cedilla" unicode="&#xb8;" 
d="M220 -154l56 160q6 16 23 16h40q11 0 14.5 -5t3.5 -11q0 -3 -1 -7l-49 -159q-5 -17 -22 -17h-49q-18 0 -18 13q0 4 2 10z" />
    <glyph glyph-name="onesuperior" unicode="&#xb9;" horiz-adv-x="232" 
d="M27 611v27q0 16 14 24l62 35q11 7 25 7h32q20 0 20 -20v-331q0 -20 -20 -20h-30q-20 0 -20 20v277l-59 -33q-6 -4 -11 -4q-3 0 -8 3t-5 15z" />
    <glyph glyph-name="ordmasculine" unicode="&#xba;" horiz-adv-x="478" 
d="M96 654q57 56 143 56q85 0 142.5 -56.5t57.5 -139.5t-57.5 -139.5t-142.5 -56.5q-86 0 -143 56.5t-57 139.5q0 84 57 140zM154 426q32 -35 85 -35q52 0 85 35t33 88t-33 88.5t-85 35.5t-85 -35.5t-33 -88.5t33 -88z" />
    <glyph glyph-name="guillemotright" unicode="&#xbb;" horiz-adv-x="527" 
d="M66 410q4 7 16 7h51q15 0 24 -13l102 -158q4 -7 5 -14q-1 -6 -5 -13l-102 -158q-9 -12 -24 -12h-51q-12 0 -14.5 4.5t-2.5 7.5q0 5 4 11l104 161l-104 160q-4 6 -4 12q0 2 1 5zM277 410q3 7 15 7h51q15 0 24 -13l102 -158q4 -7 5 -14q-1 -6 -5 -13l-102 -158
q-9 -12 -24 -12h-51q-12 0 -14.5 4.5t-2.5 7.5q0 5 4 11l105 161l-105 160q-4 6 -4 11q0 3 2 6z" />
    <glyph glyph-name="onequarter" unicode="&#xbc;" horiz-adv-x="706" 
d="M371 96v23q0 14 8 25l158 215q8 12 24 12h41q20 0 20 -20v-215h24q20 0 20 -19v-21q0 -20 -20 -20h-24v-56q0 -20 -20 -20h-26q-20 0 -20 20v56h-165q-20 0 -20 20zM95 24l422 663q8 13 24 13h38q11 0 14 -5t3 -8q0 -5 -4 -11l-422 -663q-6 -13 -23 -13h-38q-12 0 -15 5
t-3 8q0 5 4 11zM40 634q0 16 13 24l63 35q10 7 24 7h32q20 0 20 -20v-331q0 -20 -20 -20h-30q-20 0 -20 20v277l-59 -33q-6 -4 -11 -4q-3 0 -7.5 3t-4.5 15v27zM556 136v151l-112 -151h112z" />
    <glyph glyph-name="onehalf" unicode="&#xbd;" horiz-adv-x="756" 
d="M95 24l422 663q8 13 24 13h38q11 0 14 -5t3 -8q0 -5 -4 -11l-422 -663q-6 -13 -23 -13h-38q-12 0 -15 5t-3 8q0 5 4 11zM465 122q18 33 76 61l44 22q53 27 53 60q0 23 -15 36t-41 13q-50 0 -62 -48q-3 -19 -21 -19h-31q-20 0 -20 18v3q6 51 40 80t93 29t92.5 -29.5
t33.5 -80.5q0 -39 -21.5 -65t-66.5 -49l-44 -22q-31 -15 -43 -28.5t-15 -39.5h167q20 0 20 -20v-23q0 -20 -20 -20h-218q-19 0 -19 20v9q0 60 18 93zM40 634q0 16 13 24l63 35q10 7 24 7h32q20 0 20 -20v-331q0 -20 -20 -20h-30q-20 0 -20 20v277l-59 -33q-6 -4 -11 -4
q-3 0 -7.5 3t-4.5 15v27z" />
    <glyph glyph-name="threequarters" unicode="&#xbe;" horiz-adv-x="772" 
d="M438 119q0 14 8 25l158 215q8 12 23 12h41q20 0 20 -20v-215h25q19 0 19 -19v-21q0 -20 -19 -20h-25v-56q0 -20 -20 -20h-26q-20 0 -20 20v56h-165q-19 0 -19 20v23zM161 24l422 663q8 13 24 13h38q12 0 15 -5t3 -8q0 -5 -4 -11l-422 -663q-8 -13 -24 -13h-38
q-12 0 -15 5t-3 8q0 5 4 11zM50 447h32q15 0 21 -18q11 -38 61 -38q29 0 45.5 14t16.5 38q0 47 -63 47h-12q-20 0 -20 20v23q0 20 20 20h9q29 0 45 13t16 35q0 21 -15 33t-41 12q-49 0 -59 -39q-4 -18 -21 -18h-32q-19 0 -19 16v5q7 40 37 69q34 31 93 31t93 -27t34 -72
q0 -65 -62 -88q68 -21 68 -90q0 -48 -35 -77t-99 -29q-58 0 -92 27q-33 27 -40 72v5q0 16 19 16zM622 136v151l-112 -151h112z" />
    <glyph glyph-name="questiondown" unicode="&#xbf;" horiz-adv-x="488" 
d="M44 -74q0 41 19.5 75.5t68.5 75.5l48 40q27 22 35 39.5t8 50.5v27q0 19 20 19h47q20 0 20 -19v-28q0 -49 -15 -78.5t-60 -67.5l-49 -41q-54 -45 -54 -91q0 -43 26.5 -65.5t76.5 -22.5q53 0 86.5 26t42.5 73q4 18 21 18h48q19 0 19 -15v-5q-10 -82 -67 -131t-147 -49
q-89 0 -141.5 46.5t-52.5 122.5zM221 459q17 17 45 17t45.5 -17t17.5 -46t-17.5 -46t-45.5 -17t-45.5 17.5t-17.5 45.5t18 46z" />
    <glyph glyph-name="Agrave" unicode="&#xc0;" horiz-adv-x="705" 
d="M27 23l277 662q5 15 23 15h51q18 0 23 -15l277 -662q2 -6 2 -10t-2.5 -8.5t-13.5 -4.5h-54q-18 0 -23 15l-59 144h-351l-59 -144q-5 -15 -23 -15h-53q-18 0 -18 12q0 4 3 11zM495 241l-141 347h-2l-142 -347h285zM226 914q3 7 16 7h62q15 0 23 -13l78 -112q4 -6 4 -12
q0 -2 -2.5 -7t-14.5 -5h-47q-14 0 -23 12l-91 113q-6 7 -6 13q0 2 1 4z" />
    <glyph glyph-name="Aacute" unicode="&#xc1;" horiz-adv-x="705" 
d="M27 23l277 662q5 15 23 15h51q18 0 23 -15l277 -662q2 -6 2 -10t-2.5 -8.5t-13.5 -4.5h-54q-18 0 -23 15l-59 144h-351l-59 -144q-5 -15 -23 -15h-53q-18 0 -18 12q0 4 3 11zM210 241h285l-141 347h-2zM293 796l78 112q10 13 23 13h62q13 0 15 -4.5t2 -6.5q0 -6 -6 -13
l-90 -113q-9 -12 -24 -12h-47q-12 0 -14.5 5t-2.5 7q0 6 4 12z" />
    <glyph glyph-name="Acircumflex" unicode="&#xc2;" horiz-adv-x="705" 
d="M27 23l277 662q5 15 23 15h51q18 0 23 -15l277 -662q2 -6 2 -10t-2.5 -8.5t-13.5 -4.5h-54q-18 0 -23 15l-59 144h-351l-59 -144q-5 -15 -23 -15h-53q-18 0 -18 12q0 4 3 11zM495 241l-141 347h-2l-142 -347h285zM200 797l101 113q11 11 25 11h54q14 0 25 -11l101 -113
q6 -7 6 -13q0 -2 -2 -7t-14 -5h-44q-15 0 -25 11l-73 84h-2l-73 -84q-10 -11 -25 -11h-43q-13 0 -15 5t-2 7q0 6 6 13z" />
    <glyph glyph-name="Atilde" unicode="&#xc3;" horiz-adv-x="705" 
d="M27 23l277 662q5 15 23 15h51q18 0 23 -15l277 -662q2 -6 2 -10t-2.5 -8.5t-13.5 -4.5h-54q-18 0 -23 15l-59 144h-351l-59 -144q-5 -15 -23 -15h-53q-18 0 -18 12q0 4 3 11zM495 241l-141 347h-2l-142 -347h285zM187 800q4 55 29 84.5t65 29.5q7 0 14.5 -1t13 -2.5
t12.5 -4.5l11 -6q4 -2 10.5 -7t9 -6.5t10 -7.5t8.5 -7q33 -27 49 -27q28 0 34 48q2 20 20 20h27q19 0 19 -20q0 -5 -1 -10q-5 -51 -29.5 -78t-63.5 -27q-7 0 -14.5 1t-13 2.5t-12.5 5.5l-11 5q-4 2 -10.5 7t-9 6.5t-10 7.5t-8.5 7q-33 27 -49 27q-28 0 -34 -48
q-2 -20 -20 -20h-27q-19 0 -19 19v2z" />
    <glyph glyph-name="Adieresis" unicode="&#xc4;" horiz-adv-x="705" 
d="M27 23l277 662q5 15 23 15h51q18 0 23 -15l277 -662q2 -6 2 -10t-2.5 -8.5t-13.5 -4.5h-54q-18 0 -23 15l-59 144h-351l-59 -144q-5 -15 -23 -15h-53q-18 0 -18 12q0 4 3 11zM495 241l-141 347h-2l-142 -347h285zM415 893q17 17 44 17q26 0 43.5 -17.5t17.5 -43.5
q0 -27 -17.5 -44.5t-43.5 -17.5q-27 0 -44 17.5t-17 44.5q0 26 17 44zM204 893q17 17 43 17q27 0 44 -17.5t17 -43.5q0 -27 -17 -44.5t-44 -17.5q-26 0 -43.5 17.5t-17.5 44.5q0 26 18 44z" />
    <glyph glyph-name="Aring" unicode="&#xc5;" horiz-adv-x="705" 
d="M27 23l277 662q5 15 23 15h51q18 0 23 -15l277 -662q2 -6 2 -10t-2.5 -8.5t-13.5 -4.5h-54q-18 0 -23 15l-59 144h-351l-59 -144q-5 -15 -23 -15h-53q-18 0 -18 12q0 4 3 11zM210 241h285l-141 347h-2zM269 960q34 33 84 33t84.5 -33t34.5 -80t-34 -80q-35 -33 -85 -33
t-84.5 33t-34.5 80t35 80zM312 840q15 -16 41 -16t41 15.5t15 40.5t-15 41t-41 16t-41 -16t-15 -41t15 -40z" />
    <glyph glyph-name="AE" unicode="&#xc6;" horiz-adv-x="1070" 
d="M23 24l449 663q9 13 23 13h492q20 0 20 -20v-44q0 -20 -20 -20h-366v-224h291q19 0 19 -20v-44q0 -20 -19 -20h-291v-224h370q20 0 20 -20v-44q0 -20 -20 -20h-440q-20 0 -20 20v141h-311l-99 -148q-9 -13 -24 -13h-61q-12 0 -14.5 5t-2.5 7q0 6 4 12zM276 243h255v377
h-2z" />
    <glyph glyph-name="Ccedilla" unicode="&#xc7;" horiz-adv-x="806" 
d="M59 350q0 152 101.5 256t256.5 104q121 0 209.5 -65t115.5 -180q1 -4 1 -8q0 -13 -18 -13h-56q-16 0 -21 17q-20 76 -81.5 119.5t-149.5 43.5q-117 0 -190.5 -76.5t-73.5 -197.5t73.5 -197.5t190.5 -76.5q88 0 149.5 43.5t81.5 119.5q5 17 21 17h56q18 0 18 -14
q0 -3 -1 -8q-24 -103 -100.5 -167t-182.5 -75l-47 -152q-5 -17 -22 -17h-49q-18 0 -18 13q0 4 2 10l51 146q-140 14 -228.5 115t-88.5 243z" />
    <glyph glyph-name="Egrave" unicode="&#xc8;" horiz-adv-x="632" 
d="M93 20v660q0 20 20 20h436q20 0 20 -20v-44q0 -20 -20 -20h-365v-224h290q20 0 20 -20v-44q0 -20 -20 -20h-290v-224h369q20 0 20 -20v-44q0 -20 -20 -20h-440q-20 0 -20 20zM203 914q3 7 16 7h62q15 0 23 -13l78 -112q4 -6 4 -12q0 -2 -2.5 -7t-14.5 -5h-47
q-14 0 -23 12l-91 113q-6 7 -6 13q0 2 1 4z" />
    <glyph glyph-name="Eacute" unicode="&#xc9;" horiz-adv-x="632" 
d="M93 680q0 20 20 20h436q20 0 20 -20v-44q0 -20 -20 -20h-365v-224h290q20 0 20 -20v-44q0 -20 -20 -20h-290v-224h369q20 0 20 -20v-44q0 -20 -20 -20h-440q-20 0 -20 20v660zM270 796l78 112q10 13 23 13h62q13 0 15 -4.5t2 -6.5q0 -6 -6 -13l-90 -113q-9 -12 -24 -12
h-47q-12 0 -14.5 5t-2.5 7q0 6 4 12z" />
    <glyph glyph-name="Ecircumflex" unicode="&#xca;" horiz-adv-x="632" 
d="M93 680q0 20 20 20h436q20 0 20 -20v-44q0 -20 -20 -20h-365v-224h290q20 0 20 -20v-44q0 -20 -20 -20h-290v-224h369q20 0 20 -20v-44q0 -20 -20 -20h-440q-20 0 -20 20v660zM177 797l101 113q11 11 25 11h54q14 0 25 -11l101 -113q6 -7 6 -13q0 -2 -2 -7t-14 -5h-44
q-15 0 -25 11l-73 84h-2l-73 -84q-10 -11 -25 -11h-43q-13 0 -15 5t-2 7q0 6 6 13z" />
    <glyph glyph-name="Edieresis" unicode="&#xcb;" horiz-adv-x="632" 
d="M93 680q0 20 20 20h436q20 0 20 -20v-44q0 -20 -20 -20h-365v-224h290q20 0 20 -20v-44q0 -20 -20 -20h-290v-224h369q20 0 20 -20v-44q0 -20 -20 -20h-440q-20 0 -20 20v660zM181 893q17 17 43 17q27 0 44 -17.5t17 -43.5q0 -27 -17 -44.5t-44 -17.5q-26 0 -43.5 17.5
t-17.5 44.5q0 26 18 44zM392 893q17 17 44 17q26 0 43.5 -17.5t17.5 -43.5q0 -27 -17.5 -44.5t-43.5 -17.5q-27 0 -44 17.5t-17 44.5q0 26 17 44z" />
    <glyph glyph-name="Igrave" unicode="&#xcc;" horiz-adv-x="277" 
d="M113 700h51q20 0 20 -20v-660q0 -20 -20 -20h-51q-20 0 -20 20v660q0 20 20 20zM12 914q3 7 16 7h62q15 0 23 -13l78 -112q4 -6 4 -12q0 -2 -2.5 -7t-14.5 -5h-47q-14 0 -23 12l-91 113q-6 7 -6 13q0 2 1 4z" />
    <glyph glyph-name="Iacute" unicode="&#xcd;" horiz-adv-x="277" 
d="M93 680q0 20 20 20h51q20 0 20 -20v-660q0 -20 -20 -20h-51q-20 0 -20 20v660zM79 796l78 112q10 13 23 13h62q13 0 15 -4.5t2 -6.5q0 -6 -6 -13l-90 -113q-9 -12 -24 -12h-47q-12 0 -14.5 5t-2.5 7q0 6 4 12z" />
    <glyph glyph-name="Icircumflex" unicode="&#xce;" horiz-adv-x="277" 
d="M93 680q0 20 20 20h51q20 0 20 -20v-660q0 -20 -20 -20h-51q-20 0 -20 20v660zM-15 797l101 113q11 11 25 11h54q14 0 25 -11l101 -113q6 -7 6 -13q0 -2 -2 -7t-14 -5h-44q-15 0 -25 11l-73 84h-2l-73 -84q-10 -11 -25 -11h-43q-13 0 -15 5t-2 7q0 6 6 13z" />
    <glyph glyph-name="Idieresis" unicode="&#xcf;" horiz-adv-x="277" 
d="M113 700h51q20 0 20 -20v-660q0 -20 -20 -20h-51q-20 0 -20 20v660q0 20 20 20zM-12 893q18 17 44 17q27 0 44 -17.5t17 -43.5q0 -27 -17 -44.5t-44 -17.5q-26 0 -43.5 17.5t-17.5 44.5q0 26 17 44zM183 849q0 26 17 43.5t44 17.5q26 0 43.5 -17.5t17.5 -43.5
q0 -27 -17.5 -44.5t-43.5 -17.5q-27 0 -44 17.5t-17 44.5z" />
    <glyph glyph-name="Eth" unicode="&#xd0;" horiz-adv-x="744" 
d="M321 700q161 0 262.5 -98.5t101.5 -251.5t-101.5 -251.5t-262.5 -98.5h-193q-20 0 -20 20v293h-79q-19 0 -19 20v33q0 19 19 19h79v295q0 20 20 20h193zM319 85q127 0 199.5 72t72.5 193t-72.5 193t-199.5 72h-120v-230h153q20 0 20 -19v-33q0 -20 -20 -20h-153v-228h120
z" />
    <glyph glyph-name="Ntilde" unicode="&#xd1;" horiz-adv-x="772" 
d="M93 20v660q0 20 20 20h51q16 0 24 -12l399 -539h1v531q0 20 20 20h51q20 0 20 -20v-660q0 -20 -20 -20h-53q-16 0 -23 12l-398 538h-1v-530q0 -20 -20 -20h-51q-20 0 -20 20zM220 800q4 55 29 84.5t65 29.5q7 0 14.5 -1t13 -2.5t12.5 -4.5l11 -6q4 -2 10.5 -7t9 -6.5
t10 -7.5t8.5 -7q33 -27 49 -27q28 0 34 48q2 20 20 20h27q19 0 19 -20q0 -5 -1 -10q-5 -51 -29.5 -78t-63.5 -27q-7 0 -14.5 1t-13 2.5t-12.5 5.5l-11 5q-4 2 -10.5 7t-9 6.5t-10 7.5t-8.5 7q-33 27 -49 27q-28 0 -34 -48q-2 -20 -20 -20h-27q-19 0 -19 18v3z" />
    <glyph glyph-name="Ograve" unicode="&#xd2;" horiz-adv-x="833" 
d="M163 605q103 105 253 105t254 -105t104 -255t-104 -255t-254 -105t-253.5 105t-103.5 255t104 255zM227 154q74 -78 189 -78q116 0 189.5 78t73.5 196t-73.5 196t-189.5 78q-115 0 -189 -78t-74 -196t74 -196zM290 914q3 7 16 7h62q15 0 23 -13l78 -112q4 -6 4 -12
q0 -2 -2.5 -7t-14.5 -5h-47q-14 0 -23 12l-91 113q-6 7 -6 13q0 2 1 4z" />
    <glyph glyph-name="Oacute" unicode="&#xd3;" horiz-adv-x="833" 
d="M59 350q0 150 103.5 255t253.5 105t254 -105t104 -255t-104 -255t-254 -105t-253.5 105t-103.5 255zM153 350q0 -118 74 -196t189 -78q116 0 189.5 78t73.5 196t-73.5 196t-189.5 78q-115 0 -189 -78t-74 -196zM357 796l78 112q10 13 23 13h62q13 0 15 -4.5t2 -6.5
q0 -6 -6 -13l-90 -113q-9 -12 -24 -12h-47q-12 0 -14.5 5t-2.5 7q0 6 4 12z" />
    <glyph glyph-name="Ocircumflex" unicode="&#xd4;" horiz-adv-x="833" 
d="M59 350q0 150 103.5 255t253.5 105t254 -105t104 -255t-104 -255t-254 -105t-253.5 105t-103.5 255zM153 350q0 -118 74 -196t189 -78q116 0 189.5 78t73.5 196t-73.5 196t-189.5 78q-115 0 -189 -78t-74 -196zM263 797l101 113q11 11 25 11h54q14 0 25 -11l101 -113
q6 -7 6 -13q0 -2 -2 -7t-14 -5h-44q-15 0 -25 11l-73 84h-2l-73 -84q-10 -11 -25 -11h-43q-13 0 -15 5t-2 7q0 6 6 13z" />
    <glyph glyph-name="Otilde" unicode="&#xd5;" horiz-adv-x="833" 
d="M59 350q0 150 103.5 255t253.5 105t254 -105t104 -255t-104 -255t-254 -105t-253.5 105t-103.5 255zM227 154q74 -78 189 -78q116 0 189.5 78t73.5 196t-73.5 196t-189.5 78q-115 0 -189 -78t-74 -196t74 -196zM250 800q4 55 29 84.5t65 29.5q7 0 14.5 -1t13 -2.5
t12.5 -4.5l11 -6q4 -2 10.5 -7t9 -6.5t10 -7.5t8.5 -7q33 -27 49 -27q28 0 34 48q2 20 20 20h27q19 0 19 -20q0 -5 -1 -10q-5 -51 -29.5 -78t-63.5 -27q-7 0 -14.5 1t-13 2.5t-12.5 5.5l-11 5q-4 2 -10.5 7t-9 6.5t-10 7.5t-8.5 7q-33 27 -49 27q-28 0 -34 -48
q-2 -20 -20 -20h-27q-19 0 -19 18v3z" />
    <glyph glyph-name="Odieresis" unicode="&#xd6;" horiz-adv-x="833" 
d="M163 605q103 105 253 105t254 -105t104 -255t-104 -255t-254 -105t-253.5 105t-103.5 255t104 255zM227 154q74 -78 189 -78q116 0 189.5 78t73.5 196t-73.5 196t-189.5 78q-115 0 -189 -78t-74 -196t74 -196zM478 893q17 17 44 17q26 0 43.5 -17.5t17.5 -43.5
q0 -27 -17.5 -44.5t-43.5 -17.5q-27 0 -44 17.5t-17 44.5q0 26 17 44zM249 849q0 26 17.5 43.5t43.5 17.5q27 0 44 -17.5t17 -43.5q0 -27 -17 -44.5t-44 -17.5q-26 0 -43.5 17.5t-17.5 44.5z" />
    <glyph glyph-name="multiply" unicode="&#xd7;" 
d="M135 126l-26 26q-13 14 0 27l138 138l-138 138q-13 13 0 27l26 26q13 14 27 0l138 -138l138 138q14 14 27 0l26 -26q13 -14 0 -27l-138 -138l138 -138q13 -13 0 -27l-26 -26q-13 -14 -27 0l-138 138l-138 -138q-14 -14 -27 0z" />
    <glyph glyph-name="Oslash" unicode="&#xd8;" horiz-adv-x="833" 
d="M163 605q103 105 253 105q77 0 147 -31l46 79q6 11 15 11q6 0 12 -4l30 -17q10 -6 10 -16q0 -5 -3 -11l-45 -79q68 -50 107 -126.5t39 -165.5q0 -150 -104 -255t-254 -105q-77 0 -147 31l-45 -79q-6 -11 -15 -11q-6 0 -12 4l-31 17q-10 7 -10 16q0 5 3 11l46 79
q-68 50 -107 126.5t-39 165.5q0 150 104 255zM416 75q116 0 190 78.5t74 196.5q0 138 -97 218l-274 -472q48 -21 107 -21zM153 350q0 -140 97 -218l273 472q-48 21 -107 21q-116 0 -189.5 -78.5t-73.5 -196.5z" />
    <glyph glyph-name="Ugrave" unicode="&#xd9;" horiz-adv-x="727" 
d="M104 700h51q20 0 20 -20v-388q0 -106 49 -160.5t140 -54.5t139.5 54t48.5 161v388q0 20 20 20h51q20 0 20 -20v-399q0 -138 -75.5 -214.5t-203.5 -76.5q-129 0 -204.5 76.5t-75.5 214.5v399q0 20 20 20zM237 914q3 7 16 7h62q15 0 23 -13l78 -112q4 -6 4 -12
q0 -2 -2.5 -7t-14.5 -5h-47q-14 0 -23 12l-91 113q-6 7 -6 13q0 2 1 4z" />
    <glyph glyph-name="Uacute" unicode="&#xda;" horiz-adv-x="727" 
d="M104 700h51q20 0 20 -20v-388q0 -106 49 -160.5t140 -54.5t139.5 54t48.5 161v388q0 20 20 20h51q20 0 20 -20v-399q0 -138 -75.5 -214.5t-203.5 -76.5q-129 0 -204.5 76.5t-75.5 214.5v399q0 20 20 20zM304 796l78 112q10 13 23 13h62q13 0 15 -4.5t2 -6.5q0 -6 -6 -13
l-90 -113q-9 -12 -24 -12h-47q-12 0 -14.5 5t-2.5 7q0 6 4 12z" />
    <glyph glyph-name="Ucircumflex" unicode="&#xdb;" horiz-adv-x="727" 
d="M84 281v399q0 20 20 20h51q20 0 20 -20v-388q0 -106 49 -160.5t140 -54.5t139.5 54t48.5 161v388q0 20 20 20h51q20 0 20 -20v-399q0 -138 -75.5 -214.5t-203.5 -76.5q-129 0 -204.5 76.5t-75.5 214.5zM211 797l101 113q11 11 25 11h54q14 0 25 -11l101 -113q6 -7 6 -13
q0 -2 -2 -7t-14 -5h-44q-15 0 -25 11l-73 84h-2l-73 -84q-10 -11 -25 -11h-43q-13 0 -15 5t-2 7q0 6 6 13z" />
    <glyph glyph-name="Udieresis" unicode="&#xdc;" horiz-adv-x="727" 
d="M104 700h51q20 0 20 -20v-388q0 -106 49 -160.5t140 -54.5t139.5 54t48.5 161v388q0 20 20 20h51q20 0 20 -20v-399q0 -138 -75.5 -214.5t-203.5 -76.5q-129 0 -204.5 76.5t-75.5 214.5v399q0 20 20 20zM215 893q17 17 43 17q27 0 44 -17.5t17 -43.5q0 -27 -17 -44.5
t-44 -17.5q-26 0 -43.5 17.5t-17.5 44.5q0 26 18 44zM426 893q17 17 44 17q26 0 43.5 -17.5t17.5 -43.5q0 -27 -17.5 -44.5t-43.5 -17.5q-27 0 -44 17.5t-17 44.5q0 26 17 44z" />
    <glyph glyph-name="Yacute" unicode="&#xdd;" horiz-adv-x="657" 
d="M25 693q4 7 16 7h58q14 0 23 -13l206 -321h1l206 321q9 13 24 13h58q11 0 14 -5t3 -8q0 -5 -4 -11l-256 -391v-265q0 -20 -19 -20h-52q-20 0 -20 20v265l-255 391q-4 6 -4 12q0 2 1 5zM270 796l78 112q10 13 23 13h62q13 0 15 -4.5t2 -6.5q0 -6 -6 -13l-90 -113
q-9 -12 -24 -12h-47q-12 0 -14.5 5t-2.5 7q0 6 4 12z" />
    <glyph glyph-name="Thorn" unicode="&#xde;" horiz-adv-x="665" 
d="M369 583q119 0 185 -60.5t66 -168.5t-66 -169t-185 -61h-185v-104q0 -20 -20 -20h-51q-20 0 -20 20v660q0 20 20 20h51q20 0 20 -20v-97h185zM360 208q166 0 166 146t-166 146h-176v-292h176z" />
    <glyph glyph-name="germandbls" unicode="&#xdf;" horiz-adv-x="607" 
d="M336 -5q-30 0 -60 5q-18 3 -18 22v36q0 21 22 18q19 -4 45 -4q72 0 110 31.5t38 89.5q0 118 -156 118h-35q-20 0 -20 20v41q0 20 14 20q77 0 117.5 35.5t40.5 96.5q0 109 -129 109q-72 0 -106.5 -36t-34.5 -112v-465q0 -20 -20 -20h-46q-20 0 -20 20v469q0 103 59.5 162
t166.5 59q102 0 159.5 -51t57.5 -133q0 -59 -32 -102t-91 -61v-3q79 -10 121.5 -55.5t42.5 -117.5q0 -87 -60 -139.5t-166 -52.5z" />
    <glyph glyph-name="agrave" unicode="&#xe0;" horiz-adv-x="612" 
d="M117 406q67 70 165 70q54 0 99 -23t66 -62h2v55q0 20 20 20h45q20 0 20 -20v-426q0 -20 -20 -20h-45q-20 0 -20 20v55h-2q-20 -40 -65 -62.5t-100 -22.5q-98 0 -165.5 70t-67.5 173t68 173zM137 233q0 -72 44 -119q43 -47 113 -47t113 47t43 119q0 71 -43.5 118
t-112.5 47q-70 0 -113.5 -47t-43.5 -118zM178 680q3 7 16 7h62q15 0 23 -13l78 -112q4 -6 4 -12q0 -2 -2.5 -7t-14.5 -5h-47q-14 0 -23 12l-91 113q-6 7 -6 13q0 2 1 4z" />
    <glyph glyph-name="aacute" unicode="&#xe1;" horiz-adv-x="612" 
d="M117 406q67 70 165 70q54 0 99 -23t66 -62h2v55q0 20 20 20h45q20 0 20 -20v-426q0 -20 -20 -20h-45q-20 0 -20 20v55h-2q-20 -40 -65 -62.5t-100 -22.5q-98 0 -165.5 70t-67.5 173t68 173zM137 233q0 -72 44 -119q43 -47 113 -47t113 47t43 119q0 71 -43.5 118
t-112.5 47q-70 0 -113.5 -47t-43.5 -118zM245 562l78 112q10 13 23 13h62q13 0 15 -4.5t2 -6.5q0 -6 -6 -13l-90 -113q-9 -12 -24 -12h-47q-12 0 -14.5 5t-2.5 7q0 6 4 12z" />
    <glyph glyph-name="acircumflex" unicode="&#xe2;" horiz-adv-x="612" 
d="M49 233q0 103 67.5 173t165.5 70q54 0 99 -23t66 -62h2v55q0 20 20 20h45q20 0 20 -20v-426q0 -20 -20 -20h-45q-20 0 -20 20v55h-2q-20 -40 -65 -62.5t-100 -22.5q-98 0 -165.5 70t-67.5 173zM137 233q0 -72 44 -119q43 -47 113 -47t113 47t43 119q0 71 -43.5 118
t-112.5 47q-70 0 -113.5 -47t-43.5 -118zM152 563l101 113q11 11 25 11h54q14 0 25 -11l101 -113q6 -7 6 -13q0 -2 -2 -7t-14 -5h-44q-15 0 -25 11l-73 84h-2l-73 -84q-10 -11 -25 -11h-43q-13 0 -15 5t-2 7q0 6 6 13z" />
    <glyph glyph-name="atilde" unicode="&#xe3;" horiz-adv-x="612" 
d="M49 233q0 103 67.5 173t165.5 70q54 0 99 -23t66 -62h2v55q0 20 20 20h45q20 0 20 -20v-426q0 -20 -20 -20h-45q-20 0 -20 20v55h-2q-20 -40 -65 -62.5t-100 -22.5q-98 0 -165.5 70t-67.5 173zM137 233q0 -72 44 -119q43 -47 113 -47t113 47t43 119q0 71 -43.5 118
t-112.5 47q-70 0 -113.5 -47t-43.5 -118zM139 566q4 55 29 84.5t65 29.5q7 0 14.5 -1t13 -2.5t12.5 -4.5l11 -6q4 -2 10.5 -7t9 -6.5t10 -7.5t8.5 -7q33 -27 49 -27q28 0 34 48q2 20 20 20h27q19 0 19 -20q0 -5 -1 -10q-5 -51 -29.5 -78t-63.5 -27q-7 0 -14.5 1t-13 2.5
t-12.5 5.5l-11 5q-4 2 -10.5 7t-9 6.5t-10 7.5t-8.5 7q-33 27 -49 27q-28 0 -34 -48q-2 -20 -20 -20h-27q-19 0 -19 19v2z" />
    <glyph glyph-name="adieresis" unicode="&#xe4;" horiz-adv-x="612" 
d="M49 233q0 103 67.5 173t165.5 70q54 0 99 -23t66 -62h2v55q0 20 20 20h45q20 0 20 -20v-426q0 -20 -20 -20h-45q-20 0 -20 20v55h-2q-20 -40 -65 -62.5t-100 -22.5q-98 0 -165.5 70t-67.5 173zM181 114q43 -47 113 -47t113 47t43 119q0 71 -43.5 118t-112.5 47
q-70 0 -113.5 -47t-43.5 -118q0 -72 44 -119zM367 659q17 17 44 17q26 0 43.5 -17.5t17.5 -43.5q0 -27 -17.5 -44.5t-43.5 -17.5q-27 0 -44 17.5t-17 44.5q0 26 17 44zM138 615q0 26 17.5 43.5t43.5 17.5q27 0 44 -17.5t17 -43.5q0 -27 -17 -44.5t-44 -17.5
q-26 0 -43.5 17.5t-17.5 44.5z" />
    <glyph glyph-name="aring" unicode="&#xe5;" horiz-adv-x="612" 
d="M117 406q67 70 165 70q54 0 99 -23t66 -62h2v55q0 20 20 20h45q20 0 20 -20v-426q0 -20 -20 -20h-45q-20 0 -20 20v55h-2q-20 -40 -65 -62.5t-100 -22.5q-98 0 -165.5 70t-67.5 173t68 173zM181 114q43 -47 113 -47t113 47t43 119q0 71 -43.5 118t-112.5 47
q-70 0 -113.5 -47t-43.5 -118q0 -72 44 -119zM186 646q0 47 34.5 80t84.5 33t84.5 -33t34.5 -80t-34 -80q-35 -33 -85 -33t-84.5 33t-34.5 80zM249 646q0 -25 15 -40.5t41 -15.5t41 15.5t15 40.5t-15 41t-41 16t-41 -16t-15 -41z" />
    <glyph glyph-name="ae" unicode="&#xe6;" horiz-adv-x="914" 
d="M43 132q0 65 47.5 100.5t142.5 35.5h158v11q0 64 -29 94t-92 30q-95 0 -114 -59q-4 -18 -21 -18h-47q-19 0 -19 16v5q12 61 63 95t136 34q132 0 175 -84h3q64 84 184 84q105 0 170 -66t65 -174v-9q0 -23 -22 -23h-365q7 -69 48 -105t109 -36q101 0 133 62q7 16 22 16h43
q11 0 15 -4.5t4 -9.5q0 -4 -2 -8q-20 -57 -77.5 -93t-138.5 -36q-137 0 -200 99h-3q-25 -47 -77.5 -73t-124.5 -26q-88 0 -137 38t-49 104zM129 135q0 -73 104 -73q70 0 114 34t44 84v24h-151q-111 0 -111 -69zM779 271q-9 65 -47 99q-39 34 -102 34t-102 -34t-48 -99h299z
" />
    <glyph glyph-name="ccedilla" unicode="&#xe7;" horiz-adv-x="566" 
d="M117 407q67 69 174 69q86 0 147 -44.5t77 -117.5v-5q0 -16 -19 -16h-49q-17 0 -22 17q-28 88 -133 88q-70 0 -112.5 -46.5t-42.5 -118.5q0 -73 42.5 -119.5t112.5 -46.5q49 0 84 23t49 65q5 17 21 17h49q10 0 15 -4.5t5 -9.5q0 -3 -1 -5q-13 -63 -61 -106t-119 -54
l-47 -153q-5 -17 -22 -17h-49q-18 0 -18 13q0 4 2 10l51 147q-91 13 -146.5 79.5t-55.5 160.5q0 104 68 174z" />
    <glyph glyph-name="egrave" unicode="&#xe8;" horiz-adv-x="571" 
d="M49 233q0 107 66.5 175t173.5 68q105 0 169.5 -66t64.5 -174v-9q0 -23 -23 -23h-365q7 -69 48.5 -105t109.5 -36q48 0 82.5 17t49.5 45q7 16 23 16h43q11 0 15.5 -4t4.5 -10v-2q-20 -60 -78 -97.5t-141 -37.5q-110 0 -176.5 67t-66.5 176zM137 271h298q-9 65 -47 99
t-100 34q-64 0 -103 -34t-48 -99zM161 680q3 7 16 7h62q15 0 23 -13l78 -112q4 -6 4 -12q0 -2 -2.5 -7t-14.5 -5h-47q-14 0 -23 12l-91 113q-6 7 -6 13q0 2 1 4z" />
    <glyph glyph-name="eacute" unicode="&#xe9;" horiz-adv-x="571" 
d="M116 408q66 68 173 68q105 0 169.5 -66t64.5 -174v-9q0 -23 -23 -23h-365q7 -69 48.5 -105t109.5 -36q48 0 82.5 17t49.5 45q7 16 23 16h43q11 0 15.5 -4t4.5 -10v-2q-20 -60 -78 -97.5t-141 -37.5q-110 0 -176.5 67t-66.5 176q0 107 67 175zM435 271q-9 65 -47 99
t-100 34q-64 0 -103 -34t-48 -99h298zM228 562l78 112q10 13 23 13h62q13 0 15 -4.5t2 -6.5q0 -6 -6 -13l-90 -113q-9 -12 -24 -12h-47q-12 0 -14.5 5t-2.5 7q0 6 4 12z" />
    <glyph glyph-name="ecircumflex" unicode="&#xea;" horiz-adv-x="571" 
d="M49 233q0 107 66.5 175t173.5 68q105 0 169.5 -66t64.5 -174v-9q0 -23 -23 -23h-365q7 -69 48.5 -105t109.5 -36q48 0 82.5 17t49.5 45q7 16 23 16h43q11 0 15.5 -4t4.5 -10v-2q-20 -60 -78 -97.5t-141 -37.5q-110 0 -176.5 67t-66.5 176zM435 271q-9 65 -47 99t-100 34
q-64 0 -103 -34t-48 -99h298zM135 563l101 113q11 11 25 11h54q14 0 25 -11l101 -113q6 -7 6 -13q0 -2 -2 -7t-14 -5h-44q-15 0 -25 11l-73 84h-2l-73 -84q-10 -11 -25 -11h-43q-13 0 -15 5t-2 7q0 6 6 13z" />
    <glyph glyph-name="edieresis" unicode="&#xeb;" horiz-adv-x="571" 
d="M116 408q66 68 173 68q105 0 169.5 -66t64.5 -174v-9q0 -23 -23 -23h-365q7 -69 48.5 -105t109.5 -36q48 0 82.5 17t49.5 45q7 16 23 16h43q11 0 15.5 -4t4.5 -10v-2q-20 -60 -78 -97.5t-141 -37.5q-110 0 -176.5 67t-66.5 176q0 107 67 175zM137 271h298q-9 65 -47 99
t-100 34q-64 0 -103 -34t-48 -99zM333 615q0 26 17 43.5t44 17.5q26 0 43.5 -17.5t17.5 -43.5q0 -27 -17.5 -44.5t-43.5 -17.5q-27 0 -44 17.5t-17 44.5zM121 615q0 26 17.5 43.5t43.5 17.5q27 0 44 -17.5t17 -43.5q0 -27 -17 -44.5t-44 -17.5q-26 0 -43.5 17.5t-17.5 44.5z
" />
    <glyph glyph-name="igrave" unicode="&#xec;" horiz-adv-x="242" 
d="M98 466h46q20 0 20 -20v-426q0 -20 -20 -20h-46q-20 0 -20 20v426q0 20 20 20zM20 680q3 7 15 7h54q15 0 23 -14l63 -111q4 -6 4 -11q0 -3 -3 -8t-15 -5h-45q-16 0 -24 13l-70 112q-4 6 -4 11q0 3 2 6z" />
    <glyph glyph-name="iacute" unicode="&#xed;" horiz-adv-x="242" 
d="M78 20v426q0 20 20 20h46q20 0 20 -20v-426q0 -20 -20 -20h-46q-20 0 -20 20zM65 562l63 111q8 14 24 14h53q12 0 14.5 -5t2.5 -8q0 -5 -4 -11l-69 -112q-8 -13 -24 -13h-46q-11 0 -14 5t-3 9t3 10z" />
    <glyph glyph-name="icircumflex" unicode="&#xee;" horiz-adv-x="242" 
d="M78 446q0 20 20 20h46q20 0 20 -20v-426q0 -20 -20 -20h-46q-20 0 -20 20v426zM-8 562l79 113q8 12 24 12h52q16 0 24 -12l79 -113q5 -7 5 -12q0 -3 -2.5 -7.5t-13.5 -4.5h-36q-14 0 -24 13l-57 82h-2l-57 -82q-10 -13 -24 -13h-35q-12 0 -14.5 4.5t-2.5 7.5q0 5 5 12z
" />
    <glyph glyph-name="idieresis" unicode="&#xef;" horiz-adv-x="242" 
d="M78 446q0 20 20 20h46q20 0 20 -20v-426q0 -20 -20 -20h-46q-20 0 -20 20v426zM-24 615q0 27 15.5 44t39.5 17q25 0 40 -17t15 -44t-15 -44q-15 -18 -40 -18t-40 17.5t-15 44.5zM156 615q0 27 15.5 44t39.5 17t39.5 -17t15.5 -44t-15 -44q-15 -18 -40 -18t-40 17.5
t-15 44.5z" />
    <glyph glyph-name="eth" unicode="&#xf0;" horiz-adv-x="587" 
d="M394 618q144 -135 144 -361q0 -124 -69.5 -195.5t-174.5 -71.5q-103 0 -174 69.5t-71 169.5t70.5 168t173.5 68q91 0 142 -55q-24 98 -101 166l-91 -62q-15 -12 -26 5l-9 13q-11 16 5 26l75 53q-43 29 -106 54q-18 8 -12 26l12 29q6 19 26 11q79 -29 143 -76l88 61
q16 10 27 -5l9 -14q11 -15 -5 -27zM294 67q69 0 112.5 46.5t43.5 115.5t-43 114.5t-113 45.5t-113.5 -45.5t-43.5 -114.5t43.5 -115.5t113.5 -46.5z" />
    <glyph glyph-name="ntilde" unicode="&#xf1;" horiz-adv-x="585" 
d="M98 466h45q20 0 20 -20v-55h2q20 40 63 62.5t100 22.5q87 0 136.5 -52t49.5 -144v-260q0 -20 -19 -20h-47q-20 0 -20 20v241q0 136 -121 136q-65 0 -104 -38t-39 -102v-237q0 -20 -20 -20h-46q-20 0 -20 20v426q0 20 20 20zM130 566q4 55 29 84.5t65 29.5q7 0 14.5 -1
t13 -2.5t12.5 -4.5l11 -6q4 -2 10.5 -7t9 -6.5t10 -7.5t8.5 -7q33 -27 49 -27q28 0 34 48q2 20 20 20h27q19 0 19 -20q0 -5 -1 -10q-5 -51 -29.5 -78t-63.5 -27q-7 0 -14.5 1t-13 2.5t-12.5 5.5l-11 5q-4 2 -10.5 7t-9 6.5t-10 7.5t-8.5 7q-33 27 -49 27q-28 0 -34 -48
q-2 -20 -20 -20h-27q-19 0 -19 18v3z" />
    <glyph glyph-name="ograve" unicode="&#xf2;" horiz-adv-x="587" 
d="M49 233q0 103 70.5 173t174.5 70q103 0 173.5 -70t70.5 -173t-70.5 -173t-173.5 -70q-104 0 -174.5 70t-70.5 173zM137 233q0 -72 44 -119q43 -47 113 -47t113 47t43 119q0 71 -43.5 118t-112.5 47q-70 0 -113.5 -47t-43.5 -118zM167 680q3 7 16 7h62q15 0 23 -13
l78 -112q4 -6 4 -12q0 -2 -2.5 -7t-14.5 -5h-47q-14 0 -23 12l-91 113q-6 7 -6 13q0 2 1 4z" />
    <glyph glyph-name="oacute" unicode="&#xf3;" horiz-adv-x="587" 
d="M120 406q70 70 174 70q103 0 173.5 -70t70.5 -173t-70.5 -173t-173.5 -70q-104 0 -174.5 70t-70.5 173t71 173zM181 114q43 -47 113 -47t113 47t43 119q0 71 -43.5 118t-112.5 47q-70 0 -113.5 -47t-43.5 -118q0 -72 44 -119zM234 562l78 112q10 13 23 13h62
q13 0 15 -4.5t2 -6.5q0 -6 -6 -13l-90 -113q-9 -12 -24 -12h-47q-12 0 -14.5 5t-2.5 7q0 6 4 12z" />
    <glyph glyph-name="ocircumflex" unicode="&#xf4;" horiz-adv-x="587" 
d="M49 233q0 103 70.5 173t174.5 70q103 0 173.5 -70t70.5 -173t-70.5 -173t-173.5 -70q-104 0 -174.5 70t-70.5 173zM137 233q0 -72 44 -119q43 -47 113 -47t113 47t43 119q0 71 -43.5 118t-112.5 47q-70 0 -113.5 -47t-43.5 -118zM141 563l101 113q11 11 25 11h54
q14 0 25 -11l101 -113q6 -7 6 -13q0 -2 -2 -7t-14 -5h-44q-15 0 -25 11l-73 84h-2l-73 -84q-10 -11 -25 -11h-43q-13 0 -15 5t-2 7q0 6 6 13z" />
    <glyph glyph-name="otilde" unicode="&#xf5;" horiz-adv-x="587" 
d="M120 406q70 70 174 70q103 0 173.5 -70t70.5 -173t-70.5 -173t-173.5 -70q-104 0 -174.5 70t-70.5 173t71 173zM181 114q43 -47 113 -47t113 47t43 119q0 71 -43.5 118t-112.5 47q-70 0 -113.5 -47t-43.5 -118q0 -72 44 -119zM128 566q4 55 29 84.5t65 29.5q7 0 14.5 -1
t13 -2.5t12.5 -4.5l11 -6q4 -2 10.5 -7t9 -6.5t10 -7.5t8.5 -7q33 -27 49 -27q28 0 34 48q2 20 20 20h27q19 0 19 -20q0 -5 -1 -10q-5 -51 -29.5 -78t-63.5 -27q-7 0 -14.5 1t-13 2.5t-12.5 5.5l-11 5q-4 2 -10.5 7t-9 6.5t-10 7.5t-8.5 7q-33 27 -49 27q-28 0 -34 -48
q-2 -20 -20 -20h-27q-19 0 -19 18v3z" />
    <glyph glyph-name="odieresis" unicode="&#xf6;" horiz-adv-x="587" 
d="M49 233q0 103 70.5 173t174.5 70q103 0 173.5 -70t70.5 -173t-70.5 -173t-173.5 -70q-104 0 -174.5 70t-70.5 173zM137 233q0 -72 44 -119q43 -47 113 -47t113 47t43 119q0 71 -43.5 118t-112.5 47q-70 0 -113.5 -47t-43.5 -118zM356 659q17 17 44 17q26 0 43.5 -17.5
t17.5 -43.5q0 -27 -17.5 -44.5t-43.5 -17.5q-27 0 -44 17.5t-17 44.5q0 26 17 44zM145 659q17 17 43 17q27 0 44 -17.5t17 -43.5q0 -27 -17 -44.5t-44 -17.5q-26 0 -43.5 17.5t-17.5 44.5q0 26 18 44z" />
    <glyph glyph-name="divide" unicode="&#xf7;" 
d="M300 434q-27 0 -43.5 17t-16.5 43t16.5 43t43.5 17t43.5 -17t16.5 -43t-16.5 -43t-43.5 -17zM99 278q-20 0 -20 20v38q0 20 20 20h402q20 0 20 -20v-38q0 -20 -20 -20h-402zM300 80q-27 0 -43.5 17t-16.5 43t16.5 43t43.5 17t43.5 -17t16.5 -43t-16.5 -43t-43.5 -17z" />
    <glyph glyph-name="oslash" unicode="&#xf8;" horiz-adv-x="587" 
d="M49 233q0 103 70.5 173t174.5 70q51 0 94 -18l35 61q6 11 15 11q5 0 11 -4l20 -12q10 -6 10 -15q0 -5 -3 -11l-34 -60q96 -72 96 -195q0 -103 -70.5 -173t-173.5 -70q-50 0 -94 18l-36 -62q-5 -11 -14 -11q-5 0 -12 4l-20 12q-10 6 -10 16q0 5 3 11l34 60q-96 72 -96 195
zM134 233q0 -79 53 -129l166 287q-30 10 -59 10q-71 0 -115.5 -48t-44.5 -120zM294 65q71 0 115 48t44 120q0 81 -53 129l-165 -287q30 -10 59 -10z" />
    <glyph glyph-name="ugrave" unicode="&#xf9;" horiz-adv-x="581" 
d="M70 446q0 20 20 20h47q19 0 19 -20v-241q0 -137 118 -137q65 0 104 38.5t39 102.5v237q0 20 19 20h47q20 0 20 -20v-426q0 -20 -20 -20h-45q-20 0 -20 20v55h-3q-20 -40 -62.5 -62.5t-99.5 -22.5q-86 0 -134.5 51.5t-48.5 143.5v261zM160 680q3 7 16 7h62q15 0 23 -13
l78 -112q4 -6 4 -12q0 -2 -2.5 -7t-14.5 -5h-47q-14 0 -23 12l-91 113q-6 7 -6 13q0 2 1 4z" />
    <glyph glyph-name="uacute" unicode="&#xfa;" horiz-adv-x="581" 
d="M90 466h47q19 0 19 -20v-241q0 -137 118 -137q65 0 104 38.5t39 102.5v237q0 20 19 20h47q20 0 20 -20v-426q0 -20 -20 -20h-45q-20 0 -20 20v55h-3q-20 -40 -62.5 -62.5t-99.5 -22.5q-86 0 -134.5 51.5t-48.5 143.5v261q0 20 20 20zM227 562l78 112q10 13 23 13h62
q13 0 15 -4.5t2 -6.5q0 -6 -6 -13l-90 -113q-9 -12 -24 -12h-47q-12 0 -14.5 5t-2.5 7q0 6 4 12z" />
    <glyph glyph-name="ucircumflex" unicode="&#xfb;" horiz-adv-x="581" 
d="M70 446q0 20 20 20h47q19 0 19 -20v-241q0 -137 118 -137q65 0 104 38.5t39 102.5v237q0 20 19 20h47q20 0 20 -20v-426q0 -20 -20 -20h-45q-20 0 -20 20v55h-3q-20 -40 -62.5 -62.5t-99.5 -22.5q-86 0 -134.5 51.5t-48.5 143.5v261zM133 563l101 113q11 11 25 11h54
q14 0 25 -11l101 -113q6 -7 6 -13q0 -2 -2 -7t-14 -5h-44q-15 0 -25 11l-73 84h-2l-73 -84q-10 -11 -25 -11h-43q-13 0 -15 5t-2 7q0 6 6 13z" />
    <glyph glyph-name="udieresis" unicode="&#xfc;" horiz-adv-x="581" 
d="M70 185v261q0 20 20 20h47q19 0 19 -20v-241q0 -137 118 -137q65 0 104 38.5t39 102.5v237q0 20 19 20h47q20 0 20 -20v-426q0 -20 -20 -20h-45q-20 0 -20 20v55h-3q-20 -40 -62.5 -62.5t-99.5 -22.5q-86 0 -134.5 51.5t-48.5 143.5zM119 615q0 26 17.5 43.5t43.5 17.5
q27 0 44 -17.5t17 -43.5q0 -27 -17 -44.5t-44 -17.5q-26 0 -43.5 17.5t-17.5 44.5zM331 615q0 26 17 43.5t44 17.5q26 0 43.5 -17.5t17.5 -43.5q0 -27 -17.5 -44.5t-43.5 -17.5q-27 0 -44 17.5t-17 44.5z" />
    <glyph glyph-name="yacute" unicode="&#xfd;" horiz-adv-x="584" 
d="M88 -67h47q16 0 22 -17q21 -68 125 -68q140 0 140 143v94h-3q-19 -39 -61.5 -62.5t-101.5 -23.5q-86 0 -134.5 51.5t-48.5 141.5v254q0 20 19 20h47q20 0 20 -20v-232q0 -137 118 -137q64 0 103.5 38t39.5 102v229q0 20 20 20h46q20 0 20 -20v-455q0 -104 -59 -160.5
t-165 -56.5q-89 0 -144 37.5t-69 101.5v5q0 15 19 15zM229 562l78 112q10 13 23 13h62q13 0 15 -4.5t2 -6.5q0 -6 -6 -13l-90 -113q-9 -12 -24 -12h-47q-12 0 -14.5 5t-2.5 7q0 6 4 12z" />
    <glyph glyph-name="thorn" unicode="&#xfe;" horiz-adv-x="612" 
d="M331 476q97 0 165 -70.5t68 -172.5t-68 -172.5t-165 -70.5q-54 0 -99 22.5t-64 62.5h-4v-271q0 -20 -20 -20h-46q-20 0 -20 20v876q0 20 20 20h46q20 0 20 -20v-289h4q19 39 64 62t99 23zM319 67q70 0 113.5 47.5t43.5 118.5t-43.5 118t-113.5 47t-113.5 -47t-43.5 -118
q0 -72 43.5 -119t113.5 -47z" />
    <glyph glyph-name="ydieresis" unicode="&#xff;" horiz-adv-x="584" 
d="M88 -67h47q16 0 22 -17q21 -68 125 -68q140 0 140 143v94h-3q-19 -39 -61.5 -62.5t-101.5 -23.5q-86 0 -134.5 51.5t-48.5 141.5v254q0 20 19 20h47q20 0 20 -20v-232q0 -137 118 -137q64 0 103.5 38t39.5 102v229q0 20 20 20h46q20 0 20 -20v-455q0 -104 -59 -160.5
t-165 -56.5q-89 0 -144 37.5t-69 101.5v5q0 15 19 15zM122 615q0 26 17.5 43.5t43.5 17.5q27 0 44 -17.5t17 -43.5q0 -27 -17 -44.5t-44 -17.5q-26 0 -43.5 17.5t-17.5 44.5zM334 615q0 26 17 43.5t44 17.5q26 0 43.5 -17.5t17.5 -43.5q0 -27 -17.5 -44.5t-43.5 -17.5
q-27 0 -44 17.5t-17 44.5z" />
    <glyph glyph-name="Amacron" unicode="&#x100;" horiz-adv-x="705" 
d="M27 23l277 662q5 15 23 15h51q18 0 23 -15l277 -662q2 -6 2 -10t-2.5 -8.5t-13.5 -4.5h-54q-18 0 -23 15l-59 144h-351l-59 -144q-5 -15 -23 -15h-53q-18 0 -18 12q0 4 3 11zM495 241l-141 347h-2l-142 -347h285zM205 819v32q0 20 20 20h256q20 0 20 -20v-32
q0 -20 -20 -20h-256q-20 0 -20 20z" />
    <glyph glyph-name="amacron" unicode="&#x101;" horiz-adv-x="612" 
d="M117 406q67 70 165 70q54 0 99 -23t66 -62h2v55q0 20 20 20h45q20 0 20 -20v-426q0 -20 -20 -20h-45q-20 0 -20 20v55h-2q-20 -40 -65 -62.5t-100 -22.5q-98 0 -165.5 70t-67.5 173t68 173zM181 114q43 -47 113 -47t113 47t43 119q0 71 -43.5 118t-112.5 47
q-70 0 -113.5 -47t-43.5 -118q0 -72 44 -119zM177 637h256q20 0 20 -20v-32q0 -20 -20 -20h-256q-20 0 -20 20v32q0 20 20 20z" />
    <glyph glyph-name="Abreve" unicode="&#x102;" horiz-adv-x="705" 
d="M27 23l277 662q5 15 23 15h51q18 0 23 -15l277 -662q2 -6 2 -10t-2.5 -8.5t-13.5 -4.5h-54q-18 0 -23 15l-59 144h-351l-59 -144q-5 -15 -23 -15h-53q-18 0 -18 12q0 4 3 11zM210 241h285l-141 347h-2zM203 892q0 21 19 21h38q17 0 20 -19q11 -60 73 -60t73 60
q3 19 20 19h38q19 0 19 -21q0 -50 -41 -85t-109 -35t-109 35t-41 85z" />
    <glyph glyph-name="abreve" unicode="&#x103;" horiz-adv-x="612" 
d="M117 406q67 70 165 70q54 0 99 -23t66 -62h2v55q0 20 20 20h45q20 0 20 -20v-426q0 -20 -20 -20h-45q-20 0 -20 20v55h-2q-20 -40 -65 -62.5t-100 -22.5q-98 0 -165.5 70t-67.5 173t68 173zM137 233q0 -72 44 -119q43 -47 113 -47t113 47t43 119q0 71 -43.5 118
t-112.5 47q-70 0 -113.5 -47t-43.5 -118zM174 679h38q17 0 20 -19q11 -60 73 -60t73 60q3 19 20 19h38q19 0 19 -21q0 -50 -41 -85t-109 -35t-109 35t-41 85q0 21 19 21z" />
    <glyph glyph-name="Aogonek" unicode="&#x104;" horiz-adv-x="705" 
d="M27 23l277 662q5 15 23 15h51q18 0 23 -15l278 -664q4 -8 4 -15q0 -10 -9 -15q-84 -58 -84 -97t55 -39q13 0 22 1q4 1 7 1q14 0 14 -18v-31q0 -18 -19 -21q-17 -3 -33 -3q-55 0 -88.5 26.5t-33.5 68.5q0 73 90 122q-11 3 -17 14l-59 144h-351l-59 -144q-5 -15 -23 -15
h-53q-18 0 -18 12q0 4 3 11zM495 241l-141 347h-2l-142 -347h285z" />
    <glyph glyph-name="aogonek" unicode="&#x105;" horiz-adv-x="612" 
d="M49 233q0 103 67.5 173t165.5 70q54 0 99 -23t66 -62h2v55q0 20 20 20h45q20 0 20 -20v-431q0 -16 -14 -24q-85 -58 -85 -97t56 -39q13 0 21 1q4 1 7 1q15 0 15 -18v-31q0 -18 -19 -21q-18 -3 -34 -3q-55 0 -88 26.5t-33 68.5q0 75 95 125q-6 6 -6 16v55h-2
q-20 -40 -65 -62.5t-100 -22.5q-98 0 -165.5 70t-67.5 173zM137 233q0 -72 44 -119q43 -47 113 -47t113 47t43 119q0 71 -43.5 118t-112.5 47q-70 0 -113.5 -47t-43.5 -118z" />
    <glyph glyph-name="Cacute" unicode="&#x106;" horiz-adv-x="806" 
d="M161 606q101 104 256 104q121 0 209.5 -65t115.5 -180q1 -4 1 -8q0 -13 -18 -13h-56q-16 0 -21 17q-20 76 -81.5 119.5t-149.5 43.5q-117 0 -190.5 -76.5t-73.5 -197.5t73.5 -197.5t190.5 -76.5q88 0 149.5 43.5t81.5 119.5q5 17 21 17h56q18 0 18 -14q0 -3 -1 -8
q-27 -114 -115.5 -179t-209.5 -65q-155 0 -256.5 104t-101.5 256t102 256zM358 796l78 112q10 13 23 13h62q13 0 15 -4.5t2 -6.5q0 -6 -6 -13l-90 -113q-9 -12 -24 -12h-47q-12 0 -14.5 5t-2.5 7q0 6 4 12z" />
    <glyph glyph-name="cacute" unicode="&#x107;" horiz-adv-x="566" 
d="M117 407q67 69 174 69q86 0 147 -44.5t77 -117.5v-5q0 -16 -19 -16h-49q-17 0 -22 17q-28 88 -133 88q-70 0 -112.5 -46.5t-42.5 -118.5q0 -73 42.5 -119.5t112.5 -46.5q49 0 84 23t49 65q5 17 21 17h49q10 0 15 -4.5t5 -9.5q0 -3 -1 -5q-15 -73 -76 -118t-147 -45
q-107 0 -174.5 69.5t-67.5 173.5t68 174zM233 562l78 112q10 13 23 13h62q13 0 15 -4.5t2 -6.5q0 -6 -6 -13l-90 -113q-9 -12 -24 -12h-47q-12 0 -14.5 5t-2.5 7q0 6 4 12z" />
    <glyph glyph-name="Ccircumflex" unicode="&#x108;" horiz-adv-x="806" 
d="M161 606q101 104 256 104q121 0 209.5 -65t115.5 -180q1 -4 1 -8q0 -13 -18 -13h-56q-16 0 -21 17q-20 76 -81.5 119.5t-149.5 43.5q-117 0 -190.5 -76.5t-73.5 -197.5t73.5 -197.5t190.5 -76.5q88 0 149.5 43.5t81.5 119.5q5 17 21 17h56q18 0 18 -14q0 -3 -1 -8
q-27 -114 -115.5 -179t-209.5 -65q-155 0 -256.5 104t-101.5 256t102 256zM264 797l101 113q11 11 25 11h54q14 0 25 -11l101 -113q6 -7 6 -13q0 -2 -2 -7t-14 -5h-44q-15 0 -25 11l-73 84h-2l-73 -84q-10 -11 -25 -11h-43q-13 0 -15 5t-2 7q0 6 6 13z" />
    <glyph glyph-name="ccircumflex" unicode="&#x109;" horiz-adv-x="566" 
d="M49 233q0 104 67.5 173.5t174.5 69.5q86 0 147 -44.5t77 -117.5v-5q0 -16 -19 -16h-49q-17 0 -22 17q-28 88 -133 88q-70 0 -112.5 -46.5t-42.5 -118.5q0 -73 42.5 -119.5t112.5 -46.5q49 0 84 23t49 65q5 17 21 17h49q10 0 15 -4.5t5 -9.5q0 -3 -1 -5q-15 -73 -76 -118
t-147 -45q-107 0 -174.5 69.5t-67.5 173.5zM139 563l101 113q11 11 25 11h54q14 0 25 -11l101 -113q6 -7 6 -13q0 -2 -2 -7t-14 -5h-44q-15 0 -25 11l-73 84h-2l-73 -84q-10 -11 -25 -11h-43q-13 0 -15 5t-2 7q0 6 6 13z" />
    <glyph glyph-name="Cdotaccent" unicode="&#x10a;" horiz-adv-x="806" 
d="M161 606q101 104 256 104q121 0 209.5 -65t115.5 -180q1 -4 1 -8q0 -13 -18 -13h-56q-16 0 -21 17q-20 76 -81.5 119.5t-149.5 43.5q-117 0 -190.5 -76.5t-73.5 -197.5t73.5 -197.5t190.5 -76.5q88 0 149.5 43.5t81.5 119.5q5 17 21 17h56q18 0 18 -14q0 -3 -1 -8
q-27 -114 -115.5 -179t-209.5 -65q-155 0 -256.5 104t-101.5 256t102 256zM373 894q17 17 44 17t44.5 -17.5t17.5 -44.5q0 -26 -17 -44q-18 -18 -45 -18t-44.5 18t-17.5 44q0 27 18 45z" />
    <glyph glyph-name="cdotaccent" unicode="&#x10b;" horiz-adv-x="566" 
d="M49 233q0 104 67.5 173.5t174.5 69.5q86 0 147 -44.5t77 -117.5v-5q0 -16 -19 -16h-49q-17 0 -22 17q-28 88 -133 88q-70 0 -112.5 -46.5t-42.5 -118.5q0 -73 42.5 -119.5t112.5 -46.5q49 0 84 23t49 65q5 17 21 17h49q10 0 15 -4.5t5 -9.5q0 -3 -1 -5q-15 -73 -76 -118
t-147 -45q-107 0 -174.5 69.5t-67.5 173.5zM248 660q17 17 44 17t44.5 -17.5t17.5 -44.5q0 -26 -17 -44q-18 -18 -45 -18t-44.5 18t-17.5 44q0 27 18 45z" />
    <glyph glyph-name="Ccaron" unicode="&#x10c;" horiz-adv-x="806" 
d="M161 606q101 104 256 104q121 0 209.5 -65t115.5 -180q1 -4 1 -8q0 -13 -18 -13h-56q-16 0 -21 17q-20 76 -81.5 119.5t-149.5 43.5q-117 0 -190.5 -76.5t-73.5 -197.5t73.5 -197.5t190.5 -76.5q88 0 149.5 43.5t81.5 119.5q5 17 21 17h56q18 0 18 -14q0 -3 -1 -8
q-27 -114 -115.5 -179t-209.5 -65q-155 0 -256.5 104t-101.5 256t102 256zM259 914q3 7 16 7h43q15 0 25 -11l73 -84h2l73 84q10 11 25 11h44q12 0 14 -5t2 -7q0 -6 -6 -13l-101 -113q-11 -11 -25 -11h-54q-14 0 -25 11l-101 113q-6 7 -6 13q0 3 1 5z" />
    <glyph glyph-name="ccaron" unicode="&#x10d;" horiz-adv-x="566" 
d="M117 407q67 69 174 69q86 0 147 -44.5t77 -117.5v-5q0 -16 -19 -16h-49q-17 0 -22 17q-28 88 -133 88q-70 0 -112.5 -46.5t-42.5 -118.5q0 -73 42.5 -119.5t112.5 -46.5q49 0 84 23t49 65q5 17 21 17h49q10 0 15 -4.5t5 -9.5q0 -3 -1 -5q-15 -73 -76 -118t-147 -45
q-107 0 -174.5 69.5t-67.5 173.5t68 174zM134 680q3 7 16 7h43q15 0 25 -11l73 -84h2l73 84q10 11 25 11h44q12 0 14 -5t2 -7q0 -6 -6 -13l-101 -113q-11 -11 -25 -11h-54q-14 0 -25 11l-101 113q-6 7 -6 13q0 3 1 5z" />
    <glyph glyph-name="Dcaron" unicode="&#x10e;" horiz-adv-x="729" 
d="M113 700h193q161 0 262.5 -98.5t101.5 -251.5t-101.5 -251.5t-262.5 -98.5h-193q-20 0 -20 20v660q0 20 20 20zM184 615v-530h120q127 0 199 72t72 193t-72 193t-199 72h-120zM167 914q3 7 16 7h43q15 0 25 -11l73 -84h2l73 84q10 11 25 11h44q12 0 14 -5t2 -7
q0 -6 -6 -13l-101 -113q-11 -11 -25 -11h-54q-14 0 -25 11l-101 113q-6 7 -6 13q0 3 1 5z" />
    <glyph glyph-name="dcaron" unicode="&#x10f;" horiz-adv-x="728" 
d="M49 233q0 102 67.5 172.5t164.5 70.5q53 0 98.5 -23t65.5 -62h3v289q0 20 20 20h47q19 0 19 -20v-660q0 -20 -19 -20h-46q-20 0 -20 20v55h-2q-20 -40 -65 -62.5t-100 -22.5q-98 0 -165.5 70t-67.5 173zM181 114q43 -47 113 -47t113 47t43 119q0 71 -43.5 118t-112.5 47
q-70 0 -113.5 -47t-43.5 -118q0 -72 44 -119zM653 710h49q20 0 20 -17v-3l-12 -235q-2 -19 -20 -19h-37q-20 0 -20 20v235q0 19 20 19z" />
    <glyph glyph-name="Dcroat" unicode="&#x110;" horiz-adv-x="744" 
d="M321 700q161 0 262.5 -98.5t101.5 -251.5t-101.5 -251.5t-262.5 -98.5h-193q-20 0 -20 20v293h-79q-19 0 -19 20v33q0 19 19 19h79v295q0 20 20 20h193zM319 85q127 0 199.5 72t72.5 193t-72.5 193t-199.5 72h-120v-230h153q20 0 20 -19v-33q0 -20 -20 -20h-153v-228h120
z" />
    <glyph glyph-name="dcroat" unicode="&#x111;" horiz-adv-x="622" 
d="M612 600q20 0 20 -19v-25q0 -19 -20 -19h-78v-517q0 -20 -19 -20h-45q-20 0 -20 20v55h-3q-20 -40 -65 -62.5t-100 -22.5q-97 0 -165 69.5t-68 167.5q0 99 67.5 168.5t164.5 69.5q53 0 98.5 -23t65.5 -62h3v157h-158q-20 0 -20 19v25q0 19 20 19h158v80q0 20 20 20h47
q19 0 19 -20v-80h78zM294 67q69 0 112.5 46t43.5 114t-43.5 114t-112.5 46q-70 0 -113.5 -46t-43.5 -114t43.5 -114t113.5 -46z" />
    <glyph glyph-name="Emacron" unicode="&#x112;" horiz-adv-x="632" 
d="M93 20v660q0 20 20 20h436q20 0 20 -20v-44q0 -20 -20 -20h-365v-224h290q20 0 20 -20v-44q0 -20 -20 -20h-290v-224h369q20 0 20 -20v-44q0 -20 -20 -20h-440q-20 0 -20 20zM182 851q0 20 20 20h256q20 0 20 -20v-32q0 -20 -20 -20h-256q-20 0 -20 20v32z" />
    <glyph glyph-name="emacron" unicode="&#x113;" horiz-adv-x="571" 
d="M49 233q0 107 66.5 175t173.5 68q105 0 169.5 -66t64.5 -174v-9q0 -23 -23 -23h-365q7 -69 48.5 -105t109.5 -36q48 0 82.5 17t49.5 45q7 16 23 16h43q11 0 15.5 -4t4.5 -10v-2q-20 -60 -78 -97.5t-141 -37.5q-110 0 -176.5 67t-66.5 176zM137 271h298q-9 65 -47 99
t-100 34q-64 0 -103 -34t-48 -99zM140 585v32q0 20 20 20h256q20 0 20 -20v-32q0 -20 -20 -20h-256q-20 0 -20 20z" />
    <glyph glyph-name="Ebreve" unicode="&#x114;" horiz-adv-x="632" 
d="M93 680q0 20 20 20h436q20 0 20 -20v-44q0 -20 -20 -20h-365v-224h290q20 0 20 -20v-44q0 -20 -20 -20h-290v-224h369q20 0 20 -20v-44q0 -20 -20 -20h-440q-20 0 -20 20v660zM199 913h38q17 0 20 -19q11 -60 73 -60t73 60q3 19 20 19h38q19 0 19 -21q0 -50 -41 -85
t-109 -35t-109 35t-41 85q0 21 19 21z" />
    <glyph glyph-name="ebreve" unicode="&#x115;" horiz-adv-x="571" 
d="M116 408q66 68 173 68q105 0 169.5 -66t64.5 -174v-9q0 -23 -23 -23h-365q7 -69 48.5 -105t109.5 -36q48 0 82.5 17t49.5 45q7 16 23 16h43q11 0 15.5 -4t4.5 -10v-2q-20 -60 -78 -97.5t-141 -37.5q-110 0 -176.5 67t-66.5 176q0 107 67 175zM137 271h298q-9 65 -47 99
t-100 34q-64 0 -103 -34t-48 -99zM157 679h38q17 0 20 -19q11 -60 73 -60t73 60q3 19 20 19h38q19 0 19 -21q0 -50 -41 -85t-109 -35t-109 35t-41 85q0 21 19 21z" />
    <glyph glyph-name="Edotaccent" unicode="&#x116;" horiz-adv-x="632" 
d="M113 700h436q20 0 20 -20v-44q0 -20 -20 -20h-365v-224h290q20 0 20 -20v-44q0 -20 -20 -20h-290v-224h369q20 0 20 -20v-44q0 -20 -20 -20h-440q-20 0 -20 20v660q0 20 20 20zM268 849q0 27 17.5 44.5t44.5 17.5t44.5 -17.5t17.5 -44.5q0 -26 -17 -44q-18 -18 -45 -18
t-44.5 18t-17.5 44z" />
    <glyph glyph-name="edotaccent" unicode="&#x117;" horiz-adv-x="571" 
d="M116 408q66 68 173 68q105 0 169.5 -66t64.5 -174v-9q0 -23 -23 -23h-365q7 -69 48.5 -105t109.5 -36q48 0 82.5 17t49.5 45q7 16 23 16h43q11 0 15.5 -4t4.5 -10v-2q-20 -60 -78 -97.5t-141 -37.5q-110 0 -176.5 67t-66.5 176q0 107 67 175zM435 271q-9 65 -47 99
t-100 34q-64 0 -103 -34t-48 -99h298zM226 615q0 27 17.5 44.5t44.5 17.5t44.5 -17.5t17.5 -44.5q0 -26 -17 -44q-18 -18 -45 -18t-44.5 18t-17.5 44z" />
    <glyph glyph-name="Eogonek" unicode="&#x118;" horiz-adv-x="632" 
d="M93 20v660q0 20 20 20h436q20 0 20 -20v-44q0 -20 -20 -20h-365v-224h290q20 0 20 -20v-44q0 -20 -20 -20h-290v-224h369q20 0 20 -20v-49q0 -16 -14 -24q-85 -58 -85 -97t56 -39q13 0 21 1q4 1 7 1q15 0 15 -18v-31q0 -18 -19 -21q-18 -3 -34 -3q-55 0 -88 26.5
t-33 68.5q0 72 87 121h-373q-20 0 -20 20z" />
    <glyph glyph-name="eogonek" unicode="&#x119;" horiz-adv-x="571" 
d="M49 233q0 107 66.5 175t173.5 68q105 0 169.5 -66t64.5 -174v-9q0 -23 -23 -23h-365q7 -69 48.5 -105t109.5 -36q48 0 82.5 17t49.5 45q7 16 23 16h43q11 0 15.5 -4t4.5 -10v-2q-22 -62 -82 -100q-99 -64 -99 -106q0 -39 55 -39q14 0 22 1q4 1 7 1q15 0 15 -18v-31
q0 -18 -19 -21q-18 -3 -34 -3q-55 0 -88 26.5t-33 68.5q0 47 39 86h-2q-110 0 -176.5 67t-66.5 176zM435 271q-9 65 -47 99t-100 34q-64 0 -103 -34t-48 -99h298z" />
    <glyph glyph-name="Ecaron" unicode="&#x11a;" horiz-adv-x="632" 
d="M93 680q0 20 20 20h436q20 0 20 -20v-44q0 -20 -20 -20h-365v-224h290q20 0 20 -20v-44q0 -20 -20 -20h-290v-224h369q20 0 20 -20v-44q0 -20 -20 -20h-440q-20 0 -20 20v660zM172 914q3 7 16 7h43q15 0 25 -11l73 -84h2l73 84q10 11 25 11h44q12 0 14 -5t2 -7
q0 -6 -6 -13l-101 -113q-11 -11 -25 -11h-54q-14 0 -25 11l-101 113q-6 7 -6 13q0 3 1 5z" />
    <glyph glyph-name="ecaron" unicode="&#x11b;" horiz-adv-x="571" 
d="M116 408q66 68 173 68q105 0 169.5 -66t64.5 -174v-9q0 -23 -23 -23h-365q7 -69 48.5 -105t109.5 -36q48 0 82.5 17t49.5 45q7 16 23 16h43q11 0 15.5 -4t4.5 -10v-2q-20 -60 -78 -97.5t-141 -37.5q-110 0 -176.5 67t-66.5 176q0 107 67 175zM137 271h298q-9 65 -47 99
t-100 34q-64 0 -103 -34t-48 -99zM130 680q3 7 16 7h43q15 0 25 -11l73 -84h2l73 84q10 11 25 11h44q12 0 14 -5t2 -7q0 -6 -6 -13l-101 -113q-11 -11 -25 -11h-54q-14 0 -25 11l-101 113q-6 7 -6 13q0 3 1 5z" />
    <glyph glyph-name="Gcircumflex" unicode="&#x11c;" horiz-adv-x="819" 
d="M160 607q101 103 257 103q116 0 204.5 -59t116.5 -156q1 -4 1 -7q0 -15 -18 -15h-56q-17 0 -23 17q-22 61 -82.5 97.5t-141.5 36.5q-119 0 -192 -77t-73 -197q0 -123 74.5 -198.5t191.5 -75.5q106 0 175.5 62.5t74.5 167.5h-216q-20 0 -20 20v39q0 19 20 19h287
q20 0 20 -19v-29q0 -156 -95.5 -251t-246.5 -95q-156 0 -257.5 102.5t-101.5 257.5q0 154 101 257zM265 797l101 113q11 11 25 11h54q14 0 25 -11l101 -113q6 -7 6 -13q0 -2 -2 -7t-14 -5h-44q-15 0 -25 11l-73 84h-2l-73 -84q-10 -11 -25 -11h-43q-13 0 -15 5t-2 7
q0 6 6 13z" />
    <glyph glyph-name="gcircumflex" unicode="&#x11d;" horiz-adv-x="612" 
d="M49 236q0 99 68 169.5t165 70.5q54 0 99 -23t66 -62h3v55q0 20 20 20h44q20 0 20 -20v-438q0 -110 -65.5 -172t-180.5 -62q-93 0 -152.5 40.5t-73.5 111.5q-1 2 -1 5q0 6 5 11t15 5h48q16 0 22 -18q23 -81 138 -81q79 0 120 41.5t41 118.5v73h-3q-21 -39 -66 -62t-99 -23
q-97 0 -165 70.5t-68 169.5zM137 236q0 -71 43.5 -117t113.5 -46q69 0 112.5 46.5t43.5 116.5t-43.5 116t-112.5 46q-70 0 -113.5 -46t-43.5 -116zM147 563l101 113q11 11 25 11h54q14 0 25 -11l101 -113q6 -7 6 -13q0 -2 -2 -7t-14 -5h-44q-15 0 -25 11l-73 84h-2l-73 -84
q-10 -11 -25 -11h-43q-13 0 -15 5t-2 7q0 6 6 13z" />
    <glyph glyph-name="Gbreve" unicode="&#x11e;" horiz-adv-x="819" 
d="M160 607q101 103 257 103q116 0 204.5 -59t116.5 -156q1 -4 1 -7q0 -15 -18 -15h-56q-17 0 -23 17q-22 61 -82.5 97.5t-141.5 36.5q-119 0 -192 -77t-73 -197q0 -123 74.5 -198.5t191.5 -75.5q106 0 175.5 62.5t74.5 167.5h-216q-20 0 -20 20v39q0 19 20 19h287
q20 0 20 -19v-29q0 -156 -95.5 -251t-246.5 -95q-156 0 -257.5 102.5t-101.5 257.5q0 154 101 257zM287 913h38q17 0 20 -19q11 -60 73 -60t73 60q3 19 20 19h38q19 0 19 -21q0 -50 -41 -85t-109 -35t-109 35t-41 85q0 21 19 21z" />
    <glyph glyph-name="gbreve" unicode="&#x11f;" horiz-adv-x="612" 
d="M117 406q68 70 165 70q54 0 99 -23t66 -62h3v55q0 20 20 20h44q20 0 20 -20v-438q0 -110 -65.5 -172t-180.5 -62q-93 0 -152.5 40.5t-73.5 111.5q-1 2 -1 5q0 6 5 11t15 5h48q16 0 22 -18q23 -81 138 -81q79 0 120 41.5t41 118.5v73h-3q-21 -39 -66 -62t-99 -23
q-97 0 -165 70.5t-68 169.5t68 170zM137 236q0 -71 43.5 -117t113.5 -46q69 0 112.5 46.5t43.5 116.5t-43.5 116t-112.5 46q-70 0 -113.5 -46t-43.5 -116zM169 679h38q17 0 20 -19q11 -60 73 -60t73 60q3 19 20 19h38q19 0 19 -21q0 -50 -41 -85t-109 -35t-109 35t-41 85
q0 21 19 21z" />
    <glyph glyph-name="Gdotaccent" unicode="&#x120;" horiz-adv-x="819" 
d="M160 607q101 103 257 103q116 0 204.5 -59t116.5 -156q1 -4 1 -7q0 -15 -18 -15h-56q-17 0 -23 17q-22 61 -82.5 97.5t-141.5 36.5q-119 0 -192 -77t-73 -197q0 -123 74.5 -198.5t191.5 -75.5q106 0 175.5 62.5t74.5 167.5h-216q-20 0 -20 20v39q0 19 20 19h287
q20 0 20 -19v-29q0 -156 -95.5 -251t-246.5 -95q-156 0 -257.5 102.5t-101.5 257.5q0 154 101 257zM356 849q0 27 17.5 44.5t44.5 17.5t44.5 -17.5t17.5 -44.5q0 -26 -17 -44q-18 -18 -45 -18t-44.5 18t-17.5 44z" />
    <glyph glyph-name="gdotaccent" unicode="&#x121;" horiz-adv-x="612" 
d="M49 236q0 99 68 169.5t165 70.5q54 0 99 -23t66 -62h3v55q0 20 20 20h44q20 0 20 -20v-438q0 -110 -65.5 -172t-180.5 -62q-93 0 -152.5 40.5t-73.5 111.5q-1 2 -1 5q0 6 5 11t15 5h48q16 0 22 -18q23 -81 138 -81q79 0 120 41.5t41 118.5v73h-3q-21 -39 -66 -62t-99 -23
q-97 0 -165 70.5t-68 169.5zM181 119q43 -46 113 -46q69 0 112.5 46.5t43.5 116.5t-43.5 116t-112.5 46q-70 0 -113.5 -46t-43.5 -116q0 -71 44 -117zM256 660q17 17 44 17t44.5 -17.5t17.5 -44.5q0 -26 -17 -44q-18 -18 -45 -18t-44.5 18t-17.5 44q0 27 18 45z" />
    <glyph glyph-name="uni0122" unicode="&#x122;" horiz-adv-x="819" 
d="M59 350q0 154 101 257t257 103q116 0 204.5 -59t116.5 -156q1 -4 1 -7q0 -15 -18 -15h-56q-17 0 -23 17q-22 61 -82.5 97.5t-141.5 36.5q-119 0 -192 -77t-73 -197q0 -123 74.5 -198.5t191.5 -75.5q106 0 175.5 62.5t74.5 167.5h-216q-20 0 -20 20v39q0 19 20 19h287
q20 0 20 -19v-29q0 -156 -95.5 -251t-246.5 -95q-156 0 -257.5 102.5t-101.5 257.5zM351 -231l15 127q2 19 21 19h52q18 0 18 -15q0 -3 -1 -7l-33 -128q-5 -17 -22 -17h-32q-18 0 -18 16v5z" />
    <glyph glyph-name="uni0123" unicode="&#x123;" horiz-adv-x="612" 
d="M117 406q68 70 165 70q54 0 99 -23t66 -62h3v55q0 20 20 20h44q20 0 20 -20v-438q0 -110 -65.5 -172t-180.5 -62q-93 0 -152.5 40.5t-73.5 111.5q-1 2 -1 5q0 6 5 11t15 5h48q16 0 22 -18q23 -81 138 -81q79 0 120 41.5t41 118.5v73h-3q-21 -39 -66 -62t-99 -23
q-97 0 -165 70.5t-68 169.5t68 170zM137 236q0 -71 43.5 -117t113.5 -46q69 0 112.5 46.5t43.5 116.5t-43.5 116t-112.5 46q-70 0 -113.5 -46t-43.5 -116zM259 584l33 129q5 17 22 17h32q18 0 18 -17v-4l-16 -128q-2 -18 -20 -18h-52q-18 0 -18 14q0 3 1 7z" />
    <glyph glyph-name="Hcircumflex" unicode="&#x124;" horiz-adv-x="744" 
d="M93 680q0 20 20 20h51q20 0 20 -20v-298h377v298q0 20 19 20h51q20 0 20 -20v-660q0 -20 -20 -20h-51q-19 0 -19 20v277h-377v-277q0 -20 -20 -20h-51q-20 0 -20 20v660zM219 797l101 113q11 11 25 11h54q14 0 25 -11l101 -113q6 -7 6 -13q0 -2 -2 -7t-14 -5h-44
q-15 0 -25 11l-73 84h-2l-73 -84q-10 -11 -25 -11h-43q-13 0 -15 5t-2 7q0 6 6 13z" />
    <glyph glyph-name="hcircumflex" unicode="&#x125;" horiz-adv-x="585" 
d="M98 700h46q20 0 20 -20v-289h4q20 40 62 62.5t99 22.5q86 0 135.5 -52t49.5 -144v-260q0 -20 -19 -20h-47q-20 0 -20 20v241q0 136 -121 136q-65 0 -104 -38t-39 -102v-237q0 -20 -20 -20h-46q-20 0 -20 20v660q0 20 20 20zM-32 797l101 113q11 11 25 11h54q14 0 25 -11
l101 -113q6 -7 6 -13q0 -2 -2 -7t-14 -5h-44q-15 0 -25 11l-73 84h-2l-73 -84q-10 -11 -25 -11h-43q-13 0 -15 5t-2 7q0 6 6 13z" />
    <glyph glyph-name="Hbar" unicode="&#x126;" horiz-adv-x="767" 
d="M29 523v32q0 19 20 19h56v106q0 20 19 20h51q20 0 20 -20v-106h377v106q0 20 20 20h51q19 0 19 -20v-106h56q20 0 20 -19v-32q0 -20 -20 -20h-56v-483q0 -20 -19 -20h-51q-20 0 -20 20v277h-377v-277q0 -20 -20 -20h-51q-19 0 -19 20v483h-56q-20 0 -20 20zM572 382v121
h-377v-121h377z" />
    <glyph glyph-name="hbar" unicode="&#x127;" horiz-adv-x="595" 
d="M339 465q86 0 135.5 -52.5t49.5 -143.5v-249q0 -20 -19 -20h-47q-20 0 -20 20v229q0 137 -121 137q-65 0 -104 -38t-39 -102v-226q0 -20 -20 -20h-46q-20 0 -20 20v517h-78q-20 0 -20 19v25q0 19 20 19h78v80q0 20 20 20h46q20 0 20 -20v-80h159q19 0 19 -19v-25
q0 -19 -19 -19h-159v-158h4q19 40 61.5 63t99.5 23z" />
    <glyph glyph-name="Itilde" unicode="&#x128;" horiz-adv-x="277" 
d="M113 700h51q20 0 20 -20v-660q0 -20 -20 -20h-51q-20 0 -20 20v660q0 20 20 20zM-28 800q4 55 29 84.5t65 29.5q7 0 14.5 -1t13 -2.5t12.5 -4.5l11 -6q4 -2 10.5 -7t9 -6.5t10 -7.5t8.5 -7q33 -27 49 -27q28 0 34 48q2 20 20 20h27q19 0 19 -20q0 -5 -1 -10
q-5 -51 -29.5 -78t-63.5 -27q-7 0 -14.5 1t-13 2.5t-12.5 5.5l-11 5q-4 2 -10.5 7t-9 6.5t-10 7.5t-8.5 7q-33 27 -49 27q-28 0 -34 -48q-2 -20 -20 -20h-27q-19 0 -19 18v3z" />
    <glyph glyph-name="itilde" unicode="&#x129;" horiz-adv-x="242" 
d="M98 466h46q20 0 20 -20v-426q0 -20 -20 -20h-46q-20 0 -20 20v426q0 20 20 20zM-3 649q23 31 60 31q27 0 50 -18t40.5 -36t30.5 -18q27 0 31 51q2 20 20 20h18q20 0 20 -20q0 -54 -22 -84.5t-59 -30.5q-21 0 -40.5 11.5t-31 25t-25 25t-24.5 11.5q-27 0 -31 -52
q-2 -20 -21 -20h-18q-20 0 -20 20q0 53 22 84z" />
    <glyph glyph-name="Imacron" unicode="&#x12a;" horiz-adv-x="277" 
d="M93 680q0 20 20 20h51q20 0 20 -20v-660q0 -20 -20 -20h-51q-20 0 -20 20v660zM10 871h256q20 0 20 -20v-32q0 -20 -20 -20h-256q-20 0 -20 20v32q0 20 20 20z" />
    <glyph glyph-name="imacron" unicode="&#x12b;" horiz-adv-x="242" 
d="M78 446q0 20 20 20h46q20 0 20 -20v-426q0 -20 -20 -20h-46q-20 0 -20 20v426zM18 637h206q20 0 20 -20v-32q0 -20 -20 -20h-206q-20 0 -20 20v32q0 20 20 20z" />
    <glyph glyph-name="Ibreve" unicode="&#x12c;" horiz-adv-x="277" 
d="M93 680q0 20 20 20h51q20 0 20 -20v-660q0 -20 -20 -20h-51q-20 0 -20 20v660zM-12 892q0 21 19 21h38q17 0 20 -19q11 -60 73 -60t73 60q3 19 20 19h38q19 0 19 -21q0 -50 -41 -85t-109 -35t-109 35t-41 85z" />
    <glyph glyph-name="ibreve" unicode="&#x12d;" horiz-adv-x="242" 
d="M78 446q0 20 20 20h46q20 0 20 -20v-426q0 -20 -20 -20h-46q-20 0 -20 20v426zM9 679h32q18 0 21 -20q7 -60 59 -60t59 60q3 20 21 20h32q19 0 19 -22q-5 -57 -39 -88t-92 -31t-91.5 31t-38.5 89v2q0 19 18 19z" />
    <glyph glyph-name="Iogonek" unicode="&#x12e;" horiz-adv-x="277" 
d="M10 -121q0 74 91 124q-8 5 -8 17v660q0 20 20 20h51q20 0 20 -20v-665q0 -16 -14 -24q-85 -58 -85 -97t56 -39q13 0 21 1q4 1 7 1q15 0 15 -18v-31q0 -18 -19 -21q-18 -3 -34 -3q-55 0 -88 26.5t-33 68.5z" />
    <glyph glyph-name="iogonek" unicode="&#x12f;" horiz-adv-x="242" 
d="M85 4q-7 4 -7 16v426q0 20 20 20h46q20 0 20 -20v-419h1v-12q0 -16 -14 -24q-85 -58 -85 -97t56 -39q13 0 21 1q4 1 7 1q15 0 15 -18v-31q0 -18 -19 -21q-18 -3 -34 -3q-55 0 -88 26.5t-33 68.5q0 75 94 125zM77 660q17 17 44 17t44.5 -17.5t17.5 -44.5q0 -26 -17.5 -44
t-44.5 -18t-44.5 18t-17.5 44q0 27 18 45z" />
    <glyph glyph-name="Idotaccent" unicode="&#x130;" horiz-adv-x="277" 
d="M93 680q0 20 20 20h51q20 0 20 -20v-660q0 -20 -20 -20h-51q-20 0 -20 20v660zM76 849q0 27 17.5 44.5t44.5 17.5t44.5 -17.5t17.5 -44.5q0 -26 -17 -44q-18 -18 -45 -18t-44.5 18t-17.5 44z" />
    <glyph glyph-name="dotlessi" unicode="&#x131;" horiz-adv-x="242" 
d="M98 466h46q20 0 20 -20v-426q0 -20 -20 -20h-46q-20 0 -20 20v426q0 20 20 20z" />
    <glyph glyph-name="Jcircumflex" unicode="&#x134;" horiz-adv-x="632" 
d="M57 232v66q0 20 20 20h52q19 0 19 -20v-54q0 -168 154 -168q155 0 155 168v372h-280q-19 0 -19 20v44q0 20 19 20h351q20 0 20 -20v-444q0 -117 -64 -181.5t-182 -64.5q-115 0 -180 62.5t-65 179.5zM208 797l101 113q11 11 25 11h54q14 0 25 -11l101 -113q6 -7 6 -13
q0 -2 -2 -7t-14 -5h-44q-15 0 -25 11l-73 84h-2l-73 -84q-10 -11 -25 -11h-43q-13 0 -15 5t-2 7q0 6 6 13z" />
    <glyph glyph-name="jcircumflex" unicode="&#x135;" horiz-adv-x="242" 
d="M-58 -162q0 17 16 17h5q18 -2 27 -2q47 0 67.5 23t20.5 80v490q0 20 20 20h46q20 0 20 -20v-492q0 -180 -156 -180q-26 0 -49 5q-17 4 -17 22v37zM-8 562l79 113q8 12 24 12h52q16 0 24 -12l79 -113q5 -7 5 -12q0 -3 -2.5 -7.5t-13.5 -4.5h-36q-14 0 -24 13l-57 82h-2
l-57 -82q-10 -13 -24 -13h-35q-12 0 -14.5 4.5t-2.5 7.5q0 5 5 12z" />
    <glyph glyph-name="uni0136" unicode="&#x136;" horiz-adv-x="679" 
d="M93 20v660q0 20 20 20h51q20 0 20 -20v-333h74q20 0 30 -1l223 341q9 13 25 13h65q11 0 13.5 -5t2.5 -7q0 -6 -4 -12l-228 -347q98 -29 160 -106.5t83 -200.5v-5q0 -17 -19 -17h-57q-18 0 -21 18q-25 130 -93.5 186.5t-187.5 56.5h-66v-241q0 -20 -20 -20h-51
q-20 0 -20 20zM293 -231l15 127q2 19 21 19h52q18 0 18 -15q0 -3 -1 -7l-33 -128q-5 -17 -22 -17h-32q-18 0 -18 16v5z" />
    <glyph glyph-name="uni0137" unicode="&#x137;" horiz-adv-x="551" 
d="M78 20v660q0 20 20 20h46q20 0 20 -20v-405h58q13 0 39 -2l140 181q9 12 24 12h60q13 0 15.5 -4.5t2.5 -7.5q0 -5 -6 -12l-147 -190q135 -54 165 -230v-4q0 -18 -19 -18h-49q-18 0 -21 19q-18 96 -68.5 137t-143.5 41h-50v-177q0 -20 -20 -20h-46q-20 0 -20 20zM216 -231
l15 127q2 19 21 19h52q18 0 18 -15q0 -3 -1 -7l-33 -128q-5 -17 -22 -17h-32q-18 0 -18 16v5z" />
    <glyph glyph-name="Lacute" unicode="&#x139;" horiz-adv-x="576" 
d="M113 700h51q20 0 20 -20v-595h338q20 0 20 -20v-45q0 -20 -20 -20h-409q-20 0 -20 20v660q0 20 20 20zM79 796l78 112q10 13 23 13h62q13 0 15 -4.5t2 -6.5q0 -6 -6 -13l-90 -113q-9 -12 -24 -12h-47q-12 0 -14.5 5t-2.5 7q0 6 4 12z" />
    <glyph glyph-name="lacute" unicode="&#x13a;" horiz-adv-x="242" 
d="M78 680q0 20 20 20h46q20 0 20 -20v-660q0 -20 -20 -20h-46q-20 0 -20 20v660zM62 796l78 112q10 13 23 13h62q13 0 15 -4.5t2 -6.5q0 -6 -6 -13l-90 -113q-9 -12 -24 -12h-47q-12 0 -14.5 5t-2.5 7q0 6 4 12z" />
    <glyph glyph-name="uni013B" unicode="&#x13b;" horiz-adv-x="576" 
d="M93 20v660q0 20 20 20h51q20 0 20 -20v-595h338q20 0 20 -20v-45q0 -20 -20 -20h-409q-20 0 -20 20zM256 -231l15 127q2 19 21 19h52q18 0 18 -15q0 -3 -1 -7l-33 -128q-5 -17 -22 -17h-32q-18 0 -18 16v5z" />
    <glyph glyph-name="uni013C" unicode="&#x13c;" horiz-adv-x="242" 
d="M78 20v660q0 20 20 20h46q20 0 20 -20v-660q0 -20 -20 -20h-46q-20 0 -20 20zM57 -231l15 127q2 19 21 19h52q18 0 18 -15q0 -3 -1 -7l-33 -128q-5 -17 -22 -17h-32q-18 0 -18 16v5z" />
    <glyph glyph-name="Lcaron" unicode="&#x13d;" horiz-adv-x="576" 
d="M113 700h51q20 0 20 -20v-595h338q20 0 20 -20v-45q0 -20 -20 -20h-409q-20 0 -20 20v660q0 20 20 20zM344 457l14 235q2 18 20 18h38q20 0 20 -17v-3l-17 -235q-2 -19 -20 -19h-35q-20 0 -20 18v3z" />
    <glyph glyph-name="lcaron" unicode="&#x13e;" horiz-adv-x="357" 
d="M78 20v660q0 20 20 20h46q20 0 20 -20v-660q0 -20 -20 -20h-46q-20 0 -20 20zM262 691q0 19 20 19h49q20 0 20 -17v-3l-12 -235q-2 -19 -20 -19h-37q-20 0 -20 20v235z" />
    <glyph glyph-name="Ldot" unicode="&#x13f;" horiz-adv-x="581" 
d="M93 680q0 20 20 20h51q20 0 20 -20v-595h338q20 0 20 -20v-45q0 -20 -20 -20h-409q-20 0 -20 20v660zM367 398q17 17 45 17t45.5 -17.5t17.5 -45.5t-17 -45q-18 -18 -46 -18t-45.5 17.5t-17.5 45.5t18 46z" />
    <glyph glyph-name="ldot" unicode="&#x140;" horiz-adv-x="385" 
d="M98 700h46q20 0 20 -20v-660q0 -20 -20 -20h-46q-20 0 -20 20v660q0 20 20 20zM245 332q0 28 17.5 45.5t45.5 17.5t45.5 -17.5t17.5 -45.5t-17 -45q-18 -18 -46 -18t-45.5 17.5t-17.5 45.5z" />
    <glyph glyph-name="Lslash" unicode="&#x141;" horiz-adv-x="602" 
d="M10 218v40q0 16 14 24l90 49v349q0 20 20 20h51q20 0 20 -20v-300l232 126q6 3 11 3q3 0 7.5 -3t4.5 -14v-40q0 -15 -13 -24l-242 -131v-212h338q20 0 20 -20v-45q0 -20 -20 -20h-409q-20 0 -20 20v227l-80 -43q-6 -3 -10 -3t-9 3t-5 14z" />
    <glyph glyph-name="lslash" unicode="&#x142;" horiz-adv-x="344" 
d="M28 283l101 66v331q0 20 20 20h46q20 0 20 -20v-272l90 60q6 4 11 4q3 0 8 -2.5t5 -14.5v-40q0 -15 -13 -24l-101 -66v-305q0 -20 -20 -20h-46q-20 0 -20 20v246l-90 -60q-6 -4 -12 -4q-2 0 -7 2.5t-5 14.5v39q0 16 13 25z" />
    <glyph glyph-name="Nacute" unicode="&#x143;" horiz-adv-x="772" 
d="M93 680q0 20 20 20h51q16 0 24 -12l399 -539h1v531q0 20 20 20h51q20 0 20 -20v-660q0 -20 -20 -20h-53q-16 0 -23 12l-398 538h-1v-530q0 -20 -20 -20h-51q-20 0 -20 20v660zM326 796l78 112q10 13 23 13h62q13 0 15 -4.5t2 -6.5q0 -6 -6 -13l-90 -113q-9 -12 -24 -12
h-47q-12 0 -14.5 5t-2.5 7q0 6 4 12z" />
    <glyph glyph-name="nacute" unicode="&#x144;" horiz-adv-x="585" 
d="M98 466h45q20 0 20 -20v-55h2q20 40 63 62.5t100 22.5q87 0 136.5 -52t49.5 -144v-260q0 -20 -19 -20h-47q-20 0 -20 20v241q0 136 -121 136q-65 0 -104 -38t-39 -102v-237q0 -20 -20 -20h-46q-20 0 -20 20v426q0 20 20 20zM237 562l78 112q10 13 23 13h62q13 0 15 -4.5
t2 -6.5q0 -6 -6 -13l-90 -113q-9 -12 -24 -12h-47q-12 0 -14.5 5t-2.5 7q0 6 4 12z" />
    <glyph glyph-name="uni0145" unicode="&#x145;" horiz-adv-x="772" 
d="M113 700h51q16 0 24 -12l399 -539h1v531q0 20 20 20h51q20 0 20 -20v-660q0 -20 -20 -20h-53q-16 0 -23 12l-398 538h-1v-530q0 -20 -20 -20h-51q-20 0 -20 20v660q0 20 20 20zM322 -231l15 127q2 19 21 19h52q18 0 18 -15q0 -3 -1 -7l-33 -128q-5 -17 -22 -17h-32
q-18 0 -18 16v5z" />
    <glyph glyph-name="uni0146" unicode="&#x146;" horiz-adv-x="585" 
d="M98 466h45q20 0 20 -20v-55h2q20 40 63 62.5t100 22.5q87 0 136.5 -52t49.5 -144v-260q0 -20 -19 -20h-47q-20 0 -20 20v241q0 136 -121 136q-65 0 -104 -38t-39 -102v-237q0 -20 -20 -20h-46q-20 0 -20 20v426q0 20 20 20zM232 -231l15 127q2 19 21 19h52q18 0 18 -15
q0 -3 -1 -7l-33 -128q-5 -17 -22 -17h-32q-18 0 -18 16v5z" />
    <glyph glyph-name="Ncaron" unicode="&#x147;" horiz-adv-x="772" 
d="M93 20v660q0 20 20 20h51q16 0 24 -12l399 -539h1v531q0 20 20 20h51q20 0 20 -20v-660q0 -20 -20 -20h-53q-16 0 -23 12l-398 538h-1v-530q0 -20 -20 -20h-51q-20 0 -20 20zM228 914q3 7 16 7h43q15 0 25 -11l73 -84h2l73 84q10 11 25 11h44q12 0 14 -5t2 -7
q0 -6 -6 -13l-101 -113q-11 -11 -25 -11h-54q-14 0 -25 11l-101 113q-6 7 -6 13q0 3 1 5z" />
    <glyph glyph-name="ncaron" unicode="&#x148;" horiz-adv-x="585" 
d="M98 466h45q20 0 20 -20v-55h2q20 40 63 62.5t100 22.5q87 0 136.5 -52t49.5 -144v-260q0 -20 -19 -20h-47q-20 0 -20 20v241q0 136 -121 136q-65 0 -104 -38t-39 -102v-237q0 -20 -20 -20h-46q-20 0 -20 20v426q0 20 20 20zM138 680q3 7 16 7h43q15 0 25 -11l73 -84h2
l73 84q10 11 25 11h44q12 0 14 -5t2 -7q0 -6 -6 -13l-101 -113q-11 -11 -25 -11h-54q-14 0 -25 11l-101 113q-6 7 -6 13q0 3 1 5z" />
    <glyph glyph-name="Eng" unicode="&#x14a;" horiz-adv-x="772" 
d="M659 700q20 0 20 -20v-703q0 -93 -36.5 -135.5t-114.5 -42.5q-29 0 -49 4q-17 3 -17 22v42q0 21 22 18q18 -2 26 -2q46 0 63 20.5t17 74.5v23l-405 549h-1v-530q0 -20 -20 -20h-51q-20 0 -20 20v660q0 20 20 20h51q16 0 24 -12l399 -539h1v531q0 20 20 20h51z" />
    <glyph glyph-name="eng" unicode="&#x14b;" horiz-adv-x="585" 
d="M328 476q87 0 136.5 -52t49.5 -144v-289q0 -93 -36 -135.5t-114 -42.5q-29 0 -49 4q-17 3 -17 22v37q0 21 21 18q18 -2 27 -2q45 0 63.5 22t18.5 78v269q0 136 -121 136q-65 0 -104 -38t-39 -102v-237q0 -20 -20 -20h-46q-20 0 -20 20v426q0 20 20 20h45q20 0 20 -20v-55
h2q20 40 63 62.5t100 22.5z" />
    <glyph glyph-name="Omacron" unicode="&#x14c;" horiz-adv-x="833" 
d="M163 605q103 105 253 105t254 -105t104 -255t-104 -255t-254 -105t-253.5 105t-103.5 255t104 255zM227 154q74 -78 189 -78q116 0 189.5 78t73.5 196t-73.5 196t-189.5 78q-115 0 -189 -78t-74 -196t74 -196zM288 871h256q20 0 20 -20v-32q0 -20 -20 -20h-256
q-20 0 -20 20v32q0 20 20 20z" />
    <glyph glyph-name="omacron" unicode="&#x14d;" horiz-adv-x="587" 
d="M49 233q0 103 70.5 173t174.5 70q103 0 173.5 -70t70.5 -173t-70.5 -173t-173.5 -70q-104 0 -174.5 70t-70.5 173zM181 114q43 -47 113 -47t113 47t43 119q0 71 -43.5 118t-112.5 47q-70 0 -113.5 -47t-43.5 -118q0 -72 44 -119zM146 585v32q0 20 20 20h256q20 0 20 -20
v-32q0 -20 -20 -20h-256q-20 0 -20 20z" />
    <glyph glyph-name="Obreve" unicode="&#x14e;" horiz-adv-x="833" 
d="M59 350q0 150 103.5 255t253.5 105t254 -105t104 -255t-104 -255t-254 -105t-253.5 105t-103.5 255zM227 154q74 -78 189 -78q116 0 189.5 78t73.5 196t-73.5 196t-189.5 78q-115 0 -189 -78t-74 -196t74 -196zM266 892q0 21 19 21h38q17 0 20 -19q11 -60 73 -60t73 60
q3 19 20 19h38q19 0 19 -21q0 -50 -41 -85t-109 -35t-109 35t-41 85z" />
    <glyph glyph-name="obreve" unicode="&#x14f;" horiz-adv-x="587" 
d="M120 406q70 70 174 70q103 0 173.5 -70t70.5 -173t-70.5 -173t-173.5 -70q-104 0 -174.5 70t-70.5 173t71 173zM137 233q0 -72 44 -119q43 -47 113 -47t113 47t43 119q0 71 -43.5 118t-112.5 47q-70 0 -113.5 -47t-43.5 -118zM163 679h38q17 0 20 -19q11 -60 73 -60
t73 60q3 19 20 19h38q19 0 19 -21q0 -50 -41 -85t-109 -35t-109 35t-41 85q0 21 19 21z" />
    <glyph glyph-name="Ohungarumlaut" unicode="&#x150;" horiz-adv-x="833" 
d="M59 350q0 150 103.5 255t253.5 105t254 -105t104 -255t-104 -255t-254 -105t-253.5 105t-103.5 255zM227 154q74 -78 189 -78q116 0 189.5 78t73.5 196t-73.5 196t-189.5 78q-115 0 -189 -78t-74 -196t74 -196zM443 796l83 113q8 12 24 12h44q13 0 15.5 -4t2.5 -7
q0 -5 -6 -13l-91 -113q-9 -12 -24 -12h-36q-12 0 -14.5 4.5t-2.5 7.5q0 5 5 12zM269 796l82 113q8 12 24 12h44q13 0 15.5 -4t2.5 -7q0 -5 -6 -13l-91 -113q-9 -12 -24 -12h-36q-12 0 -14 4.5t-2 6.5q0 6 5 13z" />
    <glyph glyph-name="ohungarumlaut" unicode="&#x151;" horiz-adv-x="587" 
d="M49 233q0 103 70.5 173t174.5 70q103 0 173.5 -70t70.5 -173t-70.5 -173t-173.5 -70q-104 0 -174.5 70t-70.5 173zM181 114q43 -47 113 -47t113 47t43 119q0 71 -43.5 118t-112.5 47q-70 0 -113.5 -47t-43.5 -118q0 -72 44 -119zM321 562l83 113q8 12 24 12h44
q13 0 15.5 -4t2.5 -7q0 -5 -6 -13l-91 -113q-9 -12 -24 -12h-36q-12 0 -14.5 4.5t-2.5 7.5q0 5 5 12zM147 562l82 113q8 12 24 12h44q13 0 15.5 -4t2.5 -7q0 -5 -6 -13l-91 -113q-9 -12 -24 -12h-36q-12 0 -14 4.5t-2 6.5q0 6 5 13z" />
    <glyph glyph-name="OE" unicode="&#x152;" horiz-adv-x="1084" 
d="M1005 84q20 0 20 -20v-44q0 -20 -20 -20h-582q-162 0 -263 98.5t-101 251.5t101 251.5t263 98.5h578q20 0 20 -20v-44q0 -20 -20 -20h-366v-224h291q20 0 20 -20v-44q0 -20 -20 -20h-291v-224h370zM153 350q0 -121 72.5 -193t199.5 -72h120v530h-120q-127 0 -199.5 -72
t-72.5 -193z" />
    <glyph glyph-name="oe" unicode="&#x153;" horiz-adv-x="973" 
d="M49 233q0 103 70.5 173t174.5 70q61 0 112 -27t83 -75h2q65 102 199 102q105 0 169.5 -66t64.5 -174v-9q0 -23 -22 -23h-365q7 -69 48 -105t109 -36q101 0 133 62q7 16 22 16h43q11 0 15 -4.5t4 -9.5q0 -4 -2 -8q-20 -57 -77.5 -93t-138.5 -36q-136 0 -202 101h-2
q-70 -101 -195 -101q-104 0 -174.5 70t-70.5 173zM137 233q0 -72 44 -119q43 -47 113 -47t113 47t43 119q0 71 -43.5 118t-112.5 47q-70 0 -113.5 -47t-43.5 -118zM539 271h299q-9 65 -47 99q-39 33 -102 33t-102 -34t-48 -98z" />
    <glyph glyph-name="Racute" unicode="&#x154;" horiz-adv-x="689" 
d="M93 680q0 20 20 20h253q118 0 184.5 -60.5t66.5 -163.5q0 -76 -38.5 -131t-108.5 -77q114 -58 147 -246q1 -3 1 -5q0 -7 -4.5 -12t-13.5 -5h-58q-18 0 -21 18q-24 122 -85 178t-169 56h-83v-232q0 -20 -20 -20h-51q-20 0 -20 20v660zM184 337h172q166 0 166 139
q0 140 -166 140h-172v-279zM282 796l78 112q10 13 23 13h62q13 0 15 -4.5t2 -6.5q0 -6 -6 -13l-90 -113q-9 -12 -24 -12h-47q-12 0 -14.5 5t-2.5 7q0 6 4 12z" />
    <glyph glyph-name="racute" unicode="&#x155;" horiz-adv-x="385" 
d="M78 20v426q0 20 20 20h45q20 0 20 -20v-73h1q41 101 151 101q10 0 28 -2q17 -4 17 -23v-39q0 -17 -16 -17h-5q-7 1 -25 1q-71 0 -110.5 -47t-39.5 -144v-183q0 -20 -20 -20h-46q-20 0 -20 20zM143 562l78 112q10 13 23 13h62q13 0 15 -4.5t2 -6.5q0 -6 -6 -13l-90 -113
q-9 -12 -24 -12h-47q-12 0 -14.5 5t-2.5 7q0 6 4 12z" />
    <glyph glyph-name="uni0156" unicode="&#x156;" horiz-adv-x="689" 
d="M93 680q0 20 20 20h253q118 0 184.5 -60.5t66.5 -163.5q0 -76 -38.5 -131t-108.5 -77q114 -58 147 -246q1 -3 1 -5q0 -7 -4.5 -12t-13.5 -5h-58q-18 0 -21 18q-24 122 -85 178t-169 56h-83v-232q0 -20 -20 -20h-51q-20 0 -20 20v660zM184 337h172q166 0 166 139
q0 140 -166 140h-172v-279zM279 -231l15 127q2 19 21 19h52q18 0 18 -15q0 -3 -1 -7l-33 -128q-5 -17 -22 -17h-32q-18 0 -18 16v5z" />
    <glyph glyph-name="uni0157" unicode="&#x157;" horiz-adv-x="385" 
d="M98 466h45q20 0 20 -20v-73h1q41 101 151 101q10 0 28 -2q17 -4 17 -23v-39q0 -17 -16 -17h-5q-7 1 -25 1q-71 0 -110.5 -47t-39.5 -144v-183q0 -20 -20 -20h-46q-20 0 -20 20v426q0 20 20 20zM57 -231l15 127q2 19 21 19h52q18 0 18 -15q0 -3 -1 -7l-33 -128
q-5 -17 -22 -17h-32q-18 0 -18 16v5z" />
    <glyph glyph-name="Rcaron" unicode="&#x158;" horiz-adv-x="689" 
d="M93 680q0 20 20 20h253q118 0 184.5 -60.5t66.5 -163.5q0 -76 -38.5 -131t-108.5 -77q114 -58 147 -246q1 -3 1 -5q0 -7 -4.5 -12t-13.5 -5h-58q-18 0 -21 18q-24 122 -85 178t-169 56h-83v-232q0 -20 -20 -20h-51q-20 0 -20 20v660zM184 616v-279h172q166 0 166 139
q0 140 -166 140h-172zM184 914q3 7 16 7h43q15 0 25 -11l73 -84h2l73 84q10 11 25 11h44q12 0 14 -5t2 -7q0 -6 -6 -13l-101 -113q-11 -11 -25 -11h-54q-14 0 -25 11l-101 113q-6 7 -6 13q0 3 1 5z" />
    <glyph glyph-name="rcaron" unicode="&#x159;" horiz-adv-x="385" 
d="M98 466h45q20 0 20 -20v-73h1q41 101 151 101q10 0 28 -2q17 -4 17 -23v-39q0 -17 -16 -17h-5q-7 1 -25 1q-71 0 -110.5 -47t-39.5 -144v-183q0 -20 -20 -20h-46q-20 0 -20 20v426q0 20 20 20zM45 680q3 7 16 7h43q15 0 25 -11l73 -84h2l73 84q10 11 25 11h44q12 0 14 -5
t2 -7q0 -6 -6 -13l-101 -113q-11 -11 -25 -11h-54q-14 0 -25 11l-101 113q-6 7 -6 13q0 3 1 5z" />
    <glyph glyph-name="Sacute" unicode="&#x15a;" horiz-adv-x="624" 
d="M57 193q5 5 15 5h54q16 0 21 -18q25 -107 170 -107q78 0 121.5 32t43.5 86q0 89 -120 110l-106 20q-197 36 -197 193q0 89 64.5 142.5t184.5 53.5q231 0 255 -196v-5q0 -16 -18 -16h-52q-18 0 -21 19q-8 61 -48.5 88t-116.5 27q-155 0 -155 -111q0 -47 30.5 -73.5
t108.5 -41.5l106 -19q178 -34 178 -186q0 -95 -69 -150.5t-188 -55.5q-112 0 -181 49t-83 138q-1 3 -1 5q0 7 4 11zM253 796l78 112q10 13 23 13h62q13 0 15 -4.5t2 -6.5q0 -6 -6 -13l-90 -113q-9 -12 -24 -12h-47q-12 0 -14.5 5t-2.5 7q0 6 4 12z" />
    <glyph glyph-name="sacute" unicode="&#x15b;" horiz-adv-x="494" 
d="M52 127q5 5 15 5h48q16 0 22 -17q9 -26 39.5 -41t75.5 -15q53 0 81.5 18.5t28.5 51.5q0 27 -19.5 42t-68.5 22l-87 14q-138 21 -138 130q0 63 49.5 101t143.5 38q86 0 136 -33.5t61 -98.5v-5q0 -15 -19 -15h-46q-16 0 -21 18q-15 63 -112 63q-108 0 -108 -68
q0 -24 18.5 -37.5t67.5 -21.5l88 -13q139 -22 139 -133q0 -67 -51.5 -104.5t-145.5 -37.5q-176 0 -200 121q-1 3 -1 5q0 7 4 11zM185 562l78 112q10 13 23 13h62q13 0 15 -4.5t2 -6.5q0 -6 -6 -13l-90 -113q-9 -12 -24 -12h-47q-12 0 -14.5 5t-2.5 7q0 6 4 12z" />
    <glyph glyph-name="Scircumflex" unicode="&#x15c;" horiz-adv-x="624" 
d="M57 193q5 5 15 5h54q16 0 21 -18q25 -107 170 -107q78 0 121.5 32t43.5 86q0 89 -120 110l-106 20q-197 36 -197 193q0 89 64.5 142.5t184.5 53.5q231 0 255 -196v-5q0 -16 -18 -16h-52q-18 0 -21 19q-8 61 -48.5 88t-116.5 27q-155 0 -155 -111q0 -47 30.5 -73.5
t108.5 -41.5l106 -19q178 -34 178 -186q0 -95 -69 -150.5t-188 -55.5q-112 0 -181 49t-83 138q-1 3 -1 5q0 7 4 11zM159 797l101 113q11 11 25 11h54q14 0 25 -11l101 -113q6 -7 6 -13q0 -2 -2 -7t-14 -5h-44q-15 0 -25 11l-73 84h-2l-73 -84q-10 -11 -25 -11h-43
q-13 0 -15 5t-2 7q0 6 6 13z" />
    <glyph glyph-name="scircumflex" unicode="&#x15d;" horiz-adv-x="494" 
d="M52 127q5 5 15 5h48q16 0 22 -17q9 -26 39.5 -41t75.5 -15q53 0 81.5 18.5t28.5 51.5q0 27 -19.5 42t-68.5 22l-87 14q-138 21 -138 130q0 63 49.5 101t143.5 38q86 0 136 -33.5t61 -98.5v-5q0 -15 -19 -15h-46q-16 0 -21 18q-15 63 -112 63q-108 0 -108 -68
q0 -24 18.5 -37.5t67.5 -21.5l88 -13q139 -22 139 -133q0 -67 -51.5 -104.5t-145.5 -37.5q-176 0 -200 121q-1 3 -1 5q0 7 4 11zM92 563l101 113q11 11 25 11h54q14 0 25 -11l101 -113q6 -7 6 -13q0 -2 -2 -7t-14 -5h-44q-15 0 -25 11l-73 84h-2l-73 -84q-10 -11 -25 -11
h-43q-13 0 -15 5t-2 7q0 6 6 13z" />
    <glyph glyph-name="Scedilla" unicode="&#x15e;" horiz-adv-x="624" 
d="M57 193q5 5 15 5h54q16 0 21 -18q25 -107 170 -107q78 0 121.5 32t43.5 86q0 89 -120 110l-106 20q-197 36 -197 193q0 89 64.5 142.5t184.5 53.5q231 0 255 -196v-5q0 -16 -18 -16h-52q-18 0 -21 19q-8 61 -48.5 88t-116.5 27q-155 0 -155 -111q0 -47 30.5 -73.5
t108.5 -41.5l106 -19q178 -34 178 -186q0 -85 -55 -138.5t-153 -64.5l-47 -153q-5 -17 -22 -17h-49q-18 0 -18 13q0 4 2 10l51 145q-98 7 -157.5 55.5t-72.5 130.5q-1 3 -1 5q0 7 4 11z" />
    <glyph glyph-name="scedilla" unicode="&#x15f;" horiz-adv-x="494" 
d="M52 127q5 5 15 5h48q16 0 22 -17q9 -26 39.5 -41t75.5 -15q53 0 81.5 18.5t28.5 51.5q0 27 -19.5 42t-68.5 22l-87 14q-138 21 -138 130q0 63 49.5 101t143.5 38q86 0 136 -33.5t61 -98.5v-5q0 -15 -19 -15h-46q-16 0 -21 18q-15 63 -112 63q-108 0 -108 -68
q0 -24 18.5 -37.5t67.5 -21.5l88 -13q139 -22 139 -133q0 -59 -40 -95.5t-114 -44.5l-47 -152q-5 -17 -22 -17h-49q-18 0 -18 13q0 4 2 10l51 146q-140 13 -160 119q-1 3 -1 5q0 7 4 11z" />
    <glyph glyph-name="Scaron" unicode="&#x160;" horiz-adv-x="624" 
d="M57 193q5 5 15 5h54q16 0 21 -18q25 -107 170 -107q78 0 121.5 32t43.5 86q0 89 -120 110l-106 20q-197 36 -197 193q0 89 64.5 142.5t184.5 53.5q231 0 255 -196v-5q0 -16 -18 -16h-52q-18 0 -21 19q-8 61 -48.5 88t-116.5 27q-155 0 -155 -111q0 -47 30.5 -73.5
t108.5 -41.5l106 -19q178 -34 178 -186q0 -95 -69 -150.5t-188 -55.5q-112 0 -181 49t-83 138q-1 3 -1 5q0 7 4 11zM154 914q3 7 16 7h43q15 0 25 -11l73 -84h2l73 84q10 11 25 11h44q12 0 14 -5t2 -7q0 -6 -6 -13l-101 -113q-11 -11 -25 -11h-54q-14 0 -25 11l-101 113
q-6 7 -6 13q0 3 1 5z" />
    <glyph glyph-name="scaron" unicode="&#x161;" horiz-adv-x="494" 
d="M52 127q5 5 15 5h48q16 0 22 -17q9 -26 39.5 -41t75.5 -15q53 0 81.5 18.5t28.5 51.5q0 27 -19.5 42t-68.5 22l-87 14q-138 21 -138 130q0 63 49.5 101t143.5 38q86 0 136 -33.5t61 -98.5v-5q0 -15 -19 -15h-46q-16 0 -21 18q-15 63 -112 63q-108 0 -108 -68
q0 -24 18.5 -37.5t67.5 -21.5l88 -13q139 -22 139 -133q0 -67 -51.5 -104.5t-145.5 -37.5q-176 0 -200 121q-1 3 -1 5q0 7 4 11zM87 680q3 7 16 7h43q15 0 25 -11l73 -84h2l73 84q10 11 25 11h44q12 0 14 -5t2 -7q0 -6 -6 -13l-101 -113q-11 -11 -25 -11h-54q-14 0 -25 11
l-101 113q-6 7 -6 13q0 3 1 5z" />
    <glyph glyph-name="uni0162" unicode="&#x162;" horiz-adv-x="596" 
d="M49 700h498q20 0 20 -20v-45q0 -20 -20 -20h-204v-595q0 -20 -20 -20h-51q-19 0 -19 20v595h-204q-20 0 -20 20v45q0 20 20 20zM229 -231l15 127q2 19 21 19h52q18 0 18 -15q0 -3 -1 -7l-33 -128q-5 -17 -22 -17h-32q-18 0 -18 16v5z" />
    <glyph glyph-name="uni0163" unicode="&#x163;" horiz-adv-x="434" 
d="M37 466h89v110q0 20 20 20h47q19 0 19 -20v-110h163q20 0 20 -20v-34q0 -20 -20 -20h-163v-226q0 -54 23 -76.5t73 -22.5q39 0 70 12q7 3 12 3q11 0 11 -17v-36q0 -15 -15 -22q-41 -17 -93 -17q-167 0 -167 172v230h-89q-19 0 -19 20v34q0 20 19 20zM198 -231l15 127
q2 19 21 19h52q18 0 18 -15q0 -3 -1 -7l-33 -128q-5 -17 -22 -17h-32q-18 0 -18 16v5z" />
    <glyph glyph-name="Tcaron" unicode="&#x164;" horiz-adv-x="596" 
d="M29 635v45q0 20 20 20h498q20 0 20 -20v-45q0 -20 -20 -20h-204v-595q0 -20 -20 -20h-51q-19 0 -19 20v595h-204q-20 0 -20 20zM140 914q3 7 16 7h43q15 0 25 -11l73 -84h2l73 84q10 11 25 11h44q12 0 14 -5t2 -7q0 -6 -6 -13l-101 -113q-11 -11 -25 -11h-54
q-14 0 -25 11l-101 113q-6 7 -6 13q0 3 1 5z" />
    <glyph glyph-name="tcaron" unicode="&#x165;" horiz-adv-x="434" 
d="M37 466h89v110q0 20 20 20h47q19 0 19 -20v-110h163q20 0 20 -20v-34q0 -20 -20 -20h-163v-226q0 -54 23 -76.5t73 -22.5q39 0 70 12q7 3 12 3q11 0 11 -17v-36q0 -15 -15 -22q-41 -17 -93 -17q-167 0 -167 172v230h-89q-19 0 -19 20v34q0 20 19 20zM301 748h39
q19 0 19 -19v-2l-10 -169q-1 -18 -21 -18h-27q-19 0 -19 19v169q0 20 19 20z" />
    <glyph glyph-name="Tbar" unicode="&#x166;" horiz-adv-x="596" 
d="M29 680q0 20 20 20h498q20 0 20 -20v-45q0 -20 -20 -20h-204v-240h116q20 0 20 -20v-33q0 -20 -20 -20h-116v-282q0 -20 -20 -20h-51q-19 0 -19 20v282h-117q-19 0 -19 20v33q0 20 19 20h117v240h-204q-20 0 -20 20v45z" />
    <glyph glyph-name="tbar" unicode="&#x167;" horiz-adv-x="447" 
d="M386 79q23 10 23 -14v-36q0 -15 -15 -22q-41 -17 -93 -17q-167 0 -167 172v53h-87q-19 0 -19 20v23q0 20 19 20h87v115h-87q-19 0 -19 20v33q0 20 19 20h87v110q0 20 20 20h47q19 0 19 -20v-110h160q19 0 19 -20v-33q0 -20 -19 -20h-160v-115h138q20 0 20 -20v-23
q0 -20 -20 -20h-138v-49q0 -54 23 -76.5t73 -22.5q39 0 70 12z" />
    <glyph glyph-name="Utilde" unicode="&#x168;" horiz-adv-x="727" 
d="M84 281v399q0 20 20 20h51q20 0 20 -20v-388q0 -106 49 -160.5t140 -54.5t139.5 54t48.5 161v388q0 20 20 20h51q20 0 20 -20v-399q0 -138 -75.5 -214.5t-203.5 -76.5q-129 0 -204.5 76.5t-75.5 214.5zM198 800q4 55 29 84.5t65 29.5q7 0 14.5 -1t13 -2.5t12.5 -4.5
l11 -6q4 -2 10.5 -7t9 -6.5t10 -7.5t8.5 -7q33 -27 49 -27q28 0 34 48q2 20 20 20h27q19 0 19 -20q0 -5 -1 -10q-5 -51 -29.5 -78t-63.5 -27q-7 0 -14.5 1t-13 2.5t-12.5 5.5l-11 5q-4 2 -10.5 7t-9 6.5t-10 7.5t-8.5 7q-33 27 -49 27q-28 0 -34 -48q-2 -20 -20 -20h-27
q-19 0 -19 18v3z" />
    <glyph glyph-name="utilde" unicode="&#x169;" horiz-adv-x="581" 
d="M70 446q0 20 20 20h47q19 0 19 -20v-241q0 -137 118 -137q65 0 104 38.5t39 102.5v237q0 20 19 20h47q20 0 20 -20v-426q0 -20 -20 -20h-45q-20 0 -20 20v55h-3q-20 -40 -62.5 -62.5t-99.5 -22.5q-86 0 -134.5 51.5t-48.5 143.5v261zM120 566q4 55 29 84.5t65 29.5
q7 0 14.5 -1t13 -2.5t12.5 -4.5l11 -6q4 -2 10.5 -7t9 -6.5t10 -7.5t8.5 -7q33 -27 49 -27q28 0 34 48q2 20 20 20h27q19 0 19 -20q0 -5 -1 -10q-5 -51 -29.5 -78t-63.5 -27q-7 0 -14.5 1t-13 2.5t-12.5 5.5l-11 5q-4 2 -10.5 7t-9 6.5t-10 7.5t-8.5 7q-33 27 -49 27
q-28 0 -34 -48q-2 -20 -20 -20h-27q-19 0 -19 18v3z" />
    <glyph glyph-name="Umacron" unicode="&#x16a;" horiz-adv-x="727" 
d="M104 700h51q20 0 20 -20v-388q0 -106 49 -160.5t140 -54.5t139.5 54t48.5 161v388q0 20 20 20h51q20 0 20 -20v-399q0 -138 -75.5 -214.5t-203.5 -76.5q-129 0 -204.5 76.5t-75.5 214.5v399q0 20 20 20zM216 851q0 20 20 20h256q20 0 20 -20v-32q0 -20 -20 -20h-256
q-20 0 -20 20v32z" />
    <glyph glyph-name="umacron" unicode="&#x16b;" horiz-adv-x="581" 
d="M90 466h47q19 0 19 -20v-241q0 -137 118 -137q65 0 104 38.5t39 102.5v237q0 20 19 20h47q20 0 20 -20v-426q0 -20 -20 -20h-45q-20 0 -20 20v55h-3q-20 -40 -62.5 -62.5t-99.5 -22.5q-86 0 -134.5 51.5t-48.5 143.5v261q0 20 20 20zM138 617q0 20 20 20h256q20 0 20 -20
v-32q0 -20 -20 -20h-256q-20 0 -20 20v32z" />
    <glyph glyph-name="Ubreve" unicode="&#x16c;" horiz-adv-x="727" 
d="M84 281v399q0 20 20 20h51q20 0 20 -20v-388q0 -106 49 -160.5t140 -54.5t139.5 54t48.5 161v388q0 20 20 20h51q20 0 20 -20v-399q0 -138 -75.5 -214.5t-203.5 -76.5q-129 0 -204.5 76.5t-75.5 214.5zM233 913h38q17 0 20 -19q11 -60 73 -60t73 60q3 19 20 19h38
q19 0 19 -21q0 -50 -41 -85t-109 -35t-109 35t-41 85q0 21 19 21z" />
    <glyph glyph-name="ubreve" unicode="&#x16d;" horiz-adv-x="581" 
d="M70 185v261q0 20 20 20h47q19 0 19 -20v-241q0 -137 118 -137q65 0 104 38.5t39 102.5v237q0 20 19 20h47q20 0 20 -20v-426q0 -20 -20 -20h-45q-20 0 -20 20v55h-3q-20 -40 -62.5 -62.5t-99.5 -22.5q-86 0 -134.5 51.5t-48.5 143.5zM136 658q0 21 19 21h38q17 0 20 -19
q11 -60 73 -60t73 60q3 19 20 19h38q19 0 19 -21q0 -50 -41 -85t-109 -35t-109 35t-41 85z" />
    <glyph glyph-name="Uring" unicode="&#x16e;" horiz-adv-x="727" 
d="M84 680q0 20 20 20h51q20 0 20 -20v-388q0 -106 49 -160.5t140 -54.5t139.5 54t48.5 161v388q0 20 20 20h51q20 0 20 -20v-399q0 -138 -75.5 -214.5t-203.5 -76.5q-129 0 -204.5 76.5t-75.5 214.5v399zM280 960q34 33 84 33t84.5 -33t34.5 -80t-34 -80q-35 -33 -85 -33
t-84.5 33t-34.5 80t35 80zM308 880q0 -25 15 -40q15 -16 41 -16t41 15.5t15 40.5t-15 41t-41 16t-41 -16t-15 -41z" />
    <glyph glyph-name="uring" unicode="&#x16f;" horiz-adv-x="581" 
d="M70 185v261q0 20 20 20h47q19 0 19 -20v-241q0 -137 118 -137q65 0 104 38.5t39 102.5v237q0 20 19 20h47q20 0 20 -20v-426q0 -20 -20 -20h-45q-20 0 -20 20v55h-3q-20 -40 -62.5 -62.5t-99.5 -22.5q-86 0 -134.5 51.5t-48.5 143.5zM167 646q0 47 34.5 80t84.5 33
t84.5 -33t34.5 -80t-34 -80q-35 -33 -85 -33t-84.5 33t-34.5 80zM245 606q15 -16 41 -16t41 15.5t15 40.5t-15 41t-41 16t-41 -16t-15 -41t15 -40z" />
    <glyph glyph-name="Uhungarumlaut" unicode="&#x170;" horiz-adv-x="727" 
d="M84 281v399q0 20 20 20h51q20 0 20 -20v-388q0 -106 49 -160.5t140 -54.5t139.5 54t48.5 161v388q0 20 20 20h51q20 0 20 -20v-399q0 -138 -75.5 -214.5t-203.5 -76.5q-129 0 -204.5 76.5t-75.5 214.5zM391 796l83 113q8 12 24 12h44q13 0 15.5 -4t2.5 -7q0 -5 -6 -13
l-91 -113q-9 -12 -24 -12h-36q-12 0 -14.5 4.5t-2.5 7.5q0 5 5 12zM217 796l82 113q8 12 24 12h44q13 0 15.5 -4t2.5 -7q0 -5 -6 -13l-91 -113q-9 -12 -24 -12h-36q-12 0 -14 4.5t-2 6.5q0 6 5 13z" />
    <glyph glyph-name="uhungarumlaut" unicode="&#x171;" horiz-adv-x="581" 
d="M90 466h47q19 0 19 -20v-241q0 -137 118 -137q65 0 104 38.5t39 102.5v237q0 20 19 20h47q20 0 20 -20v-426q0 -20 -20 -20h-45q-20 0 -20 20v55h-3q-20 -40 -62.5 -62.5t-99.5 -22.5q-86 0 -134.5 51.5t-48.5 143.5v261q0 20 20 20zM313 562l83 113q8 12 24 12h44
q13 0 15.5 -4t2.5 -7q0 -5 -6 -13l-91 -113q-9 -12 -24 -12h-36q-12 0 -14.5 4.5t-2.5 7.5q0 5 5 12zM139 562l82 113q8 12 24 12h44q13 0 15.5 -4t2.5 -7q0 -5 -6 -13l-91 -113q-9 -12 -24 -12h-36q-12 0 -14 4.5t-2 6.5q0 6 5 13z" />
    <glyph glyph-name="Uogonek" unicode="&#x172;" horiz-adv-x="727" 
d="M84 281v399q0 20 20 20h51q20 0 20 -20v-388q0 -106 49 -160.5t140 -54.5t139.5 54t48.5 161v388q0 20 20 20h51q20 0 20 -20v-399q0 -101 -41 -170t-116 -99q-99 -64 -99 -106q0 -39 56 -39q13 0 21 1q4 1 7 1q15 0 15 -18v-31q0 -18 -19 -21q-18 -3 -34 -3
q-55 0 -88 26.5t-33 68.5q0 57 54 99h-2q-129 0 -204.5 76.5t-75.5 214.5z" />
    <glyph glyph-name="uogonek" unicode="&#x173;" horiz-adv-x="581" 
d="M90 466h47q19 0 19 -20v-241q0 -137 118 -137q65 0 104 38.5t39 102.5v237q0 20 19 20h47q20 0 20 -20v-431q0 -16 -14 -24q-85 -58 -85 -97t56 -39q13 0 21 1q4 1 7 1q15 0 15 -18v-31q0 -18 -19 -21q-18 -3 -34 -3q-55 0 -88 26.5t-33 68.5q0 75 95 125q-6 6 -6 16v55
h-3q-20 -40 -62.5 -62.5t-99.5 -22.5q-86 0 -134.5 51.5t-48.5 143.5v261q0 20 20 20z" />
    <glyph glyph-name="Wcircumflex" unicode="&#x174;" horiz-adv-x="1049" 
d="M48 700h53q18 0 22 -16l177 -549h2l176 549q4 16 21 16h50q18 0 22 -16l176 -549h2l177 549q4 16 22 16h53q18 0 18 -13q0 -4 -2 -10l-219 -661q-6 -16 -22 -16h-52q-17 0 -22 16l-177 541h-2l-177 -541q-5 -16 -21 -16h-53q-15 0 -21 16l-219 661q-2 6 -2 10q0 13 18 13
zM371 797l101 113q11 11 25 11h54q14 0 25 -11l101 -113q6 -7 6 -13q0 -2 -2 -7t-14 -5h-44q-15 0 -25 11l-73 84h-2l-73 -84q-10 -11 -25 -11h-43q-13 0 -15 5t-2 7q0 6 6 13z" />
    <glyph glyph-name="wcircumflex" unicode="&#x175;" horiz-adv-x="824" 
d="M53 466h47q17 0 23 -16l120 -339h2l123 339q6 16 23 16h42q17 0 23 -16l123 -339h2l120 339q6 16 23 16h47q18 0 18 -13q0 -4 -2 -10l-159 -427q-6 -16 -23 -16h-46q-17 0 -23 16l-123 335h-2l-123 -335q-6 -16 -23 -16h-46q-17 0 -23 16l-159 427q-2 6 -2 10q0 13 18 13
zM259 563l101 113q11 11 25 11h54q14 0 25 -11l101 -113q6 -7 6 -13q0 -2 -2 -7t-14 -5h-44q-15 0 -25 11l-73 84h-2l-73 -84q-10 -11 -25 -11h-43q-13 0 -15 5t-2 7q0 6 6 13z" />
    <glyph glyph-name="Ycircumflex" unicode="&#x176;" horiz-adv-x="657" 
d="M25 693q4 7 16 7h58q14 0 23 -13l206 -321h1l206 321q9 13 24 13h58q11 0 14 -5t3 -8q0 -5 -4 -11l-256 -391v-265q0 -20 -19 -20h-52q-20 0 -20 20v265l-255 391q-4 6 -4 12q0 2 1 5zM176 797l101 113q11 11 25 11h54q14 0 25 -11l101 -113q6 -7 6 -13q0 -2 -2 -7
t-14 -5h-44q-15 0 -25 11l-73 84h-2l-73 -84q-10 -11 -25 -11h-43q-13 0 -15 5t-2 7q0 6 6 13z" />
    <glyph glyph-name="ycircumflex" unicode="&#x177;" horiz-adv-x="584" 
d="M88 -67h47q16 0 22 -17q21 -68 125 -68q140 0 140 143v94h-3q-19 -39 -61.5 -62.5t-101.5 -23.5q-86 0 -134.5 51.5t-48.5 141.5v254q0 20 19 20h47q20 0 20 -20v-232q0 -137 118 -137q64 0 103.5 38t39.5 102v229q0 20 20 20h46q20 0 20 -20v-455q0 -104 -59 -160.5
t-165 -56.5q-89 0 -144 37.5t-69 101.5v5q0 15 19 15zM136 563l101 113q11 11 25 11h54q14 0 25 -11l101 -113q6 -7 6 -13q0 -2 -2 -7t-14 -5h-44q-15 0 -25 11l-73 84h-2l-73 -84q-10 -11 -25 -11h-43q-13 0 -15 5t-2 7q0 6 6 13z" />
    <glyph glyph-name="Ydieresis" unicode="&#x178;" horiz-adv-x="657" 
d="M25 693q4 7 16 7h58q14 0 23 -13l206 -321h1l206 321q9 13 24 13h58q11 0 14 -5t3 -8q0 -5 -4 -11l-256 -391v-265q0 -20 -19 -20h-52q-20 0 -20 20v265l-255 391q-4 6 -4 12q0 2 1 5zM180 893q17 17 43 17q27 0 44 -17.5t17 -43.5q0 -27 -17 -44.5t-44 -17.5
q-26 0 -43.5 17.5t-17.5 44.5q0 26 18 44zM374 849q0 26 17 43.5t44 17.5q26 0 43.5 -17.5t17.5 -43.5q0 -27 -17.5 -44.5t-43.5 -17.5q-27 0 -44 17.5t-17 44.5z" />
    <glyph glyph-name="Zacute" unicode="&#x179;" horiz-adv-x="627" 
d="M54 20v35q0 15 8 24l389 537h-370q-19 0 -19 20v44q0 20 19 20h465q20 0 20 -20v-35q0 -13 -8 -24l-389 -537h384q20 0 20 -20v-44q0 -20 -20 -20h-479q-20 0 -20 20zM252 796l78 112q10 13 23 13h62q13 0 15 -4.5t2 -6.5q0 -6 -6 -13l-90 -113q-9 -12 -24 -12h-47
q-12 0 -14.5 5t-2.5 7q0 6 4 12z" />
    <glyph glyph-name="zacute" unicode="&#x17a;" horiz-adv-x="482" 
d="M43 20v25q0 13 9 25l271 321h-252q-20 0 -20 20v35q0 20 20 20h344q20 0 20 -20v-26q0 -14 -9 -24l-272 -322h265q19 0 19 -19v-35q0 -20 -19 -20h-356q-20 0 -20 20zM181 562l78 112q10 13 23 13h62q13 0 15 -4.5t2 -6.5q0 -6 -6 -13l-90 -113q-9 -12 -24 -12h-47
q-12 0 -14.5 5t-2.5 7q0 6 4 12z" />
    <glyph glyph-name="Zdotaccent" unicode="&#x17b;" horiz-adv-x="627" 
d="M54 20v35q0 15 8 24l389 537h-370q-19 0 -19 20v44q0 20 19 20h465q20 0 20 -20v-35q0 -13 -8 -24l-389 -537h384q20 0 20 -20v-44q0 -20 -20 -20h-479q-20 0 -20 20zM250 849q0 27 17.5 44.5t44.5 17.5t44.5 -17.5t17.5 -44.5q0 -26 -17 -44q-18 -18 -45 -18t-44.5 18
t-17.5 44z" />
    <glyph glyph-name="zdotaccent" unicode="&#x17c;" horiz-adv-x="482" 
d="M52 70l271 321h-252q-20 0 -20 20v35q0 20 20 20h344q20 0 20 -20v-26q0 -14 -9 -24l-272 -322h265q19 0 19 -19v-35q0 -20 -19 -20h-356q-20 0 -20 20v25q0 13 9 25zM179 615q0 27 17.5 44.5t44.5 17.5t44.5 -17.5t17.5 -44.5q0 -26 -17 -44q-18 -18 -45 -18t-44.5 18
t-17.5 44z" />
    <glyph glyph-name="Zcaron" unicode="&#x17d;" horiz-adv-x="627" 
d="M54 20v35q0 15 8 24l389 537h-370q-19 0 -19 20v44q0 20 19 20h465q20 0 20 -20v-35q0 -13 -8 -24l-389 -537h384q20 0 20 -20v-44q0 -20 -20 -20h-479q-20 0 -20 20zM154 914q3 7 16 7h43q15 0 25 -11l73 -84h2l73 84q10 11 25 11h44q12 0 14 -5t2 -7q0 -6 -6 -13
l-101 -113q-11 -11 -25 -11h-54q-14 0 -25 11l-101 113q-6 7 -6 13q0 3 1 5z" />
    <glyph glyph-name="zcaron" unicode="&#x17e;" horiz-adv-x="482" 
d="M52 70l271 321h-252q-20 0 -20 20v35q0 20 20 20h344q20 0 20 -20v-26q0 -14 -9 -24l-272 -322h265q19 0 19 -19v-35q0 -20 -19 -20h-356q-20 0 -20 20v25q0 13 9 25zM83 680q3 7 16 7h43q15 0 25 -11l73 -84h2l73 84q10 11 25 11h44q12 0 14 -5t2 -7q0 -6 -6 -13
l-101 -113q-11 -11 -25 -11h-54q-14 0 -25 11l-101 113q-6 7 -6 13q0 3 1 5z" />
    <glyph glyph-name="florin" unicode="&#x192;" horiz-adv-x="507" 
d="M451 706q17 -3 17 -22v-37q0 -10 -5 -15t-13 -4q-6 1 -19 1q-42 0 -60.5 -17.5t-28.5 -66.5l-20 -107h113q19 0 19 -20v-32q0 -20 -19 -20h-127l-66 -348q-28 -148 -152 -148q-18 0 -44 4q-17 3 -17 22v38q0 9 5 14t13 4q6 -1 19 -1q42 0 60.5 18t28.5 67l63 330h-99
q-20 0 -20 20v32q0 20 20 20h112l24 125q28 147 152 147q18 0 44 -4z" />
    <glyph glyph-name="uni01CD" unicode="&#x1cd;" horiz-adv-x="705" 
d="M27 23l277 662q5 15 23 15h51q18 0 23 -15l277 -662q2 -6 2 -10t-2.5 -8.5t-13.5 -4.5h-54q-18 0 -23 15l-59 144h-351l-59 -144q-5 -15 -23 -15h-53q-18 0 -18 12q0 4 3 11zM495 241l-141 347h-2l-142 -347h285zM195 914q3 7 16 7h43q15 0 25 -11l73 -84h2l73 84
q10 11 25 11h44q12 0 14 -5t2 -7q0 -6 -6 -13l-101 -113q-11 -11 -25 -11h-54q-14 0 -25 11l-101 113q-6 7 -6 13q0 3 1 5z" />
    <glyph glyph-name="uni01CE" unicode="&#x1ce;" horiz-adv-x="612" 
d="M117 406q67 70 165 70q54 0 99 -23t66 -62h2v55q0 20 20 20h45q20 0 20 -20v-426q0 -20 -20 -20h-45q-20 0 -20 20v55h-2q-20 -40 -65 -62.5t-100 -22.5q-98 0 -165.5 70t-67.5 173t68 173zM137 233q0 -72 44 -119q43 -47 113 -47t113 47t43 119q0 71 -43.5 118
t-112.5 47q-70 0 -113.5 -47t-43.5 -118zM147 680q3 7 16 7h43q15 0 25 -11l73 -84h2l73 84q10 11 25 11h44q12 0 14 -5t2 -7q0 -6 -6 -13l-101 -113q-11 -11 -25 -11h-54q-14 0 -25 11l-101 113q-6 7 -6 13q0 3 1 5z" />
    <glyph glyph-name="uni01E2" unicode="&#x1e2;" horiz-adv-x="1070" 
d="M23 24l449 663q9 13 23 13h492q20 0 20 -20v-44q0 -20 -20 -20h-366v-224h291q19 0 19 -20v-44q0 -20 -19 -20h-291v-224h370q20 0 20 -20v-44q0 -20 -20 -20h-440q-20 0 -20 20v141h-311l-99 -148q-9 -13 -24 -13h-61q-12 0 -14.5 5t-2.5 7q0 6 4 12zM276 243h255v377
h-2zM587 819v32q0 20 20 20h256q20 0 20 -20v-32q0 -20 -20 -20h-256q-20 0 -20 20z" />
    <glyph glyph-name="uni01E3" unicode="&#x1e3;" horiz-adv-x="914" 
d="M91 233q47 35 142 35h158v11q0 64 -29 94t-92 30q-95 0 -114 -59q-4 -18 -21 -18h-47q-19 0 -19 16v5q12 61 63 95t136 34q132 0 175 -84h3q64 84 184 84q105 0 170 -66t65 -174v-9q0 -23 -22 -23h-365q7 -69 48 -105t109 -36q101 0 133 62q7 16 22 16h43q11 0 15 -4.5
t4 -9.5q0 -4 -2 -8q-20 -57 -77.5 -93t-138.5 -36q-137 0 -200 99h-3q-25 -47 -77.5 -73t-124.5 -26q-88 0 -137 38t-49 104q0 65 48 101zM233 62q70 0 114 34t44 84v24h-151q-111 0 -111 -69q0 -73 104 -73zM779 271q-9 65 -47 99q-39 34 -102 34t-102 -34t-48 -99h299z
M309 617q0 20 20 20h256q20 0 20 -20v-32q0 -20 -20 -20h-256q-20 0 -20 20v32z" />
    <glyph glyph-name="Gcaron" unicode="&#x1e6;" horiz-adv-x="819" 
d="M160 607q101 103 257 103q116 0 204.5 -59t116.5 -156q1 -4 1 -7q0 -15 -18 -15h-56q-17 0 -23 17q-22 61 -82.5 97.5t-141.5 36.5q-119 0 -192 -77t-73 -197q0 -123 74.5 -198.5t191.5 -75.5q106 0 175.5 62.5t74.5 167.5h-216q-20 0 -20 20v39q0 19 20 19h287
q20 0 20 -19v-29q0 -156 -95.5 -251t-246.5 -95q-156 0 -257.5 102.5t-101.5 257.5q0 154 101 257zM260 914q3 7 16 7h43q15 0 25 -11l73 -84h2l73 84q10 11 25 11h44q12 0 14 -5t2 -7q0 -6 -6 -13l-101 -113q-11 -11 -25 -11h-54q-14 0 -25 11l-101 113q-6 7 -6 13q0 3 1 5
z" />
    <glyph glyph-name="gcaron" unicode="&#x1e7;" horiz-adv-x="612" 
d="M49 236q0 99 68 169.5t165 70.5q54 0 99 -23t66 -62h3v55q0 20 20 20h44q20 0 20 -20v-438q0 -110 -65.5 -172t-180.5 -62q-93 0 -152.5 40.5t-73.5 111.5q-1 2 -1 5q0 6 5 11t15 5h48q16 0 22 -18q23 -81 138 -81q79 0 120 41.5t41 118.5v73h-3q-21 -39 -66 -62t-99 -23
q-97 0 -165 70.5t-68 169.5zM137 236q0 -71 43.5 -117t113.5 -46q69 0 112.5 46.5t43.5 116.5t-43.5 116t-112.5 46q-70 0 -113.5 -46t-43.5 -116zM142 680q3 7 16 7h43q15 0 25 -11l73 -84h2l73 84q10 11 25 11h44q12 0 14 -5t2 -7q0 -6 -6 -13l-101 -113q-11 -11 -25 -11
h-54q-14 0 -25 11l-101 113q-6 7 -6 13q0 3 1 5z" />
    <glyph glyph-name="uni01E8" unicode="&#x1e8;" horiz-adv-x="679" 
d="M93 20v660q0 20 20 20h51q20 0 20 -20v-333h74q20 0 30 -1l223 341q9 13 25 13h65q11 0 13.5 -5t2.5 -7q0 -6 -4 -12l-228 -347q98 -29 160 -106.5t83 -200.5v-5q0 -17 -19 -17h-57q-18 0 -21 18q-25 130 -93.5 186.5t-187.5 56.5h-66v-241q0 -20 -20 -20h-51
q-20 0 -20 20zM192 914q3 7 16 7h43q15 0 25 -11l73 -84h2l73 84q10 11 25 11h44q12 0 14 -5t2 -7q0 -6 -6 -13l-101 -113q-11 -11 -25 -11h-54q-14 0 -25 11l-101 113q-6 7 -6 13q0 3 1 5z" />
    <glyph glyph-name="uni01E9" unicode="&#x1e9;" horiz-adv-x="551" 
d="M78 680q0 20 20 20h46q20 0 20 -20v-405h58q13 0 39 -2l140 181q9 12 24 12h60q13 0 15.5 -4.5t2.5 -7.5q0 -5 -6 -12l-147 -190q135 -54 165 -230v-4q0 -18 -19 -18h-49q-18 0 -21 19q-18 96 -68.5 137t-143.5 41h-50v-177q0 -20 -20 -20h-46q-20 0 -20 20v660zM-37 914
q3 7 16 7h43q15 0 25 -11l73 -84h2l73 84q10 11 25 11h44q12 0 14 -5t2 -7q0 -6 -6 -13l-101 -113q-11 -11 -25 -11h-54q-14 0 -25 11l-101 113q-6 7 -6 13q0 3 1 5z" />
    <glyph glyph-name="AEacute" unicode="&#x1fc;" horiz-adv-x="1070" 
d="M23 24l449 663q9 13 23 13h492q20 0 20 -20v-44q0 -20 -20 -20h-366v-224h291q19 0 19 -20v-44q0 -20 -19 -20h-291v-224h370q20 0 20 -20v-44q0 -20 -20 -20h-440q-20 0 -20 20v141h-311l-99 -148q-9 -13 -24 -13h-61q-12 0 -14.5 5t-2.5 7q0 6 4 12zM276 243h255v377
h-2zM676 796l78 112q10 13 23 13h62q13 0 15 -4.5t2 -6.5q0 -6 -6 -13l-90 -113q-9 -12 -24 -12h-47q-12 0 -14.5 5t-2.5 7q0 6 4 12z" />
    <glyph glyph-name="aeacute" unicode="&#x1fd;" horiz-adv-x="914" 
d="M43 132q0 65 47.5 100.5t142.5 35.5h158v11q0 64 -29 94t-92 30q-95 0 -114 -59q-4 -18 -21 -18h-47q-19 0 -19 16v5q12 61 63 95t136 34q132 0 175 -84h3q64 84 184 84q105 0 170 -66t65 -174v-9q0 -23 -22 -23h-365q7 -69 48 -105t109 -36q101 0 133 62q7 16 22 16h43
q11 0 15 -4.5t4 -9.5q0 -4 -2 -8q-20 -57 -77.5 -93t-138.5 -36q-137 0 -200 99h-3q-25 -47 -77.5 -73t-124.5 -26q-88 0 -137 38t-49 104zM233 62q70 0 114 34t44 84v24h-151q-111 0 -111 -69q0 -73 104 -73zM779 271q-9 65 -47 99q-39 34 -102 34t-102 -34t-48 -99h299z
M398 562l78 112q10 13 23 13h62q13 0 15 -4.5t2 -6.5q0 -6 -6 -13l-90 -113q-9 -12 -24 -12h-47q-12 0 -14.5 5t-2.5 7q0 6 4 12z" />
    <glyph glyph-name="Oslashacute" unicode="&#x1fe;" horiz-adv-x="833" 
d="M163 605q103 105 253 105q77 0 147 -31l46 79q6 11 15 11q6 0 12 -4l30 -17q10 -6 10 -16q0 -5 -3 -11l-45 -79q68 -50 107 -126.5t39 -165.5q0 -150 -104 -255t-254 -105q-77 0 -147 31l-45 -79q-6 -11 -15 -11q-6 0 -12 4l-31 17q-10 7 -10 16q0 5 3 11l46 79
q-68 50 -107 126.5t-39 165.5q0 150 104 255zM416 75q116 0 190 78.5t74 196.5q0 138 -97 218l-274 -472q48 -21 107 -21zM153 350q0 -140 97 -218l273 472q-48 21 -107 21q-116 0 -189.5 -78.5t-73.5 -196.5zM357 796l78 112q10 13 23 13h62q13 0 15 -4.5t2 -6.5
q0 -6 -6 -13l-90 -113q-9 -12 -24 -12h-47q-12 0 -14.5 5t-2.5 7q0 6 4 12z" />
    <glyph glyph-name="oslashacute" unicode="&#x1ff;" horiz-adv-x="587" 
d="M120 406q70 70 174 70q51 0 94 -18l35 61q6 11 15 11q5 0 11 -4l20 -12q10 -6 10 -15q0 -5 -3 -11l-34 -60q96 -72 96 -195q0 -103 -70.5 -173t-173.5 -70q-50 0 -94 18l-36 -62q-5 -11 -14 -11q-5 0 -12 4l-20 12q-10 6 -10 16q0 5 3 11l34 60q-96 72 -96 195
q0 103 71 173zM134 233q0 -79 53 -129l166 287q-30 10 -59 10q-71 0 -115.5 -48t-44.5 -120zM235 75q30 -10 59 -10q71 0 115 48t44 120q0 81 -53 129zM234 562l78 112q10 13 23 13h62q13 0 15 -4.5t2 -6.5q0 -6 -6 -13l-90 -113q-9 -12 -24 -12h-47q-12 0 -14.5 5t-2.5 7
q0 6 4 12z" />
    <glyph glyph-name="uni0218" unicode="&#x218;" horiz-adv-x="624" 
d="M57 193q5 5 15 5h54q16 0 21 -18q25 -107 170 -107q78 0 121.5 32t43.5 86q0 89 -120 110l-106 20q-197 36 -197 193q0 89 64.5 142.5t184.5 53.5q231 0 255 -196v-5q0 -16 -18 -16h-52q-18 0 -21 19q-8 61 -48.5 88t-116.5 27q-155 0 -155 -111q0 -47 30.5 -73.5
t108.5 -41.5l106 -19q178 -34 178 -186q0 -95 -69 -150.5t-188 -55.5q-112 0 -181 49t-83 138q-1 3 -1 5q0 7 4 11zM263 -231l15 127q2 19 21 19h52q18 0 18 -15q0 -3 -1 -7l-33 -128q-5 -17 -22 -17h-32q-18 0 -18 16v5z" />
    <glyph glyph-name="uni0219" unicode="&#x219;" horiz-adv-x="494" 
d="M52 127q5 5 15 5h48q16 0 22 -17q9 -26 39.5 -41t75.5 -15q53 0 81.5 18.5t28.5 51.5q0 27 -19.5 42t-68.5 22l-87 14q-138 21 -138 130q0 63 49.5 101t143.5 38q86 0 136 -33.5t61 -98.5v-5q0 -15 -19 -15h-46q-16 0 -21 18q-15 63 -112 63q-108 0 -108 -68
q0 -24 18.5 -37.5t67.5 -21.5l88 -13q139 -22 139 -133q0 -67 -51.5 -104.5t-145.5 -37.5q-176 0 -200 121q-1 3 -1 5q0 7 4 11zM189 -231l15 127q2 19 21 19h52q18 0 18 -15q0 -3 -1 -7l-33 -128q-5 -17 -22 -17h-32q-18 0 -18 16v5z" />
    <glyph glyph-name="uni021A" unicode="&#x21a;" horiz-adv-x="596" 
d="M49 700h498q20 0 20 -20v-45q0 -20 -20 -20h-204v-595q0 -20 -20 -20h-51q-19 0 -19 20v595h-204q-20 0 -20 20v45q0 20 20 20zM229 -231l15 127q2 19 21 19h52q18 0 18 -15q0 -3 -1 -7l-33 -128q-5 -17 -22 -17h-32q-18 0 -18 16v5z" />
    <glyph glyph-name="uni021B" unicode="&#x21b;" horiz-adv-x="434" 
d="M37 466h89v110q0 20 20 20h47q19 0 19 -20v-110h163q20 0 20 -20v-34q0 -20 -20 -20h-163v-226q0 -54 23 -76.5t73 -22.5q39 0 70 12q7 3 12 3q11 0 11 -17v-36q0 -15 -15 -22q-41 -17 -93 -17q-167 0 -167 172v230h-89q-19 0 -19 20v34q0 20 19 20zM198 -231l15 127
q2 19 21 19h52q18 0 18 -15q0 -3 -1 -7l-33 -128q-5 -17 -22 -17h-32q-18 0 -18 16v5z" />
    <glyph glyph-name="uni0237" unicode="&#x237;" horiz-adv-x="242" 
d="M-58 -199v37q0 17 16 17h5q18 -2 27 -2q47 0 67.5 23t20.5 80v490q0 20 20 20h46q20 0 20 -20v-492q0 -180 -156 -180q-26 0 -49 5q-17 4 -17 22z" />
    <glyph glyph-name="circumflex" unicode="&#x2c6;" 
d="M147 563l101 113q11 11 25 11h54q14 0 25 -11l101 -113q6 -7 6 -13q0 -2 -2 -7t-14 -5h-44q-15 0 -25 11l-73 84h-2l-73 -84q-10 -11 -25 -11h-43q-13 0 -15 5t-2 7q0 6 6 13z" />
    <glyph glyph-name="caron" unicode="&#x2c7;" 
d="M142 680q3 7 16 7h43q15 0 25 -11l73 -84h2l73 84q10 11 25 11h44q12 0 14 -5t2 -7q0 -6 -6 -13l-101 -113q-11 -11 -25 -11h-54q-14 0 -25 11l-101 113q-6 7 -6 13q0 3 1 5z" />
    <glyph glyph-name="breve" unicode="&#x2d8;" 
d="M169 679h38q17 0 20 -19q11 -60 73 -60t73 60q3 19 20 19h38q19 0 19 -21q0 -50 -41 -85t-109 -35t-109 35t-41 85q0 21 19 21z" />
    <glyph glyph-name="dotaccent" unicode="&#x2d9;" 
d="M238 615q0 27 17.5 44.5t44.5 17.5t44.5 -17.5t17.5 -44.5q0 -26 -17 -44q-18 -18 -45 -18t-44.5 18t-17.5 44z" />
    <glyph glyph-name="ring" unicode="&#x2da;" 
d="M181 646q0 47 34.5 80t84.5 33t84.5 -33t34.5 -80t-34 -80q-35 -33 -85 -33t-84.5 33t-34.5 80zM244 646q0 -25 15 -40q15 -16 41 -16t41 15.5t15 40.5t-15 41t-41 16t-41 -16t-15 -41z" />
    <glyph glyph-name="ogonek" unicode="&#x2db;" 
d="M317 -216q-55 0 -88 26.5t-33 68.5q0 90 131 142l43 6v-12q0 -16 -14 -24q-85 -58 -85 -97t56 -39q13 0 21 1q22 5 22 -17v-31q0 -18 -19 -21q-18 -3 -34 -3z" />
    <glyph glyph-name="tilde" unicode="&#x2dc;" 
d="M134 566q4 55 29 84.5t65 29.5q7 0 14.5 -1t13 -2.5t12.5 -4.5l11 -6q4 -2 10.5 -7t9 -6.5t10 -7.5t8.5 -7q33 -27 49 -27q28 0 34 48q2 20 20 20h27q19 0 19 -20q0 -5 -1 -10q-5 -51 -29.5 -78t-63.5 -27q-7 0 -14.5 1t-13 2.5t-12.5 5.5l-11 5q-4 2 -10.5 7t-9 6.5
t-10 7.5t-8.5 7q-33 27 -49 27q-28 0 -34 -48q-2 -20 -20 -20h-27q-19 0 -19 18v3z" />
    <glyph glyph-name="hungarumlaut" unicode="&#x2dd;" 
d="M358 562l83 113q8 12 24 12h44q13 0 15.5 -4t2.5 -7q0 -5 -6 -13l-91 -113q-9 -12 -24 -12h-36q-12 0 -14.5 4.5t-2.5 7.5q0 5 5 12zM184 562l82 113q8 12 24 12h44q13 0 15.5 -4t2.5 -7q0 -5 -6 -13l-91 -113q-9 -12 -24 -12h-36q-11 0 -13.5 4.5t-2.5 7.5q0 5 5 12z
" />
    <glyph glyph-name="gravecomb" unicode="&#x300;" horiz-adv-x="0" 
d="M-456 680q3 7 16 7h62q15 0 23 -13l78 -112q4 -6 4 -12q0 -2 -2.5 -7t-14.5 -5h-47q-14 0 -23 12l-91 113q-6 7 -6 13q0 2 1 4z" />
    <glyph glyph-name="acutecomb" unicode="&#x301;" horiz-adv-x="0" 
d="M-339 562l78 112q10 13 23 13h62q13 0 15 -4.5t2 -6.5q0 -6 -6 -13l-90 -113q-9 -12 -24 -12h-47q-12 0 -14.5 5t-2.5 7q0 6 4 12z" />
    <glyph glyph-name="uni0302" unicode="&#x302;" horiz-adv-x="0" 
d="M-453 563l101 113q11 11 25 11h54q14 0 25 -11l101 -113q6 -7 6 -13q0 -2 -2 -7t-14 -5h-44q-15 0 -25 11l-73 84h-2l-73 -84q-10 -11 -25 -11h-43q-13 0 -15 5t-2 7q0 6 6 13z" />
    <glyph glyph-name="tildecomb" unicode="&#x303;" horiz-adv-x="0" 
d="M-466 566q4 55 29 84.5t65 29.5q7 0 14.5 -1t13 -2.5t12.5 -4.5l11 -6q4 -2 10.5 -7t9 -6.5t10 -7.5t8.5 -7q33 -27 49 -27q28 0 34 48q2 20 20 20h27q19 0 19 -20q0 -5 -1 -10q-5 -51 -29.5 -78t-63.5 -27q-7 0 -14.5 1t-13 2.5t-12.5 5.5l-11 5q-4 2 -10.5 7t-9 6.5
t-10 7.5t-8.5 7q-33 27 -49 27q-28 0 -34 -48q-2 -20 -20 -20h-27q-19 0 -19 18v3z" />
    <glyph glyph-name="uni0304" unicode="&#x304;" horiz-adv-x="0" 
d="M-428 637h256q20 0 20 -20v-32q0 -20 -20 -20h-256q-20 0 -20 20v32q0 20 20 20z" />
    <glyph glyph-name="uni0306" unicode="&#x306;" horiz-adv-x="0" 
d="M-431 679h38q17 0 20 -19q11 -60 73 -60t73 60q3 19 20 19h38q19 0 19 -21q0 -50 -41 -85t-109 -35t-109 35t-41 85q0 21 19 21z" />
    <glyph glyph-name="uni0307" unicode="&#x307;" horiz-adv-x="0" 
d="M-362 615q0 27 17.5 44.5t44.5 17.5t44.5 -17.5t17.5 -44.5q0 -26 -18 -44q-17 -18 -44 -18t-44.5 18t-17.5 44z" />
    <glyph glyph-name="uni0308" unicode="&#x308;" horiz-adv-x="0" 
d="M-450 659q18 17 44 17q27 0 44 -17.5t17 -43.5q0 -27 -17 -44.5t-44 -17.5q-26 0 -43.5 17.5t-17.5 44.5q0 26 17 44zM-238 659q17 17 44 17q26 0 43.5 -17.5t17.5 -43.5q0 -27 -17.5 -44.5t-43.5 -17.5q-27 0 -44 17.5t-17 44.5q0 26 17 44z" />
    <glyph glyph-name="uni030A" unicode="&#x30a;" horiz-adv-x="0" 
d="M-419 646q0 47 34.5 80t84.5 33t84.5 -33t34.5 -80t-35 -80q-34 -33 -84 -33t-84.5 33t-34.5 80zM-356 646q0 -25 15 -40q15 -16 41 -16t41 15.5t15 40.5t-15 41t-41 16t-41 -16t-15 -41z" />
    <glyph glyph-name="uni030B" unicode="&#x30b;" horiz-adv-x="0" 
d="M-242 562l83 113q8 12 24 12h44q13 0 15.5 -4t2.5 -7q0 -5 -6 -13l-91 -113q-9 -12 -24 -12h-36q-12 0 -14.5 4.5t-2.5 7.5q0 5 5 12zM-416 562l82 113q8 12 24 12h44q13 0 15.5 -4t2.5 -7q0 -5 -6 -13l-91 -113q-9 -12 -24 -12h-36q-11 0 -13.5 4.5t-2.5 7.5q0 5 5 12z
" />
    <glyph glyph-name="uni030C" unicode="&#x30c;" horiz-adv-x="0" 
d="M-458 680q3 7 16 7h43q15 0 25 -11l73 -84h2l73 84q10 11 25 11h44q12 0 14 -5t2 -7q0 -6 -6 -13l-101 -113q-11 -11 -25 -11h-54q-14 0 -25 11l-101 113q-6 7 -6 13q0 3 1 5z" />
    <glyph glyph-name="uni0312" unicode="&#x312;" horiz-adv-x="0" 
d="M-341 584l33 129q5 17 22 17h32q18 0 18 -17v-4l-16 -128q-2 -18 -20 -18h-52q-18 0 -18 14q0 3 1 7z" />
    <glyph glyph-name="uni0326" unicode="&#x326;" horiz-adv-x="0" 
d="M-363 -231l15 127q2 19 21 19h52q18 0 18 -15q0 -3 -1 -7l-33 -128q-5 -17 -22 -17h-32q-18 0 -18 16v5z" />
    <glyph glyph-name="uni0327" unicode="&#x327;" horiz-adv-x="0" 
d="M-380 -154l56 160q6 16 23 16h40q11 0 14.5 -5t3.5 -11q0 -3 -1 -7l-49 -159q-5 -17 -22 -17h-49q-18 0 -18 13q0 4 2 10z" />
    <glyph glyph-name="uni0328" unicode="&#x328;" horiz-adv-x="0" 
d="M-273 21l43 6v-12q0 -16 -14 -24q-85 -58 -85 -97t56 -39q13 0 21 1q4 1 7 1q15 0 15 -18v-31q0 -18 -19 -21q-18 -3 -34 -3q-55 0 -88 26.5t-33 68.5q0 90 131 142z" />
    <glyph glyph-name="uni03BC" unicode="&#x3bc;" horiz-adv-x="623" 
d="M510 466q20 0 20 -20v-426q0 -20 -20 -20h-43q-20 0 -20 20v73q-20 -48 -63.5 -75.5t-96.5 -27.5q-71 0 -108 51v-237q0 -20 -20 -20h-46q-20 0 -20 20v642q0 20 20 20h46q20 0 20 -20v-239q0 -134 114 -134q67 0 109 40.5t42 117.5v215q0 20 20 20h46z" />
    <glyph glyph-name="pi" unicode="&#x3c0;" 
d="M546 79q19 0 19 -19v-40q0 -20 -19 -20h-21q-126 0 -126 132v254h-220v-366q0 -20 -20 -20h-46q-20 0 -20 20v426q0 20 20 20h352q20 0 20 -20v-306q0 -61 56 -61h5z" />
    <glyph glyph-name="uni1E20" unicode="&#x1e20;" horiz-adv-x="819" 
d="M59 350q0 154 101 257t257 103q116 0 204.5 -59t116.5 -156q1 -4 1 -7q0 -15 -18 -15h-56q-17 0 -23 17q-22 61 -82.5 97.5t-141.5 36.5q-119 0 -192 -77t-73 -197q0 -123 74.5 -198.5t191.5 -75.5q106 0 175.5 62.5t74.5 167.5h-216q-20 0 -20 20v39q0 19 20 19h287
q20 0 20 -19v-29q0 -156 -95.5 -251t-246.5 -95q-156 0 -257.5 102.5t-101.5 257.5zM270 851q0 20 20 20h256q20 0 20 -20v-32q0 -20 -20 -20h-256q-20 0 -20 20v32z" />
    <glyph glyph-name="uni1E21" unicode="&#x1e21;" horiz-adv-x="612" 
d="M117 406q68 70 165 70q54 0 99 -23t66 -62h3v55q0 20 20 20h44q20 0 20 -20v-438q0 -110 -65.5 -172t-180.5 -62q-93 0 -152.5 40.5t-73.5 111.5q-1 2 -1 5q0 6 5 11t15 5h48q16 0 22 -18q23 -81 138 -81q79 0 120 41.5t41 118.5v73h-3q-21 -39 -66 -62t-99 -23
q-97 0 -165 70.5t-68 169.5t68 170zM137 236q0 -71 43.5 -117t113.5 -46q69 0 112.5 46.5t43.5 116.5t-43.5 116t-112.5 46q-70 0 -113.5 -46t-43.5 -116zM172 637h256q20 0 20 -20v-32q0 -20 -20 -20h-256q-20 0 -20 20v32q0 20 20 20z" />
    <glyph glyph-name="uni1E30" unicode="&#x1e30;" horiz-adv-x="679" 
d="M113 700h51q20 0 20 -20v-333h74q20 0 30 -1l223 341q9 13 25 13h65q11 0 13.5 -5t2.5 -7q0 -6 -4 -12l-228 -347q98 -29 160 -106.5t83 -200.5v-5q0 -17 -19 -17h-57q-18 0 -21 18q-25 130 -93.5 186.5t-187.5 56.5h-66v-241q0 -20 -20 -20h-51q-20 0 -20 20v660
q0 20 20 20zM290 796l78 112q10 13 23 13h62q13 0 15 -4.5t2 -6.5q0 -6 -6 -13l-90 -113q-9 -12 -24 -12h-47q-12 0 -14.5 5t-2.5 7q0 6 4 12z" />
    <glyph glyph-name="uni1E31" unicode="&#x1e31;" horiz-adv-x="551" 
d="M78 20v660q0 20 20 20h46q20 0 20 -20v-405h58q13 0 39 -2l140 181q9 12 24 12h60q13 0 15.5 -4.5t2.5 -7.5q0 -5 -6 -12l-147 -190q135 -54 165 -230v-4q0 -18 -19 -18h-49q-18 0 -21 19q-18 96 -68.5 137t-143.5 41h-50v-177q0 -20 -20 -20h-46q-20 0 -20 20zM62 796
l78 112q10 13 23 13h62q13 0 15 -4.5t2 -6.5q0 -6 -6 -13l-90 -113q-9 -12 -24 -12h-47q-12 0 -14.5 5t-2.5 7q0 6 4 12z" />
    <glyph glyph-name="uni1E3E" unicode="&#x1e3e;" horiz-adv-x="914" 
d="M93 20v660q0 20 20 20h57q16 0 24 -13l262 -415h2l262 415q8 13 24 13h57q20 0 20 -20v-660q0 -20 -20 -20h-51q-19 0 -19 20v524h-2l-228 -359q-8 -13 -24 -13h-40q-16 0 -24 13l-228 359h-1v-524q0 -20 -20 -20h-51q-20 0 -20 20zM398 796l78 112q10 13 23 13h62
q13 0 15 -4.5t2 -6.5q0 -6 -6 -13l-90 -113q-9 -12 -24 -12h-47q-12 0 -14.5 5t-2.5 7q0 6 4 12z" />
    <glyph glyph-name="uni1E3F" unicode="&#x1e3f;" horiz-adv-x="880" 
d="M78 20v426q0 20 20 20h44q20 0 20 -20v-58h3q18 41 57.5 64.5t91.5 23.5q53 0 92.5 -25.5t59.5 -71.5h3q22 46 65.5 71.5t99.5 25.5q81 0 128.5 -52t47.5 -142v-262q0 -20 -20 -20h-47q-19 0 -19 20v241q0 67 -28.5 101.5t-80.5 34.5q-56 0 -92 -38t-36 -102v-237
q0 -20 -20 -20h-46q-20 0 -20 20v241q0 67 -29 101.5t-80 34.5q-56 0 -92 -38.5t-36 -101.5v-237q0 -20 -20 -20h-46q-20 0 -20 20zM389 562l78 112q10 13 23 13h62q13 0 15 -4.5t2 -6.5q0 -6 -6 -13l-90 -113q-9 -12 -24 -12h-47q-12 0 -14.5 5t-2.5 7q0 6 4 12z" />
    <glyph glyph-name="uni1E40" unicode="&#x1e40;" horiz-adv-x="914" 
d="M113 700h57q16 0 24 -13l262 -415h2l262 415q8 13 24 13h57q20 0 20 -20v-660q0 -20 -20 -20h-51q-19 0 -19 20v524h-2l-228 -359q-8 -13 -24 -13h-40q-16 0 -24 13l-228 359h-1v-524q0 -20 -20 -20h-51q-20 0 -20 20v660q0 20 20 20zM413 894q17 17 44 17t44.5 -17.5
t17.5 -44.5q0 -26 -17 -44q-18 -18 -45 -18t-44.5 18t-17.5 44q0 27 18 45z" />
    <glyph glyph-name="uni1E41" unicode="&#x1e41;" horiz-adv-x="880" 
d="M98 466h44q20 0 20 -20v-58h3q18 41 57.5 64.5t91.5 23.5q53 0 92.5 -25.5t59.5 -71.5h3q22 46 65.5 71.5t99.5 25.5q81 0 128.5 -52t47.5 -142v-262q0 -20 -20 -20h-47q-19 0 -19 20v241q0 67 -28.5 101.5t-80.5 34.5q-56 0 -92 -38t-36 -102v-237q0 -20 -20 -20h-46
q-20 0 -20 20v241q0 67 -29 101.5t-80 34.5q-56 0 -92 -38.5t-36 -101.5v-237q0 -20 -20 -20h-46q-20 0 -20 20v426q0 20 20 20zM387 615q0 27 17.5 44.5t44.5 17.5t44.5 -17.5t17.5 -44.5q0 -26 -17 -44q-18 -18 -45 -18t-44.5 18t-17.5 44z" />
    <glyph glyph-name="uni1E44" unicode="&#x1e44;" horiz-adv-x="772" 
d="M93 20v660q0 20 20 20h51q16 0 24 -12l399 -539h1v531q0 20 20 20h51q20 0 20 -20v-660q0 -20 -20 -20h-53q-16 0 -23 12l-398 538h-1v-530q0 -20 -20 -20h-51q-20 0 -20 20zM324 849q0 27 17.5 44.5t44.5 17.5t44.5 -17.5t17.5 -44.5q0 -26 -17 -44q-18 -18 -45 -18
t-44.5 18t-17.5 44z" />
    <glyph glyph-name="uni1E45" unicode="&#x1e45;" horiz-adv-x="585" 
d="M78 20v426q0 20 20 20h45q20 0 20 -20v-55h2q20 40 63 62.5t100 22.5q87 0 136.5 -52t49.5 -144v-260q0 -20 -19 -20h-47q-20 0 -20 20v241q0 136 -121 136q-65 0 -104 -38t-39 -102v-237q0 -20 -20 -20h-46q-20 0 -20 20zM234 615q0 27 17.5 44.5t44.5 17.5t44.5 -17.5
t17.5 -44.5q0 -26 -17 -44q-18 -18 -45 -18t-44.5 18t-17.5 44z" />
    <glyph glyph-name="Wgrave" unicode="&#x1e80;" horiz-adv-x="1049" 
d="M48 700h53q18 0 22 -16l177 -549h2l176 549q4 16 21 16h50q18 0 22 -16l176 -549h2l177 549q4 16 22 16h53q18 0 18 -13q0 -4 -2 -10l-219 -661q-6 -16 -22 -16h-52q-17 0 -22 16l-177 541h-2l-177 -541q-5 -16 -21 -16h-53q-15 0 -21 16l-219 661q-2 6 -2 10q0 13 18 13
zM398 914q3 7 16 7h62q15 0 23 -13l78 -112q4 -6 4 -12q0 -2 -2.5 -7t-14.5 -5h-47q-14 0 -23 12l-91 113q-6 7 -6 13q0 2 1 4z" />
    <glyph glyph-name="wgrave" unicode="&#x1e81;" horiz-adv-x="824" 
d="M53 466h47q17 0 23 -16l120 -339h2l123 339q6 16 23 16h42q17 0 23 -16l123 -339h2l120 339q6 16 23 16h47q18 0 18 -13q0 -4 -2 -10l-159 -427q-6 -16 -23 -16h-46q-17 0 -23 16l-123 335h-2l-123 -335q-6 -16 -23 -16h-46q-17 0 -23 16l-159 427q-2 6 -2 10q0 13 18 13
zM285 680q3 7 16 7h62q15 0 23 -13l78 -112q4 -6 4 -12q0 -2 -2.5 -7t-14.5 -5h-47q-14 0 -23 12l-91 113q-6 7 -6 13q0 2 1 4z" />
    <glyph glyph-name="Wacute" unicode="&#x1e82;" horiz-adv-x="1049" 
d="M48 700h53q18 0 22 -16l177 -549h2l176 549q4 16 21 16h50q18 0 22 -16l176 -549h2l177 549q4 16 22 16h53q18 0 18 -13q0 -4 -2 -10l-219 -661q-6 -16 -22 -16h-52q-17 0 -22 16l-177 541h-2l-177 -541q-5 -16 -21 -16h-53q-15 0 -21 16l-219 661q-2 6 -2 10q0 13 18 13
zM465 796l78 112q10 13 23 13h62q13 0 15 -4.5t2 -6.5q0 -6 -6 -13l-90 -113q-9 -12 -24 -12h-47q-12 0 -14.5 5t-2.5 7q0 6 4 12z" />
    <glyph glyph-name="wacute" unicode="&#x1e83;" horiz-adv-x="824" 
d="M53 466h47q17 0 23 -16l120 -339h2l123 339q6 16 23 16h42q17 0 23 -16l123 -339h2l120 339q6 16 23 16h47q18 0 18 -13q0 -4 -2 -10l-159 -427q-6 -16 -23 -16h-46q-17 0 -23 16l-123 335h-2l-123 -335q-6 -16 -23 -16h-46q-17 0 -23 16l-159 427q-2 6 -2 10q0 13 18 13
zM353 562l78 112q10 13 23 13h62q13 0 15 -4.5t2 -6.5q0 -6 -6 -13l-90 -113q-9 -12 -24 -12h-47q-12 0 -14.5 5t-2.5 7q0 6 4 12z" />
    <glyph glyph-name="Wdieresis" unicode="&#x1e84;" horiz-adv-x="1049" 
d="M48 700h53q18 0 22 -16l177 -549h2l176 549q4 16 21 16h50q18 0 22 -16l176 -549h2l177 549q4 16 22 16h53q18 0 18 -13q0 -4 -2 -10l-219 -661q-6 -16 -22 -16h-52q-17 0 -22 16l-177 541h-2l-177 -541q-5 -16 -21 -16h-53q-15 0 -21 16l-219 661q-2 6 -2 10q0 13 18 13
zM586 893q17 17 44 17q26 0 43.5 -17.5t17.5 -43.5q0 -27 -17.5 -44.5t-43.5 -17.5q-27 0 -44 17.5t-17 44.5q0 26 17 44zM357 849q0 26 17.5 43.5t43.5 17.5q27 0 44 -17.5t17 -43.5q0 -27 -17 -44.5t-44 -17.5q-26 0 -43.5 17.5t-17.5 44.5z" />
    <glyph glyph-name="wdieresis" unicode="&#x1e85;" horiz-adv-x="824" 
d="M53 466h47q17 0 23 -16l120 -339h2l123 339q6 16 23 16h42q17 0 23 -16l123 -339h2l120 339q6 16 23 16h47q18 0 18 -13q0 -4 -2 -10l-159 -427q-6 -16 -23 -16h-46q-17 0 -23 16l-123 335h-2l-123 -335q-6 -16 -23 -16h-46q-17 0 -23 16l-159 427q-2 6 -2 10q0 13 18 13
zM263 659q17 17 43 17q27 0 44 -17.5t17 -43.5q0 -27 -17 -44.5t-44 -17.5q-26 0 -43.5 17.5t-17.5 44.5q0 26 18 44zM457 615q0 26 17 43.5t44 17.5q26 0 43.5 -17.5t17.5 -43.5q0 -27 -17.5 -44.5t-43.5 -17.5q-27 0 -44 17.5t-17 44.5z" />
    <glyph glyph-name="uni1E90" unicode="&#x1e90;" horiz-adv-x="627" 
d="M54 20v35q0 15 8 24l389 537h-370q-19 0 -19 20v44q0 20 19 20h465q20 0 20 -20v-35q0 -13 -8 -24l-389 -537h384q20 0 20 -20v-44q0 -20 -20 -20h-479q-20 0 -20 20zM159 797l101 113q11 11 25 11h54q14 0 25 -11l101 -113q6 -7 6 -13q0 -2 -2 -7t-14 -5h-44
q-15 0 -25 11l-73 84h-2l-73 -84q-10 -11 -25 -11h-43q-13 0 -15 5t-2 7q0 6 6 13z" />
    <glyph glyph-name="uni1E91" unicode="&#x1e91;" horiz-adv-x="482" 
d="M52 70l271 321h-252q-20 0 -20 20v35q0 20 20 20h344q20 0 20 -20v-26q0 -14 -9 -24l-272 -322h265q19 0 19 -19v-35q0 -20 -19 -20h-356q-20 0 -20 20v25q0 13 9 25zM88 563l101 113q11 11 25 11h54q14 0 25 -11l101 -113q6 -7 6 -13q0 -2 -2 -7t-14 -5h-44
q-15 0 -25 11l-73 84h-2l-73 -84q-10 -11 -25 -11h-43q-13 0 -15 5t-2 7q0 6 6 13z" />
    <glyph glyph-name="Germandbls" unicode="&#x1e9e;" horiz-adv-x="725" 
d="M467 378q211 -17 211 -188q0 -94 -63 -145.5t-180 -51.5q-45 0 -87 7q-18 3 -18 21v42q0 21 22 18q37 -6 74 -6q158 0 158 117q0 58 -41 85t-136 27h-26q-20 0 -20 20v42q0 13 9 25l157 191q-53 46 -153 46q-101 0 -149 -45.5t-48 -143.5v-419q0 -20 -20 -20h-51
q-20 0 -20 20v419q0 271 281 271q175 0 261 -109q11 -13 0 -27z" />
    <glyph glyph-name="Ygrave" unicode="&#x1ef2;" horiz-adv-x="657" 
d="M25 693q4 7 16 7h58q14 0 23 -13l206 -321h1l206 321q9 13 24 13h58q11 0 14 -5t3 -8q0 -5 -4 -11l-256 -391v-265q0 -20 -19 -20h-52q-20 0 -20 20v265l-255 391q-4 6 -4 12q0 2 1 5zM202 914q3 7 16 7h62q15 0 23 -13l78 -112q4 -6 4 -12q0 -2 -2.5 -7t-14.5 -5h-47
q-14 0 -23 12l-91 113q-6 7 -6 13q0 2 1 4z" />
    <glyph glyph-name="ygrave" unicode="&#x1ef3;" horiz-adv-x="584" 
d="M88 -67h47q16 0 22 -17q21 -68 125 -68q140 0 140 143v94h-3q-19 -39 -61.5 -62.5t-101.5 -23.5q-86 0 -134.5 51.5t-48.5 141.5v254q0 20 19 20h47q20 0 20 -20v-232q0 -137 118 -137q64 0 103.5 38t39.5 102v229q0 20 20 20h46q20 0 20 -20v-455q0 -104 -59 -160.5
t-165 -56.5q-89 0 -144 37.5t-69 101.5v5q0 15 19 15zM162 680q3 7 16 7h62q15 0 23 -13l78 -112q4 -6 4 -12q0 -2 -2.5 -7t-14.5 -5h-47q-14 0 -23 12l-91 113q-6 7 -6 13q0 2 1 4z" />
    <glyph glyph-name="uni2000" unicode="&#x2000;" horiz-adv-x="500" 
 />
    <glyph glyph-name="uni2001" unicode="&#x2001;" horiz-adv-x="1000" 
 />
    <glyph glyph-name="uni2002" unicode="&#x2002;" horiz-adv-x="500" 
 />
    <glyph glyph-name="uni2003" unicode="&#x2003;" horiz-adv-x="1000" 
 />
    <glyph glyph-name="uni2009" unicode="&#x2009;" horiz-adv-x="229" 
 />
    <glyph glyph-name="uni200A" unicode="&#x200a;" horiz-adv-x="98" 
 />
    <glyph glyph-name="uni200B" unicode="&#x200b;" horiz-adv-x="0" 
 />
    <glyph glyph-name="endash" unicode="&#x2013;" horiz-adv-x="500" 
d="M73 233q-19 0 -19 19v41q0 20 19 20h354q19 0 19 -20v-41q0 -19 -19 -19h-354z" />
    <glyph glyph-name="emdash" unicode="&#x2014;" horiz-adv-x="1000" 
d="M73 233q-19 0 -19 19v41q0 20 19 20h854q19 0 19 -20v-41q0 -19 -19 -19h-854z" />
    <glyph glyph-name="quoteleft" unicode="&#x2018;" horiz-adv-x="227" 
d="M66 458q-10 0 -14.5 6t-1.5 16l57 213q4 17 23 17h32q23 0 18 -21l-43 -213q-3 -18 -21 -18h-50z" />
    <glyph glyph-name="quoteright" unicode="&#x2019;" horiz-adv-x="227" 
d="M161 710q10 0 15 -6t2 -15l-58 -214q-4 -17 -23 -17h-31q-23 0 -18 22l42 212q3 18 22 18h49z" />
    <glyph glyph-name="quotesinglbase" unicode="&#x201a;" horiz-adv-x="243" 
d="M66 -136q-23 0 -18 22l43 212q3 18 21 18h50q10 0 14.5 -6t1.5 -16l-57 -213q-4 -17 -23 -17h-32z" />
    <glyph glyph-name="quotedblleft" unicode="&#x201c;" horiz-adv-x="407" 
d="M66 458q-10 0 -14.5 6t-1.5 16l57 213q4 17 23 17h32q23 0 18 -21l-43 -213q-3 -18 -21 -18h-50zM246 458q-11 0 -15.5 6t-1.5 16l58 213q4 17 22 17h32q23 0 18 -21l-42 -213q-3 -18 -22 -18h-49z" />
    <glyph glyph-name="quotedblright" unicode="&#x201d;" horiz-adv-x="407" 
d="M161 710q10 0 15 -6t2 -15l-58 -214q-4 -17 -23 -17h-31q-23 0 -18 22l42 212q3 18 22 18h49zM340 710q10 0 15 -6t2 -15l-58 -214q-4 -17 -22 -17h-32q-23 0 -18 22l42 212q3 18 22 18h49z" />
    <glyph glyph-name="quotedblbase" unicode="&#x201e;" horiz-adv-x="418" 
d="M66 -136q-23 0 -18 22l43 212q3 18 21 18h50q10 0 14.5 -6t1.5 -16l-57 -213q-4 -17 -23 -17h-32zM242 -136q-23 0 -18 22l42 212q3 18 22 18h49q11 0 15.5 -6t1.5 -16l-58 -213q-4 -17 -23 -17h-31z" />
    <glyph glyph-name="dagger" unicode="&#x2020;" horiz-adv-x="502" 
d="M443 489q20 0 20 -20v-40q0 -20 -20 -20h-149v-519q0 -20 -19 -20h-47q-20 0 -20 20v519h-149q-20 0 -20 20v40q0 20 20 20h149v225q0 20 20 20h47q19 0 19 -20v-225h149z" />
    <glyph glyph-name="daggerdbl" unicode="&#x2021;" horiz-adv-x="542" 
d="M463 409h-149v-211h149q20 0 20 -20v-41q0 -19 -20 -19h-149v-228q0 -20 -19 -20h-47q-20 0 -20 20v228h-149q-20 0 -20 19v41q0 20 20 20h149v211h-149q-20 0 -20 20v40q0 20 20 20h149v225q0 20 20 20h47q19 0 19 -20v-225h149q20 0 20 -20v-40q0 -20 -20 -20z" />
    <glyph glyph-name="bullet" unicode="&#x2022;" horiz-adv-x="519" 
d="M260 209q-64 0 -107.5 43.5t-43.5 107.5t43.5 107t107.5 43t107 -43t43 -107t-43 -107.5t-107 -43.5z" />
    <glyph glyph-name="ellipsis" unicode="&#x2026;" horiz-adv-x="751" 
d="M123 -8q-28 0 -45.5 17.5t-17.5 45.5t17.5 45.5t45.5 17.5t45.5 -17.5t17.5 -45.5q0 -29 -17 -46t-46 -17zM376 -8q-28 0 -45.5 17t-17.5 46q0 28 17.5 45.5t45.5 17.5t45.5 -17.5t17.5 -45.5t-17.5 -45.5t-45.5 -17.5zM628 -8q-28 0 -45.5 17t-17.5 46q0 28 17.5 45.5
t45.5 17.5t45.5 -17.5t17.5 -45.5q0 -29 -17.5 -46t-45.5 -17z" />
    <glyph glyph-name="perthousand" unicode="&#x2030;" horiz-adv-x="1263" 
d="M217 353q-75 0 -126.5 51.5t-51.5 127.5t51.5 127t126.5 51q76 0 127 -51t51 -127t-51 -127.5t-127 -51.5zM177 0q-11 0 -15 7t3 17l445 663q9 13 23 13h43q12 0 16 -7t-3 -17l-445 -663q-9 -13 -24 -13h-43zM217 422q46 0 74.5 30t28.5 80q0 49 -28 79t-75 30t-75 -30
t-28 -79q0 -50 28.5 -80t74.5 -30zM636 -10q-75 0 -126.5 51t-51.5 127t51.5 127.5t126.5 51.5q76 0 127 -51.5t51 -127.5t-51 -127t-127 -51zM1045 -10q-75 0 -126.5 51t-51.5 127t51.5 127.5t126.5 51.5q76 0 127 -51.5t51 -127.5t-51 -127t-127 -51zM636 59q47 0 75 29.5
t28 79.5t-28 80t-75 30q-46 0 -74.5 -30t-28.5 -80q0 -49 28 -79t75 -30zM1045 59q47 0 75 30t28 79q0 50 -28.5 80t-74.5 30t-74.5 -30t-28.5 -80q0 -49 28 -79t75 -30z" />
    <glyph glyph-name="guilsinglleft" unicode="&#x2039;" horiz-adv-x="316" 
d="M143 233l104 -161q7 -10 3 -16.5t-16 -6.5h-51q-15 0 -23 12l-103 158q-9 13 0 27l103 158q7 13 23 13h51q12 0 16 -7t-3 -17z" />
    <glyph glyph-name="guilsinglright" unicode="&#x203a;" horiz-adv-x="316" 
d="M259 246q9 -14 0 -27l-102 -158q-9 -12 -24 -12h-51q-12 0 -16 6.5t3 16.5l104 161l-104 160q-7 10 -3 17t16 7h51q15 0 24 -13z" />
    <glyph glyph-name="fraction" unicode="&#x2044;" horiz-adv-x="527" 
d="M29 0q-12 0 -16.5 7t2.5 17l422 663q8 13 23 13h39q11 0 15.5 -7t-2.5 -17l-422 -663q-8 -13 -23 -13h-38z" />
    <glyph glyph-name="uni2070" unicode="&#x2070;" horiz-adv-x="370" 
d="M185 327q-71 0 -111.5 50.5t-40.5 141.5t40.5 141t111.5 50t111.5 -50t40.5 -141t-40.5 -141.5t-111.5 -50.5zM185 392q37 0 59 32t22 95t-22 94.5t-59 31.5t-58.5 -31.5t-21.5 -94.5q0 -64 21.5 -95.5t58.5 -31.5z" />
    <glyph glyph-name="uni2074" unicode="&#x2074;" horiz-adv-x="342" 
d="M298 469q20 0 20 -19v-22q0 -19 -20 -19h-24v-56q0 -20 -20 -20h-26q-20 0 -20 20v56h-165q-19 0 -19 19v24q0 14 7 25l159 215q8 12 23 12h41q20 0 20 -20v-215h24zM96 469h112v151z" />
    <glyph glyph-name="uni2075" unicode="&#x2075;" horiz-adv-x="326" 
d="M174 577q57 0 91.5 -33.5t34.5 -89.5q0 -57 -37.5 -92t-99.5 -35q-49 0 -85 25q-37 28 -45 69q-5 20 18 20h30q15 0 21 -16q16 -36 61 -36q32 0 50 18t18 48q0 31 -18 48t-49 17t-53 -20q-13 -11 -24 -11h-33q-21 0 -18 21l23 175q3 19 21 19h180q19 0 19 -20v-23
q0 -19 -19 -19h-144l-11 -81q31 16 69 16z" />
    <glyph glyph-name="uni2076" unicode="&#x2076;" horiz-adv-x="342" 
d="M190 574q55 0 89.5 -33.5t34.5 -87.5q0 -57 -37 -91.5t-99 -34.5t-100 38q-45 45 -45 147q0 98 39 148t110 50q100 0 123 -84q5 -22 -18 -22h-29q-14 0 -23 16q-13 30 -54 30q-72 0 -79 -110q34 34 88 34zM176 385q31 0 50 18.5t19 49.5q0 30 -18.5 48t-47.5 18
q-30 0 -50 -19t-20 -47q0 -29 19 -48.5t48 -19.5z" />
    <glyph glyph-name="uni2077" unicode="&#x2077;" horiz-adv-x="288" 
d="M247 704q20 0 20 -20v-24q0 -14 -5 -24l-132 -288q-7 -15 -23 -15h-32q-25 0 -15 23l130 284h-149q-19 0 -19 20v24q0 20 19 20h206z" />
    <glyph glyph-name="uni2078" unicode="&#x2078;" horiz-adv-x="341" 
d="M170 327q-65 0 -102.5 29t-37.5 77q0 68 67 94q-57 25 -57 84q0 44 35 71.5t95 27.5q61 0 95.5 -27.5t34.5 -71.5q0 -59 -56 -84q66 -25 66 -94q0 -48 -37 -77t-103 -29zM170 552q29 0 45 13t16 36t-16 36.5t-45 13.5t-45 -13.5t-16 -36.5t16.5 -36t44.5 -13zM170 385
q33 0 51 15t18 39q0 25 -18 40t-51 15t-50.5 -15t-17.5 -40q0 -24 17.5 -39t50.5 -15z" />
    <glyph glyph-name="uni2079" unicode="&#x2079;" horiz-adv-x="343" 
d="M265 672q44 -44 44 -146q0 -199 -149 -199q-48 0 -80 23q-33 23 -43 61q-6 21 19 21h30q14 0 21 -15q17 -30 55 -30q71 0 78 107q-35 -32 -87 -32q-54 0 -89 33.5t-35 88.5q0 56 37 91t99 35t100 -38zM165 517q29 0 48.5 19t19.5 47q0 30 -18.5 49.5t-48.5 19.5t-49 -19
t-19 -49q0 -31 18.5 -49t48.5 -18z" />
    <glyph glyph-name="Euro" unicode="&#x20ac;" horiz-adv-x="655" 
d="M590 188q22 0 16 -26q-21 -83 -79.5 -127.5t-138.5 -44.5q-101 0 -169.5 68.5t-89.5 187.5h-65q-20 0 -20 19v23q0 19 20 19h57q-1 14 -1 43t1 43h-57q-20 0 -20 19v23q0 19 20 19h65q21 119 89.5 187.5t169.5 68.5q81 0 139.5 -45.5t78.5 -130.5q6 -22 -16 -22h-51
q-17 0 -21 18q-12 48 -46.5 73.5t-82.5 25.5q-63 0 -107 -44.5t-61 -130.5h217q20 0 20 -19v-23q0 -19 -20 -19h-225q-1 -14 -1 -43t1 -43h225q20 0 20 -19v-23q0 -19 -20 -19h-217q17 -86 61 -130.5t107 -44.5q48 0 82.5 25.5t46.5 73.5q4 18 21 18h51z" />
    <glyph glyph-name="uni2116" unicode="&#x2116;" horiz-adv-x="1224" 
d="M93 680q0 20 20 20h51q16 0 24 -12l399 -539h1v531q0 20 20 20h51q20 0 20 -20v-660q0 -20 -20 -20h-53q-16 0 -23 12l-398 538h-1v-530q0 -20 -20 -20h-51q-20 0 -20 20v660zM799 531q0 76 51 127.5t127 51.5t127 -51.5t51 -127.5t-51 -127t-127 -51t-127 51t-51 127z
M874 531q0 -50 29 -80q28 -30 74 -30t74.5 30t28.5 80t-28.5 80.5t-74.5 30.5t-74.5 -30.5t-28.5 -80.5zM812 203v40q0 20 20 20h290q20 0 20 -20v-40q0 -20 -20 -20h-290q-20 0 -20 20z" />
    <glyph glyph-name="trademark" unicode="&#x2122;" horiz-adv-x="791" 
d="M281 700q20 0 20 -20v-26q0 -19 -20 -19h-71v-233q0 -20 -20 -20h-30q-20 0 -20 20v233h-71q-20 0 -20 19v26q0 20 20 20h212zM702 700q20 0 20 -20v-278q0 -20 -20 -20h-28q-19 0 -19 20v195h-2l-83 -118q-8 -12 -23 -12h-11q-15 0 -24 12l-82 118h-2v-195
q0 -20 -20 -20h-28q-19 0 -19 20v278q0 20 19 20h40q14 0 24 -13l96 -139h2l97 139q10 13 24 13h39z" />
    <glyph glyph-name="uni2126" unicode="&#x2126;" horiz-adv-x="836" 
d="M103 0q-19 0 -19 20v45q0 20 19 20h127v2q-70 42 -108 115t-38 162q0 149 97 247.5t237 98.5t237.5 -98.5t97.5 -247.5q0 -89 -38 -162t-109 -115v-2h127q20 0 20 -20v-45q0 -20 -20 -20h-239q-20 0 -20 20v49q0 17 15 24q172 83 172 268q0 116 -68 190t-175 74t-175 -74
t-68 -190q0 -186 173 -268q14 -7 14 -24v-49q0 -20 -19 -20h-240z" />
    <glyph glyph-name="estimated" unicode="&#x212e;" horiz-adv-x="811" 
d="M406 0q-146 0 -246 97q-101 98 -101 253q0 76 27 142.5t74 112.5q101 95 246 95t245 -95q48 -46 75 -112.5t27 -142.5v-12h-584v-151q0 -66 45 -99q83 -62 192 -62q84 0 154 36.5t113 102.5l21 -16q-47 -71 -123 -110t-165 -39zM169 362h479v146q0 67 -43 101
q-86 65 -199 65q-109 0 -192 -62q-45 -33 -45 -100v-150z" />
    <glyph glyph-name="arrowleft" unicode="&#x2190;" horiz-adv-x="700" 
d="M639 393q20 0 20 -20v-46q0 -20 -20 -20h-468l149 -147q15 -13 0 -28l-28 -29q-14 -14 -28 0l-228 233q-14 14 0 28l228 233q14 14 28 0l28 -29q15 -15 0 -28l-149 -147h468z" />
    <glyph glyph-name="arrowup" unicode="&#x2191;" horiz-adv-x="700" 
d="M597 434q14 -14 0 -27l-29 -29q-15 -15 -28 0l-147 149v-468q0 -20 -20 -20h-46q-20 0 -20 20v468l-147 -149q-13 -15 -28 0l-29 29q-14 13 0 27l233 229q14 14 28 0z" />
    <glyph glyph-name="arrowright" unicode="&#x2192;" horiz-adv-x="700" 
d="M664 364q14 -14 0 -28l-228 -233q-14 -14 -28 0l-28 29q-15 15 0 28l149 147h-468q-20 0 -20 20v46q0 20 20 20h468l-149 147q-15 13 0 28l28 29q14 14 28 0z" />
    <glyph glyph-name="arrowdown" unicode="&#x2193;" horiz-adv-x="700" 
d="M597 298q14 -14 0 -27l-233 -229q-14 -14 -28 0l-233 229q-14 13 0 27l29 29q15 13 28 0l147 -150v469q0 19 20 19h46q20 0 20 -19v-469l147 150q13 13 28 0z" />
    <glyph glyph-name="uni2196" unicode="&#x2196;" horiz-adv-x="700" 
d="M589 172q14 -14 0 -28l-33 -33q-14 -14 -28 0l-331 331l1 -210q1 -9 -4.5 -14t-15.5 -5l-40 -1q-20 0 -20 20l3 327q0 19 20 19l327 4q19 0 19 -20v-41q0 -21 -20 -19l-210 1z" />
    <glyph glyph-name="uni2197" unicode="&#x2197;" horiz-adv-x="700" 
d="M579 559l3 -327q0 -20 -20 -20l-40 1q-10 0 -15.5 5t-4.5 14l1 210l-331 -331q-14 -14 -28 0l-33 33q-14 14 0 28l332 331l-210 -1q-20 -2 -20 19v41q0 20 19 20l327 -4q20 0 20 -19z" />
    <glyph glyph-name="uni2198" unicode="&#x2198;" horiz-adv-x="700" 
d="M562 488q20 0 20 -20l-3 -327q0 -19 -20 -19l-327 -4q-19 0 -19 20v41q0 21 20 19l210 -1l-332 331q-14 14 0 28l33 33q14 14 28 0l331 -331l-1 210q-1 9 4.5 14t15.5 5z" />
    <glyph glyph-name="uni2199" unicode="&#x2199;" horiz-adv-x="700" 
d="M589 556q14 -14 0 -28l-332 -331l210 1q20 2 20 -19v-41q0 -20 -19 -20l-327 4q-20 0 -20 19l-3 327q0 20 20 20l40 -1q10 0 15.5 -5t4.5 -14l-1 -210l331 331q14 14 28 0z" />
    <glyph glyph-name="partialdiff" unicode="&#x2202;" horiz-adv-x="659" 
d="M296 710q143 0 218.5 -97.5t75.5 -283.5q0 -185 -82 -269q-70 -70 -184 -70q-113 0 -184 67t-71 171q0 102 68 169t171 67q61 0 110.5 -25t78.5 -71h2q-7 139 -58 200.5t-146 61.5q-57 0 -115 -23q-24 -10 -24 15v41q0 15 15 23q58 24 125 24zM324 72q74 0 118.5 42.5
t44.5 113.5t-44.5 113t-118.5 42t-118.5 -42t-44.5 -113t44.5 -113.5t118.5 -42.5z" />
    <glyph glyph-name="uni2206" unicode="&#x2206;" horiz-adv-x="693" 
d="M76 0q-16 0 -23 13l-16 25q-7 13 -2 27l278 620q6 15 24 15h19q18 0 24 -15l278 -620q5 -14 -2 -27l-16 -25q-8 -13 -23 -13h-541zM131 80h431l-214 481h-3z" />
    <glyph glyph-name="product" unicode="&#x220f;" horiz-adv-x="709" 
d="M576 734q20 0 20 -20v-824q0 -20 -20 -20h-51q-19 0 -19 20v762h-303v-762q0 -20 -19 -20h-51q-20 0 -20 20v824q0 20 20 20h443z" />
    <glyph glyph-name="summation" unicode="&#x2211;" horiz-adv-x="555" 
d="M516 673q0 -20 -20 -20h-332l240 -337q11 -14 0 -28l-240 -337h332q20 0 20 -19v-42q0 -20 -20 -20h-417q-20 0 -20 20v47q0 12 8 25l242 340l-242 341q-8 11 -8 24v48q0 19 20 19h417q20 0 20 -19v-42z" />
    <glyph glyph-name="minus" unicode="&#x2212;" 
d="M99 278q-20 0 -20 19v40q0 19 20 19h402q20 0 20 -19v-40q0 -19 -20 -19h-402z" />
    <glyph glyph-name="radical" unicode="&#x221a;" horiz-adv-x="637" 
d="M590 734q22 0 17 -22l-238 -825q-3 -17 -22 -17h-57q-17 0 -23 16l-127 354h-91q-20 0 -20 19v41q0 20 20 20h137q16 0 22 -16l106 -304h2l203 717q4 17 23 17h48z" />
    <glyph glyph-name="infinity" unicode="&#x221e;" horiz-adv-x="755" 
d="M540 520q78 0 126.5 -50.5t48.5 -132.5q0 -81 -48.5 -131.5t-126.5 -50.5q-100 0 -162 102q-64 -102 -163 -102q-78 0 -126.5 50.5t-48.5 131.5q0 82 48.5 132.5t126.5 50.5q99 0 163 -102q62 102 162 102zM212 232q40 0 66.5 26.5t54.5 79.5q-28 52 -54.5 78.5
t-66.5 26.5t-64.5 -29t-24.5 -77t24.5 -76.5t64.5 -28.5zM543 232q40 0 64.5 28.5t24.5 76.5t-24.5 77t-64.5 29t-66.5 -26.5t-54.5 -78.5q28 -53 54.5 -79.5t66.5 -26.5z" />
    <glyph glyph-name="integral" unicode="&#x222b;" horiz-adv-x="406" 
d="M50 -130q-20 0 -20 20v41q0 20 20 20h48q60 0 60 57v597q0 69 32 99t103 30h63q20 0 20 -20v-41q0 -20 -20 -20h-48q-60 0 -60 -57v-597q0 -69 -32 -99t-103 -30h-63z" />
    <glyph glyph-name="approxequal" unicode="&#x2248;" 
d="M405 357q-37 0 -105 21t-105 21q-47 0 -92 -26q-11 -6 -17.5 -2.5t-6.5 15.5v36q0 15 13 24q48 31 105 31q35 0 104.5 -21t102.5 -21q49 0 94 25q23 13 23 -12v-36q0 -15 -14 -25q-49 -30 -102 -30zM405 156q-37 0 -105.5 21.5t-104.5 21.5q-47 0 -92 -27
q-11 -5 -17.5 -1.5t-6.5 14.5v37q0 16 13 23q47 32 105 32q35 0 104.5 -21.5t102.5 -21.5q47 0 94 26q23 13 23 -12v-37q0 -14 -14 -24q-51 -31 -102 -31z" />
    <glyph glyph-name="notequal" unicode="&#x2260;" 
d="M501 379h-135l-60 -124h195q20 0 20 -20v-38q0 -20 -20 -20h-232l-55 -115q-8 -15 -23 -15h-30q-11 0 -15 7t0 17l51 106h-98q-20 0 -20 20v38q0 20 20 20h135l60 124h-195q-20 0 -20 20v38q0 19 20 19h231l56 116q8 14 23 14h30q11 0 15 -6.5t0 -16.5l-51 -107h98
q20 0 20 -19v-38q0 -20 -20 -20z" />
    <glyph glyph-name="lessequal" unicode="&#x2264;" 
d="M498 149l-403 158q-16 6 -16 23v51q0 16 16 22l403 159q23 8 23 -16v-46q0 -16 -16 -22l-323 -122v-2l323 -121q16 -6 16 -23v-45q0 -24 -23 -16zM99 0q-20 0 -20 20v39q0 20 20 20h402q20 0 20 -20v-39q0 -20 -20 -20h-402z" />
    <glyph glyph-name="greaterequal" unicode="&#x2265;" 
d="M102 149q-23 -8 -23 16v45q0 17 16 23l323 121v2l-323 122q-16 6 -16 22v46q0 24 23 16l403 -159q16 -6 16 -22v-51q0 -17 -16 -23zM99 0q-20 0 -20 20v39q0 20 20 20h402q20 0 20 -20v-39q0 -20 -20 -20h-402z" />
    <glyph glyph-name="filledbox" unicode="&#x25a0;" horiz-adv-x="900" 
d="M115 0q-15 0 -15 15v670q0 15 15 15h670q15 0 15 -15v-670q0 -15 -15 -15h-670z" />
    <glyph glyph-name="triagup" unicode="&#x25b2;" horiz-adv-x="900" 
d="M120 0q-19 0 -11 18l331 662q4 8 10 8t10 -8l331 -662q8 -18 -11 -18h-660z" />
    <glyph glyph-name="triagdn" unicode="&#x25bc;" horiz-adv-x="900" 
d="M440 20l-331 662q-8 18 11 18h660q19 0 11 -18l-331 -662q-4 -8 -10 -8t-10 8z" />
    <glyph glyph-name="uni25C6" unicode="&#x25c6;" horiz-adv-x="900" 
d="M438 11l-327 327q-11 11 0 22l327 329q11 11 22 0l329 -329q11 -11 0 -22l-329 -327q-11 -11 -22 0z" />
    <glyph glyph-name="lozenge" unicode="&#x25ca;" horiz-adv-x="636" 
d="M597 364q10 -14 0 -28l-237 -324q-7 -12 -23 -12h-37q-16 0 -24 12l-237 324q-10 14 0 28l237 324q8 12 24 12h37q16 0 23 -12zM319 92l188 258l-188 258h-2l-187 -258l187 -258h2z" />
    <glyph glyph-name="uni25CF" unicode="&#x25cf;" horiz-adv-x="900" 
d="M450 0q-145 0 -247.5 102.5t-102.5 247.5t102.5 247.5t247.5 102.5t247.5 -102.5t102.5 -247.5t-102.5 -247.5t-247.5 -102.5z" />
    <glyph glyph-name="uni2610" unicode="&#x2610;" horiz-adv-x="900" 
d="M120 0q-20 0 -20 20v660q0 20 20 20h660q20 0 20 -20v-660q0 -20 -20 -20h-660zM176 71h548v558h-548v-558z" />
    <glyph glyph-name="uni2611" unicode="&#x2611;" horiz-adv-x="900" 
d="M780 700q20 0 20 -20v-660q0 -20 -20 -20h-660q-20 0 -20 20v660q0 20 20 20h660zM724 71v558h-548v-558h548zM277 221q-15 10 -6 26l21 38q10 19 27 8l74 -42l168 292q10 18 28 8l34 -20q16 -11 7 -27l-201 -348q-9 -17 -27 -7z" />
    <glyph glyph-name="uni2612" unicode="&#x2612;" horiz-adv-x="900" 
d="M120 0q-20 0 -20 20v660q0 20 20 20h660q20 0 20 -20v-660q0 -20 -20 -20h-660zM176 71h548v558h-548v-558zM284 159l-26 26q-14 13 0 27l138 138l-138 138q-14 14 0 27l26 26q14 14 27 0l138 -138l138 138q13 13 27 0l26 -26q14 -13 0 -27l-138 -138l138 -138
q14 -14 0 -27l-26 -26q-14 -13 -27 0l-138 138l-138 -138q-13 -14 -27 0z" />
    <glyph glyph-name="heart" unicode="&#x2665;" horiz-adv-x="900" 
d="M439 58q-35 33 -85.5 68.5t-87 60.5t-71 56.5t-53 72.5t-18.5 93q0 93 53.5 145t123.5 52q58 0 100.5 -36t47.5 -100h2q5 64 47.5 100t100.5 36q70 0 123.5 -52t53.5 -145q0 -52 -18.5 -93t-53 -72.5t-71 -56.5t-87 -60.5t-85.5 -68.5q-11 -9 -22 0z" />
    <glyph glyph-name="uni2B51" unicode="&#x2b51;" horiz-adv-x="900" 
d="M243 15q-9 -7 -13.5 -3t-1.5 15l79 242l-204 148q-9 7 -7 12.5t13 5.5h253l77 240q2 7 6 9.5t8 0t6 -9.5l77 -241h255q11 0 13 -5.5t-7 -12.5l-206 -149l78 -240q3 -10 -2 -14t-13 2l-205 150z" />
    <glyph glyph-name="currency_acutecomb" horiz-adv-x="632" 
d="M57 232v66q0 20 20 20h52q19 0 19 -20v-54q0 -168 154 -168q155 0 155 168v372h-280q-19 0 -19 20v44q0 20 19 20h351q20 0 20 -20v-444q0 -117 -64 -181.5t-182 -64.5q-115 0 -180 62.5t-65 179.5zM302 796l78 112q10 13 23 13h62q13 0 15 -4.5t2 -6.5q0 -6 -6 -13
l-90 -113q-9 -12 -24 -12h-47q-12 0 -14.5 5t-2.5 7q0 6 4 12z" />
    <glyph glyph-name="G.ss01" horiz-adv-x="819" 
d="M161 607q101 103 257 103q117 0 205.5 -59t116.5 -156q1 -4 1 -7q0 -5 -3.5 -10t-14.5 -5h-57q-17 0 -23 17q-21 61 -82 97.5t-143 36.5q-119 0 -192 -77t-73 -197q0 -123 73.5 -198.5t187.5 -75.5q104 0 174 62t77 165h-209q-20 0 -20 19v42q0 19 20 19h272q20 0 20 -19
v-344q0 -20 -20 -20h-46q-20 0 -20 20v90h-3q-87 -120 -250 -120q-153 0 -251.5 102.5t-98.5 257.5q0 154 102 257z" />
    <glyph glyph-name="Gbreve.ss01" horiz-adv-x="818" 
d="M161 607q101 103 257 103q117 0 205.5 -59t116.5 -156q1 -4 1 -7q0 -5 -3.5 -10t-14.5 -5h-57q-17 0 -23 17q-21 61 -82 97.5t-143 36.5q-119 0 -192 -77t-73 -197q0 -123 73.5 -198.5t187.5 -75.5q104 0 174 62t77 165h-209q-20 0 -20 19v42q0 19 20 19h272q20 0 20 -19
v-344q0 -20 -20 -20h-46q-20 0 -20 20v90h-3q-87 -120 -250 -120q-153 0 -251.5 102.5t-98.5 257.5q0 154 102 257zM288 913h37q18 0 21 -19q11 -60 72 -60q62 0 73 60q3 19 21 19h37q20 0 20 -20q0 -51 -41 -86q-42 -35 -110 -35t-109 35t-41 86q0 20 20 20z" />
    <glyph glyph-name="Gcaron.ss01" horiz-adv-x="818" 
d="M161 607q101 103 257 103q117 0 205.5 -59t116.5 -156q1 -4 1 -7q0 -5 -3.5 -10t-14.5 -5h-57q-17 0 -23 17q-21 61 -82 97.5t-143 36.5q-119 0 -192 -77t-73 -197q0 -123 73.5 -198.5t187.5 -75.5q104 0 174 62t77 165h-209q-20 0 -20 19v42q0 19 20 19h272q20 0 20 -19
v-344q0 -20 -20 -20h-46q-20 0 -20 20v90h-3q-87 -120 -250 -120q-153 0 -251.5 102.5t-98.5 257.5q0 154 102 257zM260 914q3 7 16 7h44q14 0 24 -11l73 -83h2l74 83q8 11 24 11h44q13 0 15 -5t2 -7q0 -6 -6 -13l-102 -113q-10 -10 -25 -10h-54q-14 0 -24 10l-102 113
q-6 7 -6 13q0 3 1 5z" />
    <glyph glyph-name="Gcircumflex.ss01" horiz-adv-x="818" 
d="M161 607q101 103 257 103q117 0 205.5 -59t116.5 -156q1 -4 1 -7q0 -5 -3.5 -10t-14.5 -5h-57q-17 0 -23 17q-21 61 -82 97.5t-143 36.5q-119 0 -192 -77t-73 -197q0 -123 73.5 -198.5t187.5 -75.5q104 0 174 62t77 165h-209q-20 0 -20 19v42q0 19 20 19h272q20 0 20 -19
v-344q0 -20 -20 -20h-46q-20 0 -20 20v90h-3q-87 -120 -250 -120q-153 0 -251.5 102.5t-98.5 257.5q0 154 102 257zM265 797l102 113q11 11 24 11h54q14 0 25 -11l102 -113q6 -7 6 -13q0 -2 -2 -6.5t-15 -4.5h-44q-15 0 -24 10l-74 84h-2l-73 -84q-10 -10 -24 -10h-44
q-13 0 -15 4.5t-2 6.5q0 6 6 13z" />
    <glyph glyph-name="uni0122.ss01" horiz-adv-x="818" 
d="M161 607q101 103 257 103q117 0 205.5 -59t116.5 -156q1 -4 1 -7q0 -5 -3.5 -10t-14.5 -5h-57q-17 0 -23 17q-21 61 -82 97.5t-143 36.5q-119 0 -192 -77t-73 -197q0 -123 73.5 -198.5t187.5 -75.5q104 0 174 62t77 165h-209q-20 0 -20 19v42q0 19 20 19h272q20 0 20 -19
v-344q0 -20 -20 -20h-46q-20 0 -20 20v90h-3q-87 -120 -250 -120q-153 0 -251.5 102.5t-98.5 257.5q0 154 102 257zM351 -231l15 127q2 19 21 19h51q18 0 18 -15q0 -3 -1 -7l-33 -128q-5 -17 -21 -17h-32q-18 0 -18 16v5z" />
    <glyph glyph-name="Gdotaccent.ss01" horiz-adv-x="818" 
d="M161 607q101 103 257 103q117 0 205.5 -59t116.5 -156q1 -4 1 -7q0 -5 -3.5 -10t-14.5 -5h-57q-17 0 -23 17q-21 61 -82 97.5t-143 36.5q-119 0 -192 -77t-73 -197q0 -123 73.5 -198.5t187.5 -75.5q104 0 174 62t77 165h-209q-20 0 -20 19v42q0 19 20 19h272q20 0 20 -19
v-344q0 -20 -20 -20h-46q-20 0 -20 20v90h-3q-87 -120 -250 -120q-153 0 -251.5 102.5t-98.5 257.5q0 154 102 257zM357 850q0 26 17.5 43.5t43.5 17.5q27 0 44.5 -17.5t17.5 -43.5q0 -27 -17.5 -44.5t-44.5 -17.5q-26 0 -43.5 17.5t-17.5 44.5z" />
    <glyph glyph-name="uni1E20.ss01" horiz-adv-x="818" 
d="M161 607q101 103 257 103q117 0 205.5 -59t116.5 -156q1 -4 1 -7q0 -5 -3.5 -10t-14.5 -5h-57q-17 0 -23 17q-21 61 -82 97.5t-143 36.5q-119 0 -192 -77t-73 -197q0 -123 73.5 -198.5t187.5 -75.5q104 0 174 62t77 165h-209q-20 0 -20 19v42q0 19 20 19h272q20 0 20 -19
v-344q0 -20 -20 -20h-46q-20 0 -20 20v90h-3q-87 -120 -250 -120q-153 0 -251.5 102.5t-98.5 257.5q0 154 102 257zM270 851q0 20 20 20h257q19 0 19 -20v-32q0 -20 -19 -20h-257q-20 0 -20 20v32z" />
    <glyph glyph-name="i.loclTRK" horiz-adv-x="242" 
d="M78 446q0 20 20 20h46q20 0 20 -20v-426q0 -20 -20 -20h-46q-20 0 -20 20v426zM59 615q0 27 17.5 44.5t44.5 17.5t44.5 -17.5t17.5 -44.5q0 -26 -17 -44q-18 -18 -45 -18t-44.5 18t-17.5 44z" />
    <glyph glyph-name="j_acutecomb" horiz-adv-x="242" 
d="M-58 -199v37q0 17 16 17h5q18 -2 27 -2q47 0 67.5 23t20.5 80v490q0 20 20 20h46q20 0 20 -20v-492q0 -180 -156 -180q-26 0 -49 5q-17 4 -17 22zM65 562l63 111q8 14 24 14h53q12 0 14.5 -5t2.5 -8q0 -5 -4 -11l-69 -112q-8 -13 -24 -13h-46q-11 0 -14 5t-3 9t3 10z" />
    <glyph glyph-name="y.ss02" horiz-adv-x="525" 
d="M29 460q3 6 14 6h49q18 0 23 -15l147 -345h2l146 345q6 15 23 15h49q18 0 18 -12q0 -4 -3 -11l-286 -644q-6 -15 -24 -15h-48q-18 0 -18 12q0 4 3 11l94 208l-189 428q-2 5 -2 10q0 4 2 7z" />
    <glyph glyph-name="yacute.ss02" horiz-adv-x="525" 
d="M29 460q3 6 14 6h49q18 0 23 -15l147 -345h2l146 345q6 15 23 15h49q18 0 18 -12q0 -4 -3 -11l-286 -644q-6 -15 -24 -15h-48q-18 0 -18 12q0 4 3 11l94 208l-189 428q-2 5 -2 10q0 4 2 7zM204 562l78 112q10 13 23 13h62q13 0 15 -4.5t2 -6.5q0 -6 -6 -13l-90 -113
q-9 -12 -24 -12h-47q-12 0 -14.5 5t-2.5 7q0 6 4 12z" />
    <glyph glyph-name="ycircumflex.ss02" horiz-adv-x="525" 
d="M29 460q3 6 14 6h49q18 0 23 -15l147 -345h2l146 345q6 15 23 15h49q18 0 18 -12q0 -4 -3 -11l-286 -644q-6 -15 -24 -15h-48q-18 0 -18 12q0 4 3 11l94 208l-189 428q-2 5 -2 10q0 4 2 7zM111 563l101 113q11 11 25 11h54q14 0 25 -11l101 -113q6 -7 6 -13q0 -2 -2 -7
t-14 -5h-44q-15 0 -25 11l-73 84h-2l-73 -84q-10 -11 -25 -11h-43q-13 0 -15 5t-2 7q0 6 6 13z" />
    <glyph glyph-name="ydieresis.ss02" horiz-adv-x="525" 
d="M29 460q3 6 14 6h49q18 0 23 -15l147 -345h2l146 345q6 15 23 15h49q18 0 18 -12q0 -4 -3 -11l-286 -644q-6 -15 -24 -15h-48q-18 0 -18 12q0 4 3 11l94 208l-189 428q-2 5 -2 10q0 4 2 7zM115 659q17 17 43 17q27 0 44 -17.5t17 -43.5q0 -27 -17 -44.5t-44 -17.5
q-26 0 -43.5 17.5t-17.5 44.5q0 26 18 44zM309 615q0 26 17 43.5t44 17.5q26 0 43.5 -17.5t17.5 -43.5q0 -27 -17.5 -44.5t-43.5 -17.5q-27 0 -44 17.5t-17 44.5z" />
    <glyph glyph-name="ygrave.ss02" horiz-adv-x="525" 
d="M29 460q3 6 14 6h49q18 0 23 -15l147 -345h2l146 345q6 15 23 15h49q18 0 18 -12q0 -4 -3 -11l-286 -644q-6 -15 -24 -15h-48q-18 0 -18 12q0 4 3 11l94 208l-189 428q-2 5 -2 10q0 4 2 7zM137 680q3 7 16 7h62q15 0 23 -13l78 -112q4 -6 4 -12q0 -2 -2.5 -7t-14.5 -5
h-47q-14 0 -23 12l-91 113q-6 7 -6 13q0 2 1 4z" />
    <glyph glyph-name="f_f.dlig" horiz-adv-x="716" 
d="M690 702q16 -4 16 -21v-35q0 -22 -21 -17q-21 4 -44 4q-56 0 -80.5 -28t-24.5 -96v-43h144q20 0 20 -20v-34q0 -20 -20 -20h-144v-372q0 -20 -19 -20h-47q-20 0 -20 20v372h-236v-372q0 -20 -20 -20h-47q-19 0 -19 20v372h-88q-19 0 -19 20v34q0 20 19 20h88v41
q0 204 176 204q36 0 64 -9q16 -4 16 -21v-35q0 -22 -22 -17q-20 4 -43 4q-56 0 -80.5 -28t-24.5 -96v-43h236v41q0 204 177 204q36 0 63 -9z" />
    <glyph glyph-name="t_t.dlig" horiz-adv-x="780" 
d="M37 466h89v110q0 20 20 20h47q19 0 19 -20v-110h260v110q0 20 19 20h47q20 0 20 -20v-110h163q19 0 19 -20v-34q0 -20 -19 -20h-163v-226q0 -54 22.5 -76.5t72.5 -22.5q39 0 71 12q6 3 11 3q11 0 11 -17v-36q0 -15 -14 -22q-42 -17 -93 -17q-167 0 -167 172v230h-260
v-226q0 -54 23 -76.5t73 -22.5q39 0 70 12q7 3 12 3q11 0 11 -17v-36q0 -15 -15 -22q-41 -17 -93 -17q-167 0 -167 172v230h-89q-19 0 -19 20v34q0 20 19 20z" />
    <glyph glyph-name="zero.lf" horiz-adv-x="673" 
d="M336 -10q-125 0 -201 96.5t-76 263.5t76 263.5t201 96.5t201.5 -96.5t76.5 -263.5t-76.5 -263.5t-201.5 -96.5zM336 72q89 0 137.5 71t48.5 207t-48.5 207t-137.5 71t-137 -71t-48 -207t48 -207t137 -71z" />
    <glyph glyph-name="one.lf" horiz-adv-x="387" 
d="M264 700q20 0 20 -20v-660q0 -20 -20 -20h-49q-19 0 -19 20v581l-128 -73q-10 -6 -17 -2t-7 15v46q0 16 14 24l142 82q11 7 25 7h39z" />
    <glyph glyph-name="two.lf" horiz-adv-x="576" 
d="M507 83q19 0 19 -19v-44q0 -20 -19 -20h-434q-19 0 -19 20v29q0 79 41 140.5t137 115.5l70 40q69 39 100 79t31 86q0 53 -36 85.5t-98 32.5q-63 0 -102.5 -35.5t-46.5 -96.5q-2 -20 -20 -20h-53q-21 0 -19 20q8 99 72.5 156.5t166.5 57.5q101 0 164 -55.5t63 -146.5
q0 -66 -38 -119t-124 -102l-70 -40q-79 -45 -110.5 -81.5t-33.5 -82.5h359z" />
    <glyph glyph-name="three.lf" horiz-adv-x="593" 
d="M298 -10q-106 0 -172 55t-74 151q-2 21 19 21h52q18 0 21 -19q8 -60 48.5 -93t106.5 -33q69 0 111 34.5t42 88.5q0 55 -43.5 87.5t-119.5 32.5h-24q-20 0 -20 20v42q0 20 20 20h20q71 0 112 33t41 86q0 51 -38 81.5t-101 30.5t-101 -33.5t-45 -93.5q-2 -19 -20 -19h-52
q-21 0 -20 21q8 97 72 152t167 55t166.5 -54t63.5 -138q0 -59 -32 -101t-93 -58v-2q65 -12 102.5 -56t37.5 -108q0 -87 -67.5 -145t-179.5 -58z" />
    <glyph glyph-name="four.lf" horiz-adv-x="612" 
d="M563 236q19 0 19 -20v-40q0 -19 -19 -19h-82v-137q0 -20 -20 -20h-47q-19 0 -19 20v137h-346q-19 0 -19 19v39q0 14 8 25l335 448q8 12 23 12h65q20 0 20 -20v-444h82zM129 236h266v354h-2z" />
    <glyph glyph-name="five.lf" horiz-adv-x="603" 
d="M326 465q102 0 167 -63.5t65 -165.5q0 -108 -71 -177t-183 -69q-99 0 -167.5 53t-79.5 138q-3 21 19 21h52q17 0 20 -19q11 -49 54 -80t102 -31q71 0 117 46.5t46 119.5q0 67 -40.5 108t-107.5 41q-91 0 -147 -64q-9 -12 -23 -12h-61q-21 0 -18 21l45 349q3 19 21 19h363
q20 0 20 -20v-43q0 -19 -20 -19h-308l-28 -212q65 59 163 59z" />
    <glyph glyph-name="six.lf" horiz-adv-x="624" 
d="M341 464q103 0 171 -67t68 -169q0 -104 -71 -171t-184 -67q-114 0 -184 70q-82 84 -82 269q0 182 74 281.5t206 99.5q86 0 144.5 -41t75.5 -111q2 -10 -3 -15.5t-15 -5.5h-52q-16 0 -22 16q-24 75 -127 75q-177 0 -190 -260h2q29 46 78.5 71t110.5 25zM325 72
q74 0 118.5 42.5t44.5 113.5t-44.5 113t-118.5 42t-118.5 -42t-44.5 -113t44.5 -113.5t118.5 -42.5z" />
    <glyph glyph-name="seven.lf" horiz-adv-x="542" 
d="M488 700q20 0 20 -20v-44q0 -14 -6 -24l-282 -597q-7 -15 -22 -15h-52q-11 0 -14.5 7t0.5 17l280 592h-358q-20 0 -20 20v44q0 20 20 20h434z" />
    <glyph glyph-name="eight.lf" horiz-adv-x="631" 
d="M316 -10q-120 0 -191.5 57.5t-71.5 145.5q0 59 34 105t100 67v2q-55 20 -84 61.5t-29 95.5q0 81 64 133.5t178 52.5q113 0 177 -53t64 -133q0 -54 -29 -95.5t-84 -61.5v-2q66 -21 100.5 -67t34.5 -105q0 -88 -71.5 -145.5t-191.5 -57.5zM316 398q72 0 111.5 32.5
t39.5 84.5t-39.5 84t-111.5 32t-112 -32t-40 -84t40 -84.5t112 -32.5zM316 72q79 0 124.5 35t45.5 92t-45 91.5t-125 34.5t-125.5 -34.5t-45.5 -91.5t45.5 -92t125.5 -35z" />
    <glyph glyph-name="nine.lf" horiz-adv-x="623" 
d="M485 637q80 -86 80 -268q0 -179 -73.5 -279t-206.5 -100q-87 0 -146 41t-76 111q-3 21 18 21h53q14 0 22 -16q22 -75 128 -75q180 0 191 263h-3q-27 -44 -78 -69.5t-112 -25.5q-101 0 -167 66t-66 167q0 103 70.5 170t182.5 67q116 0 183 -73zM298 320q74 0 119 42.5
t45 112.5q0 68 -44.5 110.5t-116.5 42.5t-116.5 -43t-44.5 -113q0 -68 43.5 -110t114.5 -42z" />
    <glyph glyph-name="zero.tf" horiz-adv-x="650" 
d="M325 -10q-125 0 -201.5 96.5t-76.5 263.5t76.5 263.5t201.5 96.5t201.5 -96.5t76.5 -263.5t-76.5 -263.5t-201.5 -96.5zM325 72q89 0 137 71t48 207t-48 207t-137 71t-137 -71t-48 -207t48 -207t137 -71z" />
    <glyph glyph-name="one.tf" horiz-adv-x="650" 
d="M389 700q19 0 19 -20v-660q0 -20 -19 -20h-49q-20 0 -20 20v581l-128 -73q-10 -6 -17 -2t-7 15v46q0 16 14 24l142 82q11 7 25 7h40z" />
    <glyph glyph-name="two.tf" horiz-adv-x="650" 
d="M546 83q20 0 20 -19v-44q0 -20 -20 -20h-433q-20 0 -20 20v29q0 79 41.5 140.5t137.5 115.5l70 40q69 39 100 79t31 86q0 53 -36 85.5t-98 32.5q-63 0 -103 -35.5t-46 -96.5q-2 -20 -20 -20h-53q-22 0 -20 20q9 99 73.5 156.5t166.5 57.5q101 0 164 -55.5t63 -146.5
q0 -66 -38 -119t-124 -102l-71 -40q-79 -45 -110.5 -81.5t-33.5 -82.5h359z" />
    <glyph glyph-name="three.tf" horiz-adv-x="650" 
d="M330 -10q-107 0 -172.5 55t-73.5 151q-2 21 19 21h52q18 0 21 -19q8 -60 48.5 -93t106.5 -33q69 0 111 34.5t42 88.5q0 55 -43.5 87.5t-120.5 32.5h-23q-20 0 -20 20v42q0 20 20 20h19q71 0 112.5 33t41.5 86q0 50 -38 81t-101 31t-101 -33.5t-46 -93.5q-2 -19 -19 -19
h-52q-21 0 -20 21q8 97 72 152t167 55t166 -54t63 -138q0 -59 -32 -101t-92 -58v-2q65 -12 102 -56t37 -108q0 -87 -67.5 -145t-178.5 -58z" />
    <glyph glyph-name="four.tf" horiz-adv-x="650" 
d="M579 236q20 0 20 -20v-40q0 -19 -20 -19h-82v-137q0 -20 -20 -20h-46q-20 0 -20 20v137h-345q-20 0 -20 19v39q0 14 8 25l335 448q8 12 24 12h64q20 0 20 -20v-444h82zM145 236h266v354h-2z" />
    <glyph glyph-name="five.tf" horiz-adv-x="650" 
d="M353 465q102 0 167 -63.5t65 -165.5q0 -108 -71 -177t-183 -69q-98 0 -167 53t-79 138q-3 21 18 21h52q18 0 21 -19q10 -49 53 -80t102 -31q71 0 117 46.5t46 119.5q0 68 -40.5 108.5t-107.5 40.5q-90 0 -146 -64q-10 -12 -24 -12h-61q-21 0 -18 21l45 349q3 19 21 19
h363q20 0 20 -20v-43q0 -19 -20 -19h-307l-28 -211q66 58 162 58z" />
    <glyph glyph-name="six.tf" horiz-adv-x="650" 
d="M351 464q103 0 171 -67t68 -169q0 -104 -71 -171t-184 -67q-115 0 -185 70q-81 84 -81 269q0 182 74 281.5t206 99.5q86 0 144.5 -41t75.5 -111q2 -10 -3 -15.5t-15 -5.5h-52q-16 0 -22 16q-24 75 -128 75q-176 0 -189 -260h2q29 46 78.5 71t110.5 25zM335 72
q74 0 118.5 42.5t44.5 113.5t-44.5 113t-118.5 42t-118.5 -42t-44.5 -113t44.5 -113.5t118.5 -42.5z" />
    <glyph glyph-name="seven.tf" horiz-adv-x="650" 
d="M549 700q19 0 19 -20v-44q0 -14 -6 -24l-281 -597q-7 -15 -22 -15h-52q-24 0 -15 24l281 592h-358q-20 0 -20 20v44q0 20 20 20h434z" />
    <glyph glyph-name="eight.tf" horiz-adv-x="650" 
d="M325 -10q-120 0 -191.5 57.5t-71.5 145.5q0 59 34.5 105t100.5 67v2q-56 20 -84.5 61.5t-28.5 95.5q0 81 63.5 133.5t177.5 52.5t177.5 -52.5t63.5 -133.5q0 -54 -28.5 -95.5t-84.5 -61.5v-2q66 -21 100.5 -67t34.5 -105q0 -88 -71.5 -145.5t-191.5 -57.5zM325 398
q72 0 111.5 32.5t39.5 84.5t-39.5 84t-111.5 32t-111.5 -32t-39.5 -84t39.5 -84.5t111.5 -32.5zM325 72q80 0 125.5 35t45.5 92t-45.5 91.5t-125.5 34.5t-125.5 -34.5t-45.5 -91.5t45.5 -92t125.5 -35z" />
    <glyph glyph-name="nine.tf" horiz-adv-x="650" 
d="M505 637q80 -86 80 -268q0 -179 -73.5 -279t-206.5 -100q-87 0 -145.5 41t-75.5 111q-2 9 3 15t14 6h53q16 0 22 -16q22 -75 128 -75q180 0 191 263h-3q-27 -44 -78 -69.5t-112 -25.5q-101 0 -167 66t-66 167q0 103 70.5 170t182.5 67q116 0 183 -73zM318 320
q74 0 119.5 42.5t45.5 112.5q0 68 -45 110.5t-117 42.5t-116.5 -43t-44.5 -113q0 -68 43.5 -110t114.5 -42z" />
    <glyph glyph-name="zero.subs" horiz-adv-x="370" 
d="M185 -60q-71 0 -111.5 50.5t-40.5 141.5t40.5 141t111.5 50t111.5 -50t40.5 -141t-40.5 -141.5t-111.5 -50.5zM185 5q37 0 59 32t22 95t-22 94.5t-59 31.5t-58.5 -31.5t-21.5 -94.5q0 -64 21.5 -95.5t58.5 -31.5z" />
    <glyph glyph-name="one.subs" horiz-adv-x="232" 
d="M160 317q20 0 20 -20v-331q0 -20 -20 -20h-30q-20 0 -20 20v277l-59 -33q-10 -6 -17 -2t-7 16v27q0 16 14 24l62 35q11 7 25 7h32z" />
    <glyph glyph-name="two.subs" horiz-adv-x="319" 
d="M269 9q19 0 19 -20v-23q0 -20 -19 -20h-218q-20 0 -20 20v9q0 60 18 93t76 61l45 22q30 15 41 28.5t11 31.5q0 23 -15 35.5t-41 12.5q-51 0 -61 -47q-3 -19 -21 -19h-32q-22 0 -20 21q6 51 40 80t93 29t92.5 -29.5t33.5 -81.5q0 -39 -21 -64.5t-67 -48.5l-44 -22
q-31 -15 -43 -28.5t-14 -39.5h167z" />
    <glyph glyph-name="three.subs" horiz-adv-x="326" 
d="M229 136q68 -21 68 -90q0 -48 -35 -77t-99 -29q-58 0 -92 27q-33 27 -40 72q-3 21 19 21h32q15 0 21 -18q11 -38 61 -38q29 0 45.5 14t16.5 38q0 47 -63 47h-12q-20 0 -20 20v23q0 20 20 20h9q29 0 45 13t16 35q0 21 -15 33t-41 12q-49 0 -59 -39q-4 -18 -21 -18h-32
q-22 0 -19 21q7 40 37 69q34 31 93 31t93 -27t34 -72q0 -65 -62 -88z" />
    <glyph glyph-name="four.subs" horiz-adv-x="342" 
d="M298 82q20 0 20 -19v-22q0 -19 -20 -19h-24v-56q0 -20 -20 -20h-26q-20 0 -20 20v56h-165q-19 0 -19 19v24q0 14 7 25l159 215q8 12 23 12h41q20 0 20 -20v-215h24zM96 82h112v151z" />
    <glyph glyph-name="five.subs" horiz-adv-x="326" 
d="M174 190q57 0 91.5 -33.5t34.5 -89.5q0 -57 -37.5 -92t-99.5 -35q-49 0 -85 25q-37 28 -45 69q-5 20 18 20h30q15 0 21 -16q16 -36 61 -36q32 0 50 18t18 48q0 31 -18 48t-49 17t-53 -20q-13 -11 -24 -11h-33q-21 0 -18 21l23 175q3 19 21 19h180q19 0 19 -20v-23
q0 -19 -19 -19h-144l-11 -81q31 16 69 16z" />
    <glyph glyph-name="six.subs" horiz-adv-x="342" 
d="M190 187q55 0 89.5 -33.5t34.5 -87.5q0 -57 -37 -91.5t-99 -34.5t-100 38q-45 45 -45 147q0 98 39 148t110 50q100 0 123 -84q5 -22 -18 -22h-29q-14 0 -23 16q-13 30 -54 30q-72 0 -79 -110q34 34 88 34zM176 -2q31 0 50 18.5t19 49.5q0 30 -18.5 48t-47.5 18
q-30 0 -50 -19t-20 -47q0 -29 19 -48.5t48 -19.5z" />
    <glyph glyph-name="seven.subs" horiz-adv-x="288" 
d="M247 317q20 0 20 -20v-24q0 -14 -5 -24l-132 -288q-7 -15 -23 -15h-32q-25 0 -15 23l130 284h-149q-19 0 -19 20v24q0 20 19 20h206z" />
    <glyph glyph-name="eight.subs" horiz-adv-x="341" 
d="M170 -60q-65 0 -102.5 29t-37.5 77q0 68 67 94q-57 25 -57 84q0 44 35 71.5t95 27.5q61 0 95.5 -27.5t34.5 -71.5q0 -59 -56 -84q66 -26 66 -94q0 -48 -37 -77t-103 -29zM170 165q29 0 45 13t16 36t-16 36.5t-45 13.5t-45 -13.5t-16 -36.5t16.5 -36t44.5 -13zM170 -2
q33 0 51 15t18 39q0 25 -18 40t-51 15t-50.5 -15t-17.5 -40q0 -24 17.5 -39t50.5 -15z" />
    <glyph glyph-name="nine.subs" horiz-adv-x="343" 
d="M265 285q44 -44 44 -146q0 -199 -149 -199q-48 0 -80 23q-33 23 -43 61q-6 21 19 21h30q14 0 21 -15q17 -30 55 -30q71 0 78 107q-35 -32 -87 -32q-54 0 -89 33.5t-35 88.5q0 56 37 91t99 35t100 -38zM165 130q29 0 48.5 19t19.5 47q0 30 -18.5 49.5t-48.5 19.5t-49 -19
t-19 -49q0 -31 18.5 -49t48.5 -18z" />
    <glyph glyph-name="zero.dnom" horiz-adv-x="370" 
d="M185 -10q-71 0 -111.5 50.5t-40.5 141.5t40.5 141t111.5 50t111.5 -50t40.5 -141t-40.5 -141.5t-111.5 -50.5zM185 55q37 0 59 32t22 95t-22 94.5t-59 31.5t-58.5 -31.5t-21.5 -94.5q0 -64 21.5 -95.5t58.5 -31.5z" />
    <glyph glyph-name="one.dnom" horiz-adv-x="232" 
d="M160 367q20 0 20 -20v-331q0 -20 -20 -20h-30q-20 0 -20 20v277l-59 -33q-10 -6 -17 -2t-7 16v27q0 16 14 24l62 35q11 7 25 7h32z" />
    <glyph glyph-name="two.dnom" horiz-adv-x="319" 
d="M269 59q19 0 19 -20v-23q0 -20 -19 -20h-218q-20 0 -20 20v9q0 60 18 93t76 61l45 22q30 15 41 28.5t11 31.5q0 23 -15 35.5t-41 12.5q-51 0 -61 -47q-3 -19 -21 -19h-32q-22 0 -20 21q6 51 40 80t93 29t92.5 -29.5t33.5 -81.5q0 -39 -21 -64.5t-67 -48.5l-44 -22
q-31 -15 -43 -28.5t-14 -39.5h167z" />
    <glyph glyph-name="three.dnom" horiz-adv-x="326" 
d="M229 186q68 -21 68 -90q0 -48 -35 -77t-99 -29q-58 0 -92 27q-33 27 -40 72q-3 21 19 21h32q15 0 21 -18q11 -38 61 -38q29 0 45.5 14t16.5 38q0 47 -63 47h-12q-20 0 -20 20v23q0 20 20 20h9q29 0 45 13t16 35q0 21 -15 33t-41 12q-49 0 -59 -39q-4 -18 -21 -18h-32
q-22 0 -19 21q7 40 37 69q34 31 93 31t93 -27t34 -72q0 -65 -62 -88z" />
    <glyph glyph-name="four.dnom" horiz-adv-x="342" 
d="M298 132q20 0 20 -19v-22q0 -19 -20 -19h-24v-56q0 -20 -20 -20h-26q-20 0 -20 20v56h-165q-19 0 -19 19v24q0 14 7 25l159 215q8 12 23 12h41q20 0 20 -20v-215h24zM96 132h112v151z" />
    <glyph glyph-name="five.dnom" horiz-adv-x="326" 
d="M174 240q57 0 91.5 -33.5t34.5 -89.5q0 -57 -37.5 -92t-99.5 -35q-49 0 -85 25q-37 28 -45 69q-5 20 18 20h30q15 0 21 -16q16 -36 61 -36q32 0 50 18t18 48q0 31 -18 48t-49 17t-53 -20q-13 -11 -24 -11h-33q-21 0 -18 21l23 175q3 19 21 19h180q19 0 19 -20v-23
q0 -19 -19 -19h-144l-11 -81q31 16 69 16z" />
    <glyph glyph-name="six.dnom" horiz-adv-x="342" 
d="M190 237q55 0 89.5 -33.5t34.5 -87.5q0 -57 -37 -91.5t-99 -34.5t-100 38q-45 45 -45 147q0 98 39 148t110 50q100 0 123 -84q5 -22 -18 -22h-29q-14 0 -23 16q-13 30 -54 30q-72 0 -79 -110q34 34 88 34zM176 48q31 0 50 18.5t19 49.5q0 30 -18.5 48t-47.5 18
q-30 0 -50 -19t-20 -47q0 -29 19 -48.5t48 -19.5z" />
    <glyph glyph-name="seven.dnom" horiz-adv-x="288" 
d="M247 367q20 0 20 -20v-24q0 -14 -5 -24l-132 -288q-7 -15 -23 -15h-32q-25 0 -15 23l130 284h-149q-19 0 -19 20v24q0 20 19 20h206z" />
    <glyph glyph-name="eight.dnom" horiz-adv-x="341" 
d="M170 -10q-65 0 -102.5 29t-37.5 77q0 68 67 94q-57 25 -57 84q0 44 35 71.5t95 27.5q61 0 95.5 -27.5t34.5 -71.5q0 -59 -56 -84q66 -26 66 -94q0 -48 -37 -77t-103 -29zM170 215q29 0 45 13t16 36t-16 36.5t-45 13.5t-45 -13.5t-16 -36.5t16.5 -36t44.5 -13zM170 48
q33 0 51 15t18 39q0 25 -18 40t-51 15t-50.5 -15t-17.5 -40q0 -24 17.5 -39t50.5 -15z" />
    <glyph glyph-name="nine.dnom" horiz-adv-x="343" 
d="M265 335q44 -44 44 -146q0 -199 -149 -199q-48 0 -80 23q-33 23 -43 61q-6 21 19 21h30q14 0 21 -15q17 -30 55 -30q71 0 78 107q-35 -32 -87 -32q-54 0 -89 33.5t-35 88.5q0 56 37 91t99 35t100 -38zM165 180q29 0 48.5 19t19.5 47q0 30 -18.5 49.5t-48.5 19.5t-49 -19
t-19 -49q0 -31 18.5 -49t48.5 -18z" />
    <glyph glyph-name="zero.numr" horiz-adv-x="370" 
d="M185 327q-71 0 -111.5 50.5t-40.5 141.5t40.5 141t111.5 50t111.5 -50t40.5 -141t-40.5 -141.5t-111.5 -50.5zM185 392q37 0 59 32t22 95t-22 94.5t-59 31.5t-58.5 -31.5t-21.5 -94.5q0 -64 21.5 -95.5t58.5 -31.5z" />
    <glyph glyph-name="one.numr" horiz-adv-x="232" 
d="M160 704q20 0 20 -20v-331q0 -20 -20 -20h-30q-20 0 -20 20v277l-59 -33q-10 -6 -17 -2t-7 16v27q0 16 14 24l62 35q11 7 25 7h32z" />
    <glyph glyph-name="two.numr" horiz-adv-x="319" 
d="M269 396q19 0 19 -20v-23q0 -20 -19 -20h-218q-20 0 -20 20v9q0 60 18 93t76 61l45 22q30 15 41 28.5t11 31.5q0 22 -15 35t-41 13q-51 0 -61 -47q-3 -19 -21 -19h-32q-22 0 -20 21q6 51 40 80t93 29t92.5 -29.5t33.5 -81.5q0 -39 -21 -64.5t-67 -48.5l-44 -22
q-31 -15 -43 -28.5t-14 -39.5h167z" />
    <glyph glyph-name="three.numr" horiz-adv-x="326" 
d="M229 523q68 -21 68 -90q0 -48 -35 -77t-99 -29q-58 0 -92 27q-33 27 -40 72q-3 21 19 21h32q15 0 21 -18q11 -38 61 -38q29 0 45.5 14t16.5 38q0 47 -63 47h-12q-20 0 -20 20v23q0 20 20 20h9q29 0 45 13t16 35q0 21 -15 33t-41 12q-49 0 -59 -39q-4 -18 -21 -18h-32
q-22 0 -19 21q7 40 37 69q34 31 93 31t93 -27t34 -72q0 -65 -62 -88z" />
    <glyph glyph-name="four.numr" horiz-adv-x="342" 
d="M298 469q20 0 20 -19v-22q0 -19 -20 -19h-24v-56q0 -20 -20 -20h-26q-20 0 -20 20v56h-165q-19 0 -19 19v24q0 14 7 25l159 215q8 12 23 12h41q20 0 20 -20v-215h24zM96 469h112v151z" />
    <glyph glyph-name="five.numr" horiz-adv-x="326" 
d="M174 577q57 0 91.5 -33.5t34.5 -89.5q0 -57 -37.5 -92t-99.5 -35q-49 0 -85 25q-37 28 -45 69q-5 20 18 20h30q15 0 21 -16q16 -36 61 -36q32 0 50 18t18 48q0 31 -18 48t-49 17t-53 -20q-13 -11 -24 -11h-33q-21 0 -18 21l23 175q3 19 21 19h180q19 0 19 -20v-23
q0 -19 -19 -19h-144l-11 -81q31 16 69 16z" />
    <glyph glyph-name="six.numr" horiz-adv-x="342" 
d="M190 574q55 0 89.5 -33.5t34.5 -87.5q0 -57 -37 -91.5t-99 -34.5t-100 38q-45 45 -45 147q0 98 39 148t110 50q100 0 123 -84q5 -22 -18 -22h-29q-14 0 -23 16q-13 30 -54 30q-72 0 -79 -110q34 34 88 34zM176 385q31 0 50 18.5t19 49.5q0 30 -18.5 48t-47.5 18
q-30 0 -50 -19t-20 -47q0 -29 19 -48.5t48 -19.5z" />
    <glyph glyph-name="seven.numr" horiz-adv-x="288" 
d="M247 704q20 0 20 -20v-24q0 -14 -5 -24l-132 -288q-7 -15 -23 -15h-32q-25 0 -15 23l130 284h-149q-19 0 -19 20v24q0 20 19 20h206z" />
    <glyph glyph-name="eight.numr" horiz-adv-x="341" 
d="M170 327q-65 0 -102.5 29t-37.5 77q0 68 67 94q-57 25 -57 84q0 44 35 71.5t95 27.5q61 0 95.5 -27.5t34.5 -71.5q0 -59 -56 -84q66 -25 66 -94q0 -48 -37 -77t-103 -29zM170 552q29 0 45 13t16 36t-16 36.5t-45 13.5t-45 -13.5t-16 -36.5t16.5 -36t44.5 -13zM170 385
q33 0 51 15t18 39q0 25 -18 40t-51 15t-50.5 -15t-17.5 -40q0 -24 17.5 -39t50.5 -15z" />
    <glyph glyph-name="nine.numr" horiz-adv-x="343" 
d="M265 672q44 -44 44 -146q0 -199 -149 -199q-48 0 -80 23q-33 23 -43 61q-6 21 19 21h30q14 0 21 -15q17 -30 55 -30q71 0 78 107q-35 -32 -87 -32q-54 0 -89 33.5t-35 88.5q0 56 37 91t99 35t100 -38zM165 517q29 0 48.5 19t19.5 47q0 30 -18.5 49.5t-48.5 19.5t-49 -19
t-19 -49q0 -31 18.5 -49t48.5 -18z" />
    <glyph glyph-name="zero.sups" horiz-adv-x="370" 
d="M185 377q-71 0 -111.5 50.5t-40.5 141.5t40.5 141t111.5 50t111.5 -50t40.5 -141t-40.5 -141.5t-111.5 -50.5zM185 442q37 0 59 32t22 95t-22 94.5t-59 31.5t-58.5 -31.5t-21.5 -94.5q0 -64 21.5 -95.5t58.5 -31.5z" />
    <glyph glyph-name="one.sups" horiz-adv-x="232" 
d="M160 754q20 0 20 -20v-331q0 -20 -20 -20h-30q-20 0 -20 20v277l-59 -33q-10 -6 -17 -2t-7 16v27q0 16 14 24l62 35q11 7 25 7h32z" />
    <glyph glyph-name="two.sups" horiz-adv-x="319" 
d="M269 446q19 0 19 -20v-23q0 -20 -19 -20h-218q-20 0 -20 20v9q0 60 18 93t76 61l45 22q30 15 41 28.5t11 31.5q0 22 -15 35t-41 13q-51 0 -61 -47q-3 -19 -21 -19h-32q-22 0 -20 21q6 51 40 80t93 29t92.5 -29.5t33.5 -81.5q0 -39 -21 -64.5t-67 -48.5l-44 -22
q-31 -15 -43 -28.5t-14 -39.5h167z" />
    <glyph glyph-name="three.sups" horiz-adv-x="326" 
d="M229 573q68 -21 68 -90q0 -48 -35 -77t-99 -29q-58 0 -92 27q-33 27 -40 72q-3 21 19 21h32q15 0 21 -18q11 -38 61 -38q29 0 45.5 14t16.5 38q0 47 -63 47h-12q-20 0 -20 20v23q0 20 20 20h9q29 0 45 13t16 35q0 21 -15 33t-41 12q-49 0 -59 -39q-4 -18 -21 -18h-32
q-22 0 -19 21q7 40 37 69q34 31 93 31t93 -27t34 -72q0 -65 -62 -88z" />
    <glyph glyph-name="four.sups" horiz-adv-x="342" 
d="M298 519q20 0 20 -19v-22q0 -19 -20 -19h-24v-56q0 -20 -20 -20h-26q-20 0 -20 20v56h-165q-19 0 -19 19v24q0 14 7 25l159 215q8 12 23 12h41q20 0 20 -20v-215h24zM96 519h112v151z" />
    <glyph glyph-name="five.sups" horiz-adv-x="326" 
d="M174 627q57 0 91.5 -33.5t34.5 -89.5q0 -57 -37.5 -92t-99.5 -35q-49 0 -85 25q-37 28 -45 69q-5 20 18 20h30q15 0 21 -16q16 -36 61 -36q32 0 50 18t18 48q0 31 -18 48t-49 17t-53 -20q-13 -11 -24 -11h-33q-21 0 -18 21l23 175q3 19 21 19h180q19 0 19 -20v-23
q0 -19 -19 -19h-144l-11 -81q31 16 69 16z" />
    <glyph glyph-name="six.sups" horiz-adv-x="342" 
d="M190 624q55 0 89.5 -33.5t34.5 -87.5q0 -57 -37 -91.5t-99 -34.5t-100 38q-45 45 -45 147q0 98 39 148t110 50q100 0 123 -84q5 -22 -18 -22h-29q-14 0 -23 16q-13 30 -54 30q-72 0 -79 -110q34 34 88 34zM176 435q31 0 50 18.5t19 49.5q0 30 -18.5 48t-47.5 18
q-30 0 -50 -19t-20 -47q0 -29 19 -48.5t48 -19.5z" />
    <glyph glyph-name="seven.sups" horiz-adv-x="288" 
d="M247 754q20 0 20 -20v-24q0 -14 -5 -24l-132 -288q-7 -15 -23 -15h-32q-25 0 -15 23l130 284h-149q-19 0 -19 20v24q0 20 19 20h206z" />
    <glyph glyph-name="eight.sups" horiz-adv-x="341" 
d="M170 377q-65 0 -102.5 29t-37.5 77q0 68 67 94q-57 25 -57 84q0 44 35 71.5t95 27.5q61 0 95.5 -27.5t34.5 -71.5q0 -59 -56 -84q66 -25 66 -94q0 -48 -37 -77t-103 -29zM170 602q29 0 45 13t16 36t-16 36.5t-45 13.5t-45 -13.5t-16 -36.5t16.5 -36t44.5 -13zM170 435
q33 0 51 15t18 39q0 25 -18 40t-51 15t-50.5 -15t-17.5 -40q0 -24 17.5 -39t50.5 -15z" />
    <glyph glyph-name="nine.sups" horiz-adv-x="343" 
d="M265 722q44 -44 44 -146q0 -199 -149 -199q-48 0 -80 23q-33 23 -43 61q-6 21 19 21h30q14 0 21 -15q17 -30 55 -30q71 0 78 107q-35 -32 -87 -32q-54 0 -89 33.5t-35 88.5q0 56 37 91t99 35t100 -38zM165 567q29 0 48.5 19t19.5 47q0 30 -18.5 49.5t-48.5 19.5t-49 -19
t-19 -49q0 -31 18.5 -49t48.5 -18z" />
    <glyph glyph-name="colon.case" horiz-adv-x="267" 
d="M133 458q-28 0 -45.5 17t-17.5 45t17.5 45.5t45.5 17.5q29 0 46 -17.5t17 -45.5t-17.5 -45t-45.5 -17zM133 118q-28 0 -45.5 17.5t-17.5 45.5t17.5 45.5t45.5 17.5q29 0 46 -17t17 -46q0 -28 -17.5 -45.5t-45.5 -17.5z" />
    <glyph glyph-name="exclamdown.case" horiz-adv-x="283" 
d="M141 708q29 0 46 -17t17 -46q0 -28 -17.5 -45.5t-45.5 -17.5t-45.5 17.5t-17.5 45.5t17.5 45.5t45.5 17.5zM124 482h35q19 0 19 -20l12 -442q0 -20 -19 -20h-59q-19 0 -19 20l11 442q0 20 20 20z" />
    <glyph glyph-name="questiondown.case" horiz-adv-x="493" 
d="M271 709q29 0 46 -17.5t17 -45.5t-17.5 -45.5t-45.5 -17.5t-45.5 17.5t-17.5 45.5t17.5 45.5t45.5 17.5zM295 487q20 0 20 -20v-27q0 -50 -15 -79.5t-60 -67.5l-49 -41q-54 -45 -54 -91q0 -43 26.5 -65.5t76.5 -22.5q53 0 86.5 26t42.5 73q4 19 21 19h48q21 0 19 -21
q-10 -82 -67 -130.5t-147 -48.5q-89 0 -141.5 46.5t-52.5 122.5q0 40 19.5 74.5t68.5 75.5l48 40q26 22 34.5 40t8.5 50v27q0 20 20 20h47z" />
    <glyph glyph-name="periodcentered.case" horiz-adv-x="287" 
d="M143 288q-28 0 -45.5 17t-17.5 45t17.5 45.5t45.5 17.5q29 0 46 -17.5t17 -45.5t-17.5 -45t-45.5 -17z" />
    <glyph glyph-name="bullet.case" horiz-adv-x="519" 
d="M260 209q-64 0 -107.5 43.5t-43.5 107.5t43.5 107t107.5 43t107 -43t43 -107t-43 -107.5t-107 -43.5z" />
    <glyph glyph-name="parenleft.case" horiz-adv-x="326" 
d="M241 -74q-16 -11 -28 3q-69 87 -106.5 198.5t-37.5 222.5t37.5 222.5t106.5 198.5q12 14 28 3l30 -23q14 -12 4 -28q-54 -71 -87.5 -169.5t-33.5 -203.5t33.5 -203.5t87.5 -169.5q10 -16 -4 -28z" />
    <glyph glyph-name="parenright.case" horiz-adv-x="326" 
d="M85 -74l-30 23q-14 12 -4 28q54 71 87.5 169.5t33.5 203.5t-33.5 203.5t-87.5 169.5q-10 16 4 28l30 23q16 11 28 -3q69 -87 106.5 -198.5t37.5 -222.5t-37.5 -222.5t-106.5 -198.5q-12 -14 -28 -3z" />
    <glyph glyph-name="braceleft.case" horiz-adv-x="388" 
d="M266 -68q-71 0 -103.5 30.5t-32.5 98.5v193q0 29 -13.5 42t-42.5 15q-20 2 -20 21v36q0 19 20 21q30 2 43 15t13 42v193q0 68 32.5 98.5t103.5 30.5h58q20 0 20 -20v-34q0 -19 -20 -19h-52q-58 0 -58 -57v-182q0 -84 -75 -105v-2q75 -21 75 -105v-182q0 -57 58 -57h52
q20 0 20 -19v-34q0 -20 -20 -20h-58z" />
    <glyph glyph-name="braceright.case" horiz-adv-x="389" 
d="M123 -68h-58q-20 0 -20 20v34q0 19 20 19h52q58 0 58 57v182q0 85 74 105v2q-74 20 -74 105v182q0 57 -58 57h-52q-20 0 -20 19v34q0 20 20 20h58q70 0 102.5 -30.5t32.5 -98.5v-193q0 -29 13 -42t43 -15q20 -2 20 -21v-36q0 -19 -20 -21q-29 -2 -42.5 -15t-13.5 -42
v-193q0 -68 -32.5 -98.5t-102.5 -30.5z" />
    <glyph glyph-name="bracketleft.case" horiz-adv-x="369" 
d="M305 695h-128v-690h128q20 0 20 -19v-34q0 -20 -20 -20h-192q-20 0 -20 20v796q0 20 20 20h192q20 0 20 -20v-34q0 -19 -20 -19z" />
    <glyph glyph-name="bracketright.case" horiz-adv-x="370" 
d="M257 768q19 0 19 -20v-796q0 -20 -19 -20h-193q-20 0 -20 20v34q0 19 20 19h129v690h-129q-20 0 -20 19v34q0 20 20 20h193z" />
    <glyph glyph-name="hyphen.case" horiz-adv-x="398" 
d="M73 305q-19 0 -19 20v41q0 19 19 19h252q19 0 19 -19v-41q0 -20 -19 -20h-252z" />
    <glyph glyph-name="endash.case" horiz-adv-x="500" 
d="M73 305q-19 0 -19 20v41q0 19 19 19h354q19 0 19 -19v-41q0 -20 -19 -20h-354z" />
    <glyph glyph-name="emdash.case" horiz-adv-x="1000" 
d="M73 305q-19 0 -19 20v41q0 19 19 19h854q19 0 19 -19v-41q0 -20 -19 -20h-854z" />
    <glyph glyph-name="guillemotleft.case" horiz-adv-x="526" 
d="M234 533q12 0 16 -7t-3 -17l-104 -160l104 -160q7 -10 3 -17t-16 -7h-51q-16 0 -23 13l-103 157q-9 14 0 28l103 157q7 13 23 13h51zM353 349l104 -160q7 -10 3 -17t-16 -7h-51q-14 0 -23 13l-102 157q-9 14 0 28l102 157q9 13 23 13h51q12 0 16 -7t-3 -17z" />
    <glyph glyph-name="guillemotright.case" horiz-adv-x="526" 
d="M157 520l102 -157q9 -14 0 -28l-102 -157q-9 -13 -24 -13h-51q-12 0 -16 7t3 17l104 160l-104 160q-7 10 -3 17t16 7h51q15 0 24 -13zM469 363q9 -14 0 -28l-102 -157q-9 -13 -24 -13h-51q-12 0 -15.5 7t2.5 17l105 160l-105 160q-6 10 -2.5 17t15.5 7h51q15 0 24 -13z
" />
    <glyph glyph-name="guilsinglleft.case" horiz-adv-x="316" 
d="M143 349l104 -160q7 -10 3 -17t-16 -7h-51q-16 0 -23 13l-103 157q-9 14 0 28l103 157q7 13 23 13h51q12 0 16 -7t-3 -17z" />
    <glyph glyph-name="guilsinglright.case" horiz-adv-x="316" 
d="M259 363q9 -14 0 -28l-102 -157q-9 -13 -24 -13h-51q-12 0 -16 7t3 17l104 160l-104 160q-7 10 -3 17t16 7h51q15 0 24 -13z" />
    <glyph glyph-name="cent.tf" horiz-adv-x="650" 
d="M148 512q56 66 149 79v100q0 19 20 19h30q19 0 19 -19v-100q74 -7 126 -50.5t66 -109.5v-5q0 -16 -19 -16h-49q-16 0 -21 17q-24 74 -106 87v-327q81 13 105 85q5 17 22 17h48q10 0 15 -4.5t5 -9.5q0 -3 -1 -5q-13 -66 -65 -109.5t-126 -51.5v-100q0 -19 -19 -19h-30
q-20 0 -20 19v100q-93 13 -149 79.5t-56 161.5t56 162zM212 244q32 -44 88 -56v324q-56 -11 -88 -55t-32 -107t32 -106z" />
    <glyph glyph-name="currency.tf" horiz-adv-x="650" 
d="M490 228l68 -67q14 -14 0 -28l-16 -16q-14 -14 -28 0l-69 70q-50 -33 -115 -33q-68 0 -120 38l-74 -75q-14 -14 -28 0l-16 16q-14 14 0 28l75 74q-36 50 -36 115q0 64 35 115l-74 74q-14 14 0 28l16 16q14 14 28 0l74 -74q53 37 120 37q64 0 114 -33l70 70q14 14 28 0
l16 -16q14 -14 0 -28l-68 -68q41 -52 41 -121q0 -70 -41 -122zM330 227q53 0 86 35t33 88t-33 88t-86 35q-52 0 -84.5 -35t-32.5 -88t32.5 -88t84.5 -35z" />
    <glyph glyph-name="dollar.tf" horiz-adv-x="650" 
d="M551 221q0 -77 -51 -123t-140 -53v-47q0 -19 -19 -19h-30q-20 0 -20 19v48q-80 8 -129 48t-60 106q-2 10 3 15.5t15 5.5h49q17 0 21 -18q18 -69 105 -81v198l-17 3q-173 34 -173 166q0 70 48.5 115t137.5 52v46q0 19 20 19h30q19 0 19 -19v-47q159 -17 179 -159
q3 -21 -19 -21h-47q-18 0 -21 19q-10 73 -95 85v-188l35 -7q159 -31 159 -163zM192 491q0 -35 23.5 -55t79.5 -32v176q-103 -9 -103 -89zM357 121q51 6 79 31t28 64q0 71 -106 92h-1v-187z" />
    <glyph glyph-name="Euro.tf" horiz-adv-x="650" 
d="M591 188q23 0 17 -26q-21 -83 -79.5 -127.5t-139.5 -44.5q-100 0 -168.5 68.5t-90.5 187.5h-65q-19 0 -19 19v23q0 19 19 19h57q-1 14 -1 43t1 43h-57q-19 0 -19 19v23q0 19 19 19h65q22 119 90.5 187.5t168.5 68.5q81 0 139.5 -45.5t79.5 -130.5q6 -22 -17 -22h-50
q-17 0 -22 18q-12 48 -46.5 73.5t-82.5 25.5q-63 0 -107 -44.5t-61 -130.5h218q20 0 20 -19v-23q0 -19 -20 -19h-226q-1 -14 -1 -43t1 -43h226q20 0 20 -19v-23q0 -19 -20 -19h-218q17 -86 61 -130.5t107 -44.5q48 0 82.5 25.5t46.5 73.5q5 18 22 18h50z" />
    <glyph glyph-name="florin.tf" horiz-adv-x="650" 
d="M522 706q17 -3 17 -22v-37q0 -10 -5 -15t-13 -4q-6 1 -19 1q-42 0 -60.5 -17.5t-28.5 -66.5l-20 -107h113q20 0 20 -20v-32q0 -20 -20 -20h-127l-66 -348q-28 -148 -152 -148q-18 0 -44 4q-17 3 -17 22v38q0 9 5 14t13 4q6 -1 20 -1q42 0 60 17.5t28 67.5l63 330h-99
q-20 0 -20 20v32q0 20 20 20h112l24 125q28 147 152 147q18 0 44 -4z" />
    <glyph glyph-name="sterling.tf" horiz-adv-x="650" 
d="M552 83q20 0 20 -20v-43q0 -20 -20 -20h-444q-20 0 -20 20v43q0 20 20 20h53v213h-53q-20 0 -20 20v34q0 20 20 20h53v126q0 102 53 158t152 56q86 0 139.5 -44.5t62.5 -136.5q3 -21 -18 -21h-49q-17 0 -19 20q-12 100 -114 100q-60 0 -89.5 -33.5t-29.5 -105.5v-119h223
q19 0 19 -20v-34q0 -20 -19 -20h-223v-213h303z" />
    <glyph glyph-name="yen.tf" horiz-adv-x="650" 
d="M581 700q12 0 16 -7t-2 -17l-193 -329h127q20 0 20 -20v-25q0 -19 -20 -19h-160v-87h160q20 0 20 -20v-24q0 -20 -20 -20h-160v-112q0 -20 -20 -20h-49q-20 0 -20 20v112h-160q-20 0 -20 20v24q0 20 20 20h160v87h-160q-20 0 -20 19v25q0 20 20 20h127l-193 329
q-5 10 -1.5 17t15.5 7h57q17 0 24 -14l175 -318h1l175 318q7 14 24 14h57z" />
    <glyph glyph-name="plus.tf" 
d="M501 356q20 0 20 -19v-40q0 -19 -20 -19h-159v-171q0 -20 -20 -20h-44q-20 0 -20 20v171h-159q-20 0 -20 19v40q0 19 20 19h159v171q0 20 20 20h44q20 0 20 -20v-171h159z" />
    <glyph glyph-name="minus.tf" 
d="M99 278q-20 0 -20 19v40q0 19 20 19h402q20 0 20 -19v-40q0 -19 -20 -19h-402z" />
    <glyph glyph-name="multiply.tf" 
d="M135 126l-26 26q-13 14 0 27l138 138l-138 138q-13 13 0 27l26 26q13 14 27 0l138 -138l138 138q14 14 27 0l26 -26q13 -14 0 -27l-138 -138l138 -138q13 -13 0 -27l-26 -26q-13 -14 -27 0l-138 138l-138 -138q-14 -14 -27 0z" />
    <glyph glyph-name="divide.tf" 
d="M300 434q-27 0 -43.5 17t-16.5 43t16.5 43t43.5 17t43.5 -17t16.5 -43t-16.5 -43t-43.5 -17zM99 278q-20 0 -20 20v38q0 20 20 20h402q20 0 20 -20v-38q0 -20 -20 -20h-402zM300 80q-27 0 -43.5 17t-16.5 43t16.5 43t43.5 17t43.5 -17t16.5 -43t-16.5 -43t-43.5 -17z" />
    <glyph glyph-name="equal.tf" 
d="M99 379q-20 0 -20 20v38q0 19 20 19h402q20 0 20 -19v-38q0 -20 -20 -20h-402zM99 177q-20 0 -20 20v38q0 20 20 20h402q20 0 20 -20v-38q0 -20 -20 -20h-402z" />
    <glyph glyph-name="notequal.tf" 
d="M501 379h-135l-60 -124h195q20 0 20 -20v-38q0 -20 -20 -20h-232l-55 -115q-8 -15 -23 -15h-30q-11 0 -15 7t0 17l51 106h-98q-20 0 -20 20v38q0 20 20 20h135l60 124h-195q-20 0 -20 20v38q0 19 20 19h231l56 116q8 14 23 14h30q11 0 15 -6.5t0 -16.5l-51 -107h98
q20 0 20 -19v-38q0 -20 -20 -20z" />
    <glyph glyph-name="greater.tf" 
d="M102 109q-23 -8 -23 16v46q0 17 16 23l323 122v2l-323 122q-16 6 -16 23v46q0 24 23 16l403 -160q16 -6 16 -23v-50q0 -17 -16 -23z" />
    <glyph glyph-name="less.tf" 
d="M498 109l-403 160q-16 6 -16 23v50q0 17 16 23l403 160q23 8 23 -16v-46q0 -17 -16 -23l-323 -122v-2l323 -122q16 -6 16 -23v-46q0 -24 -23 -16z" />
    <glyph glyph-name="greaterequal.tf" 
d="M102 149q-23 -8 -23 16v45q0 17 16 23l323 121v2l-323 122q-16 6 -16 22v46q0 24 23 16l403 -159q16 -6 16 -22v-51q0 -17 -16 -23zM99 0q-20 0 -20 20v39q0 20 20 20h402q20 0 20 -20v-39q0 -20 -20 -20h-402z" />
    <glyph glyph-name="lessequal.tf" 
d="M498 149l-403 158q-16 6 -16 23v51q0 16 16 22l403 159q23 8 23 -16v-46q0 -16 -16 -22l-323 -122v-2l323 -121q16 -6 16 -23v-45q0 -24 -23 -16zM99 0q-20 0 -20 20v39q0 20 20 20h402q20 0 20 -20v-39q0 -20 -20 -20h-402z" />
    <glyph glyph-name="plusminus.tf" 
d="M501 416q20 0 20 -20v-39q0 -20 -20 -20h-159v-159q0 -20 -20 -20h-44q-20 0 -20 20v159h-159q-20 0 -20 20v39q0 20 20 20h159v159q0 20 20 20h44q20 0 20 -20v-159h159zM501 79q20 0 20 -20v-39q0 -20 -20 -20h-402q-20 0 -20 20v39q0 20 20 20h402z" />
    <glyph glyph-name="approxequal.tf" 
d="M405 357q-37 0 -105 21t-105 21q-47 0 -92 -26q-11 -6 -17.5 -2.5t-6.5 15.5v36q0 15 13 24q48 31 105 31q35 0 104.5 -21t102.5 -21q49 0 94 25q23 13 23 -12v-36q0 -15 -14 -25q-49 -30 -102 -30zM405 156q-37 0 -105.5 21.5t-104.5 21.5q-47 0 -92 -27
q-11 -5 -17.5 -1.5t-6.5 14.5v37q0 16 13 23q47 32 105 32q35 0 104.5 -21.5t102.5 -21.5q47 0 94 26q23 13 23 -12v-37q0 -14 -14 -24q-51 -31 -102 -31z" />
    <glyph glyph-name="asciitilde.tf" 
d="M405 257q-37 0 -105.5 21.5t-104.5 21.5q-47 0 -92 -27q-11 -6 -17.5 -2.5t-6.5 15.5v37q0 14 13 23q49 32 105 32q35 0 104.5 -21.5t102.5 -21.5q50 0 94 26q23 13 23 -12v-37q0 -14 -14 -24q-51 -31 -102 -31z" />
    <glyph glyph-name="logicalnot.tf" 
d="M501 357q20 0 20 -20v-144q0 -20 -20 -20h-44q-20 0 -20 20v85h-338q-20 0 -20 19v40q0 20 20 20h402z" />
    <glyph glyph-name="at.case" horiz-adv-x="831" 
d="M554 502q20 0 20 -20v-176q0 -70 49 -70q36 0 58.5 37t22.5 100q0 124 -78.5 195.5t-196.5 71.5q-128 0 -211.5 -83t-83.5 -212q0 -130 84 -208t222 -78q81 0 163 34q23 10 23 -15v-29q0 -16 -12 -22q-79 -37 -179 -37q-165 0 -270.5 98t-105.5 255q0 160 107 263.5
t262 103.5q145 0 247 -92.5t102 -235.5q0 -92 -44 -150t-111 -58q-39 0 -66.5 19.5t-38.5 53.5q-13 -34 -44.5 -52.5t-71.5 -18.5q-66 0 -110 47t-44 121t44 121.5t110 47.5q78 0 103 -60h3v29q0 20 20 20h27zM415 244q38 0 63 27t25 73t-25 73.5t-63 27.5q-41 0 -66 -27
t-25 -74q0 -46 25 -73t66 -27z" />
    </font>
</defs>
</svg>
