<?xml version="1.0" standalone="no"?>
<!DOCTYPE svg PUBLIC "-//W3C//DTD SVG 1.1//EN" "http://www.w3.org/Graphics/SVG/1.1/DTD/svg11.dtd" >
<svg xmlns="http://www.w3.org/2000/svg" xmlns:xlink="http://www.w3.org/1999/xlink" version="1.1">
<metadata>
Created by FontForge 20170731 at Tue Jun 16 09:16:02 2020
 By Aleksey,,,
Copyright (c) 2018 by Christoph York. All rights reserved. Modification of this file requires prior written permission from Brink Type.
</metadata>
<defs>
<font id="BROmny-SemiBold" horiz-adv-x="600" >
  <font-face 
    font-family="BROmny-SemiBold"
    font-weight="400"
    font-stretch="normal"
    units-per-em="1000"
    panose-1="0 0 7 0 0 0 0 0 0 0"
    ascent="800"
    descent="-200"
    x-height="476"
    cap-height="700"
    bbox="-485 -259 1266 1008"
    underline-thickness="50"
    underline-position="-200"
    unicode-range="U+000D-2B51"
  />
<missing-glyph horiz-adv-x="737" 
d="M98 700h541q17 0 17 -18v-664q0 -18 -17 -18h-541q-18 0 -18 18v664q0 18 18 18zM249 449h36q14 0 19 17q10 58 74 58q60 0 60 -52q0 -27 -32 -54l-31 -26q-32 -27 -42 -45.5t-10 -52.5v-15q0 -18 18 -18h35q17 0 17 18v13q0 20 5 30.5t23 25.5l30 25q58 48 58 101
t-36 84.5t-97 31.5q-62 0 -99.5 -32.5t-44.5 -89.5v-5q0 -14 17 -14zM308 155q0 -22 14 -36t35 -14q23 0 37 14t14 36t-14 36t-37 14q-21 0 -35 -14t-14 -36z" />
    <glyph glyph-name=".notdef" horiz-adv-x="737" 
d="M98 700h541q17 0 17 -18v-664q0 -18 -17 -18h-541q-18 0 -18 18v664q0 18 18 18zM249 449h36q14 0 19 17q10 58 74 58q60 0 60 -52q0 -27 -32 -54l-31 -26q-32 -27 -42 -45.5t-10 -52.5v-15q0 -18 18 -18h35q17 0 17 18v13q0 20 5 30.5t23 25.5l30 25q58 48 58 101
t-36 84.5t-97 31.5q-62 0 -99.5 -32.5t-44.5 -89.5v-5q0 -14 17 -14zM308 155q0 -22 14 -36t35 -14q23 0 37 14t14 36t-14 36t-37 14q-21 0 -35 -14t-14 -36z" />
    <glyph glyph-name=".null" horiz-adv-x="0" 
 />
    <glyph glyph-name="uni000D" horiz-adv-x="333" 
 />
    <glyph glyph-name="uni000D.1" unicode="&#xd;" horiz-adv-x="240" 
 />
    <glyph glyph-name="space" unicode=" " horiz-adv-x="240" 
 />
    <glyph glyph-name="exclam" unicode="!" horiz-adv-x="302" 
d="M82 682q0 18 16 18h105q17 0 17 -18l-12 -432q0 -17 -18 -17h-78q-18 0 -18 17zM68 73q0 37 23 59.5t60 22.5t60 -22.5t23 -59.5t-23 -59q-23 -23 -60 -23t-60 22.5t-23 59.5z" />
    <glyph glyph-name="quotedbl" unicode="&#x22;" horiz-adv-x="469" 
d="M78 712h102q18 0 18 -16v-3l-16 -251q-1 -16 -18 -16h-70q-16 0 -17 16l-17 251v3q0 16 18 16zM289 712h102q17 0 17 -16v-3l-16 -251q-1 -16 -18 -16h-69q-17 0 -18 16l-16 251v3q0 16 18 16z" />
    <glyph glyph-name="numbersign" unicode="#" horiz-adv-x="772" 
d="M83 201v61q0 18 17 18h101v140h-101q-17 0 -17 18v61q0 17 17 17h101v134q0 17 18 17h72q17 0 17 -17v-134h155v134q0 17 18 17h72q18 0 18 -17v-134h101q17 0 17 -17v-61q0 -18 -17 -18h-101v-140h101q17 0 17 -18v-61q0 -17 -17 -17h-101v-134q0 -17 -18 -17h-72
q-18 0 -18 17v134h-155v-134q0 -17 -17 -17h-72q-18 0 -18 17v134h-101q-17 0 -17 17zM463 280v140h-155v-140h155z" />
    <glyph glyph-name="dollar" unicode="$" horiz-adv-x="568" 
d="M66 231h89q15 0 20 -16q12 -49 69 -61v154l-14 3q-179 30 -179 169q0 72 47 118.5t136 56.5v50q0 18 17 18h66q18 0 18 -18v-52q79 -10 123.5 -53t51.5 -113v-5q0 -13 -16 -13h-89q-15 0 -18 16q-9 50 -63 62v-144l28 -5q168 -29 168 -169q0 -78 -48.5 -125t-136.5 -57
v-52q0 -18 -18 -18h-66q-17 0 -17 18v52q-81 11 -128 54t-56 111v5q0 14 16 14zM324 293v-140q73 12 73 70q0 52 -73 70zM174 481q0 -24 16 -38t54 -25v131q-70 -11 -70 -68z" />
    <glyph glyph-name="percent" unicode="%" horiz-adv-x="885" 
d="M87 660q53 52 133 52q79 0 132 -52t53 -131t-53 -131.5t-132 -52.5q-80 0 -133 52.5t-53 131.5t53 131zM534 303q53 52 132 52t132 -52.5t53 -131.5t-52.5 -131t-132.5 -52q-79 0 -132 52t-53 131t53 132zM175 21l427 667q8 12 21 12h75q11 0 13.5 -4t2.5 -7q0 -4 -4 -10
l-426 -667q-9 -12 -22 -12h-75q-10 0 -12.5 4t-2.5 7q0 5 3 10zM137 529q0 -40 22.5 -63.5t60.5 -23.5q37 0 59.5 23.5t22.5 63.5t-22.5 63.5t-59.5 23.5q-38 0 -60.5 -23.5t-22.5 -63.5zM583 171q0 -39 23 -63t60 -24t60 24t23 63t-23 63t-60 24t-60 -24t-23 -63z" />
    <glyph glyph-name="ampersand" unicode="&#x26;" horiz-adv-x="700" 
d="M53 181q0 115 146 201h1q-79 90 -79 163q0 72 54 119.5t143 47.5q87 0 140 -45t53 -117q0 -106 -128 -181l-17 -10l114 -130q17 40 25 100q3 16 18 16h82q16 0 16 -19v-7q-15 -106 -60 -183l100 -114q5 -6 5 -11q0 -3 -2 -7t-13 -4h-97q-13 0 -22 10l-40 45
q-82 -67 -199 -67q-108 0 -174 54t-66 139zM213 123q31 -24 85 -24q66 0 116 39l-146 167l-2 -1q-84 -48 -84 -114q0 -43 31 -67zM288 448l13 -15l23 14q70 40 70 91q0 32 -21 51q-22 19 -56 19t-55.5 -19t-21.5 -48q0 -37 48 -93z" />
    <glyph glyph-name="quotesingle" unicode="'" horiz-adv-x="258" 
d="M78 712h102q18 0 18 -16v-3l-16 -251q-1 -16 -18 -16h-70q-16 0 -17 16l-17 251v3q0 16 18 16z" />
    <glyph glyph-name="parenleft" unicode="(" horiz-adv-x="347" 
d="M63 326q0 118 38.5 233.5t107.5 203.5q6 7 13 7q6 0 13 -4l65 -41q8 -5 8 -13q0 -5 -4 -11q-53 -73 -85 -171.5t-32 -203.5q0 -104 32 -202.5t85 -171.5q4 -6 4 -11q0 -8 -8 -13l-65 -41q-7 -4 -13 -4q-7 0 -13 7q-69 88 -107.5 203t-38.5 233z" />
    <glyph glyph-name="parenright" unicode=")" horiz-adv-x="348" 
d="M43 -48q54 73 86 171.5t32 202.5q0 105 -32 203.5t-86 171.5q-4 6 -4 11q0 8 8 13l66 41q7 4 12 4q7 0 13 -7q69 -88 107.5 -203.5t38.5 -233.5t-38.5 -233t-107.5 -203q-6 -7 -13 -7q-5 0 -12 4l-66 41q-8 5 -8 13q0 5 4 11z" />
    <glyph glyph-name="asterisk" unicode="*" horiz-adv-x="542" 
d="M70 543l20 62q4 12 14 12q3 0 8 -2l114 -41l-5 121q0 18 17 18h65q17 0 17 -15v-3l-5 -121l114 41q5 2 9 2q10 0 14 -12l20 -62q1 -3 1 -6q0 -12 -14 -16l-115 -32l75 -96q4 -7 4 -12q0 -7 -7 -13l-53 -38q-6 -4 -11 -4q-8 0 -13 9l-68 101l-68 -101q-5 -9 -13 -9
q-5 0 -11 4l-53 38q-8 6 -8 13q0 6 5 12l75 96l-116 32q-13 4 -13 14q0 4 1 8z" />
    <glyph glyph-name="plus" unicode="+" 
d="M93 373h148v160q0 18 17 18h84q17 0 17 -18v-160h148q18 0 18 -18v-76q0 -18 -18 -18h-148v-160q0 -18 -17 -18h-84q-17 0 -17 18v160h-148q-18 0 -18 18v76q0 18 18 18z" />
    <glyph glyph-name="comma" unicode="," horiz-adv-x="266" 
d="M37 -134l49 270q1 16 18 16h90q16 0 16 -12q0 -3 -1 -7l-72 -271q-3 -16 -19 -16h-65q-16 0 -16 15v5z" />
    <glyph glyph-name="hyphen" unicode="-" horiz-adv-x="383" 
d="M62 329h259q18 0 18 -17v-78q0 -18 -18 -18h-259q-18 0 -18 18v78q0 17 18 17z" />
    <glyph glyph-name="period" unicode="." horiz-adv-x="263" 
d="M49 73q0 37 23 59.5t60 22.5t60 -22.5t23 -59.5t-23 -59q-23 -23 -60 -23t-60 22.5t-23 59.5z" />
    <glyph glyph-name="slash" unicode="/" horiz-adv-x="497" 
d="M19 -55l335 754q4 13 21 13h89q10 0 13 -4.5t3 -8.5t-2 -8l-335 -754q-6 -13 -21 -13h-89q-16 0 -16 11q0 4 2 10z" />
    <glyph glyph-name="zero" unicode="0" horiz-adv-x="677" 
d="M128 616q78 96 210 96q133 0 211 -96.5t78 -265.5t-78 -265.5t-211 -96.5q-132 0 -210 96.5t-78 265.5t78 266zM184 350q0 -120 40 -180q40 -61 114 -61t114.5 60.5t40.5 180.5t-40.5 180.5t-114.5 60.5t-114 -60.5t-40 -180.5z" />
    <glyph glyph-name="one" unicode="1" horiz-adv-x="406" 
d="M38 497v94q0 13 12 21l143 82q10 6 22 6h85q18 0 18 -18v-664q0 -18 -18 -18h-95q-18 0 -18 18v540l-128 -73q-5 -3 -10 -3q-3 0 -7 2.5t-4 12.5z" />
    <glyph glyph-name="two" unicode="2" horiz-adv-x="579" 
d="M84 219q39 62 139 115l79 40q104 56 104 127q0 42 -27.5 66.5t-76.5 24.5q-51 0 -82.5 -28t-37.5 -78q-2 -18 -17 -18h-99q-18 0 -18 17v2q7 105 74 165t178 60q109 0 173.5 -57.5t64.5 -153.5q0 -68 -38.5 -121t-124.5 -98l-79 -40q-59 -32 -84 -58.5t-31 -63.5h336
q18 0 18 -18v-84q0 -18 -18 -18h-454q-18 0 -18 18v37q0 102 39 164z" />
    <glyph glyph-name="three" unicode="3" horiz-adv-x="594" 
d="M61 221h97q16 0 19 -17q8 -46 39.5 -71t83.5 -25q55 0 88 26.5t33 69.5t-33.5 67.5t-94.5 24.5h-35q-18 0 -18 18v83q0 18 18 18h32q55 0 87 25t32 66q0 39 -29.5 62.5t-79.5 23.5q-102 0 -116 -97q-2 -17 -18 -17h-98q-17 0 -17 17v2q7 102 73 158.5t176 56.5t175.5 -54
t65.5 -140q0 -58 -30 -99.5t-87 -59.5v-2q62 -15 96.5 -58.5t34.5 -105.5q0 -89 -69 -147t-187 -58q-114 0 -181 56t-75 159v2q0 16 18 16z" />
    <glyph glyph-name="four" unicode="4" horiz-adv-x="618" 
d="M27 159v76q0 12 7 22l317 432q7 11 21 11h114q18 0 18 -18v-427h69q18 0 18 -18v-78q0 -17 -18 -17h-69v-124q0 -18 -18 -18h-89q-18 0 -18 18v124h-334q-18 0 -18 17zM379 255v285h-2l-209 -285h211z" />
    <glyph glyph-name="five" unicode="5" horiz-adv-x="599" 
d="M63 207h96q15 0 19 -16q9 -37 43 -60.5t81 -23.5q58 0 94 36t36 94q0 55 -33 88t-88 33q-74 0 -116 -49q-9 -11 -21 -11h-102q-17 0 -17 17v2l47 366q3 17 19 17h385q18 0 18 -18v-83q0 -17 -18 -17h-297l-18 -149q58 35 134 35q105 0 172 -64t67 -169
q0 -110 -72.5 -178.5t-190.5 -68.5q-105 0 -175 55t-80 146v3q0 15 17 15z" />
    <glyph glyph-name="six" unicode="6" horiz-adv-x="624" 
d="M125 615q75 97 213 97q95 0 156 -45t78 -127v-5q0 -14 -16 -14h-96q-14 0 -20 15q-21 60 -103 60q-140 0 -155 -205h3q55 72 163 72q105 0 172.5 -66.5t67.5 -169.5q0 -106 -71.5 -172.5t-190.5 -66.5q-117 0 -189 69q-87 84 -87 276q0 184 75 282zM230 136
q36 -34 95 -34t95 34t36 92q0 57 -36 91t-95 34t-95 -34t-36 -91q0 -58 36 -92z" />
    <glyph glyph-name="seven" unicode="7" horiz-adv-x="532" 
d="M28 682q0 18 17 18h442q17 0 17 -18v-78q0 -13 -5 -22l-263 -569q-6 -13 -20 -13h-100q-10 0 -13 4.5t-3 8.5t2 8l260 558h-317q-17 0 -17 17v86z" />
    <glyph glyph-name="eight" unicode="8" horiz-adv-x="626" 
d="M76 297q32 45 93 68v3q-105 43 -105 154q0 83 66 136.5t183 53.5q118 0 184 -53.5t66 -136.5q0 -111 -106 -154v-3q62 -23 94 -68t32 -104q0 -91 -72.5 -148t-197.5 -57q-124 0 -196.5 57t-72.5 148q0 59 32 104zM214 130q35 -28 99 -28q65 0 100.5 28t35.5 74
t-35.5 73.5t-100.5 27.5q-64 0 -99.5 -27.5t-35.5 -73.5t36 -74zM226 439q31 -26 87 -26q57 0 88 25.5t31 67.5t-31 67.5t-88 25.5q-56 0 -87 -25.5t-31 -67.5t31 -67z" />
    <glyph glyph-name="nine" unicode="9" horiz-adv-x="625" 
d="M41 473q0 105 71.5 172t189.5 67q117 0 188 -71q85 -85 85 -275q0 -183 -74.5 -280.5t-212.5 -97.5q-96 0 -157 45t-77 127q-1 4 -1 7q0 12 17 12h96q14 0 20 -15q19 -60 103 -60q70 0 109 50t46 158h-2q-56 -73 -164 -73q-103 0 -170 66t-67 168zM207 382q35 -34 94 -34
t95.5 34.5t36.5 91.5q0 55 -36 89.5t-95 34.5q-58 0 -94 -35t-36 -91t35 -90z" />
    <glyph glyph-name="colon" unicode=":" horiz-adv-x="283" 
d="M82 453q23 23 60 23t60 -23t23 -59q0 -37 -23 -60t-60 -23t-60 23t-23 60q0 36 23 59zM82 133q23 22 60 22t60 -22.5t23 -59.5t-23 -59q-23 -23 -60 -23t-60 22.5t-23 59.5t23 60z" />
    <glyph glyph-name="semicolon" unicode=";" horiz-adv-x="290" 
d="M41 -134l49 270q1 16 18 16h90q16 0 16 -12q0 -3 -1 -7l-72 -271q-3 -16 -19 -16h-65q-16 0 -16 15v5zM66 394q0 36 23 59t60 23t60 -23t23 -59q0 -37 -23 -60t-60 -23t-60 23t-23 60z" />
    <glyph glyph-name="less" unicode="&#x3c;" 
d="M90 379l414 159q5 1 9 1q12 0 12 -15v-83q0 -15 -15 -21l-279 -102v-2l279 -102q15 -6 15 -21v-83q0 -15 -12 -15q-4 0 -9 1l-414 159q-15 5 -15 20v84q0 16 15 20z" />
    <glyph glyph-name="equal" unicode="=" 
d="M93 265h414q18 0 18 -18v-72q0 -18 -18 -18h-414q-18 0 -18 18v72q0 18 18 18zM75 455q0 18 18 18h414q18 0 18 -18v-71q0 -18 -18 -18h-414q-18 0 -18 18v71z" />
    <glyph glyph-name="greater" unicode="&#x3e;" 
d="M75 193q0 15 15 21l279 102v2l-279 102q-15 6 -15 21v83q0 15 12 15q4 0 9 -1l414 -159q15 -4 15 -20v-84q0 -15 -15 -20l-414 -159q-5 -1 -9 -1q-12 0 -12 15v83z" />
    <glyph glyph-name="question" unicode="?" horiz-adv-x="497" 
d="M35 517q8 92 65 143.5t155 51.5q94 0 148.5 -47.5t54.5 -127.5q0 -41 -19 -76t-68 -76l-43 -37q-25 -21 -32 -35t-7 -42v-24q0 -18 -18 -18h-86q-18 0 -18 18v29q0 50 14.5 77.5t63.5 68.5l46 39q44 36 44 73q0 66 -77 66q-88 0 -102 -84q-3 -17 -19 -17h-85
q-17 0 -17 16v2zM146 73q0 37 22.5 59.5t59.5 22.5t60 -22.5t23 -59.5t-23 -59q-23 -23 -60 -23t-59.5 22.5t-22.5 59.5z" />
    <glyph glyph-name="at" unicode="@" horiz-adv-x="970" 
d="M180 539q129 124 319 124q179 0 303 -110.5t124 -280.5q0 -112 -55 -183t-140 -71q-47 0 -82.5 22.5t-49.5 61.5q-15 -39 -51.5 -60t-83.5 -21q-81 0 -133 56.5t-52 145.5t52 145.5t133 56.5q88 0 116 -63h3v32q0 18 18 18h60q18 0 18 -18v-209q0 -75 53 -75
q38 0 62 39.5t24 110.5q0 138 -89.5 218.5t-228.5 80.5q-149 0 -244.5 -93.5t-95.5 -241.5t96 -236.5t257 -88.5q101 0 204 40q6 2 10 2q11 0 11 -15v-67q0 -13 -10 -19q-95 -45 -220 -45q-202 0 -330 118.5t-128 308.5q0 192 130 317zM393 223q0 -47 26 -75q25 -28 66 -28
t66.5 28t25.5 75t-25.5 74.5t-66.5 27.5t-66.5 -27.5t-25.5 -74.5z" />
    <glyph glyph-name="A" unicode="A" horiz-adv-x="727" 
d="M20 20l267 666q6 14 21 14h111q15 0 21 -14l268 -666q2 -5 2 -9q0 -11 -16 -11h-103q-16 0 -20 14l-47 123h-321l-47 -123q-4 -14 -20 -14h-103q-15 0 -15 10q0 4 2 10zM478 256l-113 292h-3l-113 -292h229z" />
    <glyph glyph-name="B" unicode="B" horiz-adv-x="680" 
d="M98 700h245q119 0 182.5 -49t63.5 -138q0 -113 -90 -148v-3q66 -10 102.5 -53.5t36.5 -114.5q0 -93 -64.5 -143.5t-187.5 -50.5h-288q-18 0 -18 18v664q0 18 18 18zM374 112q68 0 97.5 23t29.5 72q0 50 -29.5 72.5t-97.5 22.5h-161v-190h161zM213 588v-176h122
q62 0 90 22q28 21 28 66t-28 66.5t-90 21.5h-122z" />
    <glyph glyph-name="C" unicode="C" horiz-adv-x="804" 
d="M153 608q103 104 260 104q127 0 220 -70.5t117 -194.5q1 -4 1 -7q0 -12 -16 -12h-104q-16 0 -19 16q-19 68 -71.5 105t-127.5 37q-101 0 -163 -65t-62 -171t62 -171t163 -65q75 0 127.5 37t71.5 105q3 16 19 16h104q16 0 16 -13q0 -3 -1 -7q-24 -123 -117 -193.5
t-220 -70.5q-157 0 -260 104.5t-103 257.5t103 258z" />
    <glyph glyph-name="D" unicode="D" horiz-adv-x="726" 
d="M80 18v664q0 18 18 18h219q159 0 259 -98t100 -252t-100 -252t-259 -98h-219q-18 0 -18 18zM314 125q104 0 164 60.5t60 164.5t-60 164.5t-164 60.5h-100v-450h100z" />
    <glyph glyph-name="E" unicode="E" horiz-adv-x="623" 
d="M98 700h453q18 0 18 -18v-87q0 -18 -18 -18h-337v-166h265q18 0 18 -18v-86q0 -18 -18 -18h-265v-166h341q18 0 18 -18v-87q0 -18 -18 -18h-457q-18 0 -18 18v664q0 18 18 18z" />
    <glyph glyph-name="F" unicode="F" horiz-adv-x="604" 
d="M80 18v664q0 18 18 18h450q18 0 18 -18v-88q0 -18 -18 -18h-334v-181h288q18 0 18 -18v-88q0 -18 -18 -18h-288v-253q0 -18 -18 -18h-98q-18 0 -18 18z" />
    <glyph glyph-name="G" unicode="G" horiz-adv-x="810" 
d="M153 608q103 104 261 104q120 0 209.5 -61.5t117.5 -162.5q1 -4 1 -7q0 -4 -3.5 -8.5t-12.5 -4.5h-108q-15 0 -21 15q-18 47 -67.5 75t-115.5 28q-103 0 -164.5 -65t-61.5 -171q0 -108 63 -172.5t167 -64.5q87 0 143.5 46t66.5 127h-189q-18 0 -18 18v71q0 18 18 18h304
q17 0 17 -18v-41q0 -155 -96.5 -250.5t-248.5 -95.5q-159 0 -262 103.5t-103 258.5q0 154 103 258z" />
    <glyph glyph-name="H" unicode="H" horiz-adv-x="745" 
d="M98 700h98q18 0 18 -18v-280h317v280q0 18 18 18h98q18 0 18 -18v-664q0 -18 -18 -18h-98q-18 0 -18 18v258h-317v-258q0 -18 -18 -18h-98q-18 0 -18 18v664q0 18 18 18z" />
    <glyph glyph-name="I" unicode="I" horiz-adv-x="294" 
d="M98 700h98q18 0 18 -18v-664q0 -18 -18 -18h-98q-18 0 -18 18v664q0 18 18 18z" />
    <glyph glyph-name="J" unicode="J" horiz-adv-x="638" 
d="M49 314q0 18 18 18h100q17 0 17 -18v-62q0 -138 123 -138q125 0 125 138v324h-266q-18 0 -18 18v88q0 18 18 18h382q17 0 17 -18v-439q0 -123 -67 -189t-191 -66q-123 0 -190.5 65.5t-67.5 185.5v75z" />
    <glyph glyph-name="K" unicode="K" horiz-adv-x="697" 
d="M80 682q0 18 18 18h98q18 0 18 -18v-316h78l199 322q8 12 22 12h118q11 0 13.5 -4t2.5 -7q0 -4 -4 -10l-211 -340q187 -72 224 -320v-3q0 -16 -17 -16h-111q-15 0 -18 16q-20 121 -80 171.5t-169 50.5h-47v-220q0 -18 -18 -18h-98q-18 0 -18 18v664z" />
    <glyph glyph-name="L" unicode="L" horiz-adv-x="576" 
d="M98 700h98q18 0 18 -18v-557h314q18 0 18 -18v-89q0 -18 -18 -18h-430q-18 0 -18 18v664q0 18 18 18z" />
    <glyph glyph-name="M" unicode="M" horiz-adv-x="914" 
d="M98 700h113q14 0 21 -12l224 -380h2l224 380q7 12 21 12h113q18 0 18 -18v-664q0 -18 -18 -18h-97q-18 0 -18 18v459h-2l-184 -306q-7 -12 -21 -12h-73q-15 0 -22 12l-184 306h-1v-459q0 -18 -18 -18h-98q-18 0 -18 18v664q0 18 18 18z" />
    <glyph glyph-name="N" unicode="N" horiz-adv-x="769" 
d="M98 700h96q15 0 22 -11l337 -466h2v459q0 18 18 18h98q18 0 18 -18v-664q0 -18 -18 -18h-97q-14 0 -21 11l-338 466h-1v-459q0 -18 -18 -18h-98q-18 0 -18 18v664q0 18 18 18z" />
    <glyph glyph-name="O" unicode="O" horiz-adv-x="824" 
d="M50 350q0 153 104 257.5t258 104.5t258 -104.5t104 -257.5t-104 -257q-104 -105 -258 -105t-258 104.5t-104 257.5zM188 350q0 -103 62 -169q62 -67 162 -67t162 66.5t62 169.5t-62 169.5t-162 66.5t-162 -66.5t-62 -169.5z" />
    <glyph glyph-name="P" unicode="P" horiz-adv-x="663" 
d="M80 18v664q0 18 18 18h265q126 0 195 -63t69 -176q0 -114 -69 -177t-195 -63h-149v-203q0 -18 -18 -18h-98q-18 0 -18 18zM214 345h143q67 0 99.5 28.5t32.5 87.5q0 115 -132 115h-143v-231z" />
    <glyph glyph-name="Q" unicode="Q" horiz-adv-x="824" 
d="M154 608q104 104 258 104t258 -104.5t104 -257.5q0 -157 -110 -264l88 -113q5 -6 5 -12q0 -7 -8 -13l-74 -55q-6 -5 -11 -5q-8 0 -14 9l-94 119q-68 -28 -144 -28q-154 0 -258 104.5t-104 257.5t104 258zM188 350q0 -103 62 -169.5t162 -66.5q28 0 61 7l-88 112
q-4 6 -4 11q0 8 8 14l74 56q5 5 10 5q7 0 14 -9l95 -121q54 67 54 161q0 103 -62 169.5t-162 66.5t-162 -66q-62 -67 -62 -170z" />
    <glyph glyph-name="R" unicode="R" horiz-adv-x="691" 
d="M98 700h266q124 0 194 -62.5t70 -171.5q0 -73 -33 -127.5t-94 -81.5q102 -65 131 -238q1 -4 1 -7q0 -12 -17 -12h-110q-17 0 -20 16q-21 115 -72.5 164t-142.5 49h-57v-211q0 -18 -18 -18h-98q-18 0 -18 18v664q0 18 18 18zM214 355h143q133 0 133 111q0 110 -133 110
h-143v-221z" />
    <glyph glyph-name="S" unicode="S" horiz-adv-x="630" 
d="M62 209h99q16 0 19 -16q20 -86 140 -86q65 0 99 24.5t34 67.5q0 73 -103 90l-102 17q-199 36 -199 198q0 95 68 151.5t194 56.5q121 0 189 -53t78 -154v-5q0 -13 -16 -13h-99q-15 0 -18 17q-7 47 -39.5 68t-94.5 21q-127 0 -127 -87q0 -36 26 -56.5t93 -32.5l102 -18
q184 -30 184 -194q0 -103 -71 -160t-197 -57q-121 0 -192 53t-84 150v4q0 14 17 14z" />
    <glyph glyph-name="T" unicode="T" horiz-adv-x="594" 
d="M23 682q0 18 18 18h512q18 0 18 -18v-89q0 -18 -18 -18h-189v-557q0 -18 -18 -18h-98q-18 0 -18 18v557h-189q-18 0 -18 18v89z" />
    <glyph glyph-name="U" unicode="U" horiz-adv-x="722" 
d="M91 700h98q18 0 18 -18v-388q0 -177 154 -177t154 177v388q0 18 18 18h98q18 0 18 -18v-399q0 -141 -76 -218t-212 -77t-212 77t-76 218v399q0 18 18 18z" />
    <glyph glyph-name="V" unicode="V" horiz-adv-x="692" 
d="M33 700h105q15 0 20 -14l187 -506h2l186 506q6 14 20 14h106q16 0 16 -11q0 -4 -2 -9l-256 -666q-6 -14 -20 -14h-102q-15 0 -20 14l-256 666q-2 5 -2 9q0 11 16 11z" />
    <glyph glyph-name="W" unicode="W" horiz-adv-x="1054" 
d="M25 695q4 5 13 5h105q15 0 20 -15l147 -481h3l149 481q3 15 19 15h92q16 0 19 -15l150 -481h2l148 481q3 15 20 15h104q9 0 12 -4.5t3 -8.5q0 -3 -1 -7l-211 -665q-5 -15 -20 -15h-100q-16 0 -20 15l-150 473h-3l-150 -473q-4 -15 -20 -15h-101q-15 0 -19 15l-212 665
q-1 4 -1 7q0 5 2 8z" />
    <glyph glyph-name="X" unicode="X" horiz-adv-x="666" 
d="M30 21l222 347l-211 311q-3 5 -3 9q0 3 2.5 7.5t12.5 4.5h112q13 0 21 -12l146 -219h3l145 219q8 12 22 12h112q10 0 12.5 -4.5t2.5 -6.5q0 -5 -4 -10l-211 -312l222 -346q4 -6 4 -11q0 -2 -2 -6t-13 -4h-115q-14 0 -21 12l-154 242h-3l-154 -242q-7 -12 -21 -12h-116
q-15 0 -15 9q0 5 4 12z" />
    <glyph glyph-name="Y" unicode="Y" horiz-adv-x="672" 
d="M18 694q3 6 13 6h112q13 0 21 -12l171 -287h2l171 287q8 12 21 12h112q11 0 13.5 -4t2.5 -7q0 -4 -4 -10l-249 -405v-256q0 -18 -18 -18h-100q-18 0 -18 18v256l-249 405q-3 5 -3 9q0 3 2 6z" />
    <glyph glyph-name="Z" unicode="Z" horiz-adv-x="621" 
d="M53 109l343 468h-327q-17 0 -17 18v87q0 18 17 18h483q18 0 18 -18v-69q0 -11 -7 -22l-343 -468h337q17 0 17 -18v-87q0 -18 -17 -18h-493q-18 0 -18 18v69q0 12 7 22z" />
    <glyph glyph-name="bracketleft" unicode="[" horiz-adv-x="380" 
d="M80 750q0 18 18 18h224q18 0 18 -18v-73q0 -17 -18 -17h-120v-666h120q18 0 18 -17v-73q0 -18 -18 -18h-224q-18 0 -18 18v846z" />
    <glyph glyph-name="backslash" unicode="\" horiz-adv-x="497" 
d="M19 706q4 6 14 6h89q17 0 21 -13l335 -754q2 -6 2 -10q0 -11 -16 -11h-89q-15 0 -21 13l-335 754q-2 4 -2 8t2 7z" />
    <glyph glyph-name="bracketright" unicode="]" horiz-adv-x="380" 
d="M40 750q0 18 18 18h224q18 0 18 -18v-846q0 -18 -18 -18h-224q-18 0 -18 18v73q0 17 18 17h120v666h-120q-18 0 -18 17v73z" />
    <glyph glyph-name="asciicircum" unicode="^" horiz-adv-x="591" 
d="M42 361l183 326q6 13 21 13h99q15 0 22 -13l182 -326q3 -5 3 -9q0 -3 -2.5 -7.5t-12.5 -4.5h-97q-14 0 -20 13l-123 219h-3l-122 -219q-7 -13 -21 -13h-97q-10 0 -12.5 4.5t-2.5 7.5q0 4 3 9z" />
    <glyph glyph-name="underscore" unicode="_" horiz-adv-x="457" 
d="M28 -48h402q17 0 17 -17v-64q0 -18 -17 -18h-402q-18 0 -18 18v64q0 17 18 17z" />
    <glyph glyph-name="grave" unicode="`" 
d="M120 698q3 6 14 6h106q14 0 21 -12l82 -125q3 -5 3 -10q0 -3 -2.5 -7t-12.5 -4h-86q-12 0 -21 10l-100 127q-5 6 -5 11q0 2 1 4z" />
    <glyph glyph-name="a" unicode="a" horiz-adv-x="613" 
d="M106 417q66 71 165 71q50 0 90 -20t60 -57h3v47q0 18 18 18h88q18 0 18 -18v-440q0 -18 -18 -18h-88q-18 0 -18 18v47h-3q-20 -37 -60 -57t-90 -20q-99 0 -165 71.5t-66 178.5t66 179zM205 141q35 -39 93 -39t93 38.5t35 97.5t-35 97t-93 38t-93 -38q-36 -38 -36 -97
t36 -97z" />
    <glyph glyph-name="b" unicode="b" horiz-adv-x="615" 
d="M66 18v664q0 18 17 18h91q18 0 18 -18v-271h4q20 37 60 57t90 20q97 0 162.5 -71.5t65.5 -178.5t-66 -178.5t-164 -71.5q-50 0 -90 20t-60 57h-4v-47q0 -18 -18 -18h-89q-17 0 -17 18zM224 141q35 -39 93 -39t93.5 38.5t35.5 97.5t-35.5 97t-93.5 38t-93.5 -38t-35.5 -97
t36 -97z" />
    <glyph glyph-name="c" unicode="c" horiz-adv-x="575" 
d="M111 417q70 71 183 71q94 0 159 -50t79 -133v-4q0 -14 -17 -14h-93q-16 0 -20 15q-23 71 -108 71q-57 0 -91 -37t-34 -98t34 -98.5t91 -37.5q40 0 68.5 19t38.5 53q5 15 20 15h94q17 0 17 -13v-4q-14 -83 -79 -133.5t-159 -50.5q-113 0 -183.5 71.5t-70.5 178.5t71 179z
" />
    <glyph glyph-name="d" unicode="d" horiz-adv-x="615" 
d="M107 417q65 71 162 71q50 0 90 -20t60 -57h4v271q0 18 18 18h91q17 0 17 -18v-664q0 -18 -17 -18h-89q-18 0 -18 18v47h-4q-20 -37 -60 -57t-90 -20q-98 0 -164 71.5t-66 178.5t66 179zM169 238q0 -59 35.5 -97.5t93.5 -38.5t93.5 38.5t35.5 97.5t-35.5 97t-93.5 38
t-93 -38q-36 -38 -36 -97z" />
    <glyph glyph-name="e" unicode="e" horiz-adv-x="580" 
d="M40 237q0 109 70.5 180t182.5 71q109 0 178 -69t69 -180v-13q0 -25 -24 -25h-350q16 -113 132 -113q82 0 107 49q8 14 21 14h84q9 0 13.5 -3.5t4.5 -7.5q0 -2 -1 -4q-20 -66 -81 -107t-150 -41q-115 0 -185.5 69.5t-70.5 179.5zM168 284h245q-17 105 -120 105
q-105 0 -125 -105z" />
    <glyph glyph-name="f" unicode="f" horiz-adv-x="409" 
d="M36 476h82v31q0 208 191 208q44 0 77 -10q14 -4 14 -19v-73q0 -16 -12 -16q-3 0 -7 1q-20 4 -44 4q-51 0 -72 -22t-21 -75v-29h131q18 0 18 -18v-73q0 -18 -18 -18h-131v-349q0 -18 -18 -18h-90q-18 0 -18 18v349h-82q-17 0 -17 18v73q0 18 17 18z" />
    <glyph glyph-name="g" unicode="g" horiz-adv-x="613" 
d="M40 241q0 105 66 176t164 71q50 0 90.5 -20t60.5 -57h4v47q0 18 18 18h87q18 0 18 -18v-447q0 -112 -68.5 -175.5t-188.5 -63.5q-101 0 -164.5 44.5t-75.5 121.5v4q0 14 17 14h89q15 0 19 -15q20 -64 116 -64q66 0 100 34.5t34 99.5v65h-4q-20 -37 -60.5 -56.5
t-91.5 -19.5q-98 0 -164 68.5t-66 172.5zM205 146q35 -38 93 -38t93 37.5t35 95.5t-35 95.5t-93 37.5t-93 -37q-36 -38 -36 -96t36 -95z" />
    <glyph glyph-name="h" unicode="h" horiz-adv-x="590" 
d="M83 700h91q18 0 18 -18v-274h4q19 38 59 59t91 21q86 0 135 -53t49 -146v-271q0 -18 -18 -18h-90q-18 0 -18 18v239q0 115 -100 115q-52 0 -82 -31t-30 -86v-237q0 -18 -18 -18h-91q-17 0 -17 18v664q0 18 17 18z" />
    <glyph glyph-name="i" unicode="i" horiz-adv-x="257" 
d="M66 458q0 18 17 18h91q18 0 18 -18v-440q0 -18 -18 -18h-91q-17 0 -17 18v440zM70 688q23 22 59 22q35 0 58 -22.5t23 -57.5t-23 -58t-58 -23q-36 0 -59 23t-23 58t23 58z" />
    <glyph glyph-name="j" unicode="j" horiz-adv-x="257" 
d="M-40 -110q14 -2 25 -2q44 0 62.5 20t18.5 71v479q0 18 17 18h91q18 0 18 -18v-488q0 -102 -44 -150t-132 -48q-33 0 -60 6q-15 4 -15 19v77q0 16 14 16h5zM47 630q0 35 23 57.5t59 22.5q35 0 58 -22.5t23 -57.5t-23 -58t-58 -23q-36 0 -59 23t-23 58z" />
    <glyph glyph-name="k" unicode="k" horiz-adv-x="567" 
d="M66 18v664q0 18 17 18h91q18 0 18 -18v-390h48q14 0 21 -1l121 174q8 11 22 11h109q11 0 13 -4.5t2 -6.5q0 -5 -4 -10l-138 -195q125 -64 152 -241v-5q0 -14 -17 -14h-97q-16 0 -18 17q-16 87 -59 124t-124 37h-31v-160q0 -18 -18 -18h-91q-17 0 -17 18z" />
    <glyph glyph-name="l" unicode="l" horiz-adv-x="257" 
d="M83 700h91q18 0 18 -18v-664q0 -18 -18 -18h-91q-17 0 -17 18v664q0 18 17 18z" />
    <glyph glyph-name="m" unicode="m" horiz-adv-x="880" 
d="M66 18v440q0 18 17 18h87q18 0 18 -18v-52h4q18 39 55.5 60.5t86.5 21.5q104 0 147 -90h3q22 43 64.5 66.5t97.5 23.5q81 0 127.5 -52.5t46.5 -145.5v-272q0 -18 -17 -18h-91q-18 0 -18 18v240q0 114 -88 114q-45 0 -72.5 -30.5t-27.5 -85.5v-238q0 -18 -18 -18h-90
q-18 0 -18 18v240q0 114 -88 114q-45 0 -72.5 -30.5t-27.5 -85.5v-238q0 -18 -18 -18h-91q-17 0 -17 18z" />
    <glyph glyph-name="n" unicode="n" horiz-adv-x="590" 
d="M83 476h89q17 0 17 -18v-50h3q42 80 154 80q86 0 135 -53t49 -146v-271q0 -18 -18 -18h-90q-18 0 -18 18v239q0 115 -100 115q-52 0 -82 -31t-30 -86v-237q0 -18 -18 -18h-91q-17 0 -17 18v440q0 18 17 18z" />
    <glyph glyph-name="o" unicode="o" horiz-adv-x="595" 
d="M40 238q0 107 73.5 178.5t184.5 71.5t183.5 -71.5t72.5 -178.5t-72 -178q-73 -72 -184 -72t-184.5 71.5t-73.5 178.5zM169 238q0 -59 36 -97q35 -39 93 -39t93 38.5t35 97.5t-35 97t-93 38t-93.5 -38t-35.5 -97z" />
    <glyph glyph-name="p" unicode="p" horiz-adv-x="615" 
d="M66 -198v656q0 18 17 18h89q17 0 17 -18v-47h5q20 37 60 57t90 20q98 0 164 -71.5t66 -178.5t-65.5 -178.5t-162.5 -71.5q-50 0 -90 20t-61 57h-3v-263q0 -18 -18 -18h-91q-17 0 -17 18zM224 141q35 -39 93 -39t93.5 38.5t35.5 97.5t-35.5 97t-93.5 38t-93.5 -38
t-35.5 -97t36 -97z" />
    <glyph glyph-name="q" unicode="q" horiz-adv-x="615" 
d="M41 238q0 107 66 178.5t164 71.5q50 0 90 -20t60 -57h5v47q0 18 17 18h89q17 0 17 -18v-656q0 -18 -17 -18h-91q-18 0 -18 18v263h-3q-21 -37 -61 -57t-90 -20q-97 0 -162.5 71.5t-65.5 178.5zM205 141q35 -39 93 -39t93.5 38.5t35.5 97.5t-35.5 97t-93.5 38t-93 -38
q-36 -38 -36 -97t36 -97z" />
    <glyph glyph-name="r" unicode="r" horiz-adv-x="399" 
d="M66 18v440q0 18 17 18h88q18 0 18 -18v-68h2q19 46 57.5 70.5t87.5 24.5q11 0 27 -2q15 -4 15 -20v-84q0 -16 -15 -16h-4q-9 1 -29 1q-138 0 -138 -167v-179q0 -18 -18 -18h-91q-17 0 -17 18z" />
    <glyph glyph-name="s" unicode="s" horiz-adv-x="505" 
d="M42 137q5 5 14 5h90q13 0 19 -16q16 -44 90 -44q87 0 87 55q0 23 -17 34.5t-61 17.5l-75 10q-75 10 -112.5 46t-37.5 93q0 68 54 109t157 41q189 0 210 -141v-5q0 -14 -16 -14h-88q-15 0 -19 16q-14 49 -88 49q-86 0 -86 -53q0 -19 17.5 -30t62.5 -17l74 -10
q149 -20 149 -141q0 -73 -55.5 -113.5t-156.5 -40.5q-95 0 -149.5 35.5t-65.5 99.5q-1 2 -1 4q0 6 4 10z" />
    <glyph glyph-name="t" unicode="t" horiz-adv-x="443" 
d="M14 385v73q0 18 18 18h83v114q0 18 17 18h91q18 0 18 -18v-114h150q18 0 18 -18v-73q0 -18 -18 -18h-150v-176q0 -48 20.5 -68.5t66.5 -20.5q37 0 65 12q6 2 10 2q10 0 10 -15v-76q0 -13 -12 -19q-42 -18 -99 -18q-187 0 -187 189v190h-83q-18 0 -18 18z" />
    <glyph glyph-name="u" unicode="u" horiz-adv-x="586" 
d="M60 458q0 18 17 18h91q18 0 18 -18v-240q0 -115 96 -115q52 0 82.5 31.5t30.5 85.5v238q0 18 17 18h91q18 0 18 -18v-440q0 -18 -18 -18h-88q-18 0 -18 18v50h-3q-41 -80 -153 -80q-85 0 -133 52.5t-48 146.5v271z" />
    <glyph glyph-name="v" unicode="v" horiz-adv-x="548" 
d="M33 476h99q16 0 20 -14l121 -313h2l121 313q6 14 21 14h98q16 0 16 -11q0 -4 -2 -9l-187 -442q-5 -14 -21 -14h-94q-16 0 -21 14l-187 442q-2 5 -2 9q0 11 16 11z" />
    <glyph glyph-name="w" unicode="w" horiz-adv-x="850" 
d="M26 471q4 5 13 5h96q16 0 20 -15l100 -309h3l105 309q5 15 20 15h84q15 0 20 -15l105 -309h3l100 309q5 15 20 15h96q9 0 12 -4.5t3 -8.5q0 -3 -1 -7l-157 -442q-6 -14 -20 -14h-99q-14 0 -20 14l-103 295h-2l-103 -295q-5 -14 -20 -14h-99q-15 0 -20 14l-157 442
q-1 4 -1 7q0 5 2 8z" />
    <glyph glyph-name="x" unicode="x" horiz-adv-x="543" 
d="M31 21l165 223l-159 211q-4 5 -4 10q0 2 2 6.5t13 4.5h101q13 0 21 -11l100 -135h3l100 135q8 11 21 11h101q11 0 13.5 -4.5t2.5 -6.5q0 -5 -5 -10l-158 -211l164 -223q4 -6 4 -11q0 -2 -2 -6t-13 -4h-102q-13 0 -21 11l-105 143h-3l-105 -143q-8 -11 -21 -11h-102
q-11 0 -13 4t-2 6q0 5 4 11z" />
    <glyph glyph-name="y" unicode="y" horiz-adv-x="591" 
d="M76 -52h87q14 0 19 -16q20 -55 104 -55q118 0 118 122v82h-4q-19 -36 -59.5 -57t-94.5 -21q-86 0 -134.5 52t-48.5 145v258q0 18 18 18h91q17 0 17 -18v-227q0 -115 98 -115q52 0 82 31t30 86v225q0 18 18 18h90q18 0 18 -18v-459q0 -107 -63.5 -167t-175.5 -60
q-97 0 -156.5 42.5t-70.5 115.5v4q0 14 17 14z" />
    <glyph glyph-name="z" unicode="z" horiz-adv-x="492" 
d="M47 96l238 271h-222q-17 0 -17 18v73q0 18 17 18h371q17 0 17 -18v-56q0 -14 -8 -22l-237 -271h230q17 0 17 -18v-73q0 -18 -17 -18h-380q-18 0 -18 18v56q0 12 9 22z" />
    <glyph glyph-name="braceleft" unicode="{" horiz-adv-x="405" 
d="M49 289v76q0 17 18 19q31 2 44 15.5t13 43.5v185q0 74 34.5 107t112.5 33h73q17 0 17 -18v-73q0 -17 -17 -17h-41q-58 0 -58 -57v-157q0 -99 -86 -118v-2q86 -19 86 -118v-157q0 -57 58 -57h41q17 0 17 -17v-73q0 -18 -17 -18h-73q-78 0 -112.5 33t-34.5 107v185
q0 31 -13.5 44t-43.5 15q-18 2 -18 19z" />
    <glyph glyph-name="bar" unicode="|" horiz-adv-x="288" 
d="M98 774h92q18 0 18 -18v-824q0 -18 -18 -18h-92q-18 0 -18 18v824q0 18 18 18z" />
    <glyph glyph-name="braceright" unicode="}" horiz-adv-x="405" 
d="M44 -23q0 17 17 17h41q58 0 58 57v157q0 99 86 118v2q-86 19 -86 118v157q0 57 -58 57h-41q-17 0 -17 17v73q0 18 17 18h73q78 0 112.5 -33t34.5 -107v-185q0 -30 13 -43.5t44 -15.5q18 -2 18 -19v-76q0 -17 -18 -19q-30 -2 -43.5 -15t-13.5 -44v-185q0 -74 -34.5 -107
t-112.5 -33h-73q-17 0 -17 18v73z" />
    <glyph glyph-name="asciitilde" unicode="~" 
d="M87 361q50 34 110 34q35 0 104.5 -22.5t102.5 -22.5q54 0 100 28q7 4 12 4q9 0 9 -15v-72q0 -13 -12 -22q-53 -34 -108 -34q-37 0 -105 23t-105 23q-49 0 -98 -29q-7 -4 -12 -4q-2 0 -6 2t-4 13v73q0 14 12 21z" />
    <glyph glyph-name="uni00A0" unicode="&#xa0;" horiz-adv-x="240" 
 />
    <glyph glyph-name="exclamdown" unicode="&#xa1;" horiz-adv-x="302" 
d="M94 228q0 18 18 18h78q18 0 18 -18l12 -432q0 -18 -17 -18h-105q-16 0 -16 18zM91 466q23 22 60 22t60 -22.5t23 -59.5t-23 -60t-60 -23t-60 23t-23 60t23 60z" />
    <glyph glyph-name="cent" unicode="&#xa2;" horiz-adv-x="593" 
d="M104 512q54 67 145 83v99q0 18 18 18h67q18 0 18 -18v-98q76 -12 126.5 -60t62.5 -119v-5q0 -13 -16 -13h-94q-15 0 -20 15q-15 50 -67 66v-260q50 16 67 66q5 15 20 15h93q17 0 17 -13v-4q-12 -72 -62.5 -120t-126.5 -60v-98q0 -18 -18 -18h-67q-18 0 -18 18v99
q-91 16 -145 83.5t-54 161.5t54 162zM179 350q0 -47 21 -80.5t58 -46.5v255q-37 -13 -58 -47t-21 -81z" />
    <glyph glyph-name="sterling" unicode="&#xa3;" horiz-adv-x="593" 
d="M52 365q0 18 17 18h48v113q0 102 56 159t159 57q96 0 151 -49t62 -149v-3q0 -15 -17 -15h-90q-18 0 -19 18q-7 81 -84 81q-89 0 -89 -110v-102h205q17 0 17 -18v-64q0 -18 -17 -18h-205v-166h281q18 0 18 -18v-81q0 -18 -18 -18h-458q-17 0 -17 18v81q0 18 17 18h48v166
h-48q-17 0 -17 18v64z" />
    <glyph glyph-name="currency" unicode="&#xa4;" horiz-adv-x="621" 
d="M73 161l71 72q-35 53 -35 117q0 67 36 117l-72 72q-7 6 -7 13q0 6 7 12l24 24q6 6 13 6q6 0 12 -6l73 -73q52 36 123 36q62 0 115 -29l66 66q6 6 13 6q6 0 12 -6l25 -24q6 -6 7 -12q-1 -7 -7 -13l-63 -63q43 -54 43 -126q0 -75 -43 -126l63 -63q6 -6 7 -13q-1 -6 -7 -12
l-25 -24q-6 -6 -12 -6q-7 0 -13 6l-66 66q-51 -30 -115 -30q-71 0 -124 36l-72 -72q-6 -6 -12 -6q-7 0 -13 6l-24 24q-7 6 -7 12q0 7 7 13zM226 350q0 -43 25 -70q25 -28 67 -28t67.5 27.5t25.5 70.5t-25.5 70.5t-67.5 27.5q-41 0 -66.5 -27.5t-25.5 -70.5z" />
    <glyph glyph-name="yen" unicode="&#xa5;" horiz-adv-x="620" 
d="M28 694q3 6 13 6h103q14 0 21 -13l144 -271h2l144 271q7 13 21 13h104q10 0 12.5 -4.5t2.5 -7.5q0 -4 -3 -9l-182 -321h119q18 0 18 -17v-44q0 -17 -18 -17h-155v-78h155q18 0 18 -17v-43q0 -18 -18 -18h-155v-106q0 -18 -18 -18h-91q-18 0 -18 18v106h-156q-17 0 -17 18
v43q0 17 17 17h156v78h-156q-17 0 -17 17v44q0 17 17 17h120l-182 321q-3 4 -3 9q0 3 2 6z" />
    <glyph glyph-name="brokenbar" unicode="&#xa6;" horiz-adv-x="288" 
d="M98 262h92q18 0 18 -18v-312q0 -18 -18 -18h-92q-18 0 -18 18v312q0 18 18 18zM80 756q0 18 18 18h92q18 0 18 -18v-312q0 -18 -18 -18h-92q-18 0 -18 18v312z" />
    <glyph glyph-name="section" unicode="&#xa7;" horiz-adv-x="552" 
d="M133 436q-76 42 -76 126q0 78 58 125t163 47q197 0 218 -168v-4q0 -14 -17 -14h-84q-16 0 -19 16q-12 62 -102 62t-90 -62q0 -24 16 -38t57 -23l87 -20q81 -19 118.5 -57.5t37.5 -100.5q0 -98 -78 -136q76 -41 76 -126q0 -80 -58.5 -126.5t-163.5 -46.5
q-98 0 -155.5 43.5t-66.5 127.5v5q0 14 17 14h85q15 0 18 -17q14 -66 105 -66q92 0 92 62q0 46 -74 63l-83 20q-162 38 -162 160q0 96 81 134zM192 267q17 -17 61 -27l24 -6q14 -4 26 -4q26 0 50.5 19.5t24.5 62.5q0 29 -17.5 46.5t-59.5 27.5l-25 6q-13 3 -25 3
q-26 0 -51.5 -19t-25.5 -62q0 -30 18 -47z" />
    <glyph glyph-name="dieresis" unicode="&#xa8;" 
d="M136 680q21 22 53 22q33 0 54 -21.5t21 -54.5t-21 -55t-54 -22q-32 0 -53 22t-21 55q0 32 21 54zM357 681q21 21 54 21q32 0 53 -22t21 -54q0 -33 -21 -55t-53 -22q-33 0 -54 22t-21 55t21 55z" />
    <glyph glyph-name="copyright" unicode="&#xa9;" horiz-adv-x="869" 
d="M176 606q106 106 258 106q153 0 259 -105.5t106 -256.5t-106 -256.5t-259 -105.5q-152 0 -258 106t-106 256t106 256zM150 350q0 -120 81 -204t203 -84t203.5 84t81.5 204t-81.5 204t-203.5 84t-203 -84t-81 -204zM242 350q0 82 55 137.5t142 55.5q71 0 121 -37.5
t62 -97.5q1 -4 1 -7q0 -13 -16 -13h-76q-14 0 -19 16q-19 40 -73 40q-40 0 -63.5 -26t-23.5 -68t23.5 -68t63.5 -26q54 0 73 40q4 16 19 16h76q16 0 16 -13v-4q-11 -61 -61.5 -99.5t-122.5 -38.5q-87 0 -142 55.5t-55 137.5z" />
    <glyph glyph-name="ordfeminine" unicode="&#xaa;" horiz-adv-x="494" 
d="M85 655q52 57 131 57q84 0 117 -59h3v31q0 18 18 18h75q17 0 17 -18v-348q0 -18 -17 -18h-75q-18 0 -18 18v30h-3q-34 -58 -117 -58q-79 0 -131 57t-52 145q0 87 52 145zM150 510q0 -43 25.5 -70.5t66.5 -27.5q42 0 67.5 27.5t25.5 70.5t-25.5 70.5t-67.5 27.5
q-41 0 -66 -27q-26 -28 -26 -71z" />
    <glyph glyph-name="guillemotleft" unicode="&#xab;" horiz-adv-x="576" 
d="M46 249l104 160q8 12 21 12h98q10 0 12.5 -4.5t2.5 -7.5q0 -5 -3 -10l-106 -162l106 -163q3 -5 3 -10q0 -3 -2.5 -7t-12.5 -4h-98q-14 0 -21 11l-104 160q-3 6 -3 13q0 6 3 12zM284 249l104 160q8 12 21 12h98q10 0 12.5 -4.5t2.5 -7.5q0 -5 -3 -10l-106 -162l106 -163
q3 -5 3 -10q0 -3 -2.5 -7t-12.5 -4h-98q-14 0 -21 11l-104 160q-3 6 -3 13q0 6 3 12z" />
    <glyph glyph-name="logicalnot" unicode="&#xac;" 
d="M75 357q0 17 18 17h414q18 0 18 -17v-179q0 -18 -18 -18h-82q-18 0 -18 18v85h-314q-18 0 -18 17v77z" />
    <glyph glyph-name="registered" unicode="&#xae;" horiz-adv-x="544" 
d="M114 647q65 65 158 65t158 -65t65 -157t-65 -157t-158 -65t-158 65t-65 157t65 157zM105 490q0 -72 48 -121q48 -50 119 -50t119 49.5t48 121.5t-48 121.5t-119 49.5t-119 -49.5t-48 -121.5zM182 591q0 18 17 18h84q89 0 89 -81q0 -59 -49 -74l39 -55q4 -6 4 -11
q0 -2 -2 -6t-13 -4h-25q-15 0 -22 11l-40 60h-25v-54q0 -17 -18 -17h-22q-17 0 -17 17v196zM280 498q32 0 32 29t-32 29h-41v-58h41z" />
    <glyph glyph-name="macron" unicode="&#xaf;" 
d="M163 661h274q17 0 17 -18v-62q0 -17 -17 -17h-274q-17 0 -17 17v62q0 18 17 18z" />
    <glyph glyph-name="degree" unicode="&#xb0;" horiz-adv-x="397" 
d="M83 669q45 45 116 45q70 0 115.5 -45t45.5 -112q0 -68 -45.5 -113t-115.5 -45q-71 0 -116.5 45t-45.5 113q0 67 46 112zM131 557q0 -31 18.5 -50.5t49.5 -19.5q30 0 48.5 19.5t18.5 50.5q0 30 -18.5 49.5t-48.5 19.5q-31 0 -49.5 -19.5t-18.5 -49.5z" />
    <glyph glyph-name="plusminus" unicode="&#xb1;" 
d="M93 448h148v141q0 18 17 18h84q17 0 17 -18v-141h148q18 0 18 -17v-77q0 -17 -18 -17h-148v-141q0 -18 -17 -18h-84q-17 0 -17 18v141h-148q-18 0 -18 17v77q0 17 18 17zM75 94q0 18 18 18h414q18 0 18 -18v-76q0 -18 -18 -18h-414q-18 0 -18 18v76z" />
    <glyph glyph-name="twosuperior" unicode="&#xb2;" horiz-adv-x="324" 
d="M26 363q0 65 19 99.5t76 62.5l47 22q43 21 43 47q0 36 -43 36q-37 0 -46 -35q-5 -16 -19 -16h-57q-18 0 -18 15v3q6 54 42 84.5t98 30.5t97.5 -31t35.5 -85q0 -73 -88 -115l-46 -22q-23 -11 -33 -20t-14 -25h159q17 0 17 -18v-46q0 -18 -17 -18h-235q-18 0 -18 18v13z
" />
    <glyph glyph-name="threesuperior" unicode="&#xb3;" horiz-adv-x="331" 
d="M44 451h57q12 0 19 -16q9 -28 48 -28q22 0 34.5 10.5t12.5 28.5q0 36 -49 36h-15q-18 0 -18 18v40q0 18 18 18h13q47 0 47 38q0 33 -43 33q-37 0 -46 -29q-5 -16 -18 -16h-57q-17 0 -17 14v4q6 49 42 80q36 30 95 30q62 0 98 -29t36 -76q0 -62 -58 -86q64 -21 64 -87
q0 -48 -37.5 -79t-103.5 -31q-61 0 -99 32q-34 28 -40 77v4q0 14 17 14z" />
    <glyph glyph-name="acute" unicode="&#xb4;" 
d="M243 567l81 125q8 12 21 12h106q11 0 13 -4t2 -7q0 -4 -5 -10l-100 -127q-7 -10 -21 -10h-86q-11 0 -13 4t-2 6q0 5 4 11z" />
    <glyph glyph-name="uni00B5" unicode="&#xb5;" horiz-adv-x="629" 
d="M80 458q0 18 18 18h91q17 0 17 -18v-244q0 -111 96 -111q56 0 88.5 34.5t32.5 103.5v217q0 18 17 18h91q18 0 18 -18v-440q0 -18 -18 -18h-79q-17 0 -17 18v67q-17 -45 -54 -71t-84 -26q-56 0 -91 39v-225q0 -18 -17 -18h-91q-18 0 -18 18v656z" />
    <glyph glyph-name="paragraph" unicode="&#xb6;" horiz-adv-x="650" 
d="M50 578q0 71 51 113.5t143 42.5h95q18 0 18 -18v-828q0 -18 -18 -18h-81q-18 0 -18 18v533h-11q-82 0 -130.5 43t-48.5 114zM470 734h82q18 0 18 -18v-828q0 -18 -18 -18h-82q-17 0 -17 18v828q0 18 17 18z" />
    <glyph glyph-name="periodcentered" unicode="&#xb7;" horiz-adv-x="303" 
d="M69 294q0 37 23 60t60 23t60 -23t23 -60t-23 -59q-23 -23 -60 -23t-60 22.5t-23 59.5z" />
    <glyph glyph-name="cedilla" unicode="&#xb8;" 
d="M199 -164l63 175q6 14 21 14h72q16 0 16 -12q0 -4 -1 -8l-51 -174q-3 -15 -19 -15h-87q-16 0 -16 11q0 4 2 9z" />
    <glyph glyph-name="onesuperior" unicode="&#xb9;" horiz-adv-x="239" 
d="M24 588v53q0 14 12 21l64 36q8 6 22 6h53q18 0 18 -17v-337q0 -18 -18 -18h-55q-18 0 -18 18v258l-57 -33q-5 -3 -10 -3q-3 0 -7 2.5t-4 13.5z" />
    <glyph glyph-name="ordmasculine" unicode="&#xba;" horiz-adv-x="485" 
d="M92 655q59 57 150 57q92 0 151.5 -57.5t59.5 -144.5t-60 -144q-60 -58 -151 -58t-150 57.5t-59 144.5t59 145zM150 510q0 -43 25.5 -70.5t66.5 -27.5q42 0 67.5 27.5t25.5 70.5t-25.5 70.5t-67.5 27.5q-41 0 -66.5 -27.5t-25.5 -70.5z" />
    <glyph glyph-name="guillemotright" unicode="&#xbb;" horiz-adv-x="576" 
d="M294 415q3 6 13 6h98q13 0 21 -12l104 -160q3 -6 4 -12q-1 -7 -4 -13l-104 -160q-7 -11 -21 -11h-98q-10 0 -12.5 4t-2.5 7q0 5 3 10l106 163l-106 162q-3 5 -3 9t2 7zM56 415q3 6 13 6h98q13 0 21 -12l104 -160q3 -6 4 -12q-1 -7 -4 -13l-104 -160q-7 -11 -21 -11h-98
q-10 0 -12.5 4t-2.5 7q0 5 3 10l106 163l-106 162q-3 5 -3 9t2 7z" />
    <glyph glyph-name="onequarter" unicode="&#xbc;" horiz-adv-x="738" 
d="M101 21l410 667q7 12 21 12h72q10 0 12.5 -4t2.5 -7q0 -5 -3 -10l-410 -667q-7 -12 -21 -12h-71q-11 0 -13.5 4t-2.5 7q0 5 3 10zM394 129q0 12 7 22l153 211q7 10 21 10h67q18 0 18 -17v-209h21q18 0 18 -18v-42q0 -18 -18 -18h-21v-50q0 -18 -18 -18h-49q-18 0 -18 18
v50h-164q-17 0 -17 18v43zM36 636q0 13 12 22l64 36q10 6 23 6h53q18 0 18 -18v-337q0 -17 -18 -17h-56q-17 0 -17 17v259l-57 -33q-5 -3 -10 -3q-3 0 -7.5 2.5t-4.5 12.5v53zM487 146h88v121z" />
    <glyph glyph-name="onehalf" unicode="&#xbd;" horiz-adv-x="783" 
d="M101 21l410 667q7 12 21 12h72q10 0 12.5 -4t2.5 -7q0 -5 -3 -10l-410 -667q-7 -12 -21 -12h-71q-11 0 -13.5 4t-2.5 7q0 5 3 10zM465 18v13q0 65 19 99.5t76 62.5l46 22q43 20 43 47q0 36 -42 36q-37 0 -47 -35q-3 -16 -18 -16h-58q-17 0 -17 15v3q6 54 42 84.5t97 30.5
q63 0 98.5 -31t35.5 -85q0 -72 -89 -115l-46 -22q-22 -11 -32 -20t-14 -25h158q18 0 18 -18v-46q0 -18 -18 -18h-234q-18 0 -18 18zM36 636q0 13 12 22l64 36q10 6 23 6h53q18 0 18 -18v-337q0 -17 -18 -17h-56q-17 0 -17 17v259l-57 -33q-5 -3 -10 -3q-3 0 -7.5 2.5
t-4.5 12.5v53z" />
    <glyph glyph-name="threequarters" unicode="&#xbe;" horiz-adv-x="799" 
d="M163 21l409 667q7 12 21 12h72q11 0 13.5 -4t2.5 -7q0 -4 -4 -10l-409 -667q-7 -12 -21 -12h-72q-11 0 -13.5 4t-2.5 7q0 4 4 10zM462 151l153 211q7 10 22 10h66q18 0 18 -17v-209h22q17 0 17 -18v-42q0 -18 -17 -18h-22v-50q0 -18 -18 -18h-49q-17 0 -17 18v50h-164
q-18 0 -18 18v43q0 12 7 22zM44 451h57q12 0 19 -16q9 -28 48 -28q22 0 34.5 10.5t12.5 28.5q0 36 -49 36h-15q-18 0 -18 18v40q0 18 18 18h13q47 0 47 38q0 33 -43 33q-37 0 -46 -29q-5 -16 -18 -16h-57q-17 0 -17 14v4q6 49 42 80q36 30 95 30q62 0 98 -29t36 -76
q0 -62 -58 -86q64 -21 64 -87q0 -48 -37.5 -79t-103.5 -31q-61 0 -99 32q-34 28 -40 77v4q0 14 17 14zM637 146v122l-88 -122h88z" />
    <glyph glyph-name="questiondown" unicode="&#xbf;" horiz-adv-x="497" 
d="M59 18q19 35 67 76l44 36q24 21 31 35t7 42v24q0 18 18 18h86q18 0 18 -18v-29q0 -50 -14.5 -77.5t-63.5 -68.5l-46 -38q-44 -38 -44 -74q0 -65 78 -65q87 0 101 84q3 17 19 17h85q17 0 17 -14v-4q-8 -93 -64.5 -144t-154.5 -51q-95 0 -149.5 47t-54.5 127q0 42 20 77z
M186 406q0 37 23 60q23 22 60 22t59.5 -22.5t22.5 -59.5t-22.5 -60t-59.5 -23t-60 23t-23 60z" />
    <glyph glyph-name="Agrave" unicode="&#xc0;" horiz-adv-x="727" 
d="M20 20l267 666q6 14 21 14h111q15 0 21 -14l268 -666q2 -5 2 -9q0 -11 -16 -11h-103q-16 0 -20 14l-47 123h-321l-47 -123q-4 -14 -20 -14h-103q-15 0 -15 10q0 4 2 10zM478 256l-113 292h-3l-113 -292h229zM215 922q3 6 14 6h106q13 0 21 -12l82 -125q3 -5 3 -10
q0 -3 -2.5 -7t-12.5 -4h-86q-12 0 -21 10l-100 127q-5 6 -5 11q0 2 1 4z" />
    <glyph glyph-name="Aacute" unicode="&#xc1;" horiz-adv-x="727" 
d="M20 20l267 666q6 14 21 14h111q15 0 21 -14l268 -666q2 -5 2 -9q0 -11 -16 -11h-103q-16 0 -20 14l-47 123h-321l-47 -123q-4 -14 -20 -14h-103q-15 0 -15 10q0 4 2 10zM249 256h229l-113 292h-3zM283 791l81 125q8 12 21 12h106q11 0 13 -4t2 -7q0 -4 -5 -10l-100 -127
q-7 -10 -21 -10h-86q-11 0 -13 4t-2 6q0 5 4 11z" />
    <glyph glyph-name="Acircumflex" unicode="&#xc2;" horiz-adv-x="727" 
d="M20 20l267 666q6 14 21 14h111q15 0 21 -14l268 -666q2 -5 2 -9q0 -11 -16 -11h-103q-16 0 -20 14l-47 123h-321l-47 -123q-4 -14 -20 -14h-103q-15 0 -15 10q0 4 2 10zM187 791l107 127q9 10 22 10h94q13 0 22 -10l107 -127q5 -6 5 -11q0 -3 -2 -7t-13 -4h-82
q-13 0 -22 10l-61 74h-2l-61 -74q-7 -10 -22 -10h-82q-11 0 -13 4t-2 7q0 5 5 11zM478 256l-113 292h-3l-113 -292h229z" />
    <glyph glyph-name="Atilde" unicode="&#xc3;" horiz-adv-x="727" 
d="M20 20l267 666q6 14 21 14h111q15 0 21 -14l268 -666q2 -5 2 -9q0 -11 -16 -11h-103q-16 0 -20 14l-47 123h-321l-47 -123q-4 -14 -20 -14h-103q-15 0 -15 10q0 4 2 10zM186 791q6 132 101 132q36 0 88 -36q31 -22 48 -22q25 0 29 38q2 18 18 18h55q16 0 16 -20v-7
q-9 -123 -100 -123q-38 0 -88 35q-31 22 -48 22q-25 0 -29 -38q-2 -18 -18 -18h-55q-17 0 -17 19zM478 256l-113 292h-3l-113 -292h229z" />
    <glyph glyph-name="Adieresis" unicode="&#xc4;" horiz-adv-x="727" 
d="M20 20l267 666q6 14 21 14h111q15 0 21 -14l268 -666q2 -5 2 -9q0 -11 -16 -11h-103q-16 0 -20 14l-47 123h-321l-47 -123q-4 -14 -20 -14h-103q-15 0 -15 10q0 4 2 10zM478 256l-113 292h-3l-113 -292h229zM421 905q21 21 54 21q32 0 53 -22t21 -54q0 -33 -21 -55
t-53 -22q-33 0 -54 22t-21 55t21 55zM179 850q0 32 21 54t53 22q33 0 54 -21.5t21 -54.5t-21 -55t-54 -22q-32 0 -53 22t-21 55z" />
    <glyph glyph-name="Aring" unicode="&#xc5;" horiz-adv-x="727" 
d="M20 20l267 666q6 14 21 14h111q15 0 21 -14l268 -666q2 -5 2 -9q0 -11 -16 -11h-103q-16 0 -20 14l-47 123h-321l-47 -123q-4 -14 -20 -14h-103q-15 0 -15 10q0 4 2 10zM270 972q38 36 94 36t94 -36t38 -87q0 -52 -38 -88t-94 -36t-94 36t-38 88q0 51 38 87zM249 256h229
l-113 292h-3zM326 847q14 -15 38 -15t38 14.5t14 38.5q0 23 -14 38q-14 14 -38 14t-38 -14.5t-14 -37.5q0 -24 14 -38z" />
    <glyph glyph-name="AE" unicode="&#xc6;" horiz-adv-x="1074" 
d="M15 21l434 667q7 12 21 12h532q18 0 18 -18v-87q0 -18 -18 -18h-337v-166h265q18 0 18 -18v-86q0 -18 -18 -18h-265v-166h341q18 0 18 -18v-87q0 -18 -18 -18h-457q-18 0 -18 18v121h-287l-82 -127q-8 -12 -21 -12h-114q-10 0 -12.5 4.5t-2.5 7.5q0 4 3 9zM321 259h210
v320h-3z" />
    <glyph glyph-name="Ccedilla" unicode="&#xc7;" horiz-adv-x="804" 
d="M153 608q103 104 260 104q127 0 220 -70.5t117 -194.5q1 -4 1 -7q0 -12 -16 -12h-104q-16 0 -19 16q-19 68 -71.5 105t-127.5 37q-101 0 -163 -65t-62 -171t62 -171t163 -65q75 0 127.5 37t71.5 105q3 16 19 16h104q16 0 16 -13q0 -3 -1 -7q-21 -109 -98 -177.5
t-185 -82.5l-47 -161q-3 -15 -19 -15h-87q-16 0 -16 11q0 4 2 9l56 156q-135 19 -220.5 119.5t-85.5 238.5q0 153 103 258z" />
    <glyph glyph-name="Egrave" unicode="&#xc8;" horiz-adv-x="623" 
d="M80 18v664q0 18 18 18h453q18 0 18 -18v-87q0 -18 -18 -18h-337v-166h265q18 0 18 -18v-86q0 -18 -18 -18h-265v-166h341q18 0 18 -18v-87q0 -18 -18 -18h-457q-18 0 -18 18zM173 922q3 6 14 6h106q13 0 21 -12l82 -125q3 -5 3 -10q0 -3 -2.5 -7t-12.5 -4h-86
q-12 0 -21 10l-100 127q-5 6 -5 11q0 2 1 4z" />
    <glyph glyph-name="Eacute" unicode="&#xc9;" horiz-adv-x="623" 
d="M80 682q0 18 18 18h453q18 0 18 -18v-87q0 -18 -18 -18h-337v-166h265q18 0 18 -18v-86q0 -18 -18 -18h-265v-166h341q18 0 18 -18v-87q0 -18 -18 -18h-457q-18 0 -18 18v664zM242 791l81 125q7 12 21 12h106q11 0 13 -4t2 -7q0 -4 -5 -10l-100 -127q-7 -10 -21 -10h-86
q-11 0 -13 4t-2 6q0 5 4 11z" />
    <glyph glyph-name="Ecircumflex" unicode="&#xca;" horiz-adv-x="623" 
d="M98 700h453q18 0 18 -18v-87q0 -18 -18 -18h-337v-166h265q18 0 18 -18v-86q0 -18 -18 -18h-265v-166h341q18 0 18 -18v-87q0 -18 -18 -18h-457q-18 0 -18 18v664q0 18 18 18zM146 791l107 127q9 10 22 10h94q13 0 22 -10l107 -127q5 -6 5 -11q0 -3 -2 -7t-13 -4h-82
q-13 0 -22 10l-61 74h-2l-61 -74q-7 -10 -22 -10h-82q-11 0 -13 4t-2 7q0 5 5 11z" />
    <glyph glyph-name="Edieresis" unicode="&#xcb;" horiz-adv-x="623" 
d="M80 682q0 18 18 18h453q18 0 18 -18v-87q0 -18 -18 -18h-337v-166h265q18 0 18 -18v-86q0 -18 -18 -18h-265v-166h341q18 0 18 -18v-87q0 -18 -18 -18h-457q-18 0 -18 18v664zM379 905q21 21 54 21q32 0 53 -22t21 -54q0 -33 -21 -55t-53 -22q-33 0 -54 22t-21 55t21 55z
M158 904q21 22 53 22q33 0 54 -21.5t21 -54.5t-21 -55t-54 -22q-32 0 -53 22t-21 55q0 32 21 54z" />
    <glyph glyph-name="Igrave" unicode="&#xcc;" horiz-adv-x="294" 
d="M80 18v664q0 18 18 18h98q18 0 18 -18v-664q0 -18 -18 -18h-98q-18 0 -18 18zM-2 922q3 6 14 6h106q14 0 21 -12l82 -125q3 -5 3 -10q0 -3 -2.5 -7t-12.5 -4h-86q-12 0 -21 10l-100 127q-5 6 -5 11q0 2 1 4z" />
    <glyph glyph-name="Iacute" unicode="&#xcd;" horiz-adv-x="294" 
d="M80 682q0 18 18 18h98q18 0 18 -18v-664q0 -18 -18 -18h-98q-18 0 -18 18v664zM66 791l81 125q7 12 21 12h106q11 0 13 -4t2 -7q0 -4 -5 -10l-100 -127q-7 -10 -21 -10h-86q-11 0 -13 4t-2 6q0 5 4 11z" />
    <glyph glyph-name="Icircumflex" unicode="&#xce;" horiz-adv-x="294" 
d="M80 18v664q0 18 18 18h98q18 0 18 -18v-664q0 -18 -18 -18h-98q-18 0 -18 18zM-29 791l107 127q9 10 22 10h94q13 0 22 -10l107 -127q5 -6 5 -11q0 -3 -2 -7t-13 -4h-82q-13 0 -22 10l-61 74h-2l-61 -74q-7 -10 -22 -10h-82q-11 0 -13 4t-2 7q0 5 5 11z" />
    <glyph glyph-name="Idieresis" unicode="&#xcf;" horiz-adv-x="294" 
d="M80 682q0 18 18 18h98q18 0 18 -18v-664q0 -18 -18 -18h-98q-18 0 -18 18v664zM183 850q0 33 21 54.5t54 21.5q32 0 53 -22t21 -54q0 -33 -21 -55t-53 -22q-33 0 -54 22t-21 55zM-17 904q21 22 53 22q33 0 54 -21.5t21 -54.5t-21 -55t-54 -22q-32 0 -53 22t-21 55
q0 32 21 54z" />
    <glyph glyph-name="Eth" unicode="&#xd0;" horiz-adv-x="743" 
d="M25 400h73v282q0 18 17 18h219q159 0 259 -98t100 -252t-100 -252t-259 -98h-219q-17 0 -17 18v280h-73q-17 0 -17 18v67q0 17 17 17zM231 125h100q104 0 164 60.5t60 164.5t-60 164.5t-164 60.5h-100v-175h134q17 0 17 -17v-67q0 -18 -17 -18h-134v-173z" />
    <glyph glyph-name="Ntilde" unicode="&#xd1;" horiz-adv-x="769" 
d="M98 700h96q15 0 22 -11l337 -466h2v459q0 18 18 18h98q18 0 18 -18v-664q0 -18 -18 -18h-97q-14 0 -21 11l-338 466h-1v-459q0 -18 -18 -18h-98q-18 0 -18 18v664q0 18 18 18zM207 791q6 132 101 132q36 0 88 -36q31 -22 48 -22q25 0 29 38q1 18 18 18h55q16 0 16 -20v-7
q-9 -123 -100 -123q-38 0 -88 35q-31 22 -48 22q-25 0 -29 -38q-1 -18 -18 -18h-55q-17 0 -17 19z" />
    <glyph glyph-name="Ograve" unicode="&#xd2;" horiz-adv-x="824" 
d="M50 350q0 153 104 257.5t258 104.5t258 -104.5t104 -257.5t-104 -257q-104 -105 -258 -105t-258 104.5t-104 257.5zM188 350q0 -103 62 -169q62 -67 162 -67t162 66.5t62 169.5t-62 169.5t-162 66.5t-162 -66.5t-62 -169.5zM263 922q3 6 14 6h106q13 0 21 -12l82 -125
q3 -5 3 -10q0 -3 -2.5 -7t-12.5 -4h-86q-12 0 -21 10l-100 127q-5 6 -5 11q0 2 1 4z" />
    <glyph glyph-name="Oacute" unicode="&#xd3;" horiz-adv-x="824" 
d="M50 350q0 153 104 257.5t258 104.5t258 -104.5t104 -257.5t-104 -257q-104 -105 -258 -105t-258 104.5t-104 257.5zM188 350q0 -103 62 -169q62 -67 162 -67t162 66.5t62 169.5t-62 169.5t-162 66.5t-162 -66.5t-62 -169.5zM331 791l81 125q8 12 21 12h106q11 0 13 -4
t2 -7q0 -4 -5 -10l-100 -127q-7 -10 -21 -10h-86q-11 0 -13 4t-2 6q0 5 4 11z" />
    <glyph glyph-name="Ocircumflex" unicode="&#xd4;" horiz-adv-x="824" 
d="M154 608q104 104 258 104t258 -104.5t104 -257.5t-104 -257q-104 -105 -258 -105t-258 104.5t-104 257.5t104 258zM188 350q0 -103 62 -169q62 -67 162 -67t162 66.5t62 169.5t-62 169.5t-162 66.5t-162 -66.5t-62 -169.5zM235 791l107 127q9 10 22 10h94q13 0 22 -10
l107 -127q5 -6 5 -11q0 -3 -2 -7t-13 -4h-82q-13 0 -22 10l-61 74h-2l-61 -74q-7 -10 -22 -10h-82q-11 0 -13 4t-2 7q0 5 5 11z" />
    <glyph glyph-name="Otilde" unicode="&#xd5;" horiz-adv-x="824" 
d="M50 350q0 153 104 257.5t258 104.5t258 -104.5t104 -257.5t-104 -257q-104 -105 -258 -105t-258 104.5t-104 257.5zM188 350q0 -103 62 -169q62 -67 162 -67t162 66.5t62 169.5t-62 169.5t-162 66.5t-162 -66.5t-62 -169.5zM335 923q36 0 88 -36q31 -22 48 -22
q25 0 29 38q2 18 18 18h55q16 0 16 -20v-7q-9 -123 -100 -123q-38 0 -88 35q-31 22 -48 22q-25 0 -29 -38q-2 -18 -18 -18h-55q-17 0 -17 19q6 132 101 132z" />
    <glyph glyph-name="Odieresis" unicode="&#xd6;" horiz-adv-x="824" 
d="M50 350q0 153 104 257.5t258 104.5t258 -104.5t104 -257.5t-104 -257q-104 -105 -258 -105t-258 104.5t-104 257.5zM250 181q62 -67 162 -67t162 66.5t62 169.5t-62 169.5t-162 66.5t-162 -66.5t-62 -169.5t62 -169zM448 850q0 33 21 54.5t54 21.5q32 0 53 -22t21 -54
q0 -33 -21 -55t-53 -22q-33 0 -54 22t-21 55zM227 850q0 32 21 54t53 22q33 0 54 -21.5t21 -54.5t-21 -55t-54 -22q-32 0 -53 22t-21 55z" />
    <glyph glyph-name="multiply" unicode="&#xd7;" 
d="M146 112l-51 51q-13 13 0 25l130 129l-130 129q-13 12 0 25l51 51q12 12 25 0l129 -130l129 130q13 12 25 0l51 -51q13 -13 0 -25l-130 -129l130 -129q13 -12 0 -25l-51 -51q-12 -12 -25 0l-129 130l-129 -130q-13 -12 -25 0z" />
    <glyph glyph-name="Oslash" unicode="&#xd8;" horiz-adv-x="824" 
d="M50 350q0 153 104 257.5t258 104.5q77 0 140 -27l43 74q6 10 15 10q5 0 10 -3l50 -28q9 -6 9 -15q0 -5 -3 -10l-43 -74q66 -49 103.5 -124.5t37.5 -164.5q0 -153 -104 -257.5t-258 -104.5q-76 0 -140 27l-44 -75q-5 -10 -13 -10q-5 0 -11 4l-49 28q-9 5 -9 13q0 5 3 11
l43 74q-66 50 -104 125.5t-38 164.5zM258 168l236 408q-39 14 -82 14q-101 0 -164.5 -68t-63.5 -172q0 -114 74 -182zM412 110q101 0 164 68t63 172q0 114 -73 182l-236 -408q39 -14 82 -14z" />
    <glyph glyph-name="Ugrave" unicode="&#xd9;" horiz-adv-x="722" 
d="M73 283v399q0 18 18 18h98q18 0 18 -18v-388q0 -177 154 -177t154 177v388q0 18 18 18h98q18 0 18 -18v-399q0 -141 -76 -218t-212 -77t-212 77t-76 218zM212 922q3 6 14 6h106q14 0 21 -12l82 -125q3 -5 3 -10q0 -3 -2.5 -7t-12.5 -4h-86q-12 0 -21 10l-100 127
q-5 6 -5 11q0 2 1 4z" />
    <glyph glyph-name="Uacute" unicode="&#xda;" horiz-adv-x="722" 
d="M73 283v399q0 18 18 18h98q18 0 18 -18v-388q0 -177 154 -177t154 177v388q0 18 18 18h98q18 0 18 -18v-399q0 -141 -76 -218t-212 -77t-212 77t-76 218zM280 791l81 125q7 12 21 12h106q11 0 13 -4t2 -7q0 -4 -5 -10l-100 -127q-7 -10 -21 -10h-86q-11 0 -13 4t-2 6
q0 5 4 11z" />
    <glyph glyph-name="Ucircumflex" unicode="&#xdb;" horiz-adv-x="722" 
d="M91 700h98q18 0 18 -18v-388q0 -177 154 -177t154 177v388q0 18 18 18h98q18 0 18 -18v-399q0 -141 -76 -218t-212 -77t-212 77t-76 218v399q0 18 18 18zM184 791l107 127q9 10 22 10h94q13 0 22 -10l107 -127q5 -6 5 -11q0 -3 -2 -7t-13 -4h-82q-13 0 -22 10l-61 74h-2
l-61 -74q-7 -10 -22 -10h-82q-11 0 -13 4t-2 7q0 5 5 11z" />
    <glyph glyph-name="Udieresis" unicode="&#xdc;" horiz-adv-x="722" 
d="M91 700h98q18 0 18 -18v-388q0 -177 154 -177t154 177v388q0 18 18 18h98q18 0 18 -18v-399q0 -141 -76 -218t-212 -77t-212 77t-76 218v399q0 18 18 18zM197 904q21 22 53 22q33 0 54 -21.5t21 -54.5t-21 -55t-54 -22q-32 0 -53 22t-21 55q0 32 21 54zM418 905
q21 21 54 21q32 0 53 -22t21 -54q0 -33 -21 -55t-53 -22q-33 0 -54 22t-21 55t21 55z" />
    <glyph glyph-name="Yacute" unicode="&#xdd;" horiz-adv-x="672" 
d="M18 694q3 6 13 6h112q13 0 21 -12l171 -287h2l171 287q8 12 21 12h112q11 0 13.5 -4t2.5 -7q0 -4 -4 -10l-249 -405v-256q0 -18 -18 -18h-100q-18 0 -18 18v256l-249 405q-3 5 -3 9q0 3 2 6zM256 791l81 125q7 12 21 12h106q11 0 13 -4t2 -7q0 -4 -5 -10l-100 -127
q-7 -10 -21 -10h-86q-11 0 -13 4t-2 6q0 5 4 11z" />
    <glyph glyph-name="Thorn" unicode="&#xde;" horiz-adv-x="663" 
d="M363 593q126 0 195 -63t69 -176q0 -114 -69 -177t-195 -63h-149v-96q0 -18 -18 -18h-98q-18 0 -18 18v664q0 18 18 18h98q18 0 18 -18v-89h149zM357 238q67 0 99.5 28.5t32.5 87.5q0 116 -132 116h-143v-232h143z" />
    <glyph glyph-name="germandbls" unicode="&#xdf;" horiz-adv-x="623" 
d="M358 -7q-38 0 -71 6q-15 3 -15 19v77q0 19 19 16q25 -5 47 -5q60 0 91.5 25.5t31.5 69.5q0 93 -134 93h-33q-17 0 -17 17v77q0 18 14 18q63 0 96.5 28t33.5 76q0 89 -110 89q-119 0 -119 -121v-460q0 -18 -18 -18h-91q-17 0 -17 18v465q0 107 63.5 168t181.5 61
q111 0 173.5 -53t62.5 -139q0 -58 -30 -100t-87 -59v-4q77 -10 118.5 -55t41.5 -115q0 -87 -62 -140.5t-170 -53.5z" />
    <glyph glyph-name="agrave" unicode="&#xe0;" horiz-adv-x="613" 
d="M40 238q0 107 66 178.5t165 71.5q50 0 90 -20t60 -57h3v47q0 18 18 18h88q18 0 18 -18v-440q0 -18 -18 -18h-88q-18 0 -18 18v47h-3q-20 -37 -60 -57t-90 -20q-99 0 -165 71.5t-66 178.5zM205 141q35 -39 93 -39t93 38.5t35 97.5t-35 97t-93 38t-93 -38q-36 -38 -36 -97
t36 -97zM161 698q3 6 14 6h106q13 0 21 -12l82 -125q3 -5 3 -10q0 -3 -2.5 -7t-12.5 -4h-86q-12 0 -21 10l-100 127q-5 6 -5 11q0 2 1 4z" />
    <glyph glyph-name="aacute" unicode="&#xe1;" horiz-adv-x="613" 
d="M106 417q66 71 165 71q50 0 90 -20t60 -57h3v47q0 18 18 18h88q18 0 18 -18v-440q0 -18 -18 -18h-88q-18 0 -18 18v47h-3q-20 -37 -60 -57t-90 -20q-99 0 -165 71.5t-66 178.5t66 179zM205 141q35 -39 93 -39t93 38.5t35 97.5t-35 97t-93 38t-93 -38q-36 -38 -36 -97
t36 -97zM229 567l81 125q8 12 21 12h106q11 0 13 -4t2 -7q0 -4 -5 -10l-100 -127q-7 -10 -21 -10h-86q-11 0 -13 4t-2 6q0 5 4 11z" />
    <glyph glyph-name="acircumflex" unicode="&#xe2;" horiz-adv-x="613" 
d="M40 238q0 107 66 178.5t165 71.5q50 0 90 -20t60 -57h3v47q0 18 18 18h88q18 0 18 -18v-440q0 -18 -18 -18h-88q-18 0 -18 18v47h-3q-20 -37 -60 -57t-90 -20q-99 0 -165 71.5t-66 178.5zM169 238q0 -59 35.5 -97.5t93.5 -38.5t93 38.5t35 97.5t-35 97t-93 38t-93 -38
q-36 -38 -36 -97zM134 567l107 127q9 10 22 10h94q13 0 22 -10l107 -127q5 -6 5 -11q0 -3 -2 -7t-13 -4h-82q-13 0 -22 10l-61 74h-2l-61 -74q-7 -10 -22 -10h-82q-11 0 -13 4t-2 7q0 5 5 11z" />
    <glyph glyph-name="atilde" unicode="&#xe3;" horiz-adv-x="613" 
d="M40 238q0 107 66 178.5t165 71.5q50 0 90 -20t60 -57h3v47q0 18 18 18h88q18 0 18 -18v-440q0 -18 -18 -18h-88q-18 0 -18 18v47h-3q-20 -37 -60 -57t-90 -20q-99 0 -165 71.5t-66 178.5zM205 141q35 -39 93 -39t93 38.5t35 97.5t-35 97t-93 38t-93 -38q-36 -38 -36 -97
t36 -97zM132 567q6 132 101 132q36 0 88 -36q31 -22 48 -22q25 0 29 38q2 18 18 18h55q16 0 16 -20v-7q-9 -123 -100 -123q-38 0 -88 35q-31 22 -48 22q-25 0 -29 -38q-2 -18 -18 -18h-55q-17 0 -17 19z" />
    <glyph glyph-name="adieresis" unicode="&#xe4;" horiz-adv-x="613" 
d="M40 238q0 107 66 178.5t165 71.5q50 0 90 -20t60 -57h3v47q0 18 18 18h88q18 0 18 -18v-440q0 -18 -18 -18h-88q-18 0 -18 18v47h-3q-20 -37 -60 -57t-90 -20q-99 0 -165 71.5t-66 178.5zM205 141q35 -39 93 -39t93 38.5t35 97.5t-35 97t-93 38t-93 -38q-36 -38 -36 -97
t36 -97zM346 626q0 33 21 54.5t54 21.5q32 0 53 -22t21 -54q0 -33 -21 -55t-53 -22q-33 0 -54 22t-21 55zM125 626q0 32 21 54t53 22q33 0 54 -21.5t21 -54.5t-21 -55t-54 -22q-32 0 -53 22t-21 55z" />
    <glyph glyph-name="aring" unicode="&#xe5;" horiz-adv-x="613" 
d="M40 238q0 107 66 178.5t165 71.5q50 0 90 -20t60 -57h3v47q0 18 18 18h88q18 0 18 -18v-440q0 -18 -18 -18h-88q-18 0 -18 18v47h-3q-20 -37 -60 -57t-90 -20q-99 0 -165 71.5t-66 178.5zM205 141q35 -39 93 -39t93 38.5t35 97.5t-35 97t-93 38t-93 -38q-36 -38 -36 -97
t36 -97zM216 748q38 36 94 36t94 -36t38 -87q0 -52 -38 -88t-94 -36t-94 36t-38 88q0 51 38 87zM258 661q0 -24 14 -38.5t38 -14.5t38 14.5t14 38.5q0 23 -14 38q-14 14 -38 14t-38 -14.5t-14 -37.5z" />
    <glyph glyph-name="ae" unicode="&#xe6;" horiz-adv-x="913" 
d="M35 137q0 142 206 142h132v8q0 52 -22.5 75.5t-74.5 23.5q-76 0 -90 -46q-4 -15 -20 -15h-90q-17 0 -17 14v4q11 69 64.5 107t148.5 38q126 0 172 -72h3q67 72 178 72q110 0 179 -69t69 -180v-12q0 -26 -25 -26h-349q16 -113 131 -113q83 0 108 49q8 14 21 14h84
q9 0 12.5 -4.5t3.5 -8.5q0 -3 -1 -7q-21 -63 -81.5 -103t-147.5 -40q-127 0 -195 85h-3q-54 -85 -197 -85q-96 0 -147.5 39.5t-51.5 109.5zM747 283q-17 106 -121 106q-106 0 -125 -106h246zM159 145q0 -57 87 -57q58 0 92.5 25.5t34.5 65.5v21h-122q-92 0 -92 -55z" />
    <glyph glyph-name="ccedilla" unicode="&#xe7;" horiz-adv-x="575" 
d="M111 417q70 71 183 71q94 0 159 -50t79 -133v-4q0 -14 -17 -14h-93q-16 0 -20 15q-23 71 -108 71q-57 0 -91 -37t-34 -98t34 -98.5t91 -37.5q40 0 68.5 19t38.5 53q5 15 20 15h94q17 0 17 -13v-4q-12 -69 -60 -116.5t-120 -62.5l-48 -162q-3 -15 -19 -15h-87
q-16 0 -16 11q0 4 2 9l56 157q-91 16 -145.5 83.5t-54.5 161.5q0 107 71 179z" />
    <glyph glyph-name="egrave" unicode="&#xe8;" horiz-adv-x="580" 
d="M111 417q70 71 182 71q109 0 178 -69t69 -180v-13q0 -25 -24 -25h-350q16 -113 132 -113q82 0 107 49q8 14 21 14h84q9 0 13.5 -3.5t4.5 -7.5q0 -2 -1 -4q-20 -66 -81 -107t-150 -41q-115 0 -185.5 69.5t-70.5 179.5q0 109 71 180zM168 284h245q-17 105 -120 105
q-105 0 -125 -105zM142 698q3 6 14 6h106q14 0 21 -12l82 -125q3 -5 3 -10q0 -3 -2.5 -7t-12.5 -4h-86q-12 0 -21 10l-100 127q-5 6 -5 11q0 2 1 4z" />
    <glyph glyph-name="eacute" unicode="&#xe9;" horiz-adv-x="580" 
d="M40 237q0 109 70.5 180t182.5 71q109 0 178 -69t69 -180v-13q0 -25 -24 -25h-350q16 -113 132 -113q82 0 107 49q8 14 21 14h84q9 0 13.5 -3.5t4.5 -7.5q0 -2 -1 -4q-20 -66 -81 -107t-150 -41q-115 0 -185.5 69.5t-70.5 179.5zM413 284q-17 105 -120 105
q-105 0 -125 -105h245zM211 567l81 125q8 12 21 12h106q11 0 13 -4t2 -7q0 -4 -5 -10l-100 -127q-7 -10 -21 -10h-86q-11 0 -13 4t-2 6q0 5 4 11z" />
    <glyph glyph-name="ecircumflex" unicode="&#xea;" horiz-adv-x="580" 
d="M40 237q0 109 70.5 180t182.5 71q109 0 178 -69t69 -180v-13q0 -25 -24 -25h-350q16 -113 132 -113q82 0 107 49q8 14 21 14h84q9 0 13.5 -3.5t4.5 -7.5q0 -2 -1 -4q-20 -66 -81 -107t-150 -41q-115 0 -185.5 69.5t-70.5 179.5zM115 567l107 127q9 10 22 10h94
q13 0 22 -10l107 -127q5 -6 5 -11q0 -3 -2 -7t-13 -4h-82q-13 0 -22 10l-61 74h-2l-61 -74q-7 -10 -22 -10h-82q-11 0 -13 4t-2 7q0 5 5 11zM413 284q-17 105 -120 105q-105 0 -125 -105h245z" />
    <glyph glyph-name="edieresis" unicode="&#xeb;" horiz-adv-x="580" 
d="M40 237q0 109 70.5 180t182.5 71q109 0 178 -69t69 -180v-13q0 -25 -24 -25h-350q16 -113 132 -113q82 0 107 49q8 14 21 14h84q9 0 13.5 -3.5t4.5 -7.5q0 -2 -1 -4q-20 -66 -81 -107t-150 -41q-115 0 -185.5 69.5t-70.5 179.5zM168 284h245q-17 105 -120 105
q-105 0 -125 -105zM349 681q21 21 54 21q32 0 53 -22t21 -54q0 -33 -21 -55t-53 -22q-33 0 -54 22t-21 55t21 55zM107 626q0 32 21 54t53 22q33 0 54 -21.5t21 -54.5t-21 -55t-54 -22q-32 0 -53 22t-21 55z" />
    <glyph glyph-name="igrave" unicode="&#xec;" horiz-adv-x="257" 
d="M66 18v440q0 18 17 18h91q18 0 18 -18v-440q0 -18 -18 -18h-91q-17 0 -17 18zM8 698q3 6 13 6h96q15 0 21 -13l62 -124q3 -6 3 -11q0 -10 -16 -10h-83q-15 0 -21 11l-74 126q-3 5 -3 9q0 3 2 6z" />
    <glyph glyph-name="iacute" unicode="&#xed;" horiz-adv-x="257" 
d="M66 458q0 18 17 18h91q18 0 18 -18v-440q0 -18 -18 -18h-91q-17 0 -17 18v440zM52 567l61 124q7 13 22 13h96q10 0 12.5 -4t2.5 -7q0 -5 -3 -10l-74 -126q-6 -11 -21 -11h-83q-16 0 -16 10q0 5 3 11z" />
    <glyph glyph-name="icircumflex" unicode="&#xee;" horiz-adv-x="257" 
d="M83 476h91q18 0 18 -18v-440q0 -18 -18 -18h-91q-17 0 -17 18v440q0 18 17 18zM-17 567l76 125q7 12 21 12h97q13 0 20 -12l77 -125q3 -6 3 -11q0 -3 -2 -7t-13 -4h-67q-13 0 -21 13l-44 75h-3l-44 -75q-8 -13 -21 -13h-67q-11 0 -13 4t-2 7q0 5 3 11z" />
    <glyph glyph-name="idieresis" unicode="&#xef;" horiz-adv-x="257" 
d="M66 458q0 18 17 18h91q18 0 18 -18v-440q0 -18 -18 -18h-91q-17 0 -17 18v440zM156 626q0 33 18.5 54.5t48.5 21.5t49 -21.5t19 -54.5q0 -34 -18.5 -55.5t-49.5 -21.5q-30 0 -48.5 21.5t-18.5 55.5zM-15 681q19 21 49 21t48.5 -21.5t18.5 -54.5q0 -34 -18.5 -55.5
t-48.5 -21.5q-31 0 -49.5 21.5t-18.5 55.5q0 33 19 55z" />
    <glyph glyph-name="eth" unicode="&#xf0;" horiz-adv-x="595" 
d="M406 627q148 -145 148 -366q0 -127 -72 -200t-184 -73q-111 0 -184.5 69.5t-73.5 173.5q0 103 73 171t181 68q60 0 105 -23q-26 70 -81 119l-85 -59q-15 -9 -24 4l-19 26q-10 15 4 25l67 47q-48 28 -92 46q-18 8 -10 23l30 61q6 16 23 9q76 -29 140 -76l87 61q13 9 24 -5
l19 -26q10 -15 -4 -25zM298 102q57 0 92 36.5t35 92.5t-34.5 92.5t-92.5 36.5t-93.5 -36.5t-35.5 -92.5t35.5 -92.5t93.5 -36.5z" />
    <glyph glyph-name="ntilde" unicode="&#xf1;" horiz-adv-x="590" 
d="M66 18v440q0 18 17 18h89q17 0 17 -18v-50h3q42 80 154 80q86 0 135 -53t49 -146v-271q0 -18 -18 -18h-90q-18 0 -18 18v239q0 115 -100 115q-52 0 -82 -31t-30 -86v-237q0 -18 -18 -18h-91q-17 0 -17 18zM119 567q6 132 101 132q36 0 88 -36q31 -22 48 -22q25 0 29 38
q1 18 18 18h55q16 0 16 -20v-7q-9 -123 -100 -123q-38 0 -88 35q-31 22 -48 22q-25 0 -29 -38q-1 -18 -18 -18h-55q-17 0 -17 19z" />
    <glyph glyph-name="ograve" unicode="&#xf2;" horiz-adv-x="595" 
d="M114 417q73 71 184 71t183.5 -71.5t72.5 -178.5t-72 -178q-73 -72 -184 -72t-184.5 71.5t-73.5 178.5t74 179zM169 238q0 -59 36 -97q35 -39 93 -39t93 38.5t35 97.5t-35 97t-93 38t-93.5 -38t-35.5 -97zM148 698q3 6 14 6h106q14 0 21 -12l82 -125q3 -5 3 -10
q0 -3 -2.5 -7t-12.5 -4h-86q-12 0 -21 10l-100 127q-5 6 -5 11q0 2 1 4z" />
    <glyph glyph-name="oacute" unicode="&#xf3;" horiz-adv-x="595" 
d="M40 238q0 107 73.5 178.5t184.5 71.5t183.5 -71.5t72.5 -178.5t-72 -178q-73 -72 -184 -72t-184.5 71.5t-73.5 178.5zM169 238q0 -59 36 -97q35 -39 93 -39t93 38.5t35 97.5t-35 97t-93 38t-93.5 -38t-35.5 -97zM217 567l81 125q8 12 21 12h106q11 0 13 -4t2 -7
q0 -4 -5 -10l-100 -127q-7 -10 -21 -10h-86q-11 0 -13 4t-2 6q0 5 4 11z" />
    <glyph glyph-name="ocircumflex" unicode="&#xf4;" horiz-adv-x="595" 
d="M40 238q0 107 73.5 178.5t184.5 71.5t183.5 -71.5t72.5 -178.5t-72 -178q-73 -72 -184 -72t-184.5 71.5t-73.5 178.5zM169 238q0 -59 36 -97q35 -39 93 -39t93 38.5t35 97.5t-35 97t-93 38t-93.5 -38t-35.5 -97zM121 567l107 127q9 10 22 10h94q13 0 22 -10l107 -127
q5 -6 5 -11q0 -3 -2 -7t-13 -4h-82q-13 0 -22 10l-61 74h-2l-61 -74q-7 -10 -22 -10h-82q-11 0 -13 4t-2 7q0 5 5 11z" />
    <glyph glyph-name="otilde" unicode="&#xf5;" horiz-adv-x="595" 
d="M40 238q0 107 73.5 178.5t184.5 71.5t183.5 -71.5t72.5 -178.5t-72 -178q-73 -72 -184 -72t-184.5 71.5t-73.5 178.5zM169 238q0 -59 36 -97q35 -39 93 -39t93 38.5t35 97.5t-35 97t-93 38t-93.5 -38t-35.5 -97zM221 699q36 0 88 -36q31 -22 48 -22q25 0 29 38
q2 18 18 18h55q16 0 16 -20v-7q-9 -123 -100 -123q-38 0 -88 35q-31 22 -48 22q-25 0 -29 -38q-2 -18 -18 -18h-55q-17 0 -17 19q6 132 101 132z" />
    <glyph glyph-name="odieresis" unicode="&#xf6;" horiz-adv-x="595" 
d="M114 417q73 71 184 71t183.5 -71.5t72.5 -178.5t-72 -178q-73 -72 -184 -72t-184.5 71.5t-73.5 178.5t74 179zM169 238q0 -59 36 -97q35 -39 93 -39t93 38.5t35 97.5t-35 97t-93 38t-93.5 -38t-35.5 -97zM334 626q0 33 21 54.5t54 21.5q32 0 53 -22t21 -54q0 -33 -21 -55
t-53 -22q-33 0 -54 22t-21 55zM134 680q21 22 53 22q33 0 54 -21.5t21 -54.5t-21 -55t-54 -22q-32 0 -53 22t-21 55q0 32 21 54z" />
    <glyph glyph-name="divide" unicode="&#xf7;" 
d="M300 433q-34 0 -55 20t-21 52t21 52t55 20t55 -20t21 -52t-21 -52t-55 -20zM93 263q-18 0 -18 18v72q0 18 18 18h414q18 0 18 -18v-72q0 -18 -18 -18h-414zM300 57q-34 0 -55 20t-21 52t21 52t55 20t55 -20t21 -52t-21 -52t-55 -20z" />
    <glyph glyph-name="oslash" unicode="&#xf8;" horiz-adv-x="595" 
d="M40 238q0 107 73.5 178.5t184.5 71.5q45 0 89 -14l34 60q5 10 13 10q5 0 11 -4l41 -24q8 -6 8 -14q0 -4 -2 -9l-33 -57q95 -72 95 -198q0 -107 -72.5 -178.5t-183.5 -71.5q-45 0 -89 14l-34 -60q-6 -9 -14 -9q-5 0 -11 3l-41 24q-8 6 -8 14q0 4 2 9l33 57q-96 72 -96 198
zM200 134l140 241q-20 6 -42 6q-62 0 -99.5 -40t-37.5 -103q0 -65 39 -104zM298 95q61 0 98.5 40.5t37.5 102.5q0 63 -39 104l-139 -241q20 -6 42 -6z" />
    <glyph glyph-name="ugrave" unicode="&#xf9;" horiz-adv-x="586" 
d="M77 476h91q18 0 18 -18v-240q0 -115 96 -115q52 0 82.5 31.5t30.5 85.5v238q0 18 17 18h91q18 0 18 -18v-440q0 -18 -18 -18h-88q-18 0 -18 18v50h-3q-41 -80 -153 -80q-85 0 -133 52.5t-48 146.5v271q0 18 17 18zM141 698q3 6 14 6h106q13 0 21 -12l82 -125q3 -5 3 -10
q0 -3 -2.5 -7t-12.5 -4h-86q-12 0 -21 10l-100 127q-5 6 -5 11q0 2 1 4z" />
    <glyph glyph-name="uacute" unicode="&#xfa;" horiz-adv-x="586" 
d="M60 187v271q0 18 17 18h91q18 0 18 -18v-240q0 -115 96 -115q52 0 82.5 31.5t30.5 85.5v238q0 18 17 18h91q18 0 18 -18v-440q0 -18 -18 -18h-88q-18 0 -18 18v50h-3q-41 -80 -153 -80q-85 0 -133 52.5t-48 146.5zM209 567l81 125q8 12 21 12h106q11 0 13 -4t2 -7
q0 -4 -5 -10l-100 -127q-7 -10 -21 -10h-86q-11 0 -13 4t-2 6q0 5 4 11z" />
    <glyph glyph-name="ucircumflex" unicode="&#xfb;" horiz-adv-x="586" 
d="M77 476h91q18 0 18 -18v-240q0 -115 96 -115q52 0 82.5 31.5t30.5 85.5v238q0 18 17 18h91q18 0 18 -18v-440q0 -18 -18 -18h-88q-18 0 -18 18v50h-3q-41 -80 -153 -80q-85 0 -133 52.5t-48 146.5v271q0 18 17 18zM113 567l107 127q9 10 22 10h94q13 0 22 -10l107 -127
q5 -6 5 -11q0 -3 -2 -7t-13 -4h-82q-13 0 -22 10l-61 74h-2l-61 -74q-7 -10 -22 -10h-82q-11 0 -13 4t-2 7q0 5 5 11z" />
    <glyph glyph-name="udieresis" unicode="&#xfc;" horiz-adv-x="586" 
d="M77 476h91q18 0 18 -18v-240q0 -115 96 -115q52 0 82.5 31.5t30.5 85.5v238q0 18 17 18h91q18 0 18 -18v-440q0 -18 -18 -18h-88q-18 0 -18 18v50h-3q-41 -80 -153 -80q-85 0 -133 52.5t-48 146.5v271q0 18 17 18zM126 680q21 22 53 22q33 0 54 -21.5t21 -54.5t-21 -55
t-54 -22q-32 0 -53 22t-21 55q0 32 21 54zM347 681q21 21 54 21q32 0 53 -22t21 -54q0 -33 -21 -55t-53 -22q-33 0 -54 22t-21 55t21 55z" />
    <glyph glyph-name="yacute" unicode="&#xfd;" horiz-adv-x="591" 
d="M76 -52h87q14 0 19 -16q20 -55 104 -55q118 0 118 122v82h-4q-19 -36 -59.5 -57t-94.5 -21q-86 0 -134.5 52t-48.5 145v258q0 18 18 18h91q17 0 17 -18v-227q0 -115 98 -115q52 0 82 31t30 86v225q0 18 18 18h90q18 0 18 -18v-459q0 -107 -63.5 -167t-175.5 -60
q-97 0 -156.5 42.5t-70.5 115.5v4q0 14 17 14zM212 567l81 125q7 12 21 12h106q11 0 13 -4t2 -7q0 -4 -5 -10l-100 -127q-7 -10 -21 -10h-86q-11 0 -13 4t-2 6q0 5 4 11z" />
    <glyph glyph-name="thorn" unicode="&#xfe;" horiz-adv-x="615" 
d="M346 488q97 0 162.5 -71.5t65.5 -178.5t-65.5 -178.5t-162.5 -71.5q-50 0 -90 20t-61 57h-3v-263q0 -18 -18 -18h-91q-17 0 -17 18v880q0 18 17 18h91q18 0 18 -18v-271h4q20 37 60 57t90 20zM317 102q58 0 93.5 38.5t35.5 97.5t-35.5 97t-93.5 38t-93.5 -38t-35.5 -97
t35.5 -97.5t93.5 -38.5z" />
    <glyph glyph-name="ydieresis" unicode="&#xff;" horiz-adv-x="591" 
d="M76 -52h87q14 0 19 -16q20 -55 104 -55q118 0 118 122v82h-4q-19 -36 -59.5 -57t-94.5 -21q-86 0 -134.5 52t-48.5 145v258q0 18 18 18h91q17 0 17 -18v-227q0 -115 98 -115q52 0 82 31t30 86v225q0 18 18 18h90q18 0 18 -18v-459q0 -107 -63.5 -167t-175.5 -60
q-97 0 -156.5 42.5t-70.5 115.5v4q0 14 17 14zM329 626q0 33 21 54.5t54 21.5q32 0 53 -22t21 -54q0 -33 -21 -55t-53 -22q-33 0 -54 22t-21 55zM108 626q0 32 21 54t53 22q33 0 54 -21.5t21 -54.5t-21 -55t-54 -22q-32 0 -53 22t-21 55z" />
    <glyph glyph-name="Amacron" unicode="&#x100;" horiz-adv-x="727" 
d="M20 20l267 666q6 14 21 14h111q15 0 21 -14l268 -666q2 -5 2 -9q0 -11 -16 -11h-103q-16 0 -20 14l-47 123h-321l-47 -123q-4 -14 -20 -14h-103q-15 0 -15 10q0 4 2 10zM249 256h229l-113 292h-3zM210 805v62q0 18 17 18h274q17 0 17 -18v-62q0 -17 -17 -17h-274
q-17 0 -17 17z" />
    <glyph glyph-name="amacron" unicode="&#x101;" horiz-adv-x="613" 
d="M40 238q0 107 66 178.5t165 71.5q50 0 90 -20t60 -57h3v47q0 18 18 18h88q18 0 18 -18v-440q0 -18 -18 -18h-88q-18 0 -18 18v47h-3q-20 -37 -60 -57t-90 -20q-99 0 -165 71.5t-66 178.5zM169 238q0 -59 35.5 -97.5t93.5 -38.5t93 38.5t35 97.5t-35 97t-93 38t-93 -38
q-36 -38 -36 -97zM173 661h274q17 0 17 -18v-62q0 -17 -17 -17h-274q-17 0 -17 17v62q0 18 17 18z" />
    <glyph glyph-name="Abreve" unicode="&#x102;" horiz-adv-x="727" 
d="M20 20l267 666q6 14 21 14h111q15 0 21 -14l268 -666q2 -5 2 -9q0 -11 -16 -11h-103q-16 0 -20 14l-47 123h-321l-47 -123q-4 -14 -20 -14h-103q-15 0 -15 10q0 4 2 10zM216 921h66q16 0 19 -17q7 -55 63 -55t63 55q3 17 19 17h66q18 0 18 -18q0 -60 -44.5 -98.5
t-121.5 -38.5q-76 0 -121 38.5t-45 98.5q0 18 18 18zM478 256l-113 292h-3l-113 -292h229z" />
    <glyph glyph-name="abreve" unicode="&#x103;" horiz-adv-x="613" 
d="M106 417q66 71 165 71q50 0 90 -20t60 -57h3v47q0 18 18 18h88q18 0 18 -18v-440q0 -18 -18 -18h-88q-18 0 -18 18v47h-3q-20 -37 -60 -57t-90 -20q-99 0 -165 71.5t-66 178.5t66 179zM169 238q0 -59 35.5 -97.5t93.5 -38.5t93 38.5t35 97.5t-35 97t-93 38t-93 -38
q-36 -38 -36 -97zM144 679q0 18 18 18h66q16 0 19 -17q7 -55 63 -55t63 55q3 17 19 17h66q18 0 18 -18q0 -60 -44.5 -98.5t-121.5 -38.5q-76 0 -121 38.5t-45 98.5z" />
    <glyph glyph-name="Aogonek" unicode="&#x104;" horiz-adv-x="727" 
d="M20 20l267 666q6 14 21 14h111q15 0 21 -14l268 -667q4 -7 4 -13q0 -9 -9 -14q-81 -48 -81 -84q0 -34 50 -34q16 0 25 2h5q14 0 14 -16v-55q0 -16 -17 -19q-20 -5 -45 -5q-61 0 -96 28t-35 73q0 74 84 118h-11q-20 0 -25 14l-47 123h-321l-47 -123q-4 -14 -20 -14h-103
q-15 0 -15 10q0 4 2 10zM478 256l-113 292h-3l-113 -292h229z" />
    <glyph glyph-name="aogonek" unicode="&#x105;" horiz-adv-x="613" 
d="M40 238q0 107 66 178.5t165 71.5q50 0 90 -20t60 -57h3v47q0 18 18 18h88q18 0 18 -18v-440q0 -5 -1 -7q-2 -13 -13 -19q-81 -48 -81 -84q0 -34 51 -34q15 0 24 2h5q14 0 14 -16v-55q0 -16 -17 -19q-20 -5 -45 -5q-60 0 -95.5 28t-35.5 73q0 76 86 118q-16 2 -16 18v47
h-3q-20 -37 -60 -57t-90 -20q-99 0 -165 71.5t-66 178.5zM205 141q35 -39 93 -39t93 38.5t35 97.5t-35 97t-93 38t-93 -38q-36 -38 -36 -97t36 -97z" />
    <glyph glyph-name="Cacute" unicode="&#x106;" horiz-adv-x="804" 
d="M153 608q103 104 260 104q127 0 220 -70.5t117 -194.5q1 -4 1 -7q0 -12 -16 -12h-104q-16 0 -19 16q-19 68 -71.5 105t-127.5 37q-101 0 -163 -65t-62 -171t62 -171t163 -65q75 0 127.5 37t71.5 105q3 16 19 16h104q16 0 16 -13q0 -3 -1 -7q-24 -123 -117 -193.5
t-220 -70.5q-157 0 -260 104.5t-103 257.5t103 258zM333 791l81 125q8 12 21 12h106q11 0 13 -4t2 -7q0 -4 -5 -10l-100 -127q-7 -10 -21 -10h-86q-11 0 -13 4t-2 6q0 5 4 11z" />
    <glyph glyph-name="cacute" unicode="&#x107;" horiz-adv-x="575" 
d="M111 417q70 71 183 71q94 0 159 -50t79 -133v-4q0 -14 -17 -14h-93q-16 0 -20 15q-23 71 -108 71q-57 0 -91 -37t-34 -98t34 -98.5t91 -37.5q40 0 68.5 19t38.5 53q5 15 20 15h94q17 0 17 -13v-4q-14 -83 -79 -133.5t-159 -50.5q-113 0 -183.5 71.5t-70.5 178.5t71 179z
M214 567l81 125q7 12 21 12h106q11 0 13 -4t2 -7q0 -4 -5 -10l-100 -127q-7 -10 -21 -10h-86q-11 0 -13 4t-2 6q0 5 4 11z" />
    <glyph glyph-name="Ccircumflex" unicode="&#x108;" horiz-adv-x="804" 
d="M50 350q0 153 103 257.5t260 104.5q127 0 220 -70.5t117 -194.5q1 -4 1 -7q0 -12 -16 -12h-104q-16 0 -19 16q-19 68 -71.5 105t-127.5 37q-101 0 -163 -65t-62 -171t62 -171t163 -65q75 0 127.5 37t71.5 105q3 16 19 16h104q16 0 16 -13q0 -3 -1 -7
q-24 -123 -117 -193.5t-220 -70.5q-157 0 -260 104.5t-103 257.5zM237 791l107 127q9 10 22 10h94q13 0 22 -10l107 -127q5 -6 5 -11q0 -3 -2 -7t-13 -4h-82q-13 0 -22 10l-61 74h-2l-61 -74q-7 -10 -22 -10h-82q-11 0 -13 4t-2 7q0 5 5 11z" />
    <glyph glyph-name="ccircumflex" unicode="&#x109;" horiz-adv-x="575" 
d="M40 238q0 107 70.5 178.5t183.5 71.5q94 0 159 -50t79 -133v-4q0 -14 -17 -14h-93q-16 0 -20 15q-23 71 -108 71q-57 0 -91 -37t-34 -98t34 -98.5t91 -37.5q40 0 68.5 19t38.5 53q5 15 20 15h94q17 0 17 -13v-4q-14 -83 -79 -133.5t-159 -50.5q-113 0 -183.5 71.5
t-70.5 178.5zM118 567l107 127q9 10 22 10h94q13 0 22 -10l107 -127q5 -6 5 -11q0 -3 -2 -7t-13 -4h-82q-13 0 -22 10l-61 74h-2l-61 -74q-7 -10 -22 -10h-82q-11 0 -13 4t-2 7q0 5 5 11z" />
    <glyph glyph-name="Cdotaccent" unicode="&#x10a;" horiz-adv-x="804" 
d="M50 350q0 153 103 257.5t260 104.5q127 0 220 -70.5t117 -194.5q1 -4 1 -7q0 -12 -16 -12h-104q-16 0 -19 16q-19 68 -71.5 105t-127.5 37q-101 0 -163 -65t-62 -171t62 -171t163 -65q75 0 127.5 37t71.5 105q3 16 19 16h104q16 0 16 -13q0 -3 -1 -7
q-24 -123 -117 -193.5t-220 -70.5q-157 0 -260 104.5t-103 257.5zM332 854q0 34 23 57t58 23t58 -23t23 -57t-23 -57t-58 -23t-58 23t-23 57z" />
    <glyph glyph-name="cdotaccent" unicode="&#x10b;" horiz-adv-x="575" 
d="M111 417q70 71 183 71q94 0 159 -50t79 -133v-4q0 -14 -17 -14h-93q-16 0 -20 15q-23 71 -108 71q-57 0 -91 -37t-34 -98t34 -98.5t91 -37.5q40 0 68.5 19t38.5 53q5 15 20 15h94q17 0 17 -13v-4q-14 -83 -79 -133.5t-159 -50.5q-113 0 -183.5 71.5t-70.5 178.5t71 179z
M214 630q0 34 23 57t58 23t58 -23t23 -57t-23 -57t-58 -23t-58 23t-23 57z" />
    <glyph glyph-name="Ccaron" unicode="&#x10c;" horiz-adv-x="804" 
d="M153 608q103 104 260 104q127 0 220 -70.5t117 -194.5q1 -4 1 -7q0 -12 -16 -12h-104q-16 0 -19 16q-19 68 -71.5 105t-127.5 37q-101 0 -163 -65t-62 -171t62 -171t163 -65q75 0 127.5 37t71.5 105q3 16 19 16h104q16 0 16 -13q0 -3 -1 -7q-24 -123 -117 -193.5
t-220 -70.5q-157 0 -260 104.5t-103 257.5t103 258zM233 922q3 6 14 6h82q15 0 22 -10l61 -75h2l61 75q9 10 22 10h82q11 0 13 -4t2 -7q0 -5 -5 -11l-107 -127q-9 -10 -22 -10h-94q-13 0 -22 10l-107 127q-5 6 -5 12q0 2 1 4z" />
    <glyph glyph-name="ccaron" unicode="&#x10d;" horiz-adv-x="575" 
d="M111 417q70 71 183 71q94 0 159 -50t79 -133v-4q0 -14 -17 -14h-93q-16 0 -20 15q-23 71 -108 71q-57 0 -91 -37t-34 -98t34 -98.5t91 -37.5q40 0 68.5 19t38.5 53q5 15 20 15h94q17 0 17 -13v-4q-14 -83 -79 -133.5t-159 -50.5q-113 0 -183.5 71.5t-70.5 178.5t71 179z
M114 698q3 6 14 6h82q15 0 22 -10l61 -75h2l61 75q9 10 22 10h82q11 0 13 -4t2 -7q0 -5 -5 -11l-107 -127q-9 -10 -22 -10h-94q-13 0 -22 10l-107 127q-5 6 -5 12q0 2 1 4z" />
    <glyph glyph-name="Dcaron" unicode="&#x10e;" horiz-adv-x="726" 
d="M98 700h219q159 0 259 -98t100 -252t-100 -252t-259 -98h-219q-18 0 -18 18v664q0 18 18 18zM214 575v-450h100q104 0 164 60.5t60 164.5t-60 164.5t-164 60.5h-100zM140 922q3 6 14 6h82q15 0 22 -10l61 -75h2l61 75q9 10 22 10h82q11 0 13 -4t2 -7q0 -5 -5 -11
l-107 -127q-9 -10 -22 -10h-94q-13 0 -22 10l-107 127q-5 6 -5 12q0 2 1 4z" />
    <glyph glyph-name="dcaron" unicode="&#x10f;" horiz-adv-x="768" 
d="M107 417q65 71 162 71q50 0 90 -20t60 -57h4v271q0 18 18 18h91q17 0 17 -18v-664q0 -18 -17 -18h-89q-18 0 -18 18v47h-4q-20 -37 -60 -57t-90 -20q-98 0 -164 71.5t-66 178.5t66 179zM169 238q0 -59 35.5 -97.5t93.5 -38.5t93.5 38.5t35.5 97.5t-35.5 97t-93.5 38
t-93 -38q-36 -38 -36 -97zM654 712h91q18 0 18 -16v-3l-16 -251q-1 -16 -18 -16h-75q-18 0 -18 17v251q0 18 18 18z" />
    <glyph glyph-name="Dcroat" unicode="&#x110;" horiz-adv-x="743" 
d="M25 400h73v282q0 18 17 18h219q159 0 259 -98t100 -252t-100 -252t-259 -98h-219q-17 0 -17 18v280h-73q-17 0 -17 18v67q0 17 17 17zM231 125h100q104 0 164 60.5t60 164.5t-60 164.5t-164 60.5h-100v-175h134q17 0 17 -17v-67q0 -18 -17 -18h-134v-173z" />
    <glyph glyph-name="dcroat" unicode="&#x111;" horiz-adv-x="624" 
d="M613 615q18 0 18 -17v-53q0 -18 -18 -18h-64v-509q0 -18 -18 -18h-88q-18 0 -18 18v47h-4q-20 -37 -60.5 -57t-90.5 -20q-98 0 -164 69.5t-66 170.5t66 171t163 70q49 0 89 -20t61 -57h4v135h-149q-18 0 -18 18v53q0 17 18 17h149v67q0 18 18 18h90q18 0 18 -18v-67h64z
M169 228q0 -54 35.5 -90.5t93.5 -36.5q57 0 92.5 36.5t35.5 90.5q0 55 -35.5 91.5t-92.5 36.5q-58 0 -93.5 -36.5t-35.5 -91.5z" />
    <glyph glyph-name="Emacron" unicode="&#x112;" horiz-adv-x="623" 
d="M80 18v664q0 18 18 18h453q18 0 18 -18v-87q0 -18 -18 -18h-337v-166h265q18 0 18 -18v-86q0 -18 -18 -18h-265v-166h341q18 0 18 -18v-87q0 -18 -18 -18h-457q-18 0 -18 18zM168 867q0 18 17 18h274q17 0 17 -18v-62q0 -17 -17 -17h-274q-17 0 -17 17v62z" />
    <glyph glyph-name="emacron" unicode="&#x113;" horiz-adv-x="580" 
d="M40 237q0 109 70.5 180t182.5 71q109 0 178 -69t69 -180v-13q0 -25 -24 -25h-350q16 -113 132 -113q82 0 107 49q8 14 21 14h84q9 0 13.5 -3.5t4.5 -7.5q0 -2 -1 -4q-20 -66 -81 -107t-150 -41q-115 0 -185.5 69.5t-70.5 179.5zM138 643q0 18 17 18h274q17 0 17 -18v-62
q0 -17 -17 -17h-274q-17 0 -17 17v62zM168 284h245q-17 105 -120 105q-105 0 -125 -105z" />
    <glyph glyph-name="Ebreve" unicode="&#x114;" horiz-adv-x="623" 
d="M80 682q0 18 18 18h453q18 0 18 -18v-87q0 -18 -18 -18h-337v-166h265q18 0 18 -18v-86q0 -18 -18 -18h-265v-166h341q18 0 18 -18v-87q0 -18 -18 -18h-457q-18 0 -18 18v664zM174 921h66q16 0 19 -17q7 -55 63 -55t63 55q3 17 19 17h66q18 0 18 -18q0 -60 -44.5 -98.5
t-121.5 -38.5q-76 0 -121 38.5t-45 98.5q0 18 18 18z" />
    <glyph glyph-name="ebreve" unicode="&#x115;" horiz-adv-x="580" 
d="M111 417q70 71 182 71q109 0 178 -69t69 -180v-13q0 -25 -24 -25h-350q16 -113 132 -113q82 0 107 49q8 14 21 14h84q9 0 13.5 -3.5t4.5 -7.5q0 -2 -1 -4q-20 -66 -81 -107t-150 -41q-115 0 -185.5 69.5t-70.5 179.5q0 109 71 180zM144 697h66q16 0 19 -17q7 -55 63 -55
t63 55q3 17 19 17h66q18 0 18 -18q0 -60 -44.5 -98.5t-121.5 -38.5q-76 0 -121 38.5t-45 98.5q0 18 18 18zM168 284h245q-17 105 -120 105q-105 0 -125 -105z" />
    <glyph glyph-name="Edotaccent" unicode="&#x116;" horiz-adv-x="623" 
d="M98 700h453q18 0 18 -18v-87q0 -18 -18 -18h-337v-166h265q18 0 18 -18v-86q0 -18 -18 -18h-265v-166h341q18 0 18 -18v-87q0 -18 -18 -18h-457q-18 0 -18 18v664q0 18 18 18zM241 854q0 34 23 57t58 23t58 -23t23 -57t-23 -57t-58 -23t-58 23t-23 57z" />
    <glyph glyph-name="edotaccent" unicode="&#x117;" horiz-adv-x="580" 
d="M40 237q0 109 70.5 180t182.5 71q109 0 178 -69t69 -180v-13q0 -25 -24 -25h-350q16 -113 132 -113q82 0 107 49q8 14 21 14h84q9 0 13.5 -3.5t4.5 -7.5q0 -2 -1 -4q-20 -66 -81 -107t-150 -41q-115 0 -185.5 69.5t-70.5 179.5zM168 284h245q-17 105 -120 105
q-105 0 -125 -105zM211 630q0 34 23 57t58 23t58 -23t23 -57t-23 -57t-58 -23t-58 23t-23 57z" />
    <glyph glyph-name="Eogonek" unicode="&#x118;" horiz-adv-x="623" 
d="M80 18v664q0 18 18 18h453q18 0 18 -18v-87q0 -18 -18 -18h-337v-166h265q18 0 18 -18v-86q0 -18 -18 -18h-265v-166h341q18 0 18 -18v-91q0 -15 -13 -22q-81 -48 -81 -84q0 -34 51 -34q15 0 24 2h5q14 0 14 -16v-55q0 -16 -17 -19q-20 -5 -45 -5q-60 0 -95.5 28
t-35.5 73q0 76 85 118h-367q-18 0 -18 18z" />
    <glyph glyph-name="eogonek" unicode="&#x119;" horiz-adv-x="580" 
d="M111 417q70 71 182 71q109 0 178 -69t69 -180v-13q0 -25 -24 -25h-350q16 -113 132 -113q82 0 107 49q8 14 21 14h84q9 0 13.5 -3.5t4.5 -7.5q0 -2 -1 -4q-24 -77 -97 -117q-86 -52 -86 -87q0 -33 51 -33q15 0 24 1h5q15 0 15 -15v-56q0 -16 -18 -19q-21 -4 -45 -4
q-60 0 -95.5 28t-35.5 73q0 46 35 81q-109 5 -174.5 74t-65.5 175q0 109 71 180zM413 284q-17 105 -120 105q-105 0 -125 -105h245z" />
    <glyph glyph-name="Ecaron" unicode="&#x11a;" horiz-adv-x="623" 
d="M98 700h453q18 0 18 -18v-87q0 -18 -18 -18h-337v-166h265q18 0 18 -18v-86q0 -18 -18 -18h-265v-166h341q18 0 18 -18v-87q0 -18 -18 -18h-457q-18 0 -18 18v664q0 18 18 18zM142 922q3 6 14 6h82q15 0 22 -10l61 -75h2l61 75q9 10 22 10h82q11 0 13 -4t2 -7
q0 -5 -5 -11l-107 -127q-9 -10 -22 -10h-94q-13 0 -22 10l-107 127q-5 6 -5 12q0 2 1 4z" />
    <glyph glyph-name="ecaron" unicode="&#x11b;" horiz-adv-x="580" 
d="M111 417q70 71 182 71q109 0 178 -69t69 -180v-13q0 -25 -24 -25h-350q16 -113 132 -113q82 0 107 49q8 14 21 14h84q9 0 13.5 -3.5t4.5 -7.5q0 -2 -1 -4q-20 -66 -81 -107t-150 -41q-115 0 -185.5 69.5t-70.5 179.5q0 109 71 180zM111 698q3 6 14 6h82q15 0 22 -10
l61 -75h2l61 75q9 10 22 10h82q11 0 13 -4t2 -7q0 -5 -5 -11l-107 -127q-9 -10 -22 -10h-94q-13 0 -22 10l-107 127q-5 6 -5 12q0 2 1 4zM168 284h245q-17 105 -120 105q-105 0 -125 -105z" />
    <glyph glyph-name="Gcircumflex" unicode="&#x11c;" horiz-adv-x="810" 
d="M50 350q0 154 103 258t261 104q120 0 209.5 -61.5t117.5 -162.5q1 -4 1 -7q0 -4 -3.5 -8.5t-12.5 -4.5h-108q-15 0 -21 15q-18 47 -67.5 75t-115.5 28q-103 0 -164.5 -65t-61.5 -171q0 -108 63 -172.5t167 -64.5q87 0 143.5 46t66.5 127h-189q-18 0 -18 18v71q0 18 18 18
h304q17 0 17 -18v-41q0 -155 -96.5 -250.5t-248.5 -95.5q-159 0 -262 103.5t-103 258.5zM238 791l107 127q9 10 22 10h94q13 0 22 -10l107 -127q5 -6 5 -11q0 -3 -2 -7t-13 -4h-82q-13 0 -22 10l-61 74h-2l-61 -74q-7 -10 -22 -10h-82q-11 0 -13 4t-2 7q0 5 5 11z" />
    <glyph glyph-name="gcircumflex" unicode="&#x11d;" horiz-adv-x="613" 
d="M40 241q0 105 66 176t164 71q50 0 90.5 -20t60.5 -57h4v47q0 18 18 18h87q18 0 18 -18v-447q0 -112 -68.5 -175.5t-188.5 -63.5q-101 0 -164.5 44.5t-75.5 121.5v4q0 14 17 14h89q15 0 19 -15q20 -64 116 -64q66 0 100 34.5t34 99.5v65h-4q-20 -37 -60.5 -56.5
t-91.5 -19.5q-98 0 -164 68.5t-66 172.5zM205 146q35 -38 93 -38t93 37.5t35 95.5t-35 95.5t-93 37.5t-93 -37q-36 -38 -36 -96t36 -95zM129 567l107 127q9 10 22 10h94q13 0 22 -10l107 -127q5 -6 5 -11q0 -3 -2 -7t-13 -4h-82q-13 0 -22 10l-61 74h-2l-61 -74
q-7 -10 -22 -10h-82q-11 0 -13 4t-2 7q0 5 5 11z" />
    <glyph glyph-name="Gbreve" unicode="&#x11e;" horiz-adv-x="810" 
d="M153 608q103 104 261 104q120 0 209.5 -61.5t117.5 -162.5q1 -4 1 -7q0 -4 -3.5 -8.5t-12.5 -4.5h-108q-15 0 -21 15q-18 47 -67.5 75t-115.5 28q-103 0 -164.5 -65t-61.5 -171q0 -108 63 -172.5t167 -64.5q87 0 143.5 46t66.5 127h-189q-18 0 -18 18v71q0 18 18 18h304
q17 0 17 -18v-41q0 -155 -96.5 -250.5t-248.5 -95.5q-159 0 -262 103.5t-103 258.5q0 154 103 258zM266 921h66q16 0 19 -17q7 -55 63 -55t63 55q3 17 19 17h66q18 0 18 -18q0 -60 -44.5 -98.5t-121.5 -38.5q-76 0 -121 38.5t-45 98.5q0 18 18 18z" />
    <glyph glyph-name="gbreve" unicode="&#x11f;" horiz-adv-x="613" 
d="M40 241q0 105 66 176t164 71q50 0 90.5 -20t60.5 -57h4v47q0 18 18 18h87q18 0 18 -18v-447q0 -112 -68.5 -175.5t-188.5 -63.5q-101 0 -164.5 44.5t-75.5 121.5v4q0 14 17 14h89q15 0 19 -15q20 -64 116 -64q66 0 100 34.5t34 99.5v65h-4q-20 -37 -60.5 -56.5
t-91.5 -19.5q-98 0 -164 68.5t-66 172.5zM205 146q35 -38 93 -38t93 37.5t35 95.5t-35 95.5t-93 37.5t-93 -37q-36 -38 -36 -96t36 -95zM157 697h66q16 0 19 -17q7 -55 63 -55t63 55q3 17 19 17h66q18 0 18 -18q0 -60 -44.5 -98.5t-121.5 -38.5q-76 0 -121 38.5t-45 98.5
q0 18 18 18z" />
    <glyph glyph-name="Gdotaccent" unicode="&#x120;" horiz-adv-x="810" 
d="M50 350q0 154 103 258t261 104q120 0 209.5 -61.5t117.5 -162.5q1 -4 1 -7q0 -4 -3.5 -8.5t-12.5 -4.5h-108q-15 0 -21 15q-18 47 -67.5 75t-115.5 28q-103 0 -164.5 -65t-61.5 -171q0 -108 63 -172.5t167 -64.5q87 0 143.5 46t66.5 127h-189q-18 0 -18 18v71q0 18 18 18
h304q17 0 17 -18v-41q0 -155 -96.5 -250.5t-248.5 -95.5q-159 0 -262 103.5t-103 258.5zM333 854q0 34 23 57t58 23t58 -23t23 -57t-23 -57t-58 -23t-58 23t-23 57z" />
    <glyph glyph-name="gdotaccent" unicode="&#x121;" horiz-adv-x="613" 
d="M40 241q0 105 66 176t164 71q50 0 90.5 -20t60.5 -57h4v47q0 18 18 18h87q18 0 18 -18v-447q0 -112 -68.5 -175.5t-188.5 -63.5q-101 0 -164.5 44.5t-75.5 121.5v4q0 14 17 14h89q15 0 19 -15q20 -64 116 -64q66 0 100 34.5t34 99.5v65h-4q-20 -37 -60.5 -56.5
t-91.5 -19.5q-98 0 -164 68.5t-66 172.5zM205 146q35 -38 93 -38t93 37.5t35 95.5t-35 95.5t-93 37.5t-93 -37q-36 -38 -36 -96t36 -95zM247 687q23 23 58 23t58 -23t23 -57t-23 -57t-58 -23t-58 23t-23 57t23 57z" />
    <glyph glyph-name="uni0122" unicode="&#x122;" horiz-adv-x="810" 
d="M153 608q103 104 261 104q120 0 209.5 -61.5t117.5 -162.5q1 -4 1 -7q0 -4 -3.5 -8.5t-12.5 -4.5h-108q-15 0 -21 15q-18 47 -67.5 75t-115.5 28q-103 0 -164.5 -65t-61.5 -171q0 -108 63 -172.5t167 -64.5q87 0 143.5 46t66.5 127h-189q-18 0 -18 18v71q0 18 18 18h304
q17 0 17 -18v-41q0 -155 -96.5 -250.5t-248.5 -95.5q-159 0 -262 103.5t-103 258.5q0 154 103 258zM331 -241l16 145q2 17 18 17h90q16 0 16 -13q0 -3 -1 -7l-39 -145q-5 -15 -20 -15h-64q-16 0 -16 13v5z" />
    <glyph glyph-name="uni0123" unicode="&#x123;" horiz-adv-x="613" 
d="M40 241q0 105 66 176t164 71q50 0 90.5 -20t60.5 -57h4v47q0 18 18 18h87q18 0 18 -18v-447q0 -112 -68.5 -175.5t-188.5 -63.5q-101 0 -164.5 44.5t-75.5 121.5v4q0 14 17 14h89q15 0 19 -15q20 -64 116 -64q66 0 100 34.5t34 99.5v65h-4q-20 -37 -60.5 -56.5
t-91.5 -19.5q-98 0 -164 68.5t-66 172.5zM169 241q0 -58 35.5 -95.5t93.5 -37.5t93 37.5t35 95.5t-35 95.5t-93 37.5t-93 -37q-36 -38 -36 -96zM246 586l39 145q5 15 20 15h64q16 0 16 -13v-5l-16 -145q-1 -16 -18 -16h-90q-16 0 -16 12q0 3 1 7z" />
    <glyph glyph-name="Hcircumflex" unicode="&#x124;" horiz-adv-x="745" 
d="M98 700h98q18 0 18 -18v-280h317v280q0 18 18 18h98q18 0 18 -18v-664q0 -18 -18 -18h-98q-18 0 -18 18v258h-317v-258q0 -18 -18 -18h-98q-18 0 -18 18v664q0 18 18 18zM196 791l107 127q9 10 22 10h94q13 0 22 -10l107 -127q5 -6 5 -11q0 -3 -2 -7t-13 -4h-82
q-13 0 -22 10l-61 74h-2l-61 -74q-7 -10 -22 -10h-82q-11 0 -13 4t-2 7q0 5 5 11z" />
    <glyph glyph-name="hcircumflex" unicode="&#x125;" horiz-adv-x="590" 
d="M66 18v664q0 18 17 18h91q18 0 18 -18v-274h4q19 38 59 59t91 21q86 0 135 -53t49 -146v-271q0 -18 -18 -18h-90q-18 0 -18 18v239q0 115 -100 115q-52 0 -82 -31t-30 -86v-237q0 -18 -18 -18h-91q-17 0 -17 18zM-48 791l107 127q9 10 22 10h94q13 0 22 -10l107 -127
q5 -6 5 -11q0 -3 -2 -7t-13 -4h-82q-13 0 -22 10l-61 74h-2l-61 -74q-7 -10 -22 -10h-82q-11 0 -13 4t-2 7q0 5 5 11z" />
    <glyph glyph-name="Hbar" unicode="&#x126;" horiz-adv-x="773" 
d="M24 523v56q0 18 17 18h54v85q0 18 17 18h98q18 0 18 -18v-85h317v85q0 18 18 18h98q18 0 18 -18v-85h53q18 0 18 -18v-56q0 -17 -18 -17h-53v-488q0 -18 -18 -18h-98q-18 0 -18 18v258h-317v-258q0 -18 -18 -18h-98q-17 0 -17 18v488h-54q-17 0 -17 17zM545 402v104h-317
v-104h317z" />
    <glyph glyph-name="hbar" unicode="&#x127;" 
d="M358 469q85 0 133.5 -53t48.5 -147v-251q0 -18 -17 -18h-91q-18 0 -18 18v220q0 115 -99 115q-53 0 -83 -31t-30 -86v-218q0 -18 -18 -18h-91q-18 0 -18 18v509h-64q-18 0 -18 18v53q0 17 18 17h64v67q0 18 18 18h90q18 0 18 -18v-67h149q18 0 18 -17v-53q0 -18 -18 -18
h-149v-138h5q41 80 152 80z" />
    <glyph glyph-name="Itilde" unicode="&#x128;" horiz-adv-x="294" 
d="M98 700h98q18 0 18 -18v-664q0 -18 -18 -18h-98q-18 0 -18 18v664q0 18 18 18zM70 923q36 0 88 -36q31 -22 48 -22q25 0 29 38q1 18 18 18h55q16 0 16 -20v-7q-9 -123 -100 -123q-38 0 -88 35q-31 22 -48 22q-25 0 -29 -38q-1 -18 -18 -18h-55q-17 0 -17 19
q6 132 101 132z" />
    <glyph glyph-name="itilde" unicode="&#x129;" horiz-adv-x="257" 
d="M83 476h91q18 0 18 -18v-440q0 -18 -18 -18h-91q-17 0 -17 18v440q0 18 17 18zM58 699q33 0 70 -30.5t47 -30.5q21 0 24 41q1 18 19 18h44q17 0 17 -18q0 -132 -80 -132q-33 0 -70 30t-47 30q-21 0 -24 -41q-2 -18 -19 -18h-44q-17 0 -17 18q0 133 80 133z" />
    <glyph glyph-name="Imacron" unicode="&#x12a;" horiz-adv-x="294" 
d="M80 682q0 18 18 18h98q18 0 18 -18v-664q0 -18 -18 -18h-98q-18 0 -18 18v664zM10 885h274q17 0 17 -18v-62q0 -17 -17 -17h-274q-17 0 -17 17v62q0 18 17 18z" />
    <glyph glyph-name="imacron" unicode="&#x12b;" horiz-adv-x="257" 
d="M66 458q0 18 17 18h91q18 0 18 -18v-440q0 -18 -18 -18h-91q-17 0 -17 18v440zM18 661h221q18 0 18 -18v-62q0 -17 -18 -17h-221q-17 0 -17 17v62q0 18 17 18z" />
    <glyph glyph-name="Ibreve" unicode="&#x12c;" horiz-adv-x="294" 
d="M98 700h98q18 0 18 -18v-664q0 -18 -18 -18h-98q-18 0 -18 18v664q0 18 18 18zM-1 921h66q16 0 19 -17q7 -55 63 -55t63 55q3 17 19 17h66q18 0 18 -18q0 -60 -44.5 -98.5t-121.5 -38.5q-76 0 -121 38.5t-45 98.5q0 18 18 18z" />
    <glyph glyph-name="ibreve" unicode="&#x12d;" horiz-adv-x="257" 
d="M83 476h91q18 0 18 -18v-440q0 -18 -18 -18h-91q-17 0 -17 18v440q0 18 17 18zM6 697h59q17 0 18 -18q6 -56 46 -56q39 0 45 56q2 18 18 18h59q17 0 17 -15v-3q-2 -65 -37.5 -101t-101.5 -36q-67 0 -102.5 36t-37.5 102v3q0 14 17 14z" />
    <glyph glyph-name="Iogonek" unicode="&#x12e;" horiz-adv-x="294" 
d="M21 -118q0 76 85 118h-8q-18 0 -18 18v664q0 18 18 18h98q18 0 18 -18v-668q0 -15 -13 -22q-81 -48 -81 -84q0 -34 51 -34q15 0 24 2h5q14 0 14 -16v-55q0 -16 -17 -19q-20 -5 -45 -5q-60 0 -95.5 28t-35.5 73z" />
    <glyph glyph-name="iogonek" unicode="&#x12f;" horiz-adv-x="257" 
d="M-2 -118q0 76 85 118q-17 0 -17 18v440q0 18 17 18h91q18 0 18 -18v-440q0 -5 -1 -7q-2 -13 -13 -19q-81 -48 -81 -84q0 -34 51 -34q15 0 24 2h5q14 0 14 -16v-55q0 -16 -17 -19q-20 -5 -45 -5q-60 0 -95.5 28t-35.5 73zM71 687q23 23 58 23t58 -23t23 -57t-23 -57
t-58 -23t-58 23t-23 57t23 57z" />
    <glyph glyph-name="Idotaccent" unicode="&#x130;" horiz-adv-x="294" 
d="M80 682q0 18 18 18h98q18 0 18 -18v-664q0 -18 -18 -18h-98q-18 0 -18 18v664zM66 854q0 34 23 57t58 23t58 -23t23 -57t-23 -57t-58 -23t-58 23t-23 57z" />
    <glyph glyph-name="dotlessi" unicode="&#x131;" horiz-adv-x="257" 
d="M83 476h91q18 0 18 -18v-440q0 -18 -18 -18h-91q-17 0 -17 18v440q0 18 17 18z" />
    <glyph glyph-name="Jcircumflex" unicode="&#x134;" horiz-adv-x="638" 
d="M49 239v75q0 18 18 18h100q17 0 17 -18v-62q0 -138 123 -138q125 0 125 138v324h-266q-18 0 -18 18v88q0 18 18 18h382q17 0 17 -18v-439q0 -123 -67 -189t-191 -66q-123 0 -190.5 65.5t-67.5 185.5zM187 791l107 127q9 10 22 10h94q13 0 22 -10l107 -127q5 -6 5 -11
q0 -3 -2 -7t-13 -4h-82q-13 0 -22 10l-61 74h-2l-61 -74q-7 -10 -22 -10h-82q-11 0 -13 4t-2 7q0 5 5 11z" />
    <glyph glyph-name="jcircumflex" unicode="&#x135;" horiz-adv-x="257" 
d="M-40 -110q14 -2 25 -2q44 0 62.5 20t18.5 71v479q0 18 17 18h91q18 0 18 -18v-488q0 -102 -44 -150t-132 -48q-33 0 -60 6q-15 4 -15 19v77q0 16 14 16h5zM-17 567l76 125q7 12 21 12h97q13 0 20 -12l77 -125q3 -6 3 -11q0 -3 -2 -7t-13 -4h-67q-13 0 -21 13l-44 75h-3
l-44 -75q-8 -13 -21 -13h-67q-11 0 -13 4t-2 7q0 5 3 11z" />
    <glyph glyph-name="uni0136" unicode="&#x136;" horiz-adv-x="697" 
d="M80 18v664q0 18 18 18h98q18 0 18 -18v-316h78l199 322q8 12 22 12h118q11 0 13.5 -4t2.5 -7q0 -4 -4 -10l-211 -340q187 -72 224 -320v-3q0 -16 -17 -16h-111q-15 0 -18 16q-20 121 -80 171.5t-169 50.5h-47v-220q0 -18 -18 -18h-98q-18 0 -18 18zM291 -241l16 145
q2 17 18 17h90q16 0 16 -13q0 -3 -1 -7l-39 -145q-5 -15 -20 -15h-64q-16 0 -16 13v5z" />
    <glyph glyph-name="uni0137" unicode="&#x137;" horiz-adv-x="567" 
d="M66 18v664q0 18 17 18h91q18 0 18 -18v-390h48q14 0 21 -1l121 174q8 11 22 11h109q11 0 13 -4.5t2 -6.5q0 -5 -4 -10l-138 -195q125 -64 152 -241v-5q0 -14 -17 -14h-97q-16 0 -18 17q-16 87 -59 124t-124 37h-31v-160q0 -18 -18 -18h-91q-17 0 -17 18zM209 -241l16 145
q2 17 18 17h90q16 0 16 -13q0 -3 -1 -7l-39 -145q-5 -15 -20 -15h-64q-16 0 -16 13v5z" />
    <glyph glyph-name="Lacute" unicode="&#x139;" horiz-adv-x="576" 
d="M98 700h98q18 0 18 -18v-557h314q18 0 18 -18v-89q0 -18 -18 -18h-430q-18 0 -18 18v664q0 18 18 18zM66 791l81 125q7 12 21 12h106q11 0 13 -4t2 -7q0 -4 -5 -10l-100 -127q-7 -10 -21 -10h-86q-11 0 -13 4t-2 6q0 5 4 11z" />
    <glyph glyph-name="lacute" unicode="&#x13a;" horiz-adv-x="257" 
d="M66 682q0 18 17 18h91q18 0 18 -18v-664q0 -18 -18 -18h-91q-17 0 -17 18v664zM48 791l81 125q7 12 21 12h106q11 0 13 -4t2 -7q0 -4 -5 -10l-100 -127q-7 -10 -21 -10h-86q-11 0 -13 4t-2 6q0 5 4 11z" />
    <glyph glyph-name="uni013B" unicode="&#x13b;" horiz-adv-x="576" 
d="M80 18v664q0 18 18 18h98q18 0 18 -18v-557h314q18 0 18 -18v-89q0 -18 -18 -18h-430q-18 0 -18 18zM234 -241l16 145q2 17 18 17h90q16 0 16 -13q0 -3 -1 -7l-39 -145q-4 -15 -20 -15h-64q-16 0 -16 13v5z" />
    <glyph glyph-name="uni013C" unicode="&#x13c;" horiz-adv-x="257" 
d="M66 18v664q0 18 17 18h91q18 0 18 -18v-664q0 -18 -18 -18h-91q-17 0 -17 18zM48 -241l16 145q2 17 18 17h90q16 0 16 -13q0 -3 -1 -7l-39 -145q-4 -15 -20 -15h-64q-16 0 -16 13v5z" />
    <glyph glyph-name="Lcaron" unicode="&#x13d;" horiz-adv-x="576" 
d="M98 700h98q18 0 18 -18v-557h314q18 0 18 -18v-89q0 -18 -18 -18h-430q-18 0 -18 18v664q0 18 18 18zM345 444l19 251q2 17 18 17h73q17 0 17 -16v-3l-22 -251q-1 -16 -18 -16h-70q-17 0 -17 16v2z" />
    <glyph glyph-name="lcaron" unicode="&#x13e;" horiz-adv-x="410" 
d="M66 18v664q0 18 17 18h91q18 0 18 -18v-664q0 -18 -18 -18h-91q-17 0 -17 18zM278 694q0 18 18 18h91q18 0 18 -16v-3l-16 -251q-1 -16 -18 -16h-75q-18 0 -18 17v251z" />
    <glyph glyph-name="Ldot" unicode="&#x13f;" horiz-adv-x="581" 
d="M80 682q0 18 18 18h98q18 0 18 -18v-557h314q18 0 18 -18v-89q0 -18 -18 -18h-430q-18 0 -18 18v664zM362 417q23 23 60 23t60 -23t23 -60t-23 -59q-23 -23 -60 -23t-60 22.5t-23 59.5t23 60z" />
    <glyph glyph-name="ldot" unicode="&#x140;" horiz-adv-x="439" 
d="M83 700h91q18 0 18 -18v-664q0 -18 -18 -18h-91q-17 0 -17 18v664q0 18 17 18zM262 332q0 36 22.5 59t59.5 23t60 -23t23 -59q0 -37 -23 -60t-60 -23t-59.5 23t-22.5 60z" />
    <glyph glyph-name="Lslash" unicode="&#x141;" horiz-adv-x="611" 
d="M10 200v84q0 15 13 22l87 46v330q0 18 18 18h98q18 0 18 -18v-259l212 113q5 3 10 3q3 0 7 -2.5t4 -12.5v-85q0 -14 -13 -21l-220 -117v-176h314q18 0 18 -18v-89q0 -18 -18 -18h-430q-18 0 -18 18v211l-79 -42q-5 -2 -9 -2q-3 0 -7.5 2.5t-4.5 12.5z" />
    <glyph glyph-name="lslash" unicode="&#x142;" horiz-adv-x="368" 
d="M26 294l95 60v328q0 18 18 18h90q18 0 18 -18v-244l85 54q5 3 9 3q3 0 7.5 -2.5t4.5 -12.5v-83q0 -15 -12 -22l-94 -60v-297q0 -18 -18 -18h-90q-18 0 -18 18v213l-85 -53q-6 -4 -11 -4q-2 0 -6 2t-4 13v83q0 14 11 22z" />
    <glyph glyph-name="Nacute" unicode="&#x143;" horiz-adv-x="769" 
d="M80 682q0 18 18 18h96q15 0 22 -11l337 -466h2v459q0 18 18 18h98q18 0 18 -18v-664q0 -18 -18 -18h-97q-14 0 -21 11l-338 466h-1v-459q0 -18 -18 -18h-98q-18 0 -18 18v664zM304 791l81 125q7 12 21 12h106q11 0 13 -4t2 -7q0 -4 -5 -10l-100 -127q-7 -10 -21 -10h-86
q-11 0 -13 4t-2 6q0 5 4 11z" />
    <glyph glyph-name="nacute" unicode="&#x144;" horiz-adv-x="590" 
d="M83 476h89q17 0 17 -18v-50h3q42 80 154 80q86 0 135 -53t49 -146v-271q0 -18 -18 -18h-90q-18 0 -18 18v239q0 115 -100 115q-52 0 -82 -31t-30 -86v-237q0 -18 -18 -18h-91q-17 0 -17 18v440q0 18 17 18zM217 567l81 125q8 12 21 12h106q11 0 13 -4t2 -7q0 -4 -5 -10
l-100 -127q-7 -10 -21 -10h-86q-11 0 -13 4t-2 6q0 5 4 11z" />
    <glyph glyph-name="uni0145" unicode="&#x145;" horiz-adv-x="769" 
d="M98 700h96q15 0 22 -11l337 -466h2v459q0 18 18 18h98q18 0 18 -18v-664q0 -18 -18 -18h-97q-14 0 -21 11l-338 466h-1v-459q0 -18 -18 -18h-98q-18 0 -18 18v664q0 18 18 18zM304 -241l16 145q2 17 18 17h90q16 0 16 -13q0 -3 -1 -7l-39 -145q-4 -15 -20 -15h-64
q-16 0 -16 13v5z" />
    <glyph glyph-name="uni0146" unicode="&#x146;" horiz-adv-x="590" 
d="M66 458q0 18 17 18h89q17 0 17 -18v-50h3q42 80 154 80q86 0 135 -53t49 -146v-271q0 -18 -18 -18h-90q-18 0 -18 18v239q0 115 -100 115q-52 0 -82 -31t-30 -86v-237q0 -18 -18 -18h-91q-17 0 -17 18v440zM217 -241l16 145q2 17 18 17h90q16 0 16 -13q0 -3 -1 -7
l-39 -145q-5 -15 -20 -15h-64q-16 0 -16 13v5z" />
    <glyph glyph-name="Ncaron" unicode="&#x147;" horiz-adv-x="769" 
d="M80 18v664q0 18 18 18h96q15 0 22 -11l337 -466h2v459q0 18 18 18h98q18 0 18 -18v-664q0 -18 -18 -18h-97q-14 0 -21 11l-338 466h-1v-459q0 -18 -18 -18h-98q-18 0 -18 18zM204 922q3 6 14 6h82q15 0 22 -10l61 -75h2l61 75q9 10 22 10h82q11 0 13 -4t2 -7q0 -5 -5 -11
l-107 -127q-9 -10 -22 -10h-94q-13 0 -22 10l-107 127q-5 6 -5 12q0 2 1 4z" />
    <glyph glyph-name="ncaron" unicode="&#x148;" horiz-adv-x="590" 
d="M66 18v440q0 18 17 18h89q17 0 17 -18v-50h3q42 80 154 80q86 0 135 -53t49 -146v-271q0 -18 -18 -18h-90q-18 0 -18 18v239q0 115 -100 115q-52 0 -82 -31t-30 -86v-237q0 -18 -18 -18h-91q-17 0 -17 18zM117 698q3 6 14 6h82q15 0 22 -10l61 -75h2l61 75q9 10 22 10h82
q11 0 13 -4t2 -7q0 -5 -5 -11l-107 -127q-9 -10 -22 -10h-94q-13 0 -22 10l-107 127q-5 6 -5 12q0 2 1 4z" />
    <glyph glyph-name="Eng" unicode="&#x14a;" horiz-adv-x="769" 
d="M671 700q18 0 18 -18v-697q0 -99 -41 -144.5t-131 -45.5q-35 0 -59 4q-16 3 -16 20v80q0 18 20 16q7 -1 24 -1q42 0 58 17.5t16 63.5v6l-345 476h-1v-459q0 -18 -18 -18h-98q-18 0 -18 18v664q0 18 18 18h96q15 0 22 -11l337 -466h2v459q0 18 18 18h98z" />
    <glyph glyph-name="eng" unicode="&#x14b;" horiz-adv-x="590" 
d="M346 488q86 0 135 -53t49 -146v-293q0 -100 -40.5 -145.5t-131.5 -45.5q-35 0 -59 4q-16 3 -16 19v78q0 18 19 16q8 -1 24 -1q44 0 61 18t17 66v252q0 115 -100 115q-52 0 -82 -31t-30 -86v-237q0 -18 -18 -18h-91q-17 0 -17 18v440q0 18 17 18h89q17 0 17 -18v-50h3
q42 80 154 80z" />
    <glyph glyph-name="Omacron" unicode="&#x14c;" horiz-adv-x="824" 
d="M50 350q0 153 104 257.5t258 104.5t258 -104.5t104 -257.5t-104 -257q-104 -105 -258 -105t-258 104.5t-104 257.5zM188 350q0 -103 62 -169q62 -67 162 -67t162 66.5t62 169.5t-62 169.5t-162 66.5t-162 -66.5t-62 -169.5zM258 867q0 18 17 18h274q17 0 17 -18v-62
q0 -17 -17 -17h-274q-17 0 -17 17v62z" />
    <glyph glyph-name="omacron" unicode="&#x14d;" horiz-adv-x="595" 
d="M114 417q73 71 184 71t183.5 -71.5t72.5 -178.5t-72 -178q-73 -72 -184 -72t-184.5 71.5t-73.5 178.5t74 179zM205 141q35 -39 93 -39t93 38.5t35 97.5t-35 97t-93 38t-93.5 -38t-35.5 -97t36 -97zM144 643q0 18 17 18h274q17 0 17 -18v-62q0 -17 -17 -17h-274
q-17 0 -17 17v62z" />
    <glyph glyph-name="Obreve" unicode="&#x14e;" horiz-adv-x="824" 
d="M50 350q0 153 104 257.5t258 104.5t258 -104.5t104 -257.5t-104 -257q-104 -105 -258 -105t-258 104.5t-104 257.5zM250 181q62 -67 162 -67t162 66.5t62 169.5t-62 169.5t-162 66.5t-162 -66.5t-62 -169.5t62 -169zM264 921h66q16 0 19 -17q7 -55 63 -55t63 55
q3 17 19 17h66q18 0 18 -18q0 -60 -44.5 -98.5t-121.5 -38.5q-76 0 -121 38.5t-45 98.5q0 18 18 18z" />
    <glyph glyph-name="obreve" unicode="&#x14f;" horiz-adv-x="595" 
d="M40 238q0 107 73.5 178.5t184.5 71.5t183.5 -71.5t72.5 -178.5t-72 -178q-73 -72 -184 -72t-184.5 71.5t-73.5 178.5zM169 238q0 -59 36 -97q35 -39 93 -39t93 38.5t35 97.5t-35 97t-93 38t-93.5 -38t-35.5 -97zM132 679q0 18 18 18h66q16 0 19 -17q7 -55 63 -55t63 55
q3 17 19 17h66q18 0 18 -18q0 -60 -44.5 -98.5t-121.5 -38.5q-76 0 -121 38.5t-45 98.5z" />
    <glyph glyph-name="Ohungarumlaut" unicode="&#x150;" horiz-adv-x="824" 
d="M50 350q0 153 104 257.5t258 104.5t258 -104.5t104 -257.5t-104 -257q-104 -105 -258 -105t-258 104.5t-104 257.5zM188 350q0 -103 62 -169q62 -67 162 -67t162 66.5t62 169.5t-62 169.5t-162 66.5t-162 -66.5t-62 -169.5zM432 791l82 126q7 11 21 11h81q11 0 13.5 -4
t2.5 -6q0 -5 -5 -11l-94 -126q-8 -11 -22 -11h-68q-11 0 -13 3.5t-2 6.5q0 4 4 11zM240 791l83 126q7 11 21 11h80q11 0 13.5 -4t2.5 -6q0 -5 -5 -11l-94 -126q-8 -11 -21 -11h-68q-11 0 -13.5 4t-2.5 6q0 5 4 11z" />
    <glyph glyph-name="ohungarumlaut" unicode="&#x151;" horiz-adv-x="595" 
d="M114 417q73 71 184 71t183.5 -71.5t72.5 -178.5t-72 -178q-73 -72 -184 -72t-184.5 71.5t-73.5 178.5t74 179zM205 141q35 -39 93 -39t93 38.5t35 97.5t-35 97t-93 38t-93.5 -38t-35.5 -97t36 -97zM318 567l82 126q7 11 21 11h81q11 0 13.5 -4t2.5 -6q0 -5 -5 -11
l-94 -126q-8 -11 -22 -11h-68q-11 0 -13 3.5t-2 6.5q0 4 4 11zM126 567l83 126q7 11 21 11h80q11 0 13.5 -4t2.5 -6q0 -5 -5 -11l-94 -126q-8 -11 -21 -11h-68q-11 0 -13.5 4t-2.5 6q0 5 4 11z" />
    <glyph glyph-name="OE" unicode="&#x152;" horiz-adv-x="1055" 
d="M987 123q18 0 18 -18v-87q0 -18 -18 -18h-578q-159 0 -259 98t-100 252t100 252t259 98h574q18 0 18 -18v-87q0 -18 -18 -18h-337v-166h265q18 0 18 -18v-86q0 -18 -18 -18h-265v-166h341zM188 350q0 -104 60 -164.5t164 -60.5h100v450h-100q-104 0 -164 -60.5
t-60 -164.5z" />
    <glyph glyph-name="oe" unicode="&#x153;" horiz-adv-x="966" 
d="M40 238q0 107 73.5 178.5t184.5 71.5q119 0 187 -86h3q68 86 190 86q109 0 178 -69t69 -180v-13q0 -25 -22 -25h-351q16 -111 131 -111q80 0 108 48q7 13 20 13h85q9 0 12.5 -4.5t3.5 -8.5q0 -3 -1 -7q-21 -63 -81.5 -103t-147.5 -40q-126 0 -195 85h-3q-69 -85 -186 -85
q-111 0 -184.5 71.5t-73.5 178.5zM169 238q0 -59 36 -97q35 -39 93 -39t93 38.5t35 97.5t-35 97t-93 38t-93.5 -38t-35.5 -97zM799 283q-17 104 -120 104q-105 0 -125 -104h245z" />
    <glyph glyph-name="Racute" unicode="&#x154;" horiz-adv-x="691" 
d="M80 682q0 18 18 18h266q124 0 194 -62.5t70 -171.5q0 -73 -33 -127.5t-94 -81.5q102 -65 131 -238q1 -4 1 -7q0 -12 -17 -12h-110q-17 0 -20 16q-21 115 -72.5 164t-142.5 49h-57v-211q0 -18 -18 -18h-98q-18 0 -18 18v664zM214 355h143q133 0 133 111q0 110 -133 110
h-143v-221zM259 791l81 125q8 12 21 12h106q11 0 13 -4t2 -7q0 -4 -5 -10l-100 -127q-7 -10 -21 -10h-86q-11 0 -13 4t-2 6q0 5 4 11z" />
    <glyph glyph-name="racute" unicode="&#x155;" horiz-adv-x="399" 
d="M66 18v440q0 18 17 18h88q18 0 18 -18v-68h2q19 46 57.5 70.5t87.5 24.5q11 0 27 -2q15 -4 15 -20v-84q0 -16 -15 -16h-4q-9 1 -29 1q-138 0 -138 -167v-179q0 -18 -18 -18h-91q-17 0 -17 18zM127 567l81 125q8 12 21 12h106q11 0 13 -4t2 -7q0 -4 -5 -10l-100 -127
q-7 -10 -21 -10h-86q-11 0 -13 4t-2 6q0 5 4 11z" />
    <glyph glyph-name="uni0156" unicode="&#x156;" horiz-adv-x="691" 
d="M98 700h266q124 0 194 -62.5t70 -171.5q0 -73 -33 -127.5t-94 -81.5q102 -65 131 -238q1 -4 1 -7q0 -12 -17 -12h-110q-17 0 -20 16q-21 115 -72.5 164t-142.5 49h-57v-211q0 -18 -18 -18h-98q-18 0 -18 18v664q0 18 18 18zM214 355h143q133 0 133 111q0 110 -133 110
h-143v-221zM266 -241l16 145q2 17 18 17h90q16 0 16 -13q0 -3 -1 -7l-39 -145q-4 -15 -20 -15h-64q-16 0 -16 13v5z" />
    <glyph glyph-name="uni0157" unicode="&#x157;" horiz-adv-x="399" 
d="M66 18v440q0 18 17 18h88q18 0 18 -18v-68h2q19 46 57.5 70.5t87.5 24.5q11 0 27 -2q15 -4 15 -20v-84q0 -16 -15 -16h-4q-9 1 -29 1q-138 0 -138 -167v-179q0 -18 -18 -18h-91q-17 0 -17 18zM48 -241l16 145q2 17 18 17h90q16 0 16 -13q0 -3 -1 -7l-39 -145
q-4 -15 -20 -15h-64q-16 0 -16 13v5z" />
    <glyph glyph-name="Rcaron" unicode="&#x158;" horiz-adv-x="691" 
d="M98 700h266q124 0 194 -62.5t70 -171.5q0 -73 -33 -127.5t-94 -81.5q102 -65 131 -238q1 -4 1 -7q0 -12 -17 -12h-110q-17 0 -20 16q-21 115 -72.5 164t-142.5 49h-57v-211q0 -18 -18 -18h-98q-18 0 -18 18v664q0 18 18 18zM214 355h143q133 0 133 111q0 110 -133 110
h-143v-221zM160 922q3 6 14 6h82q15 0 22 -10l61 -75h2l61 75q9 10 22 10h82q11 0 13 -4t2 -7q0 -5 -5 -11l-107 -127q-9 -10 -22 -10h-94q-13 0 -22 10l-107 127q-5 6 -5 12q0 2 1 4z" />
    <glyph glyph-name="rcaron" unicode="&#x159;" horiz-adv-x="399" 
d="M66 18v440q0 18 17 18h88q18 0 18 -18v-68h2q19 46 57.5 70.5t87.5 24.5q11 0 27 -2q15 -4 15 -20v-84q0 -16 -15 -16h-4q-9 1 -29 1q-138 0 -138 -167v-179q0 -18 -18 -18h-91q-17 0 -17 18zM28 698q3 6 14 6h82q15 0 22 -10l61 -75h2l61 75q9 10 22 10h82q11 0 13 -4
t2 -7q0 -5 -5 -11l-107 -127q-9 -10 -22 -10h-94q-13 0 -22 10l-107 127q-5 6 -5 12q0 2 1 4z" />
    <glyph glyph-name="Sacute" unicode="&#x15a;" horiz-adv-x="630" 
d="M62 209h99q16 0 19 -16q20 -86 140 -86q65 0 99 24.5t34 67.5q0 73 -103 90l-102 17q-199 36 -199 198q0 95 68 151.5t194 56.5q121 0 189 -53t78 -154v-5q0 -13 -16 -13h-99q-15 0 -18 17q-7 47 -39.5 68t-94.5 21q-127 0 -127 -87q0 -36 26 -56.5t93 -32.5l102 -18
q184 -30 184 -194q0 -103 -71 -160t-197 -57q-121 0 -192 53t-84 150v4q0 14 17 14zM235 791l81 125q8 12 21 12h106q11 0 13 -4t2 -7q0 -4 -5 -10l-100 -127q-7 -10 -21 -10h-86q-11 0 -13 4t-2 6q0 5 4 11z" />
    <glyph glyph-name="sacute" unicode="&#x15b;" horiz-adv-x="505" 
d="M42 137q5 5 14 5h90q13 0 19 -16q16 -44 90 -44q87 0 87 55q0 23 -17 34.5t-61 17.5l-75 10q-75 10 -112.5 46t-37.5 93q0 68 54 109t157 41q189 0 210 -141v-5q0 -14 -16 -14h-88q-15 0 -19 16q-14 49 -88 49q-86 0 -86 -53q0 -19 17.5 -30t62.5 -17l74 -10
q149 -20 149 -141q0 -73 -55.5 -113.5t-156.5 -40.5q-95 0 -149.5 35.5t-65.5 99.5q-1 2 -1 4q0 6 4 10zM170 567l81 125q7 12 21 12h106q11 0 13 -4t2 -7q0 -4 -5 -10l-100 -127q-7 -10 -21 -10h-86q-11 0 -13 4t-2 6q0 5 4 11z" />
    <glyph glyph-name="Scircumflex" unicode="&#x15c;" horiz-adv-x="630" 
d="M62 209h99q16 0 19 -16q20 -86 140 -86q65 0 99 24.5t34 67.5q0 73 -103 90l-102 17q-199 36 -199 198q0 95 68 151.5t194 56.5q121 0 189 -53t78 -154v-5q0 -13 -16 -13h-99q-15 0 -18 17q-7 47 -39.5 68t-94.5 21q-127 0 -127 -87q0 -36 26 -56.5t93 -32.5l102 -18
q184 -30 184 -194q0 -103 -71 -160t-197 -57q-121 0 -192 53t-84 150v4q0 14 17 14zM139 791l107 127q9 10 22 10h94q13 0 22 -10l107 -127q5 -6 5 -11q0 -3 -2 -7t-13 -4h-82q-13 0 -22 10l-61 74h-2l-61 -74q-7 -10 -22 -10h-82q-11 0 -13 4t-2 7q0 5 5 11z" />
    <glyph glyph-name="scircumflex" unicode="&#x15d;" horiz-adv-x="505" 
d="M42 137q5 5 14 5h90q13 0 19 -16q16 -44 90 -44q87 0 87 55q0 23 -17 34.5t-61 17.5l-75 10q-75 10 -112.5 46t-37.5 93q0 68 54 109t157 41q189 0 210 -141v-5q0 -14 -16 -14h-88q-15 0 -19 16q-14 49 -88 49q-86 0 -86 -53q0 -19 17.5 -30t62.5 -17l74 -10
q149 -20 149 -141q0 -73 -55.5 -113.5t-156.5 -40.5q-95 0 -149.5 35.5t-65.5 99.5q-1 2 -1 4q0 6 4 10zM74 567l107 127q9 10 22 10h94q13 0 22 -10l107 -127q5 -6 5 -11q0 -3 -2 -7t-13 -4h-82q-13 0 -22 10l-61 74h-2l-61 -74q-7 -10 -22 -10h-82q-11 0 -13 4t-2 7
q0 5 5 11z" />
    <glyph glyph-name="Scedilla" unicode="&#x15e;" horiz-adv-x="630" 
d="M62 209h99q16 0 19 -16q20 -86 140 -86q65 0 99 24.5t34 67.5q0 73 -103 90l-102 17q-199 36 -199 198q0 95 68 151.5t194 56.5q121 0 189 -53t78 -154v-5q0 -13 -16 -13h-99q-15 0 -18 17q-7 47 -39.5 68t-94.5 21q-127 0 -127 -87q0 -36 26 -56.5t93 -32.5l102 -18
q184 -30 184 -194q0 -89 -54 -144t-152 -69l-47 -161q-3 -15 -19 -15h-87q-16 0 -16 11q0 4 2 9l56 155q-99 10 -157.5 62t-69.5 138v4q0 14 17 14z" />
    <glyph glyph-name="scedilla" unicode="&#x15f;" horiz-adv-x="505" 
d="M42 137q5 5 14 5h90q13 0 19 -16q16 -44 90 -44q87 0 87 55q0 23 -17 34.5t-61 17.5l-75 10q-75 10 -112.5 46t-37.5 93q0 68 54 109t157 41q189 0 210 -141v-5q0 -14 -16 -14h-88q-15 0 -19 16q-14 49 -88 49q-86 0 -86 -53q0 -19 17.5 -30t62.5 -17l74 -10
q149 -20 149 -141q0 -62 -40 -101t-115 -49l-47 -161q-3 -15 -19 -15h-87q-16 0 -16 11q0 4 2 9l56 155q-140 19 -161 132q-1 2 -1 4q0 6 4 10z" />
    <glyph glyph-name="Scaron" unicode="&#x160;" horiz-adv-x="630" 
d="M62 209h99q16 0 19 -16q20 -86 140 -86q65 0 99 24.5t34 67.5q0 73 -103 90l-102 17q-199 36 -199 198q0 95 68 151.5t194 56.5q121 0 189 -53t78 -154v-5q0 -13 -16 -13h-99q-15 0 -18 17q-7 47 -39.5 68t-94.5 21q-127 0 -127 -87q0 -36 26 -56.5t93 -32.5l102 -18
q184 -30 184 -194q0 -103 -71 -160t-197 -57q-121 0 -192 53t-84 150v4q0 14 17 14zM135 922q3 6 14 6h82q15 0 22 -10l61 -75h2l61 75q9 10 22 10h82q11 0 13 -4t2 -7q0 -5 -5 -11l-107 -127q-9 -10 -22 -10h-94q-13 0 -22 10l-107 127q-5 6 -5 12q0 2 1 4z" />
    <glyph glyph-name="scaron" unicode="&#x161;" horiz-adv-x="505" 
d="M42 137q5 5 14 5h90q13 0 19 -16q16 -44 90 -44q87 0 87 55q0 23 -17 34.5t-61 17.5l-75 10q-75 10 -112.5 46t-37.5 93q0 68 54 109t157 41q189 0 210 -141v-5q0 -14 -16 -14h-88q-15 0 -19 16q-14 49 -88 49q-86 0 -86 -53q0 -19 17.5 -30t62.5 -17l74 -10
q149 -20 149 -141q0 -73 -55.5 -113.5t-156.5 -40.5q-95 0 -149.5 35.5t-65.5 99.5q-1 2 -1 4q0 6 4 10zM70 698q3 6 14 6h82q15 0 22 -10l61 -75h2l61 75q9 10 22 10h82q11 0 13 -4t2 -7q0 -5 -5 -11l-107 -127q-9 -10 -22 -10h-94q-13 0 -22 10l-107 127q-5 6 -5 12
q0 2 1 4z" />
    <glyph glyph-name="uni0162" unicode="&#x162;" horiz-adv-x="594" 
d="M41 700h512q18 0 18 -18v-89q0 -18 -18 -18h-189v-557q0 -18 -18 -18h-98q-18 0 -18 18v557h-189q-18 0 -18 18v89q0 18 18 18zM212 -241l16 145q2 17 18 17h90q16 0 16 -13q0 -3 -1 -7l-39 -145q-4 -15 -20 -15h-64q-16 0 -16 13v5z" />
    <glyph glyph-name="uni0163" unicode="&#x163;" horiz-adv-x="443" 
d="M14 385v73q0 18 18 18h83v114q0 18 17 18h91q18 0 18 -18v-114h150q18 0 18 -18v-73q0 -18 -18 -18h-150v-176q0 -48 20.5 -68.5t66.5 -20.5q37 0 65 12q6 2 10 2q10 0 10 -15v-76q0 -13 -12 -19q-42 -18 -99 -18q-187 0 -187 189v190h-83q-18 0 -18 18zM185 -241l16 145
q2 17 18 17h90q16 0 16 -13q0 -3 -1 -7l-39 -145q-5 -15 -20 -15h-64q-16 0 -16 13v5z" />
    <glyph glyph-name="Tcaron" unicode="&#x164;" horiz-adv-x="594" 
d="M23 593v89q0 18 18 18h512q18 0 18 -18v-89q0 -18 -18 -18h-189v-557q0 -18 -18 -18h-98q-18 0 -18 18v557h-189q-18 0 -18 18zM117 922q3 6 14 6h82q15 0 22 -10l61 -75h2l61 75q9 10 22 10h82q11 0 13 -4t2 -7q0 -5 -5 -11l-107 -127q-9 -10 -22 -10h-94q-13 0 -22 10
l-107 127q-5 6 -5 12q0 2 1 4z" />
    <glyph glyph-name="tcaron" unicode="&#x165;" horiz-adv-x="442" 
d="M32 476h83v114q0 18 17 18h91q18 0 18 -18v-114h150q18 0 18 -18v-73q0 -18 -18 -18h-150v-176q0 -48 20.5 -68.5t66.5 -20.5q37 0 65 12q6 2 10 2q10 0 10 -15v-76q0 -13 -12 -19q-42 -18 -99 -18q-187 0 -187 189v190h-83q-18 0 -18 18v73q0 18 18 18zM316 754h74
q18 0 18 -15v-3l-14 -183q-2 -17 -18 -17h-60q-18 0 -18 18v183q0 17 18 17z" />
    <glyph glyph-name="Tbar" unicode="&#x166;" horiz-adv-x="594" 
d="M23 682q0 18 18 18h512q18 0 18 -18v-89q0 -18 -18 -18h-189v-187h104q18 0 18 -18v-70q0 -18 -18 -18h-104v-264q0 -18 -18 -18h-98q-18 0 -18 18v264h-104q-18 0 -18 18v70q0 18 18 18h104v187h-189q-18 0 -18 18v89z" />
    <glyph glyph-name="tbar" unicode="&#x167;" horiz-adv-x="457" 
d="M401 114q20 8 20 -13v-76q0 -14 -12 -19q-40 -18 -99 -18q-187 0 -187 189v33h-81q-18 0 -18 18v43q0 17 18 17h81v86h-81q-18 0 -18 18v66q0 18 18 18h81v114q0 18 18 18h90q18 0 18 -18v-114h148q17 0 17 -18v-66q0 -18 -17 -18h-148v-86h121q18 0 18 -17v-43
q0 -18 -18 -18h-121v-19q0 -48 20.5 -68.5t66.5 -20.5q37 0 65 12z" />
    <glyph glyph-name="Utilde" unicode="&#x168;" horiz-adv-x="722" 
d="M73 682q0 18 18 18h98q18 0 18 -18v-388q0 -177 154 -177t154 177v388q0 18 18 18h98q18 0 18 -18v-399q0 -141 -76 -218t-212 -77t-212 77t-76 218v399zM284 923q36 0 88 -36q31 -22 48 -22q25 0 29 38q1 18 18 18h55q16 0 16 -20v-7q-9 -123 -100 -123q-38 0 -88 35
q-31 22 -48 22q-25 0 -29 -38q-1 -18 -18 -18h-55q-17 0 -17 19q6 132 101 132z" />
    <glyph glyph-name="utilde" unicode="&#x169;" horiz-adv-x="586" 
d="M77 476h91q18 0 18 -18v-240q0 -115 96 -115q52 0 82.5 31.5t30.5 85.5v238q0 18 17 18h91q18 0 18 -18v-440q0 -18 -18 -18h-88q-18 0 -18 18v50h-3q-41 -80 -153 -80q-85 0 -133 52.5t-48 146.5v271q0 18 17 18zM112 567q6 132 101 132q36 0 88 -36q31 -22 48 -22
q25 0 29 38q2 18 18 18h55q16 0 16 -20v-7q-9 -123 -100 -123q-38 0 -88 35q-31 22 -48 22q-25 0 -29 -38q-2 -18 -18 -18h-55q-17 0 -17 19z" />
    <glyph glyph-name="Umacron" unicode="&#x16a;" horiz-adv-x="722" 
d="M91 700h98q18 0 18 -18v-388q0 -177 154 -177t154 177v388q0 18 18 18h98q18 0 18 -18v-399q0 -141 -76 -218t-212 -77t-212 77t-76 218v399q0 18 18 18zM207 867q0 18 17 18h274q17 0 17 -18v-62q0 -17 -17 -17h-274q-17 0 -17 17v62z" />
    <glyph glyph-name="umacron" unicode="&#x16b;" horiz-adv-x="586" 
d="M60 187v271q0 18 17 18h91q18 0 18 -18v-240q0 -115 96 -115q52 0 82.5 31.5t30.5 85.5v238q0 18 17 18h91q18 0 18 -18v-440q0 -18 -18 -18h-88q-18 0 -18 18v50h-3q-41 -80 -153 -80q-85 0 -133 52.5t-48 146.5zM136 643q0 18 17 18h274q17 0 17 -18v-62q0 -17 -17 -17
h-274q-17 0 -17 17v62z" />
    <glyph glyph-name="Ubreve" unicode="&#x16c;" horiz-adv-x="722" 
d="M73 283v399q0 18 18 18h98q18 0 18 -18v-388q0 -177 154 -177t154 177v388q0 18 18 18h98q18 0 18 -18v-399q0 -141 -76 -218t-212 -77t-212 77t-76 218zM195 903q0 18 18 18h66q16 0 19 -17q7 -55 63 -55t63 55q3 17 19 17h66q18 0 18 -18q0 -60 -44.5 -98.5
t-121.5 -38.5q-76 0 -121 38.5t-45 98.5z" />
    <glyph glyph-name="ubreve" unicode="&#x16d;" horiz-adv-x="586" 
d="M60 187v271q0 18 17 18h91q18 0 18 -18v-240q0 -115 96 -115q52 0 82.5 31.5t30.5 85.5v238q0 18 17 18h91q18 0 18 -18v-440q0 -18 -18 -18h-88q-18 0 -18 18v50h-3q-41 -80 -153 -80q-85 0 -133 52.5t-48 146.5zM124 679q0 18 18 18h66q16 0 19 -17q7 -55 63 -55t63 55
q3 17 19 17h66q18 0 18 -18q0 -60 -44.5 -98.5t-121.5 -38.5q-76 0 -121 38.5t-45 98.5z" />
    <glyph glyph-name="Uring" unicode="&#x16e;" horiz-adv-x="722" 
d="M73 283v399q0 18 18 18h98q18 0 18 -18v-388q0 -177 154 -177t154 177v388q0 18 18 18h98q18 0 18 -18v-399q0 -141 -76 -218t-212 -77t-212 77t-76 218zM229 885q0 51 38 87t94 36t94 -36t38 -87q0 -52 -38 -88t-94 -36t-94 36t-38 88zM323 847q14 -15 38 -15t38 14.5
t14 38.5q0 23 -14 37.5t-38 14.5t-38 -14.5t-14 -37.5q0 -24 14 -38z" />
    <glyph glyph-name="uring" unicode="&#x16f;" horiz-adv-x="586" 
d="M77 476h91q18 0 18 -18v-240q0 -115 96 -115q52 0 82.5 31.5t30.5 85.5v238q0 18 17 18h91q18 0 18 -18v-440q0 -18 -18 -18h-88q-18 0 -18 18v50h-3q-41 -80 -153 -80q-85 0 -133 52.5t-48 146.5v271q0 18 17 18zM196 748q38 36 94 36t94 -36t38 -87q0 -52 -38 -88
t-94 -36t-94 36t-38 88q0 51 38 87zM252 623q14 -15 38 -15t38 14.5t14 38.5q0 23 -14 38q-14 14 -38 14t-38 -14.5t-14 -37.5q0 -24 14 -38z" />
    <glyph glyph-name="Uhungarumlaut" unicode="&#x170;" horiz-adv-x="722" 
d="M73 283v399q0 18 18 18h98q18 0 18 -18v-388q0 -177 154 -177t154 177v388q0 18 18 18h98q18 0 18 -18v-399q0 -141 -76 -218t-212 -77t-212 77t-76 218zM381 791l82 126q7 11 21 11h81q11 0 13.5 -4t2.5 -6q0 -5 -5 -11l-94 -126q-8 -11 -22 -11h-68q-11 0 -13 3.5
t-2 6.5q0 4 4 11zM189 791l83 126q7 11 21 11h80q11 0 13.5 -4t2.5 -6q0 -5 -5 -11l-94 -126q-8 -11 -21 -11h-68q-11 0 -13.5 4t-2.5 6q0 5 4 11z" />
    <glyph glyph-name="uhungarumlaut" unicode="&#x171;" horiz-adv-x="586" 
d="M77 476h91q18 0 18 -18v-240q0 -115 96 -115q52 0 82.5 31.5t30.5 85.5v238q0 18 17 18h91q18 0 18 -18v-440q0 -18 -18 -18h-88q-18 0 -18 18v50h-3q-41 -80 -153 -80q-85 0 -133 52.5t-48 146.5v271q0 18 17 18zM310 567l82 126q7 11 21 11h81q11 0 13.5 -4t2.5 -6
q0 -5 -5 -11l-94 -126q-8 -11 -22 -11h-68q-11 0 -13 3.5t-2 6.5q0 4 4 11zM118 567l83 126q7 11 21 11h80q11 0 13.5 -4t2.5 -6q0 -5 -5 -11l-94 -126q-8 -11 -21 -11h-68q-11 0 -13.5 4t-2.5 6q0 5 4 11z" />
    <glyph glyph-name="Uogonek" unicode="&#x172;" horiz-adv-x="722" 
d="M73 682q0 18 18 18h98q18 0 18 -18v-388q0 -177 154 -177t154 177v388q0 18 18 18h98q18 0 18 -18v-399q0 -208 -158 -272q-54 -31 -74.5 -52t-20.5 -40q0 -34 51 -34q15 0 24 2h5q15 0 15 -16v-55q0 -16 -18 -19q-20 -5 -45 -5q-60 0 -95.5 28t-35.5 73q0 55 49 95
q-129 5 -201 81.5t-72 213.5v399z" />
    <glyph glyph-name="uogonek" unicode="&#x173;" horiz-adv-x="586" 
d="M60 187v271q0 18 17 18h91q18 0 18 -18v-240q0 -115 96 -115q52 0 82.5 31.5t30.5 85.5v238q0 18 17 18h91q18 0 18 -18v-440q0 -5 -1 -7q-2 -13 -13 -19q-81 -48 -81 -84q0 -34 51 -34q15 0 24 2h5q14 0 14 -16v-55q0 -16 -17 -19q-20 -5 -45 -5q-60 0 -95.5 28
t-35.5 73q0 76 86 118q-16 2 -16 18v50h-3q-41 -80 -153 -80q-85 0 -133 52.5t-48 146.5z" />
    <glyph glyph-name="Wcircumflex" unicode="&#x174;" horiz-adv-x="1054" 
d="M25 695q4 5 13 5h105q15 0 20 -15l147 -481h3l149 481q3 15 19 15h92q16 0 19 -15l150 -481h2l148 481q3 15 20 15h104q9 0 12 -4.5t3 -8.5q0 -3 -1 -7l-211 -665q-5 -15 -20 -15h-100q-16 0 -20 15l-150 473h-3l-150 -473q-4 -15 -20 -15h-101q-15 0 -19 15l-212 665
q-1 4 -1 7q0 5 2 8zM351 791l107 127q9 10 22 10h94q13 0 22 -10l107 -127q5 -6 5 -11q0 -3 -2 -7t-13 -4h-82q-13 0 -22 10l-61 74h-2l-61 -74q-7 -10 -22 -10h-82q-11 0 -13 4t-2 7q0 5 5 11z" />
    <glyph glyph-name="wcircumflex" unicode="&#x175;" horiz-adv-x="850" 
d="M26 471q4 5 13 5h96q16 0 20 -15l100 -309h3l105 309q5 15 20 15h84q15 0 20 -15l105 -309h3l100 309q5 15 20 15h96q9 0 12 -4.5t3 -8.5q0 -3 -1 -7l-157 -442q-6 -14 -20 -14h-99q-14 0 -20 14l-103 295h-2l-103 -295q-5 -14 -20 -14h-99q-15 0 -20 14l-157 442
q-1 4 -1 7q0 5 2 8zM249 567l107 127q9 10 22 10h94q13 0 22 -10l107 -127q5 -6 5 -11q0 -3 -2 -7t-13 -4h-82q-13 0 -22 10l-61 74h-2l-61 -74q-7 -10 -22 -10h-82q-11 0 -13 4t-2 7q0 5 5 11z" />
    <glyph glyph-name="Ycircumflex" unicode="&#x176;" horiz-adv-x="672" 
d="M18 694q3 6 13 6h112q13 0 21 -12l171 -287h2l171 287q8 12 21 12h112q11 0 13.5 -4t2.5 -7q0 -4 -4 -10l-249 -405v-256q0 -18 -18 -18h-100q-18 0 -18 18v256l-249 405q-3 5 -3 9q0 3 2 6zM160 791l107 127q9 10 22 10h94q13 0 22 -10l107 -127q5 -6 5 -11q0 -3 -2 -7
t-13 -4h-82q-13 0 -22 10l-61 74h-2l-61 -74q-7 -10 -22 -10h-82q-11 0 -13 4t-2 7q0 5 5 11z" />
    <glyph glyph-name="ycircumflex" unicode="&#x177;" horiz-adv-x="591" 
d="M76 -52h87q14 0 19 -16q20 -55 104 -55q118 0 118 122v82h-4q-19 -36 -59.5 -57t-94.5 -21q-86 0 -134.5 52t-48.5 145v258q0 18 18 18h91q17 0 17 -18v-227q0 -115 98 -115q52 0 82 31t30 86v225q0 18 18 18h90q18 0 18 -18v-459q0 -107 -63.5 -167t-175.5 -60
q-97 0 -156.5 42.5t-70.5 115.5v4q0 14 17 14zM116 567l107 127q9 10 22 10h94q13 0 22 -10l107 -127q5 -6 5 -11q0 -3 -2 -7t-13 -4h-82q-13 0 -22 10l-61 74h-2l-61 -74q-7 -10 -22 -10h-82q-11 0 -13 4t-2 7q0 5 5 11z" />
    <glyph glyph-name="Ydieresis" unicode="&#x178;" horiz-adv-x="672" 
d="M18 694q3 6 13 6h112q13 0 21 -12l171 -287h2l171 287q8 12 21 12h112q11 0 13.5 -4t2.5 -7q0 -4 -4 -10l-249 -405v-256q0 -18 -18 -18h-100q-18 0 -18 18v256l-249 405q-3 5 -3 9q0 3 2 6zM373 850q0 33 21 54.5t54 21.5q32 0 53 -22t21 -54q0 -33 -21 -55t-53 -22
q-33 0 -54 22t-21 55zM173 904q21 22 53 22q33 0 54 -21.5t21 -54.5t-21 -55t-54 -22q-32 0 -53 22t-21 55q0 32 21 54z" />
    <glyph glyph-name="Zacute" unicode="&#x179;" horiz-adv-x="621" 
d="M46 18v69q0 12 7 22l343 468h-327q-17 0 -17 18v87q0 18 17 18h483q18 0 18 -18v-69q0 -11 -7 -22l-343 -468h337q17 0 17 -18v-87q0 -18 -17 -18h-493q-18 0 -18 18zM228 791l81 125q7 12 21 12h106q11 0 13 -4t2 -7q0 -4 -5 -10l-100 -127q-7 -10 -21 -10h-86
q-11 0 -13 4t-2 6q0 5 4 11z" />
    <glyph glyph-name="zacute" unicode="&#x17a;" horiz-adv-x="492" 
d="M38 18v56q0 12 9 22l238 271h-222q-17 0 -17 18v73q0 18 17 18h371q17 0 17 -18v-56q0 -14 -8 -22l-237 -271h230q17 0 17 -18v-73q0 -18 -17 -18h-380q-18 0 -18 18zM165 567l81 125q8 12 21 12h106q11 0 13 -4t2 -7q0 -4 -5 -10l-100 -127q-7 -10 -21 -10h-86
q-11 0 -13 4t-2 6q0 5 4 11z" />
    <glyph glyph-name="Zdotaccent" unicode="&#x17b;" horiz-adv-x="621" 
d="M53 109l343 468h-327q-17 0 -17 18v87q0 18 17 18h483q18 0 18 -18v-69q0 -11 -7 -22l-343 -468h337q17 0 17 -18v-87q0 -18 -17 -18h-493q-18 0 -18 18v69q0 12 7 22zM228 854q0 34 23 57t58 23t58 -23t23 -57t-23 -57t-58 -23t-58 23t-23 57z" />
    <glyph glyph-name="zdotaccent" unicode="&#x17c;" horiz-adv-x="492" 
d="M38 18v56q0 12 9 22l238 271h-222q-17 0 -17 18v73q0 18 17 18h371q17 0 17 -18v-56q0 -14 -8 -22l-237 -271h230q17 0 17 -18v-73q0 -18 -17 -18h-380q-18 0 -18 18zM188 687q23 23 58 23t58 -23t23 -57t-23 -57t-58 -23t-58 23t-23 57t23 57z" />
    <glyph glyph-name="Zcaron" unicode="&#x17d;" horiz-adv-x="621" 
d="M53 109l343 468h-327q-17 0 -17 18v87q0 18 17 18h483q18 0 18 -18v-69q0 -11 -7 -22l-343 -468h337q17 0 17 -18v-87q0 -18 -17 -18h-493q-18 0 -18 18v69q0 12 7 22zM128 922q3 6 14 6h82q15 0 22 -10l61 -75h2l61 75q9 10 22 10h82q11 0 13 -4t2 -7q0 -5 -5 -11
l-107 -127q-9 -10 -22 -10h-94q-13 0 -22 10l-107 127q-5 6 -5 12q0 2 1 4z" />
    <glyph glyph-name="zcaron" unicode="&#x17e;" horiz-adv-x="492" 
d="M47 96l238 271h-222q-17 0 -17 18v73q0 18 17 18h371q17 0 17 -18v-56q0 -14 -8 -22l-237 -271h230q17 0 17 -18v-73q0 -18 -17 -18h-380q-18 0 -18 18v56q0 12 9 22zM66 698q3 6 14 6h82q15 0 22 -10l61 -75h2l61 75q9 10 22 10h82q11 0 13 -4t2 -7q0 -5 -5 -11
l-107 -127q-9 -10 -22 -10h-94q-13 0 -22 10l-107 127q-5 6 -5 12q0 2 1 4z" />
    <glyph glyph-name="florin" unicode="&#x192;" horiz-adv-x="505" 
d="M457 707q16 -3 16 -20v-75q0 -18 -18 -16q-6 1 -20 1q-37 0 -54 -14.5t-24 -53.5l-16 -87h105q18 0 18 -18v-47q0 -18 -18 -18h-121l-63 -331q-15 -84 -54.5 -120t-110.5 -36q-28 0 -56 5q-16 3 -16 19v75q0 9 4.5 13.5t12.5 3.5q7 -1 21 -1q37 0 54 14.5t24 53.5l57 304
h-92q-17 0 -17 18v47q0 18 17 18h108l21 114q16 84 56 120t110 36q28 0 56 -5z" />
    <glyph glyph-name="uni01CD" unicode="&#x1cd;" horiz-adv-x="727" 
d="M20 20l267 666q6 14 21 14h111q15 0 21 -14l268 -666q2 -5 2 -9q0 -11 -16 -11h-103q-16 0 -20 14l-47 123h-321l-47 -123q-4 -14 -20 -14h-103q-15 0 -15 10q0 4 2 10zM183 922q3 6 14 6h82q15 0 22 -10l61 -75h2l61 75q9 10 22 10h82q11 0 13 -4t2 -7q0 -5 -5 -11
l-107 -127q-9 -10 -22 -10h-94q-13 0 -22 10l-107 127q-5 6 -5 12q0 2 1 4zM478 256l-113 292h-3l-113 -292h229z" />
    <glyph glyph-name="uni01CE" unicode="&#x1ce;" horiz-adv-x="613" 
d="M106 417q66 71 165 71q50 0 90 -20t60 -57h3v47q0 18 18 18h88q18 0 18 -18v-440q0 -18 -18 -18h-88q-18 0 -18 18v47h-3q-20 -37 -60 -57t-90 -20q-99 0 -165 71.5t-66 178.5t66 179zM169 238q0 -59 35.5 -97.5t93.5 -38.5t93 38.5t35 97.5t-35 97t-93 38t-93 -38
q-36 -38 -36 -97zM130 698q3 6 14 6h82q15 0 22 -10l61 -75h2l61 75q9 10 22 10h82q11 0 13 -4t2 -7q0 -5 -5 -11l-107 -127q-9 -10 -22 -10h-94q-13 0 -22 10l-107 127q-5 6 -5 12q0 2 1 4z" />
    <glyph glyph-name="uni01E2" unicode="&#x1e2;" horiz-adv-x="1074" 
d="M15 21l434 667q7 12 21 12h532q18 0 18 -18v-87q0 -18 -18 -18h-337v-166h265q18 0 18 -18v-86q0 -18 -18 -18h-265v-166h341q18 0 18 -18v-87q0 -18 -18 -18h-457q-18 0 -18 18v121h-287l-82 -127q-8 -12 -21 -12h-114q-10 0 -12.5 4.5t-2.5 7.5q0 4 3 9zM321 259h210
v320h-3zM575 805v62q0 18 17 18h274q17 0 17 -18v-62q0 -17 -17 -17h-274q-17 0 -17 17z" />
    <glyph glyph-name="uni01E3" unicode="&#x1e3;" horiz-adv-x="913" 
d="M241 279h132v8q0 52 -22.5 75.5t-74.5 23.5q-76 0 -90 -46q-4 -15 -20 -15h-90q-17 0 -17 14v4q11 69 64.5 107t148.5 38q126 0 172 -72h3q67 72 178 72q110 0 179 -69t69 -180v-12q0 -26 -25 -26h-349q16 -113 131 -113q83 0 108 49q8 14 21 14h84q9 0 12.5 -4.5
t3.5 -8.5q0 -3 -1 -7q-21 -63 -81.5 -103t-147.5 -40q-127 0 -195 85h-3q-54 -85 -197 -85q-96 0 -147.5 39.5t-51.5 109.5q0 142 206 142zM303 643q0 18 17 18h274q17 0 17 -18v-62q0 -17 -17 -17h-274q-17 0 -17 17v62zM501 283h246q-17 106 -121 106q-106 0 -125 -106z
M246 88q58 0 92.5 25.5t34.5 65.5v21h-122q-92 0 -92 -55q0 -57 87 -57z" />
    <glyph glyph-name="Gcaron" unicode="&#x1e6;" horiz-adv-x="810" 
d="M50 350q0 154 103 258t261 104q120 0 209.5 -61.5t117.5 -162.5q1 -4 1 -7q0 -4 -3.5 -8.5t-12.5 -4.5h-108q-15 0 -21 15q-18 47 -67.5 75t-115.5 28q-103 0 -164.5 -65t-61.5 -171q0 -108 63 -172.5t167 -64.5q87 0 143.5 46t66.5 127h-189q-18 0 -18 18v71q0 18 18 18
h304q17 0 17 -18v-41q0 -155 -96.5 -250.5t-248.5 -95.5q-159 0 -262 103.5t-103 258.5zM234 922q3 6 14 6h82q15 0 22 -10l61 -75h2l61 75q9 10 22 10h82q11 0 13 -4t2 -7q0 -5 -5 -11l-107 -127q-9 -10 -22 -10h-94q-13 0 -22 10l-107 127q-5 6 -5 12q0 2 1 4z" />
    <glyph glyph-name="gcaron" unicode="&#x1e7;" horiz-adv-x="613" 
d="M106 417q66 71 164 71q50 0 90.5 -20t60.5 -57h4v47q0 18 18 18h87q18 0 18 -18v-447q0 -112 -68.5 -175.5t-188.5 -63.5q-101 0 -164.5 44.5t-75.5 121.5v4q0 14 17 14h89q15 0 19 -15q20 -64 116 -64q66 0 100 34.5t34 99.5v65h-4q-20 -37 -60.5 -56.5t-91.5 -19.5
q-98 0 -164 68.5t-66 172.5q0 105 66 176zM169 241q0 -58 35.5 -95.5t93.5 -37.5t93 37.5t35 95.5t-35 95.5t-93 37.5t-93 -37q-36 -38 -36 -96zM125 698q3 6 14 6h82q15 0 22 -10l61 -75h2l61 75q9 10 22 10h82q11 0 13 -4t2 -7q0 -5 -5 -11l-107 -127q-9 -10 -22 -10h-94
q-13 0 -22 10l-107 127q-5 6 -5 12q0 2 1 4z" />
    <glyph glyph-name="uni01E8" unicode="&#x1e8;" horiz-adv-x="697" 
d="M98 700h98q18 0 18 -18v-316h78l199 322q8 12 22 12h118q11 0 13.5 -4t2.5 -7q0 -4 -4 -10l-211 -340q187 -72 224 -320v-3q0 -16 -17 -16h-111q-15 0 -18 16q-20 121 -80 171.5t-169 50.5h-47v-220q0 -18 -18 -18h-98q-18 0 -18 18v664q0 18 18 18zM187 922q3 6 14 6h82
q15 0 22 -10l61 -75h2l61 75q9 10 22 10h82q11 0 13 -4t2 -7q0 -5 -5 -11l-107 -127q-9 -10 -22 -10h-94q-13 0 -22 10l-107 127q-5 6 -5 12q0 2 1 4z" />
    <glyph glyph-name="uni01E9" unicode="&#x1e9;" horiz-adv-x="567" 
d="M66 18v664q0 18 17 18h91q18 0 18 -18v-390h48q14 0 21 -1l121 174q8 11 22 11h109q11 0 13 -4.5t2 -6.5q0 -5 -4 -10l-138 -195q125 -64 152 -241v-5q0 -14 -17 -14h-97q-16 0 -18 17q-16 87 -59 124t-124 37h-31v-160q0 -18 -18 -18h-91q-17 0 -17 18zM-52 922
q3 6 14 6h82q15 0 22 -10l61 -75h2l61 75q9 10 22 10h82q11 0 13 -4t2 -7q0 -5 -5 -11l-107 -127q-9 -10 -22 -10h-94q-13 0 -22 10l-107 127q-5 6 -5 12q0 2 1 4z" />
    <glyph glyph-name="AEacute" unicode="&#x1fc;" horiz-adv-x="1074" 
d="M15 21l434 667q7 12 21 12h532q18 0 18 -18v-87q0 -18 -18 -18h-337v-166h265q18 0 18 -18v-86q0 -18 -18 -18h-265v-166h341q18 0 18 -18v-87q0 -18 -18 -18h-457q-18 0 -18 18v121h-287l-82 -127q-8 -12 -21 -12h-114q-10 0 -12.5 4.5t-2.5 7.5q0 4 3 9zM321 259h210
v320h-3zM648 791l81 125q7 12 21 12h106q11 0 13 -4t2 -7q0 -4 -5 -10l-100 -127q-7 -10 -21 -10h-86q-11 0 -13 4t-2 6q0 5 4 11z" />
    <glyph glyph-name="aeacute" unicode="&#x1fd;" horiz-adv-x="913" 
d="M241 279h132v8q0 52 -22.5 75.5t-74.5 23.5q-76 0 -90 -46q-4 -15 -20 -15h-90q-17 0 -17 14v4q11 69 64.5 107t148.5 38q126 0 172 -72h3q67 72 178 72q110 0 179 -69t69 -180v-12q0 -26 -25 -26h-349q16 -113 131 -113q83 0 108 49q8 14 21 14h84q9 0 12.5 -4.5
t3.5 -8.5q0 -3 -1 -7q-21 -63 -81.5 -103t-147.5 -40q-127 0 -195 85h-3q-54 -85 -197 -85q-96 0 -147.5 39.5t-51.5 109.5q0 142 206 142zM747 283q-17 106 -121 106q-106 0 -125 -106h246zM246 88q58 0 92.5 25.5t34.5 65.5v21h-122q-92 0 -92 -55q0 -57 87 -57zM376 567
l81 125q7 12 21 12h106q11 0 13 -4t2 -7q0 -4 -5 -10l-100 -127q-7 -10 -21 -10h-86q-11 0 -13 4t-2 6q0 5 4 11z" />
    <glyph glyph-name="Oslashacute" unicode="&#x1fe;" horiz-adv-x="824" 
d="M154 608q104 104 258 104q77 0 140 -27l43 74q6 10 15 10q5 0 10 -3l50 -28q9 -6 9 -15q0 -5 -3 -10l-43 -74q66 -49 103.5 -124.5t37.5 -164.5q0 -153 -104 -257.5t-258 -104.5q-76 0 -140 27l-44 -75q-5 -10 -13 -10q-5 0 -11 4l-49 28q-9 5 -9 13q0 5 3 11l43 74
q-66 50 -104 125.5t-38 164.5q0 153 104 258zM184 350q0 -114 74 -182l236 408q-39 14 -82 14q-101 0 -164.5 -68t-63.5 -172zM412 110q101 0 164 68t63 172q0 114 -73 182l-236 -408q39 -14 82 -14zM331 791l81 125q8 12 21 12h106q11 0 13 -4t2 -7q0 -4 -5 -10l-100 -127
q-7 -10 -21 -10h-86q-11 0 -13 4t-2 6q0 5 4 11z" />
    <glyph glyph-name="oslashacute" unicode="&#x1ff;" horiz-adv-x="595" 
d="M114 417q73 71 184 71q45 0 89 -14l34 60q5 10 13 10q5 0 11 -4l41 -24q8 -6 8 -14q0 -4 -2 -9l-33 -57q95 -72 95 -198q0 -107 -72.5 -178.5t-183.5 -71.5q-45 0 -89 14l-34 -60q-6 -9 -14 -9q-5 0 -11 3l-41 24q-8 6 -8 14q0 4 2 9l33 57q-96 72 -96 198q0 107 74 179z
M161 238q0 -65 39 -104l140 241q-20 6 -42 6q-62 0 -99.5 -40t-37.5 -103zM256 101q20 -6 42 -6q61 0 98.5 40.5t37.5 102.5q0 63 -39 104zM217 567l81 125q8 12 21 12h106q11 0 13 -4t2 -7q0 -4 -5 -10l-100 -127q-7 -10 -21 -10h-86q-11 0 -13 4t-2 6q0 5 4 11z" />
    <glyph glyph-name="uni0218" unicode="&#x218;" horiz-adv-x="630" 
d="M62 209h99q16 0 19 -16q20 -86 140 -86q65 0 99 24.5t34 67.5q0 73 -103 90l-102 17q-199 36 -199 198q0 95 68 151.5t194 56.5q121 0 189 -53t78 -154v-5q0 -13 -16 -13h-99q-15 0 -18 17q-7 47 -39.5 68t-94.5 21q-127 0 -127 -87q0 -36 26 -56.5t93 -32.5l102 -18
q184 -30 184 -194q0 -103 -71 -160t-197 -57q-121 0 -192 53t-84 150v4q0 14 17 14zM249 -241l16 145q2 17 18 17h90q16 0 16 -13q0 -3 -1 -7l-39 -145q-4 -15 -20 -15h-64q-16 0 -16 13v5z" />
    <glyph glyph-name="uni0219" unicode="&#x219;" horiz-adv-x="505" 
d="M42 137q5 5 14 5h90q13 0 19 -16q16 -44 90 -44q87 0 87 55q0 23 -17 34.5t-61 17.5l-75 10q-75 10 -112.5 46t-37.5 93q0 68 54 109t157 41q189 0 210 -141v-5q0 -14 -16 -14h-88q-15 0 -19 16q-14 49 -88 49q-86 0 -86 -53q0 -19 17.5 -30t62.5 -17l74 -10
q149 -20 149 -141q0 -73 -55.5 -113.5t-156.5 -40.5q-95 0 -149.5 35.5t-65.5 99.5q-1 2 -1 4q0 6 4 10zM177 -241l16 145q2 17 18 17h90q16 0 16 -13q0 -3 -1 -7l-39 -145q-4 -15 -20 -15h-64q-16 0 -16 13v5z" />
    <glyph glyph-name="uni021A" unicode="&#x21a;" horiz-adv-x="594" 
d="M41 700h512q18 0 18 -18v-89q0 -18 -18 -18h-189v-557q0 -18 -18 -18h-98q-18 0 -18 18v557h-189q-18 0 -18 18v89q0 18 18 18zM212 -241l16 145q2 17 18 17h90q16 0 16 -13q0 -3 -1 -7l-39 -145q-4 -15 -20 -15h-64q-16 0 -16 13v5z" />
    <glyph glyph-name="uni021B" unicode="&#x21b;" horiz-adv-x="443" 
d="M14 385v73q0 18 18 18h83v114q0 18 17 18h91q18 0 18 -18v-114h150q18 0 18 -18v-73q0 -18 -18 -18h-150v-176q0 -48 20.5 -68.5t66.5 -20.5q37 0 65 12q6 2 10 2q10 0 10 -15v-76q0 -13 -12 -19q-42 -18 -99 -18q-187 0 -187 189v190h-83q-18 0 -18 18zM185 -241l16 145
q2 17 18 17h90q16 0 16 -13q0 -3 -1 -7l-39 -145q-5 -15 -20 -15h-64q-16 0 -16 13v5z" />
    <glyph glyph-name="uni0237" unicode="&#x237;" horiz-adv-x="257" 
d="M-59 -203v77q0 16 14 16h5q14 -2 25 -2q44 0 62.5 20t18.5 71v479q0 18 17 18h91q18 0 18 -18v-488q0 -102 -44 -150t-132 -48q-33 0 -60 6q-15 4 -15 19z" />
    <glyph glyph-name="circumflex" unicode="&#x2c6;" 
d="M124 567l107 127q9 10 22 10h94q13 0 22 -10l107 -127q5 -6 5 -11q0 -3 -2 -7t-13 -4h-82q-13 0 -22 10l-61 74h-2l-61 -74q-7 -10 -22 -10h-82q-11 0 -13 4t-2 7q0 5 5 11z" />
    <glyph glyph-name="caron" unicode="&#x2c7;" 
d="M120 698q3 6 14 6h82q15 0 22 -10l61 -75h2l61 75q9 10 22 10h82q11 0 13 -4t2 -7q0 -5 -5 -11l-107 -127q-9 -10 -22 -10h-94q-13 0 -22 10l-107 127q-5 6 -5 12q0 2 1 4z" />
    <glyph glyph-name="breve" unicode="&#x2d8;" 
d="M152 697h66q16 0 19 -17q7 -55 63 -55t63 55q3 17 19 17h66q18 0 18 -18q0 -60 -44.5 -98.5t-121.5 -38.5q-76 0 -121 38.5t-45 98.5q0 18 18 18z" />
    <glyph glyph-name="dotaccent" unicode="&#x2d9;" 
d="M219 630q0 34 23 57t58 23t58 -23t23 -57t-23 -57t-58 -23t-58 23t-23 57z" />
    <glyph glyph-name="ring" unicode="&#x2da;" 
d="M168 661q0 51 38 87t94 36t94 -36t38 -87q0 -52 -38 -88t-94 -36t-94 36t-38 88zM248 661q0 -24 14 -38q14 -15 38 -15t38 14.5t14 38.5q0 23 -14 37.5t-38 14.5t-38 -14.5t-14 -37.5z" />
    <glyph glyph-name="ogonek" unicode="&#x2db;" 
d="M318 -219q-60 0 -95.5 28t-35.5 73q0 47 37.5 84.5t110.5 56.5l45 6v-15q0 -15 -13 -22q-81 -48 -81 -84q0 -34 51 -34q15 0 24 2q19 3 19 -16v-55q0 -16 -17 -19q-20 -5 -45 -5z" />
    <glyph glyph-name="tilde" unicode="&#x2dc;" 
d="M122 567q6 132 101 132q36 0 88 -36q31 -22 48 -22q25 0 29 38q2 18 18 18h55q16 0 16 -20v-7q-9 -123 -100 -123q-38 0 -88 35q-31 22 -48 22q-25 0 -29 -38q-2 -18 -18 -18h-55q-17 0 -17 19z" />
    <glyph glyph-name="hungarumlaut" unicode="&#x2dd;" 
d="M352 567l82 126q7 11 21 11h81q11 0 13.5 -4t2.5 -6q0 -5 -5 -11l-94 -126q-8 -11 -22 -11h-68q-11 0 -13 3.5t-2 6.5q0 4 4 11zM160 567l83 126q7 11 21 11h80q11 0 13.5 -4t2.5 -6q0 -5 -5 -11l-94 -126q-8 -11 -21 -11h-68q-11 0 -13.5 4t-2.5 6q0 5 4 11z" />
    <glyph glyph-name="gravecomb" unicode="&#x300;" horiz-adv-x="0" 
d="M-480 698q3 6 14 6h106q14 0 21 -12l82 -125q3 -5 3 -10q0 -3 -2.5 -7t-12.5 -4h-86q-12 0 -21 10l-100 127q-5 6 -5 11q0 2 1 4z" />
    <glyph glyph-name="acutecomb" unicode="&#x301;" horiz-adv-x="0" 
d="M-357 567l81 125q8 12 21 12h106q11 0 13 -4t2 -7q0 -4 -5 -10l-100 -127q-7 -10 -21 -10h-86q-11 0 -13 4t-2 6q0 5 4 11z" />
    <glyph glyph-name="uni0302" unicode="&#x302;" horiz-adv-x="0" 
d="M-476 567l107 127q9 10 22 10h94q13 0 22 -10l107 -127q5 -6 5 -11q0 -3 -2 -7t-13 -4h-82q-13 0 -22 10l-61 74h-2l-61 -74q-7 -10 -22 -10h-82q-11 0 -13 4t-2 7q0 5 5 11z" />
    <glyph glyph-name="tildecomb" unicode="&#x303;" horiz-adv-x="0" 
d="M-478 567q6 132 101 132q36 0 88 -36q31 -22 48 -22q25 0 29 38q2 18 18 18h55q16 0 16 -20v-7q-9 -123 -100 -123q-38 0 -88 35q-31 22 -48 22q-25 0 -29 -38q-2 -18 -18 -18h-55q-17 0 -17 19z" />
    <glyph glyph-name="uni0304" unicode="&#x304;" horiz-adv-x="0" 
d="M-437 661h274q17 0 17 -18v-62q0 -17 -17 -17h-274q-17 0 -17 17v62q0 18 17 18z" />
    <glyph glyph-name="uni0306" unicode="&#x306;" horiz-adv-x="0" 
d="M-448 697h66q16 0 19 -17q7 -55 63 -55t63 55q3 17 19 17h66q18 0 18 -18q0 -60 -44.5 -98.5t-121.5 -38.5q-76 0 -121 38.5t-45 98.5q0 18 18 18z" />
    <glyph glyph-name="uni0307" unicode="&#x307;" horiz-adv-x="0" 
d="M-381 630q0 34 23 57t58 23t58 -23t23 -57t-23 -57t-58 -23t-58 23t-23 57z" />
    <glyph glyph-name="uni0308" unicode="&#x308;" horiz-adv-x="0" 
d="M-464 680q21 22 53 22q33 0 54 -21.5t21 -54.5t-21 -55t-54 -22q-32 0 -53 22t-21 55q0 32 21 54zM-243 681q21 21 54 21q32 0 53 -22t21 -54q0 -33 -21 -55t-53 -22q-33 0 -54 22t-21 55t21 55z" />
    <glyph glyph-name="uni030A" unicode="&#x30a;" horiz-adv-x="0" 
d="M-432 661q0 51 38 87t94 36t94 -36t38 -87q0 -52 -38 -88t-94 -36t-94 36t-38 88zM-352 661q0 -24 14 -38q14 -15 38 -15t38 14.5t14 38.5q0 23 -14 37.5t-38 14.5t-38 -14.5t-14 -37.5z" />
    <glyph glyph-name="uni030B" unicode="&#x30b;" horiz-adv-x="0" 
d="M-248 567l82 126q7 11 21 11h81q11 0 13.5 -4t2.5 -6q0 -5 -5 -11l-94 -126q-8 -11 -22 -11h-68q-11 0 -13 3.5t-2 6.5q0 4 4 11zM-440 567l83 126q7 11 21 11h80q11 0 13.5 -4t2.5 -6q0 -5 -5 -11l-94 -126q-8 -11 -21 -11h-68q-11 0 -13.5 4t-2.5 6q0 5 4 11z" />
    <glyph glyph-name="uni030C" unicode="&#x30c;" horiz-adv-x="0" 
d="M-480 698q3 6 14 6h82q15 0 22 -10l61 -75h2l61 75q9 10 22 10h82q11 0 13 -4t2 -7q0 -5 -5 -11l-107 -127q-9 -10 -22 -10h-94q-13 0 -22 10l-107 127q-5 6 -5 12q0 2 1 4z" />
    <glyph glyph-name="uni0312" unicode="&#x312;" horiz-adv-x="0" 
d="M-359 586l39 145q4 15 20 15h64q16 0 16 -13v-5l-16 -145q-1 -16 -18 -16h-90q-16 0 -16 12q0 3 1 7z" />
    <glyph glyph-name="uni0326" unicode="&#x326;" horiz-adv-x="0" 
d="M-380 -241l16 145q2 17 18 17h90q16 0 16 -13q0 -3 -1 -7l-39 -145q-4 -15 -20 -15h-64q-16 0 -16 13v5z" />
    <glyph glyph-name="uni0327" unicode="&#x327;" horiz-adv-x="0" 
d="M-401 -164l63 175q6 14 21 14h72q16 0 16 -12q0 -4 -1 -8l-51 -174q-3 -15 -19 -15h-87q-16 0 -16 11q0 4 2 9z" />
    <glyph glyph-name="uni0328" unicode="&#x328;" horiz-adv-x="0" 
d="M-376 -34q38 38 111 57l45 6v-15q0 -15 -13 -22q-81 -48 -81 -84q0 -34 51 -34q15 0 24 2h5q14 0 14 -16v-55q0 -16 -17 -19q-20 -5 -45 -5q-60 0 -95.5 28t-35.5 73q0 47 37 84z" />
    <glyph glyph-name="uni03BC" unicode="&#x3bc;" horiz-adv-x="629" 
d="M531 476q18 0 18 -18v-440q0 -18 -18 -18h-79q-17 0 -17 18v67q-17 -45 -54 -71t-84 -26q-56 0 -91 39v-225q0 -18 -17 -18h-91q-18 0 -18 18v656q0 18 18 18h91q17 0 17 -18v-244q0 -111 96 -111q56 0 88.5 34.5t32.5 103.5v217q0 18 17 18h91z" />
    <glyph glyph-name="pi" unicode="&#x3c0;" horiz-adv-x="610" 
d="M563 115q17 0 17 -18v-79q0 -18 -17 -18h-41q-74 0 -108.5 35.5t-34.5 111.5v215h-173v-344q0 -18 -17 -18h-91q-18 0 -18 18v440q0 18 18 18h390q17 0 17 -18v-289q0 -28 12.5 -41t40.5 -13h5z" />
    <glyph glyph-name="uni1E20" unicode="&#x1e20;" horiz-adv-x="810" 
d="M153 608q103 104 261 104q120 0 209.5 -61.5t117.5 -162.5q1 -4 1 -7q0 -4 -3.5 -8.5t-12.5 -4.5h-108q-15 0 -21 15q-18 47 -67.5 75t-115.5 28q-103 0 -164.5 -65t-61.5 -171q0 -108 63 -172.5t167 -64.5q87 0 143.5 46t66.5 127h-189q-18 0 -18 18v71q0 18 18 18h304
q17 0 17 -18v-41q0 -155 -96.5 -250.5t-248.5 -95.5q-159 0 -262 103.5t-103 258.5q0 154 103 258zM277 885h274q17 0 17 -18v-62q0 -17 -17 -17h-274q-17 0 -17 17v62q0 18 17 18z" />
    <glyph glyph-name="uni1E21" unicode="&#x1e21;" horiz-adv-x="613" 
d="M106 417q66 71 164 71q50 0 90.5 -20t60.5 -57h4v47q0 18 18 18h87q18 0 18 -18v-447q0 -112 -68.5 -175.5t-188.5 -63.5q-101 0 -164.5 44.5t-75.5 121.5v4q0 14 17 14h89q15 0 19 -15q20 -64 116 -64q66 0 100 34.5t34 99.5v65h-4q-20 -37 -60.5 -56.5t-91.5 -19.5
q-98 0 -164 68.5t-66 172.5q0 105 66 176zM169 241q0 -58 35.5 -95.5t93.5 -37.5t93 37.5t35 95.5t-35 95.5t-93 37.5t-93 -37q-36 -38 -36 -96zM151 643q0 18 17 18h274q17 0 17 -18v-62q0 -17 -17 -17h-274q-17 0 -17 17v62z" />
    <glyph glyph-name="uni1E30" unicode="&#x1e30;" horiz-adv-x="697" 
d="M80 682q0 18 18 18h98q18 0 18 -18v-316h78l199 322q8 12 22 12h118q11 0 13.5 -4t2.5 -7q0 -4 -4 -10l-211 -340q187 -72 224 -320v-3q0 -16 -17 -16h-111q-15 0 -18 16q-20 121 -80 171.5t-169 50.5h-47v-220q0 -18 -18 -18h-98q-18 0 -18 18v664zM287 791l81 125
q8 12 21 12h106q11 0 13 -4t2 -7q0 -4 -5 -10l-100 -127q-7 -10 -21 -10h-86q-11 0 -13 4t-2 6q0 5 4 11z" />
    <glyph glyph-name="uni1E31" unicode="&#x1e31;" horiz-adv-x="567" 
d="M66 682q0 18 17 18h91q18 0 18 -18v-390h48q14 0 21 -1l121 174q8 11 22 11h109q11 0 13 -4.5t2 -6.5q0 -5 -4 -10l-138 -195q125 -64 152 -241v-5q0 -14 -17 -14h-97q-16 0 -18 17q-16 87 -59 124t-124 37h-31v-160q0 -18 -18 -18h-91q-17 0 -17 18v664zM48 791l81 125
q7 12 21 12h106q11 0 13 -4t2 -7q0 -4 -5 -10l-100 -127q-7 -10 -21 -10h-86q-11 0 -13 4t-2 6q0 5 4 11z" />
    <glyph glyph-name="uni1E3E" unicode="&#x1e3e;" horiz-adv-x="914" 
d="M80 18v664q0 18 18 18h113q14 0 21 -12l224 -380h2l224 380q7 12 21 12h113q18 0 18 -18v-664q0 -18 -18 -18h-97q-18 0 -18 18v459h-2l-184 -306q-7 -12 -21 -12h-73q-15 0 -22 12l-184 306h-1v-459q0 -18 -18 -18h-98q-18 0 -18 18zM376 791l81 125q7 12 21 12h106
q11 0 13 -4t2 -7q0 -4 -5 -10l-100 -127q-7 -10 -21 -10h-86q-11 0 -13 4t-2 6q0 5 4 11z" />
    <glyph glyph-name="uni1E3F" unicode="&#x1e3f;" horiz-adv-x="880" 
d="M66 458q0 18 17 18h87q18 0 18 -18v-52h4q18 39 55.5 60.5t86.5 21.5q104 0 147 -90h3q22 43 64.5 66.5t97.5 23.5q81 0 127.5 -52.5t46.5 -145.5v-272q0 -18 -17 -18h-91q-18 0 -18 18v240q0 114 -88 114q-45 0 -72.5 -30.5t-27.5 -85.5v-238q0 -18 -18 -18h-90
q-18 0 -18 18v240q0 114 -88 114q-45 0 -72.5 -30.5t-27.5 -85.5v-238q0 -18 -18 -18h-91q-17 0 -17 18v440zM373 567l81 125q8 12 21 12h106q11 0 13 -4t2 -7q0 -4 -5 -10l-100 -127q-7 -10 -21 -10h-86q-11 0 -13 4t-2 6q0 5 4 11z" />
    <glyph glyph-name="uni1E40" unicode="&#x1e40;" horiz-adv-x="914" 
d="M98 700h113q14 0 21 -12l224 -380h2l224 380q7 12 21 12h113q18 0 18 -18v-664q0 -18 -18 -18h-97q-18 0 -18 18v459h-2l-184 -306q-7 -12 -21 -12h-73q-15 0 -22 12l-184 306h-1v-459q0 -18 -18 -18h-98q-18 0 -18 18v664q0 18 18 18zM376 854q0 34 23 57t58 23t58 -23
t23 -57t-23 -57t-58 -23t-58 23t-23 57z" />
    <glyph glyph-name="uni1E41" unicode="&#x1e41;" horiz-adv-x="880" 
d="M66 458q0 18 17 18h87q18 0 18 -18v-52h4q18 39 55.5 60.5t86.5 21.5q104 0 147 -90h3q22 43 64.5 66.5t97.5 23.5q81 0 127.5 -52.5t46.5 -145.5v-272q0 -18 -17 -18h-91q-18 0 -18 18v240q0 114 -88 114q-45 0 -72.5 -30.5t-27.5 -85.5v-238q0 -18 -18 -18h-90
q-18 0 -18 18v240q0 114 -88 114q-45 0 -72.5 -30.5t-27.5 -85.5v-238q0 -18 -18 -18h-91q-17 0 -17 18v440zM396 687q23 23 58 23t58 -23t23 -57t-23 -57t-58 -23t-58 23t-23 57t23 57z" />
    <glyph glyph-name="uni1E44" unicode="&#x1e44;" horiz-adv-x="769" 
d="M80 18v664q0 18 18 18h96q15 0 22 -11l337 -466h2v459q0 18 18 18h98q18 0 18 -18v-664q0 -18 -18 -18h-97q-14 0 -21 11l-338 466h-1v-459q0 -18 -18 -18h-98q-18 0 -18 18zM304 854q0 34 23 57t58 23t58 -23t23 -57t-23 -57t-58 -23t-58 23t-23 57z" />
    <glyph glyph-name="uni1E45" unicode="&#x1e45;" horiz-adv-x="590" 
d="M66 458q0 18 17 18h89q17 0 17 -18v-50h3q42 80 154 80q86 0 135 -53t49 -146v-271q0 -18 -18 -18h-90q-18 0 -18 18v239q0 115 -100 115q-52 0 -82 -31t-30 -86v-237q0 -18 -18 -18h-91q-17 0 -17 18v440zM216 630q0 34 23 57t58 23t58 -23t23 -57t-23 -57t-58 -23
t-58 23t-23 57z" />
    <glyph glyph-name="Wgrave" unicode="&#x1e80;" horiz-adv-x="1054" 
d="M25 695q4 5 13 5h105q15 0 20 -15l147 -481h3l149 481q3 15 19 15h92q16 0 19 -15l150 -481h2l148 481q3 15 20 15h104q9 0 12 -4.5t3 -8.5q0 -3 -1 -7l-211 -665q-5 -15 -20 -15h-100q-16 0 -20 15l-150 473h-3l-150 -473q-4 -15 -20 -15h-101q-15 0 -19 15l-212 665
q-1 4 -1 7q0 5 2 8zM378 922q3 6 14 6h106q14 0 21 -12l82 -125q3 -5 3 -10q0 -3 -2.5 -7t-12.5 -4h-86q-12 0 -21 10l-100 127q-5 6 -5 11q0 2 1 4z" />
    <glyph glyph-name="wgrave" unicode="&#x1e81;" horiz-adv-x="850" 
d="M26 471q4 5 13 5h96q16 0 20 -15l100 -309h3l105 309q5 15 20 15h84q15 0 20 -15l105 -309h3l100 309q5 15 20 15h96q9 0 12 -4.5t3 -8.5q0 -3 -1 -7l-157 -442q-6 -14 -20 -14h-99q-14 0 -20 14l-103 295h-2l-103 -295q-5 -14 -20 -14h-99q-15 0 -20 14l-157 442
q-1 4 -1 7q0 5 2 8zM276 698q3 6 14 6h106q14 0 21 -12l82 -125q3 -5 3 -10q0 -3 -2.5 -7t-12.5 -4h-86q-12 0 -21 10l-100 127q-5 6 -5 11q0 2 1 4z" />
    <glyph glyph-name="Wacute" unicode="&#x1e82;" horiz-adv-x="1054" 
d="M25 695q4 5 13 5h105q15 0 20 -15l147 -481h3l149 481q3 15 19 15h92q16 0 19 -15l150 -481h2l148 481q3 15 20 15h104q9 0 12 -4.5t3 -8.5q0 -3 -1 -7l-211 -665q-5 -15 -20 -15h-100q-16 0 -20 15l-150 473h-3l-150 -473q-4 -15 -20 -15h-101q-15 0 -19 15l-212 665
q-1 4 -1 7q0 5 2 8zM447 791l81 125q8 12 21 12h106q11 0 13 -4t2 -7q0 -4 -5 -10l-100 -127q-7 -10 -21 -10h-86q-11 0 -13 4t-2 6q0 5 4 11z" />
    <glyph glyph-name="wacute" unicode="&#x1e83;" horiz-adv-x="850" 
d="M26 471q4 5 13 5h96q16 0 20 -15l100 -309h3l105 309q5 15 20 15h84q15 0 20 -15l105 -309h3l100 309q5 15 20 15h96q9 0 12 -4.5t3 -8.5q0 -3 -1 -7l-157 -442q-6 -14 -20 -14h-99q-14 0 -20 14l-103 295h-2l-103 -295q-5 -14 -20 -14h-99q-15 0 -20 14l-157 442
q-1 4 -1 7q0 5 2 8zM345 567l81 125q8 12 21 12h106q11 0 13 -4t2 -7q0 -4 -5 -10l-100 -127q-7 -10 -21 -10h-86q-11 0 -13 4t-2 6q0 5 4 11z" />
    <glyph glyph-name="Wdieresis" unicode="&#x1e84;" horiz-adv-x="1054" 
d="M25 695q4 5 13 5h105q15 0 20 -15l147 -481h3l149 481q3 15 19 15h92q16 0 19 -15l150 -481h2l148 481q3 15 20 15h104q9 0 12 -4.5t3 -8.5q0 -3 -1 -7l-211 -665q-5 -15 -20 -15h-100q-16 0 -20 15l-150 473h-3l-150 -473q-4 -15 -20 -15h-101q-15 0 -19 15l-212 665
q-1 4 -1 7q0 5 2 8zM563 850q0 33 21 54.5t54 21.5q32 0 53 -22t21 -54q0 -33 -21 -55t-53 -22q-33 0 -54 22t-21 55zM342 850q0 32 21 54t53 22q33 0 54 -21.5t21 -54.5t-21 -55t-54 -22q-32 0 -53 22t-21 55z" />
    <glyph glyph-name="wdieresis" unicode="&#x1e85;" horiz-adv-x="850" 
d="M26 471q4 5 13 5h96q16 0 20 -15l100 -309h3l105 309q5 15 20 15h84q15 0 20 -15l105 -309h3l100 309q5 15 20 15h96q9 0 12 -4.5t3 -8.5q0 -3 -1 -7l-157 -442q-6 -14 -20 -14h-99q-14 0 -20 14l-103 295h-2l-103 -295q-5 -14 -20 -14h-99q-15 0 -20 14l-157 442
q-1 4 -1 7q0 5 2 8zM461 626q0 33 21 54.5t54 21.5q32 0 53 -22t21 -54q0 -33 -21 -55t-53 -22q-33 0 -54 22t-21 55zM240 626q0 32 21 54t53 22q33 0 54 -21.5t21 -54.5t-21 -55t-54 -22q-32 0 -53 22t-21 55z" />
    <glyph glyph-name="uni1E90" unicode="&#x1e90;" horiz-adv-x="621" 
d="M53 109l343 468h-327q-17 0 -17 18v87q0 18 17 18h483q18 0 18 -18v-69q0 -11 -7 -22l-343 -468h337q17 0 17 -18v-87q0 -18 -17 -18h-493q-18 0 -18 18v69q0 12 7 22zM132 791l107 127q9 10 22 10h94q13 0 22 -10l107 -127q5 -6 5 -11q0 -3 -2 -7t-13 -4h-82
q-13 0 -22 10l-61 74h-2l-61 -74q-7 -10 -22 -10h-82q-11 0 -13 4t-2 7q0 5 5 11z" />
    <glyph glyph-name="uni1E91" unicode="&#x1e91;" horiz-adv-x="492" 
d="M47 96l238 271h-222q-17 0 -17 18v73q0 18 17 18h371q17 0 17 -18v-56q0 -14 -8 -22l-237 -271h230q17 0 17 -18v-73q0 -18 -17 -18h-380q-18 0 -18 18v56q0 12 9 22zM70 567l107 127q9 10 22 10h94q13 0 22 -10l107 -127q5 -6 5 -11q0 -3 -2 -7t-13 -4h-82q-13 0 -22 10
l-61 74h-2l-61 -74q-7 -10 -22 -10h-82q-11 0 -13 4t-2 7q0 5 5 11z" />
    <glyph glyph-name="Germandbls" unicode="&#x1e9e;" horiz-adv-x="739" 
d="M507 381q195 -23 195 -189q0 -96 -65 -148.5t-188 -52.5q-51 0 -96 8q-16 3 -16 19v82q0 19 20 16q46 -8 82 -8q127 0 127 89q0 44 -36 65t-124 21h-27q-18 0 -18 18v72q0 11 8 22l134 167q-47 30 -123 30q-87 0 -129 -38.5t-42 -119.5v-416q0 -18 -18 -18h-98
q-18 0 -18 18v423q0 133 75 202t222 69q198 0 287 -116q10 -12 0 -25z" />
    <glyph glyph-name="Ygrave" unicode="&#x1ef2;" horiz-adv-x="672" 
d="M18 694q3 6 13 6h112q13 0 21 -12l171 -287h2l171 287q8 12 21 12h112q11 0 13.5 -4t2.5 -7q0 -4 -4 -10l-249 -405v-256q0 -18 -18 -18h-100q-18 0 -18 18v256l-249 405q-3 5 -3 9q0 3 2 6zM188 922q3 6 14 6h106q14 0 21 -12l82 -125q3 -5 3 -10q0 -3 -2.5 -7t-12.5 -4
h-86q-12 0 -21 10l-100 127q-5 6 -5 11q0 2 1 4z" />
    <glyph glyph-name="ygrave" unicode="&#x1ef3;" horiz-adv-x="591" 
d="M76 -52h87q14 0 19 -16q20 -55 104 -55q118 0 118 122v82h-4q-19 -36 -59.5 -57t-94.5 -21q-86 0 -134.5 52t-48.5 145v258q0 18 18 18h91q17 0 17 -18v-227q0 -115 98 -115q52 0 82 31t30 86v225q0 18 18 18h90q18 0 18 -18v-459q0 -107 -63.5 -167t-175.5 -60
q-97 0 -156.5 42.5t-70.5 115.5v4q0 14 17 14zM143 698q3 6 14 6h106q13 0 21 -12l82 -125q3 -5 3 -10q0 -3 -2.5 -7t-12.5 -4h-86q-12 0 -21 10l-100 127q-5 6 -5 11q0 2 1 4z" />
    <glyph glyph-name="uni2000" unicode="&#x2000;" horiz-adv-x="500" 
 />
    <glyph glyph-name="uni2001" unicode="&#x2001;" horiz-adv-x="1000" 
 />
    <glyph glyph-name="uni2002" unicode="&#x2002;" horiz-adv-x="500" 
 />
    <glyph glyph-name="uni2003" unicode="&#x2003;" horiz-adv-x="1000" 
 />
    <glyph glyph-name="uni2009" unicode="&#x2009;" horiz-adv-x="220" 
 />
    <glyph glyph-name="uni200A" unicode="&#x200a;" horiz-adv-x="82" 
 />
    <glyph glyph-name="uni200B" unicode="&#x200b;" horiz-adv-x="0" 
 />
    <glyph glyph-name="endash" unicode="&#x2013;" horiz-adv-x="500" 
d="M62 216q-18 0 -18 18v78q0 17 18 17h376q18 0 18 -17v-78q0 -18 -18 -18h-376z" />
    <glyph glyph-name="emdash" unicode="&#x2014;" horiz-adv-x="1000" 
d="M62 216q-18 0 -18 18v78q0 17 18 17h876q18 0 18 -17v-78q0 -18 -18 -18h-876z" />
    <glyph glyph-name="quoteleft" unicode="&#x2018;" horiz-adv-x="250" 
d="M56 448q-22 0 -15 20l63 229q3 15 20 15h71q19 0 16 -19l-44 -229q-3 -16 -20 -16h-91z" />
    <glyph glyph-name="quoteright" unicode="&#x2019;" horiz-adv-x="250" 
d="M195 712q9 0 13 -5.5t1 -14.5l-63 -229q-3 -15 -20 -15h-70q-20 0 -17 19l44 229q3 16 20 16h92z" />
    <glyph glyph-name="quotesinglbase" unicode="&#x201a;" horiz-adv-x="261" 
d="M54 -141q-21 0 -16 19l43 229q3 16 20 16h91q21 0 16 -19l-64 -230q-3 -15 -20 -15h-70z" />
    <glyph glyph-name="quotedblleft" unicode="&#x201c;" horiz-adv-x="452" 
d="M56 448q-22 0 -15 20l63 229q3 15 20 15h71q19 0 16 -19l-44 -229q-3 -16 -20 -16h-91zM257 448q-9 0 -13 5.5t-1 14.5l63 229q3 15 20 15h70q20 0 17 -19l-44 -229q-3 -16 -20 -16h-92z" />
    <glyph glyph-name="quotedblright" unicode="&#x201d;" horiz-adv-x="452" 
d="M195 712q9 0 13 -5.5t1 -14.5l-63 -229q-3 -15 -20 -15h-70q-20 0 -17 19l44 229q3 16 20 16h92zM396 712q22 0 15 -20l-63 -229q-3 -15 -20 -15h-71q-19 0 -16 19l44 229q3 16 20 16h91z" />
    <glyph glyph-name="quotedblbase" unicode="&#x201e;" horiz-adv-x="458" 
d="M54 -141q-21 0 -16 19l43 229q3 16 20 16h91q21 0 16 -19l-64 -230q-3 -15 -20 -15h-70zM252 -141q-21 0 -16 19l44 229q3 16 19 16h92q20 0 14 -19l-63 -230q-3 -15 -20 -15h-70z" />
    <glyph glyph-name="dagger" unicode="&#x2020;" horiz-adv-x="517" 
d="M464 497q18 0 18 -18v-78q0 -17 -18 -17h-142v-496q0 -18 -17 -18h-93q-18 0 -18 18v496h-142q-18 0 -18 17v78q0 18 18 18h142v219q0 18 18 18h93q17 0 17 -18v-219h142z" />
    <glyph glyph-name="daggerdbl" unicode="&#x2021;" horiz-adv-x="557" 
d="M484 384h-142v-176h142q18 0 18 -17v-78q0 -18 -18 -18h-142v-207q0 -18 -17 -18h-93q-18 0 -18 18v207h-142q-18 0 -18 18v78q0 17 18 17h142v176h-142q-18 0 -18 17v78q0 18 18 18h142v219q0 18 18 18h93q17 0 17 -18v-219h142q18 0 18 -18v-78q0 -17 -18 -17z" />
    <glyph glyph-name="bullet" unicode="&#x2022;" horiz-adv-x="529" 
d="M264 197q-69 0 -115 46.5t-46 114.5q0 69 46 115.5t115 46.5t115.5 -47t46.5 -115t-46.5 -114.5t-115.5 -46.5z" />
    <glyph glyph-name="ellipsis" unicode="&#x2026;" horiz-adv-x="798" 
d="M132 -9q-37 0 -60 22.5t-23 59.5t23 59.5t60 22.5t60 -22.5t23 -59.5t-23 -59.5t-60 -22.5zM399 -9q-37 0 -59.5 22.5t-22.5 59.5t22.5 59.5t59.5 22.5t60 -22.5t23 -59.5t-23 -59.5t-60 -22.5zM667 -9q-37 0 -60 22.5t-23 59.5t23 59.5t60 22.5t60 -22.5t23 -59.5
t-23 -59.5t-60 -22.5z" />
    <glyph glyph-name="perthousand" unicode="&#x2030;" horiz-adv-x="1300" 
d="M220 345q-80 0 -133 52.5t-53 131.5t53 131t133 52q79 0 132 -52t53 -131t-53 -131.5t-132 -52.5zM187 0q-10 0 -13.5 6t1.5 15l427 667q8 12 21 12h75q11 0 14.5 -6t-2.5 -15l-426 -667q-9 -12 -22 -12h-75zM220 442q37 0 59.5 23.5t22.5 63.5t-22.5 63.5t-59.5 23.5
q-38 0 -60.5 -23.5t-22.5 -63.5t22.5 -63.5t60.5 -23.5zM666 -12q-79 0 -132 52t-53 131t53 131.5t132 52.5t132 -52.5t53 -131.5t-52.5 -131t-132.5 -52zM1080 -12q-79 0 -131.5 52t-52.5 131t52.5 131.5t131.5 52.5q80 0 133 -52.5t53 -131.5t-53 -131t-133 -52zM666 84
q37 0 60 24t23 63t-23 63t-60 24t-60 -24t-23 -63t23 -63t60 -24zM1080 84q38 0 60.5 23.5t22.5 63.5t-22.5 63.5t-60.5 23.5q-37 0 -59.5 -23.5t-22.5 -63.5t22.5 -63.5t59.5 -23.5z" />
    <glyph glyph-name="guilsinglleft" unicode="&#x2039;" horiz-adv-x="338" 
d="M175 237l106 -163q5 -9 1.5 -15t-13.5 -6h-98q-14 0 -21 11l-104 160q-7 13 0 25l104 160q8 12 21 12h98q10 0 13.5 -6.5t-1.5 -15.5z" />
    <glyph glyph-name="guilsinglright" unicode="&#x203a;" horiz-adv-x="338" 
d="M292 249q7 -12 0 -25l-104 -160q-7 -11 -21 -11h-98q-10 0 -13.5 6t1.5 15l106 163l-106 162q-5 9 -1.5 15.5t13.5 6.5h98q13 0 21 -12z" />
    <glyph glyph-name="fraction" unicode="&#x2044;" horiz-adv-x="541" 
d="M25 0q-10 0 -13.5 6t1.5 15l409 667q8 12 22 12h71q11 0 14.5 -6t-2.5 -15l-409 -667q-7 -12 -21 -12h-72z" />
    <glyph glyph-name="uni2070" unicode="&#x2070;" horiz-adv-x="376" 
d="M188 324q-74 0 -116.5 51.5t-42.5 143.5q0 91 42.5 142t116.5 51q73 0 116 -51t43 -142q0 -92 -43 -143.5t-116 -51.5zM188 408q66 0 66 111q0 109 -66 109t-66 -109q0 -111 66 -111z" />
    <glyph glyph-name="uni2074" unicode="&#x2074;" horiz-adv-x="346" 
d="M308 478q18 0 18 -18v-42q0 -18 -18 -18h-21v-50q0 -18 -18 -18h-49q-18 0 -18 18v50h-164q-17 0 -17 18v43q0 12 7 22l153 211q7 10 21 10h67q18 0 18 -17v-209h21zM114 478h88v121z" />
    <glyph glyph-name="uni2075" unicode="&#x2075;" horiz-adv-x="331" 
d="M179 580q57 0 94 -34.5t37 -90.5q0 -58 -40 -94.5t-104 -36.5q-55 0 -96 31q-35 30 -42 71q-2 8 2.5 13t13.5 5h55q12 0 20 -14q13 -24 47 -24q25 0 39.5 14t14.5 37t-14 36.5t-38 13.5q-26 0 -42 -15q-12 -10 -21 -10h-58q-19 0 -16 19l23 187q3 16 19 16h197
q18 0 18 -17v-44q0 -18 -18 -18h-144l-7 -58q26 13 60 13z" />
    <glyph glyph-name="uni2076" unicode="&#x2076;" horiz-adv-x="346" 
d="M195 577q56 0 92.5 -34.5t36.5 -89.5q0 -57 -39.5 -93t-103.5 -36q-61 0 -103 37q-49 46 -49 151q0 98 40.5 149t116.5 51q106 0 129 -92q5 -20 -16 -20h-54q-11 0 -20 14q-12 21 -41 21q-56 0 -64 -81q32 23 75 23zM180 400q24 0 39 14.5t15 38.5q0 23 -15 37.5
t-39 14.5t-39 -14.5t-15 -37.5t15 -38t39 -15z" />
    <glyph glyph-name="uni2077" unicode="&#x2077;" horiz-adv-x="292" 
d="M256 704q17 0 17 -17v-44q0 -13 -4 -22l-125 -276q-6 -13 -21 -13h-58q-22 0 -14 21l123 268h-138q-17 0 -17 18v48q0 17 17 17h220z" />
    <glyph glyph-name="uni2078" unicode="&#x2078;" horiz-adv-x="345" 
d="M172 324q-68 0 -107 30.5t-39 80.5q0 65 62 92q-52 26 -52 82q0 45 36 74t100 29q65 0 101 -29t36 -74q0 -55 -52 -82q62 -27 62 -92q0 -50 -39 -80.5t-108 -30.5zM172 559q48 0 48 38q0 39 -48 39q-47 0 -47 -39q0 -17 12.5 -27.5t34.5 -10.5zM172 401q55 0 55 42
q0 41 -55 41q-54 0 -54 -41q0 -42 54 -42z" />
    <glyph glyph-name="uni2079" unicode="&#x2079;" horiz-adv-x="348" 
d="M270 675q49 -46 49 -149q0 -99 -40 -150.5t-116 -51.5q-51 0 -87 25q-34 26 -44 67q-5 20 17 20h55q11 0 19 -14q13 -20 41 -20q56 0 64 80q-30 -23 -75 -23q-56 0 -92 35t-36 90q0 56 39 92t103 36t103 -37zM169 531q24 0 39 14.5t15 37.5t-14.5 38t-39.5 15
q-24 0 -39 -14.5t-15 -37.5q0 -24 14.5 -38.5t39.5 -14.5z" />
    <glyph glyph-name="Euro" unicode="&#x20ac;" horiz-adv-x="650" 
d="M593 200q19 0 16 -22q-19 -91 -80.5 -140.5t-148.5 -49.5q-103 0 -172 67.5t-92 186.5h-60q-18 0 -18 18v39q0 18 18 18h52q-1 11 -1 33t1 33h-52q-18 0 -18 18v39q0 18 18 18h60q23 119 92 186.5t172 67.5q88 0 149.5 -50t79.5 -143q3 -19 -16 -19h-91q-16 0 -19 16
q-10 38 -37.5 59.5t-65.5 21.5q-48 0 -83 -35t-50 -104h181q17 0 17 -18v-39q0 -18 -17 -18h-190q-1 -11 -1 -33t1 -33h190q17 0 17 -18v-39q0 -18 -17 -18h-181q15 -69 50 -104t83 -35q38 0 65.5 21.5t37.5 59.5q3 16 19 16h91z" />
    <glyph glyph-name="uni2116" unicode="&#x2116;" horiz-adv-x="1224" 
d="M80 18v664q0 18 18 18h96q15 0 22 -11l337 -466h2v459q0 18 18 18h98q18 0 18 -18v-664q0 -18 -18 -18h-97q-14 0 -21 11l-338 466h-1v-459q0 -18 -18 -18h-98q-18 0 -18 18zM845 659q53 53 133 53t133.5 -53t53.5 -132t-53 -131q-54 -53 -134 -53t-133 52.5t-53 131.5
t53 132zM809 174v78q0 17 18 17h305q17 0 17 -17v-78q0 -17 -17 -17h-305q-18 0 -18 17zM918 463q23 -24 60 -24q38 0 61 24t23 64t-23 64.5t-61 24.5q-37 0 -60 -24.5t-23 -64.5t23 -64z" />
    <glyph glyph-name="trademark" unicode="&#x2122;" horiz-adv-x="802" 
d="M287 700q18 0 18 -18v-51q0 -18 -18 -18h-67v-213q0 -18 -17 -18h-56q-17 0 -17 18v213h-68q-18 0 -18 18v51q0 18 18 18h225zM723 700q18 0 18 -18v-282q0 -18 -18 -18h-52q-18 0 -18 18v170h-3l-64 -102q-8 -11 -20 -11h-33q-12 0 -21 11l-63 102h-3v-170
q0 -18 -18 -18h-52q-18 0 -18 18v282q0 18 18 18h70q14 0 22 -12l80 -128h3l81 128q8 12 21 12h70z" />
    <glyph glyph-name="uni2126" unicode="&#x2126;" horiz-adv-x="825" 
d="M92 0q-18 0 -18 18v80q0 18 18 18h118v2q-65 36 -100.5 106t-35.5 153q0 145 98 240t241 95t240.5 -95t97.5 -240q0 -83 -35.5 -153t-99.5 -106v-2h117q18 0 18 -18v-80q0 -18 -18 -18h-255q-18 0 -18 18v92q0 15 13 21q148 78 148 236q0 98 -58.5 161t-149.5 63
q-92 0 -150.5 -63t-58.5 -161q0 -158 149 -236q12 -6 12 -21v-92q0 -18 -17 -18h-256z" />
    <glyph glyph-name="estimated" unicode="&#x212e;" horiz-adv-x="794" 
d="M397 0q-146 0 -246 97q-101 98 -101 253q0 76 27 142.5t74 112.5q101 95 246 95t245 -95q48 -46 75 -112.5t27 -142.5v-12h-584v-151q0 -66 45 -99q83 -62 192 -62q84 0 154 36.5t113 102.5l21 -16q-47 -71 -123 -110t-165 -39zM160 362h479v146q0 67 -43 101
q-86 65 -199 65q-109 0 -192 -62q-45 -33 -45 -100v-150z" />
    <glyph glyph-name="arrowleft" unicode="&#x2190;" horiz-adv-x="700" 
d="M643 413q17 0 17 -18v-90q0 -18 -17 -18h-416l117 -117q12 -12 0 -25l-52 -52q-13 -13 -24 0l-235 244q-13 13 0 26l235 244q11 13 24 0l52 -52q12 -13 0 -25l-117 -117h416z" />
    <glyph glyph-name="arrowup" unicode="&#x2191;" horiz-adv-x="700" 
d="M607 429q13 -13 0 -25l-52 -51q-13 -14 -25 0l-117 117v-416q0 -18 -18 -18h-90q-18 0 -18 18v416l-117 -117q-12 -14 -25 0l-52 51q-13 12 0 25l244 234q13 13 26 0z" />
    <glyph glyph-name="arrowright" unicode="&#x2192;" horiz-adv-x="700" 
d="M667 363q13 -13 0 -26l-235 -244q-11 -13 -24 0l-52 52q-12 13 0 25l117 117h-416q-17 0 -17 18v90q0 18 17 18h416l-117 117q-12 12 0 25l52 52q13 13 24 0z" />
    <glyph glyph-name="arrowdown" unicode="&#x2193;" horiz-adv-x="700" 
d="M607 299q13 -13 0 -25l-244 -235q-13 -11 -26 0l-244 235q-13 12 0 25l52 51q13 13 25 0l117 -117v416q0 18 18 18h90q18 0 18 -18v-416l117 117q12 13 25 0z" />
    <glyph glyph-name="uni2196" unicode="&#x2196;" horiz-adv-x="700" 
d="M603 183q13 -13 0 -25l-64 -64q-12 -13 -25 0l-293 294v-165q0 -18 -18 -18l-73 -1q-18 0 -18 18l7 339q0 17 18 17l338 7q18 0 18 -18l-1 -72q0 -9 -4.5 -14t-13.5 -4h-164z" />
    <glyph glyph-name="uni2197" unicode="&#x2197;" horiz-adv-x="700" 
d="M581 561l7 -339q0 -17 -18 -17h-73q-18 0 -18 18v165l-293 -294q-13 -13 -25 0l-65 64q-11 12 0 25l294 294h-165q-8 -1 -12.5 4t-4.5 14l-1 72q0 18 18 18l338 -7q18 0 18 -17z" />
    <glyph glyph-name="uni2198" unicode="&#x2198;" horiz-adv-x="700" 
d="M570 496q18 0 18 -18l-7 -339q0 -17 -18 -17l-338 -7q-18 0 -18 18l1 72q0 9 4.5 14t13.5 4h164l-293 294q-13 13 0 25l64 64q12 13 25 0l293 -294v165q0 18 18 18z" />
    <glyph glyph-name="uni2199" unicode="&#x2199;" horiz-adv-x="700" 
d="M604 542q11 -12 0 -25l-294 -294h165q8 1 12.5 -4t4.5 -14l1 -72q0 -18 -18 -18l-338 7q-18 0 -18 17l-7 339q0 17 18 17h73q18 0 18 -18v-165l293 294q13 13 25 0z" />
    <glyph glyph-name="partialdiff" unicode="&#x2202;" horiz-adv-x="658" 
d="M293 712q150 0 227.5 -95.5t77.5 -283.5q0 -191 -87 -276q-72 -69 -189 -69q-119 0 -190.5 67t-71.5 173q0 102 67.5 168.5t172.5 66.5q108 0 163 -72h4q-8 111 -51.5 158.5t-127.5 47.5q-52 0 -115 -20q-21 -6 -21 15v77q0 15 14 21q60 22 127 22zM323 102q59 0 95 34
t36 92q0 57 -36 91.5t-95 34.5t-95 -34.5t-36 -91.5q0 -58 36 -92t95 -34z" />
    <glyph glyph-name="uni2206" unicode="&#x2206;" horiz-adv-x="706" 
d="M78 0q-14 0 -21 12l-25 39q-7 12 -2 24l271 612q6 13 21 13h62q15 0 21 -13l271 -612q5 -14 -2 -24l-25 -39q-7 -12 -21 -12h-550zM181 118h344l-171 391h-3z" />
    <glyph glyph-name="product" unicode="&#x220f;" horiz-adv-x="702" 
d="M584 734q18 0 18 -18v-828q0 -18 -18 -18h-96q-17 0 -17 18v728h-239v-728q0 -18 -18 -18h-96q-18 0 -18 18v828q0 18 18 18h466z" />
    <glyph glyph-name="summation" unicode="&#x2211;" horiz-adv-x="555" 
d="M520 637q0 -18 -18 -18h-294l218 -303q9 -13 0 -25l-218 -304h294q18 0 18 -17v-82q0 -18 -18 -18h-432q-18 0 -18 18v84q0 10 7 22l222 310l-222 309q-7 12 -7 21v85q0 18 18 18h432q18 0 18 -18v-82z" />
    <glyph glyph-name="minus" unicode="&#x2212;" 
d="M93 261q-18 0 -18 18v76q0 18 18 18h414q18 0 18 -18v-76q0 -18 -18 -18h-414z" />
    <glyph glyph-name="radical" unicode="&#x221a;" horiz-adv-x="654" 
d="M615 734q9 0 13.5 -5.5t1.5 -14.5l-237 -829q-5 -15 -21 -15h-105q-16 0 -20 14l-119 334h-84q-18 0 -18 18v84q0 18 18 18h159q14 0 20 -14l89 -261h3l184 656q3 15 19 15h97z" />
    <glyph glyph-name="infinity" unicode="&#x221e;" horiz-adv-x="760" 
d="M540 524q83 0 133.5 -53t50.5 -137q0 -83 -50.5 -136t-133.5 -53q-96 0 -160 89q-64 -89 -160 -89q-83 0 -133.5 53t-50.5 136q0 84 50.5 137t133.5 53q96 0 160 -89q64 89 160 89zM220 244q33 0 56 23t47 67q-24 44 -47 67t-56 23q-34 0 -55.5 -25t-21.5 -65t21.5 -65
t55.5 -25zM540 244q35 0 56 25t21 65t-21 65t-56 25q-33 0 -56 -23t-47 -67q24 -44 47 -67t56 -23z" />
    <glyph glyph-name="integral" unicode="&#x222b;" horiz-adv-x="420" 
d="M48 -130q-18 0 -18 18v78q0 18 18 18h39q57 0 57 57v549q0 78 35 111t119 33h74q18 0 18 -18v-78q0 -18 -18 -18h-39q-57 0 -57 -57v-549q0 -78 -35 -111t-118 -33h-75z" />
    <glyph glyph-name="approxequal" unicode="&#x2248;" 
d="M405 342q-37 0 -105 23t-105 23q-49 0 -98 -30q-10 -5 -16 -2t-6 14v73q0 13 12 21q50 34 110 34q35 0 104.5 -23t102.5 -23q51 0 100 28q21 13 21 -10v-73q0 -13 -12 -21q-53 -34 -108 -34zM405 132q-37 0 -105 23t-105 23q-49 0 -98 -29q-10 -6 -16 -3t-6 14v74
q0 14 12 21q50 34 110 34q35 0 104.5 -23t102.5 -23q51 0 100 28q21 13 21 -10v-73q0 -13 -12 -22q-53 -34 -108 -34z" />
    <glyph glyph-name="notequal" unicode="&#x2260;" 
d="M507 366h-139l-44 -101h183q18 0 18 -18v-72q0 -18 -18 -18h-231l-45 -102q-6 -13 -21 -13h-54q-10 0 -13.5 5.5t0.5 14.5l42 95h-92q-18 0 -18 18v72q0 18 18 18h139l45 101h-184q-18 0 -18 18v71q0 18 18 18h231l45 102q6 14 21 14h54q10 0 13.5 -5.5t-0.5 -15.5
l-42 -95h92q18 0 18 -18v-71q0 -18 -18 -18z" />
    <glyph glyph-name="lessequal" unicode="&#x2264;" 
d="M504 167l-414 149q-15 5 -15 20v82q0 16 15 20l414 150q21 6 21 -15v-78q0 -14 -15 -20l-281 -96v-4l281 -96q15 -6 15 -20v-78q0 -20 -21 -14zM93 0q-18 0 -18 18v76q0 18 18 18h414q18 0 18 -18v-76q0 -18 -18 -18h-414z" />
    <glyph glyph-name="greaterequal" unicode="&#x2265;" 
d="M96 167q-21 -6 -21 14v78q0 14 15 20l281 96v4l-281 96q-15 6 -15 20v78q0 21 21 15l414 -150q15 -4 15 -20v-82q0 -15 -15 -20zM93 0q-18 0 -18 18v76q0 18 18 18h414q18 0 18 -18v-76q0 -18 -18 -18h-414z" />
    <glyph glyph-name="filledbox" unicode="&#x25a0;" horiz-adv-x="900" 
d="M115 0q-15 0 -15 15v670q0 15 15 15h670q15 0 15 -15v-670q0 -15 -15 -15h-670z" />
    <glyph glyph-name="triagup" unicode="&#x25b2;" horiz-adv-x="900" 
d="M120 0q-19 0 -11 18l331 662q4 8 10 8t10 -8l331 -662q8 -18 -11 -18h-660z" />
    <glyph glyph-name="triagdn" unicode="&#x25bc;" horiz-adv-x="900" 
d="M440 20l-331 662q-8 18 11 18h660q19 0 11 -18l-331 -662q-4 -8 -10 -8t-10 8z" />
    <glyph glyph-name="uni25C6" unicode="&#x25c6;" horiz-adv-x="900" 
d="M438 11l-327 327q-11 11 0 22l327 329q11 11 22 0l329 -329q11 -11 0 -22l-329 -327q-11 -11 -22 0z" />
    <glyph glyph-name="lozenge" unicode="&#x25ca;" horiz-adv-x="666" 
d="M632 362q10 -12 0 -24l-235 -327q-7 -11 -22 -11h-84q-15 0 -22 11l-235 327q-10 12 0 24l235 327q7 11 22 11h84q15 0 22 -11zM334 127l161 223l-161 223h-2l-161 -223l161 -223h2z" />
    <glyph glyph-name="uni25CF" unicode="&#x25cf;" horiz-adv-x="900" 
d="M450 0q-145 0 -247.5 102.5t-102.5 247.5t102.5 247.5t247.5 102.5t247.5 -102.5t102.5 -247.5t-102.5 -247.5t-247.5 -102.5z" />
    <glyph glyph-name="uni2610" unicode="&#x2610;" horiz-adv-x="900" 
d="M118 0q-18 0 -18 18v664q0 18 18 18h664q18 0 18 -18v-664q0 -18 -18 -18h-664zM180 75h540v550h-540v-550z" />
    <glyph glyph-name="uni2611" unicode="&#x2611;" horiz-adv-x="900" 
d="M782 700q18 0 18 -18v-664q0 -18 -18 -18h-664q-18 0 -18 18v664q0 18 18 18h664zM720 75v550h-540v-550h540zM260 225q-14 8 -6 24l41 71q9 17 24 7l73 -42l157 272q8 15 25 6l65 -38q15 -9 7 -24l-207 -358q-8 -16 -24 -7z" />
    <glyph glyph-name="uni2612" unicode="&#x2612;" horiz-adv-x="900" 
d="M118 0q-18 0 -18 18v664q0 18 18 18h664q18 0 18 -18v-664q0 -18 -18 -18h-664zM180 75h540v550h-540v-550zM295 145l-50 51q-13 12 0 25l129 129l-129 129q-13 13 0 25l50 51q13 13 26 0l128 -130l129 130q13 13 26 0l50 -51q12 -12 0 -25l-129 -129l129 -129
q12 -13 0 -25l-50 -51q-13 -13 -26 0l-129 130l-128 -130q-13 -13 -26 0z" />
    <glyph glyph-name="heart" unicode="&#x2665;" horiz-adv-x="900" 
d="M439 58q-35 33 -85.5 68.5t-87 60.5t-71 56.5t-53 72.5t-18.5 93q0 93 53.5 145t123.5 52q58 0 100.5 -36t47.5 -100h2q5 64 47.5 100t100.5 36q70 0 123.5 -52t53.5 -145q0 -52 -18.5 -93t-53 -72.5t-71 -56.5t-87 -60.5t-85.5 -68.5q-11 -9 -22 0z" />
    <glyph glyph-name="uni2B51" unicode="&#x2b51;" horiz-adv-x="900" 
d="M243 15q-9 -7 -13.5 -3t-1.5 15l79 242l-204 148q-9 7 -7 12.5t13 5.5h253l77 240q2 7 6 9.5t8 0t6 -9.5l77 -241h255q11 0 13 -5.5t-7 -12.5l-206 -149l78 -240q3 -10 -2 -14t-13 2l-205 150z" />
    <glyph glyph-name="currency_acutecomb" horiz-adv-x="638" 
d="M49 314q0 18 18 18h100q17 0 17 -18v-62q0 -138 123 -138q125 0 125 138v324h-266q-18 0 -18 18v88q0 18 18 18h382q17 0 17 -18v-439q0 -123 -67 -189t-191 -66q-123 0 -190.5 65.5t-67.5 185.5v75zM283 791l81 125q8 12 21 12h106q11 0 13 -4t2 -7q0 -4 -5 -10
l-100 -127q-7 -10 -21 -10h-86q-11 0 -13 4t-2 6q0 5 4 11z" />
    <glyph glyph-name="G.ss01" horiz-adv-x="809" 
d="M50 349q0 155 102.5 259t261.5 104q122 0 212.5 -62t115.5 -163q1 -4 1 -7q0 -12 -16 -12h-110q-14 0 -20 15q-17 48 -66.5 75.5t-115.5 27.5q-103 0 -165 -65t-62 -171q0 -108 62.5 -172.5t164.5 -64.5q85 0 142 45t68 123h-179q-17 0 -17 18v76q0 18 17 18h283
q18 0 18 -18v-357q0 -18 -18 -18h-77q-18 0 -18 18v76h-2q-75 -106 -232 -106q-152 0 -251 103.5t-99 257.5z" />
    <glyph glyph-name="Gbreve.ss01" horiz-adv-x="808" 
d="M153 608q102 104 261 104q122 0 212.5 -62t115.5 -163q1 -4 1 -7q0 -12 -16 -12h-110q-14 0 -20 15q-17 48 -66.5 75.5t-115.5 27.5q-103 0 -165 -65t-62 -171q0 -108 62.5 -172.5t164.5 -64.5q85 0 142 45t68 123h-179q-17 0 -17 18v76q0 18 17 18h283q18 0 18 -18v-357
q0 -18 -18 -18h-77q-18 0 -18 18v76h-2q-75 -106 -232 -106q-152 0 -251 103.5t-99 257.5q0 155 103 259zM266 921h66q16 0 19 -17q9 -55 63 -55q55 0 64 55q2 17 19 17h66q17 0 17 -18q0 -60 -44.5 -98.5t-121.5 -38.5q-76 0 -121 38.5t-45 98.5q0 18 18 18z" />
    <glyph glyph-name="Gcaron.ss01" horiz-adv-x="808" 
d="M153 608q102 104 261 104q122 0 212.5 -62t115.5 -163q1 -4 1 -7q0 -12 -16 -12h-110q-14 0 -20 15q-17 48 -66.5 75.5t-115.5 27.5q-103 0 -165 -65t-62 -171q0 -108 62.5 -172.5t164.5 -64.5q85 0 142 45t68 123h-179q-17 0 -17 18v76q0 18 17 18h283q18 0 18 -18v-357
q0 -18 -18 -18h-77q-18 0 -18 18v76h-2q-75 -106 -232 -106q-152 0 -251 103.5t-99 257.5q0 155 103 259zM234 922q3 6 14 6h82q15 0 22 -10l60 -75h3l61 75q9 10 22 10h82q11 0 13 -4t2 -7q0 -5 -5 -11l-107 -127q-9 -10 -22 -10h-94q-13 0 -22 10l-107 127q-5 6 -5 12
q0 2 1 4z" />
    <glyph glyph-name="Gcircumflex.ss01" horiz-adv-x="808" 
d="M153 608q102 104 261 104q122 0 212.5 -62t115.5 -163q1 -4 1 -7q0 -12 -16 -12h-110q-14 0 -20 15q-17 48 -66.5 75.5t-115.5 27.5q-103 0 -165 -65t-62 -171q0 -108 62.5 -172.5t164.5 -64.5q85 0 142 45t68 123h-179q-17 0 -17 18v76q0 18 17 18h283q18 0 18 -18v-357
q0 -18 -18 -18h-77q-18 0 -18 18v76h-2q-75 -106 -232 -106q-152 0 -251 103.5t-99 257.5q0 155 103 259zM238 791l107 127q9 10 22 10h94q13 0 22 -10l107 -127q5 -6 5 -11q0 -3 -2 -7t-13 -4h-82q-13 0 -22 10l-61 74h-2l-61 -74q-7 -10 -22 -10h-82q-11 0 -13 4t-2 7
q0 5 5 11z" />
    <glyph glyph-name="uni0122.ss01" horiz-adv-x="808" 
d="M50 349q0 155 102.5 259t261.5 104q122 0 212.5 -62t115.5 -163q1 -4 1 -7q0 -12 -16 -12h-110q-14 0 -20 15q-17 48 -66.5 75.5t-115.5 27.5q-103 0 -165 -65t-62 -171q0 -108 62.5 -172.5t164.5 -64.5q85 0 142 45t68 123h-179q-17 0 -17 18v76q0 18 17 18h283
q18 0 18 -18v-357q0 -18 -18 -18h-77q-18 0 -18 18v76h-2q-75 -106 -232 -106q-152 0 -251 103.5t-99 257.5zM331 -241l15 145q2 17 19 17h89q17 0 17 -13q0 -3 -1 -7l-39 -145q-5 -15 -20 -15h-64q-16 0 -16 13v5z" />
    <glyph glyph-name="Gdotaccent.ss01" horiz-adv-x="808" 
d="M153 608q102 104 261 104q122 0 212.5 -62t115.5 -163q1 -4 1 -7q0 -12 -16 -12h-110q-14 0 -20 15q-17 48 -66.5 75.5t-115.5 27.5q-103 0 -165 -65t-62 -171q0 -108 62.5 -172.5t164.5 -64.5q85 0 142 45t68 123h-179q-17 0 -17 18v76q0 18 17 18h283q18 0 18 -18v-357
q0 -18 -18 -18h-77q-18 0 -18 18v76h-2q-75 -106 -232 -106q-152 0 -251 103.5t-99 257.5q0 155 103 259zM333 854q0 34 23 57t58 23t58 -22.5t23 -57.5t-23 -57q-23 -23 -58 -23t-58 23t-23 57z" />
    <glyph glyph-name="uni1E20.ss01" horiz-adv-x="808" 
d="M153 608q102 104 261 104q122 0 212.5 -62t115.5 -163q1 -4 1 -7q0 -12 -16 -12h-110q-14 0 -20 15q-17 48 -66.5 75.5t-115.5 27.5q-103 0 -165 -65t-62 -171q0 -108 62.5 -172.5t164.5 -64.5q85 0 142 45t68 123h-179q-17 0 -17 18v76q0 18 17 18h283q18 0 18 -18v-357
q0 -18 -18 -18h-77q-18 0 -18 18v76h-2q-75 -106 -232 -106q-152 0 -251 103.5t-99 257.5q0 155 103 259zM260 867q0 18 18 18h273q18 0 18 -18v-62q0 -17 -18 -17h-273q-18 0 -18 17v62z" />
    <glyph glyph-name="i.loclTRK" horiz-adv-x="257" 
d="M66 458q0 18 17 18h91q18 0 18 -18v-440q0 -18 -18 -18h-91q-17 0 -17 18v440zM48 630q0 34 23 57t58 23t58 -23t23 -57t-23 -57t-58 -23t-58 23t-23 57z" />
    <glyph glyph-name="j_acutecomb" horiz-adv-x="257" 
d="M-59 -203v77q0 16 14 16h5q14 -2 25 -2q44 0 62.5 20t18.5 71v479q0 18 17 18h91q18 0 18 -18v-488q0 -102 -44 -150t-132 -48q-33 0 -60 6q-15 4 -15 19zM52 567l61 124q7 13 22 13h96q10 0 12.5 -4t2.5 -7q0 -5 -3 -10l-74 -126q-6 -11 -21 -11h-83q-16 0 -16 10
q0 5 3 11z" />
    <glyph glyph-name="y.ss02" horiz-adv-x="547" 
d="M33 476h98q15 0 21 -14l120 -313h3l120 313q6 14 21 14h99q15 0 15 -10q0 -4 -2 -10l-278 -658q-5 -14 -21 -14h-100q-15 0 -15 10q0 4 2 10l90 208l-187 444q-2 5 -2 9q0 11 16 11z" />
    <glyph glyph-name="yacute.ss02" horiz-adv-x="547" 
d="M33 476h98q15 0 21 -14l120 -313h3l120 313q6 14 21 14h99q15 0 15 -10q0 -4 -2 -10l-278 -658q-5 -14 -21 -14h-100q-15 0 -15 10q0 4 2 10l90 208l-187 444q-2 5 -2 9q0 11 16 11zM194 567l81 125q7 12 21 12h106q11 0 13 -4t2 -7q0 -4 -5 -10l-100 -127
q-7 -10 -21 -10h-86q-11 0 -13 4t-2 6q0 5 4 11z" />
    <glyph glyph-name="ycircumflex.ss02" horiz-adv-x="547" 
d="M33 476h98q15 0 21 -14l120 -313h3l120 313q6 14 21 14h99q15 0 15 -10q0 -4 -2 -10l-278 -658q-5 -14 -21 -14h-100q-15 0 -15 10q0 4 2 10l90 208l-187 444q-2 5 -2 9q0 11 16 11zM98 567l107 127q9 10 22 10h94q13 0 22 -10l107 -127q5 -6 5 -11q0 -3 -2 -7t-13 -4
h-82q-13 0 -22 10l-61 74h-2l-61 -74q-7 -10 -22 -10h-82q-11 0 -13 4t-2 7q0 5 5 11z" />
    <glyph glyph-name="ydieresis.ss02" horiz-adv-x="547" 
d="M33 476h98q15 0 21 -14l120 -313h3l120 313q6 14 21 14h99q15 0 15 -10q0 -4 -2 -10l-278 -658q-5 -14 -21 -14h-100q-15 0 -15 10q0 4 2 10l90 208l-187 444q-2 5 -2 9q0 11 16 11zM310 626q0 33 21 54.5t54 21.5q32 0 53 -22t21 -54q0 -33 -21 -55t-53 -22
q-33 0 -54 22t-21 55zM89 626q0 32 21 54t53 22q33 0 54 -21.5t21 -54.5t-21 -55t-54 -22q-32 0 -53 22t-21 55z" />
    <glyph glyph-name="ygrave.ss02" horiz-adv-x="547" 
d="M33 476h98q15 0 21 -14l120 -313h3l120 313q6 14 21 14h99q15 0 15 -10q0 -4 -2 -10l-278 -658q-5 -14 -21 -14h-100q-15 0 -15 10q0 4 2 10l90 208l-187 444q-2 5 -2 9q0 11 16 11zM125 698q3 6 14 6h106q13 0 21 -12l82 -125q3 -5 3 -10q0 -3 -2.5 -7t-12.5 -4h-86
q-12 0 -21 10l-100 127q-5 6 -5 11q0 2 1 4z" />
    <glyph glyph-name="f_f.dlig" horiz-adv-x="756" 
d="M733 705q14 -4 14 -19v-73q0 -20 -19 -15q-20 4 -44 4q-51 0 -72 -22t-21 -75v-29h131q18 0 18 -18v-73q0 -18 -18 -18h-131v-349q0 -18 -18 -18h-90q-18 0 -18 18v349h-221v-349q0 -18 -18 -18h-90q-18 0 -18 18v349h-82q-17 0 -17 18v73q0 18 17 18h82v31
q0 208 191 208q44 0 77 -10q14 -4 14 -19v-73q0 -20 -19 -15q-20 4 -44 4q-51 0 -72 -22t-21 -75v-29h221v31q0 208 192 208q43 0 76 -10z" />
    <glyph glyph-name="t_t.dlig" horiz-adv-x="804" 
d="M32 476h83v114q0 18 17 18h91q18 0 18 -18v-114h235v114q0 18 17 18h91q18 0 18 -18v-114h150q18 0 18 -18v-73q0 -18 -18 -18h-150v-176q0 -48 20.5 -68.5t66.5 -20.5q37 0 65 12q6 2 10 2q10 0 10 -15v-76q0 -13 -12 -19q-42 -18 -99 -18q-187 0 -187 189v190h-235
v-176q0 -48 20.5 -68.5t66.5 -20.5q37 0 65 12q6 2 10 2q10 0 10 -15v-76q0 -13 -12 -19q-42 -18 -99 -18q-187 0 -187 189v190h-83q-18 0 -18 18v73q0 18 18 18z" />
    <glyph glyph-name="zero.lf" horiz-adv-x="677" 
d="M338 -12q-132 0 -210 96.5t-78 265.5t78 265.5t210 96.5q133 0 211 -96.5t78 -265.5t-78 -265.5t-211 -96.5zM338 109q74 0 114.5 60.5t40.5 180.5t-40.5 180.5t-114.5 60.5t-114 -60.5t-40 -180.5t40 -180.5t114 -60.5z" />
    <glyph glyph-name="one.lf" horiz-adv-x="406" 
d="M300 700q18 0 18 -18v-664q0 -18 -18 -18h-95q-18 0 -18 18v540l-128 -73q-9 -5 -15 -1.5t-6 13.5v94q0 13 12 21l143 82q10 6 22 6h85z" />
    <glyph glyph-name="two.lf" horiz-adv-x="579" 
d="M517 120q18 0 18 -18v-84q0 -18 -18 -18h-454q-18 0 -18 18v37q0 102 39 164t139 115l79 40q104 56 104 127q0 42 -27.5 66.5t-76.5 24.5q-51 0 -82.5 -28t-37.5 -78q-2 -18 -17 -18h-99q-19 0 -18 19q7 105 74 165t178 60q109 0 173.5 -57.5t64.5 -153.5
q0 -68 -38.5 -121t-124.5 -98l-79 -40q-59 -32 -84 -58.5t-31 -63.5h336z" />
    <glyph glyph-name="three.lf" horiz-adv-x="594" 
d="M299 -12q-114 0 -181 56t-75 159q-1 18 18 18h97q16 0 19 -17q8 -46 39.5 -71t83.5 -25q55 0 88 26.5t33 69.5t-33.5 67.5t-94.5 24.5h-35q-18 0 -18 18v83q0 18 18 18h32q55 0 87 25t32 66q0 39 -29.5 62.5t-79.5 23.5q-102 0 -116 -97q-2 -17 -18 -17h-98q-18 0 -17 19
q7 102 73 158.5t176 56.5t175.5 -54t65.5 -140q0 -58 -30 -99.5t-87 -59.5v-2q62 -15 96.5 -58.5t34.5 -105.5q0 -89 -69 -147t-187 -58z" />
    <glyph glyph-name="four.lf" horiz-adv-x="618" 
d="M573 255q18 0 18 -18v-78q0 -17 -18 -17h-69v-124q0 -18 -18 -18h-89q-18 0 -18 18v124h-334q-18 0 -18 17v76q0 12 7 22l317 432q7 11 21 11h114q18 0 18 -18v-427h69zM168 255h211v285h-2z" />
    <glyph glyph-name="five.lf" horiz-adv-x="599" 
d="M325 468q105 0 172 -64t67 -169q0 -110 -72.5 -178.5t-190.5 -68.5q-105 0 -175 55t-80 146q-2 18 17 18h96q15 0 19 -16q9 -37 43 -60.5t81 -23.5q58 0 94 36t36 94q0 55 -33 88t-88 33q-74 0 -116 -49q-9 -11 -21 -11h-102q-18 0 -17 19l47 366q3 17 19 17h385
q18 0 18 -18v-83q0 -17 -18 -17h-297l-18 -149q58 35 134 35z" />
    <glyph glyph-name="six.lf" horiz-adv-x="624" 
d="M348 463q105 0 172.5 -66.5t67.5 -169.5q0 -106 -71.5 -172.5t-190.5 -66.5q-117 0 -189 69q-87 84 -87 276q0 184 75 281.5t213 97.5q95 0 156 -45t78 -127q3 -19 -16 -19h-96q-14 0 -20 15q-21 60 -103 60q-140 0 -155 -205h3q55 72 163 72zM325 102q59 0 95 34t36 92
q0 57 -36 91t-95 34t-95 -34t-36 -91q0 -58 36 -92t95 -34z" />
    <glyph glyph-name="seven.lf" horiz-adv-x="532" 
d="M487 700q17 0 17 -18v-78q0 -13 -5 -22l-263 -569q-6 -13 -20 -13h-100q-10 0 -14 6t0 15l260 558h-317q-17 0 -17 17v86q0 18 17 18h442z" />
    <glyph glyph-name="eight.lf" horiz-adv-x="626" 
d="M313 -12q-124 0 -196.5 57t-72.5 148q0 59 32 104t93 68v3q-105 43 -105 154q0 83 66 136.5t183 53.5q118 0 184 -53.5t66 -136.5q0 -111 -106 -154v-3q62 -23 94 -68t32 -104q0 -91 -72.5 -148t-197.5 -57zM313 413q57 0 88 25.5t31 67.5t-31 67.5t-88 25.5
q-56 0 -87 -25.5t-31 -67.5t31 -67.5t87 -25.5zM313 102q65 0 100.5 28t35.5 74t-35.5 73.5t-100.5 27.5q-64 0 -99.5 -27.5t-35.5 -73.5t35.5 -74t99.5 -28z" />
    <glyph glyph-name="nine.lf" horiz-adv-x="625" 
d="M490 641q85 -85 85 -275q0 -183 -74.5 -280.5t-212.5 -97.5q-96 0 -157 45t-77 127q-5 19 16 19h96q14 0 20 -15q19 -60 103 -60q70 0 109 50t46 158h-2q-56 -73 -164 -73q-103 0 -170 66t-67 168q0 105 71.5 172t189.5 67q117 0 188 -71zM301 348q59 0 95.5 34.5
t36.5 91.5q0 55 -36 89.5t-95 34.5q-58 0 -94 -35t-36 -91t35 -90t94 -34z" />
    <glyph glyph-name="zero.tf" horiz-adv-x="650" 
d="M325 -12q-132 0 -210 96.5t-78 265.5t78 265.5t210 96.5t210 -96t78 -266t-78 -266t-210 -96zM325 109q74 0 114.5 60.5t40.5 180.5t-40.5 180.5t-114.5 60.5t-114.5 -60.5t-40.5 -180.5t40.5 -180.5t114.5 -60.5z" />
    <glyph glyph-name="one.tf" horiz-adv-x="650" 
d="M413 700q17 0 17 -18v-664q0 -18 -17 -18h-96q-17 0 -17 18v541l-128 -74q-9 -5 -15.5 -1.5t-6.5 13.5v94q0 13 12 21l143 82q10 6 23 6h85z" />
    <glyph glyph-name="two.tf" horiz-adv-x="650" 
d="M556 120q17 0 17 -18v-84q0 -18 -17 -18h-455q-18 0 -18 18v37q0 102 39 164t140 115l78 40q104 55 104 127q0 42 -27.5 66.5t-76.5 24.5q-51 0 -82.5 -28t-37.5 -78q-2 -18 -17 -18h-99q-18 0 -18 19q7 105 74 165t178 60q109 0 173.5 -57.5t64.5 -153.5
q0 -68 -38.5 -121t-124.5 -98l-79 -40q-59 -32 -84 -58.5t-31 -63.5h337z" />
    <glyph glyph-name="three.tf" horiz-adv-x="650" 
d="M330 -12q-114 0 -181.5 56t-74.5 159q-2 18 17 18h98q15 0 18 -17q8 -46 40 -71t84 -25q55 0 87.5 26.5t32.5 69.5t-33.5 67.5t-94.5 24.5h-35q-18 0 -18 18v83q0 18 18 18h32q55 0 87 25t32 66q0 39 -29.5 62.5t-78.5 23.5q-103 0 -117 -97q-2 -17 -18 -17h-98
q-18 0 -17 19q7 102 73 158.5t176 56.5t175.5 -54t65.5 -140q0 -58 -30 -99.5t-87 -59.5v-2q62 -15 96.5 -58.5t34.5 -105.5q0 -89 -68.5 -147t-186.5 -58z" />
    <glyph glyph-name="four.tf" horiz-adv-x="650" 
d="M587 255q18 0 18 -18v-78q0 -17 -18 -17h-69v-124q0 -18 -18 -18h-89q-18 0 -18 18v124h-334q-18 0 -18 17v76q0 12 7 22l316 432q8 11 22 11h114q18 0 18 -18v-427h69zM181 255h212v285h-3z" />
    <glyph glyph-name="five.tf" horiz-adv-x="650" 
d="M354 468q105 0 172 -64t67 -169q0 -110 -72.5 -178.5t-190.5 -68.5q-105 0 -175 55t-80 146q-2 18 17 18h96q15 0 19 -16q9 -37 43 -60.5t81 -23.5q59 0 95 36t36 94q0 55 -33 88t-89 33q-74 0 -115 -49q-11 -11 -22 -11h-102q-19 0 -16 19l47 366q1 17 18 17h385
q18 0 18 -18v-83q0 -17 -18 -17h-296l-19 -149q58 35 134 35z" />
    <glyph glyph-name="six.tf" horiz-adv-x="650" 
d="M357 463q105 0 172.5 -66.5t67.5 -169.5q0 -106 -71.5 -172.5t-190.5 -66.5q-117 0 -189 69q-87 84 -87 276q0 184 75 281.5t213 97.5q95 0 156 -45t78 -127q3 -19 -16 -19h-96q-14 0 -20 15q-21 60 -103 60q-140 0 -155 -205h3q56 72 163 72zM334 102q59 0 95 34t36 92
q0 57 -36 91t-95 34t-95 -34t-36 -91q0 -58 36 -92t95 -34z" />
    <glyph glyph-name="seven.tf" horiz-adv-x="650" 
d="M553 700q18 0 18 -18v-78q0 -10 -5 -22l-264 -569q-6 -13 -20 -13h-100q-10 0 -13.5 6t0.5 15l260 558h-317q-18 0 -18 17v86q0 18 18 18h441z" />
    <glyph glyph-name="eight.tf" horiz-adv-x="650" 
d="M325 -12q-124 0 -196.5 57t-72.5 148q0 59 32 104t93 68v3q-52 21 -79 61.5t-27 92.5q0 83 66 136.5t184 53.5t184 -53.5t66 -136.5q0 -52 -27 -92.5t-79 -61.5v-3q62 -23 93.5 -68t31.5 -104q0 -91 -72.5 -148t-196.5 -57zM325 413q57 0 88 25.5t31 67.5t-31 67.5
t-88 25.5t-88 -25.5t-31 -67.5t31 -67.5t88 -25.5zM325 102q65 0 100.5 28t35.5 74t-35.5 73.5t-100.5 27.5t-100.5 -27.5t-35.5 -73.5t35.5 -74t100.5 -28z" />
    <glyph glyph-name="nine.tf" horiz-adv-x="650" 
d="M510 641q86 -84 86 -275q0 -183 -74.5 -280.5t-212.5 -97.5q-96 0 -157 45t-78 127q-3 19 16 19h96q14 0 20 -15q19 -60 104 -60q141 0 155 208h-3q-54 -73 -164 -73q-103 0 -170 66t-67 168q0 105 72 172t189 67t188 -71zM321 348q59 0 95.5 34.5t36.5 91.5q0 56 -36 90
t-94 34t-94 -35t-36 -91t35 -90t93 -34z" />
    <glyph glyph-name="zero.subs" horiz-adv-x="376" 
d="M188 -64q-74 0 -116.5 51.5t-42.5 143.5q0 91 42.5 142t116.5 51q73 0 116 -51t43 -142q0 -92 -43 -143.5t-116 -51.5zM188 20q66 0 66 111q0 109 -66 109t-66 -109q0 -111 66 -111z" />
    <glyph glyph-name="one.subs" horiz-adv-x="239" 
d="M175 316q18 0 18 -17v-337q0 -18 -18 -18h-55q-18 0 -18 18v258l-57 -33q-9 -5 -15 -1.5t-6 14.5v53q0 14 12 21l64 36q8 6 22 6h53z" />
    <glyph glyph-name="two.subs" horiz-adv-x="324" 
d="M279 26q17 0 17 -18v-46q0 -18 -17 -18h-235q-18 0 -18 18v13q0 65 19 99.5t76 62.5l47 22q43 21 43 47q0 36 -43 36q-37 0 -46 -35q-5 -16 -19 -16h-57q-20 0 -18 18q6 54 42 84.5t98 30.5t97.5 -31t35.5 -85q0 -73 -88 -115l-46 -22q-23 -11 -33 -20t-14 -25h159z" />
    <glyph glyph-name="three.subs" horiz-adv-x="331" 
d="M243 133q64 -21 64 -87q0 -48 -37.5 -79t-103.5 -31q-61 0 -99 32q-34 28 -40 77q-3 18 17 18h57q12 0 19 -16q9 -28 48 -28q22 0 34.5 10.5t12.5 28.5q0 36 -49 36h-15q-18 0 -18 18v40q0 18 18 18h13q47 0 47 38q0 33 -43 33q-37 0 -46 -29q-5 -16 -18 -16h-57
q-20 0 -17 18q6 49 42 80q36 30 95 30q62 0 98 -29t36 -76q0 -62 -58 -86z" />
    <glyph glyph-name="four.subs" horiz-adv-x="346" 
d="M308 90q18 0 18 -18v-42q0 -18 -18 -18h-21v-50q0 -18 -18 -18h-49q-18 0 -18 18v50h-164q-17 0 -17 18v43q0 12 7 22l153 211q7 10 21 10h67q18 0 18 -17v-209h21zM114 90h88v121z" />
    <glyph glyph-name="five.subs" horiz-adv-x="331" 
d="M179 192q57 0 94 -34.5t37 -90.5q0 -58 -40 -94.5t-104 -36.5q-55 0 -96 31q-35 30 -42 71q-2 8 2.5 13t13.5 5h55q12 0 20 -14q13 -24 47 -24q25 0 39.5 14t14.5 37t-14 36.5t-38 13.5q-26 0 -42 -15q-12 -10 -21 -10h-58q-19 0 -16 19l23 187q3 16 19 16h197
q18 0 18 -17v-44q0 -18 -18 -18h-144l-7 -58q26 13 60 13z" />
    <glyph glyph-name="six.subs" horiz-adv-x="346" 
d="M195 189q56 0 92.5 -34.5t36.5 -89.5q0 -57 -39.5 -93t-103.5 -36q-61 0 -103 37q-49 46 -49 151q0 98 40.5 149t116.5 51q106 0 129 -92q5 -20 -16 -20h-54q-11 0 -20 14q-12 21 -41 21q-56 0 -64 -81q32 23 75 23zM180 12q24 0 39 14.5t15 38.5q0 23 -15 37.5t-39 14.5
t-39 -14.5t-15 -37.5t15 -38t39 -15z" />
    <glyph glyph-name="seven.subs" horiz-adv-x="292" 
d="M256 316q17 0 17 -17v-44q0 -13 -4 -22l-125 -276q-6 -13 -21 -13h-58q-22 0 -14 21l123 268h-138q-17 0 -17 18v48q0 17 17 17h220z" />
    <glyph glyph-name="eight.subs" horiz-adv-x="345" 
d="M172 -64q-68 0 -107 30.5t-39 80.5q0 65 62 92q-52 26 -52 82q0 45 36 74t100 29q65 0 101 -29t36 -74q0 -55 -52 -82q62 -27 62 -92q0 -50 -39 -80.5t-108 -30.5zM172 171q48 0 48 38q0 39 -48 39q-47 0 -47 -39q0 -17 12.5 -27.5t34.5 -10.5zM172 13q55 0 55 42
q0 41 -55 41q-54 0 -54 -41q0 -42 54 -42z" />
    <glyph glyph-name="nine.subs" horiz-adv-x="348" 
d="M270 287q49 -46 49 -149q0 -99 -40 -150.5t-116 -51.5q-51 0 -87 25q-34 26 -44 67q-5 20 17 20h55q11 0 19 -14q13 -20 41 -20q56 0 64 80q-30 -23 -75 -23q-56 0 -92 35t-36 90q0 56 39 92t103 36t103 -37zM169 143q24 0 39 14.5t15 37.5t-14.5 38t-39.5 15
q-24 0 -39 -14.5t-15 -37.5q0 -24 14.5 -38.5t39.5 -14.5z" />
    <glyph glyph-name="zero.dnom" horiz-adv-x="376" 
d="M188 -14q-74 0 -116.5 51.5t-42.5 143.5q0 91 42.5 142t116.5 51q73 0 116 -51t43 -142q0 -92 -43 -143.5t-116 -51.5zM188 70q66 0 66 111q0 109 -66 109t-66 -109q0 -111 66 -111z" />
    <glyph glyph-name="one.dnom" horiz-adv-x="239" 
d="M175 366q18 0 18 -17v-337q0 -18 -18 -18h-55q-18 0 -18 18v258l-57 -33q-9 -5 -15 -1.5t-6 14.5v53q0 14 12 21l64 36q8 6 22 6h53z" />
    <glyph glyph-name="two.dnom" horiz-adv-x="324" 
d="M279 76q17 0 17 -18v-46q0 -18 -17 -18h-235q-18 0 -18 18v13q0 65 19 99.5t76 62.5l47 22q43 21 43 47q0 36 -43 36q-37 0 -46 -35q-5 -16 -19 -16h-57q-20 0 -18 18q6 54 42 84.5t98 30.5t97.5 -31t35.5 -85q0 -73 -88 -115l-46 -22q-23 -11 -33 -20t-14 -25h159z" />
    <glyph glyph-name="three.dnom" horiz-adv-x="331" 
d="M243 183q64 -21 64 -87q0 -48 -37.5 -79t-103.5 -31q-61 0 -99 32q-34 28 -40 77q-3 18 17 18h57q12 0 19 -16q9 -28 48 -28q22 0 34.5 10.5t12.5 28.5q0 36 -49 36h-15q-18 0 -18 18v40q0 18 18 18h13q47 0 47 38q0 33 -43 33q-37 0 -46 -29q-5 -16 -18 -16h-57
q-20 0 -17 18q6 49 42 80q36 30 95 30q62 0 98 -29t36 -76q0 -62 -58 -86z" />
    <glyph glyph-name="four.dnom" horiz-adv-x="346" 
d="M308 140q18 0 18 -18v-42q0 -18 -18 -18h-21v-50q0 -18 -18 -18h-49q-18 0 -18 18v50h-164q-17 0 -17 18v43q0 12 7 22l153 211q7 10 21 10h67q18 0 18 -17v-209h21zM114 140h88v121z" />
    <glyph glyph-name="five.dnom" horiz-adv-x="331" 
d="M179 242q57 0 94 -34.5t37 -90.5q0 -58 -40 -94.5t-104 -36.5q-55 0 -96 31q-35 30 -42 71q-2 8 2.5 13t13.5 5h55q12 0 20 -14q13 -24 47 -24q25 0 39.5 14t14.5 37t-14 36.5t-38 13.5q-26 0 -42 -15q-12 -10 -21 -10h-58q-19 0 -16 19l23 187q3 16 19 16h197
q18 0 18 -17v-44q0 -18 -18 -18h-144l-7 -58q26 13 60 13z" />
    <glyph glyph-name="six.dnom" horiz-adv-x="346" 
d="M195 239q56 0 92.5 -34.5t36.5 -89.5q0 -57 -39.5 -93t-103.5 -36q-61 0 -103 37q-49 46 -49 151q0 98 40.5 149t116.5 51q106 0 129 -92q5 -20 -16 -20h-54q-11 0 -20 14q-12 21 -41 21q-56 0 -64 -81q32 23 75 23zM180 62q24 0 39 14.5t15 38.5q0 23 -15 37.5t-39 14.5
t-39 -14.5t-15 -37.5t15 -38t39 -15z" />
    <glyph glyph-name="seven.dnom" horiz-adv-x="292" 
d="M256 366q17 0 17 -17v-44q0 -13 -4 -22l-125 -276q-6 -13 -21 -13h-58q-22 0 -14 21l123 268h-138q-17 0 -17 18v48q0 17 17 17h220z" />
    <glyph glyph-name="eight.dnom" horiz-adv-x="345" 
d="M172 -14q-68 0 -107 30.5t-39 80.5q0 65 62 92q-52 26 -52 82q0 45 36 74t100 29q65 0 101 -29t36 -74q0 -55 -52 -82q62 -27 62 -92q0 -50 -39 -80.5t-108 -30.5zM172 221q48 0 48 38q0 39 -48 39q-47 0 -47 -39q0 -17 12.5 -27.5t34.5 -10.5zM172 63q55 0 55 42
q0 41 -55 41q-54 0 -54 -41q0 -42 54 -42z" />
    <glyph glyph-name="nine.dnom" horiz-adv-x="348" 
d="M270 337q49 -46 49 -149q0 -99 -40 -150.5t-116 -51.5q-51 0 -87 25q-34 26 -44 67q-5 20 17 20h55q11 0 19 -14q13 -20 41 -20q56 0 64 80q-30 -23 -75 -23q-56 0 -92 35t-36 90q0 56 39 92t103 36t103 -37zM169 193q24 0 39 14.5t15 37.5t-14.5 38t-39.5 15
q-24 0 -39 -14.5t-15 -37.5q0 -24 14.5 -38.5t39.5 -14.5z" />
    <glyph glyph-name="zero.numr" horiz-adv-x="376" 
d="M188 324q-74 0 -116.5 51.5t-42.5 143.5q0 91 42.5 142t116.5 51q73 0 116 -51t43 -142q0 -92 -43 -143.5t-116 -51.5zM188 408q66 0 66 111q0 109 -66 109t-66 -109q0 -111 66 -111z" />
    <glyph glyph-name="one.numr" horiz-adv-x="239" 
d="M175 704q18 0 18 -17v-337q0 -18 -18 -18h-55q-18 0 -18 18v258l-57 -33q-9 -5 -15 -1.5t-6 14.5v53q0 14 12 21l64 36q8 6 22 6h53z" />
    <glyph glyph-name="two.numr" horiz-adv-x="324" 
d="M279 414q17 0 17 -18v-46q0 -18 -17 -18h-235q-18 0 -18 18v13q0 65 19 99.5t76 62.5l47 22q43 21 43 47q0 36 -43 36q-37 0 -46 -35q-5 -16 -19 -16h-57q-20 0 -18 18q6 54 42 84.5t98 30.5t97.5 -31t35.5 -85q0 -73 -88 -115l-46 -22q-23 -11 -33 -20t-14 -25h159z" />
    <glyph glyph-name="three.numr" horiz-adv-x="331" 
d="M243 521q64 -21 64 -87q0 -48 -37.5 -79t-103.5 -31q-61 0 -99 32q-34 28 -40 77q-3 18 17 18h57q12 0 19 -16q9 -28 48 -28q22 0 34.5 10.5t12.5 28.5q0 36 -49 36h-15q-18 0 -18 18v40q0 18 18 18h13q47 0 47 38q0 33 -43 33q-37 0 -46 -29q-5 -16 -18 -16h-57
q-20 0 -17 18q6 49 42 80q36 30 95 30q62 0 98 -29t36 -76q0 -62 -58 -86z" />
    <glyph glyph-name="four.numr" horiz-adv-x="346" 
d="M308 478q18 0 18 -18v-42q0 -18 -18 -18h-21v-50q0 -18 -18 -18h-49q-18 0 -18 18v50h-164q-17 0 -17 18v43q0 12 7 22l153 211q7 10 21 10h67q18 0 18 -17v-209h21zM114 478h88v121z" />
    <glyph glyph-name="five.numr" horiz-adv-x="331" 
d="M179 580q57 0 94 -34.5t37 -90.5q0 -58 -40 -94.5t-104 -36.5q-55 0 -96 31q-35 30 -42 71q-2 8 2.5 13t13.5 5h55q12 0 20 -14q13 -24 47 -24q25 0 39.5 14t14.5 37t-14 36.5t-38 13.5q-26 0 -42 -15q-12 -10 -21 -10h-58q-19 0 -16 19l23 187q3 16 19 16h197
q18 0 18 -17v-44q0 -18 -18 -18h-144l-7 -58q26 13 60 13z" />
    <glyph glyph-name="six.numr" horiz-adv-x="346" 
d="M195 577q56 0 92.5 -34.5t36.5 -89.5q0 -57 -39.5 -93t-103.5 -36q-61 0 -103 37q-49 46 -49 151q0 98 40.5 149t116.5 51q106 0 129 -92q5 -20 -16 -20h-54q-11 0 -20 14q-12 21 -41 21q-56 0 -64 -81q32 23 75 23zM180 400q24 0 39 14.5t15 38.5q0 23 -15 37.5
t-39 14.5t-39 -14.5t-15 -37.5t15 -38t39 -15z" />
    <glyph glyph-name="seven.numr" horiz-adv-x="292" 
d="M256 704q17 0 17 -17v-44q0 -13 -4 -22l-125 -276q-6 -13 -21 -13h-58q-22 0 -14 21l123 268h-138q-17 0 -17 18v48q0 17 17 17h220z" />
    <glyph glyph-name="eight.numr" horiz-adv-x="345" 
d="M172 324q-68 0 -107 30.5t-39 80.5q0 65 62 92q-52 26 -52 82q0 45 36 74t100 29q65 0 101 -29t36 -74q0 -55 -52 -82q62 -27 62 -92q0 -50 -39 -80.5t-108 -30.5zM172 559q48 0 48 38q0 39 -48 39q-47 0 -47 -39q0 -17 12.5 -27.5t34.5 -10.5zM172 401q55 0 55 42
q0 41 -55 41q-54 0 -54 -41q0 -42 54 -42z" />
    <glyph glyph-name="nine.numr" horiz-adv-x="348" 
d="M270 675q49 -46 49 -149q0 -99 -40 -150.5t-116 -51.5q-51 0 -87 25q-34 26 -44 67q-5 20 17 20h55q11 0 19 -14q13 -20 41 -20q56 0 64 80q-30 -23 -75 -23q-56 0 -92 35t-36 90q0 56 39 92t103 36t103 -37zM169 531q24 0 39 14.5t15 37.5t-14.5 38t-39.5 15
q-24 0 -39 -14.5t-15 -37.5q0 -24 14.5 -38.5t39.5 -14.5z" />
    <glyph glyph-name="zero.sups" horiz-adv-x="376" 
d="M188 374q-74 0 -116.5 51.5t-42.5 143.5q0 91 42.5 142t116.5 51q73 0 116 -51t43 -142q0 -92 -43 -143.5t-116 -51.5zM188 458q66 0 66 111q0 109 -66 109t-66 -109q0 -111 66 -111z" />
    <glyph glyph-name="one.sups" horiz-adv-x="239" 
d="M175 754q18 0 18 -17v-337q0 -18 -18 -18h-55q-18 0 -18 18v258l-57 -33q-9 -5 -15 -1.5t-6 14.5v53q0 14 12 21l64 36q8 6 22 6h53z" />
    <glyph glyph-name="two.sups" horiz-adv-x="324" 
d="M279 464q17 0 17 -18v-46q0 -18 -17 -18h-235q-18 0 -18 18v13q0 65 19 99.5t76 62.5l47 22q43 21 43 47q0 36 -43 36q-37 0 -46 -35q-5 -16 -19 -16h-57q-20 0 -18 18q6 54 42 84.5t98 30.5t97.5 -31t35.5 -85q0 -73 -88 -115l-46 -22q-23 -11 -33 -20t-14 -25h159z" />
    <glyph glyph-name="three.sups" horiz-adv-x="331" 
d="M243 571q64 -21 64 -87q0 -48 -37.5 -79t-103.5 -31q-61 0 -99 32q-34 28 -40 77q-3 18 17 18h57q12 0 19 -16q9 -28 48 -28q22 0 34.5 10.5t12.5 28.5q0 36 -49 36h-15q-18 0 -18 18v40q0 18 18 18h13q47 0 47 38q0 33 -43 33q-37 0 -46 -29q-5 -16 -18 -16h-57
q-20 0 -17 18q6 49 42 80q36 30 95 30q62 0 98 -29t36 -76q0 -62 -58 -86z" />
    <glyph glyph-name="four.sups" horiz-adv-x="346" 
d="M308 528q18 0 18 -18v-42q0 -18 -18 -18h-21v-50q0 -18 -18 -18h-49q-18 0 -18 18v50h-164q-17 0 -17 18v43q0 12 7 22l153 211q7 10 21 10h67q18 0 18 -17v-209h21zM114 528h88v121z" />
    <glyph glyph-name="five.sups" horiz-adv-x="331" 
d="M179 630q57 0 94 -34.5t37 -90.5q0 -58 -40 -94.5t-104 -36.5q-55 0 -96 31q-35 30 -42 71q-2 8 2.5 13t13.5 5h55q12 0 20 -14q13 -24 47 -24q25 0 39.5 14t14.5 37t-14 36.5t-38 13.5q-26 0 -42 -15q-12 -10 -21 -10h-58q-19 0 -16 19l23 187q3 16 19 16h197
q18 0 18 -17v-44q0 -18 -18 -18h-144l-7 -58q26 13 60 13z" />
    <glyph glyph-name="six.sups" horiz-adv-x="346" 
d="M195 627q56 0 92.5 -34.5t36.5 -89.5q0 -57 -39.5 -93t-103.5 -36q-61 0 -103 37q-49 46 -49 151q0 98 40.5 149t116.5 51q106 0 129 -92q5 -20 -16 -20h-54q-11 0 -20 14q-12 21 -41 21q-56 0 -64 -81q32 23 75 23zM180 450q24 0 39 14.5t15 38.5q0 23 -15 37.5
t-39 14.5t-39 -14.5t-15 -37.5t15 -38t39 -15z" />
    <glyph glyph-name="seven.sups" horiz-adv-x="292" 
d="M256 754q17 0 17 -17v-44q0 -13 -4 -22l-125 -276q-6 -13 -21 -13h-58q-22 0 -14 21l123 268h-138q-17 0 -17 18v48q0 17 17 17h220z" />
    <glyph glyph-name="eight.sups" horiz-adv-x="345" 
d="M172 374q-68 0 -107 30.5t-39 80.5q0 65 62 92q-52 26 -52 82q0 45 36 74t100 29q65 0 101 -29t36 -74q0 -55 -52 -82q62 -27 62 -92q0 -50 -39 -80.5t-108 -30.5zM172 609q48 0 48 38q0 39 -48 39q-47 0 -47 -39q0 -17 12.5 -27.5t34.5 -10.5zM172 451q55 0 55 42
q0 41 -55 41q-54 0 -54 -41q0 -42 54 -42z" />
    <glyph glyph-name="nine.sups" horiz-adv-x="348" 
d="M270 725q49 -46 49 -149q0 -99 -40 -150.5t-116 -51.5q-51 0 -87 25q-34 26 -44 67q-5 20 17 20h55q11 0 19 -14q13 -20 41 -20q56 0 64 80q-30 -23 -75 -23q-56 0 -92 35t-36 90q0 56 39 92t103 36t103 -37zM169 581q24 0 39 14.5t15 37.5t-14.5 38t-39.5 15
q-24 0 -39 -14.5t-15 -37.5q0 -24 14.5 -38.5t39.5 -14.5z" />
    <glyph glyph-name="colon.case" horiz-adv-x="283" 
d="M142 428q-37 0 -60 22.5t-23 59.5t23 60t60 23t60 -23t23 -60t-23 -59.5t-60 -22.5zM142 108q-37 0 -60 22.5t-23 59.5t23 59.5t60 22.5t60 -22.5t23 -59.5t-23 -59.5t-60 -22.5z" />
    <glyph glyph-name="exclamdown.case" horiz-adv-x="302" 
d="M151 709q37 0 60 -22.5t23 -59.5t-23 -59.5t-60 -22.5t-60 22.5t-23 59.5t23 59.5t60 22.5zM112 467h78q18 0 18 -17l12 -432q0 -18 -17 -18h-105q-16 0 -16 18l12 432q0 17 18 17z" />
    <glyph glyph-name="questiondown.case" horiz-adv-x="502" 
d="M274 711q37 0 59.5 -22.5t22.5 -59.5t-22.5 -60t-59.5 -23t-60 23t-23 60t23 59.5t60 22.5zM317 472q18 0 18 -18v-29q0 -49 -15 -77t-63 -69l-46 -38q-44 -38 -44 -74q0 -65 78 -65q87 0 101 84q3 17 19 17h85q20 0 17 -18q-8 -93 -64.5 -144t-154.5 -51
q-95 0 -149.5 47t-54.5 127q0 42 19.5 77t67.5 76l44 36q24 21 31 35.5t7 42.5v23q0 18 18 18h86z" />
    <glyph glyph-name="periodcentered.case" horiz-adv-x="303" 
d="M152 265q-37 0 -60 22.5t-23 59.5t23 59.5t60 22.5t60 -22.5t23 -59.5t-23 -59.5t-60 -22.5z" />
    <glyph glyph-name="bullet.case" horiz-adv-x="529" 
d="M264 197q-69 0 -115 46.5t-46 114.5q0 69 46 115.5t115 46.5t115.5 -47t46.5 -115t-46.5 -114.5t-115.5 -46.5z" />
    <glyph glyph-name="parenleft.case" horiz-adv-x="347" 
d="M235 -78q-15 -10 -25 3q-70 88 -108.5 201t-38.5 224t38.5 224t108.5 201q10 13 25 3l65 -40q13 -10 4 -25q-54 -71 -85.5 -167.5t-31.5 -195.5t31.5 -195.5t85.5 -167.5q9 -15 -4 -25z" />
    <glyph glyph-name="parenright.case" horiz-adv-x="347" 
d="M112 -78l-65 40q-13 10 -4 25q54 71 85.5 167.5t31.5 195.5t-31.5 195.5t-85.5 167.5q-9 15 4 25l65 40q15 10 25 -3q70 -88 108.5 -201t38.5 -224t-38.5 -224t-108.5 -201q-10 -13 -25 -3z" />
    <glyph glyph-name="braceleft.case" horiz-adv-x="405" 
d="M271 -68q-78 0 -112.5 33t-34.5 107v162q0 31 -13.5 44t-43.5 15q-18 2 -18 19v76q0 17 18 19q31 2 44 15.5t13 43.5v162q0 74 34.5 107t112.5 33h73q17 0 17 -18v-73q0 -17 -17 -17h-41q-58 0 -58 -57v-134q0 -99 -86 -118v-2q86 -19 86 -118v-134q0 -57 58 -57h41
q17 0 17 -17v-73q0 -18 -17 -18h-73z" />
    <glyph glyph-name="braceright.case" horiz-adv-x="405" 
d="M134 -68h-73q-17 0 -17 18v73q0 17 17 17h41q58 0 58 57v134q0 99 86 118v2q-86 19 -86 118v134q0 57 -58 57h-41q-17 0 -17 17v73q0 18 17 18h73q78 0 112.5 -33t34.5 -107v-162q0 -30 13 -43.5t44 -15.5q18 -2 18 -19v-76q0 -17 -18 -19q-30 -2 -43.5 -15t-13.5 -44
v-162q0 -74 -34.5 -107t-112.5 -33z" />
    <glyph glyph-name="bracketleft.case" horiz-adv-x="380" 
d="M322 660h-120v-620h120q18 0 18 -17v-73q0 -18 -18 -18h-224q-18 0 -18 18v800q0 18 18 18h224q18 0 18 -18v-73q0 -17 -18 -17z" />
    <glyph glyph-name="bracketright.case" horiz-adv-x="380" 
d="M282 768q18 0 18 -18v-800q0 -18 -18 -18h-224q-18 0 -18 18v73q0 17 18 17h120v620h-120q-18 0 -18 17v73q0 18 18 18h224z" />
    <glyph glyph-name="hyphen.case" horiz-adv-x="383" 
d="M62 288q-18 0 -18 17v78q0 18 18 18h259q18 0 18 -18v-78q0 -17 -18 -17h-259z" />
    <glyph glyph-name="endash.case" horiz-adv-x="500" 
d="M62 288q-18 0 -18 17v78q0 18 18 18h376q18 0 18 -18v-78q0 -17 -18 -17h-376z" />
    <glyph glyph-name="emdash.case" horiz-adv-x="1000" 
d="M62 288q-18 0 -18 17v78q0 18 18 18h876q18 0 18 -18v-78q0 -17 -18 -17h-876z" />
    <glyph glyph-name="guillemotleft.case" horiz-adv-x="576" 
d="M175 349l106 -163q5 -8 1.5 -14.5t-13.5 -6.5h-98q-13 0 -21 12l-104 160q-8 12 0 24l104 160q8 12 21 12h98q10 0 13.5 -6.5t-1.5 -14.5zM413 349l106 -163q5 -8 1.5 -14.5t-13.5 -6.5h-98q-13 0 -21 12l-104 160q-8 12 0 24l104 160q8 12 21 12h98q10 0 13.5 -6.5
t-1.5 -14.5z" />
    <glyph glyph-name="guillemotright.case" horiz-adv-x="576" 
d="M292 361q8 -12 0 -24l-104 -160q-8 -12 -21 -12h-98q-10 0 -13.5 6.5t1.5 14.5l106 163l-106 163q-5 8 -1.5 14.5t13.5 6.5h98q13 0 21 -12zM530 361q8 -12 0 -24l-104 -160q-8 -12 -21 -12h-98q-10 0 -13.5 6.5t1.5 14.5l106 163l-106 163q-5 8 -1.5 14.5t13.5 6.5h98
q13 0 21 -12z" />
    <glyph glyph-name="guilsinglleft.case" horiz-adv-x="338" 
d="M175 349l106 -163q5 -8 1.5 -14.5t-13.5 -6.5h-98q-13 0 -21 12l-104 160q-8 12 0 24l104 160q8 12 21 12h98q10 0 13.5 -6.5t-1.5 -14.5z" />
    <glyph glyph-name="guilsinglright.case" horiz-adv-x="338" 
d="M292 361q8 -12 0 -24l-104 -160q-8 -12 -21 -12h-98q-10 0 -13.5 6.5t1.5 14.5l106 163l-106 163q-5 8 -1.5 14.5t13.5 6.5h98q13 0 21 -12z" />
    <glyph glyph-name="cent.tf" horiz-adv-x="650" 
d="M134 512q54 67 145 83v99q0 18 18 18h67q17 0 17 -18v-98q76 -12 127 -59.5t63 -119.5v-4q0 -14 -17 -14h-93q-15 0 -20 15q-16 50 -68 66v-260q52 16 67 66q5 15 20 15h93q9 0 13.5 -4t4.5 -10v-3q-12 -72 -63 -120t-127 -60v-98q0 -18 -17 -18h-67q-18 0 -18 18v99
q-91 16 -145.5 83.5t-54.5 161.5t55 162zM229 270q21 -34 58 -47v255q-37 -13 -58 -47t-21 -81t21 -80z" />
    <glyph glyph-name="currency.tf" horiz-adv-x="650" 
d="M501 224l62 -63q13 -13 0 -25l-24 -24q-13 -12 -25 0l-66 66q-52 -30 -115 -30q-71 0 -124 36l-73 -72q-12 -12 -25 0l-24 24q-13 12 0 25l72 72q-36 52 -36 117t36 117l-72 72q-13 13 0 25l24 24q13 12 25 0l73 -73q53 36 124 36q63 0 114 -30l67 67q12 12 25 0l24 -24
q13 -12 0 -25l-63 -63q43 -54 43 -126q0 -73 -42 -126zM333 252q42 0 67.5 27.5t25.5 70.5t-25.5 70.5t-67.5 27.5q-41 0 -66.5 -27.5t-25.5 -70.5t25 -70.5t67 -27.5z" />
    <glyph glyph-name="dollar.tf" horiz-adv-x="650" 
d="M561 229q0 -78 -48.5 -125t-136.5 -57v-52q0 -18 -18 -18h-66q-17 0 -17 18v52q-81 11 -128 54t-56 111q-3 19 16 19h89q14 0 19 -16q13 -49 70 -61v154l-14 3q-179 30 -179 169q0 72 47 118.5t136 56.5v50q0 18 17 18h66q18 0 18 -18v-52q78 -10 122.5 -53t52.5 -113
q3 -18 -16 -18h-89q-16 0 -19 16q-8 50 -62 62v-144l28 -5q168 -29 168 -169zM215 481q0 -24 16 -38t54 -25v131q-70 -10 -70 -68zM365 153q73 12 73 70q0 52 -73 70v-140z" />
    <glyph glyph-name="Euro.tf" horiz-adv-x="650" 
d="M597 200q19 0 16 -22q-19 -91 -80.5 -140.5t-148.5 -49.5q-103 0 -172 67.5t-92 186.5h-60q-18 0 -18 18v39q0 18 18 18h52q-1 11 -1 33t1 33h-52q-18 0 -18 18v39q0 18 18 18h60q23 119 92 186.5t172 67.5q88 0 149.5 -50t79.5 -143q3 -19 -16 -19h-91q-16 0 -20 16
q-9 38 -36.5 59.5t-65.5 21.5q-48 0 -82.5 -35t-49.5 -104h180q18 0 18 -18v-39q0 -18 -18 -18h-189q-1 -11 -1 -33t1 -33h189q18 0 18 -18v-39q0 -18 -18 -18h-180q15 -69 49.5 -104t82.5 -35q38 0 65.5 21.5t36.5 59.5q4 16 20 16h91z" />
    <glyph glyph-name="florin.tf" horiz-adv-x="650" 
d="M529 707q15 -3 15 -20v-75q0 -18 -17 -16q-7 1 -20 1q-38 0 -54.5 -14t-24.5 -54l-16 -87h106q18 0 18 -18v-48q0 -17 -18 -17h-122l-62 -331q-16 -84 -55.5 -120t-109.5 -36q-27 0 -57 5q-15 3 -15 19v75q0 9 4.5 13.5t12.5 3.5q6 -1 20 -1q38 0 54.5 14t23.5 54l58 304
h-92q-18 0 -18 17v48q0 18 18 18h107l22 114q16 84 55.5 120t109.5 36q29 0 57 -5z" />
    <glyph glyph-name="sterling.tf" horiz-adv-x="650" 
d="M560 117q18 0 18 -18v-81q0 -18 -18 -18h-457q-18 0 -18 18v81q0 18 18 18h48v166h-48q-18 0 -18 18v64q0 18 18 18h48v113q0 102 55 159t158 57q202 0 214 -198q2 -18 -17 -18h-90q-17 0 -19 18q-7 81 -84 81q-89 0 -89 -110v-102h205q18 0 18 -18v-64q0 -18 -18 -18
h-205v-166h281z" />
    <glyph glyph-name="yen.tf" horiz-adv-x="650" 
d="M594 700q10 0 13.5 -6.5t-1.5 -14.5l-182 -321h120q18 0 18 -17v-44q0 -17 -18 -17h-156v-78h156q18 0 18 -17v-43q0 -18 -18 -18h-156v-106q0 -18 -18 -18h-91q-18 0 -18 18v106h-155q-18 0 -18 18v43q0 17 18 17h155v78h-155q-18 0 -18 17v44q0 17 18 17h119l-182 321
q-5 8 -1.5 14.5t13.5 6.5h104q14 0 20 -13l145 -271h1l145 271q7 13 21 13h103z" />
    <glyph glyph-name="plus.tf" 
d="M507 373q18 0 18 -18v-76q0 -18 -18 -18h-148v-160q0 -18 -17 -18h-84q-17 0 -17 18v160h-148q-18 0 -18 18v76q0 18 18 18h148v160q0 18 17 18h84q17 0 17 -18v-160h148z" />
    <glyph glyph-name="minus.tf" 
d="M93 261q-18 0 -18 18v76q0 18 18 18h414q18 0 18 -18v-76q0 -18 -18 -18h-414z" />
    <glyph glyph-name="multiply.tf" 
d="M146 112l-51 51q-13 13 0 25l130 129l-130 129q-13 12 0 25l51 51q12 12 25 0l129 -130l129 130q13 12 25 0l51 -51q13 -13 0 -25l-130 -129l130 -129q13 -12 0 -25l-51 -51q-12 -12 -25 0l-129 130l-129 -130q-13 -12 -25 0z" />
    <glyph glyph-name="divide.tf" 
d="M300 433q-34 0 -55 20t-21 52t21 52t55 20t55 -20t21 -52t-21 -52t-55 -20zM93 263q-18 0 -18 18v72q0 18 18 18h414q18 0 18 -18v-72q0 -18 -18 -18h-414zM300 57q-34 0 -55 20t-21 52t21 52t55 20t55 -20t21 -52t-21 -52t-55 -20z" />
    <glyph glyph-name="equal.tf" 
d="M93 366q-18 0 -18 18v71q0 18 18 18h414q18 0 18 -18v-71q0 -18 -18 -18h-414zM93 157q-18 0 -18 18v72q0 18 18 18h414q18 0 18 -18v-72q0 -18 -18 -18h-414z" />
    <glyph glyph-name="notequal.tf" 
d="M507 366h-139l-44 -101h183q18 0 18 -18v-72q0 -18 -18 -18h-231l-45 -102q-6 -13 -21 -13h-54q-10 0 -13.5 5.5t0.5 14.5l42 95h-92q-18 0 -18 18v72q0 18 18 18h139l45 101h-184q-18 0 -18 18v71q0 18 18 18h231l45 102q6 14 21 14h54q10 0 13.5 -5.5t-0.5 -15.5
l-42 -95h92q18 0 18 -18v-71q0 -18 -18 -18z" />
    <glyph glyph-name="greater.tf" 
d="M96 96q-21 -6 -21 14v83q0 15 15 21l279 102v2l-279 102q-15 6 -15 21v83q0 20 21 14l414 -159q15 -4 15 -20v-84q0 -15 -15 -20z" />
    <glyph glyph-name="less.tf" 
d="M504 96l-414 159q-15 5 -15 20v84q0 16 15 20l414 159q21 6 21 -14v-83q0 -15 -15 -21l-279 -102v-2l279 -102q15 -6 15 -21v-83q0 -20 -21 -14z" />
    <glyph glyph-name="greaterequal.tf" 
d="M96 167q-21 -6 -21 14v78q0 14 15 20l281 96v4l-281 96q-15 6 -15 20v78q0 21 21 15l414 -150q15 -4 15 -20v-82q0 -15 -15 -20zM93 0q-18 0 -18 18v76q0 18 18 18h414q18 0 18 -18v-76q0 -18 -18 -18h-414z" />
    <glyph glyph-name="lessequal.tf" 
d="M504 167l-414 149q-15 5 -15 20v82q0 16 15 20l414 150q21 6 21 -15v-78q0 -14 -15 -20l-281 -96v-4l281 -96q15 -6 15 -20v-78q0 -20 -21 -14zM93 0q-18 0 -18 18v76q0 18 18 18h414q18 0 18 -18v-76q0 -18 -18 -18h-414z" />
    <glyph glyph-name="plusminus.tf" 
d="M507 448q18 0 18 -17v-77q0 -17 -18 -17h-148v-141q0 -18 -17 -18h-84q-17 0 -17 18v141h-148q-18 0 -18 17v77q0 17 18 17h148v141q0 18 17 18h84q17 0 17 -18v-141h148zM507 112q18 0 18 -18v-76q0 -18 -18 -18h-414q-18 0 -18 18v76q0 18 18 18h414z" />
    <glyph glyph-name="approxequal.tf" 
d="M405 342q-37 0 -105 23t-105 23q-49 0 -98 -30q-10 -5 -16 -2t-6 14v73q0 13 12 21q50 34 110 34q35 0 104.5 -23t102.5 -23q51 0 100 28q21 13 21 -10v-73q0 -13 -12 -21q-53 -34 -108 -34zM405 132q-37 0 -105 23t-105 23q-49 0 -98 -29q-10 -6 -16 -3t-6 14v74
q0 14 12 21q50 34 110 34q35 0 104.5 -23t102.5 -23q51 0 100 28q21 13 21 -10v-73q0 -13 -12 -22q-53 -34 -108 -34z" />
    <glyph glyph-name="asciitilde.tf" 
d="M405 239q-37 0 -105 23t-105 23q-49 0 -98 -29q-10 -6 -16 -3t-6 14v73q0 14 12 21q50 34 110 34q35 0 104.5 -22.5t102.5 -22.5q54 0 100 28q21 11 21 -11v-72q0 -13 -12 -22q-53 -34 -108 -34z" />
    <glyph glyph-name="logicalnot.tf" 
d="M507 374q18 0 18 -17v-179q0 -18 -18 -18h-82q-18 0 -18 18v85h-314q-18 0 -18 17v77q0 17 18 17h414z" />
    <glyph glyph-name="at.case" horiz-adv-x="825" 
d="M557 500q18 0 18 -18v-165q0 -59 41 -59q29 0 47 31t18 86q0 114 -71.5 178.5t-183.5 64.5q-122 0 -199.5 -76t-77.5 -197q0 -120 77.5 -192t209.5 -72q80 0 165 32q20 8 20 -14v-56q0 -14 -10 -20q-80 -35 -180 -35q-170 0 -275.5 98.5t-105.5 256.5q0 162 107.5 265.5
t266.5 103.5q150 0 252.5 -92t102.5 -233q0 -93 -46 -152.5t-118 -59.5q-40 0 -70 18.5t-42 49.5q-26 -65 -110 -65q-66 0 -109 46.5t-43 119.5q0 75 43 121.5t109 46.5q70 0 92 -49h4v19q0 18 18 18h50zM413 268q31 0 50.5 20.5t19.5 55.5t-19.5 56t-50.5 21t-50.5 -20.5
t-19.5 -56.5q0 -35 19.5 -55.5t50.5 -20.5z" />
    </font>
</defs>
</svg>
