<?xml version="1.0" standalone="no"?>
<!DOCTYPE svg PUBLIC "-//W3C//DTD SVG 1.1//EN" "http://www.w3.org/Graphics/SVG/1.1/DTD/svg11.dtd" >
<svg xmlns="http://www.w3.org/2000/svg" xmlns:xlink="http://www.w3.org/1999/xlink" version="1.1">
<metadata>
Created by FontForge 20170731 at Tue Jun 16 09:16:15 2020
 By Aleksey,,,
Copyright (c) 2018 by Christoph York. All rights reserved. Modification of this file requires prior written permission from Brink Type.
</metadata>
<defs>
<font id="BROmny-MediumItalic" horiz-adv-x="600" >
  <font-face 
    font-family="BROmny-MediumItalic"
    font-weight="400"
    font-style="italic"
    font-stretch="normal"
    units-per-em="1000"
    panose-1="0 0 6 0 0 0 0 0 0 0"
    ascent="800"
    descent="-200"
    x-height="469"
    cap-height="700"
    bbox="-458 -255 1239 999"
    underline-thickness="50"
    underline-position="-200"
    slope="-8"
    unicode-range="U+000D-2B51"
  />
<missing-glyph horiz-adv-x="754" 
d="M58 16l94 670q1 14 16 14h546q14 0 14 -14v-2l-94 -670q-1 -14 -16 -14h-546q-14 0 -14 14v2zM286 449h41q13 0 16 13q19 62 85 62q53 0 53 -42q0 -34 -40 -64l-35 -26q-36 -27 -48.5 -45.5t-17.5 -52.5l-2 -17v-2q0 -14 14 -14h40q15 0 16 14l2 17q3 20 9.5 30.5
t26.5 25.5l33 25q74 55 74 118q0 46 -33.5 72.5t-90.5 26.5q-62 0 -103 -33t-54 -92v-4q0 -12 14 -12zM317 117q12 -12 31 -12q26 0 42.5 17.5t16.5 40.5q0 19 -12.5 30.5t-32.5 11.5q-25 0 -41 -18t-16 -40q0 -19 12 -30z" />
    <glyph glyph-name=".notdef" horiz-adv-x="754" 
d="M58 16l94 670q1 14 16 14h546q14 0 14 -14v-2l-94 -670q-1 -14 -16 -14h-546q-14 0 -14 14v2zM286 449h41q13 0 16 13q19 62 85 62q53 0 53 -42q0 -34 -40 -64l-35 -26q-36 -27 -48.5 -45.5t-17.5 -52.5l-2 -17v-2q0 -14 14 -14h40q15 0 16 14l2 17q3 20 9.5 30.5
t26.5 25.5l33 25q74 55 74 118q0 46 -33.5 72.5t-90.5 26.5q-62 0 -103 -33t-54 -92v-4q0 -12 14 -12zM317 117q12 -12 31 -12q26 0 42.5 17.5t16.5 40.5q0 19 -12.5 30.5t-32.5 11.5q-25 0 -41 -18t-16 -40q0 -19 12 -30z" />
    <glyph glyph-name=".null" horiz-adv-x="0" 
 />
    <glyph glyph-name="uni000D" horiz-adv-x="333" 
 />
    <glyph glyph-name="uni000D.1" unicode="&#xd;" horiz-adv-x="246" 
 />
    <glyph glyph-name="space" unicode=" " horiz-adv-x="246" 
 />
    <glyph glyph-name="exclam" unicode="!" horiz-adv-x="290" 
d="M101 243l50 439q1 18 20 18h74q17 0 17 -16v-5l-73 -439q-1 -17 -20 -17h-50q-18 0 -18 15v5zM71 108q21 23 56 23q28 0 46 -17t18 -43q0 -34 -21.5 -57t-55.5 -23q-29 0 -46.5 16.5t-17.5 42.5q0 35 21 58z" />
    <glyph glyph-name="quotedbl" unicode="&#x22;" horiz-adv-x="437" 
d="M111 452l19 241q2 18 20 18h74q18 0 18 -14q0 -3 -1 -7l-48 -240q-3 -17 -20 -17h-44q-18 0 -18 17v2zM305 452l19 241q2 18 20 18h74q17 0 17 -16v-5l-48 -240q-3 -17 -20 -17h-44q-18 0 -18 17v2z" />
    <glyph glyph-name="numbersign" unicode="#" horiz-adv-x="778" 
d="M84 211l5 43q3 17 21 17h108l22 158h-105q-18 0 -18 17v3l6 42q3 18 20 18h108l20 140q3 17 21 17h49q18 0 18 -15v-5l-19 -137h174l20 140q3 17 21 17h49q18 0 18 -15v-5l-19 -137h106q17 0 17 -15v-5l-6 -42q-1 -18 -20 -18h-108l-22 -158h105q18 0 18 -15v-5l-6 -43
q-1 -17 -20 -17h-108l-20 -140q-3 -17 -21 -17h-49q-18 0 -18 15v5l19 137h-174l-20 -140q-3 -17 -21 -17h-50q-18 0 -18 17v3l19 137h-104q-18 0 -18 15v5zM481 271l22 158h-174l-22 -158h174z" />
    <glyph glyph-name="dollar" unicode="$" horiz-adv-x="564" 
d="M70 224h63q16 0 19 -18q8 -62 82 -72l26 184l-14 3q-78 15 -117 54t-39 96q0 82 58 130.5t153 55.5l7 47q3 17 21 17h41q18 0 18 -15v-5l-7 -46q75 -11 115 -52.5t40 -110.5q0 -19 -20 -19h-62q-18 0 -18 19q-3 64 -73 75l-25 -175l31 -6q70 -13 106 -50t36 -92
q0 -89 -59 -141t-157 -59l-6 -47q-1 -18 -20 -18h-42q-18 0 -18 17v3l7 47q-77 10 -120.5 52t-45.5 107q0 19 20 19zM381 166q30 25 30 64q0 58 -85 76l-25 -172q50 7 80 32zM191 474q0 -26 19 -42t62 -26l23 161q-104 -12 -104 -93z" />
    <glyph glyph-name="percent" unicode="%" horiz-adv-x="869" 
d="M458 147q0 81 58.5 141t142.5 60q71 0 117 -44.5t46 -113.5q0 -81 -59 -141t-143 -60q-71 0 -116.5 44t-45.5 114zM138 651q59 60 142 60q71 0 117 -44.5t46 -114.5q0 -81 -59 -140.5t-143 -59.5q-71 0 -116.5 44t-45.5 114q0 81 59 141zM139 23l533 666q9 11 23 11h56
q12 0 14 -4t2 -7q0 -5 -5 -12l-533 -666q-9 -11 -23 -11h-56q-12 0 -14.5 4t-2.5 7q0 5 6 12zM164 513q0 -38 22 -61t60 -23q50 0 81.5 36t31.5 83q0 40 -22.5 62.5t-61.5 22.5q-50 0 -80.5 -35t-30.5 -85zM565 90q22 -23 60 -23q50 0 81.5 36t31.5 83q0 39 -22.5 62
t-61.5 23q-50 0 -80.5 -35t-30.5 -85q0 -39 22 -61z" />
    <glyph glyph-name="ampersand" unicode="&#x26;" horiz-adv-x="681" 
d="M94 279q46 52 129 97l9 5q-63 88 -63 155q0 78 58 126.5t145 48.5q75 0 123.5 -41.5t48.5 -103.5q0 -112 -149 -193l-31 -17l110 -149q31 49 47 117q5 17 21 17h55q16 0 16 -17q0 -6 -2 -15q-26 -103 -81 -179l79 -107q5 -7 5 -12q0 -2 -2.5 -6.5t-13.5 -4.5h-67
q-15 0 -23 11l-39 55q-93 -77 -214 -77q-93 0 -150 47t-57 120q0 70 46 123zM152 164q0 -41 28 -63t79 -22q88 0 154 56l-132 181l-11 -6q-60 -34 -89 -67t-29 -79zM301 442l15 -21l43 23q87 46 87 111q0 32 -22 50.5t-58 18.5q-42 0 -71.5 -25.5t-29.5 -64.5q0 -42 36 -92z
" />
    <glyph glyph-name="quotesingle" unicode="'" horiz-adv-x="243" 
d="M111 452l19 241q2 18 20 18h74q18 0 18 -14q0 -3 -1 -7l-48 -240q-3 -17 -20 -17h-44q-18 0 -18 17v2z" />
    <glyph glyph-name="parenleft" unicode="(" horiz-adv-x="337" 
d="M130 513q57 143 155 248q7 7 15 7q6 0 13 -5l40 -30q8 -6 8 -13t-6 -13q-86 -97 -135 -224t-49 -258q0 -167 69 -279q3 -6 3 -12q0 -9 -8 -15l-46 -29q-6 -5 -12 -5q-8 0 -15 9q-89 139 -89 332q0 143 57 287z" />
    <glyph glyph-name="parenright" unicode=")" horiz-adv-x="336" 
d="M7 -53q86 97 135 224t49 258q0 166 -68 279q-4 7 -4 12q0 9 9 15l45 29q6 5 12 5q8 0 15 -9q89 -139 89 -332q0 -143 -57 -286.5t-155 -248.5q-7 -7 -15 -7q-6 0 -13 5l-40 30q-8 6 -8 13t6 13z" />
    <glyph glyph-name="asterisk" unicode="*" horiz-adv-x="529" 
d="M118 557l19 42q4 13 15 13q4 0 9 -2l113 -43l13 126q1 18 19 18h46q17 0 17 -16v-5l-22 -123l124 42q6 2 10 2q11 0 13 -15l7 -40v-5q0 -13 -14 -18l-125 -35l62 -98q4 -6 4 -12q0 -8 -10 -14l-39 -27q-7 -5 -12 -5q-8 0 -14 12l-54 102l-87 -106q-7 -9 -14 -9
q-6 0 -13 6l-32 25q-8 6 -8 13q0 6 7 13l91 101l-114 33q-13 4 -13 15q0 4 2 10z" />
    <glyph glyph-name="plus" unicode="+" 
d="M86 292l8 52q3 18 20 18h156l23 168q3 18 21 18h57q18 0 18 -15v-5l-23 -166h154q17 0 17 -15v-5l-8 -52q-1 -18 -20 -18h-156l-23 -168q-3 -18 -21 -18h-57q-18 0 -18 17v3l23 166h-154q-17 0 -17 15v5z" />
    <glyph glyph-name="comma" unicode="," horiz-adv-x="254" 
d="M-8 -129l81 248q5 16 21 16h63q17 0 17 -12q0 -4 -2 -10l-100 -249q-7 -15 -22 -15h-42q-17 0 -17 14q0 3 1 8z" />
    <glyph glyph-name="hyphen" unicode="-" horiz-adv-x="393" 
d="M52 247l7 54q3 17 21 17h253q18 0 18 -15v-5l-7 -54q-3 -17 -21 -17h-253q-18 0 -18 15v5z" />
    <glyph glyph-name="period" unicode="." horiz-adv-x="253" 
d="M52 108q21 23 56 23q29 0 47 -17t18 -43q0 -34 -21.5 -57t-56.5 -23q-28 0 -46 16.5t-18 42.5q0 35 21 58z" />
    <glyph glyph-name="slash" unicode="/" horiz-adv-x="471" 
d="M-21 -54l440 752q8 13 23 13h60q11 0 14 -4.5t3 -7.5q0 -5 -4 -11l-440 -752q-7 -13 -23 -13h-59q-12 0 -14.5 4.5t-2.5 7.5q0 5 3 11z" />
    <glyph glyph-name="zero" unicode="0" horiz-adv-x="674" 
d="M105 484q37 99 115 163t181 64q110 0 174.5 -74.5t64.5 -206.5q0 -116 -37.5 -215t-115.5 -162.5t-181 -63.5q-111 0 -175 74t-64 205q0 117 38 216zM173 266q0 -181 140 -181q73 0 124.5 52.5t73.5 129t22 165.5q0 183 -140 183q-74 0 -125.5 -53.5t-73 -129.5
t-21.5 -166z" />
    <glyph glyph-name="one" unicode="1" horiz-adv-x="393" 
d="M83 528l9 62q2 14 14 20l157 84q10 6 24 6h54q18 0 18 -17v-3l-94 -663q-1 -17 -20 -17h-65q-18 0 -18 15v5l80 566l-138 -73q-6 -3 -10 -3q-3 0 -7 2.5t-4 12.5v3z" />
    <glyph glyph-name="two" unicode="2" horiz-adv-x="577" 
d="M20 20l5 31q12 88 61.5 151.5t154.5 117.5l78 40q73 39 108.5 76t35.5 89q0 42 -27 66t-79 24q-61 0 -103.5 -33t-56.5 -92q-5 -17 -21 -17h-69q-17 0 -17 16v5q20 101 92 159t177 58q94 0 152 -49.5t58 -129.5q0 -83 -50.5 -141t-144.5 -106l-79 -40
q-78 -40 -111.5 -72.5t-43.5 -76.5h349q18 0 18 -15v-5l-8 -58q-3 -18 -21 -18h-440q-18 0 -18 15v5z" />
    <glyph glyph-name="three" unicode="3" horiz-adv-x="594" 
d="M45 200q0 18 19 18h68q18 0 19 -20q0 -54 32 -83.5t93 -29.5q71 0 116 34.5t45 91.5q0 44 -35.5 71t-101.5 27h-26q-18 0 -18 17v3l8 57q3 17 21 17h25q68 0 113 33.5t45 89.5q0 40 -31 64.5t-84 24.5q-122 0 -152 -117q-5 -17 -21 -17h-68q-9 0 -13.5 5t-4.5 11q0 2 1 5
q20 99 89.5 154t176.5 55q97 0 155.5 -48.5t58.5 -122.5q0 -68 -39.5 -118t-106.5 -68v-2q55 -12 85 -51.5t30 -94.5q0 -98 -76 -157.5t-194 -59.5q-109 0 -169 55t-60 144v12z" />
    <glyph glyph-name="four" unicode="4" horiz-adv-x="614" 
d="M20 171l7 52q1 9 10 22l393 445q10 10 23 10h80q18 0 18 -15v-5l-61 -437h76q18 0 18 -17v-3l-8 -54q-3 -18 -20 -18h-79l-19 -134q-3 -17 -21 -17h-60q-18 0 -18 15v5l18 131h-340q-17 0 -17 15v5zM390 243l46 329h-2l-290 -329h246z" />
    <glyph glyph-name="five" unicode="5" horiz-adv-x="601" 
d="M47 185q0 19 19 19h68q16 0 19 -19q3 -45 37 -73t88 -28q79 0 129 50.5t50 128.5q0 54 -30.5 84t-86.5 30q-91 0 -149 -60q-10 -10 -24 -10h-73q-18 0 -18 14q0 3 1 7l97 356q3 16 21 16h370q18 0 18 -15v-5l-8 -58q-3 -17 -21 -17h-304l-50 -186q67 47 155 47
q92 0 150 -53.5t58 -142.5q0 -122 -81 -201.5t-208 -79.5q-101 0 -164 54t-63 139v3z" />
    <glyph glyph-name="six" unicode="6" horiz-adv-x="624" 
d="M102 469q37 111 107 173q78 69 189 69q90 0 146 -43t64 -118v-3q0 -16 -18 -16h-69q-17 0 -20 18q-15 68 -108 68q-165 0 -212 -241h3q73 88 189 88q93 0 152.5 -57.5t59.5 -145.5q0 -118 -82.5 -195t-206.5 -77q-116 0 -177 72q-55 64 -55 182q0 115 38 226zM203 115
q34 -33 96 -33q78 0 128.5 48.5t50.5 125.5q0 55 -33 86t-94 31q-76 0 -128 -47.5t-53 -121.5v-3q0 -55 33 -86z" />
    <glyph glyph-name="seven" unicode="7" horiz-adv-x="538" 
d="M87 623l7 59q3 18 21 18h436q18 0 18 -15v-5l-7 -55q-1 -10 -9 -23l-358 -590q-8 -12 -23 -12h-68q-16 0 -16 10q0 5 4 13l354 580h-341q-18 0 -18 15v5z" />
    <glyph glyph-name="eight" unicode="8" horiz-adv-x="630" 
d="M85 291q43 53 115 74v3q-91 42 -91 129q0 97 76 155.5t191 58.5q105 0 165 -46t60 -118q0 -65 -36 -112.5t-98 -67.5v-2q54 -21 81.5 -60t27.5 -86q0 -103 -84 -166.5t-206 -63.5q-111 0 -177.5 50t-66.5 128q0 71 43 124zM151 184q0 -47 34.5 -74.5t101.5 -27.5
q76 0 129 36.5t53 98.5q0 46 -37 73.5t-105 27.5q-77 0 -126.5 -36t-49.5 -98zM246 428q32 -25 92 -25q69 0 113 34.5t44 92.5q0 41 -30.5 65.5t-89.5 24.5q-70 0 -116 -34t-46 -91q0 -42 33 -67z" />
    <glyph glyph-name="nine" unicode="9" horiz-adv-x="625" 
d="M66 169h69q17 0 20 -18q14 -68 108 -68q166 0 215 244h-3q-32 -41 -83 -64t-108 -23q-92 0 -149.5 57t-57.5 145q0 116 81.5 192.5t203.5 76.5q118 0 180 -78q52 -63 52 -175q0 -108 -34 -217.5t-97 -171.5q-78 -80 -203 -80q-91 0 -148 43.5t-64 117.5v3q0 16 18 16z
M216 362q33 -32 93 -32q76 0 127 48t51 121q0 54 -34.5 86.5t-93.5 32.5q-75 0 -125.5 -49t-50.5 -122q0 -54 33 -85z" />
    <glyph glyph-name="colon" unicode=":" horiz-adv-x="274" 
d="M109 441q21 23 56 23q29 0 47 -17t18 -44q0 -33 -22 -56t-56 -23q-28 0 -46 16.5t-18 42.5q0 35 21 58zM63 108q21 23 56 23q28 0 46 -17t18 -43q0 -34 -21.5 -57t-55.5 -23q-29 0 -46.5 16.5t-17.5 42.5q0 35 21 58z" />
    <glyph glyph-name="semicolon" unicode=";" horiz-adv-x="279" 
d="M-4 -129l81 248q5 16 21 16h63q17 0 17 -12q0 -4 -2 -10l-100 -249q-7 -15 -22 -15h-42q-17 0 -17 14q0 3 1 8zM93 383q0 35 21.5 58t56.5 23q28 0 46 -17t18 -44q0 -33 -22 -56t-56 -23q-28 0 -46 16.5t-18 42.5z" />
    <glyph glyph-name="less" unicode="&#x3c;" 
d="M86 287l9 62q1 15 16 21l430 158q4 2 8 2t8 -3.5t4 -11.5v-3l-9 -61q-1 -15 -16 -20l-326 -116v-3l290 -114q13 -5 13 -19v-4l-7 -57q-2 -16 -12 -16q-5 0 -11 3l-385 158q-12 5 -12 18v6z" />
    <glyph glyph-name="equal" unicode="=" 
d="M100 394l8 50q3 18 20 18h405q18 0 18 -15v-5l-7 -50q-3 -18 -20 -18h-406q-18 0 -18 17v3zM72 190l7 50q3 18 20 18h406q18 0 18 -17v-3l-8 -50q-3 -18 -20 -18h-405q-18 0 -18 15v5z" />
    <glyph glyph-name="greater" unicode="&#x3e;" 
d="M63 122l8 63q1 14 17 20l325 116l1 2l-290 114q-15 6 -15 21v3l9 55q1 16 12 16q4 0 10 -3l385 -158q13 -5 13 -19v-5l-9 -62q-3 -15 -17 -21l-429 -158q-5 -2 -9 -2t-7.5 3t-3.5 10v5z" />
    <glyph glyph-name="question" unicode="?" horiz-adv-x="492" 
d="M76 527q16 86 78 135t159 49q84 0 132.5 -40t48.5 -107q0 -53 -27.5 -92t-83.5 -82l-52 -39q-29 -22 -38 -38t-15 -49l-4 -27q-1 -17 -20 -17h-61q-18 0 -18 15v5l4 27q8 51 26.5 81t70.5 69l53 40q63 46 63 101q0 60 -85 60q-104 0 -132 -95q-5 -17 -21 -17h-61
q-9 0 -13.5 5t-4.5 11q0 2 1 5zM129 50q0 35 21 58t56 23q29 0 47 -17t18 -43q0 -34 -21.5 -57t-56.5 -23q-28 0 -46 16.5t-18 42.5z" />
    <glyph glyph-name="at" unicode="@" horiz-adv-x="963" 
d="M49 158q0 134 66 249t180.5 182t249.5 67q160 0 268 -93.5t108 -241.5q0 -76 -26 -144.5t-76.5 -113t-114.5 -44.5q-46 0 -78.5 23.5t-40.5 64.5q-20 -42 -59.5 -63.5t-87.5 -21.5q-71 0 -116 46t-45 120q0 98 59.5 166.5t148.5 68.5q44 0 75.5 -18t41.5 -52h3l7 41
q1 17 20 17h42q18 0 18 -15v-5l-30 -215q-2 -14 -2 -25q0 -57 49 -57q57 0 89.5 67t32.5 149q0 122 -78 191.5t-205 69.5q-172 0 -289 -118t-117 -290q0 -128 82 -202.5t227 -74.5q102 0 217 43q4 2 8 2q5 0 9 -3.5t4 -10.5v-5l-7 -44q-1 -14 -13 -20q-102 -46 -224 -46
q-177 0 -286.5 98t-109.5 258zM394 128q23 -25 63 -25q56 0 92 41.5t36 101.5q0 45 -24.5 70.5t-65.5 25.5q-56 0 -90 -42t-34 -104q0 -44 23 -68z" />
    <glyph glyph-name="A" unicode="A" horiz-adv-x="713" 
d="M-6 23l368 664q7 13 23 13h72q18 0 22 -16l180 -663q1 -4 1 -7q0 -4 -3.5 -9t-13.5 -5h-68q-17 0 -22 16l-35 135h-339l-75 -138q-7 -13 -23 -13h-74q-11 0 -14 4.5t-3 7.5q0 5 4 11zM494 246l-85 328h-2l-177 -328h264z" />
    <glyph glyph-name="B" unicode="B" horiz-adv-x="683" 
d="M58 20l93 663q3 17 21 17h236q105 0 160.5 -41t55.5 -116q0 -63 -31 -112t-85 -68l-1 -3q124 -20 124 -136q0 -109 -74 -166.5t-203 -57.5h-278q-18 0 -18 15v5zM355 91q167 0 167 137q0 44 -32 64t-104 20h-182l-31 -221h182zM360 402q154 0 154 127q0 42 -29 61t-96 19
h-143l-29 -207h143z" />
    <glyph glyph-name="C" unicode="C" horiz-adv-x="807" 
d="M123 503q53 94 147.5 151t205.5 57q123 0 207.5 -68t94.5 -185v-5q0 -15 -18 -15h-73q-17 0 -20 18q-8 73 -58.5 114t-132.5 41q-127 0 -212 -89.5t-85 -217.5q0 -100 56 -157.5t155 -57.5q84 0 150 42t97 116q7 15 22 15h72q10 0 13 -5t3 -10q0 -4 -1 -8
q-41 -116 -139 -183t-220 -67q-142 0 -230 87.5t-88 224.5q0 108 54 202z" />
    <glyph glyph-name="D" unicode="D" horiz-adv-x="729" 
d="M58 20l93 663q3 17 21 17h200q144 0 232 -84t88 -223q0 -167 -116.5 -280t-294.5 -113h-205q-18 0 -18 15v5zM288 99q130 0 212 86t82 213q0 100 -56.5 151.5t-166.5 51.5h-113l-71 -502h113z" />
    <glyph glyph-name="E" unicode="E" horiz-adv-x="629" 
d="M58 20l93 663q3 17 21 17h442q18 0 18 -15v-5l-8 -60q-3 -18 -21 -18h-357l-29 -204h280q18 0 18 -15v-5l-8 -58q-3 -18 -21 -18h-282l-29 -204h358q18 0 18 -15v-5l-8 -60q-3 -18 -21 -18h-446q-18 0 -18 15v5z" />
    <glyph glyph-name="F" unicode="F" horiz-adv-x="609" 
d="M58 20l93 663q3 17 21 17h438q18 0 18 -15v-5l-8 -60q-3 -18 -21 -18h-353l-30 -216h302q18 0 18 -15v-5l-8 -60q-3 -18 -21 -18h-305l-38 -271q-3 -17 -21 -17h-67q-18 0 -18 15v5z" />
    <glyph glyph-name="G" unicode="G" horiz-adv-x="817" 
d="M69 301q0 109 53 203t147.5 150.5t206.5 56.5q118 0 201.5 -61t99.5 -159v-5q0 -15 -18 -15h-75q-16 0 -21 17q-13 57 -63 90t-124 33q-128 0 -212.5 -89.5t-84.5 -218.5q0 -100 57 -157t157 -57q101 0 176 57t96 153h-206q-18 0 -18 17v3l8 50q1 18 20 18h293
q18 0 18 -17v-3l-5 -32q-22 -156 -129 -251t-256 -95q-144 0 -232.5 87t-88.5 225z" />
    <glyph glyph-name="H" unicode="H" horiz-adv-x="744" 
d="M58 20l93 663q3 17 21 17h67q18 0 18 -15v-5l-41 -291h356l41 294q3 17 21 17h67q18 0 18 -17v-3l-94 -663q-1 -17 -20 -17h-67q-18 0 -18 15v5l38 270h-356l-38 -273q-3 -17 -21 -17h-67q-18 0 -18 15v5z" />
    <glyph glyph-name="I" unicode="I" horiz-adv-x="283" 
d="M58 20l93 663q3 17 21 17h67q18 0 18 -15v-5l-93 -663q-3 -17 -21 -17h-67q-18 0 -18 15v5z" />
    <glyph glyph-name="J" unicode="J" horiz-adv-x="635" 
d="M54 234l10 71q3 18 21 18h68q18 0 18 -15v-5l-8 -56q-4 -24 -4 -44q0 -48 25 -81t95 -33q150 0 171 158l50 355h-273q-18 0 -18 15v5l8 60q3 18 21 18h361q18 0 18 -17v-3l-62 -441q-17 -120 -90 -185t-193 -65q-117 0 -169 57t-52 140q0 23 3 48z" />
    <glyph glyph-name="K" unicode="K" horiz-adv-x="686" 
d="M59 20l92 662q3 18 21 18h67q18 0 18 -15v-5l-46 -326h69q18 0 27 -1l261 336q8 11 23 11h84q12 0 14 -4t2 -6q0 -6 -6 -13l-267 -345q186 -66 190 -313q0 -19 -19 -19h-76q-18 0 -20 19q-6 126 -63 180t-173 54h-60l-33 -235q-2 -18 -20 -18h-67q-18 0 -18 15v5z" />
    <glyph glyph-name="L" unicode="L" horiz-adv-x="576" 
d="M58 20l93 663q3 17 21 17h67q18 0 18 -15v-5l-82 -581h328q18 0 18 -15v-5l-8 -61q-3 -18 -21 -18h-416q-18 0 -18 15v5z" />
    <glyph glyph-name="M" unicode="M" horiz-adv-x="914" 
d="M58 20l93 663q3 17 21 17h75q15 0 21 -14l192 -401h2l305 403q7 12 22 12h81q18 0 18 -15v-5l-93 -663q-3 -17 -21 -17h-66q-18 0 -18 15v5l70 500h-1l-262 -341q-7 -12 -22 -12h-53q-16 0 -22 15l-164 338h-2l-71 -503q-1 -17 -20 -17h-67q-18 0 -18 15v5z" />
    <glyph glyph-name="N" unicode="N" horiz-adv-x="771" 
d="M58 20l93 663q3 17 21 17h65q15 0 23 -12l306 -513h2l71 507q3 18 21 18h67q18 0 18 -15v-5l-93 -663q-3 -17 -21 -17h-66q-16 0 -22 12l-306 512h-2l-71 -507q-3 -17 -21 -17h-67q-18 0 -18 15v5z" />
    <glyph glyph-name="O" unicode="O" horiz-adv-x="832" 
d="M188 588q119 123 286 123q139 0 230 -89.5t91 -224.5q0 -105 -53.5 -199t-148 -151.5t-204.5 -57.5q-139 0 -229.5 89t-90.5 225q0 162 119 285zM236 149q56 -60 154 -60q124 0 209.5 89.5t85.5 214.5q0 98 -56.5 158t-155.5 60q-125 0 -209.5 -90.5t-84.5 -215.5
q0 -97 57 -156z" />
    <glyph glyph-name="P" unicode="P" horiz-adv-x="665" 
d="M58 20l93 663q3 17 21 17h261q108 0 166.5 -51.5t58.5 -143.5q0 -128 -76.5 -199.5t-210.5 -71.5h-177l-30 -217q-3 -17 -21 -17h-67q-18 0 -18 15v5zM373 332q85 0 129.5 43.5t44.5 123.5q0 53 -33.5 78t-103.5 25h-164l-38 -270h165z" />
    <glyph glyph-name="Q" unicode="Q" horiz-adv-x="832" 
d="M188 588q119 123 286 123q139 0 230 -89.5t91 -224.5q0 -93 -43.5 -179t-118.5 -144l73 -115q4 -6 4 -12q0 -7 -9 -14l-53 -36q-6 -5 -12 -5q-8 0 -15 10l-76 120q-75 -33 -156 -33q-139 0 -229.5 89t-90.5 225q0 162 119 285zM236 149q56 -60 154 -60q52 0 100 17
l-79 123q-4 6 -4 12q0 8 9 14l54 37q6 4 11 4q9 0 15 -10l82 -128q50 43 78.5 104.5t28.5 130.5q0 98 -56.5 158t-155.5 60q-125 0 -209.5 -90.5t-84.5 -215.5q0 -97 57 -156z" />
    <glyph glyph-name="R" unicode="R" horiz-adv-x="690" 
d="M59 20l92 662q3 18 21 18h258q106 0 166.5 -52t60.5 -141q0 -86 -46 -151t-126 -92q102 -61 108 -244v-3q0 -17 -18 -17h-77q-18 0 -20 19q-6 118 -56.5 171.5t-151.5 53.5h-74l-32 -226q-2 -18 -20 -18h-67q-18 0 -18 15v5zM209 343h163q83 0 128.5 41t45.5 115
q0 103 -138 103h-162z" />
    <glyph glyph-name="S" unicode="S" horiz-adv-x="626" 
d="M62 202h69q18 0 20 -19q9 -98 142 -98q81 0 127.5 34.5t46.5 89.5q0 38 -23 59t-74 31l-102 18q-176 34 -176 167q0 106 75.5 166.5t203.5 60.5q115 0 176 -50.5t61 -148.5v-3q0 -19 -20 -19h-68q-17 0 -19 20q0 55 -33 80t-103 25q-81 0 -123 -31t-42 -88
q0 -39 26 -59.5t90 -31.5l102 -19q79 -15 119 -56.5t40 -102.5q0 -112 -79 -175t-207 -63q-117 0 -181.5 51t-66.5 143v3q0 16 19 16z" />
    <glyph glyph-name="T" unicode="T" horiz-adv-x="595" 
d="M82 621l8 61q3 18 21 18h502q18 0 18 -15v-5l-8 -61q-3 -18 -21 -18h-200l-82 -584q-3 -17 -21 -17h-67q-18 0 -18 17v3l82 581h-196q-18 0 -18 15v5z" />
    <glyph glyph-name="U" unicode="U" horiz-adv-x="726" 
d="M87 282l56 401q3 17 21 17h67q18 0 18 -15v-5l-55 -387q-4 -28 -4 -53q0 -149 148 -149q86 0 141 51t68 151l55 390q3 17 21 17h67q18 0 18 -15v-5l-56 -398q-19 -139 -104 -216t-216 -77t-190 68.5t-59 165.5q0 28 4 59z" />
    <glyph glyph-name="V" unicode="V" horiz-adv-x="685" 
d="M102 700h69q16 0 21 -16l132 -546h3l287 549q6 13 22 13h74q16 0 16 -11q0 -5 -3 -12l-355 -664q-7 -13 -23 -13h-70q-16 0 -21 16l-168 663q-1 4 -1 8q0 13 17 13z" />
    <glyph glyph-name="W" unicode="W" horiz-adv-x="1051" 
d="M108 700h71q17 0 20 -17l92 -524h3l241 527q6 14 21 14h65q17 0 20 -17l93 -524h2l241 527q6 14 22 14h71q10 0 13.5 -5t3.5 -8q0 -5 -3 -10l-310 -663q-7 -14 -22 -14h-67q-17 0 -20 17l-95 516h-2l-241 -519q-6 -14 -22 -14h-71q-17 0 -20 17l-123 662q-1 4 -1 7
q0 14 18 14z" />
    <glyph glyph-name="X" unicode="X" horiz-adv-x="654" 
d="M5 24l277 343l-172 310q-4 6 -4 11q0 3 3 7.5t14 4.5h72q16 0 23 -13l132 -244h2l202 246q8 11 24 11h81q12 0 14 -4.5t2 -6.5q0 -6 -6 -13l-260 -310l180 -343q3 -7 3 -12q0 -11 -16 -11h-75q-15 0 -22 13l-138 266h-2l-216 -268q-8 -11 -23 -11h-83q-12 0 -14.5 4.5
t-2.5 7.5q0 5 5 12z" />
    <glyph glyph-name="Y" unicode="Y" horiz-adv-x="662" 
d="M86 694q4 6 15 6h72q16 0 22 -14l150 -307h1l238 309q9 12 23 12h82q12 0 14 -4t2 -7q0 -5 -5 -12l-308 -396l-38 -264q-3 -17 -21 -17h-68q-18 0 -18 17v3l38 261l-198 396q-3 6 -3 10t2 7z" />
    <glyph glyph-name="Z" unicode="Z" horiz-adv-x="625" 
d="M21 20l6 47q1 11 11 22l445 513h-352q-18 0 -18 15v5l8 60q3 18 21 18h470q18 0 18 -17v-3l-7 -47q-1 -12 -10 -22l-445 -513h365q18 0 18 -15v-5l-8 -60q-3 -18 -21 -18h-483q-18 0 -18 15v5z" />
    <glyph glyph-name="bracketleft" unicode="[" horiz-adv-x="373" 
d="M42 -94l119 844q1 18 20 18h204q17 0 17 -15v-5l-7 -48q-1 -18 -20 -18h-127l-99 -710h123q18 0 18 -15v-5l-6 -49q-3 -17 -21 -17h-203q-18 0 -18 15v5z" />
    <glyph glyph-name="backslash" unicode="\" horiz-adv-x="464" 
d="M86 705q4 6 14 6h54q16 0 21 -16l228 -750q1 -4 1 -7q0 -5 -3.5 -10t-13.5 -5h-54q-16 0 -21 16l-228 750q-1 4 -1 7q0 5 3 9z" />
    <glyph glyph-name="bracketright" unicode="]" horiz-adv-x="374" 
d="M-3 -94l7 48q3 18 20 18h127l100 710h-124q-18 0 -18 15v5l7 49q1 17 20 17h203q18 0 18 -15v-5l-118 -844q-3 -18 -21 -18h-204q-17 0 -17 15v5z" />
    <glyph glyph-name="asciicircum" unicode="^" horiz-adv-x="586" 
d="M67 363l232 325q8 12 23 12h71q17 0 23 -14l140 -324q2 -6 2 -10q0 -12 -17 -12h-60q-17 0 -23 14l-107 248h-2l-178 -250q-8 -12 -23 -12h-69q-11 0 -13.5 4.5t-2.5 7.5q0 5 4 11z" />
    <glyph glyph-name="underscore" unicode="_" horiz-adv-x="456" 
d="M-39 -115l6 46q3 17 21 17h397q18 0 18 -15v-5l-6 -45q-3 -18 -21 -18h-397q-18 0 -18 15v5z" />
    <glyph glyph-name="grave" unicode="`" 
d="M204 686q3 7 14 7h74q16 0 23 -14l62 -115q3 -6 3 -10t-3 -8.5t-14 -4.5h-57q-15 0 -24 12l-76 117q-4 5 -4 10q0 3 2 6z" />
    <glyph glyph-name="a" unicode="a" horiz-adv-x="614" 
d="M45 205q0 114 76 194.5t185 80.5q55 0 98 -22t58 -60h5l7 54q3 17 21 17h58q18 0 18 -15v-5l-61 -432q-3 -17 -21 -17h-58q-18 0 -18 15v5l8 51h-4q-26 -38 -72.5 -60t-99.5 -22q-90 0 -145 60.5t-55 155.5zM148 207q0 -58 33 -92.5t91 -34.5q75 0 124.5 51.5t49.5 127.5
q0 58 -34.5 94.5t-93.5 36.5q-73 0 -121.5 -54t-48.5 -129z" />
    <glyph glyph-name="b" unicode="b" horiz-adv-x="614" 
d="M43 20l93 663q3 17 21 17h61q18 0 18 -15v-5l-39 -282h4q26 39 71 60.5t97 21.5q88 0 144.5 -60t56.5 -153q0 -111 -77.5 -194.5t-187.5 -83.5q-54 0 -96 22t-57 60h-3l-8 -53q-3 -18 -20 -18h-60q-18 0 -18 15v5zM202 115q33 -35 92 -35q74 0 123.5 53t49.5 129
q0 57 -32.5 92.5t-91.5 35.5q-73 0 -123.5 -53.5t-50.5 -128.5q0 -58 33 -93z" />
    <glyph glyph-name="c" unicode="c" horiz-adv-x="570" 
d="M125 399q80 81 199 81q88 0 146 -46.5t62 -120.5v-4q0 -15 -18 -15h-66q-17 0 -20 18q-8 37 -37 57.5t-73 20.5q-75 0 -123 -53.5t-48 -129.5q0 -59 32 -93t90 -34q46 0 83 21t55 59q7 15 22 15h63q10 0 14 -4.5t4 -8.5q0 -3 -1 -6q-24 -75 -90 -121t-154 -46
q-100 0 -160.5 60t-60.5 155q0 113 81 195z" />
    <glyph glyph-name="d" unicode="d" horiz-adv-x="615" 
d="M45 204q0 111 76 193.5t186 82.5q53 0 95 -22t58 -60h4l40 285q3 17 21 17h61q18 0 18 -15v-5l-93 -663q-3 -17 -21 -17h-59q-17 0 -17 15v5l7 51h-4q-26 -38 -72 -60t-98 -22q-90 0 -146 61t-56 154zM148 208q0 -58 32.5 -93t91.5 -35q74 0 124 52.5t50 128.5
q0 58 -32.5 93.5t-90.5 35.5q-75 0 -125 -53.5t-50 -128.5z" />
    <glyph glyph-name="e" unicode="e" horiz-adv-x="575" 
d="M44 200q0 116 78 198t197 82q95 0 154.5 -55t59.5 -144q0 -29 -7 -62q-3 -16 -21 -16h-362v-2q0 -129 125 -129q46 0 82.5 16t54.5 43q9 13 23 13h56q11 0 15.5 -3.5t4.5 -7.5q0 -3 -2 -6q-28 -61 -90 -99.5t-145 -38.5q-103 0 -163 57t-60 154zM435 275v3
q0 59 -30.5 89.5t-87.5 30.5q-62 0 -104 -33.5t-59 -89.5h281z" />
    <glyph glyph-name="f" unicode="f" horiz-adv-x="400" 
d="M44 404l7 47q3 18 20 18h87l5 38q28 205 210 205q36 0 66 -8q13 -3 13 -17v-6l-6 -48q-2 -16 -16 -16q-3 0 -7 1q-19 4 -43 4q-55 0 -81 -25.5t-35 -89.5l-5 -38h137q17 0 17 -15v-5l-7 -47q-1 -18 -20 -18h-139l-52 -367q-3 -17 -21 -17h-61q-18 0 -18 15v5l51 364h-84
q-18 0 -18 17v3z" />
    <glyph glyph-name="g" unicode="g" horiz-adv-x="614" 
d="M36 -48h63q16 0 19 -18q12 -76 119 -76q153 0 175 151l10 71h-4q-25 -39 -70 -60.5t-97 -21.5q-89 0 -147.5 59.5t-58.5 149.5q0 110 76.5 191.5t185.5 81.5q53 0 95 -22t59 -60h5l8 54q3 17 21 17h58q18 0 18 -17v-3l-62 -440q-16 -112 -86 -174t-187 -62q-97 0 -156 43
t-63 117v3q0 16 19 16zM181 120q33 -35 91 -35q74 0 123.5 52.5t49.5 127.5q0 56 -33 90.5t-91 34.5q-74 0 -123.5 -52.5t-49.5 -126.5q0 -56 33 -91z" />
    <glyph glyph-name="h" unicode="h" horiz-adv-x="587" 
d="M43 20l93 663q3 17 21 17h61q18 0 18 -15v-5l-39 -283h3q52 83 166 83q86 0 130 -52q35 -42 35 -107q0 -18 -3 -38l-38 -266q-3 -17 -21 -17h-61q-18 0 -18 15v5l34 239q3 18 3 34q0 96 -95 96q-61 0 -103.5 -36t-50.5 -97l-34 -239q-3 -17 -21 -17h-62q-18 0 -18 15v5z
" />
    <glyph glyph-name="i" unicode="i" horiz-adv-x="247" 
d="M43 20l61 432q3 17 21 17h61q18 0 18 -15v-5l-61 -432q-3 -17 -21 -17h-61q-18 0 -18 15v5zM108 610q0 32 22.5 55t55.5 23q28 0 44.5 -16t16.5 -42q0 -34 -23 -56t-55 -22q-27 0 -44 16t-17 42z" />
    <glyph glyph-name="j" unicode="j" horiz-adv-x="247" 
d="M-119 -200l7 53q1 15 14 15q4 0 8 -1q16 -2 26 -2q46 0 69.5 22t30.5 77l67 487q3 18 21 18h61q18 0 18 -15v-5l-68 -489q-13 -97 -60 -142t-129 -45q-32 0 -51 6q-14 3 -14 16v5zM108 610q0 32 22.5 55t55.5 23q28 0 44.5 -16t16.5 -42q0 -34 -23 -56t-55 -22
q-27 0 -44 16t-17 42z" />
    <glyph glyph-name="k" unicode="k" horiz-adv-x="558" 
d="M44 20l92 662q3 18 21 18h61q18 0 18 -15v-5l-55 -399h54q21 0 32 -1l158 179q9 10 23 10h78q12 0 14 -4.5t2 -6.5q0 -5 -6 -12l-170 -192q126 -60 127 -235q0 -19 -19 -19h-66q-18 0 -20 19q-4 93 -46 132t-131 39h-43l-24 -172q-3 -18 -21 -18h-61q-18 0 -18 15v5z" />
    <glyph glyph-name="l" unicode="l" horiz-adv-x="247" 
d="M43 20l93 663q3 17 21 17h61q18 0 18 -15v-5l-93 -663q-3 -17 -21 -17h-61q-18 0 -18 15v5z" />
    <glyph glyph-name="m" unicode="m" horiz-adv-x="880" 
d="M43 20l61 432q3 17 21 17h58q18 0 18 -15v-5l-7 -55h4q22 40 62.5 63t90.5 23q53 0 90.5 -24.5t50.5 -69.5h4q58 94 172 94q77 0 119 -47q37 -41 37 -108q0 -19 -3 -40l-38 -268q-3 -17 -21 -17h-61q-18 0 -18 15v5l34 240q3 20 3 37q0 92 -82 92q-54 0 -93.5 -36
t-47.5 -97l-34 -239q-3 -17 -21 -17h-61q-18 0 -18 15v5l34 240q3 20 3 37q0 92 -82 92q-54 0 -93.5 -36t-47.5 -97l-34 -239q-3 -17 -21 -17h-61q-18 0 -18 15v5z" />
    <glyph glyph-name="n" unicode="n" horiz-adv-x="586" 
d="M43 20l61 432q3 17 21 17h58q18 0 18 -15v-5l-7 -52h4q52 83 167 83q92 0 134 -57q31 -39 31 -101q0 -18 -3 -39l-38 -266q-1 -17 -20 -17h-62q-18 0 -18 17v3l34 239q3 18 3 34q0 96 -94 96q-62 0 -104 -36t-51 -97l-34 -239q-3 -17 -21 -17h-61q-18 0 -18 15v5z" />
    <glyph glyph-name="o" unicode="o" horiz-adv-x="592" 
d="M127 400q82 80 198 80q98 0 160 -61t62 -156q0 -112 -81.5 -193t-197.5 -81q-99 0 -161 61.5t-62 156.5q0 112 82 193zM181 115q33 -35 92 -35q74 0 123 52t49 127q0 59 -33.5 95t-91.5 36q-73 0 -122.5 -52.5t-49.5 -127.5q0 -60 33 -95z" />
    <glyph glyph-name="p" unicode="p" horiz-adv-x="615" 
d="M13 -196l91 648q3 17 21 17h59q18 0 18 -17v-3l-8 -51h4q26 38 72 60t98 22q90 0 146 -61t56 -154q0 -111 -76 -193.5t-186 -82.5q-53 0 -95 22t-58 60h-4l-38 -269q-3 -18 -21 -18h-61q-18 0 -18 15v5zM169 209q0 -58 32.5 -93.5t90.5 -35.5q75 0 125 53t50 128
q0 58 -32.5 93.5t-91.5 35.5q-74 0 -124 -52.5t-50 -128.5z" />
    <glyph glyph-name="q" unicode="q" horiz-adv-x="607" 
d="M122 397q77 83 187 83q54 0 96 -22t57 -60h4l7 54q3 17 21 17h59q18 0 18 -15v-5l-91 -648q-3 -17 -21 -17h-61q-18 0 -18 15v5l38 267h-5q-26 -38 -71 -60t-96 -22q-88 0 -145 60t-57 153q0 111 78 195zM180 115q32 -35 91 -35q73 0 123.5 53t50.5 128q0 58 -33 93.5
t-92 35.5q-73 0 -123 -53.5t-50 -129.5q0 -57 33 -92z" />
    <glyph glyph-name="r" unicode="r" horiz-adv-x="390" 
d="M44 20l60 431q3 18 21 18h58q18 0 18 -15v-5l-9 -70h2q24 48 68 73.5t95 25.5q10 0 26 -2q14 -3 14 -17v-5l-7 -56q-3 -16 -18 -16h-4q-10 1 -27 1q-146 0 -174 -198l-23 -168q-3 -17 -21 -17h-61q-18 0 -18 15v5z" />
    <glyph glyph-name="s" unicode="s" horiz-adv-x="495" 
d="M46 139h59q15 0 20 -18q11 -54 102 -54q57 0 86 20.5t29 54.5q0 22 -18 33.5t-59 17.5l-81 13q-126 18 -126 114q0 73 56.5 116.5t160.5 43.5q90 0 138 -34.5t49 -101.5q0 -19 -20 -19h-59q-17 0 -19 19q-6 58 -94 58q-57 0 -85.5 -20t-28.5 -52q0 -38 78 -50l81 -12
q126 -18 126 -114q0 -76 -55.5 -120.5t-161.5 -44.5q-92 0 -142.5 34t-54.5 97v3q0 16 19 16z" />
    <glyph glyph-name="t" unicode="t" horiz-adv-x="438" 
d="M42 404l7 47q1 18 20 18h87l16 113q3 18 21 18h61q18 0 18 -15v-5l-16 -111h158q17 0 17 -15v-5l-7 -47q-1 -18 -20 -18h-160l-29 -209q-2 -15 -2 -28q0 -31 15 -49t63 -18q39 0 72 12q5 2 9 2q5 0 8.5 -3t4.5 -10q-1 -2 -1 -5l-7 -49q-1 -15 -15 -20q-42 -18 -96 -18
q-155 0 -155 137q0 19 3 41l30 217h-85q-17 0 -17 15v5z" />
    <glyph glyph-name="u" unicode="u" horiz-adv-x="583" 
d="M59 186l38 266q3 17 21 17h61q18 0 18 -15v-5l-34 -239q-3 -19 -3 -36q0 -94 89 -94q61 0 104.5 36t52.5 97l33 239q3 17 21 17h61q18 0 18 -15v-5l-61 -432q-1 -17 -20 -17h-59q-18 0 -18 17v3l8 53h-3q-51 -84 -165 -84q-81 0 -125 47q-40 43 -40 112q0 18 3 38z" />
    <glyph glyph-name="v" unicode="v" horiz-adv-x="535" 
d="M72 469h63q18 0 22 -16l89 -332h3l185 335q7 13 23 13h69q11 0 13.5 -4.5t2.5 -7.5q0 -5 -3 -11l-251 -433q-8 -13 -23 -13h-61q-16 0 -21 16l-128 431q-1 4 -1 7q0 15 18 15z" />
    <glyph glyph-name="w" unicode="w" horiz-adv-x="833" 
d="M80 469h62q18 0 21 -17l67 -326h2l165 330q6 13 21 13h60q17 0 20 -17l71 -326h2l161 329q6 14 22 14h62q11 0 14 -4.5t3 -8.5t-3 -10l-220 -433q-7 -13 -22 -13h-64q-16 0 -21 17l-70 319h-2l-163 -323q-6 -13 -21 -13h-66q-18 0 -21 16l-97 432q-1 4 -1 7q0 14 18 14z
" />
    <glyph glyph-name="x" unicode="x" horiz-adv-x="529" 
d="M9 24l195 216l-129 206q-4 6 -4 11q0 3 3 7.5t14 4.5h65q16 0 23 -12l92 -149h2l136 151q10 10 24 10h73q12 0 14 -4.5t2 -6.5q0 -6 -6 -12l-187 -206l134 -217q4 -6 4 -11q0 -3 -2.5 -7.5t-13.5 -4.5h-67q-15 0 -22 13l-98 157h-2l-144 -159q-11 -11 -24 -11h-73
q-12 0 -14 4.5t-2 6.5q0 6 7 13z" />
    <glyph glyph-name="y" unicode="y" horiz-adv-x="586" 
d="M39 -62h62q16 0 19 -18q13 -62 110 -62q133 0 152 136l13 89h-4q-51 -83 -165 -83q-82 0 -126 47q-39 42 -39 110q0 18 3 38l36 257q3 17 21 17h61q18 0 18 -15v-5l-33 -229q-3 -19 -3 -36q0 -94 89 -94q60 0 104.5 36.5t53.5 96.5l32 228q3 18 21 18h61q18 0 18 -15v-5
l-64 -455q-15 -106 -80 -163.5t-172 -57.5q-93 0 -149 40t-58 106v3q0 16 19 16z" />
    <glyph glyph-name="z" unicode="z" horiz-adv-x="485" 
d="M11 20l5 36q2 13 12 22l301 305h-238q-18 0 -18 15v5l7 49q1 17 20 17h353q18 0 18 -15v-5l-5 -35q-1 -12 -12 -23l-301 -305h249q18 0 18 -15v-5l-7 -49q-3 -17 -21 -17h-363q-18 0 -18 15v5z" />
    <glyph glyph-name="braceleft" unicode="{" horiz-adv-x="394" 
d="M62 303l7 51q1 16 20 18q32 2 47.5 15.5t18.5 42.5l29 205q10 71 44.5 102t107.5 31h68q18 0 18 -17v-3l-7 -48q-3 -18 -20 -18h-46q-62 0 -69 -57l-27 -188q-12 -89 -94 -109v-2q65 -17 65 -86q0 -11 -2 -23l-26 -188q-2 -10 -2 -19q0 -17 9 -27.5t43 -10.5h46
q18 0 18 -15v-5l-7 -49q-3 -17 -21 -17h-53q-75 0 -104.5 28.5t-29.5 76.5q0 13 2 28l29 205q1 8 1 14q0 19 -9.5 30.5t-37.5 13.5q-18 2 -18 17v4z" />
    <glyph glyph-name="bar" unicode="|" horiz-adv-x="279" 
d="M47 -66l115 823q3 17 21 17h62q18 0 18 -15v-5l-115 -823q-3 -17 -21 -17h-62q-18 0 -18 15v5z" />
    <glyph glyph-name="braceright" unicode="}" horiz-adv-x="395" 
d="M-1 -94l6 48q3 18 20 18h47q62 0 69 57l26 188q12 88 95 109v2q-66 18 -66 86q0 11 2 23l27 188q2 10 2 19q0 17 -9 27.5t-43 10.5h-47q-18 0 -18 17v3l7 49q3 17 21 17h53q75 0 104.5 -28.5t29.5 -74.5q0 -14 -2 -30l-29 -205q-1 -8 -1 -14q0 -19 9.5 -30.5t37.5 -13.5
q18 -2 18 -17v-4l-6 -51q-3 -16 -21 -18q-31 -2 -46.5 -15.5t-18.5 -42.5l-29 -205q-11 -71 -45.5 -102t-106.5 -31h-69q-17 0 -17 15v5z" />
    <glyph glyph-name="asciitilde" unicode="~" 
d="M84 281l7 48q1 14 14 22q57 33 113 33q35 0 101.5 -22t99.5 -22q50 0 99 27q6 3 10 3q3 0 7 -2.5t4 -11.5v-3l-7 -47q-1 -15 -15 -23q-56 -32 -110 -32q-37 0 -102 22t-101 22q-48 0 -98 -28q-6 -3 -11 -3q-3 0 -7 2.5t-4 11.5v3z" />
    <glyph glyph-name="uni00A0" unicode="&#xa0;" horiz-adv-x="246" 
 />
    <glyph glyph-name="exclamdown" unicode="&#xa1;" horiz-adv-x="290" 
d="M28 -208l73 439q3 17 20 17h51q18 0 18 -17v-3l-51 -439q-1 -18 -20 -18h-74q-9 0 -13.5 5t-4.5 11q0 2 1 5zM121 457q22 23 56 23q28 0 46 -16.5t18 -42.5q0 -35 -21.5 -57.5t-56.5 -22.5q-29 0 -46.5 16.5t-17.5 43.5q0 33 22 56z" />
    <glyph glyph-name="cent" unicode="&#xa2;" horiz-adv-x="590" 
d="M70 319q0 103 68 181.5t172 91.5l15 102q3 17 21 17h41q18 0 18 -15v-5l-14 -99q72 -11 118 -55t50 -108v-2q0 -17 -19 -17h-65q-16 0 -21 17q-14 63 -80 75l-42 -303q73 15 101 76q7 15 22 15h64q18 0 18 -13q0 -2 -1 -6q-23 -68 -79.5 -112.5t-133.5 -51.5l-14 -101
q-3 -17 -21 -17h-42q-18 0 -18 17v3l15 100q-80 14 -126.5 71t-46.5 139zM197 240q22 -32 64 -41l41 301q-58 -14 -93 -63.5t-35 -114.5q0 -50 23 -82z" />
    <glyph glyph-name="sterling" unicode="&#xa3;" horiz-adv-x="590" 
d="M23 20l8 57q3 18 21 18h52l27 197h-49q-18 0 -18 15v5l6 45q3 17 21 17h52l17 122q14 103 73.5 159t158.5 56q91 0 139 -45t48 -129v-14q0 -19 -19 -19h-63q-19 0 -19 20v4q0 45 -20.5 66.5t-67.5 21.5q-110 0 -129 -128l-16 -114h215q18 0 18 -15v-5l-6 -45
q-3 -17 -21 -17h-217l-27 -197h293q18 0 18 -15v-5l-8 -57q-3 -18 -21 -18h-448q-18 0 -18 15v5z" />
    <glyph glyph-name="currency" unicode="&#xa4;" horiz-adv-x="623" 
d="M65 160l86 76q-23 38 -23 87q0 81 53 144l-60 71q-6 7 -6 13q0 7 7 14l21 18q7 5 14 5t13 -7l59 -70q58 37 127 37q65 0 112 -33l82 72q7 6 13 6q8 0 14 -8l16 -19q5 -6 5 -12q0 -7 -7 -14l-80 -70q28 -40 28 -94q0 -89 -62 -154l55 -64q6 -6 6 -13t-8 -14l-21 -18
q-7 -6 -13 -6q-7 0 -13 8l-57 67q-54 -30 -114 -30q-69 0 -119 37l-88 -76q-6 -6 -13 -6t-13 8l-16 19q-6 6 -6 12q0 8 8 14zM248 262q25 -26 68 -26q56 0 92.5 39t36.5 94q0 43 -25.5 69t-69.5 26q-55 0 -91 -40t-36 -94q0 -42 25 -68z" />
    <glyph glyph-name="yen" unicode="&#xa5;" horiz-adv-x="606" 
d="M62 149l5 32q1 17 20 17h160l12 84h-157q-18 0 -18 15v5l4 32q3 17 21 17h125l-143 327q-2 6 -2 10q0 12 17 12h68q16 0 22 -14l122 -301h1l208 303q9 12 23 12h78q11 0 13.5 -4.5t2.5 -6.5q0 -5 -5 -12l-234 -326h122q18 0 18 -15v-5l-4 -32q-3 -17 -21 -17h-159
l-12 -84h157q18 0 18 -15v-5l-4 -32q-3 -17 -21 -17h-159l-16 -112q-3 -17 -21 -17h-63q-18 0 -18 15v5l15 109h-157q-18 0 -18 17v3z" />
    <glyph glyph-name="brokenbar" unicode="&#xa6;" horiz-adv-x="279" 
d="M120 452l42 304q3 18 21 18h62q18 0 18 -15v-5l-42 -304q-3 -18 -21 -18h-62q-18 0 -18 15v5zM47 -66l43 305q1 17 20 17h62q18 0 18 -15v-5l-42 -305q-3 -17 -21 -17h-62q-18 0 -18 15v5z" />
    <glyph glyph-name="section" unicode="&#xa7;" horiz-adv-x="545" 
d="M33 55q0 19 20 19h59q17 0 19 -19q6 -75 108 -75q54 0 87 22.5t33 63.5q0 51 -73 68l-79 19q-142 33 -142 136q0 54 29 94t78 58q-66 37 -66 108q0 86 63.5 135.5t165.5 49.5q91 0 143.5 -40.5t52.5 -117.5v-3q0 -19 -19 -19h-61q-16 0 -18 19q-3 71 -106 71
q-117 0 -117 -90q0 -23 16 -38t55 -24l86 -20q135 -31 135 -131q0 -57 -27.5 -98.5t-74.5 -59.5q63 -36 63 -104q0 -89 -62.5 -139t-165.5 -50q-94 0 -148 42t-54 120v3zM166 299q0 -26 18 -42.5t63 -26.5l32 -7q13 -3 26 -3q33 0 64.5 28t31.5 79q0 26 -18 42t-61 26l-34 7
q-13 3 -25 3q-33 0 -65 -27.5t-32 -78.5z" />
    <glyph glyph-name="dieresis" unicode="&#xa8;" 
d="M417 663q21 22 52 22q26 0 42.5 -16.5t16.5 -41.5q0 -32 -21.5 -53.5t-52.5 -21.5q-26 0 -42.5 16.5t-16.5 41.5q0 30 22 53zM202 663q21 22 52 22q26 0 42.5 -16.5t16.5 -41.5q0 -32 -21.5 -53.5t-52.5 -21.5q-26 0 -42.5 16.5t-16.5 41.5q0 30 22 53z" />
    <glyph glyph-name="copyright" unicode="&#xa9;" horiz-adv-x="879" 
d="M211 589q122 122 288 122q140 0 232 -90t92 -224q0 -163 -123 -285.5t-288 -122.5q-140 0 -231.5 90t-91.5 223q0 164 122 287zM234 131q68 -71 178 -71q135 0 234.5 98.5t99.5 234.5q0 106 -68 176.5t-178 70.5q-136 0 -235 -98.5t-99 -234.5q0 -106 68 -176zM267 324
q0 89 62 152t153 63q67 0 113 -34.5t52 -90.5v-5q0 -15 -19 -15h-52q-16 0 -20 18q-15 49 -77 49q-55 0 -89 -39.5t-34 -94.5q0 -40 23 -64t64 -24q31 0 57.5 14t39.5 38q9 15 22 15h51q10 0 14 -4.5t4 -7.5t-2 -7q-20 -57 -70 -91.5t-117 -34.5q-78 0 -126.5 46t-48.5 117z
" />
    <glyph glyph-name="ordfeminine" unicode="&#xaa;" horiz-adv-x="494" 
d="M74 487q0 91 61 157.5t149 66.5q43 0 75.5 -17.5t44.5 -47.5h3l6 39q3 17 21 17h50q18 0 18 -15v-5l-48 -341q-3 -17 -21 -17h-50q-18 0 -18 15v5l5 35h-3q-43 -64 -131 -64q-71 0 -116.5 48.5t-45.5 123.5zM169 492q0 -41 24 -67t67 -26q55 0 93 39.5t38 93.5
q0 43 -25.5 69t-69.5 26q-56 0 -91.5 -40t-35.5 -95z" />
    <glyph glyph-name="guillemotleft" unicode="&#xab;" horiz-adv-x="547" 
d="M54 246l127 161q9 11 23 11h69q12 0 14.5 -4.5t2.5 -6.5q0 -5 -5 -12l-133 -168l78 -154q3 -5 3 -10q0 -3 -3.5 -8t-13.5 -5h-63q-15 0 -22 13l-79 157q-3 6 -3 11q0 8 5 15zM274 246l127 161q9 11 23 11h69q12 0 14.5 -4.5t2.5 -6.5q0 -5 -5 -12l-133 -168l78 -154
q3 -5 3 -10q0 -3 -3.5 -8t-13.5 -5h-63q-15 0 -22 13l-79 157q-3 6 -3 11q0 8 5 15z" />
    <glyph glyph-name="logicalnot" unicode="&#xac;" 
d="M87 292l7 53q3 18 20 18h405q18 0 18 -15v-5l-21 -156q-3 -18 -21 -18h-57q-18 0 -18 17v3l12 83h-328q-17 0 -17 15v5z" />
    <glyph glyph-name="registered" unicode="&#xae;" horiz-adv-x="552" 
d="M90 462q0 102 73 175.5t175 73.5q84 0 140.5 -55t56.5 -135q0 -101 -72 -175.5t-174 -74.5q-84 0 -141.5 55t-57.5 136zM181 359q41 -42 107 -42q83 0 139.5 59.5t56.5 141.5q0 63 -41 105t-106 42q-82 0 -139.5 -60t-57.5 -141q0 -63 41 -105zM210 399l27 192
q1 18 20 18h69q91 0 91 -68q0 -69 -60 -86l31 -53q4 -6 4 -11q0 -3 -2.5 -7.5t-14.5 -4.5h-18q-15 0 -23 13l-30 58h-31l-8 -54q-3 -17 -21 -17h-16q-18 0 -18 15v5zM279 498h42q38 0 38 38q0 22 -29 22h-42z" />
    <glyph glyph-name="macron" unicode="&#xaf;" 
d="M199 584l6 43q3 18 20 18h263q17 0 17 -15v-5l-6 -43q-3 -18 -20 -18h-263q-17 0 -17 15v5z" />
    <glyph glyph-name="degree" unicode="&#xb0;" horiz-adv-x="392" 
d="M137 665q50 49 122 49q60 0 99.5 -37.5t39.5 -96.5q0 -68 -50 -118t-122 -50q-61 0 -100.5 38t-39.5 97q0 68 51 118zM184 505q16 -18 46 -18q38 0 62 25.5t24 64.5q0 28 -16.5 44.5t-45.5 16.5q-37 0 -62 -26t-25 -62q0 -28 17 -45z" />
    <glyph glyph-name="plusminus" unicode="&#xb1;" 
d="M95 357l8 52q3 18 20 18h156l22 155q1 17 20 17h57q18 0 18 -15v-5l-21 -152h154q17 0 17 -15v-5l-8 -52q-1 -18 -20 -18h-156l-21 -155q-3 -17 -21 -17h-57q-18 0 -18 15v5l21 152h-154q-17 0 -17 15v5zM48 20l8 52q3 18 20 18h406q17 0 17 -15v-5l-8 -52
q-1 -18 -20 -18h-406q-17 0 -17 15v5z" />
    <glyph glyph-name="twosuperior" unicode="&#xb2;" horiz-adv-x="321" 
d="M46 353l1 10q9 62 32 95t85 62l48 23q29 13 43.5 27t14.5 34q0 37 -46 37t-63 -45q-4 -16 -21 -16h-41q-17 0 -17 15v5q26 111 144 111q55 0 88 -27.5t33 -71.5q0 -46 -27 -76t-78 -53l-48 -22q-30 -14 -43 -26t-19 -33h162q18 0 18 -15v-5l-5 -32q-1 -17 -20 -17h-223
q-18 0 -18 15v5z" />
    <glyph glyph-name="threesuperior" unicode="&#xb3;" horiz-adv-x="328" 
d="M77 448h40q15 0 20 -18q6 -34 49 -34q31 0 49 15t18 38q0 38 -54 38h-11q-18 0 -18 15v5l4 30q3 17 21 17h12q28 0 45.5 14.5t17.5 36.5q0 35 -47 35q-44 0 -60 -36q-6 -17 -21 -17h-41q-17 0 -17 13q0 4 1 8q25 103 142 103q55 0 88 -26.5t33 -67.5q0 -74 -74 -100
q55 -18 55 -72t-40 -86.5t-103 -32.5q-58 0 -93 26t-36 77q0 19 20 19z" />
    <glyph glyph-name="acute" unicode="&#xb4;" 
d="M297 564l96 118q8 11 23 11h80q12 0 14 -5t2 -7q0 -5 -6 -12l-112 -118q-9 -10 -23 -10h-63q-12 0 -14.5 4.5t-2.5 6.5q0 6 6 12z" />
    <glyph glyph-name="uni00B5" unicode="&#xb5;" horiz-adv-x="625" 
d="M28 -196l91 648q3 17 21 17h61q18 0 18 -15v-5l-34 -240q-3 -19 -3 -34q0 -40 19.5 -66t73.5 -26q63 0 107 38.5t54 112.5l31 217q3 18 21 18h61q18 0 18 -15v-5l-61 -432q-3 -17 -21 -17h-51q-18 0 -18 17v3l6 69q-25 -46 -70.5 -73t-96.5 -27q-64 0 -95 48l-32 -236
q-3 -17 -21 -17h-61q-18 0 -18 15v5z" />
    <glyph glyph-name="paragraph" unicode="&#xb6;" horiz-adv-x="636" 
d="M163 686q61 48 155 48h76q18 0 18 -15v-5l-116 -827q-3 -17 -21 -17h-57q-18 0 -18 15v5l76 538h-14q-75 0 -117.5 35.5t-42.5 94.5q0 80 61 128zM403 -110l116 827q3 17 21 17h57q18 0 18 -15v-5l-116 -827q-3 -17 -21 -17h-57q-18 0 -18 15v5z" />
    <glyph glyph-name="periodcentered" unicode="&#xb7;" horiz-adv-x="293" 
d="M105 340q21 23 56 23q29 0 47 -17t18 -43q0 -34 -21.5 -57t-56.5 -23q-28 0 -46 16.5t-18 42.5q0 35 21 58z" />
    <glyph glyph-name="cedilla" unicode="&#xb8;" 
d="M158 -157l89 180h91l-83 -188q-4 -14 -22 -14h-61q-11 0 -13.5 4.5t-2.5 7.5q0 5 2 10z" />
    <glyph glyph-name="onesuperior" unicode="&#xb9;" horiz-adv-x="234" 
d="M78 604l5 36q1 13 15 21l70 37q11 6 24 6h37q18 0 18 -15v-5l-46 -333q-3 -18 -21 -18h-38q-18 0 -18 15v5l38 270l-63 -34q-5 -3 -9 -3t-8 3t-4 12v3z" />
    <glyph glyph-name="ordmasculine" unicode="&#xba;" horiz-adv-x="482" 
d="M140 645q66 66 162 66q80 0 131.5 -49t51.5 -123q0 -92 -66.5 -158t-160.5 -66q-80 0 -132 48.5t-52 122.5q0 93 66 159zM194 425q25 -26 68 -26q56 0 92.5 39t36.5 94q0 43 -25.5 69t-69.5 26q-55 0 -91 -40t-36 -94q0 -42 25 -68z" />
    <glyph glyph-name="guillemotright" unicode="&#xbb;" horiz-adv-x="547" 
d="M262 73l133 168l-78 154q-3 5 -3 10q0 3 3.5 8t13.5 5h63q15 0 22 -13l79 -157q3 -6 3 -11q0 -8 -5 -15l-127 -161q-9 -11 -23 -11h-69q-12 0 -14.5 4.5t-2.5 6.5q0 5 5 12zM42 73l133 168l-78 154q-3 5 -3 10q0 3 3.5 8t13.5 5h63q15 0 22 -13l79 -157q3 -6 3 -11
q0 -8 -5 -15l-127 -161q-9 -11 -23 -11h-69q-12 0 -14.5 4.5t-2.5 6.5q0 5 5 12z" />
    <glyph glyph-name="onequarter" unicode="&#xbc;" horiz-adv-x="717" 
d="M68 23l511 666q9 11 23 11h49q12 0 14.5 -4.5t2.5 -6.5q0 -5 -5 -12l-512 -666q-9 -11 -23 -11h-49q-12 0 -14 4t-2 7q0 5 5 12zM359 93l5 31q2 12 10 22l187 215q10 11 24 11h48q18 0 18 -15v-5l-29 -212h21q18 0 18 -15v-5l-4 -29q-1 -18 -20 -18h-24l-8 -55
q-3 -18 -21 -18h-34q-18 0 -18 15v5l8 53h-163q-18 0 -18 15v5zM90 600l5 36q1 12 15 21l70 37q11 6 24 6h38q18 0 18 -17v-3l-47 -334q-3 -18 -21 -18h-38q-18 0 -18 15v5l37 270l-62 -33q-5 -3 -9 -3t-8 3t-4 12v3zM549 140l20 140l-123 -140h103z" />
    <glyph glyph-name="onehalf" unicode="&#xbd;" horiz-adv-x="765" 
d="M68 23l511 666q9 11 23 11h49q12 0 14.5 -4.5t2.5 -6.5q0 -5 -5 -12l-512 -666q-9 -11 -23 -11h-49q-12 0 -14 4t-2 7q0 5 5 12zM423 20l2 10q9 62 32 96t85 62l48 22q30 14 44 27.5t14 33.5q0 37 -46 37q-47 0 -63 -44q-6 -17 -21 -17h-41q-18 0 -18 14q0 3 1 7
q25 110 144 110q54 0 87 -27.5t33 -70.5q0 -47 -26.5 -76.5t-78.5 -53.5l-48 -22q-30 -13 -43 -25t-19 -34h162q18 0 18 -15v-5l-4 -32q-3 -17 -21 -17h-223q-18 0 -18 17v3zM90 600l5 36q1 12 15 21l70 37q11 6 24 6h38q18 0 18 -17v-3l-47 -334q-3 -18 -21 -18h-38
q-18 0 -18 15v5l37 270l-62 -33q-5 -3 -9 -3t-8 3t-4 12v3z" />
    <glyph glyph-name="threequarters" unicode="&#xbe;" horiz-adv-x="782" 
d="M132 23l512 666q9 11 23 11h49q12 0 14 -4t2 -7q0 -5 -5 -12l-512 -666q-8 -11 -22 -11h-49q-12 0 -14.5 4.5t-2.5 6.5q0 5 5 12zM425 93l4 31q1 10 10 22l188 215q8 11 23 11h49q18 0 18 -17v-3l-30 -212h21q18 0 18 -15v-5l-3 -29q-3 -18 -21 -18h-24l-8 -55
q-3 -18 -21 -18h-33q-18 0 -18 15v5l7 53h-162q-18 0 -18 15v5zM77 448h40q15 0 20 -18q6 -34 49 -34q31 0 49 15t18 38q0 38 -54 38h-11q-18 0 -18 15v5l4 30q3 17 21 17h12q28 0 45.5 14.5t17.5 36.5q0 35 -47 35q-44 0 -60 -36q-6 -17 -21 -17h-41q-17 0 -17 13q0 4 1 8
q25 103 142 103q55 0 88 -26.5t33 -67.5q0 -74 -74 -100q55 -18 55 -72t-40 -86.5t-103 -32.5q-58 0 -93 26t-36 77q0 19 20 19zM615 140l19 140l-122 -140h103z" />
    <glyph glyph-name="questiondown" unicode="&#xbf;" horiz-adv-x="491" 
d="M-2 -92q0 52 27.5 91t83.5 82l52 39q29 22 38.5 38t14.5 49l4 28q3 17 21 17h60q18 0 18 -15v-5l-4 -27q-8 -52 -26.5 -82.5t-69.5 -68.5l-54 -40q-63 -45 -63 -100q0 -61 85 -61q104 0 132 96q5 16 21 16h61q18 0 18 -15q0 -3 -1 -6q-16 -85 -78 -134t-159 -49
q-84 0 -132.5 40t-48.5 107zM243 457q22 23 56 23q28 0 46 -16.5t18 -42.5q0 -34 -21 -57t-56 -23q-29 0 -47 16.5t-18 43.5q0 33 22 56z" />
    <glyph glyph-name="Agrave" unicode="&#xc0;" horiz-adv-x="713" 
d="M-6 23l368 664q7 13 23 13h72q18 0 22 -16l180 -663q1 -4 1 -7q0 -4 -3.5 -9t-13.5 -5h-68q-17 0 -22 16l-35 135h-339l-75 -138q-7 -13 -23 -13h-74q-11 0 -14 4.5t-3 7.5q0 5 4 11zM494 246l-85 328h-2l-177 -328h264zM323 917q3 7 14 7h74q16 0 23 -14l62 -115
q3 -6 3 -10t-3 -8.5t-14 -4.5h-57q-15 0 -24 12l-76 117q-4 5 -4 10q0 3 2 6z" />
    <glyph glyph-name="Aacute" unicode="&#xc1;" horiz-adv-x="713" 
d="M-6 23l368 664q7 13 23 13h72q18 0 22 -16l180 -663q1 -4 1 -7q0 -4 -3.5 -9t-13.5 -5h-68q-17 0 -22 16l-35 135h-339l-75 -138q-7 -13 -23 -13h-74q-11 0 -14 4.5t-3 7.5q0 5 4 11zM494 246l-85 328h-2l-177 -328h264zM364 795l96 118q8 11 23 11h80q12 0 14 -5t2 -7
q0 -5 -6 -12l-112 -118q-9 -10 -23 -10h-63q-12 0 -14.5 4.5t-2.5 6.5q0 6 6 12z" />
    <glyph glyph-name="Acircumflex" unicode="&#xc2;" horiz-adv-x="713" 
d="M-6 23l368 664q7 13 23 13h72q18 0 22 -16l180 -663q1 -4 1 -7q0 -4 -3.5 -9t-13.5 -5h-68q-17 0 -22 16l-35 135h-339l-75 -138q-7 -13 -23 -13h-74q-11 0 -14 4.5t-3 7.5q0 5 4 11zM494 246l-85 328h-2l-177 -328h264zM275 795l121 119q10 10 23 10h69q14 0 22 -12
l86 -118q5 -7 5 -12q0 -2 -2.5 -6t-13.5 -4h-54q-16 0 -23 11l-56 79h-4l-81 -81q-8 -9 -22 -9h-61q-13 0 -14.5 4.5t-1.5 6.5q0 6 7 12z" />
    <glyph glyph-name="Atilde" unicode="&#xc3;" horiz-adv-x="713" 
d="M-6 23l368 664q7 13 23 13h72q18 0 22 -16l180 -663q1 -4 1 -7q0 -4 -3.5 -9t-13.5 -5h-68q-17 0 -22 16l-35 135h-339l-75 -138q-7 -13 -23 -13h-74q-11 0 -14 4.5t-3 7.5q0 5 4 11zM230 246h264l-85 328h-2zM265 798q9 58 38.5 88.5t75.5 30.5q7 0 14 -1t14 -4t11.5 -5
t11 -7t9.5 -7t10 -8t9 -7q31 -25 49 -25q29 0 39 45q4 18 20 18h37q17 0 17 -17q0 -5 -1 -11q-10 -55 -39.5 -83.5t-73.5 -28.5q-17 0 -33.5 7.5t-23 13t-23.5 19.5q-29 25 -47 25q-29 0 -39 -46q-4 -18 -21 -18h-37q-9 0 -13.5 5t-4.5 11q0 2 1 5z" />
    <glyph glyph-name="Adieresis" unicode="&#xc4;" horiz-adv-x="713" 
d="M-6 23l368 664q7 13 23 13h72q18 0 22 -16l180 -663q1 -4 1 -7q0 -4 -3.5 -9t-13.5 -5h-68q-17 0 -22 16l-35 135h-339l-75 -138q-7 -13 -23 -13h-74q-11 0 -14 4.5t-3 7.5q0 5 4 11zM230 246h264l-85 328h-2zM269 841q0 30 21.5 52.5t52.5 22.5q26 0 42.5 -16.5
t16.5 -41.5q0 -32 -21.5 -53.5t-52.5 -21.5q-26 0 -42.5 16.5t-16.5 41.5zM484 841q0 30 21.5 52.5t52.5 22.5q26 0 42.5 -16.5t16.5 -41.5q0 -32 -21.5 -53.5t-52.5 -21.5q-26 0 -42.5 16.5t-16.5 41.5z" />
    <glyph glyph-name="Aring" unicode="&#xc5;" horiz-adv-x="713" 
d="M-6 23l368 664q7 13 23 13h72q18 0 22 -16l180 -663q1 -4 1 -7q0 -4 -3.5 -9t-13.5 -5h-68q-17 0 -22 16l-35 135h-339l-75 -138q-7 -13 -23 -13h-74q-11 0 -14 4.5t-3 7.5q0 5 4 11zM323 867q0 54 39.5 93t96.5 39q49 0 81 -29t32 -72q0 -54 -40.5 -93t-95.5 -39
q-48 0 -80.5 29t-32.5 72zM230 246h264l-85 328h-2zM392 872q0 -21 12.5 -33t34.5 -12q28 0 46.5 19.5t18.5 46.5q0 20 -13 32t-35 12q-29 0 -46.5 -18.5t-17.5 -46.5z" />
    <glyph glyph-name="AE" unicode="&#xc6;" horiz-adv-x="1075" 
d="M-10 23l538 666q9 11 23 11h509q18 0 18 -15v-5l-8 -60q-2 -18 -20 -18h-357l-29 -204h280q18 0 18 -17v-3l-9 -58q-1 -18 -20 -18h-283l-29 -204h358q18 0 18 -15v-5l-8 -60q-3 -18 -21 -18h-445q-18 0 -18 15v5l19 133h-297l-113 -142q-9 -11 -23 -11h-89
q-12 0 -14.5 4.5t-2.5 6.5q0 5 5 12zM303 249h234l50 356h-2z" />
    <glyph glyph-name="Ccedilla" unicode="&#xc7;" horiz-adv-x="807" 
d="M69 301q0 108 53.5 202t148 151t205.5 57q123 0 207.5 -68t94.5 -185v-5q0 -15 -18 -15h-73q-17 0 -20 18q-8 73 -58.5 114t-132.5 41q-127 0 -212 -89.5t-85 -217.5q0 -100 56 -157.5t155 -57.5q84 0 150 42t97 116q7 15 22 15h72q10 0 13 -5t3 -10q0 -4 -1 -8
q-38 -106 -123 -171.5t-194 -76.5l-69 -156q-4 -14 -22 -14h-61q-11 0 -13.5 4.5t-2.5 7.5q0 5 2 10l74 149q-121 16 -194.5 100.5t-73.5 208.5z" />
    <glyph glyph-name="Egrave" unicode="&#xc8;" horiz-adv-x="629" 
d="M58 20l93 663q3 17 21 17h442q18 0 18 -15v-5l-8 -60q-3 -18 -21 -18h-357l-29 -204h280q18 0 18 -15v-5l-8 -58q-3 -18 -21 -18h-282l-29 -204h358q18 0 18 -15v-5l-8 -60q-3 -18 -21 -18h-446q-18 0 -18 15v5zM293 917q3 7 14 7h74q16 0 23 -14l62 -115q3 -6 3 -10
t-3 -8.5t-14 -4.5h-57q-15 0 -24 12l-76 117q-4 5 -4 10q0 3 2 6z" />
    <glyph glyph-name="Eacute" unicode="&#xc9;" horiz-adv-x="629" 
d="M58 20l93 663q3 17 21 17h442q18 0 18 -15v-5l-8 -60q-3 -18 -21 -18h-357l-29 -204h280q18 0 18 -15v-5l-8 -58q-3 -18 -21 -18h-282l-29 -204h358q18 0 18 -15v-5l-8 -60q-3 -18 -21 -18h-446q-18 0 -18 15v5zM335 795l96 118q8 11 23 11h80q12 0 14 -5t2 -7
q0 -5 -6 -12l-112 -118q-9 -10 -23 -10h-63q-12 0 -14.5 4.5t-2.5 6.5q0 6 6 12z" />
    <glyph glyph-name="Ecircumflex" unicode="&#xca;" horiz-adv-x="629" 
d="M58 20l93 663q3 17 21 17h442q18 0 18 -15v-5l-8 -60q-3 -18 -21 -18h-357l-29 -204h280q18 0 18 -15v-5l-8 -58q-3 -18 -21 -18h-282l-29 -204h358q18 0 18 -15v-5l-8 -60q-3 -18 -21 -18h-446q-18 0 -18 15v5zM245 795l121 119q10 10 23 10h69q14 0 22 -12l86 -118
q5 -7 5 -12q0 -2 -2.5 -6t-13.5 -4h-54q-16 0 -23 11l-56 79h-4l-81 -81q-8 -9 -22 -9h-61q-13 0 -14.5 4.5t-1.5 6.5q0 6 7 12z" />
    <glyph glyph-name="Edieresis" unicode="&#xcb;" horiz-adv-x="629" 
d="M58 20l93 663q3 17 21 17h442q18 0 18 -15v-5l-8 -60q-3 -18 -21 -18h-357l-29 -204h280q18 0 18 -15v-5l-8 -58q-3 -18 -21 -18h-282l-29 -204h358q18 0 18 -15v-5l-8 -60q-3 -18 -21 -18h-446q-18 0 -18 15v5zM261 894q21 22 52 22q26 0 42.5 -16.5t16.5 -41.5
q0 -32 -21.5 -53.5t-52.5 -21.5q-26 0 -42.5 16.5t-16.5 41.5q0 30 22 53zM454 841q0 30 21.5 52.5t52.5 22.5q26 0 42.5 -16.5t16.5 -41.5q0 -32 -21.5 -53.5t-52.5 -21.5q-26 0 -42.5 16.5t-16.5 41.5z" />
    <glyph glyph-name="Igrave" unicode="&#xcc;" horiz-adv-x="283" 
d="M58 20l93 663q3 17 21 17h67q18 0 18 -15v-5l-93 -663q-3 -17 -21 -17h-67q-18 0 -18 15v5zM107 917q3 7 14 7h74q16 0 23 -14l62 -115q3 -6 3 -10t-3 -8.5t-14 -4.5h-57q-15 0 -24 12l-76 117q-4 5 -4 10q0 3 2 6z" />
    <glyph glyph-name="Iacute" unicode="&#xcd;" horiz-adv-x="283" 
d="M58 20l93 663q3 17 21 17h67q18 0 18 -15v-5l-93 -663q-3 -17 -21 -17h-67q-18 0 -18 15v5zM149 795l96 118q8 11 23 11h80q12 0 14 -5t2 -7q0 -5 -6 -12l-112 -118q-9 -10 -23 -10h-63q-12 0 -14.5 4.5t-2.5 6.5q0 6 6 12z" />
    <glyph glyph-name="Icircumflex" unicode="&#xce;" horiz-adv-x="283" 
d="M58 20l93 663q3 17 21 17h67q18 0 18 -15v-5l-93 -663q-3 -17 -21 -17h-67q-18 0 -18 15v5zM59 795l121 119q10 10 23 10h69q14 0 22 -12l86 -118q5 -7 5 -12q0 -2 -2.5 -6t-13.5 -4h-54q-16 0 -23 11l-56 79h-4l-81 -81q-8 -9 -22 -9h-61q-13 0 -14.5 4.5t-1.5 6.5
q0 6 7 12z" />
    <glyph glyph-name="Idieresis" unicode="&#xcf;" horiz-adv-x="283" 
d="M58 20l93 663q3 17 21 17h67q18 0 18 -15v-5l-93 -663q-3 -17 -21 -17h-67q-18 0 -18 15v5zM291 894q21 22 52 22q26 0 42.5 -16.5t16.5 -41.5q0 -32 -21.5 -53.5t-52.5 -21.5q-26 0 -42.5 16.5t-16.5 41.5q0 30 22 53zM76 894q21 22 52 22q26 0 42.5 -16.5t16.5 -41.5
q0 -32 -21.5 -53.5t-52.5 -21.5q-26 0 -42.5 16.5t-16.5 41.5q0 30 22 53z" />
    <glyph glyph-name="Eth" unicode="&#xd0;" horiz-adv-x="745" 
d="M22 328l7 45q3 18 20 18h77l41 292q3 17 21 17h200q144 0 232 -84t88 -223q0 -167 -116.5 -280t-294.5 -113h-205q-18 0 -18 15v5l40 288h-74q-18 0 -18 17v3zM191 99h113q130 0 212 86t82 213q0 100 -56.5 151.5t-166.5 51.5h-113l-30 -210h145q17 0 17 -15v-5l-6 -45
q-3 -18 -20 -18h-147z" />
    <glyph glyph-name="Ntilde" unicode="&#xd1;" horiz-adv-x="771" 
d="M58 20l93 663q3 17 21 17h65q15 0 23 -12l306 -513h2l71 507q3 18 21 18h67q18 0 18 -15v-5l-93 -663q-3 -17 -21 -17h-66q-16 0 -22 12l-306 512h-2l-71 -507q-3 -17 -21 -17h-67q-18 0 -18 15v5zM294 798q9 58 38.5 88.5t75.5 30.5q7 0 14 -1t14 -4t11.5 -5t11 -7
t9.5 -7t10 -8t9 -7q31 -25 49 -25q29 0 39 45q5 18 20 18h37q17 0 17 -17q0 -5 -1 -11q-10 -55 -39.5 -83.5t-73.5 -28.5q-17 0 -33.5 7.5t-23 13t-23.5 19.5q-29 25 -47 25q-29 0 -39 -46q-5 -18 -21 -18h-37q-9 0 -13.5 5t-4.5 11q0 2 1 5z" />
    <glyph glyph-name="Ograve" unicode="&#xd2;" horiz-adv-x="832" 
d="M188 588q119 123 286 123q139 0 230 -89.5t91 -224.5q0 -105 -53.5 -199t-148 -151.5t-204.5 -57.5q-139 0 -229.5 89t-90.5 225q0 162 119 285zM236 149q56 -60 154 -60q124 0 209.5 89.5t85.5 214.5q0 98 -56.5 158t-155.5 60q-125 0 -209.5 -90.5t-84.5 -215.5
q0 -97 57 -156zM382 917q3 7 14 7h74q16 0 23 -14l62 -115q3 -6 3 -10t-3 -8.5t-14 -4.5h-57q-15 0 -24 12l-76 117q-4 5 -4 10q0 3 2 6z" />
    <glyph glyph-name="Oacute" unicode="&#xd3;" horiz-adv-x="832" 
d="M69 303q0 162 119 285t286 123q139 0 230 -89.5t91 -224.5q0 -105 -53.5 -199t-148 -151.5t-204.5 -57.5q-139 0 -229.5 89t-90.5 225zM179 305q0 -97 56.5 -156.5t154.5 -59.5q124 0 209.5 89.5t85.5 214.5q0 98 -56.5 158t-155.5 60q-125 0 -209.5 -90.5t-84.5 -215.5z
M423 795l96 118q8 11 23 11h80q12 0 14 -5t2 -7q0 -5 -6 -12l-112 -118q-9 -10 -23 -10h-63q-12 0 -14.5 4.5t-2.5 6.5q0 6 6 12z" />
    <glyph glyph-name="Ocircumflex" unicode="&#xd4;" horiz-adv-x="832" 
d="M69 303q0 162 119 285t286 123q139 0 230 -89.5t91 -224.5q0 -105 -53.5 -199t-148 -151.5t-204.5 -57.5q-139 0 -229.5 89t-90.5 225zM179 305q0 -97 56.5 -156.5t154.5 -59.5q124 0 209.5 89.5t85.5 214.5q0 98 -56.5 158t-155.5 60q-125 0 -209.5 -90.5t-84.5 -215.5z
M334 795l121 119q10 10 23 10h69q15 0 22 -12l86 -118q5 -7 5 -12q0 -2 -2.5 -6t-13.5 -4h-54q-16 0 -23 11l-56 79h-4l-81 -81q-8 -9 -22 -9h-61q-13 0 -14.5 4.5t-1.5 6.5q0 6 7 12z" />
    <glyph glyph-name="Otilde" unicode="&#xd5;" horiz-adv-x="832" 
d="M188 588q119 123 286 123q139 0 230 -89.5t91 -224.5q0 -105 -53.5 -199t-148 -151.5t-204.5 -57.5q-139 0 -229.5 89t-90.5 225q0 162 119 285zM179 305q0 -97 56.5 -156.5t154.5 -59.5q124 0 209.5 89.5t85.5 214.5q0 98 -56.5 158t-155.5 60q-125 0 -209.5 -90.5
t-84.5 -215.5zM324 798q9 58 38.5 88.5t75.5 30.5q7 0 14 -1t14 -4t11.5 -5t11 -7t9.5 -7t10 -8t9 -7q31 -25 49 -25q29 0 39 45q5 18 20 18h37q17 0 17 -17q0 -5 -1 -11q-10 -55 -39.5 -83.5t-73.5 -28.5q-17 0 -33.5 7.5t-23 13t-23.5 19.5q-29 25 -47 25q-29 0 -39 -46
q-5 -18 -21 -18h-37q-9 0 -13.5 5t-4.5 11q0 2 1 5z" />
    <glyph glyph-name="Odieresis" unicode="&#xd6;" horiz-adv-x="832" 
d="M69 303q0 162 119 285t286 123q139 0 230 -89.5t91 -224.5q0 -105 -53.5 -199t-148 -151.5t-204.5 -57.5q-139 0 -229.5 89t-90.5 225zM179 305q0 -97 56.5 -156.5t154.5 -59.5q124 0 209.5 89.5t85.5 214.5q0 98 -56.5 158t-155.5 60q-125 0 -209.5 -90.5t-84.5 -215.5z
M565 894q21 22 52 22q26 0 42.5 -16.5t16.5 -41.5q0 -32 -21.5 -53.5t-52.5 -21.5q-26 0 -42.5 16.5t-16.5 41.5q0 30 22 53zM328 841q0 30 21.5 52.5t52.5 22.5q26 0 42.5 -16.5t16.5 -41.5q0 -32 -21.5 -53.5t-52.5 -21.5q-26 0 -42.5 16.5t-16.5 41.5z" />
    <glyph glyph-name="multiply" unicode="&#xd7;" 
d="M531 477q12 -15 -2 -27l-157 -138l113 -131q11 -16 -2 -27l-38 -33q-14 -13 -26 2l-113 132l-156 -137q-15 -13 -26 1l-32 37q-12 14 2 26l156 137l-114 133q-12 15 2 26l38 33q15 12 27 -2l113 -132l157 138q15 12 27 -2z" />
    <glyph glyph-name="Oslash" unicode="&#xd8;" horiz-adv-x="832" 
d="M122 502q53 94 147 151.5t204 57.5q82 0 148 -32l59 81q7 9 15 9q5 0 11 -4l33 -20q9 -6 9 -14q0 -6 -5 -13l-57 -80q109 -90 109 -241q0 -105 -53.5 -199t-148 -151.5t-204.5 -57.5q-81 0 -147 32l-58 -81q-7 -9 -15 -9q-5 0 -11 4l-32 20q-10 6 -10 14q0 5 5 12l57 80
q-109 90 -109 242q0 105 53 199zM239 142l326 454q-40 17 -92 17q-126 0 -211 -91.5t-85 -216.5q0 -103 62 -163zM390 87q125 0 210.5 90.5t85.5 216.5q0 105 -62 164l-325 -454q40 -17 91 -17z" />
    <glyph glyph-name="Ugrave" unicode="&#xd9;" horiz-adv-x="726" 
d="M87 282l56 401q3 17 21 17h67q18 0 18 -15v-5l-55 -387q-4 -28 -4 -53q0 -149 148 -149q86 0 141 51t68 151l55 390q3 17 21 17h67q18 0 18 -15v-5l-56 -398q-19 -139 -104 -216t-216 -77t-190 68.5t-59 165.5q0 28 4 59zM329 917q3 7 14 7h74q16 0 23 -14l62 -115
q3 -6 3 -10t-3 -8.5t-14 -4.5h-57q-15 0 -24 12l-76 117q-4 5 -4 10q0 3 2 6z" />
    <glyph glyph-name="Uacute" unicode="&#xda;" horiz-adv-x="726" 
d="M87 282l56 401q3 17 21 17h67q18 0 18 -15v-5l-55 -387q-4 -28 -4 -53q0 -149 148 -149q86 0 141 51t68 151l55 390q3 17 21 17h67q18 0 18 -15v-5l-56 -398q-19 -139 -104 -216t-216 -77t-190 68.5t-59 165.5q0 28 4 59zM371 795l96 118q8 11 23 11h80q12 0 14 -5t2 -7
q0 -5 -6 -12l-112 -118q-9 -10 -23 -10h-63q-12 0 -14.5 4.5t-2.5 6.5q0 6 6 12z" />
    <glyph glyph-name="Ucircumflex" unicode="&#xdb;" horiz-adv-x="726" 
d="M87 282l56 401q3 17 21 17h67q18 0 18 -15v-5l-55 -387q-4 -28 -4 -53q0 -149 148 -149q86 0 141 51t68 151l55 390q3 17 21 17h67q18 0 18 -15v-5l-56 -398q-19 -139 -104 -216t-216 -77t-190 68.5t-59 165.5q0 28 4 59zM281 795l121 119q10 10 23 10h69q14 0 22 -12
l86 -118q5 -7 5 -12q0 -2 -2.5 -6t-13.5 -4h-54q-16 0 -23 11l-56 79h-4l-81 -81q-8 -9 -22 -9h-61q-13 0 -14.5 4.5t-1.5 6.5q0 6 7 12z" />
    <glyph glyph-name="Udieresis" unicode="&#xdc;" horiz-adv-x="726" 
d="M87 282l56 401q3 17 21 17h67q18 0 18 -15v-5l-55 -387q-4 -28 -4 -53q0 -149 148 -149q86 0 141 51t68 151l55 390q3 17 21 17h67q18 0 18 -15v-5l-56 -398q-19 -139 -104 -216t-216 -77t-190 68.5t-59 165.5q0 28 4 59zM275 841q0 30 21.5 52.5t52.5 22.5
q26 0 42.5 -16.5t16.5 -41.5q0 -32 -21.5 -53.5t-52.5 -21.5q-26 0 -42.5 16.5t-16.5 41.5zM490 841q0 30 21.5 52.5t52.5 22.5q26 0 42.5 -16.5t16.5 -41.5q0 -32 -21.5 -53.5t-52.5 -21.5q-26 0 -42.5 16.5t-16.5 41.5z" />
    <glyph glyph-name="Yacute" unicode="&#xdd;" horiz-adv-x="662" 
d="M86 694q4 6 15 6h72q16 0 22 -14l150 -307h1l238 309q9 12 23 12h82q12 0 14 -4t2 -7q0 -5 -5 -12l-308 -396l-38 -264q-3 -17 -21 -17h-68q-18 0 -18 17v3l38 261l-198 396q-3 6 -3 10t2 7zM339 795l96 118q8 11 23 11h80q12 0 14 -5t2 -7q0 -5 -6 -12l-112 -118
q-9 -10 -23 -10h-63q-12 0 -14.5 4.5t-2.5 6.5q0 6 6 12z" />
    <glyph glyph-name="Thorn" unicode="&#xde;" horiz-adv-x="664" 
d="M416 587q108 0 167 -52t59 -144q0 -127 -77.5 -198.5t-211.5 -71.5h-174l-15 -104q-3 -17 -21 -17h-67q-21 0 -18 20l93 663q3 17 21 17h67q21 0 18 -20l-13 -93h172zM356 219q86 0 130.5 43.5t44.5 123.5q0 53 -33 78t-104 25h-164l-38 -270h164z" />
    <glyph glyph-name="germandbls" unicode="&#xdf;" horiz-adv-x="612" 
d="M319 -6q-38 0 -71 6q-18 3 -15 22l7 50q3 19 22 16q19 -4 46 -4q77 0 117 32.5t40 91.5q0 97 -135 97h-33q-20 0 -17 20l8 56q3 16 16 16q76 0 121.5 38t45.5 99q0 42 -27.5 64.5t-80.5 22.5q-135 0 -154 -139l-66 -465q-3 -17 -21 -17h-61q-21 0 -18 20l66 467
q15 106 79 165t173 59q97 0 154 -48.5t57 -122.5q0 -65 -39.5 -114t-106.5 -68v-3q141 -24 141 -152q0 -95 -67 -152t-181 -57z" />
    <glyph glyph-name="agrave" unicode="&#xe0;" horiz-adv-x="614" 
d="M121 400q76 80 185 80q55 0 98 -22t58 -60h5l7 54q3 17 21 17h58q18 0 18 -15v-5l-61 -432q-3 -17 -21 -17h-58q-18 0 -18 15v5l8 51h-4q-26 -38 -72.5 -60t-99.5 -22q-90 0 -145 60.5t-55 155.5q0 114 76 195zM181 115q33 -35 91 -35q75 0 124.5 51.5t49.5 127.5
q0 58 -34.5 94.5t-93.5 36.5q-73 0 -121.5 -54t-48.5 -129q0 -58 33 -92zM243 686q3 7 14 7h74q16 0 23 -14l62 -115q3 -6 3 -10t-3 -8.5t-14 -4.5h-57q-15 0 -24 12l-76 117q-4 5 -4 10q0 3 2 6z" />
    <glyph glyph-name="aacute" unicode="&#xe1;" horiz-adv-x="614" 
d="M45 205q0 114 76 194.5t185 80.5q55 0 98 -22t58 -60h5l7 54q3 17 21 17h58q18 0 18 -15v-5l-61 -432q-3 -17 -21 -17h-58q-18 0 -18 15v5l8 51h-4q-26 -38 -72.5 -60t-99.5 -22q-90 0 -145 60.5t-55 155.5zM148 207q0 -58 33 -92.5t91 -34.5q75 0 124.5 51.5t49.5 127.5
q0 58 -34.5 94.5t-93.5 36.5q-73 0 -121.5 -54t-48.5 -129zM284 564l96 118q8 11 23 11h80q12 0 14 -5t2 -7q0 -5 -6 -12l-112 -118q-9 -10 -23 -10h-63q-12 0 -14.5 4.5t-2.5 6.5q0 6 6 12z" />
    <glyph glyph-name="acircumflex" unicode="&#xe2;" horiz-adv-x="614" 
d="M45 205q0 114 76 194.5t185 80.5q55 0 98 -22t58 -60h5l7 54q3 17 21 17h58q18 0 18 -15v-5l-61 -432q-3 -17 -21 -17h-58q-18 0 -18 15v5l8 51h-4q-26 -38 -72.5 -60t-99.5 -22q-90 0 -145 60.5t-55 155.5zM181 115q33 -35 91 -35q75 0 124.5 51.5t49.5 127.5
q0 58 -34.5 94.5t-93.5 36.5q-73 0 -121.5 -54t-48.5 -129q0 -58 33 -92zM195 564l121 119q10 10 23 10h69q14 0 22 -12l86 -118q5 -7 5 -12q0 -2 -2.5 -6t-13.5 -4h-54q-16 0 -23 11l-56 79h-4l-81 -81q-8 -9 -22 -9h-61q-13 0 -14.5 4.5t-1.5 6.5q0 6 7 12z" />
    <glyph glyph-name="atilde" unicode="&#xe3;" horiz-adv-x="614" 
d="M121 400q76 80 185 80q55 0 98 -22t58 -60h5l7 54q3 17 21 17h58q18 0 18 -15v-5l-61 -432q-3 -17 -21 -17h-58q-18 0 -18 15v5l8 51h-4q-26 -38 -72.5 -60t-99.5 -22q-90 0 -145 60.5t-55 155.5q0 114 76 195zM181 115q33 -35 91 -35q75 0 124.5 51.5t49.5 127.5
q0 58 -34.5 94.5t-93.5 36.5q-73 0 -121.5 -54t-48.5 -129q0 -58 33 -92zM185 567q9 58 38.5 88.5t75.5 30.5q7 0 14 -1t14 -4t11.5 -5t11 -7t9.5 -7t10 -8t9 -7q31 -25 49 -25q29 0 39 45q4 18 20 18h37q17 0 17 -17q0 -5 -1 -11q-10 -55 -39.5 -83.5t-73.5 -28.5
q-17 0 -33.5 7.5t-23 13t-23.5 19.5q-29 25 -47 25q-29 0 -39 -46q-4 -18 -21 -18h-37q-9 0 -13.5 5t-4.5 11q0 2 1 5z" />
    <glyph glyph-name="adieresis" unicode="&#xe4;" horiz-adv-x="614" 
d="M45 205q0 114 76 194.5t185 80.5q55 0 98 -22t58 -60h5l7 54q3 17 21 17h58q18 0 18 -15v-5l-61 -432q-3 -17 -21 -17h-58q-18 0 -18 15v5l8 51h-4q-26 -38 -72.5 -60t-99.5 -22q-90 0 -145 60.5t-55 155.5zM148 207q0 -58 33 -92.5t91 -34.5q75 0 124.5 51.5t49.5 127.5
q0 58 -34.5 94.5t-93.5 36.5q-73 0 -121.5 -54t-48.5 -129zM426 663q21 22 52 22q26 0 42.5 -16.5t16.5 -41.5q0 -32 -21.5 -53.5t-52.5 -21.5q-26 0 -42.5 16.5t-16.5 41.5q0 30 22 53zM189 610q0 30 21.5 52.5t52.5 22.5q26 0 42.5 -16.5t16.5 -41.5q0 -32 -21.5 -53.5
t-52.5 -21.5q-26 0 -42.5 16.5t-16.5 41.5z" />
    <glyph glyph-name="aring" unicode="&#xe5;" horiz-adv-x="614" 
d="M121 400q76 80 185 80q55 0 98 -22t58 -60h5l7 54q3 17 21 17h58q18 0 18 -15v-5l-61 -432q-3 -17 -21 -17h-58q-18 0 -18 15v5l8 51h-4q-26 -38 -72.5 -60t-99.5 -22q-90 0 -145 60.5t-55 155.5q0 114 76 195zM181 115q33 -35 91 -35q75 0 124.5 51.5t49.5 127.5
q0 58 -34.5 94.5t-93.5 36.5q-73 0 -121.5 -54t-48.5 -129q0 -58 33 -92zM243 636q0 54 39.5 93t96.5 39q49 0 81 -29t32 -72q0 -54 -40.5 -93t-95.5 -39q-48 0 -80.5 29t-32.5 72zM312 641q0 -21 12.5 -33t34.5 -12q28 0 46.5 19.5t18.5 46.5q0 20 -13 32t-35 12
q-29 0 -46.5 -18.5t-17.5 -46.5z" />
    <glyph glyph-name="ae" unicode="&#xe6;" horiz-adv-x="913" 
d="M25 117q0 77 57.5 116t157.5 39h151l1 10q2 15 2 28q0 38 -20 62.5t-79 24.5q-89 0 -115 -56q-6 -16 -21 -16h-62q-10 0 -13.5 5t-3.5 9q0 3 1 7q44 134 218 134q129 0 163 -80h3q71 80 193 80q97 0 155 -54.5t58 -146.5q0 -29 -7 -60q-3 -16 -21 -16h-362v-8
q0 -60 32.5 -91.5t94.5 -31.5q93 0 135 59q10 13 23 13h56q11 0 14.5 -4.5t3.5 -8.5t-2 -9q-29 -59 -90.5 -96t-143.5 -37q-132 0 -188 94h-3q-68 -94 -211 -94q-83 0 -130 35t-47 93zM492 275h281v2q0 121 -118 121q-61 0 -103 -33t-60 -90zM213 71q66 0 112 31t53 77l3 23
h-142q-114 0 -114 -74q0 -57 88 -57z" />
    <glyph glyph-name="ccedilla" unicode="&#xe7;" horiz-adv-x="570" 
d="M125 399q80 81 199 81q88 0 146 -46.5t62 -120.5v-4q0 -15 -18 -15h-66q-17 0 -20 18q-8 37 -37 57.5t-73 20.5q-75 0 -123 -53.5t-48 -129.5q0 -59 32 -93t90 -34q46 0 83 21t55 59q7 15 22 15h63q10 0 14 -4.5t4 -8.5q0 -3 -1 -6q-21 -66 -75 -110t-128 -54l-69 -157
q-4 -14 -22 -14h-61q-11 0 -13.5 4.5t-2.5 7.5q0 5 2 10l74 151q-78 14 -124 71t-46 139q0 113 81 195z" />
    <glyph glyph-name="egrave" unicode="&#xe8;" horiz-adv-x="575" 
d="M122 398q78 82 197 82q95 0 154.5 -55t59.5 -144q0 -29 -7 -62q-3 -16 -21 -16h-362v-2q0 -129 125 -129q46 0 82.5 16t54.5 43q9 13 23 13h56q11 0 15.5 -3.5t4.5 -7.5q0 -3 -2 -6q-28 -61 -90 -99.5t-145 -38.5q-103 0 -163 57t-60 154q0 116 78 198zM154 275h281v3
q0 59 -30.5 89.5t-87.5 30.5q-62 0 -104 -33.5t-59 -89.5zM224 686q3 7 14 7h74q16 0 23 -14l62 -115q3 -6 3 -10t-3 -8.5t-14 -4.5h-57q-15 0 -24 12l-76 117q-4 5 -4 10q0 3 2 6z" />
    <glyph glyph-name="eacute" unicode="&#xe9;" horiz-adv-x="575" 
d="M122 398q78 82 197 82q95 0 154.5 -55t59.5 -144q0 -29 -7 -62q-3 -16 -21 -16h-362v-2q0 -129 125 -129q46 0 82.5 16t54.5 43q9 13 23 13h56q11 0 15.5 -3.5t4.5 -7.5q0 -3 -2 -6q-28 -61 -90 -99.5t-145 -38.5q-103 0 -163 57t-60 154q0 116 78 198zM154 275h281v3
q0 59 -30.5 89.5t-87.5 30.5q-62 0 -104 -33.5t-59 -89.5zM265 564l96 118q8 11 23 11h80q12 0 14 -5t2 -7q0 -5 -6 -12l-112 -118q-9 -10 -23 -10h-63q-12 0 -14.5 4.5t-2.5 6.5q0 6 6 12z" />
    <glyph glyph-name="ecircumflex" unicode="&#xea;" horiz-adv-x="575" 
d="M122 398q78 82 197 82q95 0 154.5 -55t59.5 -144q0 -29 -7 -62q-3 -16 -21 -16h-362v-2q0 -129 125 -129q46 0 82.5 16t54.5 43q9 13 23 13h56q11 0 15.5 -3.5t4.5 -7.5q0 -3 -2 -6q-28 -61 -90 -99.5t-145 -38.5q-103 0 -163 57t-60 154q0 116 78 198zM435 275v3
q0 59 -30.5 89.5t-87.5 30.5q-62 0 -104 -33.5t-59 -89.5h281zM176 564l121 119q10 10 23 10h69q15 0 22 -12l86 -118q5 -7 5 -12q0 -2 -2.5 -6t-13.5 -4h-54q-16 0 -23 11l-56 79h-4l-81 -81q-8 -9 -22 -9h-61q-13 0 -14.5 4.5t-1.5 6.5q0 6 7 12z" />
    <glyph glyph-name="edieresis" unicode="&#xeb;" horiz-adv-x="575" 
d="M122 398q78 82 197 82q95 0 154.5 -55t59.5 -144q0 -29 -7 -62q-3 -16 -21 -16h-362v-2q0 -129 125 -129q46 0 82.5 16t54.5 43q9 13 23 13h56q11 0 15.5 -3.5t4.5 -7.5q0 -3 -2 -6q-28 -61 -90 -99.5t-145 -38.5q-103 0 -163 57t-60 154q0 116 78 198zM154 275h281v3
q0 59 -30.5 89.5t-87.5 30.5q-62 0 -104 -33.5t-59 -89.5zM385 610q0 30 21.5 52.5t52.5 22.5q26 0 42.5 -16.5t16.5 -41.5q0 -32 -21.5 -53.5t-52.5 -21.5q-26 0 -42.5 16.5t-16.5 41.5zM170 610q0 30 21.5 52.5t52.5 22.5q26 0 42.5 -16.5t16.5 -41.5q0 -32 -21.5 -53.5
t-52.5 -21.5q-26 0 -42.5 16.5t-16.5 41.5z" />
    <glyph glyph-name="igrave" unicode="&#xec;" horiz-adv-x="247" 
d="M43 20l61 432q3 17 21 17h61q18 0 18 -15v-5l-61 -432q-3 -17 -21 -17h-61q-18 0 -18 15v5zM78 687q4 6 15 6h69q17 0 23 -15l45 -115q3 -6 3 -11q0 -11 -17 -11h-62q-15 0 -22 14l-54 115q-2 5 -2 9t2 8z" />
    <glyph glyph-name="iacute" unicode="&#xed;" horiz-adv-x="247" 
d="M43 20l61 432q3 17 21 17h61q18 0 18 -15v-5l-61 -432q-3 -17 -21 -17h-61q-18 0 -18 15v5zM107 564l80 117q7 12 22 12h67q12 0 14.5 -4.5t2.5 -7.5q0 -5 -5 -11l-88 -118q-9 -11 -23 -11h-58q-11 0 -13.5 4.5t-2.5 7.5q0 5 4 11z" />
    <glyph glyph-name="icircumflex" unicode="&#xee;" horiz-adv-x="247" 
d="M43 20l61 432q3 17 21 17h61q18 0 18 -15v-5l-61 -432q-3 -17 -21 -17h-61q-18 0 -18 15v5zM35 564l96 118q8 11 23 11h67q15 0 23 -14l62 -116q3 -5 3 -9t-3 -8.5t-14 -4.5h-48q-16 0 -22 13l-42 79h-2l-64 -81q-8 -11 -23 -11h-45q-12 0 -14.5 4.5t-2.5 6.5q0 6 6 12z
" />
    <glyph glyph-name="idieresis" unicode="&#xef;" horiz-adv-x="247" 
d="M43 20l61 432q3 17 21 17h61q18 0 18 -15v-5l-61 -432q-3 -17 -21 -17h-61q-18 0 -18 15v5zM210 619q4 29 23 47.5t46 18.5t39 -16.5t12 -36.5q0 -6 -1 -13q-5 -30 -23 -48q-19 -19 -46 -19t-39 16.5t-12 37.5q0 6 1 13zM27 619q4 29 23 47.5t46 18.5q26 0 38.5 -17
t12.5 -39q0 -5 -1 -10q-5 -29 -24 -48t-45 -19q-27 0 -39 16.5t-12 37.5q0 6 1 13z" />
    <glyph glyph-name="eth" unicode="&#xf0;" horiz-adv-x="591" 
d="M456 618q98 -110 98 -279q0 -177 -93 -271q-77 -79 -192 -79q-98 0 -161.5 60.5t-63.5 155.5q0 107 78.5 184t191.5 77q94 0 141 -53q-12 93 -74 158l-96 -61q-15 -10 -27 5l-12 18q-12 14 5 26l83 52q-39 29 -93 51q-18 8 -9 25l22 40q8 17 25 9q78 -30 132 -76l97 62
q15 10 27 -5l13 -18q11 -15 -6 -26zM273 80q73 0 122 51.5t49 121.5q0 56 -35 91t-95 35q-72 0 -119.5 -50.5t-47.5 -120.5q0 -57 34 -92.5t92 -35.5z" />
    <glyph glyph-name="ntilde" unicode="&#xf1;" horiz-adv-x="586" 
d="M43 20l61 432q3 17 21 17h58q18 0 18 -15v-5l-7 -52h4q52 83 167 83q92 0 134 -57q31 -39 31 -101q0 -18 -3 -39l-38 -266q-1 -17 -20 -17h-62q-18 0 -18 17v3l34 239q3 18 3 34q0 96 -94 96q-62 0 -104 -36t-51 -97l-34 -239q-3 -17 -21 -17h-61q-18 0 -18 15v5z
M173 567q9 58 38.5 88.5t75.5 30.5q7 0 14 -1t14 -4t11.5 -5t11 -7t9.5 -7t10 -8t9 -7q31 -25 49 -25q29 0 39 45q4 18 20 18h37q17 0 17 -17q0 -5 -1 -11q-10 -55 -39.5 -83.5t-73.5 -28.5q-17 0 -33.5 7.5t-23 13t-23.5 19.5q-29 25 -47 25q-29 0 -39 -46q-4 -18 -21 -18
h-37q-9 0 -13.5 5t-4.5 11q0 2 1 5z" />
    <glyph glyph-name="ograve" unicode="&#xf2;" horiz-adv-x="592" 
d="M45 207q0 112 82 192.5t198 80.5q98 0 160 -61t62 -156q0 -112 -81.5 -193t-197.5 -81q-99 0 -161 61.5t-62 156.5zM148 210q0 -60 33 -95t92 -35q74 0 123 52t49 127q0 59 -33.5 95t-91.5 36q-73 0 -122.5 -52.5t-49.5 -127.5zM230 686q3 7 14 7h74q16 0 23 -14l62 -115
q3 -6 3 -10t-3 -8.5t-14 -4.5h-57q-15 0 -24 12l-76 117q-4 5 -4 10q0 3 2 6z" />
    <glyph glyph-name="oacute" unicode="&#xf3;" horiz-adv-x="592" 
d="M45 207q0 112 82 192.5t198 80.5q98 0 160 -61t62 -156q0 -112 -81.5 -193t-197.5 -81q-99 0 -161 61.5t-62 156.5zM148 210q0 -60 33 -95t92 -35q74 0 123 52t49 127q0 59 -33.5 95t-91.5 36q-73 0 -122.5 -52.5t-49.5 -127.5zM272 564l96 118q8 11 23 11h80q12 0 14 -5
t2 -7q0 -5 -6 -12l-112 -118q-9 -10 -23 -10h-63q-12 0 -14.5 4.5t-2.5 6.5q0 6 6 12z" />
    <glyph glyph-name="ocircumflex" unicode="&#xf4;" horiz-adv-x="592" 
d="M45 207q0 112 82 192.5t198 80.5q98 0 160 -61t62 -156q0 -112 -81.5 -193t-197.5 -81q-99 0 -161 61.5t-62 156.5zM181 115q33 -35 92 -35q74 0 123 52t49 127q0 59 -33.5 95t-91.5 36q-73 0 -122.5 -52.5t-49.5 -127.5q0 -60 33 -95zM182 564l121 119q10 10 23 10h69
q15 0 22 -12l86 -118q5 -7 5 -12q0 -2 -2.5 -6t-13.5 -4h-54q-16 0 -23 11l-56 79h-4l-81 -81q-8 -9 -22 -9h-61q-13 0 -14.5 4.5t-1.5 6.5q0 6 7 12z" />
    <glyph glyph-name="otilde" unicode="&#xf5;" horiz-adv-x="592" 
d="M127 400q82 80 198 80q98 0 160 -61t62 -156q0 -112 -81.5 -193t-197.5 -81q-99 0 -161 61.5t-62 156.5q0 112 82 193zM148 210q0 -60 33 -95t92 -35q74 0 123 52t49 127q0 59 -33.5 95t-91.5 36q-73 0 -122.5 -52.5t-49.5 -127.5zM172 567q9 58 38.5 88.5t75.5 30.5
q7 0 14 -1t14 -4t11.5 -5t11 -7t9.5 -7t10 -8t9 -7q31 -25 49 -25q29 0 39 45q5 18 20 18h37q17 0 17 -17q0 -5 -1 -11q-10 -55 -39.5 -83.5t-73.5 -28.5q-17 0 -33.5 7.5t-23 13t-23.5 19.5q-29 25 -47 25q-29 0 -39 -46q-5 -18 -21 -18h-37q-9 0 -13.5 5t-4.5 11q0 2 1 5z
" />
    <glyph glyph-name="odieresis" unicode="&#xf6;" horiz-adv-x="592" 
d="M45 207q0 112 82 192.5t198 80.5q98 0 160 -61t62 -156q0 -112 -81.5 -193t-197.5 -81q-99 0 -161 61.5t-62 156.5zM181 115q33 -35 92 -35q74 0 123 52t49 127q0 59 -33.5 95t-91.5 36q-73 0 -122.5 -52.5t-49.5 -127.5q0 -60 33 -95zM391 610q0 30 21.5 52.5t52.5 22.5
q26 0 42.5 -16.5t16.5 -41.5q0 -32 -21.5 -53.5t-52.5 -21.5q-26 0 -42.5 16.5t-16.5 41.5zM176 610q0 30 21.5 52.5t52.5 22.5q26 0 42.5 -16.5t16.5 -41.5q0 -32 -21.5 -53.5t-52.5 -21.5q-26 0 -42.5 16.5t-16.5 41.5z" />
    <glyph glyph-name="divide" unicode="&#xf7;" 
d="M329 433q-26 0 -42 15.5t-16 39.5q0 33 21.5 53.5t51.5 20.5q27 0 43.5 -15t16.5 -39q0 -31 -21.5 -53t-53.5 -22zM103 273q-20 0 -17 20l8 50q1 18 20 18h406q20 0 17 -20l-8 -50q-1 -18 -20 -18h-406zM279 72q-27 0 -43.5 15t-16.5 39q0 31 21.5 53t53.5 22
q26 0 42 -15.5t16 -39.5q0 -33 -21.5 -53.5t-51.5 -20.5z" />
    <glyph glyph-name="oslash" unicode="&#xf8;" horiz-adv-x="592" 
d="M127 400q82 80 198 80q52 0 94 -18l45 63q6 10 13 10q6 0 12 -5l23 -14q10 -6 10 -15q0 -5 -4 -12l-44 -60q73 -62 73 -166q0 -112 -81.5 -193t-197.5 -81q-52 0 -96 19l-46 -64q-6 -10 -13 -10q-6 0 -12 5l-23 14q-10 7 -10 15q0 6 4 12l45 62q-72 61 -72 165
q0 112 82 193zM273 76q74 0 124.5 54t50.5 130q0 60 -33 95l-194 -270q23 -9 52 -9zM175 116l194 269q-22 8 -49 8q-74 0 -125 -53.5t-51 -129.5q0 -58 31 -94z" />
    <glyph glyph-name="ugrave" unicode="&#xf9;" horiz-adv-x="583" 
d="M59 186l38 266q3 17 21 17h61q18 0 18 -15v-5l-34 -239q-3 -19 -3 -36q0 -94 89 -94q61 0 104.5 36t52.5 97l33 239q3 17 21 17h61q18 0 18 -15v-5l-61 -432q-1 -17 -20 -17h-59q-18 0 -18 17v3l8 53h-3q-51 -84 -165 -84q-81 0 -125 47q-40 43 -40 112q0 18 3 38z
M222 686q3 7 14 7h74q16 0 23 -14l62 -115q3 -6 3 -10t-3 -8.5t-14 -4.5h-57q-15 0 -24 12l-76 117q-4 5 -4 10q0 3 2 6z" />
    <glyph glyph-name="uacute" unicode="&#xfa;" horiz-adv-x="583" 
d="M59 186l38 266q3 17 21 17h61q18 0 18 -15v-5l-34 -239q-3 -19 -3 -36q0 -94 89 -94q61 0 104.5 36t52.5 97l33 239q3 17 21 17h61q18 0 18 -15v-5l-61 -432q-1 -17 -20 -17h-59q-18 0 -18 17v3l8 53h-3q-51 -84 -165 -84q-81 0 -125 47q-40 43 -40 112q0 18 3 38z
M263 564l96 118q8 11 23 11h80q12 0 14 -5t2 -7q0 -5 -6 -12l-112 -118q-9 -10 -23 -10h-63q-12 0 -14.5 4.5t-2.5 6.5q0 6 6 12z" />
    <glyph glyph-name="ucircumflex" unicode="&#xfb;" horiz-adv-x="583" 
d="M59 186l38 266q3 17 21 17h61q18 0 18 -15v-5l-34 -239q-3 -19 -3 -36q0 -94 89 -94q61 0 104.5 36t52.5 97l33 239q3 17 21 17h61q18 0 18 -15v-5l-61 -432q-1 -17 -20 -17h-59q-18 0 -18 17v3l8 53h-3q-51 -84 -165 -84q-81 0 -125 47q-40 43 -40 112q0 18 3 38z
M174 564l121 119q10 10 23 10h69q15 0 22 -12l86 -118q5 -7 5 -12q0 -2 -2.5 -6t-13.5 -4h-54q-16 0 -23 11l-56 79h-4l-81 -81q-8 -9 -22 -9h-61q-13 0 -14.5 4.5t-1.5 6.5q0 6 7 12z" />
    <glyph glyph-name="udieresis" unicode="&#xfc;" horiz-adv-x="583" 
d="M59 186l38 266q3 17 21 17h61q18 0 18 -15v-5l-34 -239q-3 -19 -3 -36q0 -94 89 -94q61 0 104.5 36t52.5 97l33 239q3 17 21 17h61q18 0 18 -15v-5l-61 -432q-1 -17 -20 -17h-59q-18 0 -18 17v3l8 53h-3q-51 -84 -165 -84q-81 0 -125 47q-40 43 -40 112q0 18 3 38z
M405 663q21 22 52 22q26 0 42.5 -16.5t16.5 -41.5q0 -32 -21.5 -53.5t-52.5 -21.5q-26 0 -42.5 16.5t-16.5 41.5q0 30 22 53zM168 610q0 30 21.5 52.5t52.5 22.5q26 0 42.5 -16.5t16.5 -41.5q0 -32 -21.5 -53.5t-52.5 -21.5q-26 0 -42.5 16.5t-16.5 41.5z" />
    <glyph glyph-name="yacute" unicode="&#xfd;" horiz-adv-x="586" 
d="M39 -62h62q16 0 19 -18q13 -62 110 -62q133 0 152 136l13 89h-4q-51 -83 -165 -83q-82 0 -126 47q-39 42 -39 110q0 18 3 38l36 257q3 17 21 17h61q18 0 18 -15v-5l-33 -229q-3 -19 -3 -36q0 -94 89 -94q60 0 104.5 36.5t53.5 96.5l32 228q3 18 21 18h61q18 0 18 -15v-5
l-64 -455q-15 -106 -80 -163.5t-172 -57.5q-93 0 -149 40t-58 106v3q0 16 19 16zM266 564l96 118q8 11 23 11h80q12 0 14 -5t2 -7q0 -5 -6 -12l-112 -118q-9 -10 -23 -10h-63q-12 0 -14.5 4.5t-2.5 6.5q0 6 6 12z" />
    <glyph glyph-name="thorn" unicode="&#xfe;" horiz-adv-x="615" 
d="M368 480q90 0 146 -61t56 -154q0 -111 -76 -193.5t-186 -82.5q-53 0 -94.5 22t-57.5 60h-5l-38 -269q-3 -18 -21 -18h-61q-21 0 -18 20l123 879q3 17 21 17h61q21 0 18 -20l-39 -282h3q26 38 71.5 60t96.5 22zM293 80q74 0 124 53t50 128q0 58 -32.5 93.5t-91.5 35.5
q-74 0 -124 -52.5t-50 -128.5q0 -58 32.5 -93.5t91.5 -35.5z" />
    <glyph glyph-name="ydieresis" unicode="&#xff;" horiz-adv-x="586" 
d="M39 -62h62q16 0 19 -18q13 -62 110 -62q133 0 152 136l13 89h-4q-51 -83 -165 -83q-82 0 -126 47q-39 42 -39 110q0 18 3 38l36 257q3 17 21 17h61q18 0 18 -15v-5l-33 -229q-3 -19 -3 -36q0 -94 89 -94q60 0 104.5 36.5t53.5 96.5l32 228q3 18 21 18h61q18 0 18 -15v-5
l-64 -455q-15 -106 -80 -163.5t-172 -57.5q-93 0 -149 40t-58 106v3q0 16 19 16zM192 663q21 22 52 22q26 0 42.5 -16.5t16.5 -41.5q0 -32 -21.5 -53.5t-52.5 -21.5q-26 0 -42.5 16.5t-16.5 41.5q0 30 22 53zM385 610q0 30 21.5 52.5t52.5 22.5q26 0 42.5 -16.5t16.5 -41.5
q0 -32 -21.5 -53.5t-52.5 -21.5q-26 0 -42.5 16.5t-16.5 41.5z" />
    <glyph glyph-name="Amacron" unicode="&#x100;" horiz-adv-x="713" 
d="M-6 23l368 664q7 13 23 13h72q18 0 22 -16l180 -663q1 -4 1 -7q0 -4 -3.5 -9t-13.5 -5h-68q-17 0 -22 16l-35 135h-339l-75 -138q-7 -13 -23 -13h-74q-11 0 -14 4.5t-3 7.5q0 5 4 11zM494 246l-85 328h-2l-177 -328h264zM288 815l6 43q3 18 20 18h263q17 0 17 -15v-5
l-6 -43q-3 -18 -20 -18h-263q-17 0 -17 15v5z" />
    <glyph glyph-name="amacron" unicode="&#x101;" horiz-adv-x="614" 
d="M121 400q76 80 185 80q55 0 98 -22t58 -60h5l7 54q3 17 21 17h58q18 0 18 -15v-5l-61 -432q-3 -17 -21 -17h-58q-18 0 -18 15v5l8 51h-4q-26 -38 -72.5 -60t-99.5 -22q-90 0 -145 60.5t-55 155.5q0 114 76 195zM181 115q33 -35 91 -35q75 0 124.5 51.5t49.5 127.5
q0 58 -34.5 94.5t-93.5 36.5q-73 0 -121.5 -54t-48.5 -129q0 -58 33 -92zM208 584l6 43q3 18 20 18h263q17 0 17 -15v-5l-6 -43q-3 -18 -20 -18h-263q-17 0 -17 15v5z" />
    <glyph glyph-name="Abreve" unicode="&#x102;" horiz-adv-x="713" 
d="M-6 23l368 664q7 13 23 13h72q18 0 22 -16l180 -663q1 -4 1 -7q0 -4 -3.5 -9t-13.5 -5h-68q-17 0 -22 16l-35 135h-339l-75 -138q-7 -13 -23 -13h-74q-11 0 -14 4.5t-3 7.5q0 5 4 11zM494 246l-85 328h-2l-177 -328h264zM314 916h48q18 0 18 -20q0 -57 58 -57q64 0 81 60
q6 17 21 17h47q9 0 13.5 -5t4.5 -11q0 -2 -1 -5q-13 -62 -57 -93q-44 -32 -110 -32t-104.5 31t-38.5 85v12q2 18 20 18z" />
    <glyph glyph-name="abreve" unicode="&#x103;" horiz-adv-x="614" 
d="M45 205q0 114 76 194.5t185 80.5q55 0 98 -22t58 -60h5l7 54q3 17 21 17h58q18 0 18 -15v-5l-61 -432q-3 -17 -21 -17h-58q-18 0 -18 15v5l8 51h-4q-26 -38 -72.5 -60t-99.5 -22q-90 0 -145 60.5t-55 155.5zM181 115q33 -35 91 -35q75 0 124.5 51.5t49.5 127.5
q0 58 -34.5 94.5t-93.5 36.5q-73 0 -121.5 -54t-48.5 -129q0 -58 33 -92zM214 655v12q2 18 20 18h48q18 0 18 -20q0 -57 58 -57q64 0 81 60q6 17 21 17h47q9 0 13.5 -5t4.5 -11q0 -2 -1 -5q-13 -62 -57 -93q-44 -32 -110 -32t-104.5 31t-38.5 85z" />
    <glyph glyph-name="Aogonek" unicode="&#x104;" horiz-adv-x="713" 
d="M-6 23l368 664q7 13 23 13h72q18 0 22 -16l181 -665q1 -5 1 -10q0 -11 -9 -16q-49 -30 -74 -53.5t-25 -46.5q0 -31 50 -31q16 0 24 2h3q8 0 11 -3.5t3 -9.5q0 -3 -1 -7l-6 -38q-2 -17 -20 -20q-20 -3 -38 -3q-53 0 -83 24.5t-30 62.5q0 78 105 131q-13 1 -18 15l-35 135
h-339l-75 -138q-7 -13 -23 -13h-74q-11 0 -14 4.5t-3 7.5q0 5 4 11zM494 246l-85 328h-2l-177 -328h264z" />
    <glyph glyph-name="aogonek" unicode="&#x105;" horiz-adv-x="614" 
d="M45 205q0 114 76 194.5t185 80.5q55 0 98 -22t58 -60h5l7 54q3 17 21 17h58q18 0 18 -15v-5l-61 -432q-2 -16 -15 -24q-49 -30 -74 -53t-25 -47q0 -31 49 -31q16 0 25 2h3q8 0 11 -3.5t3 -9.5q0 -3 -1 -7l-6 -38q-3 -17 -20 -20q-20 -3 -39 -3q-52 0 -82 24.5t-30 62.5
q0 79 111 133q-7 3 -7 13v4l8 51h-4q-26 -38 -72.5 -60t-99.5 -22q-90 0 -145 60.5t-55 155.5zM181 115q33 -35 91 -35q75 0 124.5 51.5t49.5 127.5q0 58 -34.5 94.5t-93.5 36.5q-73 0 -121.5 -54t-48.5 -129q0 -58 33 -92z" />
    <glyph glyph-name="Cacute" unicode="&#x106;" horiz-adv-x="807" 
d="M123 503q53 94 147.5 151t205.5 57q123 0 207.5 -68t94.5 -185v-5q0 -15 -18 -15h-73q-17 0 -20 18q-8 73 -58.5 114t-132.5 41q-127 0 -212 -89.5t-85 -217.5q0 -100 56 -157.5t155 -57.5q84 0 150 42t97 116q7 15 22 15h72q10 0 13 -5t3 -10q0 -4 -1 -8
q-41 -116 -139 -183t-220 -67q-142 0 -230 87.5t-88 224.5q0 108 54 202zM425 795l96 118q8 11 23 11h80q12 0 14 -5t2 -7q0 -5 -6 -12l-112 -118q-9 -10 -23 -10h-63q-12 0 -14.5 4.5t-2.5 6.5q0 6 6 12z" />
    <glyph glyph-name="cacute" unicode="&#x107;" horiz-adv-x="570" 
d="M44 204q0 113 80.5 194.5t199.5 81.5q88 0 146 -46.5t62 -120.5v-4q0 -15 -18 -15h-66q-17 0 -20 18q-8 37 -37 57.5t-73 20.5q-75 0 -123 -53.5t-48 -129.5q0 -59 32 -93t90 -34q46 0 83 21t55 59q7 15 22 15h63q10 0 14 -4.5t4 -8.5q0 -3 -1 -6q-24 -75 -90 -121
t-154 -46q-100 0 -160.5 60t-60.5 155zM270 564l96 118q8 11 23 11h80q12 0 14 -5t2 -7q0 -5 -6 -12l-112 -118q-9 -10 -23 -10h-63q-12 0 -14.5 4.5t-2.5 6.5q0 6 6 12z" />
    <glyph glyph-name="Ccircumflex" unicode="&#x108;" horiz-adv-x="807" 
d="M123 503q53 94 147.5 151t205.5 57q123 0 207.5 -68t94.5 -185v-5q0 -15 -18 -15h-73q-17 0 -20 18q-8 73 -58.5 114t-132.5 41q-127 0 -212 -89.5t-85 -217.5q0 -100 56 -157.5t155 -57.5q84 0 150 42t97 116q7 15 22 15h72q10 0 13 -5t3 -10q0 -4 -1 -8
q-41 -116 -139 -183t-220 -67q-142 0 -230 87.5t-88 224.5q0 108 54 202zM335 795l121 119q10 10 23 10h69q14 0 22 -12l86 -118q5 -7 5 -12q0 -2 -2.5 -6t-13.5 -4h-54q-16 0 -23 11l-56 79h-4l-81 -81q-8 -9 -22 -9h-61q-13 0 -14.5 4.5t-1.5 6.5q0 6 7 12z" />
    <glyph glyph-name="ccircumflex" unicode="&#x109;" horiz-adv-x="570" 
d="M125 399q80 81 199 81q88 0 146 -46.5t62 -120.5v-4q0 -15 -18 -15h-66q-17 0 -20 18q-8 37 -37 57.5t-73 20.5q-75 0 -123 -53.5t-48 -129.5q0 -59 32 -93t90 -34q46 0 83 21t55 59q7 15 22 15h63q10 0 14 -4.5t4 -8.5q0 -3 -1 -6q-24 -75 -90 -121t-154 -46
q-100 0 -160.5 60t-60.5 155q0 113 81 195zM180 564l121 119q10 10 23 10h69q15 0 22 -12l86 -118q5 -7 5 -12q0 -2 -2.5 -6t-13.5 -4h-54q-16 0 -23 11l-56 79h-4l-81 -81q-8 -9 -22 -9h-61q-13 0 -14.5 4.5t-1.5 6.5q0 6 7 12z" />
    <glyph glyph-name="Cdotaccent" unicode="&#x10a;" horiz-adv-x="807" 
d="M123 503q53 94 147.5 151t205.5 57q123 0 207.5 -68t94.5 -185v-5q0 -15 -18 -15h-73q-17 0 -20 18q-8 73 -58.5 114t-132.5 41q-127 0 -212 -89.5t-85 -217.5q0 -100 56 -157.5t155 -57.5q84 0 150 42t97 116q7 15 22 15h72q10 0 13 -5t3 -10q0 -4 -1 -8
q-41 -116 -139 -183t-220 -67q-142 0 -230 87.5t-88 224.5q0 108 54 202zM434 842q0 31 22 54t55 23q27 0 44 -16.5t17 -42.5q0 -32 -22 -54.5t-54 -22.5q-27 0 -44.5 16.5t-17.5 42.5z" />
    <glyph glyph-name="cdotaccent" unicode="&#x10b;" horiz-adv-x="570" 
d="M44 204q0 113 80.5 194.5t199.5 81.5q88 0 146 -46.5t62 -120.5v-4q0 -15 -18 -15h-66q-17 0 -20 18q-8 37 -37 57.5t-73 20.5q-75 0 -123 -53.5t-48 -129.5q0 -59 32 -93t90 -34q46 0 83 21t55 59q7 15 22 15h63q10 0 14 -4.5t4 -8.5q0 -3 -1 -6q-24 -75 -90 -121
t-154 -46q-100 0 -160.5 60t-60.5 155zM280 611q0 31 22 54t55 23q27 0 44 -16.5t17 -42.5q0 -32 -22 -54.5t-54 -22.5q-27 0 -44.5 16.5t-17.5 42.5z" />
    <glyph glyph-name="Ccaron" unicode="&#x10c;" horiz-adv-x="807" 
d="M69 301q0 108 53.5 202t148 151t205.5 57q123 0 207.5 -68t94.5 -185v-5q0 -15 -18 -15h-73q-17 0 -20 18q-8 73 -58.5 114t-132.5 41q-127 0 -212 -89.5t-85 -217.5q0 -100 56 -157.5t155 -57.5q84 0 150 42t97 116q7 15 22 15h72q10 0 13 -5t3 -10q0 -4 -1 -8
q-41 -116 -139 -183t-220 -67q-142 0 -230 87.5t-88 224.5zM347 918q3 6 14 6h54q15 0 23 -12l57 -79h3l81 81q10 10 22 10h61q13 0 14.5 -5t1.5 -6q0 -7 -7 -13l-121 -119q-9 -9 -23 -9h-69q-15 0 -23 11l-85 118q-4 6 -4 12q0 2 1 5z" />
    <glyph glyph-name="ccaron" unicode="&#x10d;" horiz-adv-x="570" 
d="M125 399q80 81 199 81q88 0 146 -46.5t62 -120.5v-4q0 -15 -18 -15h-66q-17 0 -20 18q-8 37 -37 57.5t-73 20.5q-75 0 -123 -53.5t-48 -129.5q0 -59 32 -93t90 -34q46 0 83 21t55 59q7 15 22 15h63q10 0 14 -4.5t4 -8.5q0 -3 -1 -6q-24 -75 -90 -121t-154 -46
q-100 0 -160.5 60t-60.5 155q0 113 81 195zM192 687q3 6 14 6h54q15 0 23 -12l57 -79h3l81 81q10 10 22 10h61q13 0 14.5 -5t1.5 -6q0 -7 -7 -13l-121 -119q-9 -9 -23 -9h-69q-15 0 -23 11l-85 118q-4 6 -4 12q0 2 1 5z" />
    <glyph glyph-name="Dcaron" unicode="&#x10e;" horiz-adv-x="729" 
d="M58 20l93 663q3 17 21 17h200q144 0 232 -84t88 -223q0 -167 -116.5 -280t-294.5 -113h-205q-18 0 -18 15v5zM175 99h113q130 0 212 86t82 213q0 100 -56.5 151.5t-166.5 51.5h-113zM253 918q3 6 14 6h54q15 0 23 -12l57 -79h3l81 81q10 10 22 10h61q13 0 14.5 -5t1.5 -6
q0 -7 -7 -13l-121 -119q-9 -9 -23 -9h-69q-15 0 -23 11l-85 118q-4 6 -4 12q0 2 1 5z" />
    <glyph glyph-name="dcaron" unicode="&#x10f;" horiz-adv-x="742" 
d="M45 204q0 111 76 193.5t186 82.5q53 0 95 -22t58 -60h4l40 285q3 17 21 17h61q18 0 18 -15v-5l-93 -663q-3 -17 -21 -17h-59q-17 0 -17 15v5l7 51h-4q-26 -38 -72 -60t-98 -22q-90 0 -146 61t-56 154zM181 115q32 -35 91 -35q74 0 124 52.5t50 128.5q0 58 -32.5 93.5
t-90.5 35.5q-75 0 -125 -53.5t-50 -128.5q0 -58 33 -93zM665 453l33 240q3 18 21 18h64q18 0 18 -14q0 -3 -1 -7l-47 -240q-3 -17 -21 -17h-49q-18 0 -18 15v5z" />
    <glyph glyph-name="Dcroat" unicode="&#x110;" horiz-adv-x="745" 
d="M22 328l7 45q3 18 20 18h77l41 292q3 17 21 17h200q144 0 232 -84t88 -223q0 -167 -116.5 -280t-294.5 -113h-205q-18 0 -18 15v5l40 288h-74q-18 0 -18 17v3zM191 99h113q130 0 212 86t82 213q0 100 -56.5 151.5t-166.5 51.5h-113l-30 -210h145q17 0 17 -15v-5l-6 -45
q-3 -18 -20 -18h-147z" />
    <glyph glyph-name="dcroat" unicode="&#x111;" horiz-adv-x="623" 
d="M663 606q21 0 18 -20l-5 -36q-3 -17 -21 -17h-73l-73 -516q-1 -17 -20 -17h-59q-21 0 -18 20l7 51h-3q-25 -39 -70.5 -60.5t-97.5 -21.5q-89 0 -147 59.5t-58 148.5q0 109 77 189t185 80q53 0 94.5 -22t56.5 -60h5l21 149h-155q-21 0 -18 20l5 35q3 18 21 18h157l11 76
q3 18 21 18h61q20 0 18 -20l-10 -74h70zM270 79q72 0 122.5 51t50.5 122q0 55 -34 89.5t-93 34.5q-73 0 -122 -51t-49 -122q0 -55 33 -89.5t92 -34.5z" />
    <glyph glyph-name="Emacron" unicode="&#x112;" horiz-adv-x="629" 
d="M58 20l93 663q3 17 21 17h442q18 0 18 -15v-5l-8 -60q-3 -18 -21 -18h-357l-29 -204h280q18 0 18 -15v-5l-8 -58q-3 -18 -21 -18h-282l-29 -204h358q18 0 18 -15v-5l-8 -60q-3 -18 -21 -18h-446q-18 0 -18 15v5zM258 815l6 43q3 18 20 18h263q17 0 17 -15v-5l-6 -43
q-3 -18 -20 -18h-263q-17 0 -17 15v5z" />
    <glyph glyph-name="emacron" unicode="&#x113;" horiz-adv-x="575" 
d="M122 398q78 82 197 82q95 0 154.5 -55t59.5 -144q0 -29 -7 -62q-3 -16 -21 -16h-362v-2q0 -129 125 -129q46 0 82.5 16t54.5 43q9 13 23 13h56q11 0 15.5 -3.5t4.5 -7.5q0 -3 -2 -6q-28 -61 -90 -99.5t-145 -38.5q-103 0 -163 57t-60 154q0 116 78 198zM435 275v3
q0 59 -30.5 89.5t-87.5 30.5q-62 0 -104 -33.5t-59 -89.5h281zM189 584l6 43q3 18 20 18h263q17 0 17 -15v-5l-6 -43q-3 -18 -20 -18h-263q-17 0 -17 15v5z" />
    <glyph glyph-name="Ebreve" unicode="&#x114;" horiz-adv-x="629" 
d="M58 20l93 663q3 17 21 17h442q18 0 18 -15v-5l-8 -60q-3 -18 -21 -18h-357l-29 -204h280q18 0 18 -15v-5l-8 -58q-3 -18 -21 -18h-282l-29 -204h358q18 0 18 -15v-5l-8 -60q-3 -18 -21 -18h-446q-18 0 -18 15v5zM264 898q2 18 20 18h48q18 0 18 -20q0 -57 58 -57
q64 0 81 60q6 17 21 17h47q9 0 13.5 -5t4.5 -11q0 -2 -1 -5q-13 -62 -57 -93q-44 -32 -110 -32t-104.5 31t-38.5 85v12z" />
    <glyph glyph-name="ebreve" unicode="&#x115;" horiz-adv-x="575" 
d="M44 200q0 116 78 198t197 82q95 0 154.5 -55t59.5 -144q0 -29 -7 -62q-3 -16 -21 -16h-362v-2q0 -129 125 -129q46 0 82.5 16t54.5 43q9 13 23 13h56q11 0 15.5 -3.5t4.5 -7.5q0 -3 -2 -6q-28 -61 -90 -99.5t-145 -38.5q-103 0 -163 57t-60 154zM195 667q1 18 20 18h48
q18 0 18 -20q0 -57 58 -57q64 0 81 60q6 17 21 17h47q9 0 13.5 -5t4.5 -11q0 -2 -1 -5q-13 -62 -57 -93q-44 -32 -110 -32t-104.5 31t-38.5 85v12zM154 275h281v3q0 59 -30.5 89.5t-87.5 30.5q-62 0 -104 -33.5t-59 -89.5z" />
    <glyph glyph-name="Edotaccent" unicode="&#x116;" horiz-adv-x="629" 
d="M58 20l93 663q3 17 21 17h442q18 0 18 -15v-5l-8 -60q-3 -18 -21 -18h-357l-29 -204h280q18 0 18 -15v-5l-8 -58q-3 -18 -21 -18h-282l-29 -204h358q18 0 18 -15v-5l-8 -60q-3 -18 -21 -18h-446q-18 0 -18 15v5zM366 896q22 23 55 23q27 0 44 -16.5t17 -42.5
q0 -32 -22 -54.5t-54 -22.5q-27 0 -44.5 16.5t-17.5 42.5q0 31 22 54z" />
    <glyph glyph-name="edotaccent" unicode="&#x117;" horiz-adv-x="575" 
d="M44 200q0 116 78 198t197 82q95 0 154.5 -55t59.5 -144q0 -29 -7 -62q-3 -16 -21 -16h-362v-2q0 -129 125 -129q46 0 82.5 16t54.5 43q9 13 23 13h56q11 0 15.5 -3.5t4.5 -7.5q0 -3 -2 -6q-28 -61 -90 -99.5t-145 -38.5q-103 0 -163 57t-60 154zM435 275v3
q0 59 -30.5 89.5t-87.5 30.5q-62 0 -104 -33.5t-59 -89.5h281zM275 611q0 31 22 54t55 23q27 0 44 -16.5t17 -42.5q0 -32 -22 -54.5t-54 -22.5q-27 0 -44.5 16.5t-17.5 42.5z" />
    <glyph glyph-name="Eogonek" unicode="&#x118;" horiz-adv-x="629" 
d="M58 20l93 663q3 17 21 17h442q18 0 18 -15v-5l-8 -60q-3 -18 -21 -18h-357l-29 -204h280q18 0 18 -15v-5l-8 -58q-3 -18 -21 -18h-282l-29 -204h358q18 0 18 -15v-5l-8 -59q-2 -18 -16 -26q-49 -30 -74 -53t-25 -47q0 -31 50 -31q16 0 24 2h3q8 0 11 -3.5t3 -9.5
q0 -3 -1 -7l-6 -38q-2 -17 -20 -20q-20 -3 -38 -3q-53 0 -83 24.5t-30 62.5q0 76 104 130h-369q-18 0 -18 15v5z" />
    <glyph glyph-name="eogonek" unicode="&#x119;" horiz-adv-x="575" 
d="M319 480q95 0 154.5 -55t59.5 -144q0 -29 -7 -62q-3 -16 -21 -16h-362v-2q0 -129 125 -129q46 0 82.5 16t54.5 43q9 13 23 13h56q11 0 15.5 -6t-0.5 -16q-32 -66 -97 -100q-103 -57 -103 -102q0 -32 49 -32q13 0 21 1q11 2 16 -3t4 -15l-6 -38q-3 -17 -20 -20
q-17 -4 -39 -4q-52 0 -82 24.5t-30 63.5q0 51 47 92q-100 3 -157.5 59.5t-57.5 151.5q0 116 78 198t197 82zM317 398q-62 0 -104 -33.5t-59 -89.5h281v3q0 59 -30.5 89.5t-87.5 30.5z" />
    <glyph glyph-name="Ecaron" unicode="&#x11a;" horiz-adv-x="629" 
d="M58 20l93 663q3 17 21 17h442q18 0 18 -15v-5l-8 -60q-3 -18 -21 -18h-357l-29 -204h280q18 0 18 -15v-5l-8 -58q-3 -18 -21 -18h-282l-29 -204h358q18 0 18 -15v-5l-8 -60q-3 -18 -21 -18h-446q-18 0 -18 15v5zM257 918q3 6 14 6h54q15 0 23 -12l57 -79h3l81 81
q10 10 22 10h61q13 0 14.5 -5t1.5 -6q0 -7 -7 -13l-121 -119q-9 -9 -23 -9h-69q-15 0 -23 11l-85 118q-4 6 -4 12q0 2 1 5z" />
    <glyph glyph-name="ecaron" unicode="&#x11b;" horiz-adv-x="575" 
d="M122 398q78 82 197 82q95 0 154.5 -55t59.5 -144q0 -29 -7 -62q-3 -16 -21 -16h-362v-2q0 -129 125 -129q46 0 82.5 16t54.5 43q9 13 23 13h56q11 0 15.5 -3.5t4.5 -7.5q0 -3 -2 -6q-28 -61 -90 -99.5t-145 -38.5q-103 0 -163 57t-60 154q0 116 78 198zM435 275v3
q0 59 -30.5 89.5t-87.5 30.5q-62 0 -104 -33.5t-59 -89.5h281zM188 687q3 6 14 6h54q15 0 23 -12l57 -79h3l81 81q10 10 22 10h61q13 0 14.5 -5t1.5 -6q0 -7 -7 -13l-121 -119q-9 -9 -23 -9h-69q-15 0 -23 11l-85 118q-4 6 -4 12q0 2 1 5z" />
    <glyph glyph-name="Gcircumflex" unicode="&#x11c;" horiz-adv-x="817" 
d="M69 301q0 109 53 203t147.5 150.5t206.5 56.5q118 0 201.5 -61t99.5 -159v-5q0 -15 -18 -15h-75q-16 0 -21 17q-13 57 -63 90t-124 33q-128 0 -212.5 -89.5t-84.5 -218.5q0 -100 57 -157t157 -57q101 0 176 57t96 153h-206q-18 0 -18 17v3l8 50q1 18 20 18h293
q18 0 18 -17v-3l-5 -32q-22 -156 -129 -251t-256 -95q-144 0 -232.5 87t-88.5 225zM336 795l121 119q10 10 23 10h69q15 0 22 -12l86 -118q5 -7 5 -12q0 -2 -2.5 -6t-13.5 -4h-54q-16 0 -23 11l-56 79h-4l-81 -81q-8 -9 -22 -9h-61q-13 0 -14.5 4.5t-1.5 6.5q0 6 7 12z" />
    <glyph glyph-name="gcircumflex" unicode="&#x11d;" horiz-adv-x="614" 
d="M36 -48h63q16 0 19 -18q12 -76 119 -76q153 0 175 151l10 71h-4q-25 -39 -70 -60.5t-97 -21.5q-89 0 -147.5 59.5t-58.5 149.5q0 110 76.5 191.5t185.5 81.5q53 0 95 -22t59 -60h5l8 54q3 17 21 17h58q18 0 18 -17v-3l-62 -440q-16 -112 -86 -174t-187 -62q-97 0 -156 43
t-63 117v3q0 16 19 16zM148 211q0 -56 33 -91t91 -35q74 0 123.5 52.5t49.5 127.5q0 56 -33 90.5t-91 34.5q-74 0 -123.5 -52.5t-49.5 -126.5zM189 564l121 119q10 10 23 10h69q15 0 22 -12l86 -118q5 -7 5 -12q0 -2 -2.5 -6t-13.5 -4h-54q-16 0 -23 11l-56 79h-4l-81 -81
q-8 -9 -22 -9h-61q-13 0 -14.5 4.5t-1.5 6.5q0 6 7 12z" />
    <glyph glyph-name="Gbreve" unicode="&#x11e;" horiz-adv-x="817" 
d="M69 301q0 109 53 203t147.5 150.5t206.5 56.5q118 0 201.5 -61t99.5 -159v-5q0 -15 -18 -15h-75q-16 0 -21 17q-13 57 -63 90t-124 33q-128 0 -212.5 -89.5t-84.5 -218.5q0 -100 57 -157t157 -57q101 0 176 57t96 153h-206q-18 0 -18 17v3l8 50q1 18 20 18h293
q18 0 18 -17v-3l-5 -32q-22 -156 -129 -251t-256 -95q-144 0 -232.5 87t-88.5 225zM355 898q1 18 20 18h48q18 0 18 -20q0 -57 58 -57q64 0 81 60q6 17 21 17h47q9 0 13.5 -5t4.5 -11q0 -2 -1 -5q-13 -62 -57 -93q-44 -32 -110 -32t-104.5 31t-38.5 85v12z" />
    <glyph glyph-name="gbreve" unicode="&#x11f;" horiz-adv-x="614" 
d="M36 -48h63q16 0 19 -18q12 -76 119 -76q153 0 175 151l10 71h-4q-25 -39 -70 -60.5t-97 -21.5q-89 0 -147.5 59.5t-58.5 149.5q0 110 76.5 191.5t185.5 81.5q53 0 95 -22t59 -60h5l8 54q3 17 21 17h58q18 0 18 -17v-3l-62 -440q-16 -112 -86 -174t-187 -62q-97 0 -156 43
t-63 117v3q0 16 19 16zM148 211q0 -56 33 -91t91 -35q74 0 123.5 52.5t49.5 127.5q0 56 -33 90.5t-91 34.5q-74 0 -123.5 -52.5t-49.5 -126.5zM208 655v12q2 18 20 18h48q18 0 18 -20q0 -57 58 -57q64 0 81 60q6 17 21 17h47q9 0 13.5 -5t4.5 -11q0 -2 -1 -5
q-13 -62 -57 -93q-44 -32 -110 -32t-104.5 31t-38.5 85z" />
    <glyph glyph-name="Gdotaccent" unicode="&#x120;" horiz-adv-x="817" 
d="M122 504q53 94 147.5 150.5t206.5 56.5q118 0 201.5 -61t99.5 -159v-5q0 -15 -18 -15h-75q-16 0 -21 17q-13 57 -63 90t-124 33q-128 0 -212.5 -89.5t-84.5 -218.5q0 -100 57 -157t157 -57q101 0 176 57t96 153h-206q-18 0 -18 17v3l8 50q1 18 20 18h293q18 0 18 -17v-3
l-5 -32q-22 -156 -129 -251t-256 -95q-144 0 -232.5 87t-88.5 225q0 109 53 203zM457 896q22 23 55 23q27 0 44 -16.5t17 -42.5q0 -32 -22 -54.5t-54 -22.5q-27 0 -44.5 16.5t-17.5 42.5q0 31 22 54z" />
    <glyph glyph-name="gdotaccent" unicode="&#x121;" horiz-adv-x="614" 
d="M36 -48h63q16 0 19 -18q12 -76 119 -76q153 0 175 151l10 71h-4q-25 -39 -70 -60.5t-97 -21.5q-89 0 -147.5 59.5t-58.5 149.5q0 110 76.5 191.5t185.5 81.5q53 0 95 -22t59 -60h5l8 54q3 17 21 17h58q18 0 18 -17v-3l-62 -440q-16 -112 -86 -174t-187 -62q-97 0 -156 43
t-63 117v3q0 16 19 16zM148 211q0 -56 33 -91t91 -35q74 0 123.5 52.5t49.5 127.5q0 56 -33 90.5t-91 34.5q-74 0 -123.5 -52.5t-49.5 -126.5zM310 665q22 23 55 23q27 0 44 -16.5t17 -42.5q0 -32 -22 -54.5t-54 -22.5q-27 0 -44.5 16.5t-17.5 42.5q0 31 22 54z" />
    <glyph glyph-name="uni0122" unicode="&#x122;" horiz-adv-x="817" 
d="M122 504q53 94 147.5 150.5t206.5 56.5q118 0 201.5 -61t99.5 -159v-5q0 -15 -18 -15h-75q-16 0 -21 17q-13 57 -63 90t-124 33q-128 0 -212.5 -89.5t-84.5 -218.5q0 -100 57 -157t157 -57q101 0 176 57t96 153h-206q-18 0 -18 17v3l8 50q1 18 20 18h293q18 0 18 -17v-3
l-5 -32q-22 -156 -129 -251t-256 -95q-144 0 -232.5 87t-88.5 225q0 109 53 203zM279 -234l35 135q5 16 21 16h64q17 0 17 -12q0 -4 -2 -10l-54 -134q-6 -16 -22 -16h-43q-17 0 -17 14q0 3 1 7z" />
    <glyph glyph-name="uni0123" unicode="&#x123;" horiz-adv-x="614" 
d="M36 -48h63q16 0 19 -18q12 -76 119 -76q153 0 175 151l10 71h-4q-25 -39 -70 -60.5t-97 -21.5q-89 0 -147.5 59.5t-58.5 149.5q0 110 76.5 191.5t185.5 81.5q53 0 95 -22t59 -60h5l8 54q3 17 21 17h58q18 0 18 -17v-3l-62 -440q-16 -112 -86 -174t-187 -62q-97 0 -156 43
t-63 117v3q0 16 19 16zM181 120q33 -35 91 -35q74 0 123.5 52.5t49.5 127.5q0 56 -33 90.5t-91 34.5q-74 0 -123.5 -52.5t-49.5 -126.5q0 -56 33 -91zM305 586l55 134q6 15 22 15h42q17 0 17 -13q0 -4 -1 -8l-34 -134q-5 -16 -22 -16h-64q-17 0 -17 12q0 4 2 10z" />
    <glyph glyph-name="Hcircumflex" unicode="&#x124;" horiz-adv-x="744" 
d="M58 20l93 663q3 17 21 17h67q18 0 18 -15v-5l-41 -291h356l41 294q3 17 21 17h67q18 0 18 -17v-3l-94 -663q-1 -17 -20 -17h-67q-18 0 -18 15v5l38 270h-356l-38 -273q-3 -17 -21 -17h-67q-18 0 -18 15v5zM290 795l121 119q10 10 23 10h69q15 0 22 -12l86 -118
q5 -7 5 -12q0 -2 -2.5 -6t-13.5 -4h-54q-16 0 -23 11l-56 79h-4l-81 -81q-8 -9 -22 -9h-61q-13 0 -14.5 4.5t-1.5 6.5q0 6 7 12z" />
    <glyph glyph-name="hcircumflex" unicode="&#x125;" horiz-adv-x="587" 
d="M43 20l93 663q3 17 21 17h61q18 0 18 -15v-5l-39 -283h3q52 83 166 83q86 0 130 -52q35 -42 35 -107q0 -18 -3 -38l-38 -266q-3 -17 -21 -17h-61q-18 0 -18 15v5l34 239q3 18 3 34q0 96 -95 96q-61 0 -103.5 -36t-50.5 -97l-34 -239q-3 -17 -21 -17h-62q-18 0 -18 15v5z
M42 795l121 119q10 10 23 10h69q15 0 22 -12l86 -118q5 -7 5 -12q0 -2 -2.5 -6t-13.5 -4h-54q-16 0 -23 11l-56 79h-4l-81 -81q-8 -9 -22 -9h-61q-13 0 -14.5 4.5t-1.5 6.5q0 6 7 12z" />
    <glyph glyph-name="Hbar" unicode="&#x126;" horiz-adv-x="769" 
d="M68 524l6 41q1 17 20 17h56l14 101q1 17 20 17h67q18 0 18 -15v-5l-14 -98h356l14 101q3 17 21 17h67q18 0 18 -15v-5l-14 -98h53q18 0 18 -15v-5l-5 -41q-3 -17 -21 -17h-56l-68 -487q-3 -17 -21 -17h-67q-18 0 -18 15v5l38 270h-356l-38 -273q-3 -17 -21 -17h-67
q-18 0 -18 17v3l69 484h-53q-18 0 -18 15v5zM228 389h356l16 115h-356z" />
    <glyph glyph-name="hbar" unicode="&#x127;" horiz-adv-x="597" 
d="M506 411q41 -53 29 -142l-35 -252q-3 -17 -21 -17h-61q-21 0 -18 20l32 225q18 130 -92 130q-61 0 -104 -36t-51 -97l-31 -225q-3 -17 -21 -17h-62q-21 0 -18 20l72 513h-71q-21 0 -18 20l5 35q3 18 21 18h73l11 77q3 17 21 17h61q21 0 18 -20l-10 -74h154q21 0 18 -20
l-5 -36q-3 -17 -21 -17h-156l-21 -150h4q50 83 165 83q89 0 132 -55z" />
    <glyph glyph-name="Itilde" unicode="&#x128;" horiz-adv-x="283" 
d="M58 20l93 663q3 17 21 17h67q18 0 18 -15v-5l-93 -663q-3 -17 -21 -17h-67q-18 0 -18 15v5zM50 798q9 58 38.5 88.5t75.5 30.5q7 0 14 -1t14 -4t11.5 -5t11 -7t9.5 -7t10 -8t9 -7q31 -25 49 -25q29 0 39 45q5 18 20 18h37q17 0 17 -17q0 -5 -1 -11q-10 -55 -39.5 -83.5
t-73.5 -28.5q-17 0 -33.5 7.5t-23 13t-23.5 19.5q-29 25 -47 25q-29 0 -39 -46q-5 -18 -21 -18h-37q-9 0 -13.5 5t-4.5 11q0 2 1 5z" />
    <glyph glyph-name="itilde" unicode="&#x129;" horiz-adv-x="247" 
d="M43 20l61 432q3 17 21 17h61q18 0 18 -15v-5l-61 -432q-3 -17 -21 -17h-61q-18 0 -18 15v5zM23 567q20 119 98 119q26 0 46.5 -17t35.5 -34t28 -17q24 0 36 49q3 18 20 18h27q17 0 17 -17q0 -3 -1 -7q-17 -116 -96 -116q-26 0 -46.5 17t-36 34t-27.5 17q-26 0 -36 -49
q-3 -18 -20 -18h-27q-18 0 -18 16v5z" />
    <glyph glyph-name="Imacron" unicode="&#x12a;" horiz-adv-x="283" 
d="M58 20l93 663q3 17 21 17h67q18 0 18 -15v-5l-93 -663q-3 -17 -21 -17h-67q-18 0 -18 15v5zM73 815l6 43q3 18 20 18h263q17 0 17 -15v-5l-6 -43q-3 -18 -20 -18h-263q-17 0 -17 15v5z" />
    <glyph glyph-name="imacron" unicode="&#x12b;" horiz-adv-x="247" 
d="M43 20l61 432q3 17 21 17h61q18 0 18 -15v-5l-61 -432q-3 -17 -21 -17h-61q-18 0 -18 15v5zM48 584l7 43q1 18 20 18h211q17 0 17 -15v-5l-6 -43q-3 -18 -20 -18h-211q-18 0 -18 17v3z" />
    <glyph glyph-name="Ibreve" unicode="&#x12c;" horiz-adv-x="283" 
d="M58 20l93 663q3 17 21 17h67q18 0 18 -15v-5l-93 -663q-3 -17 -21 -17h-67q-18 0 -18 15v5zM79 898q1 18 20 18h48q18 0 18 -20q0 -57 58 -57q64 0 81 60q6 17 21 17h47q9 0 13.5 -5t4.5 -11q0 -2 -1 -5q-13 -62 -57 -93q-44 -32 -110 -32t-104.5 31t-38.5 85v12z" />
    <glyph glyph-name="ibreve" unicode="&#x12d;" horiz-adv-x="247" 
d="M43 20l61 432q3 17 21 17h61q18 0 18 -15v-5l-61 -432q-3 -17 -21 -17h-61q-18 0 -18 15v5zM50 667q2 18 20 18h42q18 0 18 -20q0 -58 46 -58q48 0 63 61q5 17 21 17h40q18 0 18 -15q0 -3 -1 -7q-28 -124 -150 -124q-61 0 -89 31t-28 83v14z" />
    <glyph glyph-name="Iogonek" unicode="&#x12e;" horiz-adv-x="283" 
d="M-37 -130q0 79 106 131q-12 3 -12 14q0 2 1 5l93 663q3 17 21 17h67q18 0 18 -15v-5l-93 -662q-2 -18 -16 -25q-49 -30 -73.5 -53t-24.5 -47q0 -31 49 -31q16 0 24 2h4q8 0 10.5 -3t2.5 -9q0 -4 -1 -8l-5 -38q-3 -17 -21 -20q-19 -3 -38 -3q-52 0 -82 24.5t-30 62.5z" />
    <glyph glyph-name="iogonek" unicode="&#x12f;" horiz-adv-x="247" 
d="M-58 -130q0 80 109 132q-8 5 -8 15v3l61 432q3 17 21 17h61q18 0 18 -15v-5l-60 -426q-4 -22 -16 -30q-49 -30 -74 -53t-25 -47q0 -31 49 -31q16 0 25 2h3q8 0 11 -3.5t3 -9.5q0 -3 -1 -7l-6 -38q-3 -17 -20 -20q-19 -3 -39 -3q-52 0 -82 24.5t-30 62.5zM131 665
q22 23 54 23q27 0 44.5 -16.5t17.5 -42.5q0 -32 -22 -54.5t-54 -22.5q-27 0 -44.5 16.5t-17.5 42.5q0 31 22 54z" />
    <glyph glyph-name="Idotaccent" unicode="&#x130;" horiz-adv-x="283" 
d="M58 20l93 663q3 17 21 17h67q18 0 18 -15v-5l-93 -663q-3 -17 -21 -17h-67q-18 0 -18 15v5zM159 842q0 31 22 54t55 23q27 0 44 -16.5t17 -42.5q0 -32 -22 -54.5t-54 -22.5q-27 0 -44.5 16.5t-17.5 42.5z" />
    <glyph glyph-name="dotlessi" unicode="&#x131;" horiz-adv-x="247" 
d="M43 20l61 432q3 17 21 17h61q18 0 18 -15v-5l-61 -432q-3 -17 -21 -17h-61q-18 0 -18 15v5z" />
    <glyph glyph-name="Jcircumflex" unicode="&#x134;" horiz-adv-x="635" 
d="M54 234l10 71q3 18 21 18h68q18 0 18 -15v-5l-8 -56q-4 -24 -4 -44q0 -48 25 -81t95 -33q150 0 171 158l50 355h-273q-18 0 -18 15v5l8 60q3 18 21 18h361q18 0 18 -17v-3l-62 -441q-17 -120 -90 -185t-193 -65q-117 0 -169 57t-52 140q0 23 3 48zM280 795l121 119
q10 10 23 10h69q15 0 22 -12l86 -118q5 -7 5 -12q0 -2 -2.5 -6t-13.5 -4h-54q-16 0 -23 11l-56 79h-4l-81 -81q-8 -9 -22 -9h-61q-13 0 -14.5 4.5t-1.5 6.5q0 6 7 12z" />
    <glyph glyph-name="jcircumflex" unicode="&#x135;" horiz-adv-x="247" 
d="M-119 -200l7 53q1 15 14 15q4 0 8 -1q16 -2 26 -2q46 0 69.5 22t30.5 77l67 487q3 18 21 18h61q18 0 18 -15v-5l-68 -489q-13 -97 -60 -142t-129 -45q-32 0 -51 6q-14 3 -14 16v5zM35 564l96 118q8 11 23 11h67q15 0 23 -14l62 -116q3 -5 3 -9t-3 -8.5t-14 -4.5h-48
q-16 0 -22 13l-42 79h-2l-64 -81q-8 -11 -23 -11h-45q-12 0 -14.5 4.5t-2.5 6.5q0 6 6 12z" />
    <glyph glyph-name="uni0136" unicode="&#x136;" horiz-adv-x="686" 
d="M59 20l92 662q3 18 21 18h67q18 0 18 -15v-5l-46 -326h69q18 0 27 -1l261 336q8 11 23 11h84q12 0 14 -4t2 -6q0 -6 -6 -13l-267 -345q186 -66 190 -313q0 -19 -19 -19h-76q-18 0 -20 19q-6 126 -63 180t-173 54h-60l-33 -235q-2 -18 -20 -18h-67q-18 0 -18 15v5z
M227 -234l35 135q5 16 21 16h64q17 0 17 -12q0 -4 -2 -10l-54 -134q-6 -16 -22 -16h-43q-17 0 -17 14q0 3 1 7z" />
    <glyph glyph-name="uni0137" unicode="&#x137;" horiz-adv-x="558" 
d="M44 20l92 662q3 18 21 18h61q18 0 18 -15v-5l-55 -399h54q21 0 32 -1l158 179q9 10 23 10h78q12 0 14 -4.5t2 -6.5q0 -5 -6 -12l-170 -192q126 -60 127 -235q0 -19 -19 -19h-66q-18 0 -20 19q-4 93 -46 132t-131 39h-43l-24 -172q-3 -18 -21 -18h-61q-18 0 -18 15v5z
M148 -234l35 135q5 16 21 16h64q17 0 17 -12q0 -4 -2 -10l-54 -134q-6 -16 -22 -16h-43q-17 0 -17 14q0 3 1 7z" />
    <glyph glyph-name="Lacute" unicode="&#x139;" horiz-adv-x="576" 
d="M58 20l93 663q3 17 21 17h67q18 0 18 -15v-5l-82 -581h328q18 0 18 -15v-5l-8 -61q-3 -18 -21 -18h-416q-18 0 -18 15v5zM149 795l96 118q8 11 23 11h80q12 0 14 -5t2 -7q0 -5 -6 -12l-112 -118q-9 -10 -23 -10h-63q-12 0 -14.5 4.5t-2.5 6.5q0 6 6 12z" />
    <glyph glyph-name="lacute" unicode="&#x13a;" horiz-adv-x="247" 
d="M43 20l93 663q3 17 21 17h61q18 0 18 -15v-5l-93 -663q-3 -17 -21 -17h-61q-18 0 -18 15v5zM131 795l96 118q8 11 23 11h80q12 0 14 -5t2 -7q0 -5 -6 -12l-112 -118q-9 -10 -23 -10h-63q-12 0 -14.5 4.5t-2.5 6.5q0 6 6 12z" />
    <glyph glyph-name="uni013B" unicode="&#x13b;" horiz-adv-x="576" 
d="M58 20l93 663q3 17 21 17h67q18 0 18 -15v-5l-82 -581h328q18 0 18 -15v-5l-8 -61q-3 -18 -21 -18h-416q-18 0 -18 15v5zM182 -234l35 135q5 16 21 16h64q17 0 17 -12q0 -4 -2 -10l-54 -134q-6 -16 -22 -16h-43q-17 0 -17 14q0 3 1 7z" />
    <glyph glyph-name="uni013C" unicode="&#x13c;" horiz-adv-x="247" 
d="M43 20l93 663q3 17 21 17h61q18 0 18 -15v-5l-93 -663q-3 -17 -21 -17h-61q-18 0 -18 15v5zM-12 -234l35 135q5 16 21 16h64q17 0 17 -12q0 -4 -2 -10l-54 -134q-6 -16 -22 -16h-43q-17 0 -17 14q0 3 1 7z" />
    <glyph glyph-name="Lcaron" unicode="&#x13d;" horiz-adv-x="576" 
d="M58 20l93 663q3 17 21 17h67q18 0 18 -15v-5l-82 -581h328q18 0 18 -15v-5l-8 -61q-3 -18 -21 -18h-416q-18 0 -18 15v5zM375 454l49 240q3 17 21 17h50q18 0 18 -14q0 -3 -1 -7l-52 -240q-3 -17 -21 -17h-47q-18 0 -18 14q0 3 1 7z" />
    <glyph glyph-name="lcaron" unicode="&#x13e;" horiz-adv-x="376" 
d="M43 20l93 663q3 17 21 17h61q18 0 18 -15v-5l-93 -663q-3 -17 -21 -17h-61q-18 0 -18 15v5zM299 453l33 240q3 18 21 18h64q17 0 17 -16v-5l-48 -240q-3 -17 -20 -17h-49q-18 0 -18 15v5z" />
    <glyph glyph-name="Ldot" unicode="&#x13f;" horiz-adv-x="581" 
d="M58 20l93 663q3 17 21 17h67q18 0 18 -15v-5l-82 -581h328q18 0 18 -15v-5l-8 -61q-3 -18 -21 -18h-416q-18 0 -18 15v5zM362 343q0 34 21 57t56 23q29 0 46.5 -16.5t17.5 -43.5q0 -33 -21.5 -56t-55.5 -23q-29 0 -46.5 16.5t-17.5 42.5z" />
    <glyph glyph-name="ldot" unicode="&#x140;" horiz-adv-x="404" 
d="M43 20l93 663q3 17 21 17h61q18 0 18 -15v-5l-93 -663q-3 -17 -21 -17h-61q-18 0 -18 15v5zM284 379q21 23 56 23q28 0 46 -17t18 -44q0 -33 -22 -56t-56 -23q-28 0 -46 16.5t-18 42.5q0 35 22 58z" />
    <glyph glyph-name="Lslash" unicode="&#x141;" horiz-adv-x="605" 
d="M7 214l7 54q1 13 16 21l97 49l49 345q1 17 20 17h67q18 0 18 -15v-5l-40 -285l242 121q6 3 10 3t7.5 -2.5t3.5 -10.5v-5l-8 -54q-3 -13 -15 -21l-253 -127l-28 -200h327q18 0 18 -15v-5l-8 -61q-3 -18 -21 -18h-416q-18 0 -18 17v3l31 222l-85 -43q-6 -3 -10 -3t-7.5 2.5
t-3.5 10.5v5z" />
    <glyph glyph-name="lslash" unicode="&#x142;" horiz-adv-x="352" 
d="M11 210l8 54q1 13 15 22l108 64l47 333q1 17 20 17h62q18 0 18 -17v-3l-37 -261l96 57q6 4 11 4q3 0 7 -2.5t4 -12.5v-3l-8 -54q-1 -13 -15 -22l-109 -65l-43 -304q-1 -17 -20 -17h-62q-18 0 -18 17v3l33 232l-95 -56q-6 -4 -11 -4q-3 0 -7 2.5t-4 12.5v3z" />
    <glyph glyph-name="Nacute" unicode="&#x143;" horiz-adv-x="771" 
d="M58 20l93 663q3 17 21 17h65q15 0 23 -12l306 -513h2l71 507q3 18 21 18h67q18 0 18 -15v-5l-93 -663q-3 -17 -21 -17h-66q-16 0 -22 12l-306 512h-2l-71 -507q-3 -17 -21 -17h-67q-18 0 -18 15v5zM393 795l96 118q8 11 23 11h80q12 0 14 -5t2 -7q0 -5 -6 -12l-112 -118
q-9 -10 -23 -10h-63q-12 0 -14.5 4.5t-2.5 6.5q0 6 6 12z" />
    <glyph glyph-name="nacute" unicode="&#x144;" horiz-adv-x="586" 
d="M43 20l61 432q3 17 21 17h58q18 0 18 -15v-5l-7 -52h4q52 83 167 83q92 0 134 -57q31 -39 31 -101q0 -18 -3 -39l-38 -266q-1 -17 -20 -17h-62q-18 0 -18 17v3l34 239q3 18 3 34q0 96 -94 96q-62 0 -104 -36t-51 -97l-34 -239q-3 -17 -21 -17h-61q-18 0 -18 15v5z
M272 564l96 118q8 11 23 11h80q12 0 14 -5t2 -7q0 -5 -6 -12l-112 -118q-9 -10 -23 -10h-63q-12 0 -14.5 4.5t-2.5 6.5q0 6 6 12z" />
    <glyph glyph-name="uni0145" unicode="&#x145;" horiz-adv-x="771" 
d="M58 20l93 663q3 17 21 17h65q15 0 23 -12l306 -513h2l71 507q3 18 21 18h67q18 0 18 -15v-5l-93 -663q-3 -17 -21 -17h-66q-16 0 -22 12l-306 512h-2l-71 -507q-3 -17 -21 -17h-67q-18 0 -18 15v5zM249 -234l35 135q5 16 21 16h64q17 0 17 -12q0 -4 -2 -10l-54 -134
q-6 -16 -22 -16h-43q-17 0 -17 14q0 3 1 7z" />
    <glyph glyph-name="uni0146" unicode="&#x146;" horiz-adv-x="586" 
d="M43 20l61 432q3 17 21 17h58q18 0 18 -15v-5l-7 -52h4q52 83 167 83q92 0 134 -57q31 -39 31 -101q0 -18 -3 -39l-38 -266q-1 -17 -20 -17h-62q-18 0 -18 17v3l34 239q3 18 3 34q0 96 -94 96q-62 0 -104 -36t-51 -97l-34 -239q-3 -17 -21 -17h-61q-18 0 -18 15v5z
M161 -234l35 135q5 16 21 16h64q17 0 17 -12q0 -4 -2 -10l-54 -134q-6 -16 -22 -16h-43q-17 0 -17 14q0 3 1 7z" />
    <glyph glyph-name="Ncaron" unicode="&#x147;" horiz-adv-x="771" 
d="M58 20l93 663q3 17 21 17h65q15 0 23 -12l306 -513h2l71 507q3 18 21 18h67q18 0 18 -15v-5l-93 -663q-3 -17 -21 -17h-66q-16 0 -22 12l-306 512h-2l-71 -507q-3 -17 -21 -17h-67q-18 0 -18 15v5zM315 918q3 6 14 6h54q15 0 23 -12l57 -79h3l81 81q10 10 22 10h61
q13 0 14.5 -5t1.5 -6q0 -7 -7 -13l-121 -119q-9 -9 -23 -9h-69q-15 0 -23 11l-85 118q-4 6 -4 12q0 2 1 5z" />
    <glyph glyph-name="ncaron" unicode="&#x148;" horiz-adv-x="586" 
d="M43 20l61 432q3 17 21 17h58q18 0 18 -15v-5l-7 -52h4q52 83 167 83q92 0 134 -57q31 -39 31 -101q0 -18 -3 -39l-38 -266q-1 -17 -20 -17h-62q-18 0 -18 17v3l34 239q3 18 3 34q0 96 -94 96q-62 0 -104 -36t-51 -97l-34 -239q-3 -17 -21 -17h-61q-18 0 -18 15v5z
M195 687q3 6 14 6h54q15 0 23 -12l57 -79h3l81 81q10 10 22 10h61q13 0 14.5 -5t1.5 -6q0 -7 -7 -13l-121 -119q-9 -9 -23 -9h-69q-15 0 -23 11l-85 118q-4 6 -4 12q0 2 1 5z" />
    <glyph glyph-name="Eng" unicode="&#x14a;" horiz-adv-x="771" 
d="M727 700q21 0 18 -20l-99 -700q-13 -96 -55 -139t-124 -43q-33 0 -54 4q-18 3 -16 22l8 56q3 18 22 15q8 -1 27 -1q45 0 64 19.5t27 70.5l3 19l-311 521h-2l-71 -507q-3 -17 -21 -17h-67q-21 0 -18 20l93 663q3 17 21 17h65q16 0 23 -13l306 -512h2l71 507q3 18 21 18h67
z" />
    <glyph glyph-name="eng" unicode="&#x14b;" horiz-adv-x="586" 
d="M499 423q40 -52 28 -140l-41 -291q-13 -95 -57 -138.5t-127 -43.5q-30 0 -50 4q-18 3 -16 22l7 53q3 18 22 15q18 -2 28 -2q45 0 65.5 20.5t27.5 73.5l37 263q9 66 -13 98t-79 32q-61 0 -103.5 -36t-50.5 -97l-34 -239q-3 -17 -21 -17h-61q-21 0 -18 20l61 432
q3 17 21 17h58q21 0 18 -20l-7 -52h4q50 83 167 83q91 0 134 -57z" />
    <glyph glyph-name="Omacron" unicode="&#x14c;" horiz-adv-x="832" 
d="M188 588q119 123 286 123q139 0 230 -89.5t91 -224.5q0 -105 -53.5 -199t-148 -151.5t-204.5 -57.5q-139 0 -229.5 89t-90.5 225q0 162 119 285zM236 149q56 -60 154 -60q124 0 209.5 89.5t85.5 214.5q0 98 -56.5 158t-155.5 60q-125 0 -209.5 -90.5t-84.5 -215.5
q0 -97 57 -156zM347 815l6 43q3 18 20 18h263q17 0 17 -15v-5l-6 -43q-3 -18 -20 -18h-263q-17 0 -17 15v5z" />
    <glyph glyph-name="omacron" unicode="&#x14d;" horiz-adv-x="592" 
d="M127 400q82 80 198 80q98 0 160 -61t62 -156q0 -112 -81.5 -193t-197.5 -81q-99 0 -161 61.5t-62 156.5q0 112 82 193zM181 115q33 -35 92 -35q74 0 123 52t49 127q0 59 -33.5 95t-91.5 36q-73 0 -122.5 -52.5t-49.5 -127.5q0 -60 33 -95zM195 584l6 43q3 18 20 18h263
q17 0 17 -15v-5l-6 -43q-3 -18 -20 -18h-263q-17 0 -17 15v5z" />
    <glyph glyph-name="Obreve" unicode="&#x14e;" horiz-adv-x="832" 
d="M69 303q0 162 119 285t286 123q139 0 230 -89.5t91 -224.5q0 -105 -53.5 -199t-148 -151.5t-204.5 -57.5q-139 0 -229.5 89t-90.5 225zM179 305q0 -97 56.5 -156.5t154.5 -59.5q124 0 209.5 89.5t85.5 214.5q0 98 -56.5 158t-155.5 60q-125 0 -209.5 -90.5t-84.5 -215.5z
M353 886v12q1 18 20 18h48q18 0 18 -20q0 -57 58 -57q64 0 81 60q6 17 21 17h47q9 0 13.5 -5t4.5 -11q0 -2 -1 -5q-13 -62 -57 -93q-44 -32 -110 -32t-104.5 31t-38.5 85z" />
    <glyph glyph-name="obreve" unicode="&#x14f;" horiz-adv-x="592" 
d="M45 207q0 112 82 192.5t198 80.5q98 0 160 -61t62 -156q0 -112 -81.5 -193t-197.5 -81q-99 0 -161 61.5t-62 156.5zM148 210q0 -60 33 -95t92 -35q74 0 123 52t49 127q0 59 -33.5 95t-91.5 36q-73 0 -122.5 -52.5t-49.5 -127.5zM201 655v12q1 18 20 18h48q18 0 18 -20
q0 -57 58 -57q64 0 81 60q6 17 21 17h47q9 0 13.5 -5t4.5 -11q0 -2 -1 -5q-13 -62 -57 -93q-44 -32 -110 -32t-104.5 31t-38.5 85z" />
    <glyph glyph-name="Ohungarumlaut" unicode="&#x150;" horiz-adv-x="832" 
d="M188 588q119 123 286 123q139 0 230 -89.5t91 -224.5q0 -105 -53.5 -199t-148 -151.5t-204.5 -57.5q-139 0 -229.5 89t-90.5 225q0 162 119 285zM179 305q0 -97 56.5 -156.5t154.5 -59.5q124 0 209.5 89.5t85.5 214.5q0 98 -56.5 158t-155.5 60q-125 0 -209.5 -90.5
t-84.5 -215.5zM520 795l99 118q11 11 24 11h57q12 0 14 -5t2 -7q0 -5 -6 -12l-109 -118q-10 -10 -24 -10h-47q-12 0 -14 4.5t-2 6.5q0 5 6 12zM337 795l100 118q9 11 23 11h58q12 0 14 -4.5t2 -6.5q0 -6 -7 -13l-109 -118q-9 -10 -23 -10h-47q-12 0 -14.5 4.5t-2.5 6.5
q0 6 6 12z" />
    <glyph glyph-name="ohungarumlaut" unicode="&#x151;" horiz-adv-x="592" 
d="M127 400q82 80 198 80q98 0 160 -61t62 -156q0 -112 -81.5 -193t-197.5 -81q-99 0 -161 61.5t-62 156.5q0 112 82 193zM181 115q33 -35 92 -35q74 0 123 52t49 127q0 59 -33.5 95t-91.5 36q-73 0 -122.5 -52.5t-49.5 -127.5q0 -60 33 -95zM368 564l99 118q11 11 24 11h57
q12 0 14 -5t2 -7q0 -5 -6 -12l-109 -118q-10 -10 -24 -10h-47q-12 0 -14 4.5t-2 6.5q0 5 6 12zM185 564l100 118q9 11 23 11h58q12 0 14 -4.5t2 -6.5q0 -6 -7 -13l-109 -118q-9 -10 -23 -10h-47q-12 0 -14.5 4.5t-2.5 6.5q0 6 6 12z" />
    <glyph glyph-name="OE" unicode="&#x152;" horiz-adv-x="1075" 
d="M1060 700q21 0 18 -20l-8 -60q-3 -18 -21 -18h-357l-29 -204h280q21 0 18 -20l-8 -58q-3 -18 -21 -18h-283l-29 -204h359q21 0 18 -20l-8 -60q-3 -18 -21 -18h-582q-144 0 -230.5 83.5t-86.5 222.5q0 166 118 280t296 114h577zM179 304q0 -100 56.5 -152.5t166.5 -52.5
h114l71 502h-114q-130 0 -212 -85t-82 -212z" />
    <glyph glyph-name="oe" unicode="&#x153;" horiz-adv-x="971" 
d="M45 205q0 114 81.5 194.5t197.5 80.5q61 0 109.5 -25.5t74.5 -70.5h4q75 96 201 96q97 0 156.5 -55.5t59.5 -147.5q0 -25 -7 -58q-3 -16 -21 -16h-363v-7q0 -61 32 -92.5t94 -31.5q46 0 82.5 16t54.5 43q7 13 23 13h56q11 0 14.5 -4.5t3.5 -8.5t-3 -9q-28 -59 -89 -96
t-143 -37q-66 0 -115.5 25t-74.5 71h-3q-83 -96 -201 -96q-98 0 -161 61.5t-63 154.5zM147 208q0 -57 34 -92.5t92 -35.5q74 0 123 52.5t49 128.5q0 57 -34 93t-92 36q-73 0 -122.5 -53t-49.5 -129zM549 275h282v1q0 122 -118 122q-62 0 -104 -33t-60 -90z" />
    <glyph glyph-name="Racute" unicode="&#x154;" horiz-adv-x="690" 
d="M59 20l92 662q3 18 21 18h258q106 0 166.5 -52t60.5 -141q0 -86 -46 -151t-126 -92q102 -61 108 -244v-3q0 -17 -18 -17h-77q-18 0 -20 19q-6 118 -56.5 171.5t-151.5 53.5h-74l-32 -226q-2 -18 -20 -18h-67q-18 0 -18 15v5zM372 343q83 0 128.5 41t45.5 115
q0 103 -138 103h-162l-37 -259h163zM349 795l96 118q8 11 23 11h80q12 0 14 -5t2 -7q0 -5 -6 -12l-112 -118q-9 -10 -23 -10h-63q-12 0 -14.5 4.5t-2.5 6.5q0 6 6 12z" />
    <glyph glyph-name="racute" unicode="&#x155;" horiz-adv-x="390" 
d="M44 20l60 431q3 18 21 18h58q18 0 18 -15v-5l-9 -70h2q24 48 68 73.5t95 25.5q10 0 26 -2q14 -3 14 -17v-5l-7 -56q-3 -16 -18 -16h-4q-10 1 -27 1q-146 0 -174 -198l-23 -168q-3 -17 -21 -17h-61q-18 0 -18 15v5zM180 564l96 118q8 11 23 11h80q12 0 14 -5t2 -7
q0 -5 -6 -12l-112 -118q-9 -10 -23 -10h-63q-12 0 -14.5 4.5t-2.5 6.5q0 6 6 12z" />
    <glyph glyph-name="uni0156" unicode="&#x156;" horiz-adv-x="690" 
d="M59 20l92 662q3 18 21 18h258q106 0 166.5 -52t60.5 -141q0 -86 -46 -151t-126 -92q102 -61 108 -244v-3q0 -17 -18 -17h-77q-18 0 -20 19q-6 118 -56.5 171.5t-151.5 53.5h-74l-32 -226q-2 -18 -20 -18h-67q-18 0 -18 15v5zM372 343q83 0 128.5 41t45.5 115
q0 103 -138 103h-162l-37 -259h163zM209 -234l35 135q5 16 21 16h64q17 0 17 -12q0 -4 -2 -10l-54 -134q-6 -16 -22 -16h-43q-17 0 -17 14q0 3 1 7z" />
    <glyph glyph-name="uni0157" unicode="&#x157;" horiz-adv-x="390" 
d="M44 20l60 431q3 18 21 18h58q18 0 18 -15v-5l-9 -70h2q24 48 68 73.5t95 25.5q10 0 26 -2q14 -3 14 -17v-5l-7 -56q-3 -16 -18 -16h-4q-10 1 -27 1q-146 0 -174 -198l-23 -168q-3 -17 -21 -17h-61q-18 0 -18 15v5zM-11 -234l35 135q5 16 21 16h64q17 0 17 -12
q0 -4 -2 -10l-54 -134q-6 -16 -22 -16h-43q-17 0 -17 14q0 3 1 7z" />
    <glyph glyph-name="Rcaron" unicode="&#x158;" horiz-adv-x="690" 
d="M59 20l92 662q3 18 21 18h258q106 0 166.5 -52t60.5 -141q0 -86 -46 -151t-126 -92q102 -61 108 -244v-3q0 -17 -18 -17h-77q-18 0 -20 19q-6 118 -56.5 171.5t-151.5 53.5h-74l-32 -226q-2 -18 -20 -18h-67q-18 0 -18 15v5zM209 343h163q83 0 128.5 41t45.5 115
q0 103 -138 103h-162zM271 918q3 6 14 6h54q15 0 23 -12l57 -79h3l81 81q10 10 22 10h61q13 0 14.5 -5t1.5 -6q0 -7 -7 -13l-121 -119q-9 -9 -23 -9h-69q-15 0 -23 11l-85 118q-4 6 -4 12q0 2 1 5z" />
    <glyph glyph-name="rcaron" unicode="&#x159;" horiz-adv-x="390" 
d="M44 20l60 431q3 18 21 18h58q18 0 18 -15v-5l-9 -70h2q24 48 68 73.5t95 25.5q10 0 26 -2q14 -3 14 -17v-5l-7 -56q-3 -16 -18 -16h-4q-10 1 -27 1q-146 0 -174 -198l-23 -168q-3 -17 -21 -17h-61q-18 0 -18 15v5zM103 687q3 6 14 6h54q15 0 23 -12l57 -79h3l81 81
q10 10 22 10h61q13 0 14.5 -5t1.5 -6q0 -7 -7 -13l-121 -119q-9 -9 -23 -9h-69q-15 0 -23 11l-85 118q-4 6 -4 12q0 2 1 5z" />
    <glyph glyph-name="Sacute" unicode="&#x15a;" horiz-adv-x="626" 
d="M62 202h69q18 0 20 -19q9 -98 142 -98q81 0 127.5 34.5t46.5 89.5q0 38 -23 59t-74 31l-102 18q-176 34 -176 167q0 106 75.5 166.5t203.5 60.5q115 0 176 -50.5t61 -148.5v-3q0 -19 -20 -19h-68q-17 0 -19 20q0 55 -33 80t-103 25q-81 0 -123 -31t-42 -88
q0 -39 26 -59.5t90 -31.5l102 -19q79 -15 119 -56.5t40 -102.5q0 -112 -79 -175t-207 -63q-117 0 -181.5 51t-66.5 143v3q0 16 19 16zM321 795l96 118q8 11 23 11h80q12 0 14 -5t2 -7q0 -5 -6 -12l-112 -118q-9 -10 -23 -10h-63q-12 0 -14.5 4.5t-2.5 6.5q0 6 6 12z" />
    <glyph glyph-name="sacute" unicode="&#x15b;" horiz-adv-x="495" 
d="M46 139h59q15 0 20 -18q11 -54 102 -54q57 0 86 20.5t29 54.5q0 22 -18 33.5t-59 17.5l-81 13q-126 18 -126 114q0 73 56.5 116.5t160.5 43.5q90 0 138 -34.5t49 -101.5q0 -19 -20 -19h-59q-17 0 -19 19q-6 58 -94 58q-57 0 -85.5 -20t-28.5 -52q0 -38 78 -50l81 -12
q126 -18 126 -114q0 -76 -55.5 -120.5t-161.5 -44.5q-92 0 -142.5 34t-54.5 97v3q0 16 19 16zM223 564l96 118q8 11 23 11h80q12 0 14 -5t2 -7q0 -5 -6 -12l-112 -118q-9 -10 -23 -10h-63q-12 0 -14.5 4.5t-2.5 6.5q0 6 6 12z" />
    <glyph glyph-name="Scircumflex" unicode="&#x15c;" horiz-adv-x="626" 
d="M62 202h69q18 0 20 -19q9 -98 142 -98q81 0 127.5 34.5t46.5 89.5q0 38 -23 59t-74 31l-102 18q-176 34 -176 167q0 106 75.5 166.5t203.5 60.5q115 0 176 -50.5t61 -148.5v-3q0 -19 -20 -19h-68q-17 0 -19 20q0 55 -33 80t-103 25q-81 0 -123 -31t-42 -88
q0 -39 26 -59.5t90 -31.5l102 -19q79 -15 119 -56.5t40 -102.5q0 -112 -79 -175t-207 -63q-117 0 -181.5 51t-66.5 143v3q0 16 19 16zM232 795l121 119q10 10 23 10h69q15 0 22 -12l86 -118q5 -7 5 -12q0 -2 -2.5 -6t-13.5 -4h-54q-16 0 -23 11l-56 79h-4l-81 -81
q-8 -9 -22 -9h-61q-13 0 -14.5 4.5t-1.5 6.5q0 6 7 12z" />
    <glyph glyph-name="scircumflex" unicode="&#x15d;" horiz-adv-x="495" 
d="M46 139h59q15 0 20 -18q11 -54 102 -54q57 0 86 20.5t29 54.5q0 22 -18 33.5t-59 17.5l-81 13q-126 18 -126 114q0 73 56.5 116.5t160.5 43.5q90 0 138 -34.5t49 -101.5q0 -19 -20 -19h-59q-17 0 -19 19q-6 58 -94 58q-57 0 -85.5 -20t-28.5 -52q0 -38 78 -50l81 -12
q126 -18 126 -114q0 -76 -55.5 -120.5t-161.5 -44.5q-92 0 -142.5 34t-54.5 97v3q0 16 19 16zM133 564l121 119q10 10 23 10h69q14 0 22 -12l86 -118q5 -7 5 -12q0 -2 -2.5 -6t-13.5 -4h-54q-16 0 -23 11l-56 79h-4l-81 -81q-8 -9 -22 -9h-61q-13 0 -14.5 4.5t-1.5 6.5
q0 6 7 12z" />
    <glyph glyph-name="Scedilla" unicode="&#x15e;" horiz-adv-x="626" 
d="M62 202h69q18 0 20 -19q9 -98 142 -98q81 0 127.5 34.5t46.5 89.5q0 38 -23 59t-74 31l-102 18q-176 34 -176 167q0 106 75.5 166.5t203.5 60.5q115 0 176 -50.5t61 -148.5v-3q0 -19 -20 -19h-68q-17 0 -19 20q0 55 -33 80t-103 25q-81 0 -123 -31t-42 -88
q0 -39 26 -59.5t90 -31.5l102 -19q79 -15 119 -56.5t40 -102.5q0 -100 -63.5 -161.5t-170.5 -73.5l-69 -157q-4 -14 -22 -14h-61q-11 0 -13.5 4.5t-2.5 7.5q0 5 2 10l73 148q-98 8 -151.5 58t-55.5 134v3q0 16 19 16z" />
    <glyph glyph-name="scedilla" unicode="&#x15f;" horiz-adv-x="495" 
d="M46 139h59q15 0 20 -18q11 -54 102 -54q57 0 86 20.5t29 54.5q0 22 -18 33.5t-59 17.5l-81 13q-126 18 -126 114q0 73 56.5 116.5t160.5 43.5q90 0 138 -34.5t49 -101.5q0 -19 -20 -19h-59q-17 0 -19 19q-6 58 -94 58q-57 0 -85.5 -20t-28.5 -52q0 -38 78 -50l81 -12
q126 -18 126 -114q0 -68 -45 -111.5t-132 -51.5l-69 -156q-4 -14 -22 -14h-61q-11 0 -13.5 4.5t-2.5 7.5q0 5 2 10l74 149q-68 9 -105 42t-40 86v3q0 16 19 16z" />
    <glyph glyph-name="Scaron" unicode="&#x160;" horiz-adv-x="626" 
d="M62 202h69q18 0 20 -19q9 -98 142 -98q81 0 127.5 34.5t46.5 89.5q0 38 -23 59t-74 31l-102 18q-176 34 -176 167q0 106 75.5 166.5t203.5 60.5q115 0 176 -50.5t61 -148.5v-3q0 -19 -20 -19h-68q-17 0 -19 20q0 55 -33 80t-103 25q-81 0 -123 -31t-42 -88
q0 -39 26 -59.5t90 -31.5l102 -19q79 -15 119 -56.5t40 -102.5q0 -112 -79 -175t-207 -63q-117 0 -181.5 51t-66.5 143v3q0 16 19 16zM244 918q3 6 14 6h54q15 0 23 -12l57 -79h3l81 81q10 10 22 10h61q13 0 14.5 -5t1.5 -6q0 -7 -7 -13l-121 -119q-9 -9 -23 -9h-69
q-15 0 -23 11l-85 118q-4 6 -4 12q0 2 1 5z" />
    <glyph glyph-name="scaron" unicode="&#x161;" horiz-adv-x="495" 
d="M46 139h59q15 0 20 -18q11 -54 102 -54q57 0 86 20.5t29 54.5q0 22 -18 33.5t-59 17.5l-81 13q-126 18 -126 114q0 73 56.5 116.5t160.5 43.5q90 0 138 -34.5t49 -101.5q0 -19 -20 -19h-59q-17 0 -19 19q-6 58 -94 58q-57 0 -85.5 -20t-28.5 -52q0 -38 78 -50l81 -12
q126 -18 126 -114q0 -76 -55.5 -120.5t-161.5 -44.5q-92 0 -142.5 34t-54.5 97v3q0 16 19 16zM145 687q3 6 14 6h54q15 0 23 -12l57 -79h3l81 81q10 10 22 10h61q13 0 14.5 -5t1.5 -6q0 -7 -7 -13l-121 -119q-9 -9 -23 -9h-69q-15 0 -23 11l-85 118q-4 6 -4 12q0 2 1 5z" />
    <glyph glyph-name="uni0162" unicode="&#x162;" horiz-adv-x="595" 
d="M82 621l8 61q3 18 21 18h502q18 0 18 -15v-5l-8 -61q-3 -18 -21 -18h-200l-82 -584q-3 -17 -21 -17h-67q-18 0 -18 17v3l82 581h-196q-18 0 -18 15v5zM158 -234l35 135q5 16 21 16h64q17 0 17 -12q0 -4 -2 -10l-54 -134q-6 -16 -22 -16h-43q-17 0 -17 14q0 3 1 7z" />
    <glyph glyph-name="uni0163" unicode="&#x163;" horiz-adv-x="438" 
d="M42 404l7 47q1 18 20 18h87l16 113q3 18 21 18h61q18 0 18 -15v-5l-16 -111h158q17 0 17 -15v-5l-7 -47q-1 -18 -20 -18h-160l-29 -209q-2 -15 -2 -28q0 -31 15 -49t63 -18q39 0 72 12q5 2 9 2q5 0 8.5 -3t4.5 -10q-1 -2 -1 -5l-7 -49q-1 -15 -15 -20q-42 -18 -96 -18
q-155 0 -155 137q0 19 3 41l30 217h-85q-17 0 -17 15v5zM129 -234l35 135q5 16 21 16h64q17 0 17 -12q0 -4 -2 -10l-54 -134q-6 -16 -22 -16h-43q-17 0 -17 14q0 3 1 7z" />
    <glyph glyph-name="Tcaron" unicode="&#x164;" horiz-adv-x="595" 
d="M82 621l8 61q3 18 21 18h502q18 0 18 -15v-5l-8 -61q-3 -18 -21 -18h-200l-82 -584q-3 -17 -21 -17h-67q-18 0 -18 17v3l82 581h-196q-18 0 -18 15v5zM228 918q3 6 14 6h54q15 0 23 -12l57 -79h3l81 81q10 10 22 10h61q13 0 14.5 -5t1.5 -6q0 -7 -7 -13l-121 -119
q-9 -9 -23 -9h-69q-15 0 -23 11l-85 118q-4 6 -4 12q0 2 1 5z" />
    <glyph glyph-name="tcaron" unicode="&#x165;" horiz-adv-x="434" 
d="M42 404l7 47q1 18 20 18h87l16 113q3 18 21 18h61q18 0 18 -15v-5l-16 -111h158q17 0 17 -15v-5l-7 -47q-1 -18 -20 -18h-160l-29 -209q-2 -15 -2 -28q0 -31 15 -49t63 -18q39 0 72 12q5 2 9 2q5 0 8.5 -3t4.5 -10q-1 -2 -1 -5l-7 -49q-1 -15 -15 -20q-42 -18 -96 -18
q-155 0 -155 137q0 19 3 41l30 217h-85q-17 0 -17 15v5zM333 558l24 174q3 18 21 18h51q17 0 17 -16v-5l-36 -174q-3 -17 -21 -17h-38q-18 0 -18 15v5z" />
    <glyph glyph-name="Tbar" unicode="&#x166;" horiz-adv-x="595" 
d="M82 621l8 61q3 18 21 18h502q18 0 18 -15v-5l-8 -61q-3 -18 -21 -18h-200l-31 -222h110q18 0 18 -15v-5l-7 -47q-1 -17 -20 -17h-113l-39 -278q-3 -17 -21 -17h-67q-18 0 -18 17v3l39 275h-110q-18 0 -18 15v5l7 47q1 17 20 17h113l31 222h-196q-18 0 -18 15v5z" />
    <glyph glyph-name="tbar" unicode="&#x167;" horiz-adv-x="451" 
d="M418 469q21 0 18 -20l-6 -45q-3 -17 -21 -17h-155l-15 -106h121q20 0 18 -20l-5 -29q-3 -18 -20 -18h-124l-5 -39q-7 -52 11.5 -73.5t67.5 -21.5q37 0 70 11q11 4 16 -0.5t4 -14.5l-7 -48q-2 -16 -15 -21q-43 -18 -98 -18q-175 0 -150 178l7 47h-86q-20 0 -17 20l5 29
q1 18 20 18h87l15 106h-85q-20 0 -18 20l7 45q1 17 20 17h87l16 113q1 18 20 18h62q20 0 18 -20l-16 -111h153z" />
    <glyph glyph-name="Utilde" unicode="&#x168;" horiz-adv-x="726" 
d="M87 282l56 401q3 17 21 17h67q18 0 18 -15v-5l-55 -387q-4 -28 -4 -53q0 -149 148 -149q86 0 141 51t68 151l55 390q3 17 21 17h67q18 0 18 -15v-5l-56 -398q-19 -139 -104 -216t-216 -77t-190 68.5t-59 165.5q0 28 4 59zM271 798q9 58 38.5 88.5t75.5 30.5q7 0 14 -1
t14 -4t11.5 -5t11 -7t9.5 -7t10 -8t9 -7q31 -25 49 -25q29 0 39 45q4 18 20 18h37q17 0 17 -17q0 -5 -1 -11q-10 -55 -39.5 -83.5t-73.5 -28.5q-17 0 -33.5 7.5t-23 13t-23.5 19.5q-29 25 -47 25q-29 0 -39 -46q-4 -18 -21 -18h-37q-9 0 -13.5 5t-4.5 11q0 2 1 5z" />
    <glyph glyph-name="utilde" unicode="&#x169;" horiz-adv-x="583" 
d="M59 186l38 266q3 17 21 17h61q18 0 18 -15v-5l-34 -239q-3 -19 -3 -36q0 -94 89 -94q61 0 104.5 36t52.5 97l33 239q3 17 21 17h61q18 0 18 -15v-5l-61 -432q-1 -17 -20 -17h-59q-18 0 -18 17v3l8 53h-3q-51 -84 -165 -84q-81 0 -125 47q-40 43 -40 112q0 18 3 38z
M164 567q9 58 38.5 88.5t75.5 30.5q7 0 14 -1t14 -4t11.5 -5t11 -7t9.5 -7t10 -8t9 -7q31 -25 49 -25q29 0 39 45q5 18 20 18h37q17 0 17 -17q0 -5 -1 -11q-10 -55 -39.5 -83.5t-73.5 -28.5q-17 0 -33.5 7.5t-23 13t-23.5 19.5q-29 25 -47 25q-29 0 -39 -46q-5 -18 -21 -18
h-37q-9 0 -13.5 5t-4.5 11q0 2 1 5z" />
    <glyph glyph-name="Umacron" unicode="&#x16a;" horiz-adv-x="726" 
d="M87 282l56 401q3 17 21 17h67q18 0 18 -15v-5l-55 -387q-4 -28 -4 -53q0 -149 148 -149q86 0 141 51t68 151l55 390q3 17 21 17h67q18 0 18 -15v-5l-56 -398q-19 -139 -104 -216t-216 -77t-190 68.5t-59 165.5q0 28 4 59zM294 815l6 43q3 18 20 18h263q17 0 17 -15v-5
l-6 -43q-3 -18 -20 -18h-263q-17 0 -17 15v5z" />
    <glyph glyph-name="umacron" unicode="&#x16b;" horiz-adv-x="583" 
d="M59 186l38 266q3 17 21 17h61q18 0 18 -15v-5l-34 -239q-3 -19 -3 -36q0 -94 89 -94q61 0 104.5 36t52.5 97l33 239q3 17 21 17h61q18 0 18 -15v-5l-61 -432q-1 -17 -20 -17h-59q-18 0 -18 17v3l8 53h-3q-51 -84 -165 -84q-81 0 -125 47q-40 43 -40 112q0 18 3 38z
M187 584l6 43q3 18 20 18h263q17 0 17 -15v-5l-6 -43q-3 -18 -20 -18h-263q-17 0 -17 15v5z" />
    <glyph glyph-name="Ubreve" unicode="&#x16c;" horiz-adv-x="726" 
d="M87 282l56 401q3 17 21 17h67q18 0 18 -15v-5l-55 -387q-4 -28 -4 -53q0 -149 148 -149q86 0 141 51t68 151l55 390q3 17 21 17h67q18 0 18 -15v-5l-56 -398q-19 -139 -104 -216t-216 -77t-190 68.5t-59 165.5q0 28 4 59zM300 898q2 18 20 18h48q18 0 18 -20
q0 -57 58 -57q64 0 81 60q6 17 21 17h47q9 0 13.5 -5t4.5 -11q0 -2 -1 -5q-13 -62 -57 -93q-44 -32 -110 -32t-104.5 31t-38.5 85v12z" />
    <glyph glyph-name="ubreve" unicode="&#x16d;" horiz-adv-x="583" 
d="M59 186l38 266q3 17 21 17h61q18 0 18 -15v-5l-34 -239q-3 -19 -3 -36q0 -94 89 -94q61 0 104.5 36t52.5 97l33 239q3 17 21 17h61q18 0 18 -15v-5l-61 -432q-1 -17 -20 -17h-59q-18 0 -18 17v3l8 53h-3q-51 -84 -165 -84q-81 0 -125 47q-40 43 -40 112q0 18 3 38z
M193 655v12q1 18 20 18h48q18 0 18 -20q0 -57 58 -57q64 0 81 60q6 17 21 17h47q9 0 13.5 -5t4.5 -11q0 -2 -1 -5q-13 -62 -57 -93q-44 -32 -110 -32t-104.5 31t-38.5 85z" />
    <glyph glyph-name="Uring" unicode="&#x16e;" horiz-adv-x="726" 
d="M87 282l56 401q3 17 21 17h67q18 0 18 -15v-5l-55 -387q-4 -28 -4 -53q0 -149 148 -149q86 0 141 51t68 151l55 390q3 17 21 17h67q18 0 18 -15v-5l-56 -398q-19 -139 -104 -216t-216 -77t-190 68.5t-59 165.5q0 28 4 59zM329 867q0 54 39.5 93t96.5 39q49 0 81 -29
t32 -72q0 -54 -40.5 -93t-95.5 -39q-48 0 -80.5 29t-32.5 72zM398 872q0 -21 12.5 -33t34.5 -12q28 0 46.5 19.5t18.5 46.5q0 20 -13 32t-35 12q-29 0 -46.5 -18.5t-17.5 -46.5z" />
    <glyph glyph-name="uring" unicode="&#x16f;" horiz-adv-x="583" 
d="M59 186l38 266q3 17 21 17h61q18 0 18 -15v-5l-34 -239q-3 -19 -3 -36q0 -94 89 -94q61 0 104.5 36t52.5 97l33 239q3 17 21 17h61q18 0 18 -15v-5l-61 -432q-1 -17 -20 -17h-59q-18 0 -18 17v3l8 53h-3q-51 -84 -165 -84q-81 0 -125 47q-40 43 -40 112q0 18 3 38z
M222 636q0 54 39.5 93t96.5 39q49 0 81 -29t32 -72q0 -54 -40.5 -93t-95.5 -39q-48 0 -80.5 29t-32.5 72zM291 641q0 -21 12.5 -33t34.5 -12q28 0 46.5 19.5t18.5 46.5q0 20 -13 32t-35 12q-29 0 -46.5 -18.5t-17.5 -46.5z" />
    <glyph glyph-name="Uhungarumlaut" unicode="&#x170;" horiz-adv-x="726" 
d="M87 282l56 401q3 17 21 17h67q18 0 18 -15v-5l-55 -387q-4 -28 -4 -53q0 -149 148 -149q86 0 141 51t68 151l55 390q3 17 21 17h67q18 0 18 -15v-5l-56 -398q-19 -139 -104 -216t-216 -77t-190 68.5t-59 165.5q0 28 4 59zM467 795l99 118q11 11 24 11h57q12 0 14 -5t2 -7
q0 -5 -6 -12l-109 -118q-10 -10 -24 -10h-47q-12 0 -14 4.5t-2 6.5q0 5 6 12zM284 795l100 118q9 11 23 11h58q12 0 14 -4.5t2 -6.5q0 -6 -7 -13l-109 -118q-9 -10 -23 -10h-47q-12 0 -14.5 4.5t-2.5 6.5q0 6 6 12z" />
    <glyph glyph-name="uhungarumlaut" unicode="&#x171;" horiz-adv-x="583" 
d="M59 186l38 266q3 17 21 17h61q18 0 18 -15v-5l-34 -239q-3 -19 -3 -36q0 -94 89 -94q61 0 104.5 36t52.5 97l33 239q3 17 21 17h61q18 0 18 -15v-5l-61 -432q-1 -17 -20 -17h-59q-18 0 -18 17v3l8 53h-3q-51 -84 -165 -84q-81 0 -125 47q-40 43 -40 112q0 18 3 38z
M360 564l99 118q11 11 24 11h57q12 0 14 -5t2 -7q0 -5 -6 -12l-109 -118q-10 -10 -24 -10h-47q-12 0 -14 4.5t-2 6.5q0 5 6 12zM177 564l100 118q9 11 23 11h58q12 0 14 -4.5t2 -6.5q0 -6 -7 -13l-109 -118q-9 -10 -23 -10h-47q-12 0 -14.5 4.5t-2.5 6.5q0 6 6 12z" />
    <glyph glyph-name="Uogonek" unicode="&#x172;" horiz-adv-x="726" 
d="M87 282l56 401q3 17 21 17h67q18 0 18 -15v-5l-55 -387q-4 -28 -4 -53q0 -149 148 -149q86 0 141 51t68 151l55 390q3 17 21 17h67q18 0 18 -15v-5l-56 -398q-14 -103 -65.5 -172.5t-131.5 -99.5q-57 -33 -83.5 -57.5t-26.5 -48.5q0 -32 49 -32q7 0 25 2h3q8 0 10.5 -3
t2.5 -9q0 -3 -1 -7l-5 -38q-3 -17 -20 -20q-19 -4 -39 -4q-52 0 -82 24.5t-30 63.5q0 60 68 108q-129 2 -186 70t-57 164q0 28 4 59z" />
    <glyph glyph-name="uogonek" unicode="&#x173;" horiz-adv-x="583" 
d="M59 186l38 266q3 17 21 17h61q18 0 18 -15v-5l-34 -239q-3 -19 -3 -36q0 -94 89 -94q61 0 104.5 36t52.5 97l33 239q3 17 21 17h61q18 0 18 -15v-5l-61 -432q-1 -15 -15 -24q-49 -30 -74 -53t-25 -47q0 -31 49 -31q16 0 25 2h3q8 0 11 -3.5t3 -9.5q0 -3 -1 -7l-6 -38
q-3 -17 -20 -20q-20 -3 -39 -3q-52 0 -82 24.5t-30 62.5q0 79 111 133q-7 4 -7 14v3l8 53h-3q-51 -84 -165 -84q-81 0 -125 47q-40 43 -40 112q0 18 3 38z" />
    <glyph glyph-name="Wcircumflex" unicode="&#x174;" horiz-adv-x="1051" 
d="M108 700h71q17 0 20 -17l92 -524h3l241 527q6 14 21 14h65q17 0 20 -17l93 -524h2l241 527q6 14 22 14h71q10 0 13.5 -5t3.5 -8q0 -5 -3 -10l-310 -663q-7 -14 -22 -14h-67q-17 0 -20 17l-95 516h-2l-241 -519q-6 -14 -22 -14h-71q-17 0 -20 17l-123 662q-1 4 -1 7
q0 14 18 14zM444 795l121 119q10 10 23 10h69q15 0 22 -12l86 -118q5 -7 5 -12q0 -2 -2.5 -6t-13.5 -4h-54q-16 0 -23 11l-56 79h-4l-81 -81q-8 -9 -22 -9h-61q-13 0 -14.5 4.5t-1.5 6.5q0 6 7 12z" />
    <glyph glyph-name="wcircumflex" unicode="&#x175;" horiz-adv-x="833" 
d="M80 469h62q18 0 21 -17l67 -326h2l165 330q6 13 21 13h60q17 0 20 -17l71 -326h2l161 329q6 14 22 14h62q11 0 14 -4.5t3 -8.5t-3 -10l-220 -433q-7 -13 -22 -13h-64q-16 0 -21 17l-70 319h-2l-163 -323q-6 -13 -21 -13h-66q-18 0 -21 16l-97 432q-1 4 -1 7q0 14 18 14z
M303 564l121 119q10 10 23 10h69q14 0 22 -12l86 -118q5 -7 5 -12q0 -2 -2.5 -6t-13.5 -4h-54q-16 0 -23 11l-56 79h-4l-81 -81q-8 -9 -22 -9h-61q-13 0 -14.5 4.5t-1.5 6.5q0 6 7 12z" />
    <glyph glyph-name="Ycircumflex" unicode="&#x176;" horiz-adv-x="662" 
d="M86 694q4 6 15 6h72q16 0 22 -14l150 -307h1l238 309q9 12 23 12h82q12 0 14 -4t2 -7q0 -5 -5 -12l-308 -396l-38 -264q-3 -17 -21 -17h-68q-18 0 -18 17v3l38 261l-198 396q-3 6 -3 10t2 7zM250 795l121 119q10 10 23 10h69q15 0 22 -12l86 -118q5 -7 5 -12
q0 -2 -2.5 -6t-13.5 -4h-54q-16 0 -23 11l-56 79h-4l-81 -81q-8 -9 -22 -9h-61q-13 0 -14.5 4.5t-1.5 6.5q0 6 7 12z" />
    <glyph glyph-name="ycircumflex" unicode="&#x177;" horiz-adv-x="586" 
d="M39 -62h62q16 0 19 -18q13 -62 110 -62q133 0 152 136l13 89h-4q-51 -83 -165 -83q-82 0 -126 47q-39 42 -39 110q0 18 3 38l36 257q3 17 21 17h61q18 0 18 -15v-5l-33 -229q-3 -19 -3 -36q0 -94 89 -94q60 0 104.5 36.5t53.5 96.5l32 228q3 18 21 18h61q18 0 18 -15v-5
l-64 -455q-15 -106 -80 -163.5t-172 -57.5q-93 0 -149 40t-58 106v3q0 16 19 16zM176 564l121 119q10 10 23 10h69q15 0 22 -12l86 -118q5 -7 5 -12q0 -2 -2.5 -6t-13.5 -4h-54q-16 0 -23 11l-56 79h-4l-81 -81q-8 -9 -22 -9h-61q-13 0 -14.5 4.5t-1.5 6.5q0 6 7 12z" />
    <glyph glyph-name="Ydieresis" unicode="&#x178;" horiz-adv-x="662" 
d="M86 694q4 6 15 6h72q16 0 22 -14l150 -307h1l238 309q9 12 23 12h82q12 0 14 -4t2 -7q0 -5 -5 -12l-308 -396l-38 -264q-3 -17 -21 -17h-68q-18 0 -18 17v3l38 261l-198 396q-3 6 -3 10t2 7zM481 894q21 22 52 22q26 0 42.5 -16.5t16.5 -41.5q0 -32 -21.5 -53.5
t-52.5 -21.5q-26 0 -42.5 16.5t-16.5 41.5q0 30 22 53zM244 841q0 30 21.5 52.5t52.5 22.5q26 0 42.5 -16.5t16.5 -41.5q0 -32 -21.5 -53.5t-52.5 -21.5q-26 0 -42.5 16.5t-16.5 41.5z" />
    <glyph glyph-name="Zacute" unicode="&#x179;" horiz-adv-x="625" 
d="M21 20l6 47q1 11 11 22l445 513h-352q-18 0 -18 15v5l8 60q3 18 21 18h470q18 0 18 -17v-3l-7 -47q-1 -12 -10 -22l-445 -513h365q18 0 18 -15v-5l-8 -60q-3 -18 -21 -18h-483q-18 0 -18 15v5zM318 795l96 118q8 11 23 11h80q12 0 14 -5t2 -7q0 -5 -6 -12l-112 -118
q-9 -10 -23 -10h-63q-12 0 -14.5 4.5t-2.5 6.5q0 6 6 12z" />
    <glyph glyph-name="zacute" unicode="&#x17a;" horiz-adv-x="485" 
d="M11 20l5 36q2 13 12 22l301 305h-238q-18 0 -18 15v5l7 49q1 17 20 17h353q18 0 18 -15v-5l-5 -35q-1 -12 -12 -23l-301 -305h249q18 0 18 -15v-5l-7 -49q-3 -17 -21 -17h-363q-18 0 -18 15v5zM218 564l96 118q8 11 23 11h80q12 0 14 -5t2 -7q0 -5 -6 -12l-112 -118
q-9 -10 -23 -10h-63q-12 0 -14.5 4.5t-2.5 6.5q0 6 6 12z" />
    <glyph glyph-name="Zdotaccent" unicode="&#x17b;" horiz-adv-x="625" 
d="M21 20l6 47q1 11 11 22l445 513h-352q-18 0 -18 15v5l8 60q3 18 21 18h470q18 0 18 -17v-3l-7 -47q-1 -12 -10 -22l-445 -513h365q18 0 18 -15v-5l-8 -60q-3 -18 -21 -18h-483q-18 0 -18 15v5zM328 842q0 31 22 54t55 23q27 0 44 -16.5t17 -42.5q0 -32 -22 -54.5
t-54 -22.5q-27 0 -44.5 16.5t-17.5 42.5z" />
    <glyph glyph-name="zdotaccent" unicode="&#x17c;" horiz-adv-x="485" 
d="M11 20l5 36q2 13 12 22l301 305h-238q-18 0 -18 15v5l7 49q1 17 20 17h353q18 0 18 -15v-5l-5 -35q-1 -12 -12 -23l-301 -305h249q18 0 18 -15v-5l-7 -49q-3 -17 -21 -17h-363q-18 0 -18 15v5zM228 611q0 31 22 54t55 23q27 0 44 -16.5t17 -42.5q0 -32 -22 -54.5
t-54 -22.5q-27 0 -44.5 16.5t-17.5 42.5z" />
    <glyph glyph-name="Zcaron" unicode="&#x17d;" horiz-adv-x="625" 
d="M21 20l6 47q1 11 11 22l445 513h-352q-18 0 -18 15v5l8 60q3 18 21 18h470q18 0 18 -17v-3l-7 -47q-1 -12 -10 -22l-445 -513h365q18 0 18 -15v-5l-8 -60q-3 -18 -21 -18h-483q-18 0 -18 15v5zM241 918q3 6 14 6h54q15 0 23 -12l57 -79h3l81 81q10 10 22 10h61
q13 0 14.5 -5t1.5 -6q0 -7 -7 -13l-121 -119q-9 -9 -23 -9h-69q-15 0 -23 11l-85 118q-4 6 -4 12q0 2 1 5z" />
    <glyph glyph-name="zcaron" unicode="&#x17e;" horiz-adv-x="485" 
d="M11 20l5 36q2 13 12 22l301 305h-238q-18 0 -18 15v5l7 49q1 17 20 17h353q18 0 18 -15v-5l-5 -35q-1 -12 -12 -23l-301 -305h249q18 0 18 -15v-5l-7 -49q-3 -17 -21 -17h-363q-18 0 -18 15v5zM141 687q3 6 14 6h54q15 0 23 -12l57 -79h3l81 81q10 10 22 10h61
q13 0 14.5 -5t1.5 -6q0 -7 -7 -13l-121 -119q-9 -9 -23 -9h-69q-15 0 -23 11l-85 118q-4 6 -4 12q0 2 1 5z" />
    <glyph glyph-name="florin" unicode="&#x192;" horiz-adv-x="506" 
d="M518 706q17 -3 14 -21l-6 -51q-3 -18 -21 -17q-6 1 -19 1q-41 0 -62 -16.5t-36 -62.5l-33 -100h111q21 0 18 -20l-5 -38q-3 -18 -21 -18h-128l-112 -342q-26 -80 -69.5 -115t-107.5 -35q-18 0 -46 4q-17 3 -14 22l6 51q3 18 21 17q6 -1 19 -1q41 0 60.5 16.5t35.5 62.5
l106 320h-94q-21 0 -18 20l5 39q1 17 20 17h112l40 122q27 80 70 115t108 35q23 0 46 -5z" />
    <glyph glyph-name="uni01CD" unicode="&#x1cd;" horiz-adv-x="713" 
d="M-6 23l368 664q7 13 23 13h72q18 0 22 -16l180 -663q1 -4 1 -7q0 -4 -3.5 -9t-13.5 -5h-68q-17 0 -22 16l-35 135h-339l-75 -138q-7 -13 -23 -13h-74q-11 0 -14 4.5t-3 7.5q0 5 4 11zM494 246l-85 328h-2l-177 -328h264zM287 918q3 6 14 6h54q15 0 23 -12l57 -79h3l81 81
q10 10 22 10h61q13 0 14.5 -5t1.5 -6q0 -7 -7 -13l-121 -119q-9 -9 -23 -9h-69q-15 0 -23 11l-85 118q-4 6 -4 12q0 2 1 5z" />
    <glyph glyph-name="uni01CE" unicode="&#x1ce;" horiz-adv-x="614" 
d="M121 400q76 80 185 80q55 0 98 -22t58 -60h5l7 54q3 17 21 17h58q18 0 18 -15v-5l-61 -432q-3 -17 -21 -17h-58q-18 0 -18 15v5l8 51h-4q-26 -38 -72.5 -60t-99.5 -22q-90 0 -145 60.5t-55 155.5q0 114 76 195zM148 207q0 -58 33 -92.5t91 -34.5q75 0 124.5 51.5
t49.5 127.5q0 58 -34.5 94.5t-93.5 36.5q-73 0 -121.5 -54t-48.5 -129zM207 687q3 6 14 6h54q15 0 23 -12l57 -79h3l81 81q10 10 22 10h61q13 0 14.5 -5t1.5 -6q0 -7 -7 -13l-121 -119q-9 -9 -23 -9h-69q-15 0 -23 11l-85 118q-4 6 -4 12q0 2 1 5z" />
    <glyph glyph-name="uni01E2" unicode="&#x1e2;" horiz-adv-x="1075" 
d="M-10 23l538 666q9 11 23 11h509q18 0 18 -15v-5l-8 -60q-2 -18 -20 -18h-357l-29 -204h280q18 0 18 -17v-3l-9 -58q-1 -18 -20 -18h-283l-29 -204h358q18 0 18 -15v-5l-8 -60q-3 -18 -21 -18h-445q-18 0 -18 15v5l19 133h-297l-113 -142q-9 -11 -23 -11h-89
q-12 0 -14.5 4.5t-2.5 6.5q0 5 5 12zM537 249l50 356h-2l-282 -356h234zM668 815l6 43q3 18 20 18h263q17 0 17 -15v-5l-6 -43q-3 -18 -20 -18h-263q-17 0 -17 15v5z" />
    <glyph glyph-name="uni01E3" unicode="&#x1e3;" horiz-adv-x="913" 
d="M25 117q0 77 57.5 116t157.5 39h151l1 10q2 15 2 28q0 38 -20 62.5t-79 24.5q-89 0 -115 -56q-6 -16 -21 -16h-62q-10 0 -13.5 5t-3.5 9q0 3 1 7q44 134 218 134q129 0 163 -80h3q71 80 193 80q97 0 155 -54.5t58 -146.5q0 -29 -7 -60q-3 -16 -21 -16h-362v-8
q0 -60 32.5 -91.5t94.5 -31.5q93 0 135 59q10 13 23 13h56q11 0 14.5 -4.5t3.5 -8.5t-2 -9q-29 -59 -90.5 -96t-143.5 -37q-132 0 -188 94h-3q-68 -94 -211 -94q-83 0 -130 35t-47 93zM773 275v2q0 121 -118 121q-61 0 -103 -33t-60 -90h281zM213 71q66 0 112 31t53 77l3 23
h-142q-114 0 -114 -74q0 -57 88 -57zM356 584l6 43q3 18 20 18h263q17 0 17 -15v-5l-6 -43q-3 -18 -20 -18h-263q-17 0 -17 15v5z" />
    <glyph glyph-name="Gcaron" unicode="&#x1e6;" horiz-adv-x="817" 
d="M69 301q0 109 53 203t147.5 150.5t206.5 56.5q118 0 201.5 -61t99.5 -159v-5q0 -15 -18 -15h-75q-16 0 -21 17q-13 57 -63 90t-124 33q-128 0 -212.5 -89.5t-84.5 -218.5q0 -100 57 -157t157 -57q101 0 176 57t96 153h-206q-18 0 -18 17v3l8 50q1 18 20 18h293
q18 0 18 -17v-3l-5 -32q-22 -156 -129 -251t-256 -95q-144 0 -232.5 87t-88.5 225zM348 918q3 6 14 6h54q15 0 23 -12l57 -79h3l81 81q10 10 22 10h61q13 0 14.5 -5t1.5 -6q0 -7 -7 -13l-121 -119q-9 -9 -23 -9h-69q-15 0 -23 11l-85 118q-4 6 -4 12q0 2 1 5z" />
    <glyph glyph-name="gcaron" unicode="&#x1e7;" horiz-adv-x="614" 
d="M36 -48h63q16 0 19 -18q12 -76 119 -76q153 0 175 151l10 71h-4q-25 -39 -70 -60.5t-97 -21.5q-89 0 -147.5 59.5t-58.5 149.5q0 110 76.5 191.5t185.5 81.5q53 0 95 -22t59 -60h5l8 54q3 17 21 17h58q18 0 18 -17v-3l-62 -440q-16 -112 -86 -174t-187 -62q-97 0 -156 43
t-63 117v3q0 16 19 16zM148 211q0 -56 33 -91t91 -35q74 0 123.5 52.5t49.5 127.5q0 56 -33 90.5t-91 34.5q-74 0 -123.5 -52.5t-49.5 -126.5zM201 687q3 6 14 6h54q15 0 23 -12l57 -79h3l81 81q10 10 22 10h61q13 0 14.5 -5t1.5 -6q0 -7 -7 -13l-121 -119q-9 -9 -23 -9h-69
q-15 0 -23 11l-85 118q-4 6 -4 12q0 2 1 5z" />
    <glyph glyph-name="uni01E8" unicode="&#x1e8;" horiz-adv-x="686" 
d="M59 20l92 662q3 18 21 18h67q18 0 18 -15v-5l-46 -326h69q18 0 27 -1l261 336q8 11 23 11h84q12 0 14 -4t2 -6q0 -6 -6 -13l-267 -345q186 -66 190 -313q0 -19 -19 -19h-76q-18 0 -20 19q-6 126 -63 180t-173 54h-60l-33 -235q-2 -18 -20 -18h-67q-18 0 -18 15v5z
M286 918q3 6 14 6h54q15 0 23 -12l57 -79h3l81 81q10 10 22 10h61q13 0 14.5 -5t1.5 -6q0 -7 -7 -13l-121 -119q-9 -9 -23 -9h-69q-15 0 -23 11l-85 118q-4 6 -4 12q0 2 1 5z" />
    <glyph glyph-name="uni01E9" unicode="&#x1e9;" horiz-adv-x="558" 
d="M44 20l92 662q3 18 21 18h61q18 0 18 -15v-5l-55 -399h54q21 0 32 -1l158 179q9 10 23 10h78q12 0 14 -4.5t2 -6.5q0 -5 -6 -12l-170 -192q126 -60 127 -235q0 -19 -19 -19h-66q-18 0 -20 19q-4 93 -46 132t-131 39h-43l-24 -172q-3 -18 -21 -18h-61q-18 0 -18 15v5z
M54 918q3 6 14 6h54q15 0 23 -12l57 -79h3l81 81q10 10 22 10h61q13 0 14.5 -5t1.5 -6q0 -7 -7 -13l-121 -119q-9 -9 -23 -9h-69q-15 0 -23 11l-85 118q-4 6 -4 12q0 2 1 5z" />
    <glyph glyph-name="AEacute" unicode="&#x1fc;" horiz-adv-x="1075" 
d="M-10 23l538 666q9 11 23 11h509q18 0 18 -15v-5l-8 -60q-2 -18 -20 -18h-357l-29 -204h280q18 0 18 -17v-3l-9 -58q-1 -18 -20 -18h-283l-29 -204h358q18 0 18 -15v-5l-8 -60q-3 -18 -21 -18h-445q-18 0 -18 15v5l19 133h-297l-113 -142q-9 -11 -23 -11h-89
q-12 0 -14.5 4.5t-2.5 6.5q0 5 5 12zM303 249h234l50 356h-2zM745 795l96 118q8 11 23 11h80q12 0 14 -5t2 -7q0 -5 -6 -12l-112 -118q-9 -10 -23 -10h-63q-12 0 -14.5 4.5t-2.5 6.5q0 6 6 12z" />
    <glyph glyph-name="aeacute" unicode="&#x1fd;" horiz-adv-x="913" 
d="M25 117q0 77 57.5 116t157.5 39h151l1 10q2 15 2 28q0 38 -20 62.5t-79 24.5q-89 0 -115 -56q-6 -16 -21 -16h-62q-10 0 -13.5 5t-3.5 9q0 3 1 7q44 134 218 134q129 0 163 -80h3q71 80 193 80q97 0 155 -54.5t58 -146.5q0 -29 -7 -60q-3 -16 -21 -16h-362v-8
q0 -60 32.5 -91.5t94.5 -31.5q93 0 135 59q10 13 23 13h56q11 0 14.5 -4.5t3.5 -8.5t-2 -9q-29 -59 -90.5 -96t-143.5 -37q-132 0 -188 94h-3q-68 -94 -211 -94q-83 0 -130 35t-47 93zM773 275v2q0 121 -118 121q-61 0 -103 -33t-60 -90h281zM125 128q0 -57 88 -57
q66 0 112 31t53 77l3 23h-142q-114 0 -114 -74zM432 564l96 118q8 11 23 11h80q12 0 14 -5t2 -7q0 -5 -6 -12l-112 -118q-9 -10 -23 -10h-63q-12 0 -14.5 4.5t-2.5 6.5q0 6 6 12z" />
    <glyph glyph-name="Oslashacute" unicode="&#x1fe;" horiz-adv-x="832" 
d="M122 502q53 94 147 151.5t204 57.5q82 0 148 -32l59 81q7 9 15 9q5 0 11 -4l33 -20q9 -6 9 -14q0 -6 -5 -13l-57 -80q109 -90 109 -241q0 -105 -53.5 -199t-148 -151.5t-204.5 -57.5q-81 0 -147 32l-58 -81q-7 -9 -15 -9q-5 0 -11 4l-32 20q-10 6 -10 14q0 5 5 12l57 80
q-109 90 -109 242q0 105 53 199zM177 305q0 -103 62 -163l326 454q-40 17 -92 17q-126 0 -211 -91.5t-85 -216.5zM390 87q125 0 210.5 90.5t85.5 216.5q0 105 -62 164l-325 -454q40 -17 91 -17zM423 795l96 118q8 11 23 11h80q12 0 14 -5t2 -7q0 -5 -6 -12l-112 -118
q-9 -10 -23 -10h-63q-12 0 -14.5 4.5t-2.5 6.5q0 6 6 12z" />
    <glyph glyph-name="oslashacute" unicode="&#x1ff;" horiz-adv-x="592" 
d="M127 400q82 80 198 80q52 0 94 -18l45 63q6 10 13 10q6 0 12 -5l23 -14q10 -6 10 -15q0 -5 -4 -12l-44 -60q73 -62 73 -166q0 -112 -81.5 -193t-197.5 -81q-52 0 -96 19l-46 -64q-6 -10 -13 -10q-6 0 -12 5l-23 14q-10 7 -10 15q0 6 4 12l45 62q-72 61 -72 165
q0 112 82 193zM273 76q74 0 124.5 54t50.5 130q0 60 -33 95l-194 -270q23 -9 52 -9zM144 210q0 -58 31 -94l194 269q-22 8 -49 8q-74 0 -125 -53.5t-51 -129.5zM272 564l96 118q8 11 23 11h80q12 0 14 -5t2 -7q0 -5 -6 -12l-112 -118q-9 -10 -23 -10h-63q-12 0 -14.5 4.5
t-2.5 6.5q0 6 6 12z" />
    <glyph glyph-name="uni0218" unicode="&#x218;" horiz-adv-x="626" 
d="M62 202h69q18 0 20 -19q9 -98 142 -98q81 0 127.5 34.5t46.5 89.5q0 38 -23 59t-74 31l-102 18q-176 34 -176 167q0 106 75.5 166.5t203.5 60.5q115 0 176 -50.5t61 -148.5v-3q0 -19 -20 -19h-68q-17 0 -19 20q0 55 -33 80t-103 25q-81 0 -123 -31t-42 -88
q0 -39 26 -59.5t90 -31.5l102 -19q79 -15 119 -56.5t40 -102.5q0 -112 -79 -175t-207 -63q-117 0 -181.5 51t-66.5 143v3q0 16 19 16zM197 -234l35 135q5 16 21 16h64q17 0 17 -12q0 -4 -2 -10l-54 -134q-6 -16 -22 -16h-43q-17 0 -17 14q0 3 1 7z" />
    <glyph glyph-name="uni0219" unicode="&#x219;" horiz-adv-x="495" 
d="M46 139h59q15 0 20 -18q11 -54 102 -54q57 0 86 20.5t29 54.5q0 22 -18 33.5t-59 17.5l-81 13q-126 18 -126 114q0 73 56.5 116.5t160.5 43.5q90 0 138 -34.5t49 -101.5q0 -19 -20 -19h-59q-17 0 -19 19q-6 58 -94 58q-57 0 -85.5 -20t-28.5 -52q0 -38 78 -50l81 -12
q126 -18 126 -114q0 -76 -55.5 -120.5t-161.5 -44.5q-92 0 -142.5 34t-54.5 97v3q0 16 19 16zM119 -234l35 135q5 16 21 16h64q17 0 17 -12q0 -4 -2 -10l-54 -134q-6 -16 -22 -16h-43q-17 0 -17 14q0 3 1 7z" />
    <glyph glyph-name="uni021A" unicode="&#x21a;" horiz-adv-x="595" 
d="M82 621l8 61q3 18 21 18h502q18 0 18 -15v-5l-8 -61q-3 -18 -21 -18h-200l-82 -584q-3 -17 -21 -17h-67q-18 0 -18 17v3l82 581h-196q-18 0 -18 15v5zM158 -234l35 135q5 16 21 16h64q17 0 17 -12q0 -4 -2 -10l-54 -134q-6 -16 -22 -16h-43q-17 0 -17 14q0 3 1 7z" />
    <glyph glyph-name="uni021B" unicode="&#x21b;" horiz-adv-x="438" 
d="M42 404l7 47q1 18 20 18h87l16 113q3 18 21 18h61q18 0 18 -15v-5l-16 -111h158q17 0 17 -15v-5l-7 -47q-1 -18 -20 -18h-160l-29 -209q-2 -15 -2 -28q0 -31 15 -49t63 -18q39 0 72 12q5 2 9 2q5 0 8.5 -3t4.5 -10q-1 -2 -1 -5l-7 -49q-1 -15 -15 -20q-42 -18 -96 -18
q-155 0 -155 137q0 19 3 41l30 217h-85q-17 0 -17 15v5zM129 -234l35 135q5 16 21 16h64q17 0 17 -12q0 -4 -2 -10l-54 -134q-6 -16 -22 -16h-43q-17 0 -17 14q0 3 1 7z" />
    <glyph glyph-name="uni0237" unicode="&#x237;" horiz-adv-x="247" 
d="M-119 -200l7 53q1 15 14 15q4 0 8 -1q16 -2 26 -2q46 0 69.5 22t30.5 77l67 487q3 18 21 18h61q18 0 18 -15v-5l-68 -489q-13 -97 -60 -142t-129 -45q-32 0 -51 6q-14 3 -14 16v5z" />
    <glyph glyph-name="circumflex" unicode="&#x2c6;" 
d="M186 564l121 119q10 10 23 10h69q15 0 22 -12l86 -118q5 -7 5 -12q0 -2 -2.5 -6t-13.5 -4h-54q-16 0 -23 11l-56 79h-4l-81 -81q-8 -9 -22 -9h-61q-13 0 -14.5 4.5t-1.5 6.5q0 6 7 12z" />
    <glyph glyph-name="caron" unicode="&#x2c7;" 
d="M198 687q3 6 14 6h54q15 0 23 -12l57 -79h3l81 81q10 10 22 10h61q13 0 14.5 -5t1.5 -6q0 -7 -7 -13l-121 -119q-9 -9 -23 -9h-69q-15 0 -23 11l-85 118q-4 6 -4 12q0 2 1 5z" />
    <glyph glyph-name="breve" unicode="&#x2d8;" 
d="M225 685h48q18 0 18 -20q0 -57 58 -57q64 0 81 60q6 17 21 17h47q9 0 13.5 -5t4.5 -11q0 -2 -1 -5q-13 -62 -57 -93q-44 -32 -110 -32t-104.5 31t-38.5 85v12q1 18 20 18z" />
    <glyph glyph-name="dotaccent" unicode="&#x2d9;" 
d="M307 665q22 23 55 23q27 0 44 -16.5t17 -42.5q0 -32 -22 -54.5t-54 -22.5q-27 0 -44.5 16.5t-17.5 42.5q0 31 22 54z" />
    <glyph glyph-name="ring" unicode="&#x2da;" 
d="M274 729q39 39 96 39q49 0 81 -29t32 -72q0 -54 -40.5 -93t-95.5 -39q-48 0 -80.5 29t-32.5 72q0 54 40 93zM316 608q12 -12 34 -12q28 0 46.5 19.5t18.5 46.5q0 20 -13 32t-35 12q-29 0 -46.5 -18.5t-17.5 -46.5q0 -21 13 -33z" />
    <glyph glyph-name="ogonek" unicode="&#x2db;" 
d="M254 -217q-52 0 -82 24.5t-30 62.5q0 51 45 90t113 62l44 6l-2 -14q-3 -14 -15 -21q-49 -30 -73.5 -53t-24.5 -47q0 -31 49 -31q16 0 25 2q10 1 13.5 -3.5t1.5 -16.5l-5 -38q-3 -17 -20 -20q-21 -3 -39 -3z" />
    <glyph glyph-name="tilde" unicode="&#x2dc;" 
d="M176 567q9 58 38.5 88.5t75.5 30.5q7 0 14 -1t14 -4t11.5 -5t11 -7t9.5 -7t10 -8t9 -7q31 -25 49 -25q29 0 39 45q5 18 20 18h37q17 0 17 -17q0 -5 -1 -11q-10 -55 -39.5 -83.5t-73.5 -28.5q-17 0 -33.5 7.5t-23 13t-23.5 19.5q-29 25 -47 25q-29 0 -39 -46
q-5 -18 -21 -18h-37q-9 0 -13.5 5t-4.5 11q0 2 1 5z" />
    <glyph glyph-name="hungarumlaut" unicode="&#x2dd;" 
d="M403 564l99 118q11 11 24 11h57q12 0 14 -5t2 -7q0 -5 -6 -12l-109 -118q-10 -10 -24 -10h-47q-12 0 -14 4.5t-2 6.5q0 5 6 12zM220 564l100 118q9 11 23 11h58q12 0 14 -4.5t2 -6.5q0 -6 -7 -13l-109 -118q-9 -10 -23 -10h-47q-12 0 -14.5 4.5t-2.5 6.5q0 6 6 12z" />
    <glyph glyph-name="gravecomb" unicode="&#x300;" horiz-adv-x="0" 
d="M-397 686q4 7 15 7h74q16 0 23 -14l62 -115q3 -6 3 -10t-3 -8.5t-14 -4.5h-57q-15 0 -24 12l-76 117q-4 6 -4 11q0 3 1 5z" />
    <glyph glyph-name="acutecomb" unicode="&#x301;" horiz-adv-x="0" 
d="M-303 564l96 118q8 11 23 11h80q12 0 14 -5t2 -7q0 -5 -6 -12l-112 -118q-9 -10 -23 -10h-63q-12 0 -14.5 4.5t-2.5 6.5q0 6 6 12z" />
    <glyph glyph-name="uni0302" unicode="&#x302;" horiz-adv-x="0" 
d="M-414 564l121 119q10 10 23 10h69q15 0 22 -12l86 -118q5 -7 5 -12q0 -2 -2.5 -6t-13.5 -4h-54q-16 0 -23 11l-56 79h-4l-81 -81q-8 -9 -22 -9h-61q-13 0 -14.5 4.5t-1.5 6.5q0 6 7 12z" />
    <glyph glyph-name="tildecomb" unicode="&#x303;" horiz-adv-x="0" 
d="M-424 567q9 58 38.5 88.5t75.5 30.5q7 0 14 -1t14 -4t11.5 -5t11 -7t9.5 -7t10 -8t9 -7q31 -25 49 -25q29 0 39 45q5 18 20 18h37q17 0 17 -17q0 -5 -1 -11q-10 -55 -39.5 -83.5t-73.5 -28.5q-17 0 -33.5 7.5t-23 13t-23.5 19.5q-29 25 -47 25q-29 0 -39 -46
q-5 -18 -21 -18h-37q-9 0 -13.5 5t-4.5 11q0 2 1 5z" />
    <glyph glyph-name="uni0304" unicode="&#x304;" horiz-adv-x="0" 
d="M-401 584l6 43q3 18 20 18h263q17 0 17 -15v-5l-6 -43q-3 -18 -20 -18h-263q-17 0 -17 15v5z" />
    <glyph glyph-name="uni0306" unicode="&#x306;" horiz-adv-x="0" 
d="M-375 685h48q18 0 18 -20q0 -57 58 -57q64 0 81 60q6 17 21 17h47q9 0 13.5 -5t4.5 -11q0 -2 -1 -5q-13 -62 -57 -93q-44 -32 -110 -32t-104.5 31t-38.5 85v12q1 18 20 18z" />
    <glyph glyph-name="uni0307" unicode="&#x307;" horiz-adv-x="0" 
d="M-293 665q22 23 55 23q27 0 44 -16.5t17 -42.5q0 -32 -22 -54.5t-54 -22.5q-27 0 -44.5 16.5t-17.5 42.5q0 31 22 54z" />
    <glyph glyph-name="uni0308" unicode="&#x308;" horiz-adv-x="0" 
d="M-399 663q22 22 53 22q26 0 42.5 -16.5t16.5 -41.5q0 -32 -21.5 -53.5t-52.5 -21.5q-26 0 -42.5 16.5t-16.5 41.5q0 30 21 53zM-184 663q22 22 53 22q26 0 42.5 -16.5t16.5 -41.5q0 -32 -21.5 -53.5t-52.5 -21.5q-26 0 -42.5 16.5t-16.5 41.5q0 30 21 53z" />
    <glyph glyph-name="uni030A" unicode="&#x30a;" horiz-adv-x="0" 
d="M-327 729q40 39 97 39q49 0 81 -29t32 -72q0 -54 -40.5 -93t-95.5 -39q-48 0 -80.5 29t-32.5 72q0 54 39 93zM-285 608q13 -12 35 -12q28 0 46.5 19.5t18.5 46.5q0 20 -13 32t-35 12q-29 0 -46.5 -18.5t-17.5 -46.5q0 -21 12 -33z" />
    <glyph glyph-name="uni030B" unicode="&#x30b;" horiz-adv-x="0" 
d="M-197 564l99 118q11 11 24 11h57q12 0 14 -5t2 -7q0 -5 -6 -12l-109 -118q-10 -10 -24 -10h-47q-12 0 -14 4.5t-2 6.5q0 5 6 12zM-380 564l100 118q9 11 23 11h58q12 0 14 -4.5t2 -6.5q0 -6 -7 -13l-109 -118q-9 -10 -23 -10h-47q-12 0 -14.5 4.5t-2.5 6.5q0 6 6 12z" />
    <glyph glyph-name="uni030C" unicode="&#x30c;" horiz-adv-x="0" 
d="M-403 687q4 6 15 6h54q15 0 23 -12l57 -79h3l81 81q10 10 22 10h61q13 0 14.5 -5t1.5 -6q0 -7 -7 -13l-121 -119q-9 -9 -23 -9h-69q-15 0 -23 11l-85 118q-5 7 -5 13q0 2 1 4z" />
    <glyph glyph-name="uni0312" unicode="&#x312;" horiz-adv-x="0" 
d="M-298 586l55 134q6 15 22 15h42q17 0 17 -13q0 -4 -1 -8l-34 -134q-5 -16 -22 -16h-64q-17 0 -17 12q0 4 2 10z" />
    <glyph glyph-name="uni0326" unicode="&#x326;" horiz-adv-x="0" 
d="M-435 -234l35 135q5 16 21 16h64q17 0 17 -12q0 -4 -2 -10l-54 -134q-6 -16 -22 -16h-43q-17 0 -17 14q0 3 1 7z" />
    <glyph glyph-name="uni0327" unicode="&#x327;" horiz-adv-x="0" 
d="M-442 -157l89 180h91l-83 -188q-4 -14 -22 -14h-61q-11 0 -13.5 4.5t-2.5 7.5q0 5 2 10z" />
    <glyph glyph-name="uni0328" unicode="&#x328;" horiz-adv-x="0" 
d="M-413 -40q45 39 113 62l44 6l-2 -14q-3 -14 -15 -21q-49 -30 -73.5 -53t-24.5 -47q0 -31 49 -31q16 0 25 2h3q8 0 10.5 -3t2.5 -9q0 -4 -1 -8l-5 -38q-3 -17 -20 -20q-21 -3 -39 -3q-52 0 -82 24.5t-30 62.5q0 51 45 90z" />
    <glyph glyph-name="uni03BC" unicode="&#x3bc;" horiz-adv-x="625" 
d="M549 469q21 0 18 -20l-61 -432q-3 -17 -21 -17h-51q-20 0 -18 20l6 69q-25 -46 -70.5 -73t-96.5 -27q-64 0 -95 48l-32 -236q-3 -17 -21 -17h-61q-21 0 -18 20l91 648q3 17 21 17h61q21 0 18 -20l-34 -240q-9 -65 13.5 -95.5t76.5 -30.5q63 0 107 38.5t54 112.5l31 217
q3 18 21 18h61z" />
    <glyph glyph-name="pi" unicode="&#x3c0;" horiz-adv-x="603" 
d="M530 92q21 0 18 -20l-8 -55q-3 -17 -21 -17h-28q-68 0 -95 33.5t-17 103.5l34 241h-204l-51 -361q-3 -17 -21 -17h-61q-21 0 -18 20l61 432q3 17 21 17h365q21 0 18 -20l-42 -299q-10 -58 46 -58h3z" />
    <glyph glyph-name="uni1E20" unicode="&#x1e20;" horiz-adv-x="817" 
d="M122 504q53 94 147.5 150.5t206.5 56.5q118 0 201.5 -61t99.5 -159v-5q0 -15 -18 -15h-75q-16 0 -21 17q-13 57 -63 90t-124 33q-128 0 -212.5 -89.5t-84.5 -218.5q0 -100 57 -157t157 -57q101 0 176 57t96 153h-206q-18 0 -18 17v3l8 50q1 18 20 18h293q18 0 18 -17v-3
l-5 -32q-22 -156 -129 -251t-256 -95q-144 0 -232.5 87t-88.5 225q0 109 53 203zM349 815l6 43q3 18 20 18h263q17 0 17 -15v-5l-6 -43q-3 -18 -20 -18h-263q-17 0 -17 15v5z" />
    <glyph glyph-name="uni1E21" unicode="&#x1e21;" horiz-adv-x="614" 
d="M36 -48h63q16 0 19 -18q12 -76 119 -76q153 0 175 151l10 71h-4q-25 -39 -70 -60.5t-97 -21.5q-89 0 -147.5 59.5t-58.5 149.5q0 110 76.5 191.5t185.5 81.5q53 0 95 -22t59 -60h5l8 54q3 17 21 17h58q18 0 18 -17v-3l-62 -440q-16 -112 -86 -174t-187 -62q-97 0 -156 43
t-63 117v3q0 16 19 16zM148 211q0 -56 33 -91t91 -35q74 0 123.5 52.5t49.5 127.5q0 56 -33 90.5t-91 34.5q-74 0 -123.5 -52.5t-49.5 -126.5zM202 584l6 43q3 18 20 18h263q17 0 17 -15v-5l-6 -43q-3 -18 -20 -18h-263q-17 0 -17 15v5z" />
    <glyph glyph-name="uni1E30" unicode="&#x1e30;" horiz-adv-x="686" 
d="M59 20l92 662q3 18 21 18h67q18 0 18 -15v-5l-46 -326h69q18 0 27 -1l261 336q8 11 23 11h84q12 0 14 -4t2 -6q0 -6 -6 -13l-267 -345q186 -66 190 -313q0 -19 -19 -19h-76q-18 0 -20 19q-6 126 -63 180t-173 54h-60l-33 -235q-2 -18 -20 -18h-67q-18 0 -18 15v5z
M364 795l96 118q8 11 23 11h80q12 0 14 -5t2 -7q0 -5 -6 -12l-112 -118q-9 -10 -23 -10h-63q-12 0 -14.5 4.5t-2.5 6.5q0 6 6 12z" />
    <glyph glyph-name="uni1E31" unicode="&#x1e31;" horiz-adv-x="558" 
d="M44 20l92 662q3 18 21 18h61q18 0 18 -15v-5l-55 -399h54q21 0 32 -1l158 179q9 10 23 10h78q12 0 14 -4.5t2 -6.5q0 -5 -6 -12l-170 -192q126 -60 127 -235q0 -19 -19 -19h-66q-18 0 -20 19q-4 93 -46 132t-131 39h-43l-24 -172q-3 -18 -21 -18h-61q-18 0 -18 15v5z
M131 795l96 118q8 11 23 11h80q12 0 14 -5t2 -7q0 -5 -6 -12l-112 -118q-9 -10 -23 -10h-63q-12 0 -14.5 4.5t-2.5 6.5q0 6 6 12z" />
    <glyph glyph-name="uni1E3E" unicode="&#x1e3e;" horiz-adv-x="914" 
d="M58 20l93 663q3 17 21 17h75q15 0 21 -14l192 -401h2l305 403q7 12 22 12h81q18 0 18 -15v-5l-93 -663q-3 -17 -21 -17h-66q-18 0 -18 15v5l70 500h-1l-262 -341q-7 -12 -22 -12h-53q-16 0 -22 15l-164 338h-2l-71 -503q-1 -17 -20 -17h-67q-18 0 -18 15v5zM465 795
l96 118q8 11 23 11h80q12 0 14 -5t2 -7q0 -5 -6 -12l-112 -118q-9 -10 -23 -10h-63q-12 0 -14.5 4.5t-2.5 6.5q0 6 6 12z" />
    <glyph glyph-name="uni1E3F" unicode="&#x1e3f;" horiz-adv-x="880" 
d="M43 20l61 432q3 17 21 17h58q18 0 18 -15v-5l-7 -55h4q22 40 62.5 63t90.5 23q53 0 90.5 -24.5t50.5 -69.5h4q58 94 172 94q77 0 119 -47q37 -41 37 -108q0 -19 -3 -40l-38 -268q-3 -17 -21 -17h-61q-18 0 -18 15v5l34 240q3 20 3 37q0 92 -82 92q-54 0 -93.5 -36
t-47.5 -97l-34 -239q-3 -17 -21 -17h-61q-18 0 -18 15v5l34 240q3 20 3 37q0 92 -82 92q-54 0 -93.5 -36t-47.5 -97l-34 -239q-3 -17 -21 -17h-61q-18 0 -18 15v5zM426 564l96 118q8 11 23 11h80q12 0 14 -5t2 -7q0 -5 -6 -12l-112 -118q-9 -10 -23 -10h-63q-12 0 -14.5 4.5
t-2.5 6.5q0 6 6 12z" />
    <glyph glyph-name="uni1E40" unicode="&#x1e40;" horiz-adv-x="914" 
d="M58 20l93 663q3 17 21 17h75q15 0 21 -14l192 -401h2l305 403q7 12 22 12h81q18 0 18 -15v-5l-93 -663q-3 -17 -21 -17h-66q-18 0 -18 15v5l70 500h-1l-262 -341q-7 -12 -22 -12h-53q-16 0 -22 15l-164 338h-2l-71 -503q-1 -17 -20 -17h-67q-18 0 -18 15v5zM496 896
q22 23 55 23q27 0 44 -16.5t17 -42.5q0 -32 -22 -54.5t-54 -22.5q-27 0 -44.5 16.5t-17.5 42.5q0 31 22 54z" />
    <glyph glyph-name="uni1E41" unicode="&#x1e41;" horiz-adv-x="880" 
d="M43 20l61 432q3 17 21 17h58q18 0 18 -15v-5l-7 -55h4q22 40 62.5 63t90.5 23q53 0 90.5 -24.5t50.5 -69.5h4q58 94 172 94q77 0 119 -47q37 -41 37 -108q0 -19 -3 -40l-38 -268q-3 -17 -21 -17h-61q-18 0 -18 15v5l34 240q3 20 3 37q0 92 -82 92q-54 0 -93.5 -36
t-47.5 -97l-34 -239q-3 -17 -21 -17h-61q-18 0 -18 15v5l34 240q3 20 3 37q0 92 -82 92q-54 0 -93.5 -36t-47.5 -97l-34 -239q-3 -17 -21 -17h-61q-18 0 -18 15v5zM436 611q0 31 22 54t55 23q27 0 44 -16.5t17 -42.5q0 -32 -22 -54.5t-54 -22.5q-27 0 -44.5 16.5t-17.5 42.5
z" />
    <glyph glyph-name="uni1E44" unicode="&#x1e44;" horiz-adv-x="771" 
d="M58 20l93 663q3 17 21 17h65q15 0 23 -12l306 -513h2l71 507q3 18 21 18h67q18 0 18 -15v-5l-93 -663q-3 -17 -21 -17h-66q-16 0 -22 12l-306 512h-2l-71 -507q-3 -17 -21 -17h-67q-18 0 -18 15v5zM403 842q0 31 22 54t55 23q27 0 44 -16.5t17 -42.5q0 -32 -22 -54.5
t-54 -22.5q-27 0 -44.5 16.5t-17.5 42.5z" />
    <glyph glyph-name="uni1E45" unicode="&#x1e45;" horiz-adv-x="586" 
d="M43 20l61 432q3 17 21 17h58q18 0 18 -15v-5l-7 -52h4q52 83 167 83q92 0 134 -57q31 -39 31 -101q0 -18 -3 -39l-38 -266q-1 -17 -20 -17h-62q-18 0 -18 17v3l34 239q3 18 3 34q0 96 -94 96q-62 0 -104 -36t-51 -97l-34 -239q-3 -17 -21 -17h-61q-18 0 -18 15v5z
M282 611q0 31 22 54t55 23q27 0 44 -16.5t17 -42.5q0 -32 -22 -54.5t-54 -22.5q-27 0 -44.5 16.5t-17.5 42.5z" />
    <glyph glyph-name="Wgrave" unicode="&#x1e80;" horiz-adv-x="1051" 
d="M108 700h71q17 0 20 -17l92 -524h3l241 527q6 14 21 14h65q17 0 20 -17l93 -524h2l241 527q6 14 22 14h71q10 0 13.5 -5t3.5 -8q0 -5 -3 -10l-310 -663q-7 -14 -22 -14h-67q-17 0 -20 17l-95 516h-2l-241 -519q-6 -14 -22 -14h-71q-17 0 -20 17l-123 662q-1 4 -1 7
q0 14 18 14zM492 917q3 7 14 7h74q16 0 23 -14l62 -115q3 -6 3 -10t-3 -8.5t-14 -4.5h-57q-15 0 -24 12l-76 117q-4 5 -4 10q0 3 2 6z" />
    <glyph glyph-name="wgrave" unicode="&#x1e81;" horiz-adv-x="833" 
d="M80 469h62q18 0 21 -17l67 -326h2l165 330q6 13 21 13h60q17 0 20 -17l71 -326h2l161 329q6 14 22 14h62q11 0 14 -4.5t3 -8.5t-3 -10l-220 -433q-7 -13 -22 -13h-64q-16 0 -21 17l-70 319h-2l-163 -323q-6 -13 -21 -13h-66q-18 0 -21 16l-97 432q-1 4 -1 7q0 14 18 14z
M351 686q3 7 14 7h74q16 0 23 -14l62 -115q3 -6 3 -10t-3 -8.5t-14 -4.5h-57q-15 0 -24 12l-76 117q-4 5 -4 10q0 3 2 6z" />
    <glyph glyph-name="Wacute" unicode="&#x1e82;" horiz-adv-x="1051" 
d="M108 700h71q17 0 20 -17l92 -524h3l241 527q6 14 21 14h65q17 0 20 -17l93 -524h2l241 527q6 14 22 14h71q10 0 13.5 -5t3.5 -8q0 -5 -3 -10l-310 -663q-7 -14 -22 -14h-67q-17 0 -20 17l-95 516h-2l-241 -519q-6 -14 -22 -14h-71q-17 0 -20 17l-123 662q-1 4 -1 7
q0 14 18 14zM533 795l96 118q8 11 23 11h80q12 0 14 -5t2 -7q0 -5 -6 -12l-112 -118q-9 -10 -23 -10h-63q-12 0 -14.5 4.5t-2.5 6.5q0 6 6 12z" />
    <glyph glyph-name="wacute" unicode="&#x1e83;" horiz-adv-x="833" 
d="M80 469h62q18 0 21 -17l67 -326h2l165 330q6 13 21 13h60q17 0 20 -17l71 -326h2l161 329q6 14 22 14h62q11 0 14 -4.5t3 -8.5t-3 -10l-220 -433q-7 -13 -22 -13h-64q-16 0 -21 17l-70 319h-2l-163 -323q-6 -13 -21 -13h-66q-18 0 -21 16l-97 432q-1 4 -1 7q0 14 18 14z
M392 564l96 118q8 11 23 11h80q12 0 14 -5t2 -7q0 -5 -6 -12l-112 -118q-9 -10 -23 -10h-63q-12 0 -14.5 4.5t-2.5 6.5q0 6 6 12z" />
    <glyph glyph-name="Wdieresis" unicode="&#x1e84;" horiz-adv-x="1051" 
d="M108 700h71q17 0 20 -17l92 -524h3l241 527q6 14 21 14h65q17 0 20 -17l93 -524h2l241 527q6 14 22 14h71q10 0 13.5 -5t3.5 -8q0 -5 -3 -10l-310 -663q-7 -14 -22 -14h-67q-17 0 -20 17l-95 516h-2l-241 -519q-6 -14 -22 -14h-71q-17 0 -20 17l-123 662q-1 4 -1 7
q0 14 18 14zM675 894q21 22 52 22q26 0 42.5 -16.5t16.5 -41.5q0 -32 -21.5 -53.5t-52.5 -21.5q-26 0 -42.5 16.5t-16.5 41.5q0 30 22 53zM438 841q0 30 21.5 52.5t52.5 22.5q26 0 42.5 -16.5t16.5 -41.5q0 -32 -21.5 -53.5t-52.5 -21.5q-26 0 -42.5 16.5t-16.5 41.5z" />
    <glyph glyph-name="wdieresis" unicode="&#x1e85;" horiz-adv-x="833" 
d="M80 469h62q18 0 21 -17l67 -326h2l165 330q6 13 21 13h60q17 0 20 -17l71 -326h2l161 329q6 14 22 14h62q11 0 14 -4.5t3 -8.5t-3 -10l-220 -433q-7 -13 -22 -13h-64q-16 0 -21 17l-70 319h-2l-163 -323q-6 -13 -21 -13h-66q-18 0 -21 16l-97 432q-1 4 -1 7q0 14 18 14z
M534 663q21 22 52 22q26 0 42.5 -16.5t16.5 -41.5q0 -32 -21.5 -53.5t-52.5 -21.5q-26 0 -42.5 16.5t-16.5 41.5q0 30 22 53zM297 610q0 30 21.5 52.5t52.5 22.5q26 0 42.5 -16.5t16.5 -41.5q0 -32 -21.5 -53.5t-52.5 -21.5q-26 0 -42.5 16.5t-16.5 41.5z" />
    <glyph glyph-name="uni1E90" unicode="&#x1e90;" horiz-adv-x="625" 
d="M21 20l6 47q1 11 11 22l445 513h-352q-18 0 -18 15v5l8 60q3 18 21 18h470q18 0 18 -17v-3l-7 -47q-1 -12 -10 -22l-445 -513h365q18 0 18 -15v-5l-8 -60q-3 -18 -21 -18h-483q-18 0 -18 15v5zM229 795l121 119q10 10 23 10h69q15 0 22 -12l86 -118q5 -7 5 -12
q0 -2 -2.5 -6t-13.5 -4h-54q-16 0 -23 11l-56 79h-4l-81 -81q-8 -9 -22 -9h-61q-13 0 -14.5 4.5t-1.5 6.5q0 6 7 12z" />
    <glyph glyph-name="uni1E91" unicode="&#x1e91;" horiz-adv-x="485" 
d="M11 20l5 36q2 13 12 22l301 305h-238q-18 0 -18 15v5l7 49q1 17 20 17h353q18 0 18 -15v-5l-5 -35q-1 -12 -12 -23l-301 -305h249q18 0 18 -15v-5l-7 -49q-3 -17 -21 -17h-363q-18 0 -18 15v5zM129 564l121 119q10 10 23 10h69q14 0 22 -12l86 -118q5 -7 5 -12
q0 -2 -2.5 -6t-13.5 -4h-54q-16 0 -23 11l-56 79h-4l-81 -81q-8 -9 -22 -9h-61q-13 0 -14.5 4.5t-1.5 6.5q0 6 7 12z" />
    <glyph glyph-name="Germandbls" unicode="&#x1e9e;" horiz-adv-x="732" 
d="M688 600q11 -13 -2 -26l-186 -195q89 -10 136 -53t47 -111q0 -111 -72.5 -167t-200.5 -56q-49 0 -92 7q-18 3 -15 22l8 57q3 19 22 15q39 -6 77 -6q165 0 165 126q0 43 -37 63.5t-122 20.5h-25q-21 0 -18 20l7 51q2 14 11 23l175 186q-47 38 -137 38q-97 0 -148 -42.5
t-64 -135.5l-59 -420q-3 -17 -21 -17h-67q-21 0 -18 20l59 420q20 137 97 204t219 67q173 0 261 -111z" />
    <glyph glyph-name="Ygrave" unicode="&#x1ef2;" horiz-adv-x="662" 
d="M86 694q4 6 15 6h72q16 0 22 -14l150 -307h1l238 309q9 12 23 12h82q12 0 14 -4t2 -7q0 -5 -5 -12l-308 -396l-38 -264q-3 -17 -21 -17h-68q-18 0 -18 17v3l38 261l-198 396q-3 6 -3 10t2 7zM298 917q3 7 14 7h74q16 0 23 -14l62 -115q3 -6 3 -10t-3 -8.5t-14 -4.5h-57
q-15 0 -24 12l-76 117q-4 5 -4 10q0 3 2 6z" />
    <glyph glyph-name="ygrave" unicode="&#x1ef3;" horiz-adv-x="586" 
d="M39 -62h62q16 0 19 -18q13 -62 110 -62q133 0 152 136l13 89h-4q-51 -83 -165 -83q-82 0 -126 47q-39 42 -39 110q0 18 3 38l36 257q3 17 21 17h61q18 0 18 -15v-5l-33 -229q-3 -19 -3 -36q0 -94 89 -94q60 0 104.5 36.5t53.5 96.5l32 228q3 18 21 18h61q18 0 18 -15v-5
l-64 -455q-15 -106 -80 -163.5t-172 -57.5q-93 0 -149 40t-58 106v3q0 16 19 16zM224 686q3 7 14 7h74q16 0 23 -14l62 -115q3 -6 3 -10t-3 -8.5t-14 -4.5h-57q-15 0 -24 12l-76 117q-4 5 -4 10q0 3 2 6z" />
    <glyph glyph-name="uni2000" unicode="&#x2000;" horiz-adv-x="500" 
 />
    <glyph glyph-name="uni2001" unicode="&#x2001;" horiz-adv-x="1000" 
 />
    <glyph glyph-name="uni2002" unicode="&#x2002;" horiz-adv-x="500" 
 />
    <glyph glyph-name="uni2003" unicode="&#x2003;" horiz-adv-x="1000" 
 />
    <glyph glyph-name="uni2009" unicode="&#x2009;" horiz-adv-x="226" 
 />
    <glyph glyph-name="uni200A" unicode="&#x200a;" horiz-adv-x="92" 
 />
    <glyph glyph-name="uni200B" unicode="&#x200b;" horiz-adv-x="0" 
 />
    <glyph glyph-name="endash" unicode="&#x2013;" horiz-adv-x="500" 
d="M70 227q-21 0 -18 20l7 54q3 17 21 17h361q20 0 18 -20l-8 -54q-3 -17 -21 -17h-360z" />
    <glyph glyph-name="emdash" unicode="&#x2014;" horiz-adv-x="1000" 
d="M70 227q-21 0 -18 20l7 54q3 17 21 17h861q20 0 18 -20l-8 -54q-3 -17 -21 -17h-860z" />
    <glyph glyph-name="quoteleft" unicode="&#x2018;" horiz-adv-x="235" 
d="M95 455q-23 0 -15 22l91 219q6 15 22 15h45q22 0 15 -22l-73 -219q-5 -15 -22 -15h-63z" />
    <glyph glyph-name="quoteright" unicode="&#x2019;" horiz-adv-x="235" 
d="M238 711q23 0 15 -22l-91 -219q-5 -15 -22 -15h-45q-21 0 -15 22l73 219q6 15 22 15h63z" />
    <glyph glyph-name="quotesinglbase" unicode="&#x201a;" horiz-adv-x="248" 
d="M10 -138q-22 0 -15 22l74 219q6 16 22 16h63q11 0 14.5 -6t-0.5 -16l-91 -220q-5 -15 -22 -15h-45z" />
    <glyph glyph-name="quotedblleft" unicode="&#x201c;" horiz-adv-x="422" 
d="M95 455q-23 0 -15 22l91 219q6 15 22 15h45q22 0 15 -22l-73 -219q-5 -15 -22 -15h-63zM282 455q-23 0 -14 22l91 219q5 15 21 15h45q10 0 14.5 -6t0.5 -16l-73 -219q-5 -15 -22 -15h-63z" />
    <glyph glyph-name="quotedblright" unicode="&#x201d;" horiz-adv-x="422" 
d="M238 711q23 0 15 -22l-91 -219q-5 -15 -22 -15h-45q-21 0 -15 22l73 219q6 15 22 15h63zM425 711q23 0 15 -22l-91 -219q-5 -15 -22 -15h-44q-22 0 -16 22l73 219q6 15 22 15h63z" />
    <glyph glyph-name="quotedblbase" unicode="&#x201e;" horiz-adv-x="432" 
d="M10 -138q-22 0 -15 22l74 219q6 16 22 16h63q11 0 14.5 -6t-0.5 -16l-91 -220q-5 -15 -22 -15h-45zM194 -138q-23 0 -16 22l74 219q6 16 22 16h63q23 0 15 -22l-92 -220q-5 -15 -22 -15h-44z" />
    <glyph glyph-name="dagger" unicode="&#x2020;" horiz-adv-x="507" 
d="M485 492q21 0 18 -20l-8 -55q-3 -17 -21 -17h-146l-72 -513q-3 -17 -21 -17h-62q-21 0 -18 20l72 510h-146q-21 0 -18 20l8 55q3 17 21 17h147l32 225q3 17 21 17h62q21 0 18 -20l-31 -222h144z" />
    <glyph glyph-name="daggerdbl" unicode="&#x2021;" horiz-adv-x="547" 
d="M505 492q21 0 18 -20l-8 -55q-3 -17 -21 -17h-146l-28 -199h145q20 0 17 -20l-8 -53q-1 -18 -20 -18h-147l-31 -223q-3 -17 -21 -17h-62q-21 0 -18 20l31 220h-146q-20 0 -17 20l8 53q3 18 20 18h148l28 199h-146q-21 0 -18 20l8 55q3 17 21 17h147l32 225q3 17 21 17h62
q21 0 18 -20l-31 -222h144z" />
    <glyph glyph-name="bullet" unicode="&#x2022;" horiz-adv-x="527" 
d="M281 205q-66 0 -110.5 44.5t-44.5 109.5t44.5 110t110.5 45t110 -44.5t44 -110.5q0 -65 -44 -109.5t-110 -44.5z" />
    <glyph glyph-name="ellipsis" unicode="&#x2026;" horiz-adv-x="769" 
d="M95 -9q-28 0 -46 16.5t-18 42.5q0 35 21 58t56 23q29 0 47 -17t18 -43q0 -34 -21.5 -57t-56.5 -23zM353 -9q-28 0 -46 16.5t-18 42.5q0 35 21 58t56 23q28 0 46.5 -17t18.5 -43q0 -34 -21.5 -57t-56.5 -23zM610 -9q-28 0 -46 16.5t-18 42.5q0 35 21.5 58t56.5 23
q28 0 46 -17t18 -43q0 -34 -21.5 -57t-56.5 -23z" />
    <glyph glyph-name="perthousand" unicode="&#x2030;" horiz-adv-x="1286" 
d="M241 352q-71 0 -116.5 44t-45.5 114q0 81 59 141t142 60q71 0 117 -44.5t46 -114.5q0 -81 -59 -140.5t-143 -59.5zM150 0q-12 0 -15.5 6.5t4.5 16.5l533 666q9 11 23 11h56q12 0 15 -6.5t-4 -16.5l-533 -666q-9 -11 -23 -11h-56zM246 429q50 0 81.5 36t31.5 83
q0 40 -22.5 62.5t-61.5 22.5q-50 0 -80.5 -35t-30.5 -85q0 -38 22 -61t60 -23zM620 -11q-71 0 -116.5 44t-45.5 114q0 81 58.5 141t142.5 60q71 0 117 -44.5t46 -113.5q0 -81 -59 -141t-143 -60zM1037 -11q-71 0 -116.5 44t-45.5 114q0 81 59 141t143 60q71 0 116.5 -44
t45.5 -114q0 -81 -59 -141t-143 -60zM625 67q50 0 81.5 36t31.5 83q0 39 -22.5 62t-61.5 23q-50 0 -80.5 -35t-30.5 -85q0 -39 22 -61.5t60 -22.5zM1043 67q50 0 81 36t31 83q0 39 -22.5 62t-61.5 23q-49 0 -80 -35t-31 -85q0 -39 22 -61.5t61 -22.5z" />
    <glyph glyph-name="guilsinglleft" unicode="&#x2039;" horiz-adv-x="327" 
d="M273 418q12 0 15.5 -6.5t-3.5 -16.5l-133 -168l78 -154q5 -10 0.5 -16.5t-14.5 -6.5h-63q-15 0 -22 13l-79 157q-7 13 2 26l127 161q9 11 23 11h69z" />
    <glyph glyph-name="guilsinglright" unicode="&#x203a;" horiz-adv-x="327" 
d="M275 248q7 -13 -2 -26l-127 -161q-9 -11 -23 -11h-69q-12 0 -15.5 6.5t3.5 16.5l133 168l-78 154q-5 10 -0.5 16.5t14.5 6.5h63q15 0 22 -13z" />
    <glyph glyph-name="fraction" unicode="&#x2044;" horiz-adv-x="532" 
d="M-4 0q-12 0 -15 6.5t4 16.5l511 666q9 11 23 11h49q12 0 15.5 -6.5t-3.5 -16.5l-512 -666q-9 -11 -23 -11h-49z" />
    <glyph glyph-name="uni2070" unicode="&#x2070;" horiz-adv-x="373" 
d="M204 326q-63 0 -99 39.5t-36 111.5q0 99 47.5 166.5t132.5 67.5q63 0 99 -39.5t36 -110.5q0 -99 -47.5 -167t-132.5 -68zM208 397q48 0 73 48.5t25 112.5q0 81 -60 81q-48 0 -73 -48.5t-25 -111.5q0 -82 60 -82z" />
    <glyph glyph-name="uni2074" unicode="&#x2074;" horiz-adv-x="343" 
d="M333 472q21 0 18 -20l-3 -28q-3 -18 -21 -18h-24l-8 -55q-3 -18 -21 -18h-34q-20 0 -18 20l8 53h-163q-20 0 -18 20l5 30q2 14 10 22l188 216q9 10 23 10h48q21 0 18 -20l-29 -212h21zM135 472h104l20 140z" />
    <glyph glyph-name="uni2075" unicode="&#x2075;" horiz-adv-x="328" 
d="M328 704q20 0 17 -20l-4 -30q-3 -18 -20 -18h-145l-20 -73q32 15 67 15q51 0 82 -29.5t31 -77.5q0 -64 -42.5 -104.5t-110.5 -40.5q-53 0 -87 26t-39 71q0 19 19 19h39q16 0 20 -17q11 -30 50 -30q33 0 53.5 20t20.5 53q0 22 -14 35t-38 13q-32 0 -55 -20q-12 -9 -24 -9
h-40q-22 0 -16 21l48 180q4 16 22 16h186z" />
    <glyph glyph-name="uni2076" unicode="&#x2076;" horiz-adv-x="344" 
d="M242 644q-67 0 -89 -99q37 30 87 30q49 0 79.5 -30t30.5 -77q0 -64 -43 -103t-110 -39q-60 0 -95 40q-34 41 -34 106q0 53 17.5 108t47.5 86q45 45 114 45q100 0 115 -88q2 -9 -3.5 -14.5t-14.5 -5.5h-36q-15 0 -21 17q-8 24 -45 24zM220 514q-31 0 -52.5 -20.5
t-21.5 -51.5q0 -23 14.5 -37t39.5 -14q31 0 52 21t21 52q0 23 -14 36.5t-39 13.5z" />
    <glyph glyph-name="uni2077" unicode="&#x2077;" horiz-adv-x="290" 
d="M315 704q20 0 17 -20l-4 -30q-1 -12 -8 -23l-171 -285q-6 -13 -22 -13h-40q-12 0 -15.5 6.5t1.5 15.5l167 279h-143q-20 0 -17 20l4 32q2 18 20 18h211z" />
    <glyph glyph-name="uni2078" unicode="&#x2078;" horiz-adv-x="342" 
d="M190 326q-61 0 -97.5 26.5t-36.5 69.5q0 37 21.5 65t56.5 42q-44 25 -44 71q0 51 40 81t102 30q58 0 91.5 -26t33.5 -66q0 -32 -18.5 -57.5t-49.5 -38.5q53 -25 53 -77q0 -57 -42 -88.5t-110 -31.5zM216 555q29 0 46 14.5t17 37.5q0 39 -50 39q-30 0 -47 -15t-17 -38
q0 -38 51 -38zM193 391q35 0 53 15.5t18 42.5q0 41 -57 41q-33 0 -52.5 -15.5t-19.5 -41.5q0 -19 15 -30.5t43 -11.5z" />
    <glyph glyph-name="uni2079" unicode="&#x2079;" horiz-adv-x="344" 
d="M327 669q30 -35 30 -97q0 -56 -17 -114t-48 -90q-44 -42 -111 -42q-50 0 -81.5 22.5t-37.5 65.5q-3 20 18 20h38q12 0 21 -17q12 -25 46 -25q65 0 87 98q-36 -29 -88 -29q-48 0 -78.5 31t-30.5 79q0 62 42.5 101t109.5 39q63 0 100 -42zM205 522q32 0 53 21t21 52
q0 23 -15 37t-40 14q-32 0 -52 -21t-20 -51q0 -24 14 -38t39 -14z" />
    <glyph glyph-name="Euro" unicode="&#x20ac;" horiz-adv-x="654" 
d="M649 528q2 -20 -19 -20h-63q-19 0 -20 19q-4 44 -32.5 67.5t-73.5 23.5q-62 0 -107.5 -44t-71.5 -118h203q20 0 17 -20l-4 -29q-3 -18 -20 -18h-215q-8 -43 -11 -78h212q20 0 17 -20l-4 -29q-3 -18 -20 -18h-207q4 -80 38 -121t91 -41q95 0 138 95q7 15 23 15h63
q24 0 14 -26q-32 -86 -95.5 -131.5t-145.5 -45.5q-102 0 -163 68.5t-66 186.5h-64q-20 0 -17 20l4 29q3 18 20 18h57q3 35 11 78h-54q-20 0 -17 20l4 29q3 18 20 18h64q36 114 111.5 184.5t179.5 70.5q84 0 139 -47.5t64 -135.5z" />
    <glyph glyph-name="uni2116" unicode="&#x2116;" horiz-adv-x="1225" 
d="M58 20l93 663q3 17 21 17h65q15 0 23 -12l306 -513h2l71 507q3 18 21 18h67q18 0 18 -15v-5l-93 -663q-3 -17 -21 -17h-66q-16 0 -22 12l-306 512h-2l-71 -507q-3 -17 -21 -17h-67q-18 0 -18 15v5zM896 650q60 61 144 61q70 0 116 -44.5t46 -115.5q0 -81 -59.5 -141.5
t-143.5 -60.5q-71 0 -117 44.5t-46 114.5q0 81 60 142zM944 450q22 -23 60 -23q51 0 82 36.5t31 86.5q0 38 -22.5 60.5t-61.5 22.5q-50 0 -81 -36t-31 -85q0 -39 23 -62zM806 194l7 53q3 18 20 18h296q17 0 17 -15v-5l-8 -53q-3 -18 -20 -18h-295q-17 0 -17 15v5z" />
    <glyph glyph-name="trademark" unicode="&#x2122;" horiz-adv-x="795" 
d="M347 700q21 0 18 -20l-5 -36q-3 -17 -21 -17h-70l-32 -228q-3 -17 -21 -17h-38q-21 0 -18 20l32 225h-68q-21 0 -18 20l4 36q3 17 21 17h216zM773 700q21 0 18 -20l-39 -281q-3 -17 -21 -17h-35q-21 0 -18 20l26 185h-2l-93 -113q-9 -10 -24 -10h-17q-16 0 -23 13
l-59 110h-2l-26 -188q-3 -17 -21 -17h-36q-20 0 -18 20l40 281q1 17 20 17h47q16 0 22 -14l71 -134h3l111 137q8 11 24 11h52z" />
    <glyph glyph-name="uni2126" unicode="&#x2126;" horiz-adv-x="832" 
d="M68 0q-21 0 -18 20l8 58q3 18 21 18h125v2q-109 83 -109 225q0 160 112 274t270 114q128 0 212.5 -83t84.5 -213q0 -100 -49.5 -186.5t-134.5 -130.5v-2h122q21 0 18 -20l-8 -59q-3 -17 -21 -17h-244q-21 0 -18 20l9 64q3 15 16 21q97 45 151 124t54 180q0 92 -52 148
t-142 56q-118 0 -196 -85.5t-78 -209.5q0 -141 129 -211q15 -9 12 -24l-9 -66q-3 -17 -21 -17h-244z" />
    <glyph glyph-name="estimated" unicode="&#x212e;" horiz-adv-x="820" 
d="M432 0q-146 0 -246 97q-101 98 -101 253q0 76 27 142.5t74 112.5q101 95 246 95t245 -95q48 -46 75 -112.5t27 -142.5v-12h-584v-151q0 -66 45 -99q83 -62 192 -62q84 0 154 36.5t113 102.5l21 -16q-47 -71 -123 -110t-165 -39zM195 362h479v146q0 67 -43 101
q-86 65 -199 65q-109 0 -192 -62q-45 -33 -45 -100v-150z" />
    <glyph glyph-name="arrowleft" unicode="&#x2190;" horiz-adv-x="700" 
d="M664 400q19 0 19 -19v-62q0 -19 -19 -19h-450l138 -137q12 -12 0 -26l-37 -38q-13 -15 -26 0l-231 238q-14 14 0 26l231 238q13 15 26 0l37 -38q12 -14 0 -26l-138 -137h450z" />
    <glyph glyph-name="arrowup" unicode="&#x2191;" horiz-adv-x="700" 
d="M627 432q13 -13 0 -26l-37 -37q-15 -13 -27 0l-137 138v-450q0 -19 -19 -19h-62q-19 0 -19 19v449l-136 -137q-14 -13 -27 0l-37 37q-15 13 0 26l237 231q13 14 27 0z" />
    <glyph glyph-name="arrowright" unicode="&#x2192;" horiz-adv-x="700" 
d="M682 363q12 -13 0 -26l-231 -238q-13 -13 -27 0l-36 38q-14 14 0 26l138 137h-451q-19 0 -19 19v62q0 19 19 19h451l-138 137q-14 12 0 26l36 38q14 13 27 0z" />
    <glyph glyph-name="arrowdown" unicode="&#x2193;" horiz-adv-x="700" 
d="M617 298q13 -13 0 -26l-237 -231q-14 -14 -27 0l-237 231q-15 13 0 26l37 37q13 13 27 0l136 -137v449q0 19 19 19h62q19 0 19 -19v-450l137 138q12 13 27 0z" />
    <glyph glyph-name="uni2196" unicode="&#x2196;" horiz-adv-x="700" 
d="M616 176q12 -14 0 -27l-44 -44q-12 -15 -26 0l-319 318l1 -194q0 -19 -19 -19l-52 -1q-19 0 -19 19l5 331q0 19 19 19l331 5q19 0 19 -19l-1 -52q0 -19 -19 -19l-194 1z" />
    <glyph glyph-name="uni2197" unicode="&#x2197;" horiz-adv-x="700" 
d="M600 559l5 -331q0 -19 -19 -19l-52 1q-19 0 -19 19l1 194l-318 -318q-14 -12 -27 0l-44 44q-14 13 0 27l318 318l-194 -1q-19 0 -19 19v52q0 19 19 19l330 -5q19 0 19 -19z" />
    <glyph glyph-name="uni2198" unicode="&#x2198;" horiz-adv-x="700" 
d="M584 491q19 0 19 -19l-5 -331q0 -19 -19 -19l-331 -5q-19 0 -19 19l1 52q0 19 19 19l194 -1l-318 318q-12 14 0 27l44 44q13 14 27 0l318 -318l-1 194q0 19 19 19z" />
    <glyph glyph-name="uni2199" unicode="&#x2199;" horiz-adv-x="700" 
d="M623 551q13 -13 0 -27l-319 -318l194 1q19 0 19 -19l1 -52q0 -19 -19 -19l-331 5q-19 0 -19 19l-5 331q0 19 19 19l52 -1q19 0 19 -19l-1 -194l318 318q14 13 27 0z" />
    <glyph glyph-name="partialdiff" unicode="&#x2202;" horiz-adv-x="661" 
d="M364 711q124 0 188 -71t64 -213q0 -106 -32 -207.5t-98 -160.5q-80 -70 -195 -70q-104 0 -166 58.5t-62 151.5q0 110 77.5 187.5t191.5 77.5q58 0 104.5 -23t70.5 -65h2q3 31 3 58q0 95 -39.5 140t-118.5 45q-57 0 -123 -23q-10 -4 -16 0.5t-4 15.5l7 53q1 15 16 21
q61 25 130 25zM296 82q77 0 129.5 48t52.5 121q0 58 -35.5 90t-97.5 32q-78 0 -126.5 -48.5t-48.5 -122.5q0 -57 32.5 -88.5t93.5 -31.5z" />
    <glyph glyph-name="uni2206" unicode="&#x2206;" horiz-adv-x="697" 
d="M44 0q-15 0 -22 14l-13 28q-7 13 1 25l364 620q6 13 22 13h35q16 0 21 -16l189 -615q3 -14 -5 -25l-25 -33q-9 -11 -23 -11h-544zM132 93h400l-135 450h-3z" />
    <glyph glyph-name="product" unicode="&#x220f;" horiz-adv-x="707" 
d="M648 734q21 0 18 -20l-116 -827q-3 -17 -21 -17h-66q-21 0 -18 20l106 750h-280l-106 -753q-3 -17 -21 -17h-66q-21 0 -18 20l116 827q3 17 21 17h451z" />
    <glyph glyph-name="summation" unicode="&#x2211;" horiz-adv-x="555" 
d="M567 735q21 0 18 -20l-8 -57q-3 -17 -21 -17h-325l192 -334q8 -13 -2 -27l-271 -316h308q21 0 18 -20l-7 -57q-3 -17 -21 -17h-422q-21 0 -18 20l9 60q1 14 10 22l283 330l-189 329q-7 11 -5 25l9 62q1 17 20 17h422z" />
    <glyph glyph-name="minus" unicode="&#x2212;" 
d="M103 272q-20 0 -17 20l8 52q3 18 20 18h406q20 0 17 -20l-8 -52q-1 -18 -20 -18h-406z" />
    <glyph glyph-name="radical" unicode="&#x221a;" horiz-adv-x="643" 
d="M667 734q23 0 15 -22l-354 -828q-6 -14 -23 -14h-66q-16 0 -21 17l-76 345h-94q-20 0 -17 20l8 56q3 18 20 18h145q18 0 21 -17l58 -287h3l294 698q6 14 23 14h64z" />
    <glyph glyph-name="infinity" unicode="&#x221e;" horiz-adv-x="757" 
d="M573 522q73 0 117.5 -43t44.5 -112q0 -91 -56.5 -153.5t-143.5 -62.5q-97 0 -149 100q-76 -100 -175 -100q-72 0 -116 43t-44 112q0 91 56 153.5t143 62.5q98 0 150 -100q76 100 173 100zM215 236q39 0 68 26.5t63 79.5q-19 46 -42 70t-61 24q-45 0 -73 -36t-28 -84
q0 -37 20 -58.5t53 -21.5zM542 236q46 0 73.5 36.5t27.5 83.5q0 37 -19.5 58.5t-53.5 21.5q-39 0 -67.5 -26.5t-62.5 -78.5q19 -46 42 -70.5t60 -24.5z" />
    <glyph glyph-name="integral" unicode="&#x222b;" horiz-adv-x="411" 
d="M0 -130q-21 0 -18 20l7 55q3 17 21 17h46q58 0 67 57l82 580q10 72 47 103.5t113 31.5h66q21 0 18 -20l-8 -55q-3 -17 -21 -17h-46q-60 0 -67 -57l-81 -580q-11 -72 -48 -103.5t-113 -31.5h-65z" />
    <glyph glyph-name="approxequal" unicode="&#x2248;" 
d="M421 352q-37 0 -102 21.5t-101 21.5q-47 0 -98 -27q-10 -6 -17 -1.5t-5 15.5l7 47q1 14 14 22q55 33 113 33q35 0 101.5 -21.5t99.5 -21.5q49 0 99 26q10 6 16.5 2t4.5 -15l-7 -47q-1 -15 -15 -23q-56 -32 -110 -32zM393 148q-37 0 -102 22t-102 22q-48 0 -97 -28
q-11 -5 -17.5 -1t-4.5 15l6 48q1 14 15 22q57 33 112 33q35 0 101.5 -22t99.5 -22q50 0 99 27q11 5 16.5 1.5t4.5 -15.5l-6 -47q-1 -14 -16 -23q-55 -32 -109 -32z" />
    <glyph glyph-name="notequal" unicode="&#x2260;" 
d="M533 462q21 0 18 -20l-7 -50q-3 -18 -20 -18h-136l-71 -116h188q20 0 18 -20l-8 -50q-3 -18 -20 -18h-231l-68 -112q-6 -13 -23 -13h-41q-11 0 -14.5 7t2.5 16l62 102h-92q-21 0 -18 20l7 50q3 18 20 18h136l70 116h-187q-20 0 -18 20l8 50q3 18 20 18h231l68 113
q7 12 22 12h42q24 0 12 -23l-62 -102h92z" />
    <glyph glyph-name="lessequal" unicode="&#x2264;" 
d="M490 155l-385 154q-16 6 -13 24l9 62q3 15 17 21l429 154q10 4 15.5 -1t4.5 -15l-9 -60q-1 -16 -16 -20l-326 -114v-2l291 -112q14 -7 13 -24l-7 -54q-3 -21 -23 -13zM66 0q-20 0 -18 20l8 52q3 18 20 18h406q20 0 17 -20l-7 -52q-3 -18 -20 -18h-406z" />
    <glyph glyph-name="greaterequal" unicode="&#x2265;" 
d="M90 156q-10 -4 -16 0.5t-4 15.5l8 62q1 13 16 20l327 113v3l-291 112q-16 6 -14 23l7 53q3 21 23 13l386 -155q16 -5 12 -23l-9 -62q-3 -16 -16 -21zM65 0q-20 0 -18 20l8 52q3 18 20 18h406q20 0 17 -20l-7 -52q-3 -18 -20 -18h-406z" />
    <glyph glyph-name="filledbox" unicode="&#x25a0;" horiz-adv-x="900" 
d="M132 0q-15 0 -15 15v670q0 15 15 15h670q15 0 15 -15v-670q0 -15 -15 -15h-670z" />
    <glyph glyph-name="triagup" unicode="&#x25b2;" horiz-adv-x="900" 
d="M89 0q-19 0 -11 18l331 662q4 8 10 8t10 -8l331 -662q8 -18 -11 -18h-660z" />
    <glyph glyph-name="triagdn" unicode="&#x25bc;" horiz-adv-x="900" 
d="M504 20l-331 662q-8 18 11 18h660q19 0 11 -18l-331 -662q-4 -8 -10 -8t-10 8z" />
    <glyph glyph-name="uni25C6" unicode="&#x25c6;" horiz-adv-x="900" 
d="M453 11l-327 327q-11 11 0 22l327 329q11 11 22 0l329 -329q11 -11 0 -22l-329 -327q-11 -11 -22 0z" />
    <glyph glyph-name="lozenge" unicode="&#x25ca;" horiz-adv-x="648" 
d="M627 364q9 -13 -2 -26l-284 -328q-10 -10 -24 -10h-53q-16 0 -23 13l-188 323q-9 13 2 26l283 328q10 10 24 10h53q16 0 23 -13zM299 104l220 255l-138 237h-2l-220 -255l138 -237h2z" />
    <glyph glyph-name="uni25CF" unicode="&#x25cf;" horiz-adv-x="900" 
d="M467 0q-145 0 -247.5 102.5t-102.5 247.5t102.5 247.5t247.5 102.5t247 -102.5t102 -247.5t-102 -247.5t-247 -102.5z" />
    <glyph glyph-name="uni2610" unicode="&#x2610;" horiz-adv-x="900" 
d="M136 0q-19 0 -19 19v662q0 19 19 19h661q19 0 19 -19v-662q0 -19 -19 -19h-661zM194 72h545v556h-545v-556z" />
    <glyph glyph-name="uni2611" unicode="&#x2611;" horiz-adv-x="900" 
d="M797 700q19 0 19 -19v-662q0 -19 -19 -19h-661q-19 0 -19 19v662q0 19 19 19h661zM739 72v556h-545v-556h545zM287 222q-15 10 -6 26l28 51q10 17 26 6l74 -42l164 286q9 16 26 6l45 -26q17 -9 8 -26l-203 -352q-10 -16 -26 -6z" />
    <glyph glyph-name="uni2612" unicode="&#x2612;" horiz-adv-x="900" 
d="M797 700q19 0 19 -19v-662q0 -19 -19 -19h-661q-19 0 -19 19v662q0 19 19 19h661zM739 72v556h-545v-556h545zM271 189q-15 13 0 26l135 135l-135 135q-15 13 0 26l34 35q13 12 27 0l135 -135l134 135q13 12 27 0l34 -35q15 -13 0 -26l-135 -135l135 -135q15 -13 0 -26
l-34 -35q-14 -12 -27 0l-134 135l-135 -135q-14 -12 -27 0z" />
    <glyph glyph-name="heart" unicode="&#x2665;" horiz-adv-x="900" 
d="M464 58q-35 33 -85.5 68.5t-87 60.5t-71 56.5t-53 72.5t-18.5 93q0 93 53.5 145t123.5 52q58 0 100.5 -36t47.5 -100h2q5 64 47.5 100t100.5 36q70 0 123.5 -52t53.5 -145q0 -52 -18.5 -93t-53 -72.5t-71 -56.5t-87 -60.5t-85.5 -68.5q-11 -9 -22 0z" />
    <glyph glyph-name="uni2B51" unicode="&#x2b51;" horiz-adv-x="900" 
d="M270 15q-9 -7 -13.5 -3t-1.5 15l79 242l-204 148q-9 7 -7 12.5t13 5.5h253l77 240q2 7 6 9.5t8 0t6 -9.5l77 -241h255q11 0 13 -5.5t-7 -12.5l-206 -149l78 -240q3 -10 -2 -14t-13 2l-205 150z" />
    <glyph glyph-name="currency_acutecomb" horiz-adv-x="635" 
d="M54 234l10 71q3 18 21 18h68q18 0 18 -15v-5l-8 -56q-4 -24 -4 -44q0 -48 25 -81t95 -33q150 0 171 158l50 355h-273q-18 0 -18 15v5l8 60q3 18 21 18h361q18 0 18 -17v-3l-62 -441q-17 -120 -90 -185t-193 -65q-117 0 -169 57t-52 140q0 23 3 48zM370 795l96 118
q8 11 23 11h80q12 0 14 -5t2 -7q0 -5 -6 -12l-112 -118q-9 -10 -23 -10h-63q-12 0 -14.5 4.5t-2.5 6.5q0 6 6 12z" />
    <glyph glyph-name="G.ss01" horiz-adv-x="816" 
d="M189 589q120 122 292 122q119 0 201.5 -60.5t95.5 -159.5v-5q0 -15 -18 -15h-77q-16 0 -21 17q-12 57 -61 90t-125 33q-128 0 -213 -90t-85 -221q0 -98 56.5 -154.5t153.5 -56.5q99 0 175 56t97 150h-198q-17 0 -17 15v5l8 54q1 18 20 18h275q18 0 18 -15v-5l-48 -349
q-3 -18 -21 -18h-55q-18 0 -18 15v5l12 85h-4q-101 -116 -258 -116q-138 0 -222 85t-84 218q0 174 121 297z" />
    <glyph glyph-name="Gbreve.ss01" horiz-adv-x="814" 
d="M189 589q120 122 292 122q119 0 201.5 -60.5t95.5 -159.5v-5q0 -15 -18 -15h-77q-16 0 -21 17q-12 57 -61 90t-125 33q-128 0 -213 -90t-85 -221q0 -98 56.5 -154.5t153.5 -56.5q99 0 175 56t97 150h-198q-17 0 -17 15v5l8 54q1 18 20 18h275q18 0 18 -15v-5l-48 -349
q-3 -18 -21 -18h-55q-18 0 -18 15v5l12 85h-4q-101 -116 -258 -116q-138 0 -222 85t-84 218q0 174 121 297zM374 916h48q18 0 18 -20q2 -57 58 -57q64 0 82 60q6 17 21 17h46q18 0 18 -17v-5q-13 -61 -57 -92q-45 -32 -111 -32t-104.5 31t-38.5 85v12q2 18 20 18z" />
    <glyph glyph-name="Gcaron.ss01" horiz-adv-x="814" 
d="M68 292q0 174 120.5 296.5t292.5 122.5q119 0 201.5 -60.5t95.5 -159.5v-5q0 -15 -18 -15h-77q-16 0 -21 17q-12 57 -61 90t-125 33q-128 0 -213 -90t-85 -221q0 -98 56.5 -154.5t153.5 -56.5q99 0 175 56t97 150h-198q-17 0 -17 15v5l8 54q1 18 20 18h275q18 0 18 -15
v-5l-48 -349q-3 -18 -21 -18h-55q-18 0 -18 15v5l12 85h-4q-101 -116 -258 -116q-138 0 -222 85t-84 218zM347 917q3 6 15 6h53q16 0 23 -11l57 -80h4l80 82q9 9 23 9h60q13 0 15 -4.5t2 -6.5q0 -6 -8 -12l-121 -119q-10 -10 -23 -10h-69q-14 0 -22 12l-86 118q-4 6 -4 11
q0 3 1 5z" />
    <glyph glyph-name="Gcircumflex.ss01" horiz-adv-x="814" 
d="M189 589q120 122 292 122q119 0 201.5 -60.5t95.5 -159.5v-5q0 -15 -18 -15h-77q-16 0 -21 17q-12 57 -61 90t-125 33q-128 0 -213 -90t-85 -221q0 -98 56.5 -154.5t153.5 -56.5q99 0 175 56t97 150h-198q-17 0 -17 15v5l8 54q1 18 20 18h275q18 0 18 -15v-5l-48 -349
q-3 -18 -21 -18h-55q-18 0 -18 15v5l12 85h-4q-101 -116 -258 -116q-138 0 -222 85t-84 218q0 174 121 297zM335 795l121 119q9 9 23 9h69q15 0 23 -11l85 -118q5 -7 5 -12q0 -2 -2.5 -6.5t-13.5 -4.5h-54q-15 0 -23 12l-56 79h-3l-81 -81q-10 -10 -23 -10h-60q-13 0 -15 5
t-2 7q0 6 7 12z" />
    <glyph glyph-name="uni0122.ss01" horiz-adv-x="814" 
d="M68 292q0 174 120.5 296.5t292.5 122.5q119 0 201.5 -60.5t95.5 -159.5v-5q0 -15 -18 -15h-77q-16 0 -21 17q-12 57 -61 90t-125 33q-128 0 -213 -90t-85 -221q0 -98 56.5 -154.5t153.5 -56.5q99 0 175 56t97 150h-198q-17 0 -17 15v5l8 54q1 18 20 18h275q18 0 18 -15
v-5l-48 -349q-3 -18 -21 -18h-55q-18 0 -18 15v5l12 85h-4q-101 -116 -258 -116q-138 0 -222 85t-84 218zM279 -234l34 135q5 16 21 16h64q18 0 18 -13q0 -4 -2 -9l-55 -134q-6 -16 -22 -16h-42q-17 0 -17 14q0 3 1 7z" />
    <glyph glyph-name="Gdotaccent.ss01" horiz-adv-x="814" 
d="M189 589q120 122 292 122q119 0 201.5 -60.5t95.5 -159.5v-5q0 -15 -18 -15h-77q-16 0 -21 17q-12 57 -61 90t-125 33q-128 0 -213 -90t-85 -221q0 -98 56.5 -154.5t153.5 -56.5q99 0 175 56t97 150h-198q-17 0 -17 15v5l8 54q1 18 20 18h275q18 0 18 -15v-5l-48 -349
q-3 -18 -21 -18h-55q-18 0 -18 15v5l12 85h-4q-101 -116 -258 -116q-138 0 -222 85t-84 218q0 174 121 297zM457 896q22 23 54 23q27 0 44.5 -16.5t17.5 -42.5q0 -32 -22.5 -54.5t-54.5 -22.5q-27 0 -44.5 16.5t-17.5 42.5q0 31 23 54z" />
    <glyph glyph-name="uni1E20.ss01" horiz-adv-x="814" 
d="M68 292q0 174 120.5 296.5t292.5 122.5q119 0 201.5 -60.5t95.5 -159.5v-5q0 -15 -18 -15h-77q-16 0 -21 17q-12 57 -61 90t-125 33q-128 0 -213 -90t-85 -221q0 -98 56.5 -154.5t153.5 -56.5q99 0 175 56t97 150h-198q-17 0 -17 15v5l8 54q1 18 20 18h275q18 0 18 -15
v-5l-48 -349q-3 -18 -21 -18h-55q-18 0 -18 15v5l12 85h-4q-101 -116 -258 -116q-138 0 -222 85t-84 218zM348 815l7 43q1 18 20 18h262q17 0 17 -15v-5l-6 -43q-3 -18 -20 -18h-262q-18 0 -18 17v3z" />
    <glyph glyph-name="i.loclTRK" horiz-adv-x="247" 
d="M43 20l61 432q3 17 21 17h61q18 0 18 -15v-5l-61 -432q-3 -17 -21 -17h-61q-18 0 -18 15v5zM109 611q0 31 22 54t55 23q27 0 44 -16.5t17 -42.5q0 -32 -22 -54.5t-54 -22.5q-27 0 -44.5 16.5t-17.5 42.5z" />
    <glyph glyph-name="j_acutecomb" horiz-adv-x="247" 
d="M-119 -200l7 53q1 15 14 15q4 0 8 -1q16 -2 26 -2q46 0 69.5 22t30.5 77l67 487q3 18 21 18h61q18 0 18 -15v-5l-68 -489q-13 -97 -60 -142t-129 -45q-32 0 -51 6q-14 3 -14 16v5zM107 564l80 117q7 12 22 12h67q12 0 14.5 -4.5t2.5 -7.5q0 -5 -5 -11l-88 -118
q-9 -11 -23 -11h-58q-11 0 -13.5 4.5t-2.5 7.5q0 5 4 11z" />
    <glyph glyph-name="y.ss02" horiz-adv-x="535" 
d="M72 469h63q18 0 22 -16l90 -332h2l186 335q6 13 22 13h69q11 0 13.5 -4.5t2.5 -7.5q0 -5 -3 -11l-376 -649q-8 -13 -23 -13h-69q-11 0 -13.5 4.5t-2.5 7.5q0 5 3 11l125 211l-128 429q-1 4 -1 7q0 15 18 15z" />
    <glyph glyph-name="yacute.ss02" horiz-adv-x="535" 
d="M72 469h63q18 0 22 -16l90 -332h2l186 335q6 13 22 13h69q11 0 13.5 -4.5t2.5 -7.5q0 -5 -3 -11l-376 -649q-8 -13 -23 -13h-69q-11 0 -13.5 4.5t-2.5 7.5q0 5 3 11l125 211l-128 429q-1 4 -1 7q0 15 18 15zM244 564l96 118q8 11 23 11h80q12 0 14 -5t2 -7q0 -5 -6 -12
l-112 -118q-9 -10 -23 -10h-63q-12 0 -14.5 4.5t-2.5 6.5q0 6 6 12z" />
    <glyph glyph-name="ycircumflex.ss02" horiz-adv-x="535" 
d="M72 469h63q18 0 22 -16l90 -332h2l186 335q6 13 22 13h69q11 0 13.5 -4.5t2.5 -7.5q0 -5 -3 -11l-376 -649q-8 -13 -23 -13h-69q-11 0 -13.5 4.5t-2.5 7.5q0 5 3 11l125 211l-128 429q-1 4 -1 7q0 15 18 15zM154 564l121 119q10 10 23 10h69q15 0 22 -12l86 -118
q5 -7 5 -12q0 -2 -2.5 -6t-13.5 -4h-54q-16 0 -23 11l-56 79h-4l-81 -81q-8 -9 -22 -9h-61q-13 0 -14.5 4.5t-1.5 6.5q0 6 7 12z" />
    <glyph glyph-name="ydieresis.ss02" horiz-adv-x="535" 
d="M72 469h63q18 0 22 -16l90 -332h2l186 335q6 13 22 13h69q11 0 13.5 -4.5t2.5 -7.5q0 -5 -3 -11l-376 -649q-8 -13 -23 -13h-69q-11 0 -13.5 4.5t-2.5 7.5q0 5 3 11l125 211l-128 429q-1 4 -1 7q0 15 18 15zM363 610q0 30 21.5 52.5t52.5 22.5q26 0 42.5 -16.5
t16.5 -41.5q0 -32 -21.5 -53.5t-52.5 -21.5q-26 0 -42.5 16.5t-16.5 41.5zM148 610q0 30 21.5 52.5t52.5 22.5q26 0 42.5 -16.5t16.5 -41.5q0 -32 -21.5 -53.5t-52.5 -21.5q-26 0 -42.5 16.5t-16.5 41.5z" />
    <glyph glyph-name="ygrave.ss02" horiz-adv-x="535" 
d="M72 469h63q18 0 22 -16l90 -332h2l186 335q6 13 22 13h69q11 0 13.5 -4.5t2.5 -7.5q0 -5 -3 -11l-376 -649q-8 -13 -23 -13h-69q-11 0 -13.5 4.5t-2.5 7.5q0 5 3 11l125 211l-128 429q-1 4 -1 7q0 15 18 15zM202 686q3 7 14 7h74q16 0 23 -14l62 -115q3 -6 3 -10t-3 -8.5
t-14 -4.5h-57q-15 0 -24 12l-76 117q-4 5 -4 10q0 3 2 6z" />
    <glyph glyph-name="f_f.dlig" horiz-adv-x="731" 
d="M770 704q16 -4 14 -23l-7 -48q-3 -20 -23 -15q-19 4 -43 4q-54 0 -80.5 -25.5t-35.5 -89.5l-5 -38h137q20 0 17 -20l-6 -47q-3 -18 -20 -18h-140l-52 -367q-3 -17 -21 -17h-61q-21 0 -18 20l51 364h-230l-52 -367q-3 -17 -21 -17h-61q-21 0 -18 20l51 364h-84
q-20 0 -18 20l7 47q3 18 20 18h87l5 38q28 205 210 205q36 0 66 -8q16 -4 13 -23l-6 -48q-3 -20 -23 -15q-19 4 -43 4q-55 0 -81 -25.5t-35 -89.5l-5 -38h230l5 38q28 205 210 205q36 0 66 -8z" />
    <glyph glyph-name="t_t.dlig" horiz-adv-x="788" 
d="M42 404l7 47q1 18 20 18h87l16 113q3 18 21 18h61q18 0 18 -15v-5l-16 -111h251l16 113q1 18 20 18h62q18 0 18 -17v-3l-16 -111h158q17 0 17 -15v-5l-7 -47q-3 -18 -20 -18h-160l-29 -209q-2 -15 -2 -28q0 -31 15 -49t63 -18q39 0 72 12q5 2 9 2q5 0 8.5 -3t4.5 -10
q-1 -2 -1 -5l-7 -49q-1 -14 -15 -20q-42 -18 -97 -18q-154 0 -154 136q0 20 3 42l30 217h-251l-29 -209q-2 -15 -2 -28q0 -31 15 -49t63 -18q39 0 72 12q5 2 9 2q5 0 8.5 -3t4.5 -10q-1 -2 -1 -5l-7 -49q-1 -15 -15 -20q-42 -18 -96 -18q-155 0 -155 137q0 19 3 41l30 217
h-85q-17 0 -17 15v5z" />
    <glyph glyph-name="zero.lf" horiz-adv-x="674" 
d="M306 -11q-111 0 -175 74t-64 205q0 117 37.5 216t115.5 163t181 64q110 0 174.5 -74.5t64.5 -206.5q0 -116 -37.5 -215t-115.5 -162.5t-181 -63.5zM313 85q73 0 124.5 52.5t73.5 129t22 165.5q0 183 -140 183q-74 0 -125.5 -53.5t-73 -129.5t-21.5 -166q0 -181 140 -181z
" />
    <glyph glyph-name="one.lf" horiz-adv-x="393" 
d="M341 700q20 0 18 -20l-94 -663q-1 -17 -20 -17h-65q-21 0 -18 20l80 566l-138 -73q-10 -6 -16 -1.5t-5 16.5l9 62q2 14 14 20l157 84q10 6 24 6h54z" />
    <glyph glyph-name="two.lf" horiz-adv-x="577" 
d="M489 96q21 0 18 -20l-8 -58q-3 -18 -21 -18h-440q-21 0 -18 20l5 31q12 88 61.5 151.5t154.5 117.5l78 40q73 39 108.5 76t35.5 89q0 42 -27 66t-79 24q-61 0 -103.5 -33t-56.5 -92q-5 -17 -21 -17h-69q-20 0 -17 21q20 101 92 159t177 58q94 0 152 -49.5t58 -129.5
q0 -83 -50.5 -141t-144.5 -106l-79 -40q-78 -40 -111.5 -72.5t-43.5 -76.5h349z" />
    <glyph glyph-name="three.lf" horiz-adv-x="594" 
d="M274 -11q-109 0 -171 56.5t-58 154.5q0 18 19 18h68q18 0 19 -20q0 -54 32 -83.5t93 -29.5q71 0 116 34.5t45 91.5q0 44 -35.5 71t-101.5 27h-26q-20 0 -18 20l8 57q3 17 21 17h25q68 0 113 33.5t45 89.5q0 40 -31 64.5t-84 24.5q-122 0 -152 -117q-5 -17 -21 -17h-68
q-9 0 -14 6t-3 15q20 99 89.5 154t176.5 55q97 0 155.5 -48.5t58.5 -122.5q0 -68 -39.5 -118t-106.5 -68v-2q55 -12 85 -51.5t30 -94.5q0 -98 -76 -157.5t-194 -59.5z" />
    <glyph glyph-name="four.lf" horiz-adv-x="614" 
d="M566 243q20 0 18 -20l-8 -54q-3 -18 -20 -18h-79l-19 -134q-3 -17 -21 -17h-60q-21 0 -18 20l18 131h-340q-20 0 -17 20l7 52q1 9 10 22l393 445q10 10 23 10h80q21 0 18 -20l-61 -437h76zM144 243h246l46 329h-2z" />
    <glyph glyph-name="five.lf" horiz-adv-x="601" 
d="M565 700q21 0 18 -20l-8 -58q-3 -17 -21 -17h-304l-50 -186q67 47 155 47q92 0 150 -53.5t58 -142.5q0 -122 -81 -201.5t-208 -79.5q-101 0 -164.5 54.5t-62.5 141.5q0 19 19 19h68q16 0 19 -19q3 -45 37 -73t88 -28q79 0 129 50.5t50 128.5q0 54 -30.5 84t-86.5 30
q-91 0 -149 -60q-10 -10 -24 -10h-73q-22 0 -17 21l97 356q3 16 21 16h370z" />
    <glyph glyph-name="six.lf" horiz-adv-x="624" 
d="M608 550q2 -19 -18 -19h-69q-17 0 -20 18q-15 68 -108 68q-165 0 -212 -241h3q73 88 189 88q93 0 152.5 -57.5t59.5 -145.5q0 -118 -82.5 -195t-206.5 -77q-116 0 -177 72q-55 64 -55 182q0 115 37.5 226t107.5 173q78 69 189 69q90 0 146 -43t64 -118zM351 373
q-76 0 -128 -47.5t-53 -121.5q-1 -57 33 -89.5t96 -32.5q78 0 128.5 48.5t50.5 125.5q0 55 -33 86t-94 31z" />
    <glyph glyph-name="seven.lf" horiz-adv-x="538" 
d="M551 700q21 0 18 -20l-7 -55q-1 -10 -9 -23l-358 -590q-8 -12 -23 -12h-68q-25 0 -12 23l354 580h-341q-21 0 -18 20l7 59q3 18 21 18h436z" />
    <glyph glyph-name="eight.lf" horiz-adv-x="630" 
d="M286 -11q-111 0 -177.5 50t-66.5 128q0 71 43 124t115 74v3q-91 42 -91 129q0 97 76 155.5t191 58.5q105 0 165 -46t60 -118q0 -65 -36 -112.5t-98 -67.5v-2q54 -21 81.5 -60t27.5 -86q0 -103 -84 -166.5t-206 -63.5zM338 403q69 0 113 34.5t44 92.5q0 41 -30.5 65.5
t-89.5 24.5q-70 0 -116 -34t-46 -91q0 -42 32.5 -67t92.5 -25zM287 82q76 0 129 36.5t53 98.5q0 46 -37 73.5t-105 27.5q-77 0 -126.5 -36t-49.5 -98q0 -47 34.5 -74.5t101.5 -27.5z" />
    <glyph glyph-name="nine.lf" horiz-adv-x="625" 
d="M542 633q52 -63 52 -175q0 -108 -34 -217.5t-97 -171.5q-78 -80 -203 -80q-91 0 -148 43.5t-64 117.5q-2 19 18 19h69q17 0 20 -18q14 -68 108 -68q166 0 215 244h-3q-32 -41 -83 -64t-108 -23q-92 0 -149.5 57t-57.5 145q0 116 81.5 192.5t203.5 76.5q118 0 180 -78z
M309 330q76 0 127 48t51 121q0 54 -34.5 86.5t-93.5 32.5q-75 0 -125.5 -49t-50.5 -122q0 -54 33 -85.5t93 -31.5z" />
    <glyph glyph-name="zero.tf" horiz-adv-x="650" 
d="M294 -11q-111 0 -175 74t-64 205q0 117 37.5 216t115.5 163t181 64q110 0 174.5 -74.5t64.5 -206.5q0 -116 -37.5 -215t-115.5 -162.5t-181 -63.5zM301 85q73 0 124.5 52.5t73.5 129t22 165.5q0 183 -140 183q-74 0 -125.5 -53.5t-73 -129.5t-21.5 -166q0 -181 140 -181z
" />
    <glyph glyph-name="one.tf" horiz-adv-x="650" 
d="M461 700q21 0 18 -20l-93 -663q-3 -17 -21 -17h-65q-20 0 -18 20l81 567l-138 -74q-10 -6 -17 -1.5t-5 16.5l9 62q3 15 14 20l157 84q11 6 24 6h54z" />
    <glyph glyph-name="two.tf" horiz-adv-x="650" 
d="M528 96q21 0 18 -20l-8 -58q-3 -18 -21 -18h-440q-20 0 -18 20l5 31q12 88 61.5 151.5t154.5 117.5l78 40q73 38 108.5 75.5t35.5 89.5q0 42 -27 66t-79 24q-60 0 -102.5 -33t-57.5 -92q-3 -17 -21 -17h-68q-22 0 -17 21q20 101 91.5 159t177.5 58q94 0 151.5 -49.5
t57.5 -129.5q0 -83 -50.5 -141t-144.5 -106l-79 -40q-78 -40 -111.5 -72.5t-43.5 -76.5h349z" />
    <glyph glyph-name="three.tf" horiz-adv-x="650" 
d="M305 -11q-108 0 -170.5 56.5t-58.5 154.5q0 18 19 18h69q18 0 18 -20q0 -54 32.5 -83.5t92.5 -29.5q71 0 116 34.5t45 91.5q0 44 -35.5 71t-100.5 27h-26q-21 0 -18 20l8 57q1 17 20 17h25q68 0 113 33.5t45 89.5q0 40 -31 64.5t-84 24.5q-59 0 -98.5 -30.5t-53.5 -86.5
q-5 -17 -21 -17h-68q-9 0 -14 6t-3 15q20 99 89.5 154t176.5 55q97 0 155.5 -48.5t58.5 -122.5q0 -68 -39.5 -118t-106.5 -68v-2q55 -13 85.5 -52.5t30.5 -93.5q0 -98 -76 -157.5t-195 -59.5z" />
    <glyph glyph-name="four.tf" horiz-adv-x="650" 
d="M582 243q20 0 17 -20l-8 -54q-1 -18 -20 -18h-78l-19 -134q-3 -17 -21 -17h-61q-20 0 -18 20l19 131h-340q-20 0 -17 20l7 52q1 12 10 22l392 445q12 10 24 10h80q21 0 18 -20l-61 -437h76zM159 243h247l46 329h-2z" />
    <glyph glyph-name="five.tf" horiz-adv-x="650" 
d="M593 700q21 0 18 -20l-8 -58q-3 -17 -21 -17h-304l-50 -186q67 47 155 47q92 0 150 -53.5t58 -142.5q0 -122 -81 -201.5t-208 -79.5q-101 0 -164.5 54.5t-62.5 141.5q0 19 19 19h68q16 0 19 -19q3 -45 37 -73t88 -28q79 0 129 50.5t50 128.5q0 54 -30.5 84t-86.5 30
q-91 0 -149 -60q-10 -10 -24 -10h-73q-22 0 -17 21l97 356q3 16 21 16h370z" />
    <glyph glyph-name="six.tf" horiz-adv-x="650" 
d="M617 550q2 -19 -18 -19h-68q-17 0 -20 18q-15 68 -108 68q-165 0 -213 -241h3q74 88 189 88q94 0 153 -57.5t59 -145.5q0 -118 -82 -195t-206 -77q-115 0 -178 72q-55 66 -55 182q0 114 38 225.5t107 173.5q80 69 190 69q90 0 146 -43.5t63 -117.5zM361 373
q-77 0 -128.5 -47.5t-52.5 -121.5q-2 -57 32 -89.5t96 -32.5q78 0 128.5 48.5t50.5 125.5q0 55 -33 86t-93 31z" />
    <glyph glyph-name="seven.tf" horiz-adv-x="650" 
d="M614 700q21 0 18 -20l-8 -55q-1 -12 -8 -23l-358 -590q-8 -12 -23 -12h-68q-25 0 -12 23l354 580h-342q-20 0 -18 20l8 59q3 18 21 18h436z" />
    <glyph glyph-name="eight.tf" horiz-adv-x="650" 
d="M297 -11q-111 0 -178 50t-67 128q0 71 43 124t115 74v3q-91 42 -91 129q0 97 76 155.5t191 58.5q105 0 165.5 -46t60.5 -118q0 -64 -36 -112t-98 -68l-1 -2q54 -21 82 -60t28 -86q0 -103 -84.5 -166.5t-205.5 -63.5zM348 403q70 0 113.5 34.5t43.5 92.5q0 41 -30.5 65.5
t-89.5 24.5q-70 0 -116 -34t-46 -91q0 -42 32.5 -67t92.5 -25zM297 82q76 0 129 36.5t53 98.5q0 46 -37 73.5t-105 27.5q-77 0 -126.5 -36t-49.5 -98q0 -47 34.5 -74.5t101.5 -27.5z" />
    <glyph glyph-name="nine.tf" horiz-adv-x="650" 
d="M562 633q52 -63 52 -175q0 -108 -34 -217.5t-96 -171.5q-80 -80 -204 -80q-91 0 -148 43.5t-64 117.5q-2 19 18 19h69q17 0 20 -18q14 -68 108 -68q166 0 215 244h-3q-31 -41 -82 -64t-109 -23q-92 0 -149.5 57t-57.5 145q0 116 81.5 192.5t203.5 76.5q120 0 180 -78z
M329 330q76 0 127.5 48t51.5 121q0 54 -34.5 86.5t-94.5 32.5q-75 0 -125.5 -49t-50.5 -122q0 -54 33 -85.5t93 -31.5z" />
    <glyph glyph-name="zero.subs" horiz-adv-x="373" 
d="M150 -61q-63 0 -99 39.5t-36 111.5q0 99 47.5 166.5t132.5 67.5q63 0 99 -39.5t36 -110.5q0 -99 -47.5 -167t-132.5 -68zM154 10q48 0 73 48.5t25 112.5q0 81 -60 81q-48 0 -73 -48.5t-25 -111.5q0 -82 60 -82z" />
    <glyph glyph-name="one.subs" horiz-adv-x="234" 
d="M175 317q21 0 18 -20l-46 -333q-3 -18 -21 -18h-38q-21 0 -18 20l38 270l-63 -34q-10 -5 -16 -0.5t-5 15.5l5 36q1 13 15 21l70 37q11 6 24 6h37z" />
    <glyph glyph-name="two.subs" horiz-adv-x="321" 
d="M140 74q-30 -14 -43 -26t-19 -33h162q21 0 18 -20l-5 -32q-1 -17 -20 -17h-223q-21 0 -18 20l1 10q9 62 32 95t85 62l48 23q29 13 43.5 27t14.5 34q0 37 -46 37t-63 -45q-4 -16 -21 -16h-41q-20 0 -17 20q26 111 144 111q55 0 88 -27.5t33 -71.5q0 -46 -27 -76t-78 -53z
" />
    <glyph glyph-name="three.subs" horiz-adv-x="328" 
d="M220 130q55 -18 55 -72t-40 -86.5t-103 -32.5q-58 0 -93 26t-36 77q0 19 20 19h40q15 0 20 -18q6 -34 49 -34q31 0 49 15t18 38q0 38 -54 38h-11q-21 0 -18 20l4 30q3 17 21 17h12q28 0 45.5 14.5t17.5 36.5q0 35 -47 35q-44 0 -60 -36q-6 -17 -21 -17h-41q-22 0 -16 21
q25 103 142 103q55 0 88 -26.5t33 -67.5q0 -74 -74 -100z" />
    <glyph glyph-name="four.subs" horiz-adv-x="343" 
d="M279 85q21 0 18 -20l-3 -28q-3 -18 -21 -18h-24l-8 -55q-3 -18 -21 -18h-34q-20 0 -18 20l8 53h-163q-20 0 -18 20l5 30q2 14 10 22l188 216q9 10 23 10h48q21 0 18 -20l-29 -212h21zM81 85h104l20 140z" />
    <glyph glyph-name="five.subs" horiz-adv-x="328" 
d="M274 317q20 0 17 -20l-4 -30q-3 -18 -20 -18h-145l-20 -73q32 15 67 15q51 0 82 -29.5t31 -77.5q0 -64 -42.5 -104.5t-110.5 -40.5q-53 0 -87 26t-39 71q0 19 19 19h39q16 0 20 -17q11 -30 50 -30q33 0 53.5 20t20.5 53q0 22 -14 35t-38 13q-32 0 -55 -20q-12 -9 -24 -9
h-40q-22 0 -16 21l48 180q4 16 22 16h186z" />
    <glyph glyph-name="six.subs" horiz-adv-x="344" 
d="M188 257q-67 0 -89 -99q37 30 87 30q49 0 79.5 -30t30.5 -77q0 -64 -43 -103t-110 -39q-60 0 -95 40q-34 41 -34 106q0 53 17.5 108t47.5 86q45 45 114 45q100 0 115 -88q2 -9 -3.5 -14.5t-14.5 -5.5h-36q-15 0 -21 17q-8 24 -45 24zM166 127q-31 0 -52.5 -20.5
t-21.5 -51.5q0 -23 14.5 -37t39.5 -14q31 0 52 21t21 52q0 23 -14 36.5t-39 13.5z" />
    <glyph glyph-name="seven.subs" horiz-adv-x="290" 
d="M261 317q20 0 17 -20l-4 -30q-1 -12 -8 -23l-171 -285q-6 -13 -22 -13h-40q-12 0 -15.5 6.5t1.5 15.5l167 279h-143q-20 0 -17 20l4 32q2 18 20 18h211z" />
    <glyph glyph-name="eight.subs" horiz-adv-x="342" 
d="M136 -61q-61 0 -97.5 26.5t-36.5 69.5q0 37 21.5 65t56.5 42q-44 25 -44 71q0 51 40 81t102 30q58 0 91.5 -26t33.5 -66q0 -32 -18.5 -57.5t-49.5 -38.5q53 -25 53 -77q0 -57 -42 -88.5t-110 -31.5zM162 168q29 0 46 14.5t17 37.5q0 39 -50 39q-30 0 -47 -15t-17 -38
q0 -38 51 -38zM139 4q35 0 53 15.5t18 42.5q0 41 -57 41q-33 0 -52.5 -15.5t-19.5 -41.5q0 -19 15 -30.5t43 -11.5z" />
    <glyph glyph-name="nine.subs" horiz-adv-x="344" 
d="M273 282q30 -35 30 -97q0 -56 -17 -114t-48 -90q-44 -42 -111 -42q-50 0 -81.5 22.5t-37.5 65.5q-3 20 18 20h38q12 0 21 -17q12 -25 46 -25q65 0 87 98q-36 -29 -88 -29q-48 0 -78.5 31t-30.5 79q0 62 42.5 101t109.5 39q63 0 100 -42zM151 135q32 0 53 21t21 52
q0 23 -15 37t-40 14q-32 0 -52 -21t-20 -51q0 -24 14 -38t39 -14z" />
    <glyph glyph-name="zero.dnom" horiz-adv-x="373" 
d="M157 -11q-63 0 -99 39.5t-36 111.5q0 99 47.5 166.5t132.5 67.5q63 0 99 -39.5t36 -110.5q0 -99 -47.5 -167t-132.5 -68zM161 60q48 0 73 48.5t25 112.5q0 81 -60 81q-48 0 -73 -48.5t-25 -111.5q0 -82 60 -82z" />
    <glyph glyph-name="one.dnom" horiz-adv-x="234" 
d="M182 367q21 0 18 -20l-46 -333q-3 -18 -21 -18h-38q-21 0 -18 20l38 270l-63 -34q-10 -5 -16 -0.5t-5 15.5l5 36q1 13 15 21l70 37q11 6 24 6h37z" />
    <glyph glyph-name="two.dnom" horiz-adv-x="321" 
d="M147 124q-30 -14 -43 -26t-19 -33h162q21 0 18 -20l-5 -32q-1 -17 -20 -17h-223q-21 0 -18 20l1 10q9 62 32 95t85 62l48 23q29 13 43.5 27t14.5 34q0 37 -46 37t-63 -45q-4 -16 -21 -16h-41q-20 0 -17 20q26 111 144 111q55 0 88 -27.5t33 -71.5q0 -46 -27 -76t-78 -53z
" />
    <glyph glyph-name="three.dnom" horiz-adv-x="328" 
d="M227 180q55 -18 55 -72t-40 -86.5t-103 -32.5q-58 0 -93 26t-36 77q0 19 20 19h40q16 0 20 -18q6 -34 49 -34q31 0 49 15t18 38q0 38 -54 38h-11q-21 0 -18 20l4 30q3 17 21 17h12q28 0 45.5 14.5t17.5 36.5q0 35 -47 35q-44 0 -60 -36q-6 -17 -21 -17h-41q-22 0 -16 21
q25 103 142 103q55 0 88 -26.5t33 -67.5q0 -74 -74 -100z" />
    <glyph glyph-name="four.dnom" horiz-adv-x="343" 
d="M286 135q21 0 18 -20l-3 -28q-3 -18 -21 -18h-24l-8 -55q-3 -18 -21 -18h-34q-20 0 -18 20l8 53h-163q-20 0 -18 20l5 30q1 13 10 22l188 216q9 10 23 10h48q21 0 18 -20l-29 -212h21zM88 135h104l20 140z" />
    <glyph glyph-name="five.dnom" horiz-adv-x="328" 
d="M281 367q20 0 17 -20l-4 -30q-3 -18 -20 -18h-145l-20 -73q31 15 67 15q51 0 82 -29.5t31 -77.5q0 -64 -42.5 -104.5t-110.5 -40.5q-53 0 -87 26t-39 71q0 19 19 19h39q16 0 20 -17q11 -30 50 -30q33 0 53.5 20t20.5 53q0 22 -14 35t-38 13q-32 0 -55 -20q-12 -9 -24 -9
h-40q-22 0 -16 21l48 180q4 16 22 16h186z" />
    <glyph glyph-name="six.dnom" horiz-adv-x="344" 
d="M195 307q-67 0 -89 -99q38 30 87 30t79.5 -30t30.5 -77q0 -64 -43 -103t-110 -39q-60 0 -95 40q-34 41 -34 106q0 53 17.5 108t47.5 86q45 45 114 45q100 0 115 -88q2 -9 -3.5 -14.5t-14.5 -5.5h-36q-15 0 -21 17q-8 24 -45 24zM173 177q-31 0 -52.5 -20.5t-21.5 -51.5
q0 -23 14.5 -37t39.5 -14q31 0 52 21t21 52q0 23 -14 36.5t-39 13.5z" />
    <glyph glyph-name="seven.dnom" horiz-adv-x="290" 
d="M268 367q20 0 17 -20l-4 -30q-1 -12 -8 -23l-171 -285q-6 -13 -22 -13h-40q-12 0 -15.5 6.5t1.5 15.5l167 279h-143q-20 0 -17 20l4 32q1 18 20 18h211z" />
    <glyph glyph-name="eight.dnom" horiz-adv-x="342" 
d="M143 -11q-61 0 -97.5 26.5t-36.5 69.5q0 37 21.5 65t56.5 42q-44 25 -44 71q0 51 40 81t102 30q58 0 91.5 -26t33.5 -66q0 -32 -18.5 -57.5t-49.5 -38.5q53 -25 53 -77q0 -57 -42 -88.5t-110 -31.5zM169 218q29 0 46 14.5t17 37.5q0 39 -50 39q-30 0 -47 -15t-17 -38
q0 -38 51 -38zM146 54q35 0 53 15.5t18 42.5q0 41 -57 41q-33 0 -52.5 -15.5t-19.5 -41.5q0 -19 15 -30.5t43 -11.5z" />
    <glyph glyph-name="nine.dnom" horiz-adv-x="344" 
d="M280 332q30 -35 30 -97q0 -56 -17 -114t-48 -90q-43 -42 -111 -42q-50 0 -81.5 22.5t-37.5 65.5q-3 20 18 20h38q12 0 21 -17q12 -25 46 -25q65 0 87 98q-36 -29 -88 -29q-48 0 -78.5 31t-30.5 79q0 62 42.5 101t109.5 39q63 0 100 -42zM158 185q32 0 53 21t21 52
q0 23 -15 37t-40 14q-32 0 -52 -21t-20 -51q0 -24 14 -38t39 -14z" />
    <glyph glyph-name="zero.numr" horiz-adv-x="373" 
d="M204 326q-63 0 -99 39.5t-36 111.5q0 99 47.5 166.5t132.5 67.5q63 0 99 -39.5t36 -110.5q0 -99 -47.5 -167t-132.5 -68zM208 397q48 0 73 48.5t25 112.5q0 81 -60 81q-48 0 -73 -48.5t-25 -111.5q0 -82 60 -82z" />
    <glyph glyph-name="one.numr" horiz-adv-x="234" 
d="M229 704q21 0 18 -20l-46 -333q-3 -18 -21 -18h-38q-21 0 -18 20l38 270l-63 -34q-10 -5 -16 -0.5t-5 15.5l5 36q1 13 15 21l70 37q11 6 24 6h37z" />
    <glyph glyph-name="two.numr" horiz-adv-x="321" 
d="M194 461q-30 -14 -43 -26t-19 -33h162q21 0 18 -20l-5 -32q-1 -17 -20 -17h-223q-21 0 -18 20l1 10q9 62 32 95t85 62l48 23q29 13 43.5 27t14.5 34q0 37 -46 37t-63 -45q-4 -16 -21 -16h-41q-20 0 -17 20q26 111 144 111q55 0 88 -27.5t33 -71.5q0 -46 -27 -76t-78 -53z
" />
    <glyph glyph-name="three.numr" horiz-adv-x="328" 
d="M274 517q55 -18 55 -72t-40 -86.5t-103 -32.5q-58 0 -93 26t-36 77q0 19 20 19h40q15 0 20 -18q6 -34 49 -34q31 0 49 15t18 38q0 38 -54 38h-11q-21 0 -18 20l4 30q3 17 21 17h12q28 0 45.5 14.5t17.5 36.5q0 35 -47 35q-44 0 -60 -36q-6 -17 -21 -17h-41q-22 0 -16 21
q25 103 142 103q55 0 88 -26.5t33 -67.5q0 -74 -74 -100z" />
    <glyph glyph-name="four.numr" horiz-adv-x="343" 
d="M333 472q21 0 18 -20l-3 -28q-3 -18 -21 -18h-24l-8 -55q-3 -18 -21 -18h-34q-20 0 -18 20l8 53h-163q-20 0 -18 20l5 30q2 14 10 22l188 216q9 10 23 10h48q21 0 18 -20l-29 -212h21zM135 472h104l20 140z" />
    <glyph glyph-name="five.numr" horiz-adv-x="328" 
d="M328 704q20 0 17 -20l-4 -30q-3 -18 -20 -18h-145l-20 -73q32 15 67 15q51 0 82 -29.5t31 -77.5q0 -64 -42.5 -104.5t-110.5 -40.5q-53 0 -87 26t-39 71q0 19 19 19h39q16 0 20 -17q11 -30 50 -30q33 0 53.5 20t20.5 53q0 22 -14 35t-38 13q-32 0 -55 -20q-12 -9 -24 -9
h-40q-22 0 -16 21l48 180q4 16 22 16h186z" />
    <glyph glyph-name="six.numr" horiz-adv-x="344" 
d="M242 644q-67 0 -89 -99q37 30 87 30q49 0 79.5 -30t30.5 -77q0 -64 -43 -103t-110 -39q-60 0 -95 40q-34 41 -34 106q0 53 17.5 108t47.5 86q45 45 114 45q100 0 115 -88q2 -9 -3.5 -14.5t-14.5 -5.5h-36q-15 0 -21 17q-8 24 -45 24zM220 514q-31 0 -52.5 -20.5
t-21.5 -51.5q0 -23 14.5 -37t39.5 -14q31 0 52 21t21 52q0 23 -14 36.5t-39 13.5z" />
    <glyph glyph-name="seven.numr" horiz-adv-x="290" 
d="M315 704q20 0 17 -20l-4 -30q-1 -12 -8 -23l-171 -285q-6 -13 -22 -13h-40q-12 0 -15.5 6.5t1.5 15.5l167 279h-143q-20 0 -17 20l4 32q2 18 20 18h211z" />
    <glyph glyph-name="eight.numr" horiz-adv-x="342" 
d="M190 326q-61 0 -97.5 26.5t-36.5 69.5q0 37 21.5 65t56.5 42q-44 25 -44 71q0 51 40 81t102 30q58 0 91.5 -26t33.5 -66q0 -32 -18.5 -57.5t-49.5 -38.5q53 -25 53 -77q0 -57 -42 -88.5t-110 -31.5zM216 555q29 0 46 14.5t17 37.5q0 39 -50 39q-30 0 -47 -15t-17 -38
q0 -38 51 -38zM193 391q35 0 53 15.5t18 42.5q0 41 -57 41q-33 0 -52.5 -15.5t-19.5 -41.5q0 -19 15 -30.5t43 -11.5z" />
    <glyph glyph-name="nine.numr" horiz-adv-x="344" 
d="M327 669q30 -35 30 -97q0 -56 -17 -114t-48 -90q-44 -42 -111 -42q-50 0 -81.5 22.5t-37.5 65.5q-3 20 18 20h38q12 0 21 -17q12 -25 46 -25q65 0 87 98q-36 -29 -88 -29q-48 0 -78.5 31t-30.5 79q0 62 42.5 101t109.5 39q63 0 100 -42zM205 522q32 0 53 21t21 52
q0 23 -15 37t-40 14q-32 0 -52 -21t-20 -51q0 -24 14 -38t39 -14z" />
    <glyph glyph-name="zero.sups" horiz-adv-x="373" 
d="M211 376q-63 0 -99 39.5t-36 111.5q0 99 47.5 166.5t132.5 67.5q63 0 99 -39.5t36 -110.5q0 -99 -47.5 -167t-132.5 -68zM215 447q48 0 73 48.5t25 112.5q0 81 -60 81q-48 0 -73 -48.5t-25 -111.5q0 -82 60 -82z" />
    <glyph glyph-name="one.sups" horiz-adv-x="234" 
d="M236 754q21 0 18 -20l-46 -333q-3 -18 -21 -18h-38q-21 0 -18 20l38 270l-63 -34q-10 -5 -16 -0.5t-5 15.5l5 36q1 13 15 21l70 37q11 6 24 6h37z" />
    <glyph glyph-name="two.sups" horiz-adv-x="321" 
d="M201 511q-30 -14 -43 -26t-19 -33h162q21 0 18 -20l-5 -32q-1 -17 -20 -17h-223q-21 0 -18 20l1 10q9 62 32 95t85 62l48 23q29 13 43.5 27t14.5 34q0 37 -46 37t-63 -45q-4 -16 -21 -16h-41q-20 0 -17 20q26 111 144 111q55 0 88 -27.5t33 -71.5q0 -46 -27 -76t-78 -53z
" />
    <glyph glyph-name="three.sups" horiz-adv-x="328" 
d="M281 567q55 -18 55 -72t-40 -86.5t-103 -32.5q-58 0 -93 26t-36 77q0 19 20 19h40q16 0 20 -18q6 -34 49 -34q31 0 49 15t18 38q0 38 -54 38h-11q-21 0 -18 20l4 30q3 17 21 17h12q28 0 45.5 14.5t17.5 36.5q0 35 -47 35q-44 0 -60 -36q-6 -17 -21 -17h-41q-22 0 -16 21
q25 103 142 103q55 0 88 -26.5t33 -67.5q0 -74 -74 -100z" />
    <glyph glyph-name="four.sups" horiz-adv-x="343" 
d="M340 522q21 0 18 -20l-3 -28q-3 -18 -21 -18h-24l-8 -55q-3 -18 -21 -18h-34q-20 0 -18 20l8 53h-163q-20 0 -18 20l5 30q1 14 10 22l188 216q9 10 23 10h48q21 0 18 -20l-29 -212h21zM142 522h104l20 140z" />
    <glyph glyph-name="five.sups" horiz-adv-x="328" 
d="M335 754q20 0 17 -20l-4 -30q-3 -18 -20 -18h-145l-20 -73q31 15 67 15q51 0 82 -29.5t31 -77.5q0 -64 -42.5 -104.5t-110.5 -40.5q-53 0 -87 26t-39 71q0 19 19 19h39q16 0 20 -17q11 -30 50 -30q33 0 53.5 20t20.5 53q0 22 -14 35t-38 13q-32 0 -55 -20q-12 -9 -24 -9
h-40q-22 0 -16 21l48 180q4 16 22 16h186z" />
    <glyph glyph-name="six.sups" horiz-adv-x="344" 
d="M249 694q-67 0 -89 -99q38 30 87 30t79.5 -30t30.5 -77q0 -64 -43 -103t-110 -39q-60 0 -95 40q-34 41 -34 106q0 53 17.5 108t47.5 86q45 45 114 45q100 0 115 -88q2 -9 -3.5 -14.5t-14.5 -5.5h-36q-15 0 -21 17q-8 24 -45 24zM227 564q-31 0 -52.5 -20.5t-21.5 -51.5
q0 -23 14.5 -37t39.5 -14q31 0 52 21t21 52q0 23 -14 36.5t-39 13.5z" />
    <glyph glyph-name="seven.sups" horiz-adv-x="290" 
d="M322 754q20 0 17 -20l-4 -30q-1 -12 -8 -23l-171 -285q-6 -13 -22 -13h-40q-12 0 -15.5 6.5t1.5 15.5l167 279h-143q-20 0 -17 20l4 32q1 18 20 18h211z" />
    <glyph glyph-name="eight.sups" horiz-adv-x="342" 
d="M197 376q-61 0 -97.5 26.5t-36.5 69.5q0 37 21.5 65t56.5 42q-44 25 -44 71q0 51 40 81t102 30q58 0 91.5 -26t33.5 -66q0 -32 -18.5 -57.5t-49.5 -38.5q53 -25 53 -77q0 -57 -42 -88.5t-110 -31.5zM223 605q29 0 46 14.5t17 37.5q0 39 -50 39q-30 0 -47 -15t-17 -38
q0 -38 51 -38zM200 441q35 0 53 15.5t18 42.5q0 41 -57 41q-33 0 -52.5 -15.5t-19.5 -41.5q0 -19 15 -30.5t43 -11.5z" />
    <glyph glyph-name="nine.sups" horiz-adv-x="344" 
d="M334 719q30 -35 30 -97q0 -56 -17 -114t-48 -90q-43 -42 -111 -42q-50 0 -81.5 22.5t-37.5 65.5q-3 20 18 20h38q12 0 21 -17q12 -25 46 -25q65 0 87 98q-36 -29 -88 -29q-48 0 -78.5 31t-30.5 79q0 62 42.5 101t109.5 39q63 0 100 -42zM212 572q32 0 53 21t21 52
q0 23 -15 37t-40 14q-32 0 -52 -21t-20 -51q0 -24 14 -38t39 -14z" />
    <glyph glyph-name="colon.case" horiz-adv-x="275" 
d="M171 447q-28 0 -46 16.5t-18 42.5q0 35 21 58t56 23q29 0 47 -17t18 -44q0 -33 -22 -56t-56 -23zM123 115q-29 0 -46.5 16.5t-17.5 42.5q0 34 21.5 57t55.5 23q29 0 46.5 -16.5t17.5 -43.5q0 -34 -21.5 -56.5t-55.5 -22.5z" />
    <glyph glyph-name="exclamdown.case" horiz-adv-x="290" 
d="M209 709q28 0 46 -16.5t18 -42.5q0 -35 -21 -58t-56 -23q-29 0 -47 17t-18 43q0 34 21.5 57t56.5 23zM204 477q21 0 18 -20l-51 -439q-1 -18 -20 -18h-74q-20 0 -17 21l73 439q3 17 20 17h51z" />
    <glyph glyph-name="questiondown.case" horiz-adv-x="497" 
d="M337 710q28 0 46 -16.5t18 -42.5q0 -35 -21.5 -58t-56.5 -23q-28 0 -46 17t-18 44q0 33 22 56t56 23zM337 482q21 0 18 -20l-4 -27q-8 -52 -26.5 -82t-70.5 -69l-53 -40q-63 -46 -63 -101q0 -60 85 -60q104 0 132 96q5 16 21 16h60q21 0 18 -21q-16 -86 -78 -135
t-159 -49q-85 0 -133.5 40t-48.5 107q0 53 27.5 92t84.5 82l51 39q29 22 39 38t15 49l3 27q3 18 21 18h61z" />
    <glyph glyph-name="periodcentered.case" horiz-adv-x="294" 
d="M156 280q-28 0 -46 16.5t-18 42.5q0 34 21.5 57t55.5 23q29 0 47 -16.5t18 -43.5q0 -34 -21.5 -56.5t-56.5 -22.5z" />
    <glyph glyph-name="bullet.case" horiz-adv-x="527" 
d="M281 205q-66 0 -110.5 44.5t-44.5 109.5t44.5 110t110.5 45t110 -44.5t44 -110.5q0 -65 -44 -109.5t-110 -44.5z" />
    <glyph glyph-name="parenleft.case" horiz-adv-x="333" 
d="M196 -75q-15 -13 -25 5q-94 145 -94 334q0 134 56.5 271t152.5 238q11 15 26 2l40 -28q16 -12 2 -26q-81 -91 -129.5 -214t-48.5 -245q0 -166 71 -282q9 -15 -6 -26z" />
    <glyph glyph-name="parenright.case" horiz-adv-x="333" 
d="M170 775q15 13 25 -5q94 -145 94 -334q0 -134 -56.5 -271t-152.5 -238q-11 -15 -26 -2l-40 28q-16 12 -2 26q81 91 129.5 214t48.5 245q0 166 -71 282q-9 15 6 26z" />
    <glyph glyph-name="braceleft.case" horiz-adv-x="394" 
d="M234 -68q-75 0 -107.5 32t-22.5 101l26 182q4 29 -7 42.5t-39 15.5q-21 1 -18 21l6 51q3 16 21 18q32 2 46.5 15t18.5 43l26 182q9 71 42.5 102t106.5 31h71q20 0 17 -20l-6 -48q-3 -18 -20 -18h-49q-58 0 -66 -57l-24 -165q-12 -89 -94 -109l-1 -2q76 -21 64 -109
l-23 -165q-5 -32 5 -44.5t45 -12.5h47q20 0 17 -20l-7 -48q-3 -18 -20 -18h-55z" />
    <glyph glyph-name="braceright.case" horiz-adv-x="394" 
d="M192 768q75 0 107.5 -32t22.5 -101l-26 -182q-4 -29 7 -42.5t39 -15.5q21 -1 18 -21l-6 -51q-3 -16 -21 -18q-32 -2 -46.5 -15t-18.5 -43l-26 -182q-9 -71 -42.5 -102t-106.5 -31h-71q-20 0 -17 20l6 48q3 18 20 18h49q58 0 66 57l24 165q12 89 94 109l1 2
q-76 21 -64 109l23 165q5 32 -5 44.5t-45 12.5h-47q-20 0 -17 20l7 48q3 18 20 18h55z" />
    <glyph glyph-name="bracketleft.case" horiz-adv-x="373" 
d="M385 768q20 0 17 -20l-7 -48q-1 -18 -20 -18h-127l-93 -664h124q20 0 18 -20l-7 -48q-3 -18 -20 -18h-203q-21 0 -18 20l112 798q1 18 20 18h204z" />
    <glyph glyph-name="bracketright.case" horiz-adv-x="373" 
d="M338 768q21 0 18 -20l-112 -798q-2 -18 -20 -18h-204q-20 0 -17 20l7 48q2 18 20 18h127l93 664h-124q-20 0 -18 20l7 48q3 18 20 18h203z" />
    <glyph glyph-name="hyphen.case" horiz-adv-x="393" 
d="M81 299q-21 0 -18 20l7 55q3 17 21 17h253q21 0 18 -20l-7 -55q-3 -17 -21 -17h-253z" />
    <glyph glyph-name="endash.case" horiz-adv-x="501" 
d="M81 299q-21 0 -18 20l7 55q3 17 21 17h360q21 0 18 -20l-7 -55q-3 -17 -21 -17h-360z" />
    </font>
</defs>
</svg>
