<svg height="501" viewBox="0 0 780 501" width="780" xmlns="http://www.w3.org/2000/svg"><g fill="none" fill-rule="evenodd"><path d="m54.992188 0c-30.365623 0-54.992188 24.629374-54.992188 55.003906v390.992184c0 30.38027 24.618673 55.00391 54.992188 55.00391h670.015622c30.36563 0 54.99219-24.62938 54.99219-55.00391v-177.43945-213.552734c0-30.380269-24.61867-55.003906-54.99219-55.003906z" fill="#4d4d4d"/><path d="m415.13086 161.21289c30.94017 0 56.02148 23.57998 56.02148 52.70899v.0332c0 29.129-25.08131 52.74219-56.02148 52.74219s-56.02148-23.61319-56.02148-52.74219v-.0332c0-29.12901 25.08131-52.70899 56.02148-52.70899zm-87.97852.67969c8.83656 0 16.24794 1.78465 25.26758 6.08984v22.75196c-8.54364-7.86349-15.95509-11.1543-25.75586-11.1543-19.26386 0-34.41406 15.01447-34.41406 34.05078 0 20.07431 14.68133 34.19531 35.36914 34.19531 9.31257 0 16.58668-3.12033 24.80078-10.85742v22.76367c-9.34104 4.14049-16.91116 5.77539-25.75586 5.77539-31.27785 0-55.58203-22.59583-55.58203-51.73633 0-28.82641 24.95113-51.8789 56.07031-51.8789zm-97.11328.62695c11.54571 0 22.11046 3.72051 30.94336 10.99414l-10.74804 13.24805c-5.35076-5.64578-10.41101-8.02734-16.56446-8.02734-8.85324-.00001-15.30078 4.74498-15.30078 10.98828 0 5.35468 3.61969 8.18872 15.94531 12.48242 23.36482 8.04351 30.28907 15.17582 30.28907 30.92578 0 19.19335-14.97546 32.55273-36.32032 32.55273-15.62997 0-26.99312-5.79464-36.45703-18.87109l13.26758-12.03125c4.73114 8.61039 12.6224 13.22266 22.41992 13.22266 9.16326 0 15.94727-5.95236 15.94727-13.98438 0-4.16347-2.05482-7.73368-6.15821-10.25781-2.06593-1.19504-6.15803-2.97681-14.19921-5.64649-19.29154-6.53822-25.91016-13.52689-25.91016-27.18554 0-16.22491 14.21366-28.41016 32.8457-28.41016zm234.72266 1.72852h22.4375l28.08398 66.59179 28.44532-66.59179h22.26757l-45.49414 101.68554h-11.05273zm-397.347658.15234h30.150391c33.311637 0 56.533207 20.3814 56.533207 49.64063 0 14.58939-7.10402 28.69552-19.11719 38.05664-10.10875 7.90179-21.62651 11.44531-37.57422 11.44531h-29.992188zm96.134768 0h20.54101v99.14258h-20.54101zm411.73437 0h58.25196v16.79883h-37.72657v22.00586h36.33594v16.79101h-36.33594v26.76172h37.72657v16.78516h-58.25196zm71.85742 0h30.45508c23.69029 0 37.26563 10.71013 37.26563 29.27149 0 15.17925-8.51421 25.14085-23.98633 28.10546l33.14844 41.76563h-25.25977l-28.42969-39.82813h-2.67773v39.82813h-20.51563zm20.51563 15.61523v30.0254h6.00195c13.11652 0 20.06836-5.36184 20.06836-15.32813 0-9.64838-6.95309-14.69727-19.74414-14.69727zm-579.716797 1.1836v65.55859h5.511719c13.273148 0 21.655678-2.39399 28.109378-7.8789 7.10383-5.95603 11.37695-15.46615 11.37695-24.98047 0-9.49901-4.27312-18.72561-11.37695-24.68164-6.78447-5.77984-14.83623-8.01758-28.109378-8.01758z" fill="#fff"/><path d="m779.981917 288.361069c-26.04988 18.33085-221.07701 149.33951-558.75391 212.623051h503.76172c30.36563 0 54.99219-24.62938 54.99219-55.003911z" fill="#f47216"/></g></svg>