<svg enable-background="new -45 62.3 750 471" viewBox="-45 62.3 750 471" xmlns="http://www.w3.org/2000/svg"><path d="m-5 62.3h670c22.1 0 40 17.9 40 40v391c0 22.1-17.9 40-40 40h-670c-22.1 0-40-17.9-40-40v-391c0-22.1 17.9-40 40-40z" fill="#283a97"/><path d="m160.2 477.3h340v-359h-340z" fill="#283a97"/><g fill="#ee4799"><path d="m500.3 127.6-10.1 17.1-330.5-7.6v-1.7z"/><path d="m489.1 146.9-10.4 17-313.2-7.9-.8-1.2z"/><path d="m477.4 166.3-10.2 16.9-290.2-7.9-.7-1.1z"/><path d="m465.7 185.6-9.9 17-266.6-7.9-.8-1.2z"/><path d="m454.5 204.8-10.1 17.1-243.7-7.9-.8-1.3z"/><path d="m442.8 224.3-10.1 16.9-220-7.9-.7-1.1z"/><path d="m431.3 243.5-10.1 17.1-196.1-7.9-.8-1.3z"/><path d="m419.9 262.8-10.2 17.1-173.1-7.9-.8-1.3z"/><path d="m408.6 282.1-10.5 17-150-7.9-.8-1.1z"/><path d="m397 301.5-10.2 17-126.5-8-.8-1.1z"/><path d="m385.5 320.8-10.3 17-102.9-7.9-.8-1.2z"/><path d="m374 340-10.3 17.1-79.4-7.9-.8-1.3z"/><path d="m362.5 359.5-10.2 16.8-56.3-7.8-.8-1.2z"/><path d="m351.1 378.7-10.4 17.1-33.2-7.9-.8-1.3z"/><path d="m339.1 398.6-10.4 17.7-11.1-9.2-.3-1.2z"/><path d="m159.7 406.5h340.6z"/></g><path d="m159.7 406.5h340.6" fill="none" stroke="#ee4799" stroke-miterlimit="2.6131" stroke-width="1.0006"/><path d="m159.7 387.2h340.6z" fill="#ee4799"/><path d="m159.7 387.2h340.6" fill="none" stroke="#ee4799" stroke-miterlimit="2.6131" stroke-width="1.0006"/><path d="m159.7 368h340.6z" fill="#ee4799"/><path d="m159.7 368h340.6" fill="none" stroke="#ee4799" stroke-miterlimit="2.6131" stroke-width="1.0006"/><path d="m159.7 348.6h340.6z" fill="#ee4799"/><path d="m159.7 348.6h340.6" fill="none" stroke="#ee4799" stroke-miterlimit="2.6131" stroke-width="1.0006"/><path d="m159.7 329.3h340.6z" fill="#ee4799"/><path d="m159.7 329.3h340.6" fill="none" stroke="#ee4799" stroke-miterlimit="2.6131" stroke-width="1.0006"/><path d="m159.7 310h340.6z" fill="#ee4799"/><path d="m159.7 310h340.6" fill="none" stroke="#ee4799" stroke-miterlimit="2.6131" stroke-width="1.0006"/><path d="m159.7 290.8h340.6z" fill="#ee4799"/><path d="m159.7 290.8h340.6" fill="none" stroke="#ee4799" stroke-miterlimit="2.6131" stroke-width="1.0006"/><path d="m159.7 271.3h340.6z" fill="#ee4799"/><path d="m159.7 271.3h340.6" fill="none" stroke="#ee4799" stroke-miterlimit="2.6131" stroke-width="1.0006"/><path d="m159.7 252.1h340.6z" fill="#ee4799"/><path d="m159.7 252.1h340.6" fill="none" stroke="#ee4799" stroke-miterlimit="2.6131" stroke-width="1.0006"/><path d="m159.7 232.8h340.6z" fill="#ee4799"/><path d="m159.7 232.8h340.6" fill="none" stroke="#ee4799" stroke-miterlimit="2.6131" stroke-width="1.0006"/><path d="m159.7 213.5h340.6z" fill="#ee4799"/><path d="m159.7 213.5h340.6" fill="none" stroke="#ee4799" stroke-miterlimit="2.6131" stroke-width="1.0006"/><path d="m159.7 194.1h340.6z" fill="#ee4799"/><path d="m159.7 194.1h340.6" fill="none" stroke="#ee4799" stroke-miterlimit="2.6131" stroke-width="1.0006"/><path d="m159.7 174.8h340.6z" fill="#ee4799"/><path d="m159.7 174.8h340.6" fill="none" stroke="#ee4799" stroke-miterlimit="2.6131" stroke-width="1.0006"/><path d="m159.7 155.6h340.6z" fill="#ee4799"/><path d="m159.7 155.6h340.6" fill="none" stroke="#ee4799" stroke-miterlimit="2.6131" stroke-width="1.0006"/><path d="m364.5 427.4v37.4h25.4l3.2-7.1c-4.6.2-7.9.3-12.6.3-1.4 0-2.7 0-5.4 0v-9.3h.6c2.7 0 5.7.2 8.8.3l3.2-7.3c-1.6.2-1.9.2-4.1.2-3.9.2-4.9.2-8.5.2v-7.7h1.3c3.2 0 7.3.2 12.8.3l3-7.3zm-97.1 0 2.7 4-14.4 33.5h10.4l2.4-5.7h14.8l2.4 5.7h10.9l-16.4-37.4zm12.9 24.9h-9l4.4-10.7zm-58.9-27.3h-10.6v39.8h25.6l3-7.1c-3.3.2-7.6.3-12.2.3-1.6 0-2.8 0-5.8 0zm118.5 4.3c-4.1-1.9-7.7-2.7-11.4-2.7-8.1 0-13.6 4.4-13.6 10.7 0 4 1.7 6.6 6.3 9.6l5.4 3.6c2.5 1.7 3.5 3 3.5 4.9 0 2.4-2.2 3.8-5.5 3.8-2.8 0-4.6-.8-7.7-3.3l-2.8 6.6c4.7 2.5 7.1 3.2 11.2 3.2 9.3 0 15.2-4.6 15.2-11.7 0-4.1-1.9-6.8-6.6-10.1l-5.5-4c-2.4-1.6-3-2.4-3-3.6 0-2.1 1.6-3.3 4.3-3.3 2.4 0 4.4.8 7.6 2.8zm75.6-1.9v37.4h10.6v-30.5h2.1.2c4.7 0 7.3 1.9 7.3 5.4 0 3.6-3 6-7.7 6-.5 0-.8 0-1.6-.2l12.8 19.3h11.7l-10.6-15.5c4.6-2.7 6.5-5.7 6.5-10.3 0-7.9-5.5-11.7-16.7-11.7z" fill="#fff"/></svg>