<svg height="471" viewBox="0 0 750 471" width="750" xmlns="http://www.w3.org/2000/svg"><g fill="none" fill-rule="evenodd"><rect fill="#f4f4f4" height="471" rx="40" width="750"/><g transform="translate(125.719997 41.850862)"><g fill="#000" transform="translate(25.142679 328.360022)"><path d="m467.715561 51.9326899c-1.212957.0296686-2.212156.4322049-2.997599 1.2076102-.785446.775432-1.191935 1.7458097-1.219468 2.9111361.027533 1.1565135.434022 2.1243674 1.219469 2.9035643.785443.779212 1.784641 1.1842721 2.997598 1.215182 1.185203-.0309099 2.171791-.4359702 2.959765-1.2151823.787959-.7791972 1.196971-1.7470509 1.227036-2.903564-.029435-1.1653264-.437185-2.1357042-1.223253-2.9111364-.786083-.7754055-1.773931-1.1779417-2.963548-1.2076099zm0 7.3289456c-.924169-.0227063-1.686284-.3356501-2.286347-.9388322-.600069-.6031659-.910715-1.3602874-.931941-2.2713671.021226-.9150558.331873-1.6717572.931941-2.2701062.600063-.5983238 1.362178-.9083229 2.286347-.9299982.904822.0216758 1.655167.3316748 2.251036.9299984.595855.5983488.90482 1.3550502.926897 2.270106-.022077.9110799-.331042 1.6682016-.926897 2.2713671-.595869.6031817-1.346213.9161254-2.251036.9388322zm.242128-5.138338h-1.765519v3.8259924h.817183v-1.4334853h.373281l1.160198 1.4334853h.978602l-1.250996-1.4435802c.39072-.0489928.691278-.1756007.901675-.3798236.210385-.2042025.316736-.464568.319055-.7810976-.002739-.3777089-.135994-.674669-.399764-.8908812-.263783-.2161883-.641687-.3263915-1.133715-.3306098zm-.010089.7167427c.219213.0002218.391141.0427051.515783.1274483.124632.0847667.188106.2105333.190425.3772997-.002325.1716247-.065793.3003353-.190425.3861318-.124642.0858185-.29657.1287212-.515783.128711h-.938247v-1.0195917z"/><path d="m9.34331724 57.5428029h-8.75514132v-40.8827984h8.58347165v4.9815141s7.53908793-6.0882701 12.01686073-6.0121678c8.7064215.1479809 13.9052207 7.558159 13.9052207 7.558159s4.2172603-7.558159 13.7335628-7.558159c14.072507 0 16.1369231 12.883235 16.1369231 12.883235v28.8584415h-8.4118041v-25.4229186s.0301814-7.7299346-9.0984785-7.7299346c-9.4399576 0-10.3001694 7.7299346-10.3001694 7.7299346v25.4229186h-8.7551414v-25.5946942s-.8410719-8.0734965-8.7551381-8.0734965c-10.2784721 0-10.47183583 8.2452721-10.47183583 8.2452721z"/><path d="m275.596898 15.623773c-4.477776-.0760916-12.016157 6.0118237-12.016157 6.0118237v-4.9706699h-8.592559v40.8736847h8.760383l-.167824-25.5922332s.193709-8.2284739 10.472182-8.2284739c1.908901 0 3.39144.4626646 4.564797 1.1754963v-.0335319l2.852998-7.959789c-1.721626-.7250622-3.679495-1.2390134-5.87382-1.2763068z"/><path d="m398.92774 15.623773c-4.477776-.0760916-12.016158 6.0118237-12.016158 6.0118237v-4.9706699h-8.592559v40.8736847h8.760383l-.167824-25.5922332s.193709-8.2284739 10.472182-8.2284739c1.908902 0 3.39144.4626646 4.564797 1.1754963v-.0335319l2.852998-7.959789c-1.721626-.7250085-3.679495-1.2389597-5.873819-1.2762531z"/><path d="m93.2735295 15.4558449c-13.1026649 0-20.0366669 11.783841-20.0716816 21.6291314-.0359813 10.0912983 7.893748 21.7298883 20.4408932 21.7298883 7.3199369 0 13.3332999-5.4072829 13.3332999-5.4072829l-.015896 4.1646154h8.617853v-40.9233699h-8.648206v5.1546976s-5.647138-6.3476799-13.6562195-6.3476799zm1.6782343 8.3292307c7.0396692 0 12.7545802 6.1272186 12.7545802 13.6693424s-5.714911 13.6357568-12.7545802 13.6357568c-7.0396691 0-12.7210156-6.093633-12.7210156-13.6357568s5.6813465-13.6693424 12.7210156-13.6693424z"/><path d="m344.597578 15.4558449c-13.102665 0-20.036667 11.783841-20.071682 21.6291314-.035981 10.0912983 7.893748 21.7298883 20.440893 21.7298883 7.319937 0 13.3333-5.4072829 13.3333-5.4072829l-.015896 4.1646154h8.617853v-40.9233699h-8.648206v5.1546976s-5.647138-6.3476799-13.65622-6.3476799zm1.678234 8.3292307c7.039669 0 12.75458 6.1272186 12.75458 13.6693424s-5.714911 13.6357568-12.75458 13.6357568-12.721016-6.093633-12.721016-13.6357568 5.681347-13.6693424 12.721016-13.6693424z"/><path d="m427.342249 15.4558449c-13.102665 0-20.036667 11.783841-20.071682 21.6291314-.035981 10.0912983 7.893748 21.7298883 20.440893 21.7298883 7.319937 0 13.3333-5.4072829 13.3333-5.4072829l-.015896 4.1646154h8.617854v-57.07812248h-8.648207v21.30945018s-5.647138-6.3476799-13.656219-6.3476799zm1.678234 8.3292307c7.039669 0 12.75458 6.1272186 12.75458 13.6693424s-5.714911 13.6357568-12.75458 13.6357568-12.721016-6.093633-12.721016-13.6357568 5.681347-13.6693424 12.721016-13.6693424z"/><path d="m141.872122 58.9170078c-8.926542 0-17.166946-5.4968409-17.166946-5.4968409l3.776731-5.8404028s7.797071 3.6073092 13.390215 3.6073092c3.634008 0 9.711815-1.1742066 9.785152-4.8097385.077548-3.842387-10.214329-4.9815248-10.214329-4.9815248s-15.364409-.2097247-15.364409-12.8832242c0-7.9704612 7.673402-13.0550106 17.510282-13.0550106 5.683849 0 16.308592 4.9815141 16.308592 4.9815141l-4.291736 6.6992809s-8.203456-3.2794492-12.531872-3.4355336c-3.654996-.1317953-8.068456 1.6193099-8.068456 4.8097492 0 8.6681068 25.578738-.6753878 25.578738 16.8340846 0 11.4871484-10.417393 13.5703374-18.711962 13.5703374z"/><path d="m174.802149 4.80920724v11.88930516h-7.619183v8.5979156h7.619183v20.554392s-.674322 13.9044416 14.264992 13.9044416c4.130389 0 12.217545-3.0562903 12.217545-3.0562903l-3.457163-8.9337717s-3.216055 2.7450458-6.847195 2.653263c-6.904133-.1744409-6.712937-4.6012283-6.712937-4.6012283v-20.5208063h14.231426v-8.5979156h-14.231426v-11.88930516z"/><path d="m226.659588 15.959629c-14.049501 0-21.069171 11.5793503-21.011493 21.6291314.059289 10.3350815 6.392209 21.9649875 21.85061 21.9649875 6.616367 0 15.909661-5.8103101 15.909661-5.8103101l-3.994198-6.9522208s-6.34162 4.5004714-11.915463 4.5004714c-11.159533 0-11.881899-10.9153225-11.881899-10.9153225h29.87257s2.228609-24.4167369-18.829788-24.4167369zm-1.275458 8.0269603c.331286-.018808.686438 0 1.040505 0 10.513319 0 10.438617 9.9413399 10.438617 9.9413399h-21.246446s-.5026-9.357133 9.767324-9.9413399z"/><path d="m315.5162 46.686 4.00583 8.0166427s-6.34901 4.1297831-13.474132 4.1297831c-14.751341 0-22.942456-11.1089261-22.942456-21.620641 0-16.5205509 13.035256-21.3777176 21.849955-21.3777176 8.000972 0 14.930796 4.6156405 14.930796 4.6156405l-4.491374 8.0166428s-2.72296-4.2512501-10.682205-4.2512501c-7.945959 0-12.138859 6.8551181-12.138859 13.3610748 0 7.2908175 4.880359 13.4825312 12.26025 13.4825312 5.789388 0 10.682195-4.3727064 10.682195-4.3727064z"/></g><path d="m498.787985 236.781279v-5.520656h-1.440501l-1.657048 3.796629-1.657048-3.796629h-1.440502v5.520656h1.016825v-4.164044l1.553482 3.589368h1.054485l1.553483-3.598789v4.173465zm-9.123178 0v-4.578564h1.845349v-.932671h-4.698107v.932671h1.845348v4.578564z" fill="#f79f1a"/><path d="m499.076678 154.709802c0 85.425357-69.076971 154.676303-154.287749 154.676303s-154.28777-69.250946-154.28777-154.676303c0-85.4253694 69.076992-154.67630998 154.28777-154.67630998s154.287749 69.25094058 154.287749 154.67630998z" fill="#f79f1a"/><path d="m308.73932 154.709802c0 85.425357-69.076971 154.676303-154.287749 154.676303-85.2107779 0-154.28776972-69.250946-154.28776972-154.676303 0-85.4253694 69.07699182-154.67630998 154.28776972-154.67630998 85.210778 0 154.287749 69.25094058 154.287749 154.67630998z" fill="#ea001b"/><path d="m249.620562 32.9474812c-35.999236 28.3162011-59.10741 72.3178638-59.10741 121.7478278 0 49.429965 23.108174 93.465211 59.10741 121.781414 35.999237-28.316203 59.107411-72.351449 59.107411-121.781414 0-49.429964-23.108174-93.4316267-59.107411-121.7478278z" fill="#ff5f01"/></g></g></svg>