<svg height="471" viewBox="0 0 750 471" width="750" xmlns="http://www.w3.org/2000/svg"><g fill="none" fill-rule="evenodd"><rect fill="#0e4595" height="471" rx="40" width="750"/><g fill="#fff"><path d="m278.1975 334.2275 33.361-195.762h53.359l-33.384 195.762z"/><path d="m524.3075 142.6875c-10.572-3.966-27.136-8.222-47.823-8.222-52.724 0-89.864 26.551-90.18 64.604-.297 28.129 26.514 43.821 46.754 53.185 20.769 9.595 27.752 15.715 27.653 24.283-.132 13.122-16.586 19.117-31.923 19.117-21.357 0-32.703-2.967-50.226-10.276l-6.876-3.112-7.489 43.824c12.463 5.464 35.509 10.199 59.438 10.444 56.089 0 92.501-26.247 92.915-66.882.201-22.269-14.015-39.217-44.799-53.188-18.651-9.056-30.073-15.099-29.952-24.269 0-8.137 9.668-16.838 30.557-16.838 17.449-.271 30.088 3.534 39.936 7.5l4.782 2.259z"/><path d="m661.6145 138.4655h-41.231c-12.773 0-22.331 3.486-27.941 16.234l-79.245 179.403h56.031s9.162-24.122 11.234-29.418c6.123 0 60.554.084 68.336.084 1.596 6.853 6.492 29.334 6.492 29.334h49.512zm-65.417 126.407c4.413-11.279 21.259-54.723 21.259-54.723-.315.521 4.38-11.334 7.075-18.684l3.607 16.878s10.217 46.729 12.352 56.528h-44.293z"/><path d="m232.9025 138.4655-52.24 133.495-5.566-27.129c-9.725-31.274-40.025-65.156-73.899-82.119l47.767 171.203 56.455-.065 84.004-195.385z"/></g><path d="m131.9195 138.4655h-86.041l-.681 4.073c66.939 16.204 111.232 55.363 129.618 102.414l-18.709-89.96c-3.23-12.396-12.598-16.095-24.187-16.527" fill="#f2ae14"/></g></svg>